G04 Layer_Color=16711935*
%FSLAX25Y25*%
%MOIN*%
G70*
G01*
G75*
%ADD33C,0.00394*%
D33*
X115945Y72441D02*
G03*
X115945Y72441I-1969J0D01*
G01*
X71260Y110039D02*
G03*
X71260Y110039I-1969J0D01*
G01*
X110433Y61811D02*
X121850D01*
X110433Y75984D02*
X121850D01*
Y61811D02*
Y75984D01*
X110433Y61811D02*
Y75984D01*
X103937Y47146D02*
X110630D01*
X103937Y43406D02*
X110630D01*
X103937D02*
Y47146D01*
X110630Y43406D02*
Y47146D01*
X35531Y44390D02*
X39272D01*
X35531Y37500D02*
X39272D01*
Y44390D01*
X35531Y37500D02*
Y44390D01*
X45374Y40059D02*
X49114D01*
X45374Y33169D02*
X49114D01*
Y40059D01*
X45374Y33169D02*
Y40059D01*
X51083Y101378D02*
Y108071D01*
X47343Y101378D02*
Y108071D01*
X51083D01*
X47343Y101378D02*
X51083D01*
X57972Y109252D02*
Y115945D01*
X61713Y109252D02*
Y115945D01*
X57972Y109252D02*
X61713D01*
X57972Y115945D02*
X61713D01*
X104921Y56988D02*
X111614D01*
X104921Y53248D02*
X111614D01*
X104921D02*
Y56988D01*
X111614Y53248D02*
Y56988D01*
X79921Y106496D02*
Y117913D01*
X65748Y106496D02*
Y117913D01*
X79921D01*
X65748Y106496D02*
X79921D01*
M02*
