G04 Layer_Color=0*
%FSLAX25Y25*%
%MOIN*%
G70*
G01*
G75*
%ADD35C,0.00500*%
%ADD36C,0.00200*%
%ADD37C,0.00700*%
D35*
X-438102Y-339102D02*
X671898D01*
X-458102Y-359102D02*
Y400898D01*
X-438102Y-339102D02*
Y380898D01*
X-458102Y-359102D02*
X691898D01*
Y400898D01*
X-458102D02*
X691898D01*
X671898Y-339102D02*
Y380898D01*
X-438102D02*
X671898D01*
X-170602D02*
Y400898D01*
X116898Y380898D02*
Y400898D01*
X404398Y380898D02*
Y400898D01*
X671898Y210898D02*
X691898D01*
X671898Y20898D02*
X691898D01*
X671898Y-169102D02*
X691898D01*
X-458102Y210898D02*
X-438102D01*
X-458102Y20898D02*
X-438102D01*
X-458102Y-169102D02*
X-438102D01*
X-170602Y-359102D02*
Y-339102D01*
X116898Y-359102D02*
Y-339102D01*
X81898D02*
X221898D01*
X81898D02*
Y-219102D01*
X221898D01*
Y-249102D02*
X371898D01*
X221898Y-339102D02*
X671898D01*
X221898Y-309102D02*
X671898D01*
X221898Y-279102D02*
X671898D01*
X221898Y-219102D02*
X371898D01*
Y-279102D02*
Y-219102D01*
X671898D01*
Y-339102D02*
Y-219102D01*
X221898Y-339102D02*
Y-219102D01*
X581898Y-339102D02*
Y-279102D01*
X371898Y-339102D02*
Y-279102D01*
X404398Y-359102D02*
Y-339102D01*
X226898Y-284603D02*
Y-289102D01*
Y-284603D02*
X228397D01*
X229040Y-284818D01*
X229468Y-285246D01*
X229683Y-285675D01*
X229897Y-286317D01*
Y-287388D01*
X229683Y-288031D01*
X229468Y-288460D01*
X229040Y-288888D01*
X228397Y-289102D01*
X226898D01*
X234332D02*
X232618Y-284603D01*
X230904Y-289102D01*
X231547Y-287603D02*
X233689D01*
X236881Y-284603D02*
Y-289102D01*
X235382Y-284603D02*
X238381D01*
X241702D02*
X238916D01*
Y-289102D01*
X241702D01*
X238916Y-286746D02*
X240630D01*
X242666Y-286103D02*
X242452Y-286317D01*
X242666Y-286531D01*
X242880Y-286317D01*
X242666Y-286103D01*
Y-288674D02*
X242452Y-288888D01*
X242666Y-289102D01*
X242880Y-288888D01*
X242666Y-288674D01*
X586898Y-284603D02*
Y-289102D01*
Y-284603D02*
X588826D01*
X589468Y-284818D01*
X589683Y-285032D01*
X589897Y-285460D01*
Y-285889D01*
X589683Y-286317D01*
X589468Y-286531D01*
X588826Y-286746D01*
X586898D01*
X588397D02*
X589897Y-289102D01*
X593689Y-284603D02*
X590904D01*
Y-289102D01*
X593689D01*
X590904Y-286746D02*
X592618D01*
X594439Y-284603D02*
X596153Y-289102D01*
X597867Y-284603D02*
X596153Y-289102D01*
X598659Y-286103D02*
X598445Y-286317D01*
X598659Y-286531D01*
X598874Y-286317D01*
X598659Y-286103D01*
Y-288674D02*
X598445Y-288888D01*
X598659Y-289102D01*
X598874Y-288888D01*
X598659Y-288674D01*
X376898Y-314603D02*
Y-319102D01*
Y-314603D02*
X378397D01*
X379040Y-314818D01*
X379468Y-315246D01*
X379683Y-315674D01*
X379897Y-316317D01*
Y-317388D01*
X379683Y-318031D01*
X379468Y-318460D01*
X379040Y-318888D01*
X378397Y-319102D01*
X376898D01*
X380904Y-314603D02*
X381975Y-319102D01*
X383046Y-314603D02*
X381975Y-319102D01*
X383046Y-314603D02*
X384118Y-319102D01*
X385189Y-314603D02*
X384118Y-319102D01*
X389302Y-315674D02*
X389088Y-315246D01*
X388659Y-314818D01*
X388231Y-314603D01*
X387374D01*
X386946Y-314818D01*
X386517Y-315246D01*
X386303Y-315674D01*
X386088Y-316317D01*
Y-317388D01*
X386303Y-318031D01*
X386517Y-318460D01*
X386946Y-318888D01*
X387374Y-319102D01*
X388231D01*
X388659Y-318888D01*
X389088Y-318460D01*
X389302Y-318031D01*
Y-317388D01*
X388231D02*
X389302D01*
X393865Y-314603D02*
Y-319102D01*
Y-314603D02*
X396865Y-319102D01*
Y-314603D02*
Y-319102D01*
X399393Y-314603D02*
X398964Y-314818D01*
X398536Y-315246D01*
X398322Y-315674D01*
X398107Y-316317D01*
Y-317388D01*
X398322Y-318031D01*
X398536Y-318460D01*
X398964Y-318888D01*
X399393Y-319102D01*
X400250D01*
X400678Y-318888D01*
X401107Y-318460D01*
X401321Y-318031D01*
X401535Y-317388D01*
Y-316317D01*
X401321Y-315674D01*
X401107Y-315246D01*
X400678Y-314818D01*
X400250Y-314603D01*
X399393D01*
X402799Y-316103D02*
X402585Y-316317D01*
X402799Y-316531D01*
X403014Y-316317D01*
X402799Y-316103D01*
Y-318674D02*
X402585Y-318888D01*
X402799Y-319102D01*
X403014Y-318888D01*
X402799Y-318674D01*
X229683Y-224603D02*
X226898D01*
Y-229102D01*
X229683D01*
X226898Y-226746D02*
X228612D01*
X230433Y-224603D02*
Y-229102D01*
Y-224603D02*
X233432Y-229102D01*
Y-224603D02*
Y-229102D01*
X237888Y-225675D02*
X237674Y-225246D01*
X237245Y-224818D01*
X236817Y-224603D01*
X235960D01*
X235531Y-224818D01*
X235103Y-225246D01*
X234889Y-225675D01*
X234675Y-226317D01*
Y-227388D01*
X234889Y-228031D01*
X235103Y-228460D01*
X235531Y-228888D01*
X235960Y-229102D01*
X236817D01*
X237245Y-228888D01*
X237674Y-228460D01*
X237888Y-228031D01*
Y-227388D01*
X236817D02*
X237888D01*
X238916Y-224603D02*
Y-229102D01*
X239859Y-224603D02*
Y-229102D01*
Y-224603D02*
X242859Y-229102D01*
Y-224603D02*
Y-229102D01*
X246886Y-224603D02*
X244101D01*
Y-229102D01*
X246886D01*
X244101Y-226746D02*
X245815D01*
X250421Y-224603D02*
X247636D01*
Y-229102D01*
X250421D01*
X247636Y-226746D02*
X249350D01*
X251171Y-224603D02*
Y-229102D01*
Y-224603D02*
X253099D01*
X253742Y-224818D01*
X253956Y-225032D01*
X254170Y-225460D01*
Y-225889D01*
X253956Y-226317D01*
X253742Y-226532D01*
X253099Y-226746D01*
X251171D01*
X252671D02*
X254170Y-229102D01*
X255392Y-226103D02*
X255177Y-226317D01*
X255392Y-226532D01*
X255606Y-226317D01*
X255392Y-226103D01*
Y-228674D02*
X255177Y-228888D01*
X255392Y-229102D01*
X255606Y-228888D01*
X255392Y-228674D01*
X376898Y-286960D02*
X378826D01*
X379468Y-286746D01*
X379683Y-286531D01*
X379897Y-286103D01*
Y-285460D01*
X379683Y-285032D01*
X379468Y-284818D01*
X378826Y-284603D01*
X376898D01*
Y-289102D01*
X384332D02*
X382618Y-284603D01*
X380904Y-289102D01*
X381547Y-287603D02*
X383689D01*
X385382Y-284603D02*
Y-289102D01*
Y-284603D02*
X387310D01*
X387952Y-284818D01*
X388167Y-285032D01*
X388381Y-285460D01*
Y-285889D01*
X388167Y-286317D01*
X387952Y-286531D01*
X387310Y-286746D01*
X385382D01*
X386881D02*
X388381Y-289102D01*
X390887Y-284603D02*
Y-289102D01*
X389388Y-284603D02*
X392387D01*
X396458D02*
Y-289102D01*
Y-284603D02*
X399457Y-289102D01*
Y-284603D02*
Y-289102D01*
X401985Y-284603D02*
X401557Y-284818D01*
X401128Y-285246D01*
X400914Y-285675D01*
X400700Y-286317D01*
Y-287388D01*
X400914Y-288031D01*
X401128Y-288460D01*
X401557Y-288888D01*
X401985Y-289102D01*
X402842D01*
X403271Y-288888D01*
X403699Y-288460D01*
X403913Y-288031D01*
X404128Y-287388D01*
Y-286317D01*
X403913Y-285675D01*
X403699Y-285246D01*
X403271Y-284818D01*
X402842Y-284603D01*
X401985D01*
X405392Y-288674D02*
X405177Y-288888D01*
X405392Y-289102D01*
X405606Y-288888D01*
X405392Y-288674D01*
X406806Y-286103D02*
X406591Y-286317D01*
X406806Y-286531D01*
X407020Y-286317D01*
X406806Y-286103D01*
Y-288674D02*
X406591Y-288888D01*
X406806Y-289102D01*
X407020Y-288888D01*
X406806Y-288674D01*
X378397Y-224603D02*
Y-229102D01*
X376898Y-224603D02*
X379897D01*
X380433D02*
Y-229102D01*
X382875Y-224603D02*
Y-229102D01*
X381375Y-224603D02*
X384375D01*
X384910D02*
Y-229102D01*
X387481D01*
X390759Y-224603D02*
X387974D01*
Y-229102D01*
X390759D01*
X387974Y-226746D02*
X389688D01*
X391723Y-226103D02*
X391509Y-226317D01*
X391723Y-226532D01*
X391937Y-226317D01*
X391723Y-226103D01*
Y-228674D02*
X391509Y-228888D01*
X391723Y-229102D01*
X391937Y-228888D01*
X391723Y-228674D01*
X226898Y-256460D02*
X228826D01*
X229468Y-256246D01*
X229683Y-256031D01*
X229897Y-255603D01*
Y-254960D01*
X229683Y-254532D01*
X229468Y-254318D01*
X228826Y-254103D01*
X226898D01*
Y-258602D01*
X234118Y-255174D02*
X233903Y-254746D01*
X233475Y-254318D01*
X233046Y-254103D01*
X232189D01*
X231761Y-254318D01*
X231332Y-254746D01*
X231118Y-255174D01*
X230904Y-255817D01*
Y-256888D01*
X231118Y-257531D01*
X231332Y-257960D01*
X231761Y-258388D01*
X232189Y-258602D01*
X233046D01*
X233475Y-258388D01*
X233903Y-257960D01*
X234118Y-257531D01*
X235382Y-254103D02*
Y-258602D01*
Y-254103D02*
X237310D01*
X237952Y-254318D01*
X238167Y-254532D01*
X238381Y-254960D01*
Y-255389D01*
X238167Y-255817D01*
X237952Y-256031D01*
X237310Y-256246D01*
X235382D02*
X237310D01*
X237952Y-256460D01*
X238167Y-256674D01*
X238381Y-257103D01*
Y-257745D01*
X238167Y-258174D01*
X237952Y-258388D01*
X237310Y-258602D01*
X235382D01*
X242923Y-254103D02*
Y-258602D01*
Y-254103D02*
X244422D01*
X245065Y-254318D01*
X245494Y-254746D01*
X245708Y-255174D01*
X245922Y-255817D01*
Y-256888D01*
X245708Y-257531D01*
X245494Y-257960D01*
X245065Y-258388D01*
X244422Y-258602D01*
X242923D01*
X249714Y-254103D02*
X246929D01*
Y-258602D01*
X249714D01*
X246929Y-256246D02*
X248643D01*
X253463Y-254746D02*
X253035Y-254318D01*
X252392Y-254103D01*
X251535D01*
X250892Y-254318D01*
X250464Y-254746D01*
Y-255174D01*
X250678Y-255603D01*
X250892Y-255817D01*
X251321Y-256031D01*
X252606Y-256460D01*
X253035Y-256674D01*
X253249Y-256888D01*
X253463Y-257317D01*
Y-257960D01*
X253035Y-258388D01*
X252392Y-258602D01*
X251535D01*
X250892Y-258388D01*
X250464Y-257960D01*
X254470Y-254103D02*
Y-258602D01*
X258627Y-255174D02*
X258412Y-254746D01*
X257984Y-254318D01*
X257555Y-254103D01*
X256698D01*
X256270Y-254318D01*
X255841Y-254746D01*
X255627Y-255174D01*
X255413Y-255817D01*
Y-256888D01*
X255627Y-257531D01*
X255841Y-257960D01*
X256270Y-258388D01*
X256698Y-258602D01*
X257555D01*
X257984Y-258388D01*
X258412Y-257960D01*
X258627Y-257531D01*
Y-256888D01*
X257555D02*
X258627D01*
X259655Y-254103D02*
Y-258602D01*
Y-254103D02*
X262654Y-258602D01*
Y-254103D02*
Y-258602D01*
X266682Y-254103D02*
X263897D01*
Y-258602D01*
X266682D01*
X263897Y-256246D02*
X265611D01*
X267432Y-254103D02*
Y-258602D01*
Y-254103D02*
X269360D01*
X270003Y-254318D01*
X270217Y-254532D01*
X270431Y-254960D01*
Y-255389D01*
X270217Y-255817D01*
X270003Y-256031D01*
X269360Y-256246D01*
X267432D01*
X268932D02*
X270431Y-258602D01*
X271652Y-255603D02*
X271438Y-255817D01*
X271652Y-256031D01*
X271867Y-255817D01*
X271652Y-255603D01*
Y-258174D02*
X271438Y-258388D01*
X271652Y-258602D01*
X271867Y-258388D01*
X271652Y-258174D01*
X226898Y-314603D02*
Y-319102D01*
Y-314603D02*
X229683D01*
X226898Y-316746D02*
X228612D01*
X230197Y-314603D02*
Y-319102D01*
X231140Y-314603D02*
Y-319102D01*
X233711D01*
X236988Y-314603D02*
X234203D01*
Y-319102D01*
X236988D01*
X234203Y-316746D02*
X235917D01*
X241273Y-314603D02*
Y-319102D01*
Y-314603D02*
X244272Y-319102D01*
Y-314603D02*
Y-319102D01*
X248943D02*
X247229Y-314603D01*
X245515Y-319102D01*
X246158Y-317603D02*
X248300D01*
X249993Y-314603D02*
Y-319102D01*
Y-314603D02*
X251707Y-319102D01*
X253420Y-314603D02*
X251707Y-319102D01*
X253420Y-314603D02*
Y-319102D01*
X257491Y-314603D02*
X254706D01*
Y-319102D01*
X257491D01*
X254706Y-316746D02*
X256420D01*
X258455Y-316103D02*
X258241Y-316317D01*
X258455Y-316531D01*
X258669Y-316317D01*
X258455Y-316103D01*
Y-318674D02*
X258241Y-318888D01*
X258455Y-319102D01*
X258669Y-318888D01*
X258455Y-318674D01*
X589897Y-315246D02*
X589468Y-314818D01*
X588826Y-314603D01*
X587969D01*
X587326Y-314818D01*
X586898Y-315246D01*
Y-315674D01*
X587112Y-316103D01*
X587326Y-316317D01*
X587755Y-316531D01*
X589040Y-316960D01*
X589468Y-317174D01*
X589683Y-317388D01*
X589897Y-317817D01*
Y-318460D01*
X589468Y-318888D01*
X588826Y-319102D01*
X587969D01*
X587326Y-318888D01*
X586898Y-318460D01*
X594117Y-315674D02*
X593903Y-315246D01*
X593475Y-314818D01*
X593046Y-314603D01*
X592189D01*
X591761Y-314818D01*
X591332Y-315246D01*
X591118Y-315674D01*
X590904Y-316317D01*
Y-317388D01*
X591118Y-318031D01*
X591332Y-318460D01*
X591761Y-318888D01*
X592189Y-319102D01*
X593046D01*
X593475Y-318888D01*
X593903Y-318460D01*
X594117Y-318031D01*
X598809Y-319102D02*
X597095Y-314603D01*
X595381Y-319102D01*
X596024Y-317603D02*
X598167D01*
X599859Y-314603D02*
Y-319102D01*
X602430D01*
X605708Y-314603D02*
X602923D01*
Y-319102D01*
X605708D01*
X602923Y-316746D02*
X604637D01*
X606672Y-316103D02*
X606458Y-316317D01*
X606672Y-316531D01*
X606886Y-316317D01*
X606672Y-316103D01*
Y-318674D02*
X606458Y-318888D01*
X606672Y-319102D01*
X606886Y-318888D01*
X606672Y-318674D01*
D36*
X93398Y-278102D02*
X206398D01*
X93398Y-277902D02*
X206798D01*
X93398Y-277702D02*
X207198D01*
X93398Y-277502D02*
X207598D01*
X93398Y-277302D02*
X207798D01*
X93398Y-277102D02*
X208198D01*
X93398Y-276902D02*
X208398D01*
X93398Y-276702D02*
X208598D01*
X93398Y-276502D02*
X208798D01*
X93398Y-276302D02*
X208998D01*
X93398Y-276102D02*
X209198D01*
X93398Y-275902D02*
X209398D01*
X93398Y-275702D02*
X209598D01*
X93398Y-275502D02*
X209798D01*
X93398Y-275302D02*
X209998D01*
X93398Y-275102D02*
X210198D01*
X93398Y-274902D02*
X210198D01*
X93398Y-274702D02*
X210398D01*
X93398Y-274502D02*
X210598D01*
X93398Y-274302D02*
X210598D01*
X93398Y-274102D02*
X210798D01*
X93398Y-273902D02*
X210798D01*
X93398Y-273702D02*
X210998D01*
X93398Y-273502D02*
X210998D01*
X93398Y-273302D02*
X210998D01*
X93398Y-273102D02*
X211198D01*
X93398Y-272902D02*
X211198D01*
X93398Y-272702D02*
X211198D01*
X93398Y-272502D02*
X211398D01*
X93398Y-272302D02*
X211398D01*
X93398Y-272102D02*
X211398D01*
X93398Y-271902D02*
X211398D01*
X93398Y-271702D02*
X211398D01*
X93398Y-271502D02*
X211398D01*
X93398Y-271302D02*
X211398D01*
X93398Y-271102D02*
X211398D01*
X93398Y-270902D02*
X211398D01*
X93398Y-270702D02*
X211398D01*
X93398Y-270502D02*
X211398D01*
X93398Y-270302D02*
X211398D01*
X93398Y-270102D02*
X211398D01*
X93398Y-269902D02*
X211398D01*
X173998Y-269702D02*
X211398D01*
X122398D02*
X172398D01*
X93398D02*
X120598D01*
X174198Y-269502D02*
X211398D01*
X122598D02*
X172198D01*
X93398D02*
X120398D01*
X174398Y-269302D02*
X211398D01*
X122798D02*
X172198D01*
X93398D02*
X120398D01*
X174598Y-269102D02*
X211398D01*
X172598D02*
X173598D01*
X122798D02*
X172198D01*
X120798D02*
X121798D01*
X93398D02*
X120398D01*
X174598Y-268902D02*
X211398D01*
X122998D02*
X173798D01*
X93398D02*
X121998D01*
X174598Y-268702D02*
X211398D01*
X122998D02*
X173798D01*
X93398D02*
X122198D01*
X197398Y-268502D02*
X211398D01*
X195198D02*
X196598D01*
X191998D02*
X193598D01*
X189798D02*
X191198D01*
X187398D02*
X188198D01*
X186398D02*
X186598D01*
X183798D02*
X185198D01*
X178398D02*
X181398D01*
X176598D02*
X177798D01*
X174798D02*
X175798D01*
X173398D02*
X173998D01*
X170998D02*
X172598D01*
X168798D02*
X170198D01*
X165998D02*
X167198D01*
X161598D02*
X164398D01*
X156198D02*
X159598D01*
X153998D02*
X154598D01*
X150798D02*
X152598D01*
X148998D02*
X149998D01*
X146998D02*
X148198D01*
X144598D02*
X146198D01*
X140798D02*
X143198D01*
X139398D02*
X140198D01*
X136798D02*
X138198D01*
X133598D02*
X135398D01*
X130198D02*
X131998D01*
X128398D02*
X129398D01*
X122998D02*
X125998D01*
X121798D02*
X122198D01*
X119198D02*
X120798D01*
X117398D02*
X118398D01*
X115398D02*
X116598D01*
X113998D02*
X114598D01*
X111998D02*
X112998D01*
X110198D02*
X111198D01*
X109198D02*
X109598D01*
X106598D02*
X107998D01*
X104798D02*
X105798D01*
X102998D02*
X103998D01*
X93398D02*
X102198D01*
X197398Y-268302D02*
X211398D01*
X195398D02*
X196598D01*
X191998D02*
X193398D01*
X189998D02*
X191198D01*
X187398D02*
X188198D01*
X183798D02*
X184798D01*
X178398D02*
X181398D01*
X176598D02*
X177798D01*
X174798D02*
X175798D01*
X173798D02*
X173998D01*
X170998D02*
X172198D01*
X168998D02*
X170198D01*
X166198D02*
X167198D01*
X161998D02*
X164198D01*
X156398D02*
X159598D01*
X153998D02*
X154598D01*
X150798D02*
X152198D01*
X148998D02*
X149998D01*
X146998D02*
X148198D01*
X144998D02*
X146198D01*
X140798D02*
X142798D01*
X139398D02*
X140198D01*
X136798D02*
X137998D01*
X133598D02*
X134998D01*
X130198D02*
X131598D01*
X128398D02*
X129398D01*
X122998D02*
X125998D01*
X119198D02*
X120598D01*
X117398D02*
X118398D01*
X115398D02*
X116598D01*
X113798D02*
X114598D01*
X111998D02*
X112798D01*
X110198D02*
X111198D01*
X106598D02*
X107798D01*
X104798D02*
X105798D01*
X102998D02*
X103798D01*
X93398D02*
X102198D01*
X197398Y-268102D02*
X211398D01*
X195398D02*
X196598D01*
X191998D02*
X193198D01*
X190198D02*
X191198D01*
X187398D02*
X188198D01*
X183798D02*
X184798D01*
X178398D02*
X181398D01*
X176598D02*
X177798D01*
X174798D02*
X175798D01*
X170998D02*
X171998D01*
X169198D02*
X170198D01*
X166198D02*
X167198D01*
X162398D02*
X163998D01*
X156598D02*
X159598D01*
X153998D02*
X154598D01*
X150798D02*
X151998D01*
X148998D02*
X149998D01*
X146998D02*
X148198D01*
X144998D02*
X146198D01*
X140798D02*
X142598D01*
X139398D02*
X140198D01*
X136798D02*
X137798D01*
X133598D02*
X134798D01*
X130198D02*
X131398D01*
X128398D02*
X129398D01*
X122998D02*
X125998D01*
X119198D02*
X120398D01*
X117398D02*
X118398D01*
X115398D02*
X116598D01*
X113598D02*
X114598D01*
X111998D02*
X112598D01*
X110198D02*
X111198D01*
X106598D02*
X107598D01*
X104998D02*
X105798D01*
X102998D02*
X103798D01*
X93398D02*
X102198D01*
X197398Y-267902D02*
X211398D01*
X195398D02*
X196598D01*
X193998D02*
X195198D01*
X191998D02*
X192998D01*
X190198D02*
X191198D01*
X187398D02*
X189398D01*
X185598D02*
X186398D01*
X182398D02*
X184798D01*
X178398D02*
X181398D01*
X176598D02*
X177798D01*
X174798D02*
X175798D01*
X172998D02*
X173598D01*
X170998D02*
X171998D01*
X169198D02*
X170198D01*
X166198D02*
X168398D01*
X164798D02*
X165998D01*
X162598D02*
X163798D01*
X160398D02*
X160998D01*
X156598D02*
X159598D01*
X152998D02*
X155798D01*
X150798D02*
X151798D01*
X148998D02*
X149998D01*
X146998D02*
X148198D01*
X145198D02*
X146198D01*
X143398D02*
X144198D01*
X140798D02*
X142398D01*
X138798D02*
X140198D01*
X135798D02*
X137798D01*
X133598D02*
X134798D01*
X132198D02*
X133398D01*
X130198D02*
X131198D01*
X126798D02*
X129398D01*
X122998D02*
X125998D01*
X121398D02*
X121798D01*
X119198D02*
X120198D01*
X117398D02*
X118398D01*
X115398D02*
X116598D01*
X113398D02*
X114598D01*
X111998D02*
X112598D01*
X110198D02*
X111198D01*
X108398D02*
X109198D01*
X106598D02*
X107598D01*
X104998D02*
X105798D01*
X102998D02*
X103798D01*
X93398D02*
X102198D01*
X197398Y-267702D02*
X211398D01*
X193798D02*
X196598D01*
X191998D02*
X192998D01*
X190398D02*
X191198D01*
X187398D02*
X189398D01*
X185398D02*
X186598D01*
X182398D02*
X184798D01*
X178398D02*
X181398D01*
X176598D02*
X177798D01*
X174798D02*
X175798D01*
X172798D02*
X173798D01*
X170998D02*
X171798D01*
X169198D02*
X170198D01*
X164598D02*
X168398D01*
X162598D02*
X163798D01*
X160398D02*
X161398D01*
X156598D02*
X159598D01*
X152798D02*
X155798D01*
X150798D02*
X151798D01*
X148998D02*
X149998D01*
X146998D02*
X148198D01*
X145398D02*
X146198D01*
X143198D02*
X144398D01*
X140798D02*
X142398D01*
X138598D02*
X140198D01*
X135598D02*
X137798D01*
X131998D02*
X134598D01*
X130198D02*
X131198D01*
X126798D02*
X129398D01*
X122998D02*
X125998D01*
X121198D02*
X121998D01*
X119198D02*
X120198D01*
X117398D02*
X118398D01*
X115398D02*
X116598D01*
X113398D02*
X114598D01*
X111998D02*
X112398D01*
X110198D02*
X111198D01*
X108398D02*
X109398D01*
X106598D02*
X107598D01*
X104998D02*
X105798D01*
X102998D02*
X103598D01*
X93398D02*
X102198D01*
X197398Y-267502D02*
X211398D01*
X193598D02*
X196598D01*
X191998D02*
X192798D01*
X190198D02*
X191198D01*
X187398D02*
X189398D01*
X185598D02*
X186598D01*
X182398D02*
X184798D01*
X178398D02*
X181398D01*
X176598D02*
X177798D01*
X174798D02*
X175798D01*
X172798D02*
X173798D01*
X170998D02*
X171798D01*
X169198D02*
X170198D01*
X164398D02*
X168398D01*
X162798D02*
X163598D01*
X160398D02*
X161798D01*
X156598D02*
X159598D01*
X152598D02*
X155798D01*
X150798D02*
X151798D01*
X148998D02*
X149998D01*
X146998D02*
X148198D01*
X145398D02*
X146198D01*
X143198D02*
X144598D01*
X140798D02*
X142398D01*
X138598D02*
X140198D01*
X135398D02*
X137798D01*
X131798D02*
X134598D01*
X130198D02*
X131198D01*
X126798D02*
X129398D01*
X122998D02*
X125998D01*
X120998D02*
X122198D01*
X119198D02*
X120198D01*
X117398D02*
X118398D01*
X115398D02*
X116598D01*
X113198D02*
X114598D01*
X111998D02*
X112198D01*
X110198D02*
X111198D01*
X108398D02*
X109398D01*
X106598D02*
X107598D01*
X105198D02*
X105798D01*
X102998D02*
X103598D01*
X93398D02*
X102198D01*
X197398Y-267302D02*
X211398D01*
X195598D02*
X196598D01*
X191998D02*
X192798D01*
X190198D02*
X191198D01*
X187398D02*
X188998D01*
X185798D02*
X186598D01*
X182398D02*
X184798D01*
X178398D02*
X181398D01*
X176598D02*
X177798D01*
X174798D02*
X175798D01*
X172598D02*
X173998D01*
X170998D02*
X171798D01*
X169198D02*
X170198D01*
X166398D02*
X167798D01*
X162798D02*
X163598D01*
X160398D02*
X161798D01*
X156598D02*
X159598D01*
X152598D02*
X155198D01*
X150798D02*
X151798D01*
X148998D02*
X149998D01*
X146998D02*
X148198D01*
X145398D02*
X146198D01*
X143198D02*
X144598D01*
X140798D02*
X142398D01*
X138598D02*
X140198D01*
X135398D02*
X137798D01*
X133798D02*
X134598D01*
X130198D02*
X131198D01*
X126798D02*
X129398D01*
X122998D02*
X125998D01*
X120998D02*
X122198D01*
X119198D02*
X120198D01*
X117398D02*
X118398D01*
X115398D02*
X116598D01*
X112998D02*
X114598D01*
X110198D02*
X111198D01*
X108598D02*
X109398D01*
X106598D02*
X107598D01*
X105198D02*
X105798D01*
X104198D02*
X104398D01*
X102998D02*
X103598D01*
X93398D02*
X102198D01*
X197398Y-267102D02*
X211398D01*
X195598D02*
X196598D01*
X191998D02*
X192798D01*
X190198D02*
X191198D01*
X187398D02*
X188398D01*
X182398D02*
X184998D01*
X178398D02*
X181398D01*
X176598D02*
X177798D01*
X174798D02*
X175798D01*
X172598D02*
X173998D01*
X170998D02*
X171798D01*
X168998D02*
X170198D01*
X166398D02*
X167398D01*
X162798D02*
X163598D01*
X160398D02*
X161998D01*
X156598D02*
X159598D01*
X152598D02*
X154798D01*
X150798D02*
X151798D01*
X148998D02*
X149998D01*
X146998D02*
X148198D01*
X145398D02*
X146198D01*
X143198D02*
X144598D01*
X140998D02*
X142398D01*
X138598D02*
X140198D01*
X135398D02*
X137798D01*
X133798D02*
X134598D01*
X130198D02*
X131198D01*
X126798D02*
X129398D01*
X122998D02*
X125998D01*
X120998D02*
X122198D01*
X119198D02*
X120198D01*
X117398D02*
X118398D01*
X115398D02*
X116598D01*
X112798D02*
X114598D01*
X110198D02*
X111198D01*
X106598D02*
X107798D01*
X105198D02*
X105798D01*
X104198D02*
X104598D01*
X102998D02*
X103398D01*
X93398D02*
X102198D01*
X197398Y-266902D02*
X211398D01*
X195598D02*
X196598D01*
X191998D02*
X192798D01*
X189798D02*
X191198D01*
X187398D02*
X188198D01*
X182398D02*
X185198D01*
X178398D02*
X181398D01*
X176598D02*
X177798D01*
X174798D02*
X175798D01*
X172598D02*
X173998D01*
X170998D02*
X171798D01*
X168798D02*
X170198D01*
X166398D02*
X167198D01*
X162998D02*
X163598D01*
X160398D02*
X161998D01*
X156198D02*
X159598D01*
X152598D02*
X154598D01*
X150798D02*
X151798D01*
X148998D02*
X149998D01*
X146998D02*
X148198D01*
X145398D02*
X146198D01*
X143198D02*
X144598D01*
X140998D02*
X142398D01*
X138598D02*
X140198D01*
X135398D02*
X137798D01*
X133798D02*
X134598D01*
X130198D02*
X131198D01*
X126798D02*
X129398D01*
X122998D02*
X125998D01*
X120998D02*
X122198D01*
X119198D02*
X120198D01*
X117398D02*
X118398D01*
X115398D02*
X116598D01*
X112798D02*
X114598D01*
X110198D02*
X111198D01*
X106598D02*
X107998D01*
X105398D02*
X105798D01*
X104198D02*
X104598D01*
X102998D02*
X103398D01*
X93398D02*
X102198D01*
X197398Y-266702D02*
X211398D01*
X195598D02*
X196598D01*
X193598D02*
X194798D01*
X191998D02*
X192798D01*
X189198D02*
X191198D01*
X187398D02*
X188198D01*
X183798D02*
X186598D01*
X178398D02*
X181398D01*
X176598D02*
X177598D01*
X174798D02*
X175798D01*
X172598D02*
X173798D01*
X170998D02*
X171798D01*
X168198D02*
X170198D01*
X166398D02*
X167198D01*
X164398D02*
X165598D01*
X162998D02*
X163598D01*
X160398D02*
X161998D01*
X155598D02*
X159598D01*
X152598D02*
X154598D01*
X150798D02*
X151798D01*
X148998D02*
X149998D01*
X147198D02*
X148198D01*
X145398D02*
X146198D01*
X143198D02*
X144598D01*
X140998D02*
X142398D01*
X138598D02*
X140198D01*
X135398D02*
X137798D01*
X133798D02*
X134598D01*
X131798D02*
X133198D01*
X130198D02*
X131198D01*
X128198D02*
X129398D01*
X122998D02*
X125998D01*
X120998D02*
X122198D01*
X119198D02*
X120198D01*
X117398D02*
X118398D01*
X115398D02*
X116598D01*
X112998D02*
X114598D01*
X110198D02*
X111198D01*
X106598D02*
X109398D01*
X105398D02*
X105798D01*
X104198D02*
X104598D01*
X102998D02*
X103398D01*
X93398D02*
X102198D01*
X197598Y-266502D02*
X211398D01*
X195598D02*
X196598D01*
X193598D02*
X194798D01*
X191998D02*
X192998D01*
X188998D02*
X191198D01*
X187398D02*
X188198D01*
X183798D02*
X186598D01*
X178398D02*
X181398D01*
X176798D02*
X177598D01*
X174798D02*
X175798D01*
X172798D02*
X173798D01*
X170998D02*
X171798D01*
X167998D02*
X170198D01*
X166398D02*
X167198D01*
X164398D02*
X165598D01*
X162998D02*
X163798D01*
X160398D02*
X161998D01*
X155398D02*
X159598D01*
X152798D02*
X154598D01*
X150798D02*
X151798D01*
X148998D02*
X149998D01*
X147198D02*
X148198D01*
X145398D02*
X146198D01*
X143198D02*
X144398D01*
X140998D02*
X142398D01*
X138598D02*
X140198D01*
X135598D02*
X137798D01*
X133798D02*
X134598D01*
X131998D02*
X132998D01*
X130198D02*
X131198D01*
X128198D02*
X129398D01*
X122998D02*
X125998D01*
X120998D02*
X122198D01*
X119198D02*
X120198D01*
X117398D02*
X118398D01*
X115398D02*
X116598D01*
X113198D02*
X114598D01*
X111998D02*
X112198D01*
X110198D02*
X111198D01*
X106598D02*
X109398D01*
X105398D02*
X105798D01*
X103998D02*
X104798D01*
X102998D02*
X103398D01*
X93398D02*
X102198D01*
X198198Y-266302D02*
X211398D01*
X195398D02*
X196598D01*
X193798D02*
X194798D01*
X191998D02*
X192998D01*
X188998D02*
X191198D01*
X187198D02*
X188198D01*
X185398D02*
X186398D01*
X183798D02*
X184998D01*
X178398D02*
X181398D01*
X176798D02*
X177598D01*
X174798D02*
X175798D01*
X172998D02*
X173598D01*
X170998D02*
X171998D01*
X167998D02*
X170198D01*
X166198D02*
X167198D01*
X164598D02*
X165598D01*
X162998D02*
X163798D01*
X160398D02*
X161998D01*
X155398D02*
X159598D01*
X152798D02*
X154598D01*
X150798D02*
X151798D01*
X148998D02*
X149998D01*
X147398D02*
X147998D01*
X145198D02*
X146198D01*
X143398D02*
X144198D01*
X141798D02*
X142398D01*
X138598D02*
X140198D01*
X135798D02*
X137798D01*
X133798D02*
X134798D01*
X131998D02*
X132998D01*
X130198D02*
X131198D01*
X128198D02*
X129398D01*
X122998D02*
X125998D01*
X121198D02*
X121998D01*
X119198D02*
X120198D01*
X117598D02*
X118398D01*
X115398D02*
X116598D01*
X113198D02*
X114598D01*
X111998D02*
X112398D01*
X110198D02*
X111198D01*
X108198D02*
X109398D01*
X106598D02*
X107798D01*
X105598D02*
X105798D01*
X103998D02*
X104798D01*
X102998D02*
X103198D01*
X93398D02*
X102198D01*
X198198Y-266102D02*
X211398D01*
X195398D02*
X196598D01*
X191998D02*
X193198D01*
X190198D02*
X191198D01*
X187198D02*
X188198D01*
X182398D02*
X184998D01*
X178398D02*
X181398D01*
X174798D02*
X175798D01*
X170998D02*
X171998D01*
X168998D02*
X170198D01*
X166198D02*
X167198D01*
X162798D02*
X163998D01*
X160398D02*
X161998D01*
X156598D02*
X159598D01*
X153798D02*
X154598D01*
X150798D02*
X151998D01*
X148798D02*
X149998D01*
X144998D02*
X146198D01*
X141798D02*
X142598D01*
X139198D02*
X140198D01*
X136798D02*
X137198D01*
X133598D02*
X134798D01*
X130198D02*
X131398D01*
X126798D02*
X129398D01*
X122998D02*
X125998D01*
X119198D02*
X120398D01*
X115398D02*
X116598D01*
X113398D02*
X114598D01*
X111998D02*
X112598D01*
X109998D02*
X111198D01*
X106598D02*
X107798D01*
X105598D02*
X105798D01*
X103998D02*
X104798D01*
X102998D02*
X103198D01*
X93398D02*
X102198D01*
X198198Y-265902D02*
X211398D01*
X197198D02*
X197398D01*
X195198D02*
X196598D01*
X191998D02*
X193398D01*
X190198D02*
X191198D01*
X186998D02*
X188398D01*
X182398D02*
X184998D01*
X178198D02*
X181398D01*
X174798D02*
X175798D01*
X170998D02*
X172198D01*
X169198D02*
X170198D01*
X165998D02*
X167398D01*
X162798D02*
X163998D01*
X160398D02*
X161798D01*
X156598D02*
X159598D01*
X153798D02*
X154798D01*
X150798D02*
X152198D01*
X148798D02*
X149998D01*
X144998D02*
X146198D01*
X141798D02*
X142798D01*
X140798D02*
X140998D01*
X139198D02*
X140198D01*
X136798D02*
X137198D01*
X133398D02*
X134998D01*
X130198D02*
X131598D01*
X126798D02*
X129398D01*
X122998D02*
X125998D01*
X118998D02*
X120598D01*
X115398D02*
X116598D01*
X113598D02*
X114598D01*
X111998D02*
X112598D01*
X109998D02*
X111198D01*
X106598D02*
X107798D01*
X105598D02*
X105798D01*
X103798D02*
X104798D01*
X93398D02*
X102198D01*
X203198Y-265702D02*
X211398D01*
X202398D02*
X202998D01*
X201598D02*
X201998D01*
X200398D02*
X201198D01*
X198198D02*
X200198D01*
X197198D02*
X197598D01*
X194998D02*
X196598D01*
X191998D02*
X193598D01*
X190198D02*
X191198D01*
X186798D02*
X188598D01*
X182398D02*
X185198D01*
X177998D02*
X181398D01*
X176598D02*
X176798D01*
X174798D02*
X175798D01*
X173598D02*
X173998D01*
X170998D02*
X172398D01*
X169198D02*
X170198D01*
X165798D02*
X167598D01*
X162798D02*
X164398D01*
X160398D02*
X161798D01*
X156598D02*
X159598D01*
X153998D02*
X154998D01*
X150798D02*
X152398D01*
X148598D02*
X149998D01*
X146998D02*
X147398D01*
X144598D02*
X146198D01*
X141798D02*
X143198D01*
X140798D02*
X141198D01*
X139198D02*
X140198D01*
X136798D02*
X137198D01*
X133198D02*
X135398D01*
X130198D02*
X131798D01*
X126798D02*
X129398D01*
X122998D02*
X125998D01*
X121998D02*
X122198D01*
X118798D02*
X120798D01*
X117198D02*
X117598D01*
X115398D02*
X116598D01*
X113798D02*
X114598D01*
X111998D02*
X112798D01*
X109798D02*
X111198D01*
X106598D02*
X107998D01*
X103798D02*
X104998D01*
X93398D02*
X102198D01*
X203198Y-265502D02*
X211398D01*
X202598D02*
X202998D01*
X201598D02*
X201998D01*
X200398D02*
X201198D01*
X182398D02*
X200198D01*
X162598D02*
X181398D01*
X160398D02*
X161598D01*
X138598D02*
X159598D01*
X130198D02*
X137798D01*
X126798D02*
X129398D01*
X111998D02*
X125998D01*
X106598D02*
X111198D01*
X103798D02*
X104998D01*
X93398D02*
X102198D01*
X203198Y-265302D02*
X211398D01*
X202598D02*
X202998D01*
X201598D02*
X201798D01*
X200398D02*
X201198D01*
X182398D02*
X200198D01*
X162598D02*
X181398D01*
X160398D02*
X161198D01*
X138598D02*
X159598D01*
X130198D02*
X137798D01*
X126798D02*
X129398D01*
X111998D02*
X125998D01*
X106598D02*
X111198D01*
X103598D02*
X104998D01*
X93398D02*
X102198D01*
X203198Y-265102D02*
X211398D01*
X202798D02*
X202998D01*
X202198D02*
X202398D01*
X201598D02*
X201798D01*
X200398D02*
X201198D01*
X183798D02*
X200198D01*
X162398D02*
X181398D01*
X138598D02*
X159598D01*
X130198D02*
X137798D01*
X128398D02*
X129398D01*
X111998D02*
X125998D01*
X106598D02*
X111198D01*
X103598D02*
X105198D01*
X93398D02*
X102198D01*
X203198Y-264902D02*
X211398D01*
X202798D02*
X202998D01*
X201998D02*
X202398D01*
X200398D02*
X201198D01*
X191998D02*
X200198D01*
X183798D02*
X191198D01*
X170998D02*
X181398D01*
X162198D02*
X170198D01*
X150798D02*
X159598D01*
X138598D02*
X149998D01*
X130198D02*
X138198D01*
X128398D02*
X129398D01*
X115398D02*
X125998D01*
X111998D02*
X114598D01*
X106598D02*
X111198D01*
X103598D02*
X105198D01*
X93398D02*
X102198D01*
X203198Y-264702D02*
X211398D01*
X201998D02*
X202598D01*
X200398D02*
X201198D01*
X191998D02*
X200198D01*
X183798D02*
X191198D01*
X170998D02*
X181398D01*
X161598D02*
X170198D01*
X150798D02*
X159598D01*
X130198D02*
X149998D01*
X128398D02*
X129398D01*
X115398D02*
X125998D01*
X111998D02*
X114598D01*
X106598D02*
X111198D01*
X103398D02*
X105198D01*
X93398D02*
X102198D01*
X203198Y-264502D02*
X211398D01*
X201798D02*
X202598D01*
X200398D02*
X201198D01*
X191998D02*
X200198D01*
X170998D02*
X191198D01*
X150798D02*
X170198D01*
X130198D02*
X149998D01*
X115398D02*
X129398D01*
X111998D02*
X114598D01*
X93398D02*
X111198D01*
X203198Y-264302D02*
X211398D01*
X201798D02*
X202798D01*
X200998D02*
X201198D01*
X130198D02*
X199598D01*
X111998D02*
X129398D01*
X93398D02*
X111198D01*
X93398Y-264102D02*
X211398D01*
X93398Y-263902D02*
X211398D01*
X93398Y-263702D02*
X211398D01*
X93398Y-263502D02*
X211398D01*
X93398Y-263302D02*
X211398D01*
X93398Y-263102D02*
X211398D01*
X93398Y-262902D02*
X211398D01*
X93398Y-262702D02*
X211398D01*
X93398Y-262502D02*
X211398D01*
X93398Y-262302D02*
X211398D01*
X93398Y-262102D02*
X211398D01*
X93398Y-261902D02*
X211398D01*
X93398Y-261702D02*
X211398D01*
X93398Y-261502D02*
X211398D01*
X93398Y-261302D02*
X211398D01*
X93398Y-261102D02*
X211398D01*
X93398Y-260902D02*
X211398D01*
X93398Y-260702D02*
X211398D01*
X93398Y-260502D02*
X211398D01*
X93398Y-260302D02*
X211398D01*
X93398Y-260102D02*
X211398D01*
X159398Y-259902D02*
X211398D01*
X93398D02*
X157198D01*
X160398Y-259702D02*
X211398D01*
X140398D02*
X156198D01*
X93398D02*
X137998D01*
X203198Y-259502D02*
X211398D01*
X202398D02*
X202998D01*
X201598D02*
X201998D01*
X200398D02*
X201198D01*
X194998D02*
X199998D01*
X187998D02*
X191398D01*
X178398D02*
X181798D01*
X169198D02*
X172198D01*
X160998D02*
X162998D01*
X150598D02*
X155798D01*
X142198D02*
X144598D01*
X130598D02*
X136198D01*
X123198D02*
X124598D01*
X109598D02*
X116198D01*
X93398D02*
X102398D01*
X203198Y-259302D02*
X211398D01*
X202598D02*
X202998D01*
X201598D02*
X201998D01*
X200398D02*
X201198D01*
X195798D02*
X199998D01*
X187998D02*
X191598D01*
X178398D02*
X181798D01*
X169198D02*
X172198D01*
X161398D02*
X163198D01*
X150798D02*
X155398D01*
X142398D02*
X144598D01*
X130798D02*
X135598D01*
X123198D02*
X124598D01*
X109598D02*
X116198D01*
X93398D02*
X102598D01*
X203198Y-259102D02*
X211398D01*
X202598D02*
X202998D01*
X201598D02*
X201998D01*
X200398D02*
X201198D01*
X196198D02*
X199998D01*
X187998D02*
X191598D01*
X178398D02*
X181998D01*
X169198D02*
X172198D01*
X161798D02*
X163198D01*
X150798D02*
X154998D01*
X142398D02*
X144598D01*
X130798D02*
X135198D01*
X123198D02*
X124598D01*
X109798D02*
X116198D01*
X93398D02*
X102598D01*
X203198Y-258902D02*
X211398D01*
X202598D02*
X202998D01*
X202198D02*
X202398D01*
X201598D02*
X201798D01*
X200398D02*
X201198D01*
X196598D02*
X199998D01*
X187998D02*
X191598D01*
X178398D02*
X181998D01*
X169398D02*
X172398D01*
X161998D02*
X163198D01*
X150798D02*
X154798D01*
X142398D02*
X144598D01*
X130798D02*
X134798D01*
X123198D02*
X124798D01*
X109798D02*
X116198D01*
X93398D02*
X102798D01*
X203198Y-258702D02*
X211398D01*
X202798D02*
X202998D01*
X201998D02*
X202398D01*
X201598D02*
X201798D01*
X200398D02*
X201198D01*
X196798D02*
X199998D01*
X188198D02*
X191598D01*
X178598D02*
X181998D01*
X169398D02*
X172398D01*
X162398D02*
X163198D01*
X150798D02*
X154598D01*
X142398D02*
X144798D01*
X130798D02*
X134598D01*
X123198D02*
X124798D01*
X109798D02*
X116198D01*
X93398D02*
X102798D01*
X203198Y-258502D02*
X211398D01*
X202798D02*
X202998D01*
X201998D02*
X202598D01*
X200398D02*
X201198D01*
X197198D02*
X199998D01*
X188198D02*
X191798D01*
X178598D02*
X181998D01*
X169398D02*
X172398D01*
X162598D02*
X163398D01*
X150998D02*
X154598D01*
X142598D02*
X144798D01*
X130998D02*
X134598D01*
X123198D02*
X124798D01*
X109998D02*
X116198D01*
X93398D02*
X102998D01*
X203198Y-258302D02*
X211398D01*
X201998D02*
X202598D01*
X200398D02*
X201198D01*
X197398D02*
X199998D01*
X188198D02*
X191798D01*
X178598D02*
X182198D01*
X169398D02*
X172398D01*
X162798D02*
X163398D01*
X150998D02*
X154398D01*
X142598D02*
X144798D01*
X130998D02*
X134398D01*
X123198D02*
X124798D01*
X109998D02*
X116198D01*
X93398D02*
X102998D01*
X203198Y-258102D02*
X211398D01*
X201798D02*
X202598D01*
X200398D02*
X201198D01*
X197598D02*
X199998D01*
X188198D02*
X191798D01*
X178598D02*
X182198D01*
X169598D02*
X172598D01*
X162998D02*
X163398D01*
X150998D02*
X154398D01*
X142598D02*
X144798D01*
X130998D02*
X134398D01*
X123198D02*
X124998D01*
X110198D02*
X116198D01*
X93398D02*
X103198D01*
X203198Y-257902D02*
X211398D01*
X201798D02*
X202798D01*
X200998D02*
X201198D01*
X197598D02*
X199598D01*
X188398D02*
X191798D01*
X178798D02*
X182198D01*
X169598D02*
X172598D01*
X163198D02*
X163398D01*
X150998D02*
X154398D01*
X142598D02*
X144998D01*
X130998D02*
X134398D01*
X123198D02*
X124998D01*
X110198D02*
X116198D01*
X93398D02*
X103398D01*
X197798Y-257702D02*
X211398D01*
X188398D02*
X191998D01*
X178798D02*
X182198D01*
X169598D02*
X172598D01*
X151198D02*
X154198D01*
X142798D02*
X144998D01*
X131198D02*
X134398D01*
X123198D02*
X124998D01*
X110398D02*
X116198D01*
X93398D02*
X103398D01*
X197998Y-257502D02*
X211398D01*
X188398D02*
X191998D01*
X178798D02*
X182398D01*
X169598D02*
X172598D01*
X151198D02*
X154198D01*
X142798D02*
X144998D01*
X131198D02*
X134398D01*
X123198D02*
X124998D01*
X110398D02*
X116398D01*
X93398D02*
X103598D01*
X197998Y-257302D02*
X211398D01*
X188398D02*
X191998D01*
X178798D02*
X182398D01*
X169798D02*
X172798D01*
X151198D02*
X154198D01*
X142798D02*
X144998D01*
X131198D02*
X134398D01*
X123198D02*
X125198D01*
X110398D02*
X116398D01*
X93398D02*
X103598D01*
X198198Y-257102D02*
X211398D01*
X188598D02*
X191998D01*
X178998D02*
X182398D01*
X169798D02*
X172798D01*
X151198D02*
X154198D01*
X142798D02*
X145198D01*
X131198D02*
X134398D01*
X123198D02*
X125198D01*
X110598D02*
X116398D01*
X93398D02*
X103798D01*
X198198Y-256902D02*
X211398D01*
X188598D02*
X192198D01*
X178998D02*
X182398D01*
X169798D02*
X172798D01*
X151398D02*
X154198D01*
X142998D02*
X145198D01*
X131398D02*
X134398D01*
X123198D02*
X125198D01*
X110598D02*
X116398D01*
X93398D02*
X103798D01*
X198398Y-256702D02*
X211398D01*
X188598D02*
X192198D01*
X178998D02*
X182598D01*
X169798D02*
X172798D01*
X151398D02*
X154198D01*
X142998D02*
X145198D01*
X131398D02*
X134398D01*
X123198D02*
X125198D01*
X110798D02*
X116398D01*
X93398D02*
X103998D01*
X198398Y-256502D02*
X211398D01*
X188598D02*
X192198D01*
X178998D02*
X182598D01*
X169998D02*
X172998D01*
X151398D02*
X154198D01*
X142998D02*
X145198D01*
X131398D02*
X134398D01*
X123198D02*
X125398D01*
X110798D02*
X116398D01*
X93398D02*
X103998D01*
X198398Y-256302D02*
X211398D01*
X188798D02*
X192198D01*
X179198D02*
X182598D01*
X169998D02*
X172998D01*
X151398D02*
X154198D01*
X142998D02*
X145398D01*
X131398D02*
X134398D01*
X123198D02*
X125398D01*
X110998D02*
X116398D01*
X93398D02*
X104198D01*
X198398Y-256102D02*
X211398D01*
X188798D02*
X192398D01*
X179198D02*
X182598D01*
X169998D02*
X172998D01*
X151598D02*
X154198D01*
X143198D02*
X145398D01*
X131598D02*
X134398D01*
X123198D02*
X125398D01*
X110998D02*
X116398D01*
X93398D02*
X104198D01*
X198598Y-255902D02*
X211398D01*
X188798D02*
X192398D01*
X179198D02*
X182798D01*
X169998D02*
X172998D01*
X151598D02*
X154398D01*
X143198D02*
X145398D01*
X131598D02*
X134398D01*
X123198D02*
X125398D01*
X111198D02*
X116398D01*
X93398D02*
X104398D01*
X198598Y-255702D02*
X211398D01*
X188798D02*
X192398D01*
X179198D02*
X182798D01*
X170198D02*
X173198D01*
X161198D02*
X163198D01*
X151598D02*
X154398D01*
X141198D02*
X145398D01*
X131598D02*
X134598D01*
X123198D02*
X125598D01*
X93398D02*
X104398D01*
X198598Y-255502D02*
X211398D01*
X188998D02*
X192398D01*
X179398D02*
X182798D01*
X170198D02*
X173198D01*
X160998D02*
X163598D01*
X151598D02*
X154398D01*
X140998D02*
X145598D01*
X131598D02*
X134598D01*
X123198D02*
X125598D01*
X93398D02*
X104598D01*
X198598Y-255302D02*
X211398D01*
X188998D02*
X192598D01*
X179398D02*
X182798D01*
X170198D02*
X173198D01*
X160998D02*
X163798D01*
X151798D02*
X154398D01*
X140998D02*
X145598D01*
X131798D02*
X134598D01*
X123198D02*
X125598D01*
X93398D02*
X104798D01*
X198798Y-255102D02*
X211398D01*
X188998D02*
X192598D01*
X179398D02*
X182998D01*
X170198D02*
X173198D01*
X160798D02*
X163998D01*
X151798D02*
X154598D01*
X140798D02*
X145598D01*
X131798D02*
X134598D01*
X123198D02*
X125598D01*
X93398D02*
X104798D01*
X198798Y-254902D02*
X211398D01*
X188998D02*
X192598D01*
X179398D02*
X182998D01*
X170398D02*
X173398D01*
X160798D02*
X163998D01*
X151798D02*
X154598D01*
X140998D02*
X145598D01*
X131798D02*
X134798D01*
X122998D02*
X125798D01*
X93398D02*
X104998D01*
X198798Y-254702D02*
X211398D01*
X189198D02*
X192598D01*
X179598D02*
X182998D01*
X170398D02*
X173398D01*
X160798D02*
X164198D01*
X151798D02*
X154598D01*
X140998D02*
X145798D01*
X131798D02*
X134798D01*
X122998D02*
X125798D01*
X93398D02*
X104998D01*
X198798Y-254502D02*
X211398D01*
X189198D02*
X192798D01*
X179598D02*
X182998D01*
X170398D02*
X173398D01*
X160798D02*
X164198D01*
X151998D02*
X154598D01*
X140998D02*
X145798D01*
X131998D02*
X134798D01*
X122998D02*
X125798D01*
X93398D02*
X105198D01*
X198998Y-254302D02*
X211398D01*
X189198D02*
X192798D01*
X179598D02*
X183198D01*
X170398D02*
X173398D01*
X160798D02*
X164398D01*
X151998D02*
X154798D01*
X140998D02*
X145798D01*
X131998D02*
X134798D01*
X122998D02*
X125798D01*
X93398D02*
X105198D01*
X198998Y-254102D02*
X211398D01*
X189198D02*
X192798D01*
X179598D02*
X183198D01*
X170598D02*
X173598D01*
X160998D02*
X164398D01*
X151998D02*
X154798D01*
X140998D02*
X145798D01*
X131998D02*
X134998D01*
X122998D02*
X125998D01*
X93398D02*
X105398D01*
X198998Y-253902D02*
X211398D01*
X189398D02*
X192798D01*
X179798D02*
X183198D01*
X170598D02*
X173598D01*
X160998D02*
X164398D01*
X151998D02*
X154798D01*
X141198D02*
X145998D01*
X131998D02*
X134998D01*
X122998D02*
X125998D01*
X93398D02*
X105398D01*
X198998Y-253702D02*
X211398D01*
X189398D02*
X192998D01*
X179798D02*
X183198D01*
X170598D02*
X173598D01*
X160998D02*
X164398D01*
X152198D02*
X154798D01*
X141198D02*
X145998D01*
X132198D02*
X134998D01*
X122998D02*
X125998D01*
X93398D02*
X105598D01*
X199198Y-253502D02*
X211398D01*
X189398D02*
X192998D01*
X179798D02*
X183398D01*
X170598D02*
X173598D01*
X160998D02*
X164598D01*
X152198D02*
X154998D01*
X141198D02*
X145998D01*
X132198D02*
X134998D01*
X122998D02*
X125998D01*
X93398D02*
X105598D01*
X199198Y-253302D02*
X211398D01*
X189398D02*
X192998D01*
X179798D02*
X183398D01*
X170798D02*
X173798D01*
X161198D02*
X164598D01*
X152198D02*
X154998D01*
X141198D02*
X145998D01*
X132198D02*
X135198D01*
X122998D02*
X126198D01*
X93398D02*
X105798D01*
X199198Y-253102D02*
X211398D01*
X189598D02*
X192998D01*
X179998D02*
X183398D01*
X170798D02*
X173798D01*
X161198D02*
X164598D01*
X152198D02*
X154998D01*
X141398D02*
X146198D01*
X132198D02*
X135198D01*
X122998D02*
X126198D01*
X93398D02*
X105798D01*
X199198Y-252902D02*
X211398D01*
X189598D02*
X193198D01*
X179998D02*
X183398D01*
X170798D02*
X173798D01*
X161198D02*
X164598D01*
X152398D02*
X154998D01*
X141398D02*
X146198D01*
X132398D02*
X135198D01*
X122998D02*
X126198D01*
X93398D02*
X105998D01*
X199398Y-252702D02*
X211398D01*
X189598D02*
X193198D01*
X179998D02*
X183598D01*
X170798D02*
X173798D01*
X161198D02*
X164798D01*
X152398D02*
X155198D01*
X141398D02*
X146198D01*
X132398D02*
X135198D01*
X122998D02*
X126198D01*
X93398D02*
X105998D01*
X199398Y-252502D02*
X211398D01*
X189598D02*
X193198D01*
X179998D02*
X183598D01*
X170998D02*
X173998D01*
X161398D02*
X164798D01*
X152398D02*
X155198D01*
X141398D02*
X146198D01*
X132398D02*
X135398D01*
X122998D02*
X126398D01*
X93398D02*
X106198D01*
X199398Y-252302D02*
X211398D01*
X189798D02*
X193198D01*
X180198D02*
X183598D01*
X170998D02*
X173998D01*
X161398D02*
X164798D01*
X152398D02*
X155198D01*
X141598D02*
X146398D01*
X132398D02*
X135398D01*
X122998D02*
X126398D01*
X93398D02*
X106398D01*
X199398Y-252102D02*
X211398D01*
X189798D02*
X193398D01*
X180198D02*
X183598D01*
X170998D02*
X173998D01*
X161398D02*
X164798D01*
X152598D02*
X155198D01*
X141598D02*
X146398D01*
X132598D02*
X135398D01*
X122998D02*
X126398D01*
X93398D02*
X106398D01*
X199598Y-251902D02*
X211398D01*
X189798D02*
X193398D01*
X180198D02*
X183798D01*
X170998D02*
X173998D01*
X161398D02*
X164998D01*
X152598D02*
X155398D01*
X141598D02*
X146398D01*
X132598D02*
X135398D01*
X122998D02*
X126398D01*
X93398D02*
X106598D01*
X199598Y-251702D02*
X211398D01*
X189798D02*
X193398D01*
X180198D02*
X183798D01*
X171198D02*
X174198D01*
X161598D02*
X164998D01*
X152598D02*
X155398D01*
X141598D02*
X146398D01*
X132598D02*
X135598D01*
X122998D02*
X126598D01*
X93398D02*
X106598D01*
X199598Y-251502D02*
X211398D01*
X189998D02*
X193398D01*
X180398D02*
X183798D01*
X171198D02*
X174198D01*
X161598D02*
X164998D01*
X152598D02*
X155398D01*
X141798D02*
X146598D01*
X132598D02*
X135598D01*
X122998D02*
X126598D01*
X112998D02*
X116598D01*
X93398D02*
X106798D01*
X199598Y-251302D02*
X211398D01*
X189998D02*
X193598D01*
X180398D02*
X183798D01*
X171198D02*
X174198D01*
X161598D02*
X164998D01*
X152798D02*
X155398D01*
X141798D02*
X146598D01*
X132798D02*
X135598D01*
X122998D02*
X126598D01*
X113198D02*
X116598D01*
X93398D02*
X106798D01*
X199798Y-251102D02*
X211398D01*
X189998D02*
X193598D01*
X180398D02*
X183998D01*
X171198D02*
X174198D01*
X161598D02*
X165198D01*
X152798D02*
X155598D01*
X141798D02*
X146598D01*
X132798D02*
X135598D01*
X122998D02*
X126598D01*
X113198D02*
X116598D01*
X93398D02*
X106998D01*
X199798Y-250902D02*
X211398D01*
X189998D02*
X193598D01*
X180398D02*
X183998D01*
X171398D02*
X174398D01*
X161798D02*
X165198D01*
X152798D02*
X155598D01*
X141798D02*
X146598D01*
X132798D02*
X135798D01*
X122998D02*
X126798D01*
X113398D02*
X116598D01*
X93398D02*
X106998D01*
X199798Y-250702D02*
X211398D01*
X190198D02*
X193598D01*
X180598D02*
X183998D01*
X171398D02*
X174398D01*
X161798D02*
X165198D01*
X152798D02*
X155598D01*
X141998D02*
X146798D01*
X132798D02*
X135798D01*
X122998D02*
X126798D01*
X113398D02*
X116598D01*
X93398D02*
X107198D01*
X199798Y-250502D02*
X211398D01*
X190198D02*
X193798D01*
X180598D02*
X183998D01*
X171398D02*
X174398D01*
X161798D02*
X165198D01*
X152998D02*
X155598D01*
X141998D02*
X146798D01*
X132998D02*
X135798D01*
X122998D02*
X126798D01*
X113598D02*
X116598D01*
X93398D02*
X107198D01*
X199998Y-250302D02*
X211398D01*
X190198D02*
X193798D01*
X180598D02*
X184198D01*
X171398D02*
X174398D01*
X161798D02*
X165398D01*
X152998D02*
X155798D01*
X141998D02*
X146798D01*
X132998D02*
X135798D01*
X122998D02*
X126798D01*
X113598D02*
X116598D01*
X93398D02*
X107398D01*
X199998Y-250102D02*
X211398D01*
X190198D02*
X193798D01*
X180598D02*
X184198D01*
X171598D02*
X174598D01*
X161998D02*
X165398D01*
X152998D02*
X155798D01*
X141998D02*
X146798D01*
X132998D02*
X135998D01*
X122998D02*
X126998D01*
X113598D02*
X116798D01*
X93398D02*
X107398D01*
X199998Y-249902D02*
X211398D01*
X190398D02*
X193798D01*
X180798D02*
X184198D01*
X171598D02*
X174598D01*
X161998D02*
X165398D01*
X152998D02*
X155798D01*
X142198D02*
X146998D01*
X132998D02*
X135998D01*
X122998D02*
X126998D01*
X113798D02*
X116798D01*
X93398D02*
X107598D01*
X199998Y-249702D02*
X211398D01*
X190398D02*
X193998D01*
X180798D02*
X184198D01*
X171598D02*
X174598D01*
X161998D02*
X165398D01*
X153198D02*
X155798D01*
X142198D02*
X146998D01*
X133198D02*
X135998D01*
X122798D02*
X126998D01*
X113798D02*
X116798D01*
X93398D02*
X107798D01*
X200198Y-249502D02*
X211398D01*
X190398D02*
X193998D01*
X180798D02*
X184398D01*
X171598D02*
X174598D01*
X161998D02*
X165598D01*
X153198D02*
X155998D01*
X142198D02*
X146998D01*
X133198D02*
X135998D01*
X122798D02*
X126998D01*
X113998D02*
X116798D01*
X93398D02*
X107798D01*
X200198Y-249302D02*
X211398D01*
X190398D02*
X193998D01*
X180798D02*
X184398D01*
X171798D02*
X174798D01*
X162198D02*
X165598D01*
X153198D02*
X155998D01*
X142198D02*
X146998D01*
X133198D02*
X136198D01*
X122798D02*
X127198D01*
X113998D02*
X116798D01*
X93398D02*
X107998D01*
X200198Y-249102D02*
X211398D01*
X190598D02*
X193998D01*
X180998D02*
X184398D01*
X171798D02*
X174798D01*
X162198D02*
X165598D01*
X153198D02*
X155998D01*
X142398D02*
X147198D01*
X133198D02*
X136198D01*
X122798D02*
X127198D01*
X114198D02*
X116798D01*
X93398D02*
X107998D01*
X200198Y-248902D02*
X211398D01*
X190598D02*
X194198D01*
X180998D02*
X184398D01*
X171798D02*
X174798D01*
X162198D02*
X165598D01*
X153398D02*
X155998D01*
X142398D02*
X147198D01*
X133398D02*
X136198D01*
X122798D02*
X127198D01*
X114198D02*
X116798D01*
X93398D02*
X108198D01*
X200398Y-248702D02*
X211398D01*
X190598D02*
X194198D01*
X180998D02*
X184598D01*
X171798D02*
X174798D01*
X162198D02*
X165798D01*
X153398D02*
X156198D01*
X142398D02*
X147198D01*
X133398D02*
X136398D01*
X122798D02*
X127198D01*
X114398D02*
X116798D01*
X93398D02*
X108198D01*
X200398Y-248502D02*
X211398D01*
X190798D02*
X194198D01*
X180998D02*
X184598D01*
X171998D02*
X174998D01*
X162398D02*
X165798D01*
X153398D02*
X156198D01*
X142398D02*
X147198D01*
X133398D02*
X136398D01*
X122798D02*
X127398D01*
X114398D02*
X116798D01*
X93398D02*
X108398D01*
X200398Y-248302D02*
X211398D01*
X190798D02*
X194198D01*
X181198D02*
X184598D01*
X171998D02*
X174998D01*
X162398D02*
X165798D01*
X153398D02*
X156198D01*
X142598D02*
X147398D01*
X133398D02*
X136398D01*
X122798D02*
X127398D01*
X114598D02*
X116798D01*
X93398D02*
X108398D01*
X200398Y-248102D02*
X211398D01*
X190798D02*
X194198D01*
X181198D02*
X184598D01*
X171998D02*
X174998D01*
X162398D02*
X165798D01*
X153598D02*
X156198D01*
X142598D02*
X147398D01*
X133598D02*
X136398D01*
X122798D02*
X127398D01*
X114598D02*
X116798D01*
X93398D02*
X108598D01*
X200598Y-247902D02*
X211398D01*
X190998D02*
X194398D01*
X181398D02*
X184598D01*
X171998D02*
X174998D01*
X162398D02*
X165998D01*
X153598D02*
X156398D01*
X142598D02*
X147398D01*
X133598D02*
X136598D01*
X122798D02*
X127398D01*
X114798D02*
X116798D01*
X93398D02*
X108598D01*
X200598Y-247702D02*
X211398D01*
X190998D02*
X194198D01*
X181398D02*
X184598D01*
X172198D02*
X175198D01*
X162598D02*
X165998D01*
X153598D02*
X156398D01*
X142598D02*
X147398D01*
X133598D02*
X136598D01*
X122798D02*
X127598D01*
X114798D02*
X116798D01*
X93398D02*
X108798D01*
X200598Y-247502D02*
X211398D01*
X191198D02*
X194198D01*
X181598D02*
X184598D01*
X172198D02*
X175198D01*
X162598D02*
X165998D01*
X153598D02*
X156398D01*
X142798D02*
X147598D01*
X133598D02*
X136598D01*
X122798D02*
X127598D01*
X114798D02*
X116798D01*
X93398D02*
X108798D01*
X200598Y-247302D02*
X211398D01*
X191398D02*
X194198D01*
X181798D02*
X184598D01*
X172198D02*
X175198D01*
X162598D02*
X165998D01*
X153798D02*
X156398D01*
X142798D02*
X147598D01*
X133798D02*
X136598D01*
X122798D02*
X127598D01*
X114998D02*
X116798D01*
X93398D02*
X108998D01*
X200798Y-247102D02*
X211398D01*
X191598D02*
X193998D01*
X181998D02*
X184398D01*
X172198D02*
X175198D01*
X162598D02*
X166198D01*
X153798D02*
X156598D01*
X142798D02*
X147598D01*
X133798D02*
X136798D01*
X122798D02*
X127598D01*
X114998D02*
X116798D01*
X93398D02*
X108998D01*
X200798Y-246902D02*
X211398D01*
X191998D02*
X193798D01*
X182398D02*
X184198D01*
X172398D02*
X175398D01*
X162798D02*
X166198D01*
X153798D02*
X156598D01*
X142798D02*
X147598D01*
X133798D02*
X136798D01*
X122798D02*
X127798D01*
X115198D02*
X116798D01*
X93398D02*
X109198D01*
X200798Y-246702D02*
X211398D01*
X172398D02*
X175398D01*
X162798D02*
X166198D01*
X153798D02*
X156598D01*
X145398D02*
X147798D01*
X133798D02*
X136798D01*
X122798D02*
X127798D01*
X115198D02*
X116798D01*
X93398D02*
X109398D01*
X200798Y-246502D02*
X211398D01*
X172398D02*
X175398D01*
X162798D02*
X166198D01*
X153998D02*
X156598D01*
X145598D02*
X147798D01*
X133998D02*
X136798D01*
X122798D02*
X127798D01*
X115398D02*
X116998D01*
X93398D02*
X109398D01*
X200798Y-246302D02*
X211398D01*
X172398D02*
X175398D01*
X162798D02*
X166398D01*
X153998D02*
X156798D01*
X145598D02*
X147798D01*
X133998D02*
X136998D01*
X122798D02*
X127798D01*
X115398D02*
X116998D01*
X93398D02*
X109598D01*
X200998Y-246102D02*
X211398D01*
X172598D02*
X175598D01*
X162998D02*
X166398D01*
X153998D02*
X156798D01*
X145598D02*
X147798D01*
X133998D02*
X136998D01*
X122798D02*
X127998D01*
X115598D02*
X116998D01*
X93398D02*
X109598D01*
X200998Y-245902D02*
X211398D01*
X172598D02*
X175598D01*
X162998D02*
X166398D01*
X153998D02*
X156798D01*
X145598D02*
X147998D01*
X133998D02*
X136998D01*
X122798D02*
X127998D01*
X115598D02*
X116998D01*
X93398D02*
X109798D01*
X200998Y-245702D02*
X211398D01*
X172598D02*
X175598D01*
X162998D02*
X166398D01*
X154198D02*
X156798D01*
X145798D02*
X147998D01*
X134198D02*
X136998D01*
X122798D02*
X127998D01*
X115798D02*
X116998D01*
X93398D02*
X109798D01*
X200998Y-245502D02*
X211398D01*
X172598D02*
X175598D01*
X162998D02*
X166598D01*
X154198D02*
X156998D01*
X145798D02*
X147998D01*
X134198D02*
X137198D01*
X122798D02*
X127998D01*
X115798D02*
X116998D01*
X93398D02*
X109998D01*
X200998Y-245302D02*
X211398D01*
X172798D02*
X175798D01*
X163198D02*
X166598D01*
X154198D02*
X156998D01*
X145798D02*
X147998D01*
X134198D02*
X137198D01*
X122798D02*
X128198D01*
X115798D02*
X116998D01*
X93398D02*
X109998D01*
X200998Y-245102D02*
X211398D01*
X172798D02*
X175798D01*
X163198D02*
X166598D01*
X154198D02*
X156998D01*
X145798D02*
X148198D01*
X134198D02*
X137198D01*
X122798D02*
X128198D01*
X115998D02*
X116998D01*
X93398D02*
X110198D01*
X200798Y-244902D02*
X211398D01*
X191398D02*
X191598D01*
X181998D02*
X182198D01*
X172798D02*
X175798D01*
X163198D02*
X166598D01*
X154398D02*
X156998D01*
X145998D02*
X148198D01*
X134398D02*
X137198D01*
X122798D02*
X128198D01*
X115998D02*
X116998D01*
X93398D02*
X110198D01*
X200798Y-244702D02*
X211398D01*
X191198D02*
X191798D01*
X181998D02*
X182398D01*
X172798D02*
X175798D01*
X163198D02*
X166798D01*
X154398D02*
X157198D01*
X145998D02*
X148198D01*
X134398D02*
X137398D01*
X122798D02*
X128198D01*
X116198D02*
X116998D01*
X93398D02*
X110398D01*
X200798Y-244502D02*
X211398D01*
X191198D02*
X191998D01*
X182198D02*
X182598D01*
X172998D02*
X175998D01*
X163398D02*
X166798D01*
X154398D02*
X157198D01*
X145998D02*
X148198D01*
X134398D02*
X137398D01*
X122798D02*
X128398D01*
X116198D02*
X116998D01*
X93398D02*
X110398D01*
X200798Y-244302D02*
X211398D01*
X191198D02*
X192198D01*
X182198D02*
X182798D01*
X172998D02*
X175998D01*
X163398D02*
X166798D01*
X154398D02*
X157198D01*
X145998D02*
X148398D01*
X134398D02*
X137398D01*
X122598D02*
X128398D01*
X116398D02*
X116998D01*
X93398D02*
X110598D01*
X200598Y-244102D02*
X211398D01*
X190998D02*
X192398D01*
X182198D02*
X182998D01*
X172998D02*
X175998D01*
X163398D02*
X166798D01*
X154598D02*
X157198D01*
X146198D02*
X148398D01*
X134598D02*
X137398D01*
X122598D02*
X128398D01*
X116398D02*
X116998D01*
X93398D02*
X110798D01*
X200598Y-243902D02*
X211398D01*
X190798D02*
X192598D01*
X182198D02*
X183198D01*
X172998D02*
X175998D01*
X163398D02*
X166998D01*
X154598D02*
X157398D01*
X146198D02*
X148398D01*
X134598D02*
X137598D01*
X122598D02*
X128398D01*
X116598D02*
X116998D01*
X93398D02*
X110798D01*
X200398Y-243702D02*
X211398D01*
X190798D02*
X192998D01*
X182398D02*
X183598D01*
X173198D02*
X176198D01*
X163598D02*
X166998D01*
X154598D02*
X157398D01*
X146198D02*
X148398D01*
X134598D02*
X137598D01*
X122598D02*
X128598D01*
X116598D02*
X116998D01*
X93398D02*
X110998D01*
X200198Y-243502D02*
X211398D01*
X190598D02*
X193398D01*
X182398D02*
X183798D01*
X173198D02*
X176198D01*
X163598D02*
X166998D01*
X154598D02*
X157398D01*
X146198D02*
X148598D01*
X134798D02*
X137598D01*
X122598D02*
X128598D01*
X116798D02*
X116998D01*
X93398D02*
X110998D01*
X199798Y-243302D02*
X211398D01*
X190198D02*
X193798D01*
X182398D02*
X184198D01*
X173198D02*
X176198D01*
X163598D02*
X166998D01*
X154798D02*
X157398D01*
X146398D02*
X148598D01*
X134798D02*
X137598D01*
X122598D02*
X128598D01*
X116798D02*
X116998D01*
X93398D02*
X111198D01*
X199398Y-243102D02*
X211398D01*
X189998D02*
X194198D01*
X146398D02*
X184598D01*
X134798D02*
X137798D01*
X122598D02*
X128598D01*
X93398D02*
X111198D01*
X198998Y-242902D02*
X211398D01*
X189398D02*
X194798D01*
X143798D02*
X185198D01*
X134798D02*
X137798D01*
X122598D02*
X128798D01*
X93398D02*
X111398D01*
X197998Y-242702D02*
X211398D01*
X188598D02*
X195998D01*
X143998D02*
X186398D01*
X134998D02*
X137798D01*
X122598D02*
X128798D01*
X93398D02*
X111398D01*
X143998Y-242502D02*
X211398D01*
X134998D02*
X137798D01*
X122598D02*
X128798D01*
X93398D02*
X111598D01*
X143998Y-242302D02*
X211398D01*
X134998D02*
X137998D01*
X122598D02*
X128798D01*
X93398D02*
X111598D01*
X143998Y-242102D02*
X211398D01*
X134998D02*
X137998D01*
X122598D02*
X128998D01*
X93398D02*
X111798D01*
X144198Y-241902D02*
X211398D01*
X135198D02*
X137998D01*
X122598D02*
X128998D01*
X93398D02*
X111798D01*
X144198Y-241702D02*
X211398D01*
X135198D02*
X137998D01*
X122598D02*
X128998D01*
X93398D02*
X111998D01*
X144198Y-241502D02*
X211398D01*
X135198D02*
X138198D01*
X122598D02*
X128998D01*
X93398D02*
X112198D01*
X144198Y-241302D02*
X211398D01*
X135198D02*
X138198D01*
X122598D02*
X128998D01*
X93398D02*
X112198D01*
X144398Y-241102D02*
X211398D01*
X135398D02*
X138198D01*
X122598D02*
X129198D01*
X93398D02*
X112398D01*
X144398Y-240902D02*
X211398D01*
X135398D02*
X138198D01*
X122598D02*
X129198D01*
X93398D02*
X112598D01*
X144398Y-240702D02*
X211398D01*
X135398D02*
X138398D01*
X122598D02*
X129198D01*
X93398D02*
X112798D01*
X144598Y-240502D02*
X211398D01*
X135398D02*
X138398D01*
X122598D02*
X129198D01*
X93398D02*
X112998D01*
X144598Y-240302D02*
X211398D01*
X135598D02*
X138398D01*
X122598D02*
X129398D01*
X93398D02*
X113198D01*
X144598Y-240102D02*
X211398D01*
X135598D02*
X138398D01*
X122598D02*
X129398D01*
X93398D02*
X113398D01*
X144598Y-239902D02*
X211398D01*
X135598D02*
X138598D01*
X122598D02*
X129398D01*
X93398D02*
X113598D01*
X144798Y-239702D02*
X211398D01*
X135598D02*
X138598D01*
X122598D02*
X129398D01*
X93398D02*
X113798D01*
X144798Y-239502D02*
X211398D01*
X135798D02*
X138598D01*
X122598D02*
X129598D01*
X93398D02*
X113998D01*
X144798Y-239302D02*
X211398D01*
X135798D02*
X138598D01*
X122598D02*
X129598D01*
X93398D02*
X114398D01*
X144798Y-239102D02*
X211398D01*
X135798D02*
X138798D01*
X122398D02*
X129598D01*
X93398D02*
X114598D01*
X144998Y-238902D02*
X211398D01*
X135798D02*
X138798D01*
X122398D02*
X129598D01*
X93398D02*
X114998D01*
X144998Y-238702D02*
X211398D01*
X135998D02*
X138798D01*
X122398D02*
X129798D01*
X93398D02*
X115398D01*
X144998Y-238502D02*
X211398D01*
X135998D02*
X138798D01*
X122398D02*
X129798D01*
X93398D02*
X115798D01*
X144998Y-238302D02*
X211398D01*
X135998D02*
X138998D01*
X122398D02*
X129798D01*
X93398D02*
X116398D01*
X145198Y-238102D02*
X211398D01*
X135998D02*
X138998D01*
X122398D02*
X129798D01*
X93398D02*
X116998D01*
X136198Y-237902D02*
X211398D01*
X122398D02*
X129998D01*
X93398D02*
X118198D01*
X93398Y-237702D02*
X211398D01*
X93598Y-237502D02*
X211398D01*
X93598Y-237302D02*
X211398D01*
X93598Y-237102D02*
X211398D01*
X93598Y-236902D02*
X211398D01*
X93798Y-236702D02*
X211398D01*
X93798Y-236502D02*
X211398D01*
X93798Y-236302D02*
X211398D01*
X93998Y-236102D02*
X211398D01*
X93998Y-235902D02*
X211398D01*
X94198Y-235702D02*
X211398D01*
X94198Y-235502D02*
X211398D01*
X94398Y-235302D02*
X211398D01*
X94398Y-235102D02*
X211398D01*
X94398Y-234902D02*
X211398D01*
X94598Y-234702D02*
X211398D01*
X94798Y-234502D02*
X211398D01*
X94798Y-234302D02*
X211398D01*
X94998Y-234102D02*
X211398D01*
X94998Y-233902D02*
X211398D01*
X95198Y-233702D02*
X211398D01*
X95398Y-233502D02*
X211398D01*
X95598Y-233302D02*
X211398D01*
X95598Y-233102D02*
X211398D01*
X95798Y-232902D02*
X211398D01*
X95998Y-232702D02*
X211398D01*
X96198Y-232502D02*
X211398D01*
X96398Y-232302D02*
X211398D01*
X96398Y-232102D02*
X211398D01*
X96598Y-231902D02*
X211398D01*
X96798Y-231702D02*
X211398D01*
X96998Y-231502D02*
X211398D01*
X97198Y-231302D02*
X211398D01*
X97398Y-231102D02*
X211398D01*
X97798Y-230902D02*
X211398D01*
X97998Y-230702D02*
X211398D01*
X98198Y-230502D02*
X211398D01*
X98398Y-230302D02*
X211398D01*
X98798Y-230102D02*
X211398D01*
X98998Y-229902D02*
X211398D01*
X99398Y-229702D02*
X211398D01*
X99798Y-229502D02*
X211398D01*
X100198Y-229302D02*
X211398D01*
X100598Y-229102D02*
X211398D01*
X100998Y-228902D02*
X211398D01*
X101598Y-228702D02*
X211398D01*
X102198Y-228502D02*
X211398D01*
X102798Y-228302D02*
X211398D01*
X103998Y-228102D02*
X211398D01*
D37*
X-315402Y-346937D02*
X-314736Y-346604D01*
X-313736Y-345604D01*
Y-352602D01*
X-450602Y-265404D02*
Y-272402D01*
Y-265404D02*
X-448270D01*
X-447270Y-265737D01*
X-446603Y-266404D01*
X-446270Y-267070D01*
X-445937Y-268070D01*
Y-269736D01*
X-446270Y-270736D01*
X-446603Y-271403D01*
X-447270Y-272069D01*
X-448270Y-272402D01*
X-450602D01*
X684730Y296798D02*
X682064Y303796D01*
X679398Y296798D01*
X680397Y299131D02*
X683730D01*
X679398Y114596D02*
Y107598D01*
Y114596D02*
X682397D01*
X683397Y114263D01*
X683730Y113930D01*
X684063Y113263D01*
Y112597D01*
X683730Y111930D01*
X683397Y111597D01*
X682397Y111264D01*
X679398D02*
X682397D01*
X683397Y110930D01*
X683730Y110597D01*
X684063Y109931D01*
Y108931D01*
X683730Y108264D01*
X683397Y107931D01*
X682397Y107598D01*
X679398D01*
X684397Y-78070D02*
X684063Y-77404D01*
X683397Y-76737D01*
X682730Y-76404D01*
X681397D01*
X680731Y-76737D01*
X680064Y-77404D01*
X679731Y-78070D01*
X679398Y-79070D01*
Y-80736D01*
X679731Y-81736D01*
X680064Y-82403D01*
X680731Y-83069D01*
X681397Y-83402D01*
X682730D01*
X683397Y-83069D01*
X684063Y-82403D01*
X684397Y-81736D01*
X679398Y-265404D02*
Y-272402D01*
Y-265404D02*
X681731D01*
X682730Y-265737D01*
X683397Y-266404D01*
X683730Y-267070D01*
X684063Y-268070D01*
Y-269736D01*
X683730Y-270736D01*
X683397Y-271403D01*
X682730Y-272069D01*
X681731Y-272402D01*
X679398D01*
X-445270Y296798D02*
X-447936Y303796D01*
X-450602Y296798D01*
X-449603Y299131D02*
X-446270D01*
X-450602Y114596D02*
Y107598D01*
Y114596D02*
X-447603D01*
X-446603Y114263D01*
X-446270Y113930D01*
X-445937Y113263D01*
Y112597D01*
X-446270Y111930D01*
X-446603Y111597D01*
X-447603Y111264D01*
X-450602D02*
X-447603D01*
X-446603Y110930D01*
X-446270Y110597D01*
X-445937Y109931D01*
Y108931D01*
X-446270Y108264D01*
X-446603Y107931D01*
X-447603Y107598D01*
X-450602D01*
X-445603Y-78070D02*
X-445937Y-77404D01*
X-446603Y-76737D01*
X-447270Y-76404D01*
X-448603D01*
X-449269Y-76737D01*
X-449936Y-77404D01*
X-450269Y-78070D01*
X-450602Y-79070D01*
Y-80736D01*
X-450269Y-81736D01*
X-449936Y-82403D01*
X-449269Y-83069D01*
X-448603Y-83402D01*
X-447270D01*
X-446603Y-83069D01*
X-445937Y-82403D01*
X-445603Y-81736D01*
X-315402Y393063D02*
X-314736Y393396D01*
X-313736Y394396D01*
Y387398D01*
X-29069Y392730D02*
Y393063D01*
X-28736Y393730D01*
X-28403Y394063D01*
X-27736Y394396D01*
X-26403D01*
X-25736Y394063D01*
X-25403Y393730D01*
X-25070Y393063D01*
Y392397D01*
X-25403Y391730D01*
X-26070Y390730D01*
X-29402Y387398D01*
X-24737D01*
X259264Y394396D02*
X262930D01*
X260930Y391730D01*
X261930D01*
X262597Y391397D01*
X262930Y391063D01*
X263263Y390064D01*
Y389397D01*
X262930Y388397D01*
X262263Y387731D01*
X261264Y387398D01*
X260264D01*
X259264Y387731D01*
X258931Y388064D01*
X258598Y388731D01*
X548930Y394396D02*
X545598Y389731D01*
X550597D01*
X548930Y394396D02*
Y387398D01*
X-24737Y-352602D02*
X-29402D01*
X-24737Y-347937D01*
Y-346771D01*
X-25903Y-345605D01*
X-28236D01*
X-29402Y-346771D01*
X258598D02*
X259764Y-345605D01*
X262097D01*
X263263Y-346771D01*
Y-347937D01*
X262097Y-349103D01*
X260930D01*
X262097D01*
X263263Y-350270D01*
Y-351436D01*
X262097Y-352602D01*
X259764D01*
X258598Y-351436D01*
X549096Y-352602D02*
Y-345605D01*
X545598Y-349103D01*
X550263D01*
X96898Y-322104D02*
Y-329102D01*
Y-322104D02*
X101563Y-329102D01*
Y-322104D02*
Y-329102D01*
X108162Y-323104D02*
X107495Y-322437D01*
X106496Y-322104D01*
X105163D01*
X104163Y-322437D01*
X103496Y-323104D01*
Y-323770D01*
X103830Y-324437D01*
X104163Y-324770D01*
X104829Y-325103D01*
X106829Y-325770D01*
X107495Y-326103D01*
X107829Y-326436D01*
X108162Y-327103D01*
Y-328103D01*
X107495Y-328769D01*
X106496Y-329102D01*
X105163D01*
X104163Y-328769D01*
X103496Y-328103D01*
X109728Y-322104D02*
X111395Y-329102D01*
X113061Y-322104D02*
X111395Y-329102D01*
X113061Y-322104D02*
X114727Y-329102D01*
X116393Y-322104D02*
X114727Y-329102D01*
X123625Y-323770D02*
Y-323437D01*
X123959Y-322770D01*
X124292Y-322437D01*
X124958Y-322104D01*
X126291D01*
X126958Y-322437D01*
X127291Y-322770D01*
X127624Y-323437D01*
Y-324103D01*
X127291Y-324770D01*
X126625Y-325770D01*
X123292Y-329102D01*
X127958D01*
X131524Y-322104D02*
X130524Y-322437D01*
X129857Y-323437D01*
X129524Y-325103D01*
Y-326103D01*
X129857Y-327769D01*
X130524Y-328769D01*
X131524Y-329102D01*
X132190D01*
X133190Y-328769D01*
X133856Y-327769D01*
X134190Y-326103D01*
Y-325103D01*
X133856Y-323437D01*
X133190Y-322437D01*
X132190Y-322104D01*
X131524D01*
X137422D02*
X136423Y-322437D01*
X136089Y-323104D01*
Y-323770D01*
X136423Y-324437D01*
X137089Y-324770D01*
X138422Y-325103D01*
X139422Y-325436D01*
X140088Y-326103D01*
X140422Y-326769D01*
Y-327769D01*
X140088Y-328436D01*
X139755Y-328769D01*
X138755Y-329102D01*
X137422D01*
X136423Y-328769D01*
X136089Y-328436D01*
X135756Y-327769D01*
Y-326769D01*
X136089Y-326103D01*
X136756Y-325436D01*
X137756Y-325103D01*
X139089Y-324770D01*
X139755Y-324437D01*
X140088Y-323770D01*
Y-323104D01*
X139755Y-322437D01*
X138755Y-322104D01*
X137422D01*
X145987Y-323104D02*
X145654Y-322437D01*
X144654Y-322104D01*
X143988D01*
X142988Y-322437D01*
X142321Y-323437D01*
X141988Y-325103D01*
Y-326769D01*
X142321Y-328103D01*
X142988Y-328769D01*
X143988Y-329102D01*
X144321D01*
X145321Y-328769D01*
X145987Y-328103D01*
X146320Y-327103D01*
Y-326769D01*
X145987Y-325770D01*
X145321Y-325103D01*
X144321Y-324770D01*
X143988D01*
X142988Y-325103D01*
X142321Y-325770D01*
X141988Y-326769D01*
X96898Y-312104D02*
Y-319102D01*
Y-312104D02*
X101230D01*
X96898Y-315437D02*
X99564D01*
X102030Y-314437D02*
Y-319102D01*
Y-316436D02*
X102363Y-315437D01*
X103030Y-314770D01*
X103696Y-314437D01*
X104696D01*
X105329Y-316436D02*
X109328D01*
Y-315770D01*
X108995Y-315103D01*
X108662Y-314770D01*
X107995Y-314437D01*
X106995D01*
X106329Y-314770D01*
X105662Y-315437D01*
X105329Y-316436D01*
Y-317103D01*
X105662Y-318103D01*
X106329Y-318769D01*
X106995Y-319102D01*
X107995D01*
X108662Y-318769D01*
X109328Y-318103D01*
X110828Y-314437D02*
Y-319102D01*
Y-315770D02*
X111828Y-314770D01*
X112494Y-314437D01*
X113494D01*
X114161Y-314770D01*
X114494Y-315770D01*
Y-319102D01*
X120326Y-315437D02*
X119659Y-314770D01*
X118993Y-314437D01*
X117993D01*
X117327Y-314770D01*
X116660Y-315437D01*
X116327Y-316436D01*
Y-317103D01*
X116660Y-318103D01*
X117327Y-318769D01*
X117993Y-319102D01*
X118993D01*
X119659Y-318769D01*
X120326Y-318103D01*
X121826Y-312104D02*
Y-319102D01*
Y-315770D02*
X122825Y-314770D01*
X123492Y-314437D01*
X124492D01*
X125158Y-314770D01*
X125491Y-315770D01*
Y-319102D01*
X130990Y-315437D02*
X130657Y-314770D01*
X129657Y-314437D01*
X128657D01*
X127658Y-314770D01*
X127324Y-315437D01*
X127658Y-316103D01*
X128324Y-316436D01*
X129990Y-316770D01*
X130657Y-317103D01*
X130990Y-317769D01*
Y-318103D01*
X130657Y-318769D01*
X129657Y-319102D01*
X128657D01*
X127658Y-318769D01*
X127324Y-318103D01*
X137955Y-312104D02*
Y-319102D01*
Y-312104D02*
X142288D01*
X137955Y-315437D02*
X140622D01*
X144754Y-314437D02*
X144088Y-314770D01*
X143421Y-315437D01*
X143088Y-316436D01*
Y-317103D01*
X143421Y-318103D01*
X144088Y-318769D01*
X144754Y-319102D01*
X145754D01*
X146420Y-318769D01*
X147087Y-318103D01*
X147420Y-317103D01*
Y-316436D01*
X147087Y-315437D01*
X146420Y-314770D01*
X145754Y-314437D01*
X144754D01*
X148953D02*
Y-319102D01*
Y-316436D02*
X149286Y-315437D01*
X149953Y-314770D01*
X150619Y-314437D01*
X151619D01*
X152252Y-316436D02*
X156252D01*
Y-315770D01*
X155918Y-315103D01*
X155585Y-314770D01*
X154919Y-314437D01*
X153919D01*
X153252Y-314770D01*
X152586Y-315437D01*
X152252Y-316436D01*
Y-317103D01*
X152586Y-318103D01*
X153252Y-318769D01*
X153919Y-319102D01*
X154919D01*
X155585Y-318769D01*
X156252Y-318103D01*
X161417Y-315437D02*
X161084Y-314770D01*
X160084Y-314437D01*
X159084D01*
X158084Y-314770D01*
X157751Y-315437D01*
X158084Y-316103D01*
X158751Y-316436D01*
X160417Y-316770D01*
X161084Y-317103D01*
X161417Y-317769D01*
Y-318103D01*
X161084Y-318769D01*
X160084Y-319102D01*
X159084D01*
X158084Y-318769D01*
X157751Y-318103D01*
X163883Y-312104D02*
Y-317769D01*
X164216Y-318769D01*
X164883Y-319102D01*
X165550D01*
X162883Y-314437D02*
X165216D01*
X96898Y-303437D02*
X97564Y-303104D01*
X98564Y-302104D01*
Y-309102D01*
X102363Y-303770D02*
Y-303437D01*
X102696Y-302770D01*
X103030Y-302437D01*
X103696Y-302104D01*
X105029D01*
X105696Y-302437D01*
X106029Y-302770D01*
X106362Y-303437D01*
Y-304103D01*
X106029Y-304770D01*
X105362Y-305770D01*
X102030Y-309102D01*
X106695D01*
X112261Y-304437D02*
Y-309102D01*
Y-305436D02*
X111594Y-304770D01*
X110928Y-304437D01*
X109928D01*
X109262Y-304770D01*
X108595Y-305436D01*
X108262Y-306436D01*
Y-307103D01*
X108595Y-308103D01*
X109262Y-308769D01*
X109928Y-309102D01*
X110928D01*
X111594Y-308769D01*
X112261Y-308103D01*
X119626Y-302104D02*
Y-309102D01*
Y-302104D02*
X122626D01*
X123625Y-302437D01*
X123959Y-302770D01*
X124292Y-303437D01*
Y-304103D01*
X123959Y-304770D01*
X123625Y-305103D01*
X122626Y-305436D01*
X119626D01*
X121959D02*
X124292Y-309102D01*
X127524Y-304437D02*
X126858Y-304770D01*
X126191Y-305436D01*
X125858Y-306436D01*
Y-307103D01*
X126191Y-308103D01*
X126858Y-308769D01*
X127524Y-309102D01*
X128524D01*
X129191Y-308769D01*
X129857Y-308103D01*
X130191Y-307103D01*
Y-306436D01*
X129857Y-305436D01*
X129191Y-304770D01*
X128524Y-304437D01*
X127524D01*
X135723Y-302104D02*
Y-309102D01*
Y-305436D02*
X135056Y-304770D01*
X134390Y-304437D01*
X133390D01*
X132723Y-304770D01*
X132057Y-305436D01*
X131723Y-306436D01*
Y-307103D01*
X132057Y-308103D01*
X132723Y-308769D01*
X133390Y-309102D01*
X134390D01*
X135056Y-308769D01*
X135723Y-308103D01*
X137589Y-302104D02*
Y-309102D01*
Y-305436D02*
X138255Y-304770D01*
X138922Y-304437D01*
X139922D01*
X140588Y-304770D01*
X141255Y-305436D01*
X141588Y-306436D01*
Y-307103D01*
X141255Y-308103D01*
X140588Y-308769D01*
X139922Y-309102D01*
X138922D01*
X138255Y-308769D01*
X137589Y-308103D01*
X144754Y-304437D02*
X144088Y-304770D01*
X143421Y-305436D01*
X143088Y-306436D01*
Y-307103D01*
X143421Y-308103D01*
X144088Y-308769D01*
X144754Y-309102D01*
X145754D01*
X146420Y-308769D01*
X147087Y-308103D01*
X147420Y-307103D01*
Y-306436D01*
X147087Y-305436D01*
X146420Y-304770D01*
X145754Y-304437D01*
X144754D01*
X148953D02*
Y-309102D01*
Y-306436D02*
X149286Y-305436D01*
X149953Y-304770D01*
X150619Y-304437D01*
X151619D01*
X153919D02*
X153252Y-304770D01*
X152586Y-305436D01*
X152252Y-306436D01*
Y-307103D01*
X152586Y-308103D01*
X153252Y-308769D01*
X153919Y-309102D01*
X154919D01*
X155585Y-308769D01*
X156252Y-308103D01*
X156585Y-307103D01*
Y-306436D01*
X156252Y-305436D01*
X155585Y-304770D01*
X154919Y-304437D01*
X153919D01*
X158118D02*
Y-307769D01*
X158451Y-308769D01*
X159118Y-309102D01*
X160117D01*
X160784Y-308769D01*
X161784Y-307769D01*
Y-304437D02*
Y-309102D01*
X167616Y-304437D02*
Y-309769D01*
X167282Y-310769D01*
X166949Y-311102D01*
X166283Y-311435D01*
X165283D01*
X164617Y-311102D01*
X167616Y-305436D02*
X166949Y-304770D01*
X166283Y-304437D01*
X165283D01*
X164617Y-304770D01*
X163950Y-305436D01*
X163617Y-306436D01*
Y-307103D01*
X163950Y-308103D01*
X164617Y-308769D01*
X165283Y-309102D01*
X166283D01*
X166949Y-308769D01*
X167616Y-308103D01*
X169482Y-302104D02*
Y-309102D01*
Y-305770D02*
X170482Y-304770D01*
X171148Y-304437D01*
X172148D01*
X172815Y-304770D01*
X173148Y-305770D01*
Y-309102D01*
X180480Y-302104D02*
Y-309102D01*
Y-302104D02*
X183479D01*
X184479Y-302437D01*
X184812Y-302770D01*
X185145Y-303437D01*
Y-304103D01*
X184812Y-304770D01*
X184479Y-305103D01*
X183479Y-305436D01*
X180480D01*
X182813D02*
X185145Y-309102D01*
X190711Y-302104D02*
Y-309102D01*
Y-305436D02*
X190044Y-304770D01*
X189378Y-304437D01*
X188378D01*
X187712Y-304770D01*
X187045Y-305436D01*
X186712Y-306436D01*
Y-307103D01*
X187045Y-308103D01*
X187712Y-308769D01*
X188378Y-309102D01*
X189378D01*
X190044Y-308769D01*
X190711Y-308103D01*
X102230Y-299102D02*
X99564Y-292104D01*
X96898Y-299102D01*
X97897Y-296769D02*
X101230D01*
X103863Y-292104D02*
Y-299102D01*
X106329Y-292104D02*
Y-297769D01*
X106662Y-298769D01*
X107329Y-299102D01*
X107995D01*
X105329Y-294437D02*
X107662D01*
X109662Y-292104D02*
X109995Y-292437D01*
X110328Y-292104D01*
X109995Y-291771D01*
X109662Y-292104D01*
X109995Y-294437D02*
Y-299102D01*
X111561Y-294437D02*
Y-297769D01*
X111894Y-298769D01*
X112561Y-299102D01*
X113561D01*
X114227Y-298769D01*
X115227Y-297769D01*
Y-294437D02*
Y-299102D01*
X117060Y-294437D02*
Y-299102D01*
Y-295770D02*
X118060Y-294770D01*
X118726Y-294437D01*
X119726D01*
X120393Y-294770D01*
X120726Y-295770D01*
Y-299102D01*
Y-295770D02*
X121726Y-294770D01*
X122392Y-294437D01*
X123392D01*
X124058Y-294770D01*
X124392Y-295770D01*
Y-299102D01*
X132090Y-292104D02*
Y-299102D01*
X136089D01*
X137522Y-292104D02*
X137856Y-292437D01*
X138189Y-292104D01*
X137856Y-291771D01*
X137522Y-292104D01*
X137856Y-294437D02*
Y-299102D01*
X139422Y-294437D02*
Y-299102D01*
Y-295770D02*
X140422Y-294770D01*
X141088Y-294437D01*
X142088D01*
X142754Y-294770D01*
X143088Y-295770D01*
Y-299102D01*
Y-295770D02*
X144088Y-294770D01*
X144754Y-294437D01*
X145754D01*
X146420Y-294770D01*
X146754Y-295770D01*
Y-299102D01*
X149620Y-292104D02*
X149953Y-292437D01*
X150286Y-292104D01*
X149953Y-291771D01*
X149620Y-292104D01*
X149953Y-294437D02*
Y-299102D01*
X152519Y-292104D02*
Y-297769D01*
X152852Y-298769D01*
X153519Y-299102D01*
X154185D01*
X151519Y-294437D02*
X153852D01*
X155185Y-296436D02*
X159184D01*
Y-295770D01*
X158851Y-295103D01*
X158518Y-294770D01*
X157851Y-294437D01*
X156851D01*
X156185Y-294770D01*
X155518Y-295437D01*
X155185Y-296436D01*
Y-297103D01*
X155518Y-298103D01*
X156185Y-298769D01*
X156851Y-299102D01*
X157851D01*
X158518Y-298769D01*
X159184Y-298103D01*
X164683Y-292104D02*
Y-299102D01*
Y-295437D02*
X164017Y-294770D01*
X163350Y-294437D01*
X162350D01*
X161684Y-294770D01*
X161017Y-295437D01*
X160684Y-296436D01*
Y-297103D01*
X161017Y-298103D01*
X161684Y-298769D01*
X162350Y-299102D01*
X163350D01*
X164017Y-298769D01*
X164683Y-298103D01*
X232231Y-295770D02*
Y-295437D01*
X232564Y-294770D01*
X232897Y-294437D01*
X233564Y-294104D01*
X234897D01*
X235563Y-294437D01*
X235897Y-294770D01*
X236230Y-295437D01*
Y-296103D01*
X235897Y-296770D01*
X235230Y-297770D01*
X231898Y-301102D01*
X236563D01*
X240129Y-294104D02*
X239129Y-294437D01*
X238463Y-295437D01*
X238130Y-297103D01*
Y-298103D01*
X238463Y-299769D01*
X239129Y-300769D01*
X240129Y-301102D01*
X240796D01*
X241795Y-300769D01*
X242462Y-299769D01*
X242795Y-298103D01*
Y-297103D01*
X242462Y-295437D01*
X241795Y-294437D01*
X240796Y-294104D01*
X240129D01*
X244362Y-295437D02*
X245028Y-295104D01*
X246028Y-294104D01*
Y-301102D01*
X254159Y-294104D02*
X250827Y-301102D01*
X249494Y-294104D02*
X254159D01*
X255726Y-298103D02*
X261725D01*
X265790Y-294104D02*
X264791Y-294437D01*
X264124Y-295437D01*
X263791Y-297103D01*
Y-298103D01*
X264124Y-299769D01*
X264791Y-300769D01*
X265790Y-301102D01*
X266457D01*
X267457Y-300769D01*
X268123Y-299769D01*
X268457Y-298103D01*
Y-297103D01*
X268123Y-295437D01*
X267457Y-294437D01*
X266457Y-294104D01*
X265790D01*
X270689D02*
X274355D01*
X272356Y-296770D01*
X273355D01*
X274022Y-297103D01*
X274355Y-297436D01*
X274689Y-298436D01*
Y-299103D01*
X274355Y-300103D01*
X273689Y-300769D01*
X272689Y-301102D01*
X271689D01*
X270689Y-300769D01*
X270356Y-300436D01*
X270023Y-299769D01*
X276255Y-298103D02*
X282254D01*
X284653Y-295770D02*
Y-295437D01*
X284986Y-294770D01*
X285319Y-294437D01*
X285986Y-294104D01*
X287319D01*
X287986Y-294437D01*
X288319Y-294770D01*
X288652Y-295437D01*
Y-296103D01*
X288319Y-296770D01*
X287652Y-297770D01*
X284320Y-301102D01*
X288985D01*
X295217Y-294104D02*
X291885Y-301102D01*
X290552Y-294104D02*
X295217D01*
X231898Y-328436D02*
X235897D01*
Y-327770D01*
X235563Y-327103D01*
X235230Y-326770D01*
X234564Y-326437D01*
X233564D01*
X232897Y-326770D01*
X232231Y-327436D01*
X231898Y-328436D01*
Y-329103D01*
X232231Y-330103D01*
X232897Y-330769D01*
X233564Y-331102D01*
X234564D01*
X235230Y-330769D01*
X235897Y-330103D01*
X237397Y-326437D02*
Y-331102D01*
Y-327770D02*
X238396Y-326770D01*
X239063Y-326437D01*
X240063D01*
X240729Y-326770D01*
X241062Y-327770D01*
Y-331102D01*
X246894Y-327436D02*
X246228Y-326770D01*
X245561Y-326437D01*
X244562D01*
X243895Y-326770D01*
X243229Y-327436D01*
X242895Y-328436D01*
Y-329103D01*
X243229Y-330103D01*
X243895Y-330769D01*
X244562Y-331102D01*
X245561D01*
X246228Y-330769D01*
X246894Y-330103D01*
X250060Y-326437D02*
X249394Y-326770D01*
X248727Y-327436D01*
X248394Y-328436D01*
Y-329103D01*
X248727Y-330103D01*
X249394Y-330769D01*
X250060Y-331102D01*
X251060D01*
X251727Y-330769D01*
X252393Y-330103D01*
X252727Y-329103D01*
Y-328436D01*
X252393Y-327436D01*
X251727Y-326770D01*
X251060Y-326437D01*
X250060D01*
X258259Y-324104D02*
Y-331102D01*
Y-327436D02*
X257592Y-326770D01*
X256926Y-326437D01*
X255926D01*
X255259Y-326770D01*
X254593Y-327436D01*
X254259Y-328436D01*
Y-329103D01*
X254593Y-330103D01*
X255259Y-330769D01*
X255926Y-331102D01*
X256926D01*
X257592Y-330769D01*
X258259Y-330103D01*
X260125Y-328436D02*
X264124D01*
Y-327770D01*
X263791Y-327103D01*
X263457Y-326770D01*
X262791Y-326437D01*
X261791D01*
X261125Y-326770D01*
X260458Y-327436D01*
X260125Y-328436D01*
Y-329103D01*
X260458Y-330103D01*
X261125Y-330769D01*
X261791Y-331102D01*
X262791D01*
X263457Y-330769D01*
X264124Y-330103D01*
X265624Y-326437D02*
Y-331102D01*
Y-328436D02*
X265957Y-327436D01*
X266623Y-326770D01*
X267290Y-326437D01*
X268290D01*
X269256Y-330436D02*
X268923Y-330769D01*
X269256Y-331102D01*
X269590Y-330769D01*
X269256Y-330436D01*
X271123Y-327770D02*
X274122D01*
X275122Y-327436D01*
X275455Y-327103D01*
X275788Y-326437D01*
Y-325437D01*
X275455Y-324770D01*
X275122Y-324437D01*
X274122Y-324104D01*
X271123D01*
Y-331102D01*
X281354Y-327436D02*
X280687Y-326770D01*
X280021Y-326437D01*
X279021D01*
X278354Y-326770D01*
X277688Y-327436D01*
X277355Y-328436D01*
Y-329103D01*
X277688Y-330103D01*
X278354Y-330769D01*
X279021Y-331102D01*
X280021D01*
X280687Y-330769D01*
X281354Y-330103D01*
X282853Y-324104D02*
Y-331102D01*
Y-327436D02*
X283520Y-326770D01*
X284186Y-326437D01*
X285186D01*
X285853Y-326770D01*
X286519Y-327436D01*
X286853Y-328436D01*
Y-329103D01*
X286519Y-330103D01*
X285853Y-330769D01*
X285186Y-331102D01*
X284186D01*
X283520Y-330769D01*
X282853Y-330103D01*
X288352Y-324104D02*
Y-331102D01*
Y-324104D02*
X290685D01*
X291685Y-324437D01*
X292351Y-325104D01*
X292685Y-325770D01*
X293018Y-326770D01*
Y-328436D01*
X292685Y-329436D01*
X292351Y-330103D01*
X291685Y-330769D01*
X290685Y-331102D01*
X288352D01*
X296251Y-326437D02*
X295584Y-326770D01*
X294917Y-327436D01*
X294584Y-328436D01*
Y-329103D01*
X294917Y-330103D01*
X295584Y-330769D01*
X296251Y-331102D01*
X297250D01*
X297917Y-330769D01*
X298583Y-330103D01*
X298917Y-329103D01*
Y-328436D01*
X298583Y-327436D01*
X297917Y-326770D01*
X297250Y-326437D01*
X296251D01*
X304449Y-327436D02*
X303782Y-326770D01*
X303116Y-326437D01*
X302116D01*
X301449Y-326770D01*
X300783Y-327436D01*
X300450Y-328436D01*
Y-329103D01*
X300783Y-330103D01*
X301449Y-330769D01*
X302116Y-331102D01*
X303116D01*
X303782Y-330769D01*
X304449Y-330103D01*
M02*
