%FSDAX33Y33*%
%MOMM*%
%SFA1B1*%

%IPPOS*%
%ADD24R,1.003201X1.253200*%
%ADD30R,1.203201X1.303200*%
%ADD38R,1.253200X1.003201*%
%ADD42R,1.303200X1.203201*%
%ADD43C,1.103201*%
%ADD44C,1.703200*%
%ADD45R,1.703200X1.703200*%
%ADD46C,3.203199*%
%ADD47C,1.403200*%
%ADD93R,14.750001X4.000000*%
%ADD94R,25.000001X2.250001*%
%ADD95O,0.603199X1.703200*%
%ADD96R,0.603199X1.703200*%
%LNgbr_bot_solder-1*%
%LPD*%
G54D44*
X090969Y011642D03*
Y014182D03*
Y016722D03*
Y019262D03*
G54D45*
X090969Y021802D03*
G54D44*
X090969Y033972D03*
Y036512D03*
G54D45*
X090969Y039052D03*
G54D44*
X088429Y011642D03*
Y014182D03*
Y016722D03*
Y019262D03*
Y021802D03*
Y033972D03*
Y036512D03*
Y039052D03*
G54D94*
X081219Y042677D03*
G54D93*
X076344Y008802D03*
G54D43*
X072169Y039402D03*
X067769D03*
G54D42*
X059969Y008327D03*
Y009777D03*
G54D38*
X059969Y011552D03*
Y013052D03*
G54D42*
X059969Y018077D03*
Y019527D03*
G54D38*
X059969Y034802D03*
Y036302D03*
G54D42*
X059969Y040827D03*
Y042277D03*
G54D38*
X059969Y014802D03*
Y016302D03*
Y038052D03*
Y039552D03*
G54D42*
X059719Y031577D03*
Y033027D03*
X057969Y011102D03*
Y012552D03*
Y034352D03*
Y035802D03*
G54D24*
X057969Y008302D03*
Y031552D03*
G54D30*
X057194Y015552D03*
Y038802D03*
G54D24*
X056719Y017302D03*
Y040552D03*
X056469Y008302D03*
Y031552D03*
G54D30*
X055744Y015552D03*
Y038802D03*
G54D42*
X055469Y011102D03*
Y012552D03*
G54D24*
X055469Y019052D03*
G54D42*
X055469Y034352D03*
Y035802D03*
G54D24*
X055469Y042302D03*
X055219Y017302D03*
Y040552D03*
X054719Y008302D03*
Y031552D03*
G54D95*
X054119Y010552D03*
G54D96*
X054119Y017052D03*
G54D95*
X054119Y033802D03*
G54D96*
X054119Y040302D03*
G54D24*
X053969Y019052D03*
Y042302D03*
G54D95*
X053469Y010552D03*
Y017052D03*
Y033802D03*
Y040302D03*
G54D24*
X053219Y008302D03*
Y031552D03*
G54D95*
X052819Y010552D03*
Y017052D03*
Y033802D03*
Y040302D03*
G54D24*
X052469Y019052D03*
Y042302D03*
G54D95*
X052169Y010552D03*
Y017052D03*
Y033802D03*
Y040302D03*
G54D38*
X050969Y007552D03*
Y009052D03*
G54D24*
X050969Y019052D03*
G54D38*
X050969Y030802D03*
Y032302D03*
G54D24*
X050969Y042302D03*
X045719Y012052D03*
Y035302D03*
X044219Y012052D03*
Y035302D03*
G54D38*
X042219Y007552D03*
Y009052D03*
Y030802D03*
Y032302D03*
G54D24*
X032719Y015552D03*
Y017052D03*
Y038802D03*
Y040302D03*
X031219Y015552D03*
Y017052D03*
Y038802D03*
Y040302D03*
G54D46*
X021759Y025302D03*
X016679D03*
X009469Y011262D03*
Y016342D03*
Y034512D03*
Y039592D03*
G54D47*
X089219Y028802D03*
X088219Y008802D03*
X086219Y017052D03*
X085719Y009552D03*
X084969Y040552D03*
X084219Y015302D03*
X081469Y025052D03*
X080719Y031802D03*
X080219Y038052D03*
X079469Y016052D03*
X077219Y022525D03*
Y023979D03*
X076969Y013052D03*
X076469Y019552D03*
X073969D03*
X073469Y024052D03*
X073219Y022302D03*
X072692Y032852D03*
X071469Y014302D03*
Y021052D03*
X071219Y033552D03*
X070469Y019552D03*
X070219Y039802D03*
X069719Y024452D03*
X068969Y031802D03*
X068469Y033802D03*
X068219Y014802D03*
X067219Y007802D03*
Y016802D03*
X065969Y015052D03*
Y039552D03*
X065719Y021802D03*
Y030302D03*
X065469Y027052D03*
X064219Y014802D03*
Y031802D03*
X063169Y043052D03*
X061969Y037052D03*
X061719Y012052D03*
Y039302D03*
X061469Y042552D03*
X060969Y024552D03*
X058469Y040802D03*
X057719Y018802D03*
X056969Y042052D03*
X056719Y009802D03*
Y033052D03*
X055969Y027052D03*
X054969Y022302D03*
X052469Y028302D03*
X050719D03*
X050219Y019052D03*
X050060Y042127D03*
X046719Y010802D03*
Y034052D03*
X046469Y017052D03*
Y040302D03*
X046219Y009302D03*
Y032552D03*
X046219Y019052D03*
Y042302D03*
X044969Y013552D03*
Y016552D03*
Y036802D03*
Y039802D03*
X042969Y028302D03*
X041219Y042052D03*
X040969Y018802D03*
X040719Y009052D03*
X040469Y032552D03*
X039969Y022302D03*
Y023802D03*
Y025302D03*
X039469Y011802D03*
X039219Y035052D03*
X038219Y007552D03*
X034969Y022802D03*
X033219D03*
X032469Y013052D03*
X032219Y036552D03*
X031219Y020052D03*
Y043302D03*
X026969Y008302D03*
Y010052D03*
Y011802D03*
Y015802D03*
Y017552D03*
Y019302D03*
Y031552D03*
Y033302D03*
Y035052D03*
Y039052D03*
Y040802D03*
Y042552D03*
X019719Y012552D03*
Y020052D03*
Y029802D03*
Y035802D03*
Y043302D03*
X013719Y012052D03*
X013219Y035802D03*
M02*