%FSDAX33Y33*%
%MOMM*%
%SFA1B1*%

%IPPOS*%
%AMD1002*
%
%ADD48R,1.524000X2.999999*%
%ADD49R,1.270000X0.508000*%
%ADD50R,1.050000X0.599999*%
%ADD51O,1.050000X0.599999*%
%ADD52O,1.450000X0.599999*%
%ADD53R,1.450000X0.599999*%
%ADD54R,1.849999X1.450000*%
%ADD55R,1.500000X1.350000*%
%ADD56R,0.800001X1.050000*%
%ADD57R,0.499999X2.500000*%
%ADD58R,2.000001X2.500000*%
%ADD59R,2.640000X2.809999*%
%ADD60R,1.899999X1.500000*%
%ADD61R,1.549999X1.500000*%
%ADD62R,1.000001X1.100000*%
%ADD63R,2.200001X0.700001*%
%ADD64O,2.200001X0.700001*%
%ADD65R,2.300000X3.200001*%
%ADD66R,1.799999X0.599999*%
%ADD67O,1.799999X0.599999*%
%ADD68O,1.749999X0.549999*%
%ADD69O,0.549999X1.749999*%
%ADD70R,1.050000X0.800001*%
%ADD71R,0.599999X1.050000*%
%ADD72O,0.599999X1.050000*%
%ADD73R,1.500000X1.549999*%
%ADD74R,1.100000X1.000001*%
%ADD75C,0.399999*%
%ADD76C,0.508000*%
%ADD77C,0.635000*%
%ADD78C,0.381000*%
%ADD79C,0.800001*%
%ADD80C,0.750001*%
%ADD81C,1.000001*%
%ADD82C,0.499999*%
%ADD83C,0.254000*%
%ADD84C,0.900001*%
%ADD85C,1.500000*%
%ADD86R,1.500000X1.500000*%
%ADD87C,2.999999*%
%ADD88C,1.200000*%
%LNgbr_top-1*%
%LPD*%
G36*
X101600Y050800D02*
X000000D01*
Y000000*
X101600*
Y050800*
G37*
%LNgbr_top-2*%
%LPC*%
G36*
X032800Y017649D02*
X032841Y017611D01*
X032884Y017578*
X032930Y017548*
X032977Y017522*
X033027Y017501*
X033078Y017483*
X033132Y017469*
X033189Y017460*
X033247Y017454*
X033307Y017453*
X032714Y016859*
X032712Y016920*
X032707Y016978*
X032697Y017034*
X032684Y017088*
X032666Y017140*
X032644Y017190*
X032619Y017237*
X032589Y017282*
X032555Y017325*
X032518Y017366*
X032800Y017649*
G37*
G36*
X030638Y032053D02*
X030693Y032055D01*
X030748Y032062*
X030801Y032073*
X030852Y032088*
X030903Y032108*
X030952Y032132*
X031000Y032161*
X031046Y032194*
X031091Y032231*
X031135Y032273*
Y031433*
X031091Y031475*
X031046Y031512*
X031000Y031545*
X030952Y031574*
X030903Y031598*
X030852Y031618*
X030801Y031633*
X030748Y031644*
X030693Y031651*
X030638Y031653*
Y032053*
G37*
G36*
X035013Y031279D02*
X035016Y031223D01*
X035022Y031169*
X035033Y031116*
X035049Y031064*
X035068Y031014*
X035093Y030965*
X035121Y030917*
X035154Y030870*
X035192Y030825*
X035233Y030782*
X034393*
X034435Y030825*
X034473Y030870*
X034506Y030917*
X034534Y030965*
X034558Y031014*
X034578Y031064*
X034594Y031116*
X034605Y031169*
X034611Y031223*
X034613Y031279*
X035013*
G37*
G36*
X037239Y031653D02*
X037184Y031651D01*
X037129Y031644*
X037076Y031633*
X037024Y031618*
X036974Y031598*
X036925Y031574*
X036877Y031545*
X036831Y031512*
X036786Y031475*
X036742Y031433*
Y032273*
X036786Y032231*
X036831Y032194*
X036877Y032161*
X036925Y032132*
X036974Y032108*
X037024Y032088*
X037076Y032073*
X037129Y032062*
X037184Y032055*
X037239Y032053*
Y031653*
G37*
G36*
X056489Y036653D02*
X056434Y036651D01*
X056379Y036644*
X056326Y036633*
X056274Y036618*
X056224Y036598*
X056175Y036574*
X056127Y036545*
X056081Y036512*
X056036Y036475*
X055992Y036433*
Y037273*
X056036Y037231*
X056081Y037194*
X056127Y037161*
X056175Y037132*
X056224Y037108*
X056274Y037088*
X056326Y037073*
X056379Y037062*
X056434Y037055*
X056489Y037053*
Y036653*
G37*
G36*
X034138Y027303D02*
X034193Y027305D01*
X034248Y027312*
X034301Y027323*
X034352Y027338*
X034403Y027358*
X034452Y027382*
X034500Y027411*
X034546Y027444*
X034591Y027481*
X034635Y027523*
Y026683*
X034591Y026725*
X034546Y026762*
X034500Y026795*
X034452Y026824*
X034403Y026848*
X034352Y026868*
X034301Y026883*
X034248Y026894*
X034193Y026901*
X034138Y026903*
Y027303*
G37*
G36*
X036513Y015684D02*
X036514Y015634D01*
X036525Y015512*
X036531Y015480*
X036538Y015453*
X036547Y015430*
X036558Y015412*
X036570Y015399*
X036583Y015389*
X036044*
X036057Y015399*
X036069Y015412*
X036080Y015430*
X036089Y015453*
X036096Y015480*
X036102Y015512*
X036107Y015548*
X036113Y015634*
X036113Y015684*
X036513*
G37*
G36*
X056489Y013403D02*
X056434Y013401D01*
X056379Y013394*
X056326Y013383*
X056274Y013368*
X056224Y013348*
X056175Y013324*
X056127Y013295*
X056081Y013262*
X056036Y013225*
X055992Y013183*
Y014023*
X056036Y013981*
X056081Y013944*
X056127Y013911*
X056175Y013882*
X056224Y013858*
X056274Y013838*
X056326Y013823*
X056379Y013812*
X056434Y013805*
X056489Y013803*
Y013403*
G37*
G36*
X034714Y016044D02*
X034716Y015988D01*
X034723Y015933*
X034734Y015881*
X034751Y015830*
X034772Y015781*
X034797Y015734*
X034828Y015689*
X034862Y015646*
X034902Y015605*
X034946Y015565*
X034109Y015495*
X034148Y015543*
X034183Y015591*
X034213Y015641*
X034240Y015691*
X034262Y015742*
X034281Y015794*
X034295Y015846*
X034305Y015899*
X034311Y015954*
X034314Y016009*
X034714Y016044*
G37*
G36*
X054772Y039345D02*
X054814Y039389D01*
X054851Y039433*
X054882Y039477*
X054909Y039521*
X054931Y039565*
X054948Y039609*
X054961Y039653*
X054968Y039696*
X054970Y039740*
X054967Y039784*
X055494Y039257*
X055451Y039260*
X055407Y039257*
X055363Y039250*
X055319Y039238*
X055275Y039221*
X055231Y039199*
X055187Y039172*
X055143Y039140*
X055099Y039103*
X055055Y039062*
X054772Y039345*
G37*
G36*
Y016095D02*
X054814Y016139D01*
X054851Y016183*
X054882Y016227*
X054909Y016271*
X054931Y016315*
X054948Y016359*
X054961Y016403*
X054968Y016446*
X054970Y016490*
X054967Y016534*
X055494Y016007*
X055451Y016010*
X055407Y016007*
X055363Y016000*
X055319Y015988*
X055275Y015971*
X055231Y015949*
X055187Y015922*
X055143Y015890*
X055099Y015853*
X055055Y015812*
X054772Y016095*
G37*
G36*
X053462Y032285D02*
X053498Y032323D01*
X053533Y032364*
X053565Y032407*
X053595Y032452*
X053651Y032550*
X053675Y032602*
X053719Y032714*
X053738Y032774*
X054131Y032031*
X054077Y032046*
X054025Y032054*
X053974Y032056*
X053924Y032053*
X053876Y032044*
X053829Y032028*
X053782Y032007*
X053737Y031980*
X053694Y031947*
X053651Y031908*
X053462Y032285*
G37*
G36*
Y009034D02*
X053498Y009073D01*
X053533Y009114*
X053565Y009157*
X053595Y009202*
X053651Y009300*
X053675Y009352*
X053719Y009464*
X053738Y009524*
X054131Y008781*
X054077Y008796*
X054025Y008804*
X053974Y008806*
X053924Y008803*
X053876Y008794*
X053829Y008778*
X053782Y008757*
X053737Y008730*
X053694Y008697*
X053651Y008658*
X053462Y009034*
G37*
G36*
X010534Y020001D02*
X010491Y019954D01*
X010453Y019902*
X010420Y019845*
X010391Y019784*
X010366Y019718*
X010347Y019648*
X010331Y019573*
X010321Y019493*
X010315Y019409*
X010313Y019321*
X009571Y020063*
X009660Y020064*
X009744Y020070*
X009823Y020081*
X009898Y020096*
X009969Y020116*
X010034Y020140*
X010096Y020169*
X010152Y020203*
X010204Y020241*
X010251Y020284*
X010534Y020001*
G37*
G36*
X013276Y019113D02*
X013213Y019110D01*
X013149Y019100*
X013085Y019084*
X013021Y019061*
X012958Y019032*
X012894Y018996*
X012830Y018954*
X012767Y018905*
X012703Y018850*
X012639Y018788*
Y019838*
X012703Y019776*
X012767Y019721*
X012830Y019672*
X012894Y019630*
X012958Y019594*
X013021Y019565*
X013085Y019542*
X013149Y019526*
X013213Y019516*
X013276Y019513*
Y019113*
G37*
G36*
X053118Y033441D02*
X053157Y033483D01*
X053190Y033527*
X053217Y033572*
X053239Y033618*
X053254Y033665*
X053263Y033714*
X053267Y033764*
X053264Y033815*
X053256Y033867*
X053242Y033920*
X053984Y033528*
X053924Y033508*
X053865Y033485*
X053806Y033458*
X053748Y033428*
X053635Y033358*
X053580Y033318*
X053472Y033227*
X053420Y033176*
X053118Y033441*
G37*
G36*
Y010191D02*
X053157Y010233D01*
X053190Y010277*
X053217Y010322*
X053239Y010368*
X053254Y010415*
X053263Y010464*
X053267Y010514*
X053264Y010565*
X053256Y010617*
X053242Y010670*
X053984Y010278*
X053924Y010258*
X053865Y010235*
X053806Y010208*
X053748Y010178*
X053635Y010108*
X053580Y010068*
X053472Y009977*
X053420Y009926*
X053118Y010191*
G37*
G36*
X053104Y040373D02*
X053161Y040376D01*
X053216Y040383*
X053267Y040396*
X053314Y040413*
X053358Y040436*
X053399Y040464*
X053437Y040497*
X053471Y040534*
X053501Y040577*
X053529Y040625*
X053781Y039824*
X053725Y039852*
X053615Y039900*
X053560Y039919*
X053452Y039949*
X053398Y039960*
X053345Y039967*
X053292Y039972*
X053239Y039973*
X053104Y040373*
G37*
G36*
Y017123D02*
X053161Y017126D01*
X053216Y017133*
X053267Y017146*
X053314Y017163*
X053358Y017186*
X053399Y017214*
X053437Y017247*
X053471Y017284*
X053501Y017327*
X053529Y017375*
X053781Y016574*
X053725Y016602*
X053615Y016650*
X053560Y016669*
X053452Y016699*
X053398Y016710*
X053345Y016717*
X053292Y016722*
X053239Y016723*
X053104Y017123*
G37*
G36*
X060388Y035303D02*
X060443Y035305D01*
X060498Y035312*
X060551Y035323*
X060603Y035338*
X060653Y035358*
X060702Y035382*
X060750Y035411*
X060796Y035444*
X060841Y035481*
X060885Y035523*
Y034683*
X060841Y034725*
X060796Y034762*
X060750Y034795*
X060702Y034824*
X060653Y034848*
X060603Y034868*
X060551Y034883*
X060498Y034894*
X060443Y034901*
X060388Y034903*
Y035303*
G37*
G36*
X013276Y011493D02*
X013213Y011490D01*
X013149Y011480*
X013085Y011464*
X013021Y011441*
X012958Y011412*
X012894Y011376*
X012830Y011334*
X012767Y011285*
X012703Y011230*
X012639Y011168*
Y012218*
X012703Y012156*
X012767Y012101*
X012830Y012052*
X012894Y012010*
X012958Y011974*
X013021Y011945*
X013085Y011922*
X013149Y011906*
X013213Y011896*
X013276Y011893*
Y011493*
G37*
G36*
X010534Y012381D02*
X010491Y012334D01*
X010453Y012282*
X010420Y012225*
X010391Y012164*
X010366Y012098*
X010347Y012028*
X010331Y011953*
X010321Y011873*
X010315Y011789*
X010313Y011701*
X009571Y012443*
X009660Y012444*
X009744Y012450*
X009823Y012461*
X009898Y012476*
X009969Y012496*
X010034Y012520*
X010096Y012549*
X010152Y012583*
X010204Y012621*
X010251Y012664*
X010534Y012381*
G37*
G36*
X010192Y010692D02*
X010146Y010734D01*
X010095Y010772*
X010038Y010806*
X009978Y010837*
X009912Y010864*
X009841Y010888*
X009765Y010908*
X009684Y010924*
X009598Y010936*
X009507Y010945*
X010310Y011622*
X010304Y011536*
X010304Y011454*
X010310Y011376*
X010320Y011303*
X010336Y011234*
X010358Y011168*
X010385Y011108*
X010418Y011051*
X010456Y010998*
X010500Y010950*
X010192Y010692*
G37*
G36*
X016113Y014427D02*
X016111Y014483D01*
X016105Y014537*
X016094Y014590*
X016078Y014642*
X016058Y014692*
X016034Y014742*
X016006Y014789*
X015973Y014836*
X015935Y014881*
X015893Y014925*
X016733Y014925*
X016692Y014881*
X016654Y014836*
X016621Y014789*
X016593Y014742*
X016568Y014692*
X016549Y014642*
X016533Y014590*
X016522Y014537*
X016516Y014483*
X016513Y014427*
X016113*
G37*
G36*
X020739Y031653D02*
X020684Y031651D01*
X020629Y031644*
X020576Y031633*
X020524Y031618*
X020474Y031598*
X020425Y031574*
X020377Y031545*
X020331Y031512*
X020286Y031475*
X020242Y031433*
Y032273*
X020286Y032231*
X020331Y032194*
X020377Y032161*
X020425Y032132*
X020474Y032108*
X020524Y032088*
X020576Y032073*
X020629Y032062*
X020684Y032055*
X020739Y032053*
Y031653*
G37*
G36*
X015771Y009549D02*
X015709Y009547D01*
X015652Y009541*
X015599Y009531*
X015551Y009517*
X015507Y009499*
X015468Y009477*
X015434Y009452*
X015404Y009422*
X015378Y009388*
X015357Y009350*
X015077Y010142*
X015114Y010126*
X015152Y010111*
X015194Y010099*
X015239Y010088*
X015336Y010071*
X015389Y010065*
X015566Y010057*
X015771Y009549*
G37*
G36*
X022395Y023811D02*
X022454Y023813D01*
X022508Y023820*
X022555Y023832*
X022596Y023848*
X022631Y023869*
X022660Y023895*
X022683Y023926*
X022699Y023961*
X022709Y024000*
X022714Y024045*
X023210Y023439*
X022515Y023430*
X022395Y023811*
G37*
G36*
X030168Y033849D02*
X030134Y033814D01*
X030068Y033734*
X030037Y033690*
X029976Y033594*
X029948Y033542*
X029866Y033370*
X029558Y034151*
X029609Y034131*
X029659Y034118*
X029708Y034111*
X029756Y034111*
X029803Y034117*
X029850Y034130*
X029895Y034149*
X029939Y034175*
X029983Y034207*
X030025Y034246*
X030168Y033849*
G37*
G36*
X022515Y023176D02*
X023210Y023167D01*
X022714Y022562*
X022709Y022606*
X022699Y022646*
X022683Y022681*
X022660Y022711*
X022631Y022737*
X022596Y022758*
X022555Y022774*
X022508Y022786*
X022454Y022793*
X022395Y022795*
X022515Y023176*
G37*
G36*
X028031Y033832D02*
X028033Y033777D01*
X028040Y033724*
X028051Y033671*
X028067Y033619*
X028088Y033569*
X028113Y033519*
X028143Y033471*
X028177Y033423*
X028217Y033377*
X028260Y033331*
X027420*
X027464Y033377*
X027503Y033423*
X027537Y033471*
X027567Y033519*
X027592Y033569*
X027613Y033619*
X027629Y033671*
X027640Y033724*
X027647Y033777*
X027650Y033832*
X028031*
G37*
G36*
X026769Y018614D02*
X026257Y019087D01*
X027045Y019245*
X027019Y019205*
X027001Y019166*
X026990Y019126*
X026987Y019085*
X026991Y019044*
X027002Y019002*
X027020Y018960*
X027046Y018917*
X027079Y018874*
X027120Y018830*
X026769Y018614*
G37*
G36*
X039990Y042997D02*
X039939Y042944D01*
X039849Y042836*
X039808Y042781*
X039738Y042668*
X039708Y042610*
X039682Y042552*
X039658Y042492*
X039639Y042432*
X039246Y043175*
X039299Y043160*
X039352Y043152*
X039403Y043150*
X039452Y043153*
X039501Y043162*
X039548Y043178*
X039594Y043199*
X039639Y043226*
X039683Y043259*
X039726Y043298*
X039990Y042997*
G37*
G36*
X043358Y043092D02*
X043870Y042619D01*
X043082Y042461*
X043108Y042501*
X043126Y042540*
X043136Y042581*
X043140Y042621*
X043136Y042663*
X043125Y042704*
X043107Y042747*
X043081Y042789*
X043048Y042833*
X043007Y042876*
X043358Y043092*
G37*
G36*
X011416Y017744D02*
X011463Y017701D01*
X011515Y017663*
X011571Y017629*
X011633Y017600*
X011698Y017576*
X011769Y017556*
X011844Y017541*
X011923Y017530*
X012007Y017524*
X012096Y017523*
X011354Y016781*
X011352Y016869*
X011346Y016953*
X011336Y017033*
X011320Y017108*
X011301Y017178*
X011276Y017244*
X011247Y017305*
X011214Y017362*
X011176Y017414*
X011133Y017461*
X011416Y017744*
G37*
G36*
X012791Y033052D02*
X012744Y033095D01*
X012692Y033133*
X012636Y033167*
X012574Y033196*
X012509Y033220*
X012438Y033240*
X012363Y033255*
X012284Y033266*
X012200Y033272*
X012111Y033273*
X012853Y034016*
X012855Y033927*
X012861Y033843*
X012871Y033763*
X012887Y033688*
X012906Y033618*
X012931Y033552*
X012960Y033491*
X012993Y033435*
X013031Y033383*
X013074Y033335*
X012791Y033052*
G37*
G36*
X008393Y016973D02*
X008463Y016976D01*
X008530Y016985*
X008595Y016999*
X008659Y017019*
X008720Y017046*
X008779Y017077*
X008836Y017115*
X008892Y017159*
X008945Y017208*
X008996Y017263*
Y016283*
X008945Y016338*
X008892Y016387*
X008836Y016431*
X008779Y016469*
X008720Y016501*
X008659Y016527*
X008595Y016547*
X008530Y016561*
X008463Y016570*
X008393Y016573*
Y016973*
G37*
G36*
X010534Y034711D02*
X010491Y034664D01*
X010453Y034612*
X010420Y034555*
X010391Y034494*
X010366Y034428*
X010347Y034358*
X010331Y034283*
X010321Y034203*
X010315Y034119*
X010313Y034031*
X009571Y034773*
X009660Y034774*
X009744Y034780*
X009823Y034791*
X009898Y034806*
X009969Y034826*
X010034Y034850*
X010096Y034879*
X010152Y034913*
X010204Y034951*
X010251Y034994*
X010534Y034711*
G37*
G36*
Y037251D02*
X010491Y037204D01*
X010453Y037152*
X010420Y037095*
X010391Y037034*
X010366Y036968*
X010347Y036898*
X010331Y036823*
X010321Y036743*
X010315Y036659*
X010313Y036571*
X009571Y037313*
X009660Y037314*
X009744Y037320*
X009823Y037331*
X009898Y037346*
X009969Y037366*
X010034Y037390*
X010096Y037419*
X010152Y037453*
X010204Y037491*
X010251Y037534*
X010534Y037251*
G37*
G36*
X013103Y036363D02*
X013052Y036362D01*
X012962Y036355*
X012924Y036348*
X012891Y036340*
X012862Y036330*
X012839Y036318*
X012819Y036304*
X012805Y036289*
X012794Y036271*
Y036855*
X012805Y036837*
X012819Y036822*
X012839Y036808*
X012862Y036796*
X012891Y036786*
X012924Y036778*
X012962Y036771*
X013005Y036767*
X013103Y036763*
Y036363*
G37*
G36*
X010593Y039850D02*
X010514Y039767D01*
X010388Y039620*
X010343Y039555*
X010309Y039495*
X010286Y039442*
X010274Y039394*
X010274Y039351*
X010285Y039315*
X010307Y039284*
X009745Y039847*
X009775Y039824*
X009812Y039813*
X009854Y039814*
X009902Y039825*
X009956Y039848*
X010015Y039883*
X010080Y039928*
X010151Y039985*
X010310Y040133*
X010593Y039850*
G37*
G36*
X038608Y040342D02*
X039120Y039869D01*
X038332Y039711*
X038358Y039751*
X038376Y039790*
X038386Y039831*
X038390Y039871*
X038386Y039913*
X038375Y039954*
X038357Y039997*
X038331Y040039*
X038298Y040083*
X038257Y040126*
X038608Y040342*
G37*
G36*
X037163Y042177D02*
X037161Y042233D01*
X037155Y042287*
X037144Y042340*
X037128Y042392*
X037108Y042442*
X037084Y042492*
X037056Y042539*
X037023Y042586*
X036985Y042631*
X036943Y042675*
X037783*
X037742Y042631*
X037704Y042586*
X037671Y042539*
X037643Y042492*
X037619Y042442*
X037599Y042392*
X037583Y042340*
X037572Y042287*
X037566Y042233*
X037563Y042177*
X037163*
G37*
G36*
X053947Y035071D02*
X053888Y034950D01*
X053813Y034960*
X053591Y034931*
X053385Y034845*
X053207Y034709*
X053071Y034532*
X053030Y034433*
X052994Y034419*
X052881Y034404*
X052728Y034506*
X052513Y034549*
X051663*
X051449Y034506*
X051360Y034447*
X050723*
X050548Y034412*
X050399Y034313*
X050170Y034083*
X049513*
X049454Y034071*
X049352Y034131*
X049327Y034157*
Y034744*
X051234*
X051266Y034723*
X051363Y034703*
X052813*
X052911Y034723*
X052994Y034778*
X053049Y034861*
X053068Y034958*
Y035558*
X053098Y035594*
X053423*
X053947Y035071*
G37*
G36*
X094805Y006862D02*
X087137D01*
X087088Y006979*
X088438Y008329*
X088537Y008478*
X088572Y008653*
Y018803*
X088537Y018979*
X088438Y019128*
X087638Y019928*
X087489Y020027*
X087313Y020062*
X086504*
X086388Y020178*
X086239Y020277*
X086063Y020312*
X085888Y020277*
X085739Y020178*
X085640Y020029*
X085605Y019853*
X085640Y019678*
X085739Y019529*
X085772Y019495*
X085724Y019378*
X084839*
X084818Y019382*
X084813Y019403*
Y020103*
X084794Y020201*
X084739Y020283*
X084656Y020339*
X084559Y020358*
X083933*
X083920Y020356*
X083908Y020357*
X083872Y020346*
X083835Y020339*
X083825Y020332*
X083812Y020328*
X083783Y020304*
X083752Y020283*
X083745Y020273*
X083736Y020265*
X083718Y020232*
X083697Y020201*
X083695Y020188*
X083689Y020177*
X083653Y020059*
X083604Y020069*
X082404*
X082190Y020026*
X082101Y019967*
X082099*
X081638Y020428*
X081584Y020463*
X081556Y020532*
X081420Y020709*
X081242Y020846*
X081035Y020931*
X080815Y020960*
X080815Y020961*
Y020977*
X080813Y020986*
Y024758*
X080807Y024789*
X080806Y024820*
X080798Y024837*
X080794Y024855*
X080777Y024881*
X080763Y024910*
X080749Y024922*
X080739Y024938*
X080713Y024956*
X080690Y024977*
X080672Y024983*
X080656Y024993*
X080625Y025000*
X080596Y025010*
X080500Y025024*
X080532Y025353*
X080500Y025682*
X080596Y025696*
X080625Y025707*
X080656Y025713*
X080672Y025723*
X080690Y025730*
X080713Y025751*
X080739Y025768*
X080749Y025784*
X080763Y025796*
X080777Y025825*
X080794Y025851*
X080798Y025869*
X080806Y025886*
X080807Y025918*
X080813Y025948*
Y029039*
X080866Y029103*
X081563*
Y029394*
X083563*
X083739Y029429*
X083888Y029529*
X084963Y030604*
X085239Y030329*
X085388Y030229*
X085563Y030194*
X085739Y030229*
X085888Y030329*
X085987Y030477*
X086022Y030653*
X085987Y030829*
X085888Y030978*
X085655Y031211*
X085703Y031328*
X086094*
X086138Y031319*
X086738*
X086914Y031354*
X087063Y031454*
X087638Y032029*
X087737Y032178*
X087772Y032353*
Y035134*
X087920Y035247*
X088056Y035424*
X088142Y035631*
X088171Y035853*
X088142Y036075*
X088056Y036282*
X087920Y036459*
X087742Y036596*
X087535Y036681*
X087313Y036710*
X087092Y036681*
X086885Y036596*
X086707Y036459*
X086695Y036444*
X086568Y036487*
Y043353*
X086549Y043451*
X086494Y043533*
X086411Y043589*
X086314Y043608*
X083933*
X083920Y043606*
X083908Y043607*
X083872Y043596*
X083835Y043589*
X083825Y043582*
X083812Y043578*
X083783Y043554*
X083752Y043533*
X083745Y043523*
X083736Y043515*
X083718Y043482*
X083697Y043451*
X083695Y043438*
X083689Y043427*
X083653Y043309*
X083604Y043319*
X082404*
X082190Y043276*
X082101Y043217*
X082099*
X081638Y043678*
X081584Y043713*
X081583Y043717*
X081659Y043844*
X094805*
Y006862*
G37*
G36*
X058739Y011029D02*
X058888Y010929D01*
X059063Y010894*
X060563*
X060739Y010929*
X060876Y011020*
X061063Y010996*
X061285Y011025*
X061492Y011111*
X061541Y011148*
X061655Y011092*
Y009343*
X060123Y007812*
X058502*
X058442Y007924*
X058482Y007983*
X058524Y008198*
X058482Y008413*
X058360Y008595*
X058178Y008716*
X057963Y008759*
X057113*
X056899Y008716*
X056810Y008657*
X056409*
X056015Y009051*
Y009587*
X056132Y009636*
X056624Y009144*
X056705Y009090*
X056717Y009072*
X056899Y008950*
X057113Y008907*
X057963*
X058178Y008950*
X058360Y009072*
X058482Y009253*
X058524Y009468*
X058482Y009683*
X058360Y009865*
X058178Y009986*
X057963Y010029*
X057123*
X057100Y010051*
X057100Y010055*
X057172Y010173*
X057411*
Y010738*
Y011303*
X057113*
X057087Y011298*
X057064Y011328*
X057094Y011401*
X057133Y011447*
X057963*
X058178Y011490*
X058238Y011530*
X058739Y011029*
G37*
G36*
X046516Y036135D02*
X046453Y036008D01*
X045039*
X044941Y035989*
X044858Y035933*
X044803Y035851*
X044784Y035753*
Y034253*
X044803Y034156*
X044836Y034107*
X044799Y034052*
X044780Y033953*
Y033330*
X045813*
Y033203*
X045940*
Y032194*
X046588*
X046688Y032214*
X046772Y032270*
X046828Y032354*
X046847Y032453*
Y032744*
X047138*
X047314Y032779*
X047436Y032861*
Y033628*
X047690*
Y032869*
X048113*
X048173Y032881*
X048276Y032820*
X048300Y032794*
Y031113*
X046813*
X046618Y031074*
X046600Y031062*
X046468*
Y031128*
X046449Y031226*
X046394Y031308*
X046311Y031364*
X046213Y031383*
X045413*
X045316Y031364*
X045233Y031308*
X045178Y031226*
X045159Y031128*
Y030078*
X045178Y029981*
X045202Y029945*
X045230Y029811*
X045174Y029727*
X045155Y029628*
Y029230*
X045814*
Y029103*
X045941*
Y028319*
X046213*
X046304Y028245*
Y024103*
X046343Y023908*
X046453Y023743*
X047203Y022993*
X047368Y022882*
X047563Y022843*
X047609*
Y022603*
X047628Y022506*
X047683Y022423*
X047766Y022368*
X047863Y022348*
X048304*
Y020336*
X048310Y020302*
X048092Y020083*
X047514*
X047416Y020064*
X047333Y020008*
X047278Y019926*
X047259Y019828*
Y019767*
X046843*
Y020003*
X046824Y020101*
X046769Y020183*
X046686Y020239*
X046588Y020258*
X045039*
X044941Y020239*
X044858Y020183*
X044803Y020101*
X044784Y020003*
Y018503*
X044803Y018406*
X044836Y018357*
X044799Y018302*
X044780Y018203*
Y017580*
X045813*
X046847*
Y018203*
X046828Y018302*
X046791Y018357*
X046824Y018406*
X046843Y018503*
Y018739*
X047276*
X047278Y018731*
X047302Y018695*
X047330Y018561*
X047274Y018477*
X047255Y018378*
Y018005*
X048063*
X048872*
Y018378*
X048853Y018477*
X048797Y018561*
X048825Y018695*
X048849Y018731*
X048868Y018828*
Y019406*
X049155Y019693*
X051058*
X051068Y019684*
Y019163*
X051087Y019066*
X051142Y018983*
X051225Y018928*
X051322Y018908*
X052772*
X052870Y018928*
X052953Y018983*
X053008Y019066*
X053027Y019163*
Y019763*
X053008Y019861*
X052953Y019943*
X052870Y019999*
X052772Y020018*
X052187*
X051634Y020570*
X051468Y020682*
X051271Y020721*
X049323*
Y022348*
X049763*
X049861Y022368*
X049944Y022423*
X049999Y022506*
X050017Y022597*
X050739*
Y021448*
X050758Y021351*
X050813Y021268*
X050896Y021213*
X050993Y021193*
X053633*
X053731Y021213*
X053814Y021268*
X053869Y021351*
X053888Y021448*
Y021894*
X054545*
X054553Y021856*
X054608Y021773*
X054691Y021718*
X054788Y021698*
X055570*
X055989Y021279*
X056138Y021179*
X056313Y021144*
X059623*
X060605Y020163*
Y016353*
X060640Y016177*
X060739Y016029*
X062502Y014266*
X062439Y014149*
X062363Y014164*
X061913*
X061699Y014121*
X061610Y014062*
X061504*
X060688Y014878*
X060539Y014977*
X060363Y015012*
X060208*
X060194Y015033*
X060111Y015089*
X060013Y015108*
X059211*
X059130Y015206*
X059131Y015212*
Y016244*
X059096Y016420*
X058997Y016569*
X058444Y017122*
X058441Y017138*
X058319Y017320*
X058137Y017441*
X057922Y017484*
X057072*
X056858Y017441*
X056676Y017320*
X056554Y017138*
X056512Y016923*
X056554Y016708*
X056676Y016527*
X056858Y016405*
X057072Y016362*
X057802*
X057816Y016341*
X057747Y016214*
X057072*
X056858Y016171*
X056769Y016112*
X056613*
X056438Y016077*
X056342Y016013*
X056254Y016107*
X056306Y016174*
X056392Y016381*
X056421Y016603*
X056392Y016825*
X056306Y017032*
X056170Y017209*
X055992Y017346*
X055785Y017431*
X055563Y017460*
X055342Y017431*
X055135Y017346*
X055028Y017263*
X054892Y017320*
X054892Y017325*
X054806Y017532*
X054670Y017709*
X054492Y017846*
X054285Y017931*
X054063Y017960*
X053842Y017931*
X053635Y017846*
X053457Y017709*
X053321Y017532*
X053310Y017504*
X053307Y017502*
X053287Y017465*
X053272Y017444*
X053257Y017428*
X053243Y017416*
X053228Y017406*
X053211Y017397*
X053191Y017390*
X053167Y017384*
X053154Y017382*
X052776*
X052687Y017441*
X052472Y017484*
X051622*
X051479Y017455*
X051417Y017572*
X051501Y017657*
X051622Y017632*
X052472*
X052687Y017675*
X052869Y017797*
X052991Y017978*
X053033Y018193*
X052991Y018408*
X052869Y018590*
X052687Y018711*
X052472Y018754*
X051622*
X051408Y018711*
X051290Y018632*
X051213Y018617*
X051064Y018518*
X050804Y018257*
X050794Y018258*
X050711Y018314*
X050613Y018333*
X049513*
X049416Y018314*
X049333Y018258*
X049278Y018176*
X049259Y018078*
Y017078*
X049278Y016981*
X049333Y016898*
Y016808*
X049278Y016726*
X049259Y016628*
Y015736*
X049158Y015687*
X049132Y015682*
X048989Y015777*
X048813Y015812*
X043004*
X041972Y016843*
Y019113*
X043138Y020279*
X043237Y020428*
X043272Y020603*
Y025161*
X043237Y025337*
X043138Y025486*
X039196Y029428*
X039047Y029527*
X038872Y029562*
X035387*
X035344Y029689*
X035420Y029747*
X035556Y029924*
X035642Y030131*
X035671Y030353*
X035642Y030575*
X035556Y030782*
X035420Y030959*
X035407Y030969*
X035382Y030995*
X035357Y031026*
X035335Y031056*
X035317Y031087*
X035302Y031117*
X035290Y031147*
X035281Y031178*
X035274Y031210*
X035272Y031224*
Y032163*
X035477Y032367*
X035572Y032283*
X035571Y032282*
X035485Y032075*
X035456Y031853*
X035485Y031631*
X035571Y031424*
X035707Y031247*
X035885Y031111*
X036092Y031025*
X036313Y030996*
X036535Y031025*
X036742Y031111*
X036920Y031247*
X036930Y031260*
X036955Y031284*
X036986Y031310*
X037017Y031332*
X037047Y031350*
X037077Y031365*
X037108Y031377*
X037139Y031386*
X037171Y031393*
X037185Y031394*
X039563*
X039739Y031429*
X039888Y031529*
X044504Y036144*
X046509*
X046516Y036135*
G37*
G36*
X040855Y024633D02*
Y021543D01*
X039739Y020428*
X039640Y020279*
X039605Y020103*
Y017877*
X039487Y017828*
X036116Y021199*
X036152Y021290*
X036176Y021319*
X036436*
Y022103*
Y022887*
X036428*
X035622Y023693*
Y023878*
X035603Y023977*
X035547Y024061*
X035575Y024195*
X035599Y024231*
X035618Y024328*
Y024369*
X035898*
X035909Y024359*
Y023828*
X035928Y023731*
X035983Y023648*
X036066Y023593*
X036163Y023573*
X036963*
X037061Y023593*
X037144Y023648*
X037199Y023731*
X037218Y023828*
Y024878*
X037199Y024976*
X037144Y025058*
X037061Y025114*
X036963Y025133*
X036432*
X036413Y025153*
X036264Y025252*
X036187Y025267*
X036200Y025394*
X040093*
X040855Y024633*
G37*
G36*
X060989Y013279D02*
X061138Y013179D01*
X061313Y013144*
X061610*
X061699Y013085*
X061913Y013042*
X062363*
X062439Y013057*
X062502Y012940*
X061910Y012348*
X061744Y012362*
X061670Y012459*
X061492Y012596*
X061285Y012681*
X061063Y012710*
X060842Y012681*
X060635Y012596*
X060457Y012459*
X060321Y012282*
X060235Y012075*
X060206Y011853*
X060170Y011812*
X059254*
X059068Y011998*
X059130Y012115*
X059263Y012088*
X059361*
Y012653*
X059488*
Y012780*
X060253*
X060235Y012869*
X060113Y013053*
X059930Y013175*
X059713Y013218*
X059527*
X059514Y013227*
X059339Y013262*
X059026*
X058973Y013389*
X059582Y013998*
X060013*
X060111Y014018*
X060194Y014073*
X060195Y014073*
X060989Y013279*
G37*
G36*
X087655Y011594D02*
Y008843D01*
X086686Y007874*
X086568Y007923*
Y011153*
X086695Y011261*
X086813Y011246*
X087035Y011275*
X087242Y011361*
X087420Y011497*
X087528Y011638*
X087655Y011594*
G37*
G36*
X058138Y034679D02*
X058313Y034644D01*
X060442*
X060456Y034643*
X060488Y034636*
X060519Y034627*
X060550Y034615*
X060580Y034600*
X060610Y034582*
X060641Y034560*
X060672Y034534*
X060697Y034510*
X060707Y034497*
X060885Y034361*
X061092Y034275*
X061313Y034246*
X061535Y034275*
X061742Y034361*
X061791Y034398*
X061905Y034342*
Y032843*
X060123Y031062*
X058502*
X058442Y031174*
X058482Y031233*
X058524Y031448*
X058482Y031663*
X058360Y031845*
X058178Y031966*
X057963Y032009*
X057113*
X056899Y031966*
X056810Y031907*
X056409*
X056015Y032301*
Y032837*
X056132Y032886*
X056624Y032394*
X056705Y032340*
X056717Y032322*
X056899Y032200*
X057113Y032157*
X057963*
X058178Y032200*
X058360Y032322*
X058482Y032503*
X058524Y032718*
X058482Y032933*
X058360Y033115*
X058178Y033236*
X057963Y033279*
X057123*
X057100Y033301*
X057100Y033305*
X057172Y033423*
X057411*
Y033988*
Y034553*
X057113*
X057087Y034548*
X057064Y034578*
X057094Y034651*
X057133Y034697*
X057963*
X058077Y034720*
X058138Y034679*
G37*
G36*
X039978Y026429D02*
X039929Y026312D01*
X035637*
X035594Y026439*
X035670Y026497*
X035806Y026674*
X035892Y026881*
X035921Y027103*
X035892Y027325*
X035806Y027532*
X035670Y027709*
X035529Y027817*
X035572Y027944*
X038463*
X039978Y026429*
G37*
G36*
X011372Y020082D02*
X011383Y020017D01*
X011230Y019817*
X011129Y019574*
X011095Y019313*
X011129Y019052*
X011230Y018809*
X011390Y018600*
X011599Y018440*
X011842Y018339*
X012103Y018304*
X012365Y018339*
X012608Y018440*
X012817Y018600*
X012833Y018621*
X012875Y018662*
X012928Y018707*
X012978Y018746*
X013027Y018778*
X013073Y018804*
X013118Y018825*
X013160Y018840*
X013200Y018850*
X013228Y018854*
X014144*
X015545Y017454*
X015694Y017354*
X015869Y017319*
X019819*
X019995Y017354*
X020144Y017454*
X020323Y017633*
X020359Y017609*
X020563Y017568*
X021763*
X021968Y017609*
X022142Y017725*
X022258Y017898*
X022299Y018103*
X022258Y018308*
X022142Y018482*
Y018525*
X022258Y018698*
X022299Y018903*
X022271Y019041*
X022359Y019168*
X023326*
X023457Y018997*
X023635Y018861*
X023842Y018775*
X024063Y018746*
X024285Y018775*
X024492Y018861*
X024670Y018997*
X024692Y018998*
X025975Y017714*
X025934Y017577*
X025807Y017551*
X025632Y017434*
X025513Y017485*
X025418Y017548*
X025213Y017588*
X025009Y017548*
X024835Y017432*
X024792*
X024618Y017548*
X024413Y017588*
X024209Y017548*
X024035Y017432*
X023992*
X023818Y017548*
X023613Y017588*
X023409Y017548*
X023235Y017432*
X023192*
X023018Y017548*
X022813Y017588*
X022609Y017548*
X022435Y017432*
X022319Y017258*
X022278Y017053*
Y015853*
X022319Y015648*
X022355Y015595*
Y015543*
X018963Y012152*
X013228*
X013200Y012156*
X013160Y012166*
X013118Y012181*
X013073Y012202*
X013027Y012228*
X012978Y012260*
X012928Y012299*
X012918Y012307*
X012965Y012434*
X015353*
X015529Y012469*
X015678Y012569*
X016182Y013073*
X016713*
X016811Y013093*
X016894Y013148*
X016949Y013231*
X016968Y013328*
Y014378*
X016949Y014476*
X016894Y014558*
X016886Y014585*
X016882Y014710*
X016887Y014716*
X016907Y014737*
X016920Y014747*
X017056Y014924*
X017142Y015131*
X017171Y015353*
X017142Y015575*
X017056Y015782*
X016920Y015959*
X016742Y016096*
X016535Y016181*
X016313Y016210*
X016092Y016181*
X015885Y016096*
X015707Y015959*
X015571Y015782*
X015485Y015575*
X015456Y015353*
X015485Y015131*
X015571Y014924*
X015707Y014747*
X015720Y014737*
X015740Y014716*
X015745Y014710*
X015741Y014585*
X015733Y014558*
X015678Y014476*
X015659Y014378*
Y013847*
X015163Y013352*
X012806*
X012763Y013479*
X012817Y013520*
X012977Y013729*
X013078Y013972*
X013112Y014233*
X013078Y014494*
X012977Y014737*
X012817Y014946*
X012608Y015107*
X012365Y015207*
X012103Y015242*
X011842Y015207*
X011599Y015107*
X011390Y014946*
X011230Y014737*
X011129Y014494*
X011095Y014233*
X011129Y013972*
X011230Y013729*
X011390Y013520*
X011444Y013479*
X011401Y013352*
X010763*
X010588Y013317*
X010439Y013218*
X010034Y012812*
X010011Y012796*
X009976Y012775*
X009935Y012755*
X009890Y012739*
X009838Y012724*
X009781Y012713*
X009718Y012704*
X009649Y012699*
X009590Y012698*
X009563Y012702*
X009302Y012667*
X009059Y012567*
X008850Y012406*
X008690Y012197*
X008589Y011954*
X008555Y011693*
X008589Y011432*
X008690Y011189*
X008850Y010980*
X009059Y010820*
X009302Y010719*
X009461Y010698*
X009483Y010692*
X009567Y010683*
X009641Y010673*
X009708Y010659*
X009768Y010643*
X009823Y010625*
X009871Y010605*
X009914Y010584*
X009951Y010561*
X009974Y010544*
X010489Y010029*
X010638Y009929*
X010813Y009894*
X012813*
X012989Y009929*
X013138Y010029*
X013504Y010394*
X014240*
X014283Y010267*
X014207Y010209*
X014071Y010032*
X013985Y009825*
X013956Y009603*
X013985Y009381*
X014071Y009174*
X014207Y008997*
X014385Y008861*
X014592Y008775*
X014813Y008746*
X015035Y008775*
X015242Y008861*
X015420Y008997*
X015556Y009174*
X015575Y009220*
X015581Y009227*
X015593Y009249*
X015597Y009254*
X015601Y009258*
X015608Y009263*
X015618Y009269*
X015635Y009276*
X015658Y009283*
X015689Y009289*
X015694Y009289*
X016084*
X016116Y009268*
X016213Y009248*
X017263*
X017361Y009268*
X017444Y009323*
X017499Y009406*
X017518Y009503*
Y010103*
X017499Y010201*
X017454Y010267*
X017473Y010335*
X017506Y010394*
X019313*
X019489Y010429*
X019638Y010529*
X023938Y014829*
X024037Y014977*
X024072Y015153*
Y015315*
X024184Y015375*
X024209Y015359*
X024413Y015318*
X024618Y015359*
X024792Y015475*
X024835*
X025009Y015359*
X025213Y015318*
X025418Y015359*
X025443Y015375*
X025555Y015315*
Y014912*
X025313*
X025214Y014892*
X025130Y014836*
X025074Y014752*
X025055Y014653*
Y014230*
X025813*
Y013976*
X025055*
Y013553*
X025074Y013454*
X025130Y013370*
X025214Y013314*
X025313Y013294*
X025355*
Y012637*
X024913*
X024814Y012617*
X024730Y012561*
X024674Y012477*
X024655Y012378*
Y011730*
X025663*
Y011603*
X025790*
Y010569*
X026413*
X026513Y010589*
X026567Y010625*
X026616Y010593*
X026713Y010573*
X026950*
Y009883*
X026713*
X026616Y009864*
X026567Y009831*
X026513Y009867*
X026413Y009887*
X025790*
Y008853*
Y007819*
X026413*
X026513Y007839*
X026567Y007875*
X026616Y007843*
X026713Y007823*
X028213*
X028311Y007843*
X028394Y007898*
X028449Y007981*
X028468Y008078*
Y008899*
X030023*
X030049Y008904*
X030658*
X030756Y008924*
X030839Y008979*
X030862Y009014*
X030989Y008976*
Y008006*
X030601Y007617*
X023776*
X023743Y007650*
Y008578*
X023724Y008676*
X023669Y008758*
X023586Y008814*
X023488Y008833*
X021638*
X021541Y008814*
X021458Y008758*
X021403Y008676*
X021384Y008578*
Y007128*
X021403Y007031*
X021431Y006989*
X021377Y006864*
X021375Y006862*
X006822*
Y017550*
X006949Y017588*
X006989Y017529*
X008069Y016449*
X008218Y016349*
X008393Y016314*
X008454*
X008486Y016310*
X008529Y016301*
X008570Y016288*
X008609Y016271*
X008648Y016250*
X008687Y016224*
X008726Y016194*
X008764Y016158*
X008809Y016110*
X008813Y016107*
X008815Y016103*
X008819Y016100*
X008850Y016060*
X009059Y015900*
X009302Y015799*
X009563Y015764*
X009825Y015799*
X010068Y015900*
X010277Y016060*
X010437Y016269*
X010538Y016512*
X010572Y016773*
X010538Y017034*
X010437Y017277*
X010277Y017486*
X010228Y017524*
X010268Y017644*
X010583*
X010984Y017244*
X011001Y017221*
X011022Y017185*
X011041Y017145*
X011058Y017099*
X011072Y017048*
X011084Y016991*
X011092Y016928*
X011097Y016858*
X011098Y016799*
X011095Y016773*
X011129Y016512*
X011230Y016269*
X011390Y016060*
X011599Y015900*
X011842Y015799*
X012103Y015764*
X012365Y015799*
X012608Y015900*
X012817Y016060*
X012977Y016269*
X013078Y016512*
X013112Y016773*
X013078Y017034*
X012977Y017277*
X012817Y017486*
X012608Y017647*
X012365Y017747*
X012103Y017782*
X012077Y017778*
X012018Y017779*
X011949Y017784*
X011886Y017793*
X011829Y017804*
X011777Y017819*
X011732Y017835*
X011691Y017855*
X011656Y017876*
X011633Y017892*
X011098Y018428*
X010949Y018527*
X010773Y018562*
X010408*
X010345Y018689*
X010437Y018809*
X010538Y019052*
X010572Y019313*
X010569Y019339*
X010570Y019398*
X010575Y019468*
X010583Y019531*
X010595Y019588*
X010609Y019639*
X010626Y019685*
X010645Y019725*
X010666Y019761*
X010683Y019784*
X011044Y020144*
X011350*
X011372Y020082*
G37*
G36*
X080559Y014813D02*
Y013460D01*
X080565Y013428*
X080566Y013420*
X080385Y013346*
X080207Y013209*
X080071Y013032*
X079996Y012851*
X079989Y012851*
X079956Y012858*
X072433*
X072420Y012856*
X072408Y012857*
X072372Y012846*
X072335Y012839*
X072325Y012832*
X072312Y012828*
X072283Y012804*
X072252Y012783*
X072245Y012773*
X072236Y012765*
X072218Y012732*
X072197Y012701*
X072195Y012688*
X072189Y012677*
X072153Y012559*
X072104Y012569*
X070904*
X070690Y012526*
X070601Y012467*
X070599*
X069638Y013428*
X069489Y013527*
X069313Y013562*
X069154*
X069130Y013578*
X069075Y013651*
X069061Y013689*
X069068Y013714*
X069067Y013722*
X069068Y013731*
Y014813*
X069195Y014881*
X069216Y014868*
X069313Y014848*
X080313*
X080411Y014868*
X080432Y014881*
X080559Y014813*
G37*
G36*
X050559Y030103D02*
Y025599D01*
X050578Y025501*
X050633Y025418*
X050716Y025363*
X050813Y025344*
X053813*
X053911Y025363*
X053994Y025418*
X054049Y025501*
X054068Y025599*
Y028248*
X054669Y028848*
X057153*
X057251Y028868*
X057408Y028933*
X057563Y028953*
X057719Y028933*
X057876Y028868*
X057974Y028848*
X058584*
Y028053*
X058603Y027956*
X058658Y027873*
X058741Y027818*
X058838Y027798*
X058880*
Y027593*
X058765Y027478*
X056713*
X056616Y027459*
X056533Y027403*
X056478Y027321*
X056459Y027223*
Y026523*
X056478Y026426*
X056533Y026343*
X056616Y026288*
X056713Y026268*
X056750*
X056789Y026141*
X056631Y026036*
X056498Y025837*
X056452Y025603*
X056498Y025369*
X056631Y025171*
X056829Y025038*
X056855Y025033*
Y024903*
X056829Y024898*
X056631Y024766*
X056498Y024567*
X056452Y024333*
X056463Y024276*
X056348Y024204*
X056239Y024277*
X056082Y024308*
X056074Y024351*
X056019Y024433*
X055936Y024489*
X055838Y024508*
X055772*
Y024948*
X055838*
X055936Y024968*
X056019Y025023*
X056074Y025106*
X056093Y025203*
Y026003*
X056074Y026101*
X056019Y026183*
X055936Y026239*
X055838Y026258*
X054788*
X054691Y026239*
X054608Y026183*
X054553Y026101*
X054534Y026003*
Y025203*
X054553Y025106*
X054608Y025023*
X054691Y024968*
X054788Y024948*
X054855*
Y024508*
X054788*
X054691Y024489*
X054608Y024433*
X054553Y024351*
X054534Y024253*
Y023453*
X054553Y023356*
X054608Y023273*
X054691Y023218*
X054788Y023198*
X055838*
X055936Y023218*
X056004Y023263*
X056529Y022739*
X056583Y022703*
X056631Y022631*
X056829Y022498*
X057063Y022451*
X058563*
X058798Y022498*
X058996Y022631*
X059129Y022829*
X059175Y023063*
X059129Y023297*
X058996Y023496*
X058798Y023628*
X058772Y023633*
Y023763*
X058798Y023768*
X058996Y023901*
X059129Y024099*
X059175Y024333*
X059129Y024567*
X058996Y024766*
X058798Y024898*
X058772Y024903*
Y025033*
X058798Y025038*
X058996Y025171*
X059129Y025369*
X059175Y025603*
X059129Y025837*
X058996Y026036*
X058838Y026141*
X058877Y026268*
X058913*
X059011Y026288*
X059094Y026343*
X059149Y026426*
X059168Y026523*
Y026584*
X059663Y027079*
X059762Y027228*
X059797Y027403*
Y027798*
X059838*
X059936Y027818*
X060019Y027873*
X060108*
X060191Y027818*
X060309Y027794*
Y026353*
X060328Y026256*
X060383Y026173*
X060430Y026126*
X060512Y026071*
X060610Y026052*
X061559*
Y025108*
X061578Y025010*
X061633Y024928*
X061716Y024873*
X061813Y024853*
X062733*
X062796Y024726*
X062746Y024661*
X062680Y024503*
X062658Y024333*
X062680Y024163*
X062746Y024005*
X062850Y023870*
X062938Y023802*
X062895Y023675*
X062563*
X062329Y023628*
X062131Y023496*
X061998Y023297*
X061952Y023063*
X061998Y022829*
X062131Y022631*
X062329Y022498*
X062563Y022451*
X064063*
X064298Y022498*
X064496Y022631*
X064629Y022829*
X064675Y023063*
X064629Y023297*
X064496Y023496*
X064414Y023550*
X064453Y023677*
X065320*
X065324Y023654*
X065380Y023570*
X065464Y023514*
X065563Y023494*
X065736*
Y024278*
X065990*
Y023494*
X066163*
X066263Y023514*
X066347Y023570*
X066382Y023622*
X067411*
X067547Y023531*
X067592Y023522*
X067975Y023140*
X068111Y023035*
X068269Y022970*
X068321Y022963*
X068325Y022834*
X068322Y022834*
X068239Y022778*
X067581Y022121*
X067562Y022108*
X067538Y022103*
X061813*
X061716Y022084*
X061633Y022028*
X061578Y021946*
X061559Y021848*
Y020651*
X061432Y020612*
X061388Y020678*
X060138Y021928*
X059989Y022027*
X059813Y022062*
X056504*
X056093Y022472*
Y022753*
X056074Y022851*
X056019Y022933*
X055936Y022989*
X055838Y023008*
X054788*
X054691Y022989*
X054608Y022933*
X054553Y022851*
X054545Y022812*
X053888*
Y024258*
X053869Y024356*
X053814Y024438*
X053731Y024494*
X053633Y024513*
X050993*
X050896Y024494*
X050813Y024438*
X050758Y024356*
X050739Y024258*
Y024110*
X050017*
X049999Y024201*
X049944Y024283*
X049861Y024339*
X049763Y024358*
X047863*
X047766Y024339*
X047683Y024283*
X047628Y024201*
X047626Y024191*
X047488Y024149*
X047323Y024314*
Y030093*
X048793*
X048813Y030089*
X049010Y030128*
X049034Y030144*
X050525*
X050559Y030103*
G37*
G36*
X034598Y027817D02*
X034457Y027709D01*
X034447Y027696*
X034422Y027672*
X034391Y027646*
X034360Y027624*
X034330Y027606*
X034300Y027591*
X034269Y027579*
X034238Y027570*
X034206Y027564*
X034192Y027562*
X034063*
X033888Y027527*
X033739Y027428*
X032950Y026638*
X031863*
X031659Y026598*
X031485Y026482*
X031369Y026308*
X031328Y026103*
X031369Y025898*
X031485Y025725*
Y025682*
X031369Y025508*
X031335Y025335*
X031305Y025306*
X031255Y025277*
X031207Y025260*
X031035Y025331*
X030813Y025360*
X030698Y025345*
X030077Y025966*
X029910Y026078*
X029713Y026117*
X025727*
Y026567*
X025854Y026645*
X025886Y026639*
Y027753*
X026140*
Y026639*
X026220Y026655*
X026395Y026772*
X026514Y026722*
X026609Y026659*
X026813Y026618*
X027018Y026659*
X027192Y026775*
X027235*
X027409Y026659*
X027613Y026618*
X027818Y026659*
X027992Y026775*
X028035*
X028209Y026659*
X028413Y026618*
X028618Y026659*
X028792Y026775*
X028835*
X029009Y026659*
X029213Y026618*
X029418Y026659*
X029592Y026775*
X029635*
X029809Y026659*
X030013Y026618*
X030218Y026659*
X030392Y026775*
X030435*
X030609Y026659*
X030813Y026618*
X031018Y026659*
X031192Y026775*
X031308Y026948*
X031349Y027153*
Y027944*
X034555*
X034598Y027817*
G37*
G36*
X022278Y027153D02*
X022319Y026948D01*
X022435Y026775*
X022609Y026659*
X022813Y026618*
X023018Y026659*
X023192Y026775*
X023235*
X023409Y026659*
X023613Y026618*
X023818Y026659*
X023992Y026775*
X024035*
X024209Y026659*
X024413Y026618*
X024573Y026649*
X024700Y026572*
Y025703*
X024739Y025506*
X024800Y025415*
Y020766*
X024412Y020379*
X024285Y020431*
X024063Y020460*
X023842Y020431*
X023635Y020346*
X023457Y020209*
X023447Y020196*
X022336*
X022267Y020323*
X022278Y020376*
X021163*
Y020630*
X022278*
X022262Y020709*
X022145Y020884*
X022195Y021004*
X022258Y021098*
X022299Y021303*
X022258Y021508*
X022193Y021606*
X022151Y021703*
X022193Y021800*
X022258Y021898*
X022299Y022103*
X022258Y022308*
X022340Y022407*
X022367Y022416*
X022485Y022354*
X022571Y022147*
X022707Y021970*
X022885Y021834*
X023092Y021748*
X023313Y021719*
X023535Y021748*
X023742Y021834*
X023920Y021970*
X024056Y022147*
X024142Y022354*
X024171Y022576*
X024142Y022798*
X024056Y023005*
X023920Y023182*
X023845Y023240*
Y023367*
X023920Y023424*
X024056Y023601*
X024142Y023808*
X024171Y024030*
X024142Y024252*
X024056Y024459*
X023920Y024636*
X023742Y024773*
X023535Y024858*
X023313Y024887*
X023092Y024858*
X022885Y024773*
X022707Y024636*
X022571Y024459*
X022485Y024252*
X022367Y024190*
X022340Y024199*
X022258Y024298*
X022299Y024503*
X022258Y024708*
X022142Y024882*
Y024925*
X022258Y025098*
X022299Y025303*
X022258Y025508*
X022142Y025682*
Y025725*
X022258Y025898*
X022299Y026103*
X022258Y026308*
X022142Y026482*
X021968Y026598*
X021763Y026638*
X020563*
X020359Y026598*
X020305Y026562*
X020214*
X018998Y027777*
X019047Y027894*
X022278*
Y027153*
G37*
G36*
X053947Y011821D02*
X053888Y011700D01*
X053813Y011710*
X053591Y011681*
X053385Y011595*
X053207Y011459*
X053071Y011282*
X053030Y011184*
X052994Y011169*
X052881Y011154*
X052728Y011256*
X052513Y011299*
X051663*
X051449Y011256*
X051360Y011197*
X050723*
X050548Y011162*
X050399Y011063*
X050170Y010833*
X049513*
X049416Y010814*
X049399Y010802*
X049272Y010870*
Y011494*
X051234*
X051266Y011473*
X051363Y011453*
X052813*
X052911Y011473*
X052994Y011528*
X053049Y011611*
X053068Y011708*
Y012308*
X053098Y012344*
X053423*
X053947Y011821*
G37*
G36*
X018813Y021704D02*
X018765Y021587D01*
X018690*
Y020828*
X018563*
Y020701*
X017692*
X017637Y020678*
X017613Y020703*
X017464Y020802*
X017368Y020821*
Y020878*
X017349Y020976*
X017325Y021011*
X017297Y021145*
X017353Y021229*
X017372Y021328*
Y021701*
X015755*
Y021328*
X015774Y021229*
X015830Y021145*
X015802Y021011*
X015778Y020976*
X015759Y020878*
Y019878*
X015778Y019781*
X015833Y019698*
X015916Y019643*
X016013Y019623*
X017113*
X017211Y019643*
X017294Y019698*
X017318Y019700*
X017739Y019279*
X017759Y019266*
Y018887*
X016329*
X014288Y020928*
X014139Y021027*
X013963Y021062*
X012922*
X012859Y021189*
X012980Y021347*
X013082Y021591*
X013099Y021726*
X012103*
Y021980*
X013099*
X013082Y022115*
X012980Y022359*
X012820Y022569*
X012610Y022730*
X012520Y022767*
X012545Y022894*
X017623*
X018813Y021704*
G37*
G36*
X029971Y024619D02*
X029956Y024503D01*
X029985Y024281*
X030071Y024074*
X030207Y023897*
X030385Y023761*
X030592Y023675*
X030813Y023646*
X031035Y023675*
X031203Y023744*
X031246Y023730*
X031306Y023694*
X031331Y023669*
X031365Y023497*
X031482Y023322*
X031432Y023202*
X031369Y023108*
X031328Y022903*
X031369Y022698*
X031485Y022525*
Y022482*
X031369Y022308*
X031328Y022103*
X031369Y021898*
X031434Y021800*
X031476Y021703*
X031434Y021606*
X031369Y021508*
X031328Y021303*
X031369Y021098*
X031485Y020925*
Y020882*
X031369Y020708*
X031328Y020503*
X031369Y020298*
X031434Y020200*
X031476Y020103*
X031434Y020006*
X031369Y019908*
X031328Y019703*
X031369Y019498*
X031485Y019325*
Y019282*
X031369Y019108*
X031328Y018903*
X031369Y018698*
X031485Y018525*
Y018482*
X031369Y018308*
X031328Y018103*
X031369Y017898*
X031485Y017725*
X031659Y017609*
X031863Y017568*
X032032*
X032040Y017528*
X032139Y017379*
X032373Y017145*
X032382Y017133*
X032400Y017106*
X032415Y017078*
X032428Y017048*
X032439Y017016*
X032447Y016982*
X032454Y016945*
X032457Y016905*
X032458Y016869*
X032456Y016853*
X032485Y016631*
X032571Y016424*
X032707Y016247*
X032885Y016111*
X033092Y016025*
X033313Y015996*
X033535Y016025*
X033742Y016111*
X033920Y016247*
X033934Y016266*
X034055Y016225*
Y015951*
X034053Y015938*
X034047Y015904*
X034037Y015870*
X034025Y015836*
X034010Y015802*
X033992Y015768*
X033971Y015733*
X033945Y015698*
X033911Y015656*
X033901Y015636*
X033821Y015532*
X033735Y015325*
X033706Y015103*
X033735Y014881*
X033821Y014674*
X033957Y014497*
X034135Y014361*
X034342Y014275*
X034563Y014246*
X034785Y014275*
X034992Y014361*
X035170Y014497*
X035306Y014674*
X035341Y014758*
X035471Y014741*
X035485Y014631*
X035571Y014424*
X035707Y014247*
X035885Y014111*
X036092Y014025*
X036313Y013996*
X036535Y014025*
X036742Y014111*
X036920Y014247*
X037056Y014424*
X037142Y014631*
X037171Y014853*
X037142Y015075*
X037056Y015282*
X036920Y015459*
X036775Y015570*
X036772Y015607*
Y015684*
X036737Y015859*
X036638Y016008*
X035622Y017024*
Y018172*
X035587Y018348*
X035488Y018497*
X034032Y019953*
X033883Y020052*
X033708Y020087*
X033570*
X033502Y020214*
X033558Y020298*
X033599Y020503*
X033558Y020708*
X033442Y020882*
Y020925*
X033558Y021098*
X033599Y021303*
X033558Y021508*
X033493Y021606*
X033451Y021703*
X033493Y021800*
X033558Y021898*
X033599Y022103*
X033558Y022308*
X033442Y022482*
Y022525*
X033558Y022698*
X033599Y022903*
X033558Y023108*
X033542Y023132*
X033602Y023244*
X034005*
Y022878*
X034024Y022779*
X034080Y022695*
X034164Y022639*
X034219Y022628*
X034256Y022507*
X034255Y022496*
X034207Y022459*
X034071Y022282*
X033985Y022075*
X033956Y021853*
X033985Y021631*
X034071Y021424*
X034207Y021247*
X034385Y021111*
X034592Y021025*
X034813Y020996*
X034998Y021020*
X038855Y017163*
Y015853*
X038890Y015677*
X038989Y015529*
X041739Y012779*
X041888Y012679*
X042063Y012644*
X044691*
X044786Y012517*
X044784Y012503*
Y011003*
X044803Y010906*
X044836Y010857*
X044799Y010802*
X044780Y010703*
Y010080*
X045813*
Y009953*
X045940*
Y008944*
X046588*
X046688Y008964*
X046772Y009020*
X046828Y009104*
X046847Y009203*
Y009494*
X047138*
X047314Y009529*
X047436Y009611*
Y010378*
X047690*
Y009619*
X048113*
X048213Y009639*
X048228Y009649*
X048355Y009581*
Y007603*
X048390Y007428*
X048489Y007279*
X048739Y007029*
X048799Y006989*
X048760Y006862*
X031465*
X031416Y006979*
X031867Y007430*
X031978Y007596*
X032017Y007793*
Y008899*
X032563*
X032589Y008904*
X033198*
X033296Y008924*
X033319Y008939*
X034284*
Y008453*
X034303Y008356*
X034358Y008273*
X034441Y008218*
X034538Y008198*
X036088*
X036186Y008218*
X036269Y008273*
X036324Y008356*
X036343Y008453*
Y009953*
X036324Y010051*
X036291Y010099*
X036328Y010154*
X036347Y010253*
Y010876*
X035314*
Y011003*
X035187*
Y012012*
X034538*
X034439Y011992*
X034355Y011936*
X034299Y011852*
X034280Y011753*
Y011671*
X034139Y011578*
X033572Y011011*
X033470Y011057*
X033453Y011071*
Y011572*
X033434Y011670*
X033379Y011753*
X033296Y011808*
X033198Y011827*
X032589*
X032563Y011832*
X031529*
X031332Y011793*
X031165Y011682*
X031040Y011557*
X030988Y011563*
X030907Y011603*
X030894Y011670*
X030839Y011753*
X030756Y011808*
X030658Y011827*
X029388*
X029291Y011808*
X029208Y011753*
X029153Y011670*
X029134Y011572*
Y011064*
X029153Y010967*
X029208Y010884*
X029291Y010829*
X029388Y010809*
X030658*
X030673Y010812*
X030800Y010717*
Y010015*
X030673Y009919*
X030658Y009922*
X030049*
X030023Y009927*
X028024*
X027977Y009965*
Y010573*
X028213*
X028311Y010593*
X028394Y010648*
X028449Y010731*
X028468Y010828*
Y012378*
X028452Y012462*
X028457Y012488*
X028526Y012589*
X029901*
X030098Y012628*
X030264Y012740*
X030364Y012839*
X037351*
X037971Y012219*
X037956Y012103*
X037985Y011881*
X038071Y011674*
X038207Y011497*
X038385Y011361*
X038592Y011275*
X038813Y011246*
X039035Y011275*
X039242Y011361*
X039420Y011497*
X039556Y011674*
X039642Y011881*
X039671Y012103*
X039642Y012325*
X039556Y012532*
X039420Y012709*
X039242Y012846*
X039035Y012931*
X038813Y012960*
X038698Y012945*
X037927Y013716*
X037760Y013828*
X037563Y013867*
X030151*
X029954Y013828*
X029788Y013716*
X029688Y013617*
X028018*
Y014653*
X027999Y014751*
X027944Y014833*
X027861Y014889*
X027763Y014908*
X027566*
X027538Y015050*
X027427Y015216*
X027416Y015228*
X027478Y015345*
X027613Y015318*
X027818Y015359*
X027992Y015475*
X028035*
X028209Y015359*
X028413Y015318*
X028618Y015359*
X028792Y015475*
X028835*
X029009Y015359*
X029213Y015318*
X029418Y015359*
X029592Y015475*
X029635*
X029809Y015359*
X030013Y015318*
X030218Y015359*
X030392Y015475*
X030435*
X030609Y015359*
X030813Y015318*
X031018Y015359*
X031192Y015475*
X031261Y015577*
X031418Y015600*
X031643Y015375*
X031571Y015282*
X031485Y015075*
X031456Y014853*
X031485Y014631*
X031571Y014424*
X031707Y014247*
X031885Y014111*
X032092Y014025*
X032313Y013996*
X032535Y014025*
X032742Y014111*
X032920Y014247*
X033056Y014424*
X033142Y014631*
X033171Y014853*
X033142Y015075*
X033056Y015282*
X032920Y015459*
X032742Y015596*
X032674Y015624*
X032638Y015678*
X031538Y016778*
X031389Y016877*
X031349Y016885*
Y017053*
X031308Y017258*
X031192Y017432*
X031018Y017548*
X030813Y017588*
X030609Y017548*
X030584Y017531*
X030472Y017591*
Y018852*
X030492Y018861*
X030670Y018997*
X030806Y019174*
X030892Y019381*
X030921Y019603*
X030892Y019825*
X030806Y020032*
X030670Y020209*
X030492Y020346*
X030285Y020431*
X030063Y020460*
X029842Y020431*
X029736Y020387*
X029670Y020497*
X029806Y020674*
X029892Y020881*
X029921Y021103*
X029892Y021325*
X029806Y021532*
X029670Y021709*
X029492Y021846*
X029285Y021931*
X029064Y021960*
X028842Y021931*
X028635Y021846*
X028457Y021709*
X028321Y021532*
X028235Y021325*
X028206Y021103*
X028235Y020881*
X028321Y020674*
X028355Y020631*
Y020388*
X028330Y020368*
X028160Y020394*
X028138Y020428*
X027772Y020793*
Y021634*
X027920Y021747*
X028056Y021924*
X028142Y022131*
X028171Y022353*
X028142Y022575*
X028056Y022782*
X027920Y022959*
X027742Y023096*
X027535Y023181*
X027313Y023210*
X027092Y023181*
X026885Y023096*
X026707Y022959*
X026571Y022782*
X026485Y022575*
X026456Y022353*
X026485Y022131*
X026571Y021924*
X026707Y021747*
X026855Y021634*
Y020603*
X026868Y020534*
X026830Y020486*
X026759Y020435*
X026563Y020460*
X026342Y020431*
X026135Y020346*
X025957Y020209*
X025821Y020032*
X025735Y019825*
X025708Y019615*
X025648Y019574*
X025595Y019548*
X025315Y019828*
X025677Y020190*
X025788Y020356*
X025827Y020553*
Y025089*
X029501*
X029971Y024619*
G37*
G36*
X060989Y036529D02*
X061138Y036429D01*
X061313Y036394*
X061610*
X061699Y036335*
X061913Y036292*
X062188*
X062237Y036175*
X062039Y035978*
X061951Y035846*
X061897Y035813*
X061822Y035784*
X061742Y035846*
X061535Y035931*
X061313Y035960*
X061092Y035931*
X060885Y035846*
X060707Y035709*
X060697Y035696*
X060672Y035672*
X060641Y035646*
X060610Y035624*
X060580Y035606*
X060550Y035591*
X060519Y035579*
X060488Y035570*
X060456Y035564*
X060442Y035562*
X060287*
X060227Y035674*
X060235Y035687*
X060253Y035776*
X059488*
Y036030*
X060253*
X060235Y036119*
X060113Y036303*
X059930Y036425*
X059713Y036468*
X059527*
X059514Y036477*
X059339Y036512*
X059026*
X058973Y036639*
X059582Y037248*
X060013*
X060111Y037268*
X060194Y037323*
X060195Y037323*
X060989Y036529*
G37*
G36*
X016105Y037163D02*
Y035877D01*
X015987Y035828*
X013728Y038088*
X013579Y038187*
X013403Y038222*
X012813*
X012770Y038349*
X012820Y038387*
X012980Y038597*
X013082Y038841*
X013099Y038976*
X012103*
Y039230*
X013099*
X013082Y039365*
X012980Y039609*
X012859Y039767*
X012922Y039894*
X013373*
X016105Y037163*
G37*
G36*
X080559Y038063D02*
Y036710D01*
X080565Y036678*
X080566Y036670*
X080385Y036596*
X080207Y036459*
X080071Y036282*
X079996Y036101*
X079989Y036101*
X079956Y036108*
X072433*
X072420Y036106*
X072408Y036107*
X072372Y036096*
X072335Y036089*
X072325Y036082*
X072312Y036078*
X072283Y036054*
X072252Y036033*
X072245Y036023*
X072236Y036015*
X072218Y035982*
X072197Y035951*
X072195Y035938*
X072189Y035927*
X072153Y035809*
X072104Y035819*
X070904*
X070690Y035776*
X070601Y035717*
X070599*
X069388Y036928*
X069239Y037027*
X069063Y037062*
X068988Y037170*
X068994Y037260*
X069002Y037273*
X069014Y037283*
X069030Y037314*
X069049Y037343*
X069052Y037358*
X069059Y037372*
X069062Y037406*
X069068Y037440*
Y038063*
X069195Y038131*
X069216Y038118*
X069313Y038098*
X080313*
X080411Y038118*
X080432Y038131*
X080559Y038063*
G37*
G36*
X048476Y043717D02*
X048092Y043333D01*
X047514*
X047416Y043314*
X047333Y043258*
X047278Y043176*
X047259Y043078*
Y043017*
X046843*
Y043253*
X046824Y043351*
X046769Y043433*
X046686Y043489*
X046588Y043508*
X045039*
X044941Y043489*
X044858Y043433*
X044803Y043351*
X044784Y043253*
Y041753*
X044803Y041656*
X044836Y041607*
X044799Y041552*
X044780Y041453*
Y040830*
X045813*
X046847*
Y041453*
X046828Y041552*
X046791Y041607*
X046824Y041656*
X046843Y041753*
Y041989*
X047276*
X047278Y041981*
X047302Y041945*
X047330Y041811*
X047274Y041727*
X047255Y041628*
Y041255*
X048063*
X048872*
Y041628*
X048853Y041727*
X048797Y041811*
X048825Y041945*
X048849Y041981*
X048868Y042078*
Y042656*
X049155Y042943*
X050808*
X051068Y042684*
Y042413*
X051087Y042316*
X051142Y042233*
X051225Y042178*
X051322Y042158*
X052772*
X052870Y042178*
X052953Y042233*
X053008Y042316*
X053027Y042413*
Y042668*
X053364Y043004*
X056464*
X056544Y042877*
X056512Y042713*
X056554Y042498*
X056676Y042317*
X056858Y042195*
X057072Y042152*
X057922*
X058137Y042195*
X058226Y042254*
X058263*
X058462Y042055*
X058485Y041881*
X058545Y041737*
X058433Y041677*
X058389Y041742*
X058322Y041842*
X058139Y041965*
X057922Y042008*
X057624*
Y041570*
X058462*
X058449Y041638*
X058568Y041675*
X058571Y041674*
X058607Y041628*
X058707Y041497*
X058885Y041361*
X059092Y041275*
X059313Y041246*
X059535Y041275*
X059742Y041361*
X059920Y041497*
X060056Y041674*
X060142Y041881*
X060171Y042103*
X060142Y042325*
X060056Y042532*
X060055Y042533*
X060150Y042617*
X060605Y042163*
Y038853*
X060640Y038678*
X060739Y038529*
X061739Y037529*
X061762Y037513*
X061735Y037378*
X061699Y037371*
X061610Y037312*
X061504*
X060688Y038128*
X060539Y038227*
X060363Y038262*
X060208*
X060194Y038283*
X060111Y038339*
X060013Y038358*
X059211*
X059130Y038456*
X059131Y038462*
Y039494*
X059096Y039670*
X058997Y039819*
X058444Y040372*
X058441Y040388*
X058319Y040570*
X058137Y040691*
X057922Y040734*
X057072*
X056858Y040691*
X056676Y040570*
X056554Y040388*
X056512Y040173*
X056554Y039958*
X056676Y039777*
X056858Y039655*
X057072Y039612*
X057802*
X057816Y039591*
X057747Y039464*
X057072*
X056858Y039421*
X056769Y039362*
X056613*
X056438Y039327*
X056342Y039263*
X056254Y039357*
X056306Y039424*
X056392Y039631*
X056421Y039853*
X056392Y040075*
X056306Y040282*
X056170Y040459*
X055992Y040596*
X055785Y040681*
X055563Y040710*
X055342Y040681*
X055135Y040596*
X055028Y040513*
X054892Y040570*
X054892Y040575*
X054806Y040782*
X054670Y040959*
X054492Y041096*
X054285Y041181*
X054063Y041210*
X053842Y041181*
X053635Y041096*
X053457Y040959*
X053321Y040782*
X053310Y040754*
X053307Y040752*
X053287Y040715*
X053272Y040694*
X053257Y040678*
X053243Y040666*
X053228Y040656*
X053211Y040647*
X053191Y040640*
X053167Y040634*
X053154Y040632*
X052776*
X052687Y040691*
X052472Y040734*
X051887*
X051819Y040861*
X051834Y040882*
X052472*
X052687Y040925*
X052869Y041047*
X052991Y041228*
X053033Y041443*
X052991Y041658*
X052869Y041840*
X052687Y041961*
X052472Y042004*
X051622*
X051408Y041961*
X051226Y041840*
X051104Y041658*
X051080Y041533*
X050977Y041431*
X050943Y041430*
X050826Y041459*
X050794Y041508*
X050711Y041564*
X050613Y041583*
X049513*
X049416Y041564*
X049333Y041508*
X049278Y041426*
X049259Y041328*
Y040328*
X049278Y040231*
X049333Y040148*
Y040058*
X049278Y039976*
X049259Y039878*
Y038906*
X049192Y038863*
X049135Y038850*
X048657Y039328*
X048508Y039427*
X048333Y039462*
X042963*
X042788Y039427*
X042639Y039328*
X038623Y035312*
X036213*
X036181Y035365*
X036159Y035439*
X036203Y035504*
X036222Y035603*
Y036726*
X034963*
X033705*
Y035603*
X033724Y035504*
X033780Y035420*
X033864Y035364*
X033963Y035344*
X034510*
X034548Y035217*
X034489Y035178*
X033031Y033720*
X032911Y033779*
X032921Y033853*
X032892Y034075*
X032806Y034282*
X032670Y034459*
X032492Y034596*
X032285Y034681*
X032063Y034710*
X031842Y034681*
X031635Y034596*
X031457Y034459*
X031344Y034312*
X031313*
X031138Y034277*
X031065Y034381*
X031681Y034997*
X031778Y035143*
X031800Y035251*
X031813Y035315*
X031931Y035348*
X032413*
X032511Y035368*
X032594Y035423*
X032649Y035506*
X032668Y035603*
Y036808*
X032677Y036853*
Y038266*
X032638Y038462*
X032527Y038629*
X032531Y038654*
X032668Y038753*
X032714Y038744*
X032739*
X032763Y038739*
X032788Y038744*
X032813*
X032989Y038779*
X033081Y038817*
X033230Y038917*
X033300Y038987*
X033399Y039136*
X033437Y039228*
X033472Y039403*
Y039503*
X033437Y039678*
X033399Y039770*
X033300Y039919*
X033230Y039989*
X033081Y040089*
X032989Y040127*
X032813Y040162*
X032788*
X032763Y040167*
X032739Y040162*
X032714*
X032538Y040127*
X032446Y040089*
X032297Y039989*
X032227Y039919*
X032128Y039770*
X032090Y039678*
X032055Y039503*
Y039403*
X032085Y039251*
X032036Y039208*
X031972Y039184*
X031940Y039216*
X031773Y039328*
X031576Y039367*
X031164*
X031085Y039494*
X031142Y039631*
X031171Y039853*
X031142Y040075*
X031056Y040282*
X030920Y040459*
X030742Y040596*
X030535Y040681*
X030313Y040710*
X030092Y040681*
X029885Y040596*
X029707Y040459*
X029571Y040282*
X029485Y040075*
X029456Y039853*
X029485Y039631*
X029571Y039424*
X029707Y039247*
X029800Y039176*
Y039103*
X029839Y038906*
X029950Y038740*
X030163Y038527*
X030163Y038399*
X030151Y038370*
X030117Y038345*
X030111Y038343*
X030013Y038362*
X029890*
Y036853*
X029636*
Y038362*
X029513*
X029414Y038342*
X029364Y038308*
X029313Y038342*
X029213Y038362*
X029091*
Y036853*
X028837*
Y038362*
X028713*
X028614Y038342*
X028530Y038286*
X028474Y038202*
X028455Y038103*
Y037312*
X027422*
Y038103*
X027403Y038202*
X027347Y038286*
X027263Y038342*
X027163Y038362*
X026290*
Y036853*
Y035344*
X027163*
X027263Y035364*
X027347Y035420*
X027403Y035504*
X027422Y035603*
Y036394*
X028455*
Y035603*
X028474Y035504*
X028530Y035420*
X028593Y035378*
X028603Y035286*
X028597Y035238*
X028496Y035171*
X027523Y034197*
X027425Y034052*
X027391Y033880*
Y033782*
X027389Y033767*
X027382Y033736*
X027373Y033706*
X027360Y033675*
X027345Y033644*
X027325Y033613*
X027302Y033580*
X027274Y033547*
X027247Y033519*
X027234Y033509*
X027098Y033332*
X027012Y033125*
X026983Y032903*
X027012Y032681*
X027098Y032474*
X027234Y032297*
X027411Y032160*
X027618Y032075*
X027840Y032046*
X028062Y032075*
X028269Y032160*
X028446Y032297*
X028583Y032474*
X028668Y032681*
X028690Y032849*
X028808Y032909*
X028821Y032909*
X028885Y032860*
X029091Y032775*
X029313Y032746*
X029387Y032755*
X029447Y032635*
X027165Y030353*
X027047Y030402*
Y030476*
X026289*
Y030603*
X026162*
Y031412*
X025789*
X025689Y031392*
X025605Y031336*
X025472Y031365*
X025436Y031389*
X025338Y031408*
X025186*
X025146Y031508*
X025144Y031535*
X025707Y032098*
X026363*
X026461Y032118*
X026544Y032173*
X026599Y032256*
X026618Y032353*
Y033353*
X026599Y033451*
X026575Y033486*
X026547Y033620*
X026603Y033704*
X026622Y033803*
Y034176*
X025005*
Y033803*
X025024Y033704*
X025080Y033620*
X025052Y033486*
X025028Y033451*
X025009Y033353*
Y032697*
X024623Y032312*
X023575*
X023543Y032365*
X023521Y032439*
X023565Y032504*
X023584Y032603*
Y033976*
X022563*
X021543*
Y032603*
X021562Y032504*
X021606Y032439*
X021584Y032365*
X021552Y032312*
X020685*
X020671Y032314*
X020639Y032320*
X020608Y032329*
X020577Y032341*
X020547Y032356*
X020517Y032374*
X020486Y032396*
X020455Y032422*
X020430Y032446*
X020420Y032459*
X020242Y032596*
X020035Y032681*
X019813Y032710*
X019592Y032681*
X019385Y032596*
X019207Y032459*
X019171Y032457*
X019168Y032458*
X019073Y032564*
X019080Y032603*
Y035603*
X019061Y035701*
X019006Y035783*
X018923Y035839*
X018825Y035858*
X018522*
Y040348*
X018825*
X018923Y040368*
X019006Y040423*
X019061Y040506*
X019080Y040603*
Y043603*
X019061Y043701*
X019050Y043717*
X019118Y043844*
X021505*
X021572Y043717*
X021562Y043702*
X021543Y043603*
Y042230*
X022563*
X023584*
Y043603*
X023565Y043702*
X023555Y043717*
X023622Y043844*
X024867*
X024934Y043717*
X024924Y043702*
X024905Y043603*
Y042480*
X026163*
Y042353*
Y042480*
X027422*
Y043603*
X027403Y043702*
X027393Y043717*
X027460Y043844*
X033667*
X033734Y043717*
X033724Y043702*
X033705Y043603*
Y042480*
X034963*
Y042353*
Y042480*
X036222*
Y043603*
X036203Y043702*
X036193Y043717*
X036260Y043844*
X036736*
X036777Y043724*
X036757Y043709*
X036621Y043532*
X036535Y043325*
X036506Y043103*
X036535Y042881*
X036621Y042674*
X036757Y042497*
X036770Y042487*
X036795Y042461*
X036820Y042430*
X036842Y042400*
X036860Y042369*
X036875Y042339*
X036887Y042309*
X036896Y042278*
X036903Y042246*
X036905Y042232*
Y041303*
X036940Y041128*
X037039Y040979*
X038112Y039905*
X038120Y039896*
X038130Y039879*
X038133Y039872*
X038118Y039850*
X038113Y039836*
X038071Y039782*
X037985Y039575*
X037956Y039353*
X037985Y039131*
X038071Y038924*
X038207Y038747*
X038385Y038611*
X038592Y038525*
X038813Y038496*
X039035Y038525*
X039242Y038611*
X039420Y038747*
X039556Y038924*
X039642Y039131*
X039671Y039353*
X039642Y039575*
X039556Y039782*
X039420Y039959*
X039289Y040059*
X038856Y040459*
X037822Y041493*
Y042232*
X037824Y042246*
X037831Y042278*
X037840Y042309*
X037852Y042339*
X037867Y042369*
X037885Y042400*
X037907Y042430*
X037932Y042461*
X037957Y042487*
X037970Y042497*
X038084Y042645*
X038192Y042608*
X038207Y042598*
X038235Y042381*
X038321Y042174*
X038457Y041997*
X038635Y041861*
X038842Y041775*
X039063Y041746*
X039285Y041775*
X039492Y041861*
X039670Y041997*
X039806Y042174*
X039877Y042346*
X039881Y042353*
X039885Y042364*
X039892Y042381*
X039893Y042389*
X039898Y042406*
X039916Y042453*
X039937Y042499*
X039960Y042542*
X040020Y042638*
X040049Y042679*
X040109Y042750*
X040504Y043144*
X042373*
X042862Y042655*
X042870Y042646*
X042880Y042629*
X042883Y042622*
X042868Y042600*
X042863Y042586*
X042821Y042532*
X042735Y042325*
X042706Y042103*
X042735Y041881*
X042821Y041674*
X042957Y041497*
X043135Y041361*
X043342Y041275*
X043563Y041246*
X043785Y041275*
X043992Y041361*
X044170Y041497*
X044306Y041674*
X044392Y041881*
X044421Y042103*
X044392Y042325*
X044306Y042532*
X044170Y042709*
X044039Y042809*
X043606Y043209*
X043088Y043727*
X043137Y043844*
X048424*
X048476Y043717*
G37*
G36*
X017077D02*
X017066Y043701D01*
X017047Y043603*
Y040603*
X017066Y040506*
X017121Y040423*
X017204Y040368*
X017301Y040348*
X017605*
Y035858*
X017301*
X017204Y035839*
X017149Y035802*
X017051Y035836*
X017022Y035858*
Y037353*
X016987Y037529*
X016888Y037678*
X013888Y040678*
X013739Y040777*
X013563Y040812*
X010813*
X010638Y040777*
X010489Y040678*
X010055Y040243*
X009985Y040178*
X009927Y040132*
X009893Y040108*
X008813*
X008716Y040089*
X008633Y040033*
X008578Y039951*
X008559Y039853*
Y038353*
X008578Y038256*
X008633Y038173*
X008716Y038118*
X008813Y038098*
X010270*
X010326Y037983*
X010327Y037976*
X010034Y037682*
X010011Y037666*
X009976Y037645*
X009935Y037625*
X009890Y037609*
X009838Y037594*
X009781Y037583*
X009718Y037574*
X009649Y037569*
X009590Y037568*
X009563Y037572*
X009302Y037537*
X009059Y037437*
X008850Y037276*
X008690Y037067*
X008589Y036824*
X008555Y036563*
X008589Y036302*
X008690Y036059*
X008850Y035850*
X009059Y035690*
X009302Y035589*
X009563Y035554*
X009825Y035589*
X010068Y035690*
X010277Y035850*
X010437Y036059*
X010538Y036302*
X010572Y036563*
X010569Y036589*
X010570Y036648*
X010575Y036718*
X010583Y036781*
X010595Y036838*
X010609Y036889*
X010626Y036935*
X010645Y036975*
X010666Y037011*
X010683Y037034*
X010954Y037304*
X011252*
X011314Y037177*
X011230Y037067*
X011129Y036824*
X011095Y036563*
X011129Y036302*
X011230Y036059*
X011322Y035939*
X011259Y035812*
X010893*
X010718Y035777*
X010569Y035678*
X010034Y035142*
X010011Y035126*
X009976Y035105*
X009935Y035085*
X009890Y035069*
X009838Y035054*
X009781Y035043*
X009718Y035034*
X009649Y035029*
X009590Y035028*
X009563Y035032*
X009302Y034997*
X009059Y034897*
X008850Y034736*
X008690Y034527*
X008589Y034284*
X008555Y034023*
X008589Y033762*
X008690Y033519*
X008850Y033310*
X009059Y033150*
X009302Y033049*
X009563Y033014*
X009825Y033049*
X010068Y033150*
X010277Y033310*
X010437Y033519*
X010538Y033762*
X010572Y034023*
X010569Y034049*
X010570Y034108*
X010575Y034178*
X010583Y034241*
X010595Y034298*
X010609Y034349*
X010626Y034395*
X010645Y034435*
X010666Y034471*
X010683Y034494*
X011084Y034894*
X011399*
X011439Y034774*
X011390Y034736*
X011230Y034527*
X011129Y034284*
X011095Y034023*
X011129Y033762*
X011230Y033519*
X011390Y033310*
X011599Y033150*
X011842Y033049*
X012103Y033014*
X012130Y033018*
X012189Y033017*
X012258Y033012*
X012321Y033004*
X012378Y032992*
X012430Y032978*
X012475Y032961*
X012516Y032942*
X012551Y032920*
X012574Y032904*
X012955Y032523*
Y031503*
X012990Y031328*
X013089Y031179*
X016989Y027279*
X017138Y027179*
X017313Y027144*
X018333*
X019699Y025779*
X019848Y025679*
X020009Y025647*
X020064Y025571*
X020085Y025532*
X020069Y025508*
X020028Y025303*
X020069Y025098*
X020185Y024925*
Y024882*
X020069Y024708*
X020028Y024503*
X020069Y024298*
X020134Y024200*
X020176Y024103*
X020134Y024006*
X020069Y023908*
X020028Y023703*
X020069Y023498*
X020185Y023325*
Y023282*
X020069Y023108*
X020039Y022956*
X019908Y022908*
X018138Y024678*
X017989Y024777*
X017813Y024812*
X008063*
X007888Y024777*
X007739Y024678*
X006989Y023928*
X006949Y023868*
X006822Y023906*
Y043844*
X017009*
X017077Y043717*
G37*
G36*
X068544D02*
X068496Y043601D01*
X068489Y043601*
X068456Y043608*
X061813*
X061716Y043589*
X061633Y043533*
X061578Y043451*
X061559Y043353*
Y042651*
X061432Y042612*
X061388Y042678*
X060348Y043717*
X060401Y043844*
X068468*
X068544Y043717*
G37*
G36*
X080044D02*
X079996Y043601D01*
X079989Y043601*
X079956Y043608*
X072433*
X072420Y043606*
X072408Y043607*
X072372Y043596*
X072335Y043589*
X072325Y043582*
X072312Y043578*
X072283Y043554*
X072252Y043533*
X072245Y043523*
X072236Y043515*
X072218Y043482*
X072197Y043451*
X072195Y043438*
X072189Y043427*
X072153Y043309*
X072104Y043319*
X070904*
X070690Y043276*
X070601Y043217*
X070599*
X070138Y043678*
X070084Y043713*
X070083Y043717*
X070159Y043844*
X079968*
X080044Y043717*
G37*
G36*
X079985Y043131D02*
X080071Y042924D01*
X080207Y042747*
X080313Y042665*
Y038353*
X069313*
Y042496*
X069535Y042525*
X069742Y042611*
X069835Y042682*
X070084Y042434*
X070233Y042334*
X070408Y042299*
X070601*
X070690Y042240*
X070904Y042197*
X072104*
X072319Y042240*
X072501Y042362*
X072623Y042543*
X072665Y042758*
X072623Y042973*
X072501Y043155*
X072394Y043226*
X072433Y043353*
X079956*
X079985Y043131*
G37*
G36*
Y035631D02*
X080071Y035424D01*
X080207Y035247*
X080313Y035165*
Y030853*
X069313*
Y035538*
X069431Y035587*
X070084Y034934*
X070233Y034834*
X070408Y034799*
X070601*
X070690Y034740*
X070904Y034697*
X072104*
X072319Y034740*
X072501Y034862*
X072623Y035043*
X072665Y035258*
X072623Y035473*
X072501Y035655*
X072394Y035726*
X072433Y035853*
X079956*
X079985Y035631*
G37*
G36*
X093813Y030638D02*
X092036D01*
Y027599*
X093813*
Y023896*
X092036*
Y020349*
X093813*
Y020103*
X086462*
X086388Y020178*
X086239Y020277*
X086063Y020312*
X085888Y020277*
X085739Y020178*
X085640Y020029*
X085605Y019853*
X085640Y019678*
X085739Y019529*
X085763Y019505*
X085710Y019378*
X084839*
X084818Y019382*
X084813Y019403*
Y020103*
X084794Y020201*
X084739Y020283*
X084656Y020339*
X084559Y020358*
X083933*
X083920Y020356*
X083908Y020357*
X083872Y020346*
X083835Y020339*
X083825Y020332*
X083812Y020328*
X083783Y020304*
X083752Y020283*
X083745Y020273*
X083736Y020265*
X083718Y020232*
X083697Y020201*
X083695Y020188*
X083689Y020177*
X083666Y020103*
X081962*
X081638Y020428*
X081584Y020463*
X081556Y020532*
X081420Y020709*
X081242Y020846*
X081035Y020931*
X080813Y020960*
Y029103*
X081563*
Y029394*
X083563*
X083739Y029429*
X083888Y029529*
X084963Y030604*
X085239Y030329*
X085388Y030229*
X085563Y030194*
X085739Y030229*
X085888Y030329*
X085987Y030477*
X086022Y030653*
X086008Y030726*
X086112Y030853*
X093813*
Y030638*
G37*
G36*
X063813Y027550D02*
X066277D01*
X066337Y027438*
X066292Y027369*
X066249Y027153*
Y027055*
X066813*
Y026801*
X066249*
Y026703*
X066292Y026487*
X066337Y026419*
X066277Y026307*
X060610*
X060563Y026353*
Y027794*
X060661*
Y028603*
Y029412*
X060288*
X060189Y029392*
X060105Y029336*
X059972Y029365*
X059936Y029389*
X059838Y029408*
X058838*
X058741Y029389*
X058658Y029333*
X058603Y029251*
X058584Y029153*
Y029103*
X057974*
X057785Y029181*
X057563Y029210*
X057342Y029181*
X057153Y029103*
X054564*
X053813Y028353*
Y025599*
X050813*
Y030103*
X063813*
Y027550*
G37*
G36*
X067256Y024741D02*
X067242Y024719D01*
X067199Y024503*
Y024405*
X067763*
Y024278*
X067890*
Y023513*
X067980Y023531*
X068163Y023654*
X068285Y023837*
X068328Y024053*
Y024353*
X068855*
Y023730*
X070063*
Y023476*
X068855*
Y022853*
X068313*
X067563Y022103*
X061313*
Y023103*
Y024853*
X065263*
X065305Y024803*
Y024405*
X065863*
X066422*
Y024803*
X066464Y024853*
X067196*
X067256Y024741*
G37*
G36*
X086314Y031583D02*
X086313D01*
X084813*
X084716Y031564*
X084671Y031534*
X084638Y031527*
X084489Y031428*
X083915Y030853*
X080813*
Y034996*
X081035Y035025*
X081242Y035111*
X081335Y035182*
X081584Y034934*
X081733Y034834*
X081908Y034799*
X082101*
X082190Y034740*
X082404Y034697*
X083604*
X083819Y034740*
X084001Y034862*
X084123Y035043*
X084165Y035258*
X084123Y035473*
X084001Y035655*
X083819Y035776*
X083604Y035819*
X082404*
X082190Y035776*
X082101Y035717*
X082099*
X081638Y036178*
X081584Y036213*
X081556Y036282*
X081420Y036459*
X081242Y036596*
X081035Y036681*
X080813Y036710*
Y042496*
X081035Y042525*
X081242Y042611*
X081335Y042682*
X081584Y042434*
X081733Y042334*
X081908Y042299*
X082101*
X082190Y042240*
X082404Y042197*
X083604*
X083819Y042240*
X084001Y042362*
X084123Y042543*
X084165Y042758*
X084123Y042973*
X084001Y043155*
X083894Y043226*
X083933Y043353*
X086314*
Y031583*
G37*
G36*
X084559Y019378D02*
X084578Y019281D01*
X084633Y019198*
X084716Y019143*
X084813Y019123*
X086313*
X086314*
Y012796*
X086204Y012712*
X086068Y012534*
X085981Y012326*
X085969Y012230*
X086813*
Y011976*
X085969*
X085981Y011880*
X086068Y011672*
X086204Y011494*
X086314Y011410*
Y007603*
X080813*
Y011746*
X081035Y011775*
X081242Y011861*
X081335Y011932*
X081584Y011684*
X081733Y011584*
X081908Y011549*
X082101*
X082190Y011490*
X082404Y011447*
X083604*
X083819Y011490*
X084001Y011612*
X084123Y011793*
X084165Y012008*
X084123Y012223*
X084001Y012405*
X083819Y012526*
X083604Y012569*
X082404*
X082190Y012526*
X082101Y012467*
X082099*
X081638Y012928*
X081584Y012963*
X081556Y013032*
X081420Y013209*
X081242Y013346*
X081035Y013431*
X080813Y013460*
Y019246*
X081035Y019275*
X081242Y019361*
X081335Y019432*
X081584Y019184*
X081733Y019084*
X081908Y019049*
X082101*
X082190Y018990*
X082404Y018947*
X083604*
X083819Y018990*
X084001Y019112*
X084123Y019293*
X084165Y019508*
X084123Y019723*
X084001Y019905*
X083894Y019976*
X083933Y020103*
X084559*
Y019378*
G37*
G36*
X069078Y030756D02*
X069133Y030673D01*
X069216Y030618*
X069313Y030598*
X080064*
Y030264*
X079985Y030075*
X079956Y029853*
X079985Y029631*
X080064Y029443*
Y029103*
X080403*
X080559Y029039*
Y025948*
X080432Y025929*
X080402Y026028*
X080239Y026332*
X080179Y026405*
X079127Y025353*
X080179Y024301*
X080239Y024374*
X080402Y024679*
X080432Y024777*
X080559Y024758*
Y020960*
X080565Y020928*
X080566Y020920*
X080385Y020846*
X080207Y020709*
X080071Y020532*
X079996Y020351*
X079989Y020351*
X079956Y020358*
X072433*
X072420Y020356*
X072408Y020357*
X072372Y020346*
X072335Y020339*
X072325Y020332*
X072312Y020328*
X072283Y020304*
X072252Y020283*
X072245Y020273*
X072236Y020265*
X072218Y020232*
X072197Y020201*
X072195Y020188*
X072189Y020177*
X072166Y020103*
X070462*
X070138Y020428*
X070084Y020463*
X070056Y020532*
X069920Y020709*
X069742Y020846*
X069535Y020931*
X069313Y020960*
X069092Y020931*
X068885Y020846*
X068707Y020709*
X068571Y020532*
X068485Y020325*
X068456Y020103*
X061813*
Y021848*
X067563*
X067661Y021868*
X067744Y021923*
X068419Y022598*
X068855*
X068895Y022606*
X068935Y022611*
X068943Y022616*
X068952Y022618*
X068984Y022639*
X069016Y022618*
X069113Y022598*
X071013*
X071111Y022618*
X071194Y022673*
X071249Y022756*
X071268Y022853*
Y024353*
X071249Y024451*
X071194Y024533*
X071111Y024589*
X071013Y024608*
X069113*
X069016Y024589*
X068984Y024567*
X068952Y024589*
X068855Y024608*
X068361*
X068289Y024680*
X068282Y024718*
X068160Y024900*
X067978Y025021*
X067763Y025064*
X067549Y025021*
X067462Y024963*
X067421Y024973*
X067397Y025002*
X067377Y025033*
X067366Y025040*
X067358Y025050*
X067325Y025068*
X067294Y025089*
X067281Y025091*
X067270Y025097*
X067233Y025101*
X067196Y025108*
X066464*
X066451Y025106*
X066439Y025107*
X066403Y025096*
X066366Y025089*
X066355Y025082*
X066343Y025078*
X066314Y025054*
X066283Y025033*
X066279Y025027*
X066261Y025039*
X066163Y025058*
X065563*
X065466Y025039*
X065448Y025027*
X065444Y025033*
X065413Y025054*
X065384Y025078*
X065372Y025082*
X065361Y025089*
X065324Y025096*
X065288Y025107*
X065276Y025106*
X065263Y025108*
X061813*
Y026052*
X066277*
X066314Y026059*
X066351Y026063*
X066363Y026069*
X066375Y026071*
X066406Y026092*
X066439Y026110*
X066447Y026119*
X066458Y026126*
X066478Y026157*
X066502Y026186*
X066599Y026185*
X066813Y026142*
X067028Y026185*
X067210Y026307*
X067332Y026488*
X067358Y026622*
X067392Y026703*
X067414Y026873*
X067392Y027043*
X067374Y027085*
Y027153*
X067332Y027368*
X067210Y027550*
X067028Y027671*
X066813Y027714*
X066599Y027671*
X066571Y027653*
X066502Y027670*
X066478Y027699*
X066458Y027730*
X066447Y027737*
X066439Y027747*
X066406Y027764*
X066375Y027785*
X066363Y027788*
X066351Y027794*
X066314Y027797*
X066277Y027804*
X064068*
Y030103*
X064049Y030201*
X063994Y030283*
X063911Y030339*
X063813Y030358*
X061813*
Y030853*
X069059*
X069078Y030756*
G37*
G36*
X079985Y019881D02*
X080071Y019674D01*
X080207Y019497*
X080313Y019415*
Y015103*
X069313*
Y019246*
Y019246*
X069535Y019275*
X069742Y019361*
X069835Y019432*
X070084Y019184*
X070233Y019084*
X070408Y019049*
X070601*
X070690Y018990*
X070904Y018947*
X072104*
X072319Y018990*
X072501Y019112*
X072623Y019293*
X072665Y019508*
X072623Y019723*
X072501Y019905*
X072394Y019976*
X072433Y020103*
X079956*
X079985Y019881*
G37*
G36*
Y012381D02*
X080071Y012174D01*
X080207Y011997*
X080313Y011915*
Y007603*
X069313*
Y012288*
X069431Y012337*
X070084Y011684*
X070233Y011584*
X070408Y011549*
X070601*
X070690Y011490*
X070904Y011447*
X072104*
X072319Y011490*
X072501Y011612*
X072623Y011793*
X072665Y012008*
X072623Y012223*
X072501Y012405*
X072394Y012476*
X072433Y012603*
X079956*
X079985Y012381*
G37*
G36*
X068485Y019881D02*
X068571Y019674D01*
X068707Y019497*
X068813Y019415*
Y013731*
X068686Y013687*
X068670Y013709*
X068492Y013846*
X068285Y013931*
X068063Y013960*
X067842Y013931*
X067635Y013846*
X067457Y013709*
X067321Y013532*
X067235Y013325*
X067206Y013103*
X067235Y012881*
X067321Y012674*
X067457Y012497*
X067635Y012361*
X067842Y012275*
X068063Y012246*
X068285Y012275*
X068492Y012361*
X068670Y012497*
X068686Y012519*
X068813Y012476*
Y007603*
X063171*
X063142Y007825*
X063056Y008032*
X062920Y008209*
X062742Y008346*
X062535Y008431*
X062313Y008460*
X062240Y008451*
X062180Y008571*
X062438Y008829*
X062537Y008978*
X062572Y009153*
Y011713*
X063438Y012579*
X063537Y012728*
X063572Y012903*
Y014303*
X063537Y014479*
X063438Y014628*
X061813Y016252*
Y020103*
X068456*
X068485Y019881*
G37*
G36*
Y043131D02*
X068571Y042924D01*
X068707Y042747*
X068813Y042665*
Y037440*
X068686Y037369*
X068535Y037431*
X068313Y037460*
X068092Y037431*
X067885Y037346*
X067707Y037209*
X067571Y037032*
X067485Y036825*
X067456Y036603*
X067485Y036381*
X067571Y036174*
X067707Y035997*
X067885Y035861*
X068092Y035775*
X068313Y035746*
X068535Y035775*
X068686Y035838*
X068813Y035766*
Y030853*
X061813*
Y031454*
X062688Y032329*
X062787Y032478*
X062822Y032653*
Y035463*
X063638Y036279*
X063737Y036428*
X063772Y036603*
Y037353*
X063737Y037529*
X063638Y037678*
X063138Y038178*
X062989Y038277*
X062813Y038312*
X062254*
X061813Y038752*
Y043353*
X068456*
X068485Y043131*
G37*
%LNgbr_top-3*%
%LPD*%
G36*
X094567Y023896D02*
X092036D01*
Y020349*
X094567*
Y023896*
G37*
G36*
X091063Y013072D02*
X090720Y013038D01*
X090391Y012938*
X090087Y012775*
X089820Y012557*
X089601Y012290*
X089439Y011986*
X089339Y011656*
X089305Y011313*
X089339Y010970*
X089439Y010640*
X089601Y010336*
X089820Y010070*
X090087Y009851*
X090391Y009688*
X090720Y009588*
X091063Y009555*
X091407Y009588*
X091736Y009688*
X092040Y009851*
X092307Y010070*
X092526Y010336*
X092688Y010640*
X092788Y010970*
X092822Y011313*
X092788Y011656*
X092688Y011986*
X092526Y012290*
X092307Y012557*
X092040Y012775*
X091736Y012938*
X091407Y013038*
X091063Y013072*
G37*
G36*
Y018152D02*
X090720Y018118D01*
X090391Y018018*
X090087Y017855*
X089820Y017637*
X089601Y017370*
X089439Y017066*
X089339Y016736*
X089305Y016393*
X089339Y016050*
X089439Y015720*
X089601Y015416*
X089820Y015150*
X090087Y014931*
X090391Y014768*
X090720Y014668*
X091063Y014635*
X091407Y014668*
X091736Y014768*
X092040Y014931*
X092307Y015150*
X092526Y015416*
X092688Y015720*
X092788Y016050*
X092822Y016393*
X092788Y016736*
X092688Y017066*
X092526Y017370*
X092307Y017637*
X092040Y017855*
X091736Y018018*
X091407Y018118*
X091063Y018152*
G37*
G36*
Y036322D02*
X090720Y036288D01*
X090391Y036188*
X090087Y036025*
X089820Y035807*
X089601Y035540*
X089439Y035236*
X089339Y034906*
X089305Y034563*
X089339Y034220*
X089439Y033890*
X089601Y033586*
X089820Y033320*
X090087Y033101*
X090391Y032938*
X090720Y032838*
X091063Y032805*
X091407Y032838*
X091736Y032938*
X092040Y033101*
X092307Y033320*
X092526Y033586*
X092688Y033890*
X092788Y034220*
X092822Y034563*
X092788Y034906*
X092688Y035236*
X092526Y035540*
X092307Y035807*
X092040Y036025*
X091736Y036188*
X091407Y036288*
X091063Y036322*
G37*
G36*
Y041402D02*
X090720Y041368D01*
X090391Y041268*
X090087Y041105*
X089820Y040887*
X089601Y040620*
X089439Y040316*
X089339Y039986*
X089305Y039643*
X089339Y039300*
X089439Y038970*
X089601Y038666*
X089820Y038400*
X090087Y038181*
X090391Y038018*
X090720Y037918*
X091063Y037885*
X091407Y037918*
X091736Y038018*
X092040Y038181*
X092307Y038400*
X092526Y038666*
X092688Y038970*
X092788Y039300*
X092822Y039643*
X092788Y039986*
X092688Y040316*
X092526Y040620*
X092307Y040887*
X092040Y041105*
X091736Y041268*
X091407Y041368*
X091063Y041402*
G37*
G36*
X094567Y030638D02*
X092036D01*
Y027599*
X094567*
Y030638*
G37*
G36*
X058503Y010611D02*
X057665D01*
Y010173*
X057963*
X058180Y010216*
X058363Y010339*
X058485Y010522*
X058503Y010611*
G37*
G36*
X057963Y011303D02*
X057665D01*
Y010865*
X058503*
X058485Y010954*
X058363Y011138*
X058180Y011260*
X057963Y011303*
G37*
G36*
X048872Y017751D02*
X048190D01*
Y017119*
X048613*
X048713Y017139*
X048797Y017195*
X048853Y017279*
X048872Y017378*
Y017751*
G37*
G36*
X054313Y019562D02*
X054138Y019527D01*
X053989Y019428*
X053890Y019279*
X053855Y019103*
X053890Y018928*
X053989Y018779*
X054117Y018650*
X054113Y018644*
X054086Y018606*
X054086Y018603*
X054084Y018601*
X054075Y018555*
X054065Y018509*
X054065Y018506*
X054065Y018503*
X054074Y018457*
X054082Y018411*
X054083Y018409*
X054084Y018406*
X054110Y018367*
X054135Y018327*
X054138Y018325*
X054139Y018323*
X054178Y018297*
X054217Y018270*
X054219Y018269*
X054222Y018268*
X054268Y018258*
X054314Y018248*
X054365Y018247*
X054405Y018243*
X054442Y018237*
X054476Y018229*
X054508Y018218*
X054538Y018205*
X054567Y018189*
X054594Y018171*
X054605Y018163*
X054899Y017869*
X055048Y017769*
X055223Y017734*
X056762*
X056856Y017671*
X057072Y017628*
X057370*
Y018193*
Y018758*
X057072*
X056856Y018715*
X056762Y018652*
X055414*
X055254Y018811*
X055245Y018823*
X055227Y018850*
X055212Y018878*
X055199Y018908*
X055188Y018940*
X055179Y018974*
X055173Y019011*
X055169Y019051*
X055168Y019103*
X055158Y019149*
X055149Y019195*
X055147Y019197*
X055147Y019200*
X055120Y019238*
X055094Y019277*
X055091Y019279*
X055089Y019281*
X055050Y019306*
X055011Y019333*
X055008Y019333*
X055006Y019335*
X054959Y019343*
X054913Y019352*
X054911Y019351*
X054908Y019352*
X054862Y019342*
X054816Y019333*
X054813Y019331*
X054810Y019330*
X054772Y019303*
X054766Y019299*
X054638Y019428*
X054489Y019527*
X054313Y019562*
G37*
G36*
X058462Y018066D02*
X057624D01*
Y017628*
X057922*
X058139Y017671*
X058322Y017794*
X058444Y017977*
X058462Y018066*
G37*
G36*
X045686Y017326D02*
X044780D01*
Y016703*
X044799Y016604*
X044855Y016520*
X044939Y016464*
X045039Y016444*
X045686*
Y017326*
G37*
G36*
X046847D02*
X045940D01*
Y016444*
X046588*
X046688Y016464*
X046772Y016520*
X046828Y016604*
X046847Y016703*
Y017326*
G37*
G36*
X047936Y017751D02*
X047255D01*
Y017378*
X047274Y017279*
X047330Y017195*
X047414Y017139*
X047514Y017119*
X047936*
Y017751*
G37*
G36*
X057922Y020024D02*
X057072D01*
X056858Y019981*
X056676Y019860*
X056554Y019678*
X056512Y019463*
X056554Y019248*
X056676Y019067*
X056858Y018945*
X057072Y018902*
X057922*
X058137Y018945*
X058226Y019004*
X058629*
X058713Y018909*
X058706Y018853*
X058735Y018631*
X058821Y018424*
X058957Y018247*
X059135Y018110*
X059341Y018025*
X059563Y017996*
X059785Y018025*
X059992Y018110*
X060169Y018247*
X060306Y018424*
X060391Y018631*
X060421Y018853*
X060391Y019075*
X060306Y019282*
X060169Y019459*
X059992Y019595*
X059785Y019681*
X059563Y019710*
X059379Y019686*
X059278Y019788*
X059129Y019887*
X058953Y019922*
X058226*
X058137Y019981*
X057922Y020024*
G37*
G36*
X044713Y031383D02*
X043913D01*
X043816Y031364*
X043733Y031308*
X043678Y031226*
X043659Y031128*
Y030078*
X043678Y029981*
X043704Y029942*
X043723Y029853*
X043704Y029765*
X043678Y029726*
X043659Y029628*
Y028578*
X043678Y028481*
X043733Y028398*
X043816Y028343*
X043913Y028323*
X044713*
X044811Y028343*
X044894Y028398*
X044949Y028481*
X044968Y028578*
Y029628*
X044949Y029726*
X044923Y029765*
X044904Y029853*
X044923Y029942*
X044949Y029981*
X044968Y030078*
Y031128*
X044949Y031226*
X044894Y031308*
X044811Y031364*
X044713Y031383*
G37*
G36*
X045686Y033076D02*
X044780D01*
Y032453*
X044799Y032354*
X044855Y032270*
X044939Y032214*
X045039Y032194*
X045686*
Y033076*
G37*
G36*
X043913Y033662D02*
X043738Y033627D01*
X043589Y033528*
X043489Y033428*
X043390Y033279*
X043355Y033103*
X043390Y032928*
X043489Y032779*
X043638Y032679*
X043813Y032644*
X043989Y032679*
X044138Y032779*
X044238Y032879*
X044337Y033028*
X044372Y033203*
X044337Y033379*
X044238Y033528*
X044089Y033627*
X043913Y033662*
G37*
G36*
X057922Y018758D02*
X057624D01*
Y018320*
X058462*
X058444Y018409*
X058322Y018593*
X058139Y018715*
X057922Y018758*
G37*
G36*
X050313Y019562D02*
X050138Y019527D01*
X049989Y019427*
X049889Y019278*
X049854Y019103*
X049889Y018927*
X049989Y018778*
X050138Y018679*
X050313Y018644*
X050489Y018679*
X050638Y018778*
X050737Y018927*
X050772Y019103*
X050737Y019278*
X050638Y019427*
X050489Y019527*
X050313Y019562*
G37*
G36*
X045687Y028976D02*
X045155D01*
Y028578*
X045174Y028479*
X045230Y028395*
X045314Y028339*
X045413Y028319*
X045687*
Y028976*
G37*
G36*
X037222Y021976D02*
X036690D01*
Y021319*
X036963*
X037063Y021339*
X037147Y021395*
X037203Y021479*
X037222Y021578*
Y021976*
G37*
G36*
X038463Y025133D02*
X037663D01*
X037566Y025114*
X037483Y025058*
X037428Y024976*
X037409Y024878*
Y023828*
X037428Y023731*
X037483Y023648*
X037566Y023593*
X037605Y023585*
Y022871*
X037566Y022864*
X037483Y022808*
X037428Y022726*
X037409Y022628*
Y021578*
X037428Y021481*
X037483Y021398*
X037566Y021343*
X037663Y021323*
X038463*
X038561Y021343*
X038644Y021398*
X038699Y021481*
X038718Y021578*
Y022628*
X038699Y022726*
X038644Y022808*
X038561Y022864*
X038522Y022871*
Y023585*
X038561Y023593*
X038644Y023648*
X038699Y023731*
X038718Y023828*
Y024878*
X038699Y024976*
X038644Y025058*
X038561Y025114*
X038463Y025133*
G37*
G36*
X036963Y022887D02*
X036690D01*
Y022230*
X037222*
Y022628*
X037203Y022727*
X037147Y022811*
X037063Y022867*
X036963Y022887*
G37*
G36*
X060253Y012526D02*
X059615D01*
Y012088*
X059713*
X059930Y012131*
X060113Y012254*
X060235Y012437*
X060253Y012526*
G37*
G36*
X058503Y033861D02*
X057665D01*
Y033423*
X057963*
X058180Y033466*
X058363Y033589*
X058485Y033772*
X058503Y033861*
G37*
G36*
X057963Y034553D02*
X057665D01*
Y034115*
X058503*
X058485Y034204*
X058363Y034387*
X058180Y034510*
X057963Y034553*
G37*
G36*
X025536Y009887D02*
X024913D01*
X024814Y009867*
X024730Y009811*
X024674Y009727*
X024655Y009628*
Y008980*
X025536*
Y009887*
G37*
G36*
Y008726D02*
X024655D01*
Y008078*
X024674Y007979*
X024730Y007895*
X024814Y007839*
X024913Y007819*
X025536*
Y008726*
G37*
G36*
X012313Y009710D02*
X012092Y009681D01*
X011885Y009596*
X011707Y009459*
X011571Y009282*
X011485Y009075*
X011456Y008853*
X011485Y008631*
X011571Y008424*
X011707Y008247*
X011885Y008111*
X012030Y008051*
X012171Y007927*
X012604Y007494*
X012792Y007369*
X013013Y007324*
X016738*
X016828Y007342*
X016963*
X017178Y007385*
X017360Y007507*
X017482Y007688*
X017524Y007903*
X017482Y008118*
X017360Y008300*
X017178Y008421*
X016963Y008464*
X016828*
X016738Y008482*
X013253*
X013182Y008553*
X013167Y008572*
X013150Y008597*
X013139Y008617*
X013137Y008621*
X013142Y008631*
X013171Y008853*
X013142Y009075*
X013056Y009282*
X012920Y009459*
X012742Y009596*
X012535Y009681*
X012313Y009710*
G37*
G36*
X023488Y011833D02*
X021638D01*
X021541Y011814*
X021458Y011758*
X021403Y011676*
X021384Y011578*
Y011292*
X021313*
X021117Y011253*
X020950Y011141*
X019223Y009414*
X019163*
X018949Y009371*
X018767Y009250*
X018645Y009068*
X018603Y008853*
X018645Y008638*
X018767Y008457*
X018949Y008335*
X019163Y008292*
X019613*
X019828Y008335*
X020010Y008457*
X020132Y008638*
X020174Y008853*
X020164Y008902*
X021285Y010023*
X021431Y009989*
X021458Y009948*
X021541Y009893*
X021638Y009873*
X023488*
X023586Y009893*
X023669Y009948*
X023724Y010031*
X023743Y010128*
Y011578*
X023724Y011676*
X023669Y011758*
X023586Y011814*
X023488Y011833*
G37*
G36*
X021063Y016960D02*
X020842Y016931D01*
X020635Y016846*
X020457Y016709*
X020321Y016532*
X020235Y016325*
X020206Y016103*
X020230Y015919*
X018623Y014312*
X018468*
Y014378*
X018449Y014476*
X018394Y014558*
X018311Y014614*
X018213Y014633*
X017413*
X017316Y014614*
X017233Y014558*
X017178Y014476*
X017159Y014378*
Y013328*
X017178Y013231*
X017233Y013148*
X017316Y013093*
X017413Y013073*
X018213*
X018311Y013093*
X018394Y013148*
X018449Y013231*
X018468Y013328*
Y013394*
X018813*
X018989Y013429*
X019138Y013529*
X020879Y015270*
X021063Y015246*
X021285Y015275*
X021492Y015361*
X021670Y015497*
X021806Y015674*
X021892Y015881*
X021921Y016103*
X021892Y016325*
X021806Y016532*
X021670Y016709*
X021492Y016846*
X021285Y016931*
X021063Y016960*
G37*
G36*
X009563Y015242D02*
X009302Y015207D01*
X009059Y015107*
X008850Y014946*
X008690Y014737*
X008589Y014494*
X008555Y014233*
X008589Y013972*
X008690Y013729*
X008850Y013520*
X009059Y013360*
X009302Y013259*
X009563Y013224*
X009825Y013259*
X010068Y013360*
X010277Y013520*
X010437Y013729*
X010538Y013972*
X010572Y014233*
X010538Y014494*
X010437Y014737*
X010277Y014946*
X010068Y015107*
X009825Y015207*
X009563Y015242*
G37*
G36*
X025536Y011476D02*
X024655D01*
Y010828*
X024674Y010729*
X024730Y010645*
X024814Y010589*
X024913Y010569*
X025536*
Y011476*
G37*
G36*
X055186Y026976D02*
X054530D01*
Y026703*
X054549Y026604*
X054605Y026520*
X054689Y026464*
X054788Y026444*
X055186*
Y026976*
G37*
G36*
X056097D02*
X055440D01*
Y026444*
X055838*
X055938Y026464*
X056022Y026520*
X056078Y026604*
X056097Y026703*
Y026976*
G37*
G36*
X048686Y026226D02*
X047605D01*
Y025603*
X047624Y025504*
X047680Y025420*
X047764Y025364*
X047863Y025344*
X048686*
Y026226*
G37*
G36*
X050022D02*
X048940D01*
Y025344*
X049763*
X049863Y025364*
X049947Y025420*
X050003Y025504*
X050022Y025603*
Y026226*
G37*
G36*
X055186Y027762D02*
X054788D01*
X054689Y027742*
X054605Y027686*
X054549Y027602*
X054530Y027503*
Y027230*
X055186*
Y027762*
G37*
G36*
X055838D02*
X055440D01*
Y027230*
X056097*
Y027503*
X056078Y027602*
X056022Y027686*
X055938Y027742*
X055838Y027762*
G37*
G36*
X048686Y027362D02*
X047863D01*
X047764Y027342*
X047680Y027286*
X047624Y027202*
X047605Y027103*
Y026480*
X048686*
Y027362*
G37*
G36*
X049763D02*
X048940D01*
Y026480*
X050022*
Y027103*
X050003Y027202*
X049947Y027286*
X049863Y027342*
X049763Y027362*
G37*
G36*
X018436Y021587D02*
X018013D01*
X017914Y021567*
X017830Y021511*
X017774Y021427*
X017755Y021328*
Y020955*
X018436*
Y021587*
G37*
G36*
X016437Y022587D02*
X016013D01*
X015914Y022567*
X015830Y022511*
X015774Y022427*
X015755Y022328*
Y021955*
X016437*
Y022587*
G37*
G36*
X017113D02*
X016691D01*
Y021955*
X017372*
Y022328*
X017353Y022427*
X017297Y022511*
X017213Y022567*
X017113Y022587*
G37*
G36*
X045686Y009826D02*
X044780D01*
Y009203*
X044799Y009104*
X044855Y009020*
X044939Y008964*
X045039Y008944*
X045686*
Y009826*
G37*
G36*
X043913Y010412D02*
X043738Y010377D01*
X043589Y010278*
X043489Y010178*
X043390Y010029*
X043355Y009853*
X043390Y009678*
X043489Y009529*
X043638Y009429*
X043813Y009394*
X043989Y009429*
X044138Y009529*
X044238Y009629*
X044337Y009778*
X044372Y009953*
X044337Y010129*
X044238Y010278*
X044089Y010377*
X043913Y010412*
G37*
G36*
X036088Y012012D02*
X035441D01*
Y011130*
X036347*
Y011753*
X036328Y011852*
X036272Y011936*
X036188Y011992*
X036088Y012012*
G37*
G36*
X034836Y038362D02*
X033963D01*
X033864Y038342*
X033780Y038286*
X033724Y038202*
X033705Y038103*
Y036980*
X034836*
Y038362*
G37*
G36*
X026036D02*
X025163D01*
X025064Y038342*
X024980Y038286*
X024924Y038202*
X024905Y038103*
Y036980*
X026036*
Y038362*
G37*
G36*
X035963D02*
X035090D01*
Y036980*
X036222*
Y038103*
X036203Y038202*
X036147Y038286*
X036063Y038342*
X035963Y038362*
G37*
G36*
X045686Y040576D02*
X044780D01*
Y039953*
X044799Y039854*
X044855Y039770*
X044939Y039714*
X045039Y039694*
X045686*
Y040576*
G37*
G36*
X028363Y040167D02*
X028339Y040162D01*
X028314*
X028138Y040127*
X028046Y040089*
X027897Y039989*
X027827Y039919*
X027728Y039770*
X027690Y039678*
X027655Y039503*
Y039403*
X027690Y039228*
X027728Y039136*
X027827Y038987*
X027897Y038917*
X028046Y038817*
X028138Y038779*
X028314Y038744*
X028339*
X028363Y038739*
X028388Y038744*
X028413*
X028589Y038779*
X028681Y038817*
X028830Y038917*
X028900Y038987*
X028999Y039136*
X029037Y039228*
X029072Y039403*
Y039503*
X029037Y039678*
X028999Y039770*
X028900Y039919*
X028830Y039989*
X028681Y040089*
X028589Y040127*
X028413Y040162*
X028388*
X028363Y040167*
G37*
G36*
X026036Y036726D02*
X024905D01*
Y035603*
X024924Y035504*
X024980Y035420*
X025064Y035364*
X025163Y035344*
X026036*
Y036726*
G37*
G36*
X022436Y035862D02*
X021801D01*
X021702Y035842*
X021618Y035786*
X021562Y035702*
X021543Y035603*
Y034230*
X022436*
Y035862*
G37*
G36*
X026788Y031412D02*
X026416D01*
Y030730*
X027047*
Y031153*
X027028Y031252*
X026972Y031336*
X026888Y031392*
X026788Y031412*
G37*
G36*
X023325Y035862D02*
X022690D01*
Y034230*
X023584*
Y035603*
X023565Y035702*
X023509Y035786*
X023425Y035842*
X023325Y035862*
G37*
G36*
X026363Y035062D02*
X025940D01*
Y034430*
X026622*
Y034803*
X026603Y034902*
X026547Y034986*
X026463Y035042*
X026363Y035062*
G37*
G36*
X025686D02*
X025263D01*
X025164Y035042*
X025080Y034986*
X025024Y034902*
X025005Y034803*
Y034430*
X025686*
Y035062*
G37*
G36*
X046847Y040576D02*
X045940D01*
Y039694*
X046588*
X046688Y039714*
X046772Y039770*
X046828Y039854*
X046847Y039953*
Y040576*
G37*
G36*
X036222Y042226D02*
X035090D01*
Y040844*
X035963*
X036063Y040864*
X036147Y040920*
X036203Y041004*
X036222Y041103*
Y042226*
G37*
G36*
X034836D02*
X033705D01*
Y041103*
X033724Y041004*
X033780Y040920*
X033864Y040864*
X033963Y040844*
X034836*
Y042226*
G37*
G36*
X054313Y042812D02*
X054138Y042777D01*
X053989Y042678*
X053890Y042529*
X053855Y042353*
X053890Y042177*
X053989Y042029*
X054117Y041900*
X054113Y041894*
X054086Y041856*
X054086Y041853*
X054084Y041851*
X054075Y041805*
X054065Y041759*
X054065Y041756*
X054065Y041753*
X054074Y041707*
X054082Y041661*
X054083Y041659*
X054084Y041656*
X054110Y041617*
X054135Y041577*
X054138Y041575*
X054139Y041573*
X054178Y041547*
X054217Y041520*
X054219Y041519*
X054222Y041518*
X054268Y041508*
X054314Y041498*
X054365Y041497*
X054405Y041493*
X054442Y041487*
X054476Y041479*
X054508Y041468*
X054538Y041455*
X054567Y041439*
X054594Y041421*
X054605Y041413*
X054899Y041119*
X055048Y041019*
X055223Y040984*
X056762*
X056856Y040921*
X057072Y040878*
X057370*
Y041443*
Y042008*
X057072*
X056856Y041965*
X056762Y041902*
X055414*
X055254Y042061*
X055245Y042073*
X055227Y042100*
X055212Y042128*
X055199Y042158*
X055188Y042190*
X055179Y042224*
X055173Y042261*
X055169Y042301*
X055168Y042353*
X055158Y042399*
X055149Y042445*
X055147Y042447*
X055147Y042450*
X055120Y042488*
X055094Y042527*
X055091Y042529*
X055089Y042531*
X055050Y042556*
X055011Y042583*
X055008Y042583*
X055006Y042585*
X054959Y042593*
X054913Y042602*
X054911Y042601*
X054908Y042602*
X054862Y042592*
X054816Y042583*
X054813Y042581*
X054810Y042580*
X054772Y042553*
X054766Y042549*
X054638Y042678*
X054489Y042777*
X054313Y042812*
G37*
G36*
X050488Y042637D02*
X050472D01*
X050297Y042602*
X050148Y042503*
X050049Y042354*
X050014Y042178*
X050049Y042003*
X050148Y041854*
X050297Y041754*
X050472Y041719*
X050488*
X050664Y041754*
X050812Y041854*
X050912Y042003*
X050947Y042178*
X050912Y042354*
X050812Y042503*
X050664Y042602*
X050488Y042637*
G37*
G36*
X058462Y041316D02*
X057624D01*
Y040878*
X057922*
X058139Y040921*
X058322Y041044*
X058444Y041227*
X058462Y041316*
G37*
G36*
X027422Y042226D02*
X026290D01*
Y040844*
X027163*
X027263Y040864*
X027347Y040920*
X027403Y041004*
X027422Y041103*
Y042226*
G37*
G36*
X023584Y041976D02*
X022690D01*
Y040344*
X023325*
X023425Y040364*
X023509Y040420*
X023565Y040504*
X023584Y040603*
Y041976*
G37*
G36*
X022436D02*
X021543D01*
Y040603*
X021562Y040504*
X021618Y040420*
X021702Y040364*
X021801Y040344*
X022436*
Y041976*
G37*
G36*
X047936Y041001D02*
X047255D01*
Y040628*
X047274Y040529*
X047330Y040445*
X047414Y040389*
X047514Y040369*
X047936*
Y041001*
G37*
G36*
X026036Y042226D02*
X024905D01*
Y041103*
X024924Y041004*
X024980Y040920*
X025064Y040864*
X025163Y040844*
X026036*
Y042226*
G37*
G36*
X048872Y041001D02*
X048190D01*
Y040369*
X048613*
X048713Y040389*
X048797Y040445*
X048853Y040529*
X048872Y040628*
Y041001*
G37*
G36*
X061547Y028476D02*
X060915D01*
Y027794*
X061288*
X061388Y027814*
X061472Y027870*
X061528Y027954*
X061547Y028053*
Y028476*
G37*
G36*
X061288Y029412D02*
X060915D01*
Y028730*
X061547*
Y029153*
X061528Y029252*
X061472Y029336*
X061388Y029392*
X061288Y029412*
G37*
G36*
X065736Y024151D02*
X065305D01*
Y023753*
X065324Y023654*
X065380Y023570*
X065464Y023514*
X065563Y023494*
X065736*
Y024151*
G37*
G36*
X064063Y023675D02*
X062563D01*
X062329Y023628*
X062131Y023496*
X061998Y023297*
X061952Y023063*
X061998Y022829*
X062131Y022631*
X062329Y022498*
X062563Y022451*
X064063*
X064298Y022498*
X064496Y022631*
X064629Y022829*
X064675Y023063*
X064629Y023297*
X064496Y023496*
X064298Y023628*
X064063Y023675*
G37*
G36*
X067636Y024151D02*
X067199D01*
Y024053*
X067242Y023837*
X067364Y023654*
X067547Y023531*
X067636Y023513*
Y024151*
G37*
G36*
X066422D02*
X065990D01*
Y023494*
X066163*
X066263Y023514*
X066347Y023570*
X066403Y023654*
X066422Y023753*
Y024151*
G37*
G36*
X074583Y026377D02*
X072559D01*
Y024353*
X074583*
Y026377*
G37*
G36*
X069936Y026476D02*
X068855D01*
Y025853*
X068874Y025754*
X068930Y025670*
X069014Y025614*
X069113Y025594*
X069936*
Y026476*
G37*
G36*
X078773Y025000D02*
X077721Y023947D01*
X077794Y023888*
X078099Y023725*
X078430Y023624*
X078773Y023591*
X079117Y023624*
X079448Y023725*
X079753Y023888*
X079826Y023947*
X078773Y025000*
G37*
G36*
X077368Y026405D02*
X077308Y026332D01*
X077145Y026028*
X077045Y025697*
X077011Y025353*
X077045Y025009*
X077145Y024679*
X077308Y024374*
X077368Y024301*
X078420Y025353*
X077368Y026405*
G37*
G36*
X069936Y027612D02*
X069113D01*
X069014Y027592*
X068930Y027536*
X068874Y027452*
X068855Y027353*
Y026730*
X069936*
Y027612*
G37*
G36*
X071013D02*
X070190D01*
Y026730*
X071272*
Y027353*
X071253Y027452*
X071197Y027536*
X071113Y027592*
X071013Y027612*
G37*
G36*
X071272Y026476D02*
X070190D01*
Y025594*
X071013*
X071113Y025614*
X071197Y025670*
X071253Y025754*
X071272Y025853*
Y026476*
G37*
G36*
X078773Y027116D02*
X078430Y027082D01*
X078099Y026981*
X077794Y026819*
X077721Y026759*
X078773Y025707*
X079826Y026759*
X079753Y026819*
X079448Y026981*
X079117Y027082*
X078773Y027116*
G37*
%LNgbr_top-4*%
%LPC*%
G36*
X054827Y018307D02*
X054786Y018345D01*
X054743Y018379*
X054697Y018408*
X054650Y018434*
X054600Y018456*
X054548Y018473*
X054495Y018487*
X054438Y018496*
X054380Y018502*
X054319Y018503*
X054913Y019097*
X054915Y019037*
X054920Y018978*
X054930Y018922*
X054943Y018868*
X054961Y018816*
X054983Y018767*
X055008Y018719*
X055038Y018674*
X055072Y018631*
X055109Y018590*
X054827Y018307*
G37*
G36*
Y041557D02*
X054786Y041595D01*
X054743Y041629*
X054697Y041658*
X054650Y041684*
X054600Y041706*
X054548Y041723*
X054495Y041737*
X054438Y041746*
X054380Y041752*
X054319Y041753*
X054913Y042347*
X054915Y042287*
X054920Y042228*
X054930Y042172*
X054943Y042118*
X054961Y042066*
X054983Y042017*
X055008Y041969*
X055038Y041924*
X055072Y041881*
X055109Y041840*
X054827Y041557*
G37*
G36*
X012459Y008009D02*
X012411Y008056D01*
X012177Y008261*
X012158Y008272*
X012142Y008278*
X012885Y008671*
X012879Y008641*
X012878Y008609*
X012883Y008575*
X012894Y008540*
X012911Y008502*
X012933Y008463*
X012961Y008421*
X012995Y008378*
X013035Y008333*
X013080Y008286*
X012459Y008009*
G37*
%LNgbr_top-5*%
%LPD*%
G36*
X090067Y029467D02*
X087536D01*
Y021349*
X090067*
Y029467*
G37*
G36*
X083853Y025000D02*
X082801Y023947D01*
X082874Y023888*
X083179Y023725*
X083510Y023624*
X083853Y023591*
X084197Y023624*
X084528Y023725*
X084833Y023888*
X084906Y023947*
X083853Y025000*
G37*
G36*
X085259Y026405D02*
X084207Y025353D01*
X085259Y024301*
X085319Y024374*
X085482Y024679*
X085582Y025009*
X085616Y025353*
X085582Y025697*
X085482Y026028*
X085319Y026332*
X085259Y026405*
G37*
G36*
X082448D02*
X082388Y026332D01*
X082225Y026028*
X082125Y025697*
X082091Y025353*
X082125Y025009*
X082225Y024679*
X082388Y024374*
X082448Y024301*
X083500Y025353*
X082448Y026405*
G37*
G36*
X083853Y027116D02*
X083510Y027082D01*
X083179Y026981*
X082874Y026819*
X082801Y026759*
X083853Y025707*
X084906Y026759*
X084833Y026819*
X084528Y026981*
X084197Y027082*
X083853Y027116*
G37*
G36*
Y025000D02*
X082801Y023947D01*
X082874Y023888*
X083179Y023725*
X083510Y023624*
X083853Y023591*
X084197Y023624*
X084528Y023725*
X084833Y023888*
X084906Y023947*
X083853Y025000*
G37*
G36*
X090067Y029467D02*
X087536D01*
Y021349*
X090067*
Y029467*
G37*
G36*
X085259Y026405D02*
X084207Y025353D01*
X085259Y024301*
X085319Y024374*
X085482Y024679*
X085582Y025009*
X085616Y025353*
X085582Y025697*
X085482Y026028*
X085319Y026332*
X085259Y026405*
G37*
G36*
X083853Y027116D02*
X083510Y027082D01*
X083179Y026981*
X082874Y026819*
X082801Y026759*
X083853Y025707*
X084906Y026759*
X084833Y026819*
X084528Y026981*
X084197Y027082*
X083853Y027116*
G37*
G36*
X082448Y026405D02*
X082388Y026332D01*
X082225Y026028*
X082125Y025697*
X082091Y025353*
X082125Y025009*
X082225Y024679*
X082388Y024374*
X082448Y024301*
X083500Y025353*
X082448Y026405*
G37*
%LNgbr_top-6*%
%LPC*%
G54D75*
X007313Y017853D02*
Y023603D01*
Y017853D02*
X008393Y016773D01*
X007313Y023603D02*
X008063Y024353D01*
Y018353D02*
Y023103D01*
Y018353D02*
X008313Y018103D01*
X008063Y023103D02*
X008313Y023353D01*
X008063Y024353D02*
X017813D01*
X008313Y018103D02*
X010773D01*
X008313Y023353D02*
X017813D01*
X008393Y016773D02*
X009563D01*
Y011603D02*
Y011693D01*
Y011603D02*
X010813Y010353D01*
X009563Y011693D02*
X010763Y012893D01*
X009563Y019313D02*
X010853Y020603D01*
X009563Y034023D02*
X009863D01*
X009563D02*
X010893Y035353D01*
X009563Y036563D02*
X010763Y037763D01*
X009563Y039103D02*
D01*
X010813Y040353D01*
X010763Y012893D02*
X015353D01*
X010763Y037763D02*
X013403D01*
X010773Y018103D02*
X012103Y016773D01*
X010813Y010353D02*
X012813D01*
X010813Y040353D02*
X013563D01*
X010853Y020603D02*
X013963D01*
X010893Y035353D02*
X012813D01*
X012103Y011693D02*
X019153D01*
X012103Y019313D02*
X014334D01*
X012103Y034023D02*
X013413Y032713D01*
X012103Y036563D02*
X013103D01*
G54D77*
X012313Y008603D02*
Y008853D01*
Y008603D02*
X013013Y007903D01*
G54D75*
X012813Y010353D02*
X013313Y010853D01*
X012813Y035353D02*
X014063Y034103D01*
G54D77*
X013013Y007903D02*
X016738D01*
G54D75*
X013103Y036563D02*
X014813Y034853D01*
X013313Y010853D02*
X019313D01*
X013403Y037763D02*
X015813Y035353D01*
X013413Y031503D02*
Y032713D01*
Y031503D02*
X017313Y027603D01*
X013563Y040353D02*
X016564Y037353D01*
X013963Y020603D02*
X016138Y018428D01*
X014063Y031853D02*
Y034103D01*
Y031853D02*
X017563Y028353D01*
X014334Y019313D02*
X015869Y017778D01*
G54D76*
X014813Y009603D02*
X015013Y009803D01*
G54D75*
X014813Y032103D02*
Y034853D01*
Y032103D02*
X017839Y029078D01*
G54D76*
X015013Y009803D02*
X016738D01*
G54D75*
X015353Y012893D02*
X016313Y013853D01*
X015813Y032103D02*
Y035353D01*
Y032103D02*
X018063Y029853D01*
X015869Y017778D02*
X019819D01*
X016138Y018428D02*
X019550D01*
X016313Y013853D02*
Y015353D01*
D01*
X016564Y020378D02*
X017288D01*
X016564Y021828D02*
X016788Y021603D01*
X016564Y032603D02*
Y037353D01*
Y032603D02*
X018563Y030603D01*
X017288Y020378D02*
X018063Y019603D01*
X017313Y027603D02*
X018523D01*
X017563Y028353D02*
X022563D01*
X017813Y013853D02*
X018813D01*
X017813Y023353D02*
X019863Y021303D01*
X017813Y024353D02*
X020063Y022103D01*
X017839Y029078D02*
X023114D01*
X018063Y019603D02*
X018313D01*
X018063Y029853D02*
X023258D01*
X018063Y032853D02*
Y034103D01*
Y032853D02*
X019063Y031853D01*
X018063Y034103D02*
Y042103D01*
X018313Y019603D02*
X018538Y019378D01*
X018523Y027603D02*
X020023Y026103D01*
X018538Y019378D02*
X018563D01*
X018813D01*
X018563Y020828D02*
X018813D01*
X018563Y030603D02*
X024838D01*
X018813Y019378D02*
X019138Y019703D01*
X018813Y020828D02*
X019138Y020503D01*
X018813Y013853D02*
X021063Y016103D01*
X019063Y031853D02*
X019813D01*
X019138Y019703D02*
X021163D01*
X019138Y020503D02*
X021163D01*
X019153Y011693D02*
X022813Y015353D01*
X019313Y010853D02*
X023613Y015153D01*
G54D76*
X019388Y008853D02*
X021313Y010778D01*
G54D75*
X019550Y018428D02*
X020025Y018903D01*
X019813Y031853D02*
X024813D01*
X019819Y017778D02*
X020144Y018103D01*
X019863Y021303D02*
X021163D01*
X020023Y026103D02*
X021163D01*
X020025Y018903D02*
X021163D01*
X020063Y022103D02*
X021163D01*
X020144Y018103D02*
X021163D01*
X021063Y016103D02*
Y016103D01*
G54D76*
X021163Y019703D02*
X021184Y019682D01*
G54D78*
X021163Y022903D02*
X022229D01*
X021163Y023703D02*
X022229D01*
G54D76*
X021184Y019682D02*
X023984D01*
X021313Y010778D02*
X022488D01*
G54D75*
X022038Y034078D02*
X022063Y034103D01*
G54D78*
X022229Y022903D02*
X022311Y022986D01*
X022229Y023703D02*
X022311Y023621D01*
X023063D01*
X022311Y022986D02*
X023063D01*
G54D76*
X022488Y010778D02*
X022563Y010853D01*
Y007853D02*
X022813D01*
G54D75*
X022563Y028353D02*
X022813Y028103D01*
G54D76*
X022813Y007853D02*
X023563Y007103D01*
G54D75*
X022813Y015353D02*
Y016453D01*
Y027753D02*
Y028103D01*
G54D78*
X023063Y022986D02*
X023313Y022736D01*
X023063Y023621D02*
X023313Y023871D01*
G54D75*
X023114Y029078D02*
X023538Y028653D01*
X023258Y029853D02*
X024338Y028773D01*
G54D78*
X023313Y022576D02*
Y022736D01*
Y023871D02*
Y024030D01*
G54D75*
X023538Y027828D02*
Y028653D01*
Y027828D02*
X023613Y027753D01*
G54D76*
X023563Y007103D02*
X030813D01*
G54D75*
X023613Y015153D02*
Y016453D01*
G54D76*
X023984Y019682D02*
X024063Y019603D01*
G54D75*
X024063Y019603D02*
X024363D01*
X024338Y027828D02*
Y028773D01*
Y027828D02*
X024413Y027753D01*
X024363Y019603D02*
X024463Y019703D01*
G54D76*
X024588Y019828D02*
X025313Y020553D01*
X024588Y019828D02*
X026813Y017603D01*
G54D75*
X024813Y031853D02*
X025813Y032853D01*
X024838Y030603D02*
X025213Y030228D01*
G54D76*
X025213Y025703D02*
Y027753D01*
Y025703D02*
X025313Y025603D01*
X025213Y027753D02*
Y030228D01*
X025313Y020553D02*
Y025603D01*
X029713D01*
G54D75*
X025663Y011603D02*
X025813Y011753D01*
Y014103D01*
X026013Y014303D01*
Y016453D01*
Y027753D02*
Y030328D01*
X026289Y030603D01*
X026163Y036853D02*
X028964D01*
X026563Y019103D02*
Y019603D01*
Y019103D02*
X027613Y018053D01*
G54D76*
X026813Y016453D02*
Y017603D01*
Y016453D02*
X026817Y016449D01*
G54D75*
X026813Y027753D02*
Y029353D01*
X031313Y033853D01*
G54D76*
X026817Y015099D02*
Y016449D01*
Y015099D02*
X027063Y014853D01*
Y014303D02*
Y014853D01*
Y014303D02*
X027263Y014103D01*
Y011803D02*
Y013103D01*
G54D75*
X027263Y011803D02*
X027463Y011603D01*
G54D76*
X027263Y013103D02*
Y014103D01*
Y013103D02*
X029901D01*
G54D75*
X027313Y020603D02*
Y022353D01*
Y020603D02*
X027813Y020103D01*
G54D76*
X027463Y008853D02*
Y011603D01*
G54D75*
X027463Y008853D02*
X028024Y009413D01*
X027613Y016453D02*
Y018053D01*
Y027753D02*
Y029153D01*
X030313Y031853D01*
X027813Y018853D02*
Y020103D01*
Y018853D02*
X028413Y018253D01*
G54D78*
X027840Y032903D02*
Y033880D01*
X028813Y034853D01*
G54D76*
X028024Y009413D02*
X030023D01*
G54D75*
X028413Y016453D02*
Y018253D01*
Y027753D02*
Y028953D01*
X030063Y030603D01*
X028813Y019118D02*
Y020853D01*
Y019118D02*
X029213Y018718D01*
X028813Y020853D02*
X029064Y021103D01*
G54D78*
X028813Y034853D02*
X030004D01*
G54D75*
X028964Y036853D02*
X029763D01*
X029213Y016453D02*
Y018718D01*
Y027753D02*
Y028753D01*
X030313Y029853D01*
G54D78*
X029313Y033603D02*
X029652D01*
X031363Y035315D01*
G54D76*
X029713Y025603D02*
X030813Y024503D01*
X029901Y013103D02*
X030151Y013353D01*
G54D78*
X030004Y034853D02*
X030563Y035413D01*
G54D75*
X030013Y016453D02*
Y019303D01*
Y016453D02*
X030063Y016503D01*
X030013Y019303D02*
X030063Y019353D01*
X030013Y027753D02*
Y028634D01*
X030483Y029103D01*
X030063Y019353D02*
Y019603D01*
Y030603D02*
X031813D01*
G54D76*
X030151Y013353D02*
X037563D01*
G54D75*
X030313Y029853D02*
X032313D01*
X030313Y031853D02*
X031563D01*
G54D76*
X030313Y039103D02*
Y039853D01*
Y039103D02*
X030563Y038853D01*
G54D75*
X030483Y029103D02*
X038872D01*
G54D76*
X030563Y038853D02*
X031576D01*
G54D78*
X030563Y035413D02*
Y036853D01*
G54D76*
X030813Y007103D02*
X031503Y007793D01*
G54D75*
X030813Y016453D02*
X031213D01*
G54D76*
X030813Y024503D02*
X032463D01*
G54D75*
X030813Y027753D02*
Y028403D01*
X038653D01*
X031213Y016453D02*
X032313Y015353D01*
G54D76*
X031313Y009603D02*
Y011103D01*
Y009603D02*
X031503Y009413D01*
X031313Y011103D02*
X031529Y011318D01*
G54D75*
X031313Y033853D02*
X032063D01*
G54D78*
X031363Y035315D02*
Y036853D01*
G54D76*
X031503Y007793D02*
Y009413D01*
X032563D01*
X031529Y011318D02*
X032563D01*
X031576Y038853D02*
X032117Y038312D01*
G54D75*
X031813Y030603D02*
X032813Y031603D01*
X032117Y038312D02*
X032163Y038266D01*
G54D76*
X032163Y036853D02*
Y038266D01*
G54D75*
X032313Y014853D02*
Y015353D01*
Y029853D02*
X033813Y031353D01*
X032463Y017703D02*
Y018103D01*
Y017703D02*
X033313Y016853D01*
X032463Y018903D02*
X033513D01*
X032463Y019703D02*
X032539Y019628D01*
X032463Y023703D02*
X034488D01*
X032463Y024503D02*
X034488D01*
X032463Y025303D02*
X033513D01*
X032463Y026103D02*
X033063D01*
X032539Y019628D02*
X033708D01*
G54D76*
X032563Y009413D02*
X032603Y009453D01*
G54D75*
X032563Y010353D02*
X033563D01*
G54D76*
X032603Y009453D02*
X035314D01*
G54D75*
X032813Y031603D02*
Y032853D01*
X034813Y034853D01*
X033063Y026103D02*
X034063Y027103D01*
X033513Y018903D02*
X034514Y017903D01*
X033513Y025303D02*
X034063Y025853D01*
X033563Y010353D02*
X034463Y011253D01*
X033708Y019628D02*
X035163Y018172D01*
X033813Y031353D02*
Y032603D01*
X035313Y034103D01*
X034063Y025853D02*
X040283D01*
X034063Y027103D02*
X035063D01*
X034463Y011253D02*
X035314D01*
X034488Y023703D02*
X034813Y023378D01*
X034488Y024503D02*
X034813Y024828D01*
X034514Y015153D02*
Y017903D01*
Y015153D02*
X034563Y015103D01*
X034813Y021853D02*
X039313Y017353D01*
X034813Y023378D02*
X035288D01*
X034813Y024828D02*
X036088D01*
X034813Y030353D02*
Y032353D01*
X035563Y033103D01*
X034813Y034853D02*
X038813D01*
X035163Y016834D02*
Y018172D01*
Y016834D02*
X036313Y015684D01*
X035288Y023378D02*
X036563Y022103D01*
X035313Y034103D02*
X039313D01*
X035563Y033103D02*
X039563D01*
X036088Y024828D02*
X036563Y024353D01*
X036313Y014853D02*
Y015684D01*
Y031853D02*
X039563D01*
X037363Y041303D02*
Y043103D01*
Y041303D02*
X038813Y039853D01*
G54D76*
X037563Y013353D02*
X038813Y012103D01*
G54D75*
X038063Y022103D02*
Y024353D01*
Y022103D02*
D01*
X038653Y028403D02*
X042064Y024992D01*
X038813Y039353D02*
Y039853D01*
Y034853D02*
X042963Y039003D01*
X038872Y029103D02*
X042813Y025161D01*
X039063Y042603D02*
X039313D01*
Y015853D02*
Y017353D01*
Y015853D02*
X042063Y013103D01*
X039313Y034103D02*
X043563Y038353D01*
X039313Y042603D02*
X039563Y042853D01*
Y031853D02*
X044313Y036603D01*
X039563Y033103D02*
X044063Y037603D01*
X039563Y042853D02*
X040313Y043603D01*
X040063Y016103D02*
Y020103D01*
Y016103D02*
X042413Y013753D01*
X040063Y020103D02*
X041313Y021353D01*
X040283Y025853D02*
X041313Y024823D01*
X040313Y043603D02*
X042563D01*
X040813Y016434D02*
Y019853D01*
Y016434D02*
X042644Y014603D01*
X040813Y019853D02*
X042064Y021103D01*
X041313Y021353D02*
Y024823D01*
X041513Y016653D02*
Y019303D01*
Y016653D02*
X042813Y015353D01*
X041513Y019303D02*
X042813Y020603D01*
X042063Y013103D02*
X046625D01*
X042064Y021103D02*
Y024992D01*
X042413Y013753D02*
X046894D01*
X042563Y043603D02*
X043563Y042603D01*
X042644Y014603D02*
X048563D01*
X042813Y015353D02*
X048813D01*
X042813Y020603D02*
Y025161D01*
X042963Y039003D02*
X048333D01*
X043563Y042103D02*
Y042603D01*
Y038353D02*
X047813D01*
X043813Y009853D02*
X043913Y009953D01*
X043813Y033103D02*
X043913Y033203D01*
X044063Y037603D02*
X047313D01*
X044313Y029103D02*
Y030603D01*
D01*
Y036603D02*
X046813D01*
X045813Y009953D02*
X047138D01*
G54D76*
X045813Y011753D02*
X045888Y011828D01*
X045813Y019253D02*
X047988D01*
G54D75*
X045813Y030603D02*
X046813D01*
X045813Y033203D02*
X047138D01*
G54D76*
X045813Y035003D02*
X045888Y035078D01*
X045813Y042503D02*
X047988D01*
X045888Y011828D02*
X047563D01*
X045888Y035078D02*
X047563D01*
G54D75*
X046625Y013103D02*
X046925Y012803D01*
G54D82*
X046813Y024103D02*
Y030603D01*
Y024103D02*
X047563Y023353D01*
X046813Y030603D02*
X048813D01*
G54D75*
X046813Y036603D02*
X047363Y036053D01*
X046894Y013753D02*
X047194Y013453D01*
X046925Y012803D02*
X053613D01*
X047138Y009953D02*
X047563Y010378D01*
X047138Y033203D02*
X047563Y033628D01*
X047194Y013453D02*
X053963D01*
X047313Y037603D02*
X048213Y036703D01*
X047363Y036053D02*
X053613D01*
G54D76*
X047563Y011828D02*
X048633D01*
G54D82*
X047563Y023353D02*
X048813D01*
G54D76*
X047563Y035078D02*
X048633D01*
G54D75*
X047813Y038353D02*
X048813Y037353D01*
G54D76*
X047988Y019253D02*
X048063Y019328D01*
X047988Y042503D02*
X048063Y042578D01*
Y019328D02*
X048942Y020207D01*
X048063Y042578D02*
X048942Y043457D01*
G54D75*
X048213Y036703D02*
X053963D01*
X048333Y039003D02*
X049233Y038103D01*
X048563Y014603D02*
X049063Y014103D01*
G54D76*
X048633Y011828D02*
X048813Y012008D01*
X048633Y035078D02*
X048813Y035258D01*
G54D82*
X048813Y020336D02*
Y023353D01*
G54D75*
X048813Y020336D02*
X048942Y020207D01*
G54D81*
X048813Y023353D02*
X051813D01*
G54D75*
X048813Y007603D02*
Y012008D01*
Y007603D02*
X049063Y007353D01*
G54D76*
X048813Y012008D02*
X052088D01*
X048813Y030603D02*
Y035258D01*
G54D75*
X048813Y030603D02*
X060313D01*
G54D76*
X048813Y035258D02*
X052088D01*
G54D75*
X048813Y037353D02*
X053313D01*
X048813Y015353D02*
X049313Y014853D01*
G54D76*
X048942Y020207D02*
X051271D01*
X048942Y043457D02*
X051021D01*
G54D75*
X049063Y007353D02*
X060313D01*
X049063Y014103D02*
X053313D01*
X049233Y038103D02*
X053063D01*
X049313Y014853D02*
X053063D01*
X049813Y008628D02*
X049938Y008503D01*
X049813Y010078D02*
X049938Y010203D01*
X049813Y031878D02*
X049938Y031753D01*
X049813Y033328D02*
X049938Y033453D01*
X050063Y008628D02*
X050493Y008198D01*
X050063Y010078D02*
X050723Y010738D01*
X050063Y016128D02*
X050538Y015653D01*
X050063Y017578D02*
X050773D01*
X050063Y031878D02*
X050493Y031448D01*
X050063Y033328D02*
X050723Y033988D01*
X050063Y039378D02*
X050538Y038903D01*
X050063Y040828D02*
X051023D01*
X050313Y019103D02*
X050313D01*
X050472Y042178D02*
X050488D01*
X050493Y008198D02*
X052088D01*
X050493Y031448D02*
X052088D01*
X050538Y015653D02*
X052047D01*
X050538Y038903D02*
X052047D01*
X050723Y010738D02*
X052088D01*
X050723Y033988D02*
X052088D01*
X050773Y017578D02*
X051388Y018193D01*
G54D76*
X051021Y043457D02*
X051667Y042810D01*
G54D75*
X051023Y040828D02*
X051638Y041443D01*
G54D76*
X051271Y020207D02*
X051917Y019560D01*
G54D75*
X051388Y018193D02*
X052047D01*
X051638Y041443D02*
X052047D01*
G54D76*
X051667Y042713D02*
Y042810D01*
Y042713D02*
X052047D01*
G54D75*
X051797Y009423D02*
X052088D01*
X051797Y032673D02*
X052088D01*
X051813Y023353D02*
X052313Y022853D01*
G54D76*
X051917Y019463D02*
Y019560D01*
Y019463D02*
X052047D01*
G54D75*
X052047Y015653D02*
X052863D01*
X052047Y016923D02*
X053883D01*
X052047Y038903D02*
X052863D01*
X052047Y040173D02*
X053883D01*
X052047Y042713D02*
X052423D01*
X052063Y027203D02*
Y029603D01*
X052313Y029853D01*
X052088Y008198D02*
X052908D01*
X052088Y009468D02*
X052678D01*
X052088Y031448D02*
X052908D01*
X052088Y032718D02*
X052678D01*
X052313Y022853D02*
X052813Y022353D01*
X052313Y029853D02*
X062063D01*
X052423Y042713D02*
X053173Y043463D01*
X052678Y009468D02*
X053563Y010353D01*
X052678Y032718D02*
X053563Y033603D01*
X052813Y022353D02*
X055313D01*
X052863Y015653D02*
X053163Y015953D01*
X052863Y038903D02*
X053163Y039203D01*
X052908Y008198D02*
X053939Y009228D01*
X052908Y031448D02*
X053939Y032478D01*
X053063Y014853D02*
X053513Y015303D01*
X053063Y038103D02*
X053513Y038553D01*
X053163Y015953D02*
X054913D01*
X053163Y039203D02*
X054913D01*
X053173Y043463D02*
X059953D01*
X053313Y014103D02*
X053863Y014653D01*
X053313Y037353D02*
X053863Y037903D01*
X053513Y015303D02*
X056263D01*
X053513Y038553D02*
X056263D01*
X053563Y010353D02*
Y010603D01*
X053813Y010853D01*
X053563Y033603D02*
Y033853D01*
X053813Y034103D01*
X053613Y012803D02*
X054863Y011553D01*
X053613Y036053D02*
X054863Y034803D01*
X053813Y010853D02*
X053813Y010853D01*
X053813Y034103D02*
X053813Y034103D01*
X053863Y014653D02*
X058113D01*
X053863Y037903D02*
X058113D01*
X053883Y016923D02*
X054063Y017103D01*
X053883Y040173D02*
X054063Y040353D01*
X053939Y009228D02*
X054063Y009353D01*
X053939Y032478D02*
X054063Y032603D01*
X053963Y013453D02*
X055563Y011853D01*
X053963Y036703D02*
X055563Y035103D01*
X054063Y009353D02*
X054313D01*
X054063Y032603D02*
X054313D01*
X054313Y019103D02*
X055223Y018193D01*
X054313Y042353D02*
X055223Y041443D01*
X054863Y010553D02*
Y011553D01*
Y010553D02*
X055556Y009861D01*
X054863Y033803D02*
Y034803D01*
Y033803D02*
X055556Y033111D01*
X054913Y015953D02*
X055563Y016603D01*
X054913Y039203D02*
X055563Y039853D01*
X055223Y018193D02*
X057497D01*
X055223Y041443D02*
X057497D01*
X055313Y022353D02*
X055563D01*
X055313Y023853D02*
Y025603D01*
Y023853D02*
X056063D01*
X055556Y008861D02*
Y009861D01*
Y008861D02*
X056218Y008198D01*
X055556Y032111D02*
Y033111D01*
Y032111D02*
X056218Y031448D01*
X055563Y022353D02*
X056313Y021603D01*
X055563Y010853D02*
Y011853D01*
Y010853D02*
X056948Y009468D01*
X055563Y013603D02*
X058538D01*
X055563Y034103D02*
Y035103D01*
Y034103D02*
X056948Y032718D01*
X055563Y036853D02*
X058538D01*
X056063Y023853D02*
X056853Y023063D01*
X056218Y008198D02*
X057538D01*
X056218Y031448D02*
X057538D01*
X056263Y015303D02*
X056613Y015653D01*
X056263Y038553D02*
X056613Y038903D01*
X056313Y011353D02*
Y012603D01*
Y011353D02*
X056928Y010738D01*
X056313Y012603D02*
X056513Y012803D01*
X056313Y034603D02*
Y035853D01*
Y034603D02*
X056928Y033988D01*
X056313Y035853D02*
X056513Y036053D01*
X056313Y021603D02*
X059813D01*
X056513Y012803D02*
X059339D01*
X056513Y036053D02*
X059339D01*
X056613Y015653D02*
X057497D01*
X056613Y038903D02*
X057497D01*
X056853Y023063D02*
X057813D01*
X056928Y010738D02*
X057538D01*
X056928Y033988D02*
X057538D01*
X056948Y009468D02*
X057538D01*
X056948Y032718D02*
X057538D01*
X057497Y016923D02*
X057993D01*
X057497Y019463D02*
X058953D01*
X057497Y040173D02*
X057993D01*
X057497Y042713D02*
X058453D01*
X057538Y012008D02*
X058408D01*
X057538Y035258D02*
X058158D01*
X057813Y026873D02*
X058308D01*
X057993Y016923D02*
X058672Y016244D01*
X057993Y040173D02*
X058672Y039494D01*
X058113Y014653D02*
X058672Y015212D01*
X058113Y037903D02*
X058672Y038462D01*
X058158Y035258D02*
X058313Y035103D01*
X058308Y026873D02*
X058313Y026878D01*
X058813D01*
X058313Y035103D02*
X061313D01*
X058408Y012008D02*
X059063Y011353D01*
X058453Y042713D02*
X059063Y042103D01*
X058538Y013603D02*
X059488Y014553D01*
X058538Y036853D02*
X059488Y037803D01*
X058672Y015212D02*
Y016244D01*
Y038462D02*
Y039494D01*
X058813Y026878D02*
X059338Y027403D01*
X058953Y019463D02*
X059313Y019103D01*
X059063Y011353D02*
X060563D01*
X059063Y042103D02*
X059313D01*
X059313Y018603D02*
Y019103D01*
X059338Y027403D02*
Y028603D01*
X059339Y012803D02*
X059488Y012653D01*
X059339Y036053D02*
X059488Y035903D01*
Y014553D02*
X060363D01*
X059488Y037803D02*
X060363D01*
X059813Y021603D02*
X061063Y020353D01*
X059953Y043463D02*
X061063Y042353D01*
X060313Y007353D02*
X062113Y009153D01*
X060313Y030603D02*
X062363Y032653D01*
X060363Y014553D02*
X061313Y013603D01*
X060363Y037803D02*
X061313Y036853D01*
X060563Y011353D02*
X061063Y011853D01*
X060788Y028103D02*
Y028603D01*
Y028103D02*
X060814Y028128D01*
Y028103D02*
Y028128D01*
Y028103D02*
X062043Y026873D01*
X061063Y016353D02*
Y020353D01*
Y016353D02*
X063113Y014303D01*
X061063Y038853D02*
Y042353D01*
Y038853D02*
X062063Y037853D01*
X061313Y013603D02*
X062138D01*
X061313Y036853D02*
X062138D01*
X062043Y026873D02*
X063313D01*
X062063Y029853D02*
X063313Y028603D01*
X062063Y037853D02*
X062813D01*
X062113Y009153D02*
Y011903D01*
X063113Y012903D01*
X062313Y007603D02*
X062813Y007103D01*
X062363Y032653D02*
Y035653D01*
X063313Y036603D01*
X062813Y007103D02*
X086563D01*
X062813Y037853D02*
X063313Y037353D01*
X063113Y012903D02*
Y014303D01*
G54D79*
X063313Y024333D02*
X065808D01*
G54D80*
X063313Y025603D02*
X069063D01*
G54D75*
X063313Y026873D02*
Y028603D01*
G54D79*
X063313Y026873D02*
X066758D01*
G54D75*
X063313Y036603D02*
Y037353D01*
X065808Y024333D02*
X065863Y024278D01*
G54D79*
X065863Y024278D02*
X067763D01*
G54D75*
X066758Y026873D02*
X066813Y026928D01*
G54D79*
X067763Y024278D02*
X068438Y023603D01*
G54D75*
X068063Y013103D02*
X069313D01*
X068313Y036603D02*
X069063D01*
G54D79*
X068438Y023603D02*
X070063D01*
G54D80*
X069063Y025603D02*
X070063Y026603D01*
G54D75*
X069063Y036603D02*
X070408Y035258D01*
X069313Y013103D02*
X070408Y012008D01*
X069313Y020103D02*
X069813D01*
X069313Y043353D02*
X069813D01*
Y020103D02*
X070408Y019508D01*
X069813Y043353D02*
X070408Y042758D01*
Y012008D02*
X071504D01*
X070408Y035258D02*
X071504D01*
X070408Y019508D02*
X071504D01*
X070408Y042758D02*
X071504D01*
Y008198D02*
Y009468D01*
Y008198D02*
X073408D01*
X071504Y009468D02*
Y010738D01*
Y031448D02*
X073408D01*
X071504Y038948D02*
Y040218D01*
X072139Y040853D01*
X071504Y041488D02*
X072139Y040853D01*
X073563D01*
G54D83*
X073063Y025365D02*
X074079D01*
G54D75*
X073408Y008198D02*
X073563Y008353D01*
X073408Y031448D02*
X073563Y031603D01*
Y008353D02*
Y010103D01*
Y008353D02*
X073718Y008198D01*
X073563Y010103D02*
Y011853D01*
Y031603D02*
Y033353D01*
Y035103D01*
Y039103D02*
Y040853D01*
Y042603D01*
G54D83*
X073571Y025873D02*
Y024857D01*
G54D75*
X073718Y008198D02*
X075604D01*
Y009468D01*
Y038948D02*
Y040218D01*
Y041488D01*
G54D76*
X078523Y025603D02*
X078773Y025353D01*
G54D75*
X080813Y012603D02*
X081313D01*
X080813Y020103D02*
X081313D01*
X080813Y029853D02*
X083563D01*
X080813Y035853D02*
X081313D01*
X080813Y043353D02*
X081313D01*
Y012603D02*
X081908Y012008D01*
X081313Y020103D02*
X081908Y019508D01*
X081313Y035853D02*
X081908Y035258D01*
X081313Y043353D02*
X081908Y042758D01*
Y012008D02*
X083004D01*
X081908Y019508D02*
X083004D01*
X081908Y035258D02*
X083004D01*
X081908Y042758D02*
X083004D01*
Y014662D02*
Y015698D01*
Y014662D02*
X083063Y014603D01*
X083004Y038948D02*
X083063Y038889D01*
Y037853D02*
Y038889D01*
Y037853D02*
X084313D01*
X083563Y029853D02*
X084813Y031103D01*
X084313Y037853D02*
X085563Y036603D01*
X084813Y031103D02*
X085113D01*
X085563Y030653D01*
Y018153D02*
X086163Y018753D01*
X085563Y032353D02*
Y032553D01*
Y032353D02*
X086138Y031778D01*
X085563Y032553D02*
Y036603D01*
X086063Y019853D02*
X086313Y019603D01*
X086138Y031778D02*
X086738D01*
X086163Y018753D02*
X086281Y018870D01*
X086831D01*
X086313Y019603D02*
X087313D01*
X086563Y007103D02*
X088113Y008653D01*
X086738Y031778D02*
X087313Y032353D01*
X086813Y012103D02*
X087313Y012603D01*
X086831Y018870D02*
X087313Y018387D01*
Y012603D02*
Y018387D01*
Y032353D02*
Y035853D01*
Y019603D02*
X088063Y018853D01*
G54D83*
X088040Y021853D02*
Y022615D01*
X088294Y022869D01*
X088040Y023631D02*
X088294Y023377D01*
X088040Y024138D02*
Y023631D01*
Y024900D02*
X089563D01*
X088040Y026424D02*
X089563D01*
X088040Y027439D02*
Y026424D01*
Y027947D02*
Y028709D01*
X088294Y028963D01*
G54D75*
X088063Y018853D02*
X088113Y018803D01*
Y008653D02*
Y018803D01*
G54D83*
X088294Y022869D02*
X088802D01*
X088294Y023377D02*
X089310D01*
X088294Y024392D02*
X088040Y024138D01*
X088294Y028963D02*
X088802D01*
Y022869D02*
X089056Y022615D01*
X088802Y026424D02*
Y026931D01*
Y028963D02*
X089056Y028709D01*
Y022615D02*
Y021853D01*
Y025408D02*
X089563Y025916D01*
X089056Y028455D02*
X089563Y028963D01*
X089056Y028709D02*
Y027947D01*
X089310Y023377D02*
X089563Y023631D01*
X089310Y024392D02*
X088294D01*
X089563Y021853D02*
X088040D01*
X089563Y023631D02*
Y024138D01*
X089310Y024392D01*
X089563Y024900D02*
X089056Y025408D01*
X089563Y025916D02*
X088040D01*
X089563Y026424D02*
Y027439D01*
Y027947D02*
X088040D01*
X092540Y020853D02*
X093048Y021361D01*
X092540Y021869D02*
X094063D01*
X092540Y022631D02*
X092794Y022377D01*
X092540Y023138D02*
Y022631D01*
Y028103D02*
X093048Y028611D01*
X092540Y029119D02*
X094063D01*
X092540Y029881D02*
X092794Y029627D01*
Y023392D02*
X092540Y023138D01*
X093048Y021361D02*
X092540Y021869D01*
X093048Y023392D02*
X092794D01*
X093048Y028611D02*
X092540Y029119D01*
X094063Y020853D02*
X092540D01*
X094063Y022377D02*
X093048Y023392D01*
X094063D02*
Y022377D01*
Y028103D02*
X092540D01*
X094063Y029627D02*
Y030134D01*
Y029881D02*
X092540D01*
X094063Y030134D02*
Y029881D01*
G54D85*
X009563Y011693D03*
Y014233D03*
Y016773D03*
Y019313D03*
G54D86*
X009563Y021853D03*
G54D85*
X009563Y034023D03*
Y036563D03*
G54D86*
X009563Y039103D03*
G54D85*
X012103Y011693D03*
Y014233D03*
Y016773D03*
Y019313D03*
Y021853D03*
Y034023D03*
Y036563D03*
Y039103D03*
G54D56*
X016313Y013853D03*
G54D74*
X016564Y020378D03*
Y021828D03*
G54D51*
X016738Y007903D03*
G54D50*
X016738Y009803D03*
G54D56*
X017813Y013853D03*
G54D48*
X018063Y034103D03*
Y042103D03*
G54D74*
X018563Y019378D03*
Y020828D03*
G54D51*
X019388Y008853D03*
G54D68*
X021163Y018103D03*
Y018903D03*
Y019703D03*
Y020503D03*
Y021303D03*
Y022103D03*
Y022903D03*
Y023703D03*
Y024503D03*
Y025303D03*
Y026103D03*
G54D54*
X022563Y007853D03*
Y010853D03*
G54D48*
X022563Y034103D03*
Y042103D03*
G54D69*
X022813Y016453D03*
Y027753D03*
X023613Y016453D03*
Y027753D03*
X024413Y016453D03*
Y027753D03*
G54D62*
X024838Y030603D03*
G54D69*
X025213Y016453D03*
Y027753D03*
G54D73*
X025663Y008853D03*
Y011603D03*
G54D62*
X025813Y014103D03*
G54D74*
X025813Y032853D03*
Y034303D03*
G54D69*
X026013Y016453D03*
Y027753D03*
G54D58*
X026163Y036853D03*
Y042353D03*
G54D62*
X026289Y030603D03*
G54D69*
X026813Y016453D03*
Y027753D03*
G54D62*
X027263Y014103D03*
G54D73*
X027463Y008853D03*
Y011603D03*
G54D69*
X027613Y016453D03*
Y027753D03*
G54D84*
X028363Y039453D03*
G54D69*
X028413Y016453D03*
Y027753D03*
G54D57*
X028964Y036853D03*
G54D69*
X029213Y016453D03*
Y027753D03*
G54D57*
X029763Y036853D03*
G54D69*
X030013Y016453D03*
Y027753D03*
G54D49*
X030023Y009413D03*
Y011318D03*
G54D57*
X030563Y036853D03*
G54D69*
X030813Y016453D03*
Y027753D03*
G54D57*
X031363Y036853D03*
X032163D03*
G54D68*
X032463Y018103D03*
Y018903D03*
Y019703D03*
Y020503D03*
Y021303D03*
Y022103D03*
Y022903D03*
Y023703D03*
Y024503D03*
Y025303D03*
Y026103D03*
G54D49*
X032563Y009413D03*
Y011318D03*
Y010353D03*
G54D84*
X032763Y039453D03*
G54D74*
X034813Y023378D03*
Y024828D03*
G54D58*
X034963Y036853D03*
Y042353D03*
G54D61*
X035314Y009203D03*
Y011003D03*
G54D56*
X036563Y024353D03*
Y022103D03*
X038063Y024353D03*
Y022103D03*
X044313Y029103D03*
Y030603D03*
X045813Y029103D03*
G54D61*
X045813Y009953D03*
Y011753D03*
Y017453D03*
Y019253D03*
G54D56*
X045813Y030603D03*
G54D61*
X045813Y033203D03*
Y035003D03*
Y040703D03*
Y042503D03*
G54D74*
X047563Y010378D03*
Y011828D03*
Y033628D03*
Y035078D03*
X048063Y017878D03*
Y019328D03*
Y041128D03*
Y042578D03*
G54D60*
X048813Y023353D03*
Y026353D03*
G54D74*
X050063Y008628D03*
Y010078D03*
Y016128D03*
Y017578D03*
Y031878D03*
Y033328D03*
Y039378D03*
Y040828D03*
G54D52*
X052047Y015653D03*
Y016923D03*
Y018193D03*
G54D53*
X052047Y019463D03*
G54D52*
X052047Y038903D03*
Y040173D03*
Y041443D03*
G54D53*
X052047Y042713D03*
G54D52*
X052088Y008198D03*
Y009468D03*
Y010738D03*
G54D53*
X052088Y012008D03*
G54D52*
X052088Y031448D03*
Y032718D03*
Y033988D03*
G54D53*
X052088Y035258D03*
G54D59*
X052313Y022853D03*
Y027053D03*
G54D70*
X055313Y022353D03*
Y023853D03*
Y025603D03*
Y027103D03*
G54D52*
X057497Y015653D03*
Y016923D03*
Y018193D03*
Y019463D03*
Y038903D03*
Y040173D03*
Y041443D03*
Y042713D03*
X057538Y008198D03*
Y009468D03*
Y010738D03*
Y012008D03*
Y031448D03*
Y032718D03*
Y033988D03*
Y035258D03*
G54D64*
X057813Y023063D03*
Y024333D03*
Y025603D03*
G54D63*
X057813Y026873D03*
G54D62*
X059338Y028603D03*
G54D51*
X059488Y012653D03*
G54D50*
X059488Y014553D03*
G54D51*
X059488Y035903D03*
G54D50*
X059488Y037803D03*
G54D62*
X060788Y028603D03*
G54D51*
X062138Y013603D03*
Y036853D03*
G54D64*
X063313Y023063D03*
Y024333D03*
Y025603D03*
Y026873D03*
G54D67*
X064104Y008198D03*
Y009468D03*
Y010738D03*
Y012008D03*
Y015698D03*
Y016968D03*
Y018238D03*
Y019508D03*
Y031448D03*
Y032718D03*
Y033988D03*
Y035258D03*
Y038948D03*
Y040218D03*
Y041488D03*
Y042758D03*
G54D71*
X065863Y024278D03*
G54D72*
X066813Y026928D03*
G54D65*
X067313Y010103D03*
Y017603D03*
Y033353D03*
Y040853D03*
G54D72*
X067763Y024278D03*
G54D60*
X070063Y023603D03*
Y026603D03*
G54D66*
X071504Y008198D03*
G54D67*
X071504Y009468D03*
Y010738D03*
Y012008D03*
G54D66*
X071504Y015698D03*
G54D67*
X071504Y016968D03*
Y018238D03*
Y019508D03*
G54D66*
X071504Y031448D03*
G54D67*
X071504Y032718D03*
Y033988D03*
Y035258D03*
G54D66*
X071504Y038948D03*
G54D67*
X071504Y040218D03*
Y041488D03*
Y042758D03*
X075604Y008198D03*
Y009468D03*
Y010738D03*
Y012008D03*
Y015698D03*
Y016968D03*
Y018238D03*
Y019508D03*
Y031448D03*
Y032718D03*
Y033988D03*
Y035258D03*
Y038948D03*
Y040218D03*
Y041488D03*
Y042758D03*
G54D87*
X078773Y025353D03*
G54D65*
X078813Y010103D03*
Y017603D03*
Y033353D03*
Y040853D03*
G54D66*
X083004Y008198D03*
G54D67*
X083004Y009468D03*
Y010738D03*
Y012008D03*
G54D66*
X083004Y015698D03*
G54D67*
X083004Y016968D03*
Y018238D03*
Y019508D03*
G54D66*
X083004Y031448D03*
G54D67*
X083004Y032718D03*
Y033988D03*
Y035258D03*
G54D66*
X083004Y038948D03*
G54D67*
X083004Y040218D03*
Y041488D03*
Y042758D03*
G54D87*
X083853Y025353D03*
G54D55*
X085563Y018153D03*
Y020053D03*
Y030653D03*
Y032553D03*
G54D87*
X091063Y011313D03*
Y016393D03*
Y034563D03*
Y039643D03*
G54D88*
X011313Y028853D03*
X012313Y008853D03*
X014313Y017103D03*
X014813Y009603D03*
X015563Y040603D03*
X016313Y015353D03*
X019063Y025103D03*
X019813Y031853D03*
X020313Y038103D03*
X021063Y016103D03*
X023313Y022576D03*
Y024030D03*
X023563Y013103D03*
X024063Y019603D03*
X026563D03*
X027063Y024103D03*
X027313Y022353D03*
X027840Y032903D03*
X029064Y014353D03*
Y021103D03*
X029313Y033603D03*
X030063Y019603D03*
X030313Y039853D03*
X030813Y024503D03*
X031563Y031853D03*
X032063Y033853D03*
X032313Y014853D03*
X033313Y007853D03*
Y016853D03*
X034563Y015103D03*
Y039603D03*
X034813Y021853D03*
Y030353D03*
X035063Y027103D03*
X036313Y014853D03*
Y031853D03*
X037363Y043103D03*
X038563Y037103D03*
X038813Y012103D03*
Y039353D03*
X039063Y042603D03*
X039563Y024603D03*
X042064Y040853D03*
X042813Y018853D03*
X043563Y042103D03*
X043813Y009853D03*
Y033103D03*
X044563Y027103D03*
X045563Y022353D03*
X048063Y028353D03*
X049813D03*
X050313Y019103D03*
X050472Y042178D03*
X053813Y010853D03*
Y034103D03*
X054063Y017103D03*
Y040353D03*
X054313Y009353D03*
Y032603D03*
X054313Y019103D03*
Y042353D03*
X055563Y013603D03*
Y016603D03*
Y036853D03*
Y039853D03*
X057563Y028353D03*
X059313Y042103D03*
X059563Y018853D03*
X059813Y009103D03*
X060063Y032603D03*
X060563Y022353D03*
Y023853D03*
Y025353D03*
X061063Y011853D03*
X061313Y035103D03*
X062313Y007603D03*
X065563Y022853D03*
X067313D03*
X068063Y013103D03*
X068313Y036603D03*
X069313Y020103D03*
Y043353D03*
X073563Y008353D03*
Y010103D03*
Y011853D03*
Y015853D03*
Y017603D03*
Y019353D03*
Y031603D03*
Y033353D03*
Y035103D03*
Y039103D03*
Y040853D03*
Y042603D03*
X080813Y012603D03*
Y020103D03*
Y029853D03*
Y035853D03*
Y043353D03*
X086813Y012103D03*
X087313Y035853D03*
M02*