%FSDAX33Y33*%
%MOMM*%
%SFA1B1*%

%IPPOS*%
%AMD1002*
%
%ADD56R,0.800001X1.050000*%
%ADD62R,1.000001X1.100000*%
%ADD70R,1.050000X0.800001*%
%ADD74R,1.100000X1.000001*%
%ADD75C,0.399999*%
%ADD76C,0.508000*%
%ADD77C,0.635000*%
%ADD78C,0.381000*%
%ADD82C,0.499999*%
%ADD83C,0.254000*%
%ADD84C,0.900001*%
%ADD85C,1.500000*%
%ADD86R,1.500000X1.500000*%
%ADD87C,2.999999*%
%ADD88C,1.200000*%
%ADD91O,0.399999X1.500000*%
%ADD92R,0.399999X1.500000*%
%LNgbr_bot-1*%
%LPD*%
G36*
X101600Y050800D02*
X000000D01*
Y000000*
X101600*
Y050800*
G37*
%LNgbr_bot-2*%
%LPC*%
G36*
X067421Y016528D02*
X067475Y016526D01*
X067528Y016521*
X067582Y016512*
X067635Y016500*
X067689Y016484*
X067742Y016465*
X067795Y016442*
X067848Y016416*
X067901Y016386*
X067954Y016353*
X067779Y017175*
X067746Y017128*
X067711Y017086*
X067673Y017049*
X067632Y017017*
X067588Y016990*
X067542Y016968*
X067493Y016950*
X067442Y016938*
X067387Y016931*
X067330Y016928*
X067421Y016528*
G37*
G36*
X068610Y033653D02*
X068665Y033651D01*
X068720Y033644*
X068773Y033633*
X068825Y033618*
X068875Y033598*
X068924Y033574*
X068972Y033545*
X069018Y033512*
X069063Y033475*
X069107Y033433*
Y034273*
X069063Y034231*
X069018Y034194*
X068972Y034161*
X068924Y034132*
X068875Y034108*
X068825Y034088*
X068773Y034073*
X068720Y034062*
X068665Y034055*
X068610Y034053*
Y033653*
G37*
G36*
X065799Y032649D02*
X065758Y032611D01*
X065715Y032578*
X065669Y032548*
X065622Y032522*
X065572Y032501*
X065521Y032483*
X065467Y032469*
X065410Y032460*
X065352Y032454*
X065291Y032453*
X065885Y031859*
X065887Y031920*
X065892Y031978*
X065902Y032034*
X065915Y032088*
X065933Y032140*
X065955Y032190*
X065980Y032237*
X066010Y032282*
X066044Y032325*
X066081Y032366*
X065799Y032649*
G37*
G36*
X066735Y026177D02*
X066738Y026233D01*
X066744Y026287*
X066755Y026340*
X066771Y026392*
X066791Y026442*
X066815Y026492*
X066843Y026539*
X066876Y026586*
X066914Y026631*
X066956Y026675*
X066115*
X066157Y026631*
X066195Y026586*
X066228Y026539*
X066256Y026492*
X066280Y026442*
X066300Y026392*
X066316Y026340*
X066327Y026287*
X066333Y026233*
X066335Y026177*
X066735*
G37*
G36*
X066585Y022779D02*
X066583Y022723D01*
X066577Y022669*
X066566Y022616*
X066550Y022564*
X066530Y022514*
X066506Y022465*
X066478Y022417*
X066445Y022370*
X066407Y022325*
X066365Y022282*
X067205*
X067164Y022325*
X067126Y022370*
X067093Y022417*
X067065Y022465*
X067040Y022514*
X067021Y022564*
X067005Y022616*
X066994Y022669*
X066988Y022723*
X066985Y022779*
X066585*
G37*
G36*
X066239Y015616D02*
X066277Y015575D01*
X066311Y015532*
X066341Y015487*
X066366Y015440*
X066388Y015390*
X066406Y015338*
X066419Y015284*
X066429Y015228*
X066434Y015170*
X066436Y015109*
X067029Y015703*
X066969Y015704*
X066911Y015710*
X066854Y015719*
X066800Y015733*
X066749Y015751*
X066699Y015772*
X066652Y015798*
X066606Y015828*
X066563Y015861*
X066522Y015899*
X066239Y015616*
G37*
G36*
X045240Y040366D02*
X045277Y040325D01*
X045311Y040282*
X045341Y040237*
X045366Y040190*
X045388Y040140*
X045406Y040088*
X045419Y040034*
X045429Y039978*
X045434Y039920*
X045436Y039859*
X046029Y040453*
X045969Y040454*
X045911Y040460*
X045854Y040469*
X045800Y040483*
X045749Y040501*
X045699Y040522*
X045652Y040548*
X045606Y040578*
X045563Y040611*
X045522Y040649*
X045240Y040366*
G37*
G36*
Y017116D02*
X045277Y017075D01*
X045311Y017032*
X045341Y016987*
X045366Y016940*
X045388Y016890*
X045406Y016838*
X045419Y016784*
X045429Y016728*
X045434Y016670*
X045436Y016609*
X046029Y017203*
X045969Y017204*
X045911Y017210*
X045854Y017219*
X045800Y017233*
X045749Y017251*
X045699Y017272*
X045652Y017298*
X045606Y017328*
X045563Y017361*
X045522Y017399*
X045240Y017116*
G37*
G36*
X046490Y009866D02*
X046528Y009825D01*
X046561Y009782*
X046591Y009737*
X046617Y009689*
X046638Y009640*
X046656Y009588*
X046669Y009534*
X046679Y009478*
X046684Y009419*
X046686Y009359*
X047280Y009953*
X047219Y009954*
X047161Y009960*
X047105Y009969*
X047051Y009983*
X046999Y010000*
X046949Y010022*
X046902Y010048*
X046857Y010077*
X046813Y010111*
X046773Y010149*
X046490Y009866*
G37*
G36*
X046828Y034153D02*
X046886Y034151D01*
X046940Y034143*
X046990Y034130*
X047036Y034113*
X047077Y034090*
X047115Y034062*
X047148Y034029*
X047176Y033991*
X047201Y033948*
X047221Y033900*
X047566Y034661*
X047511Y034641*
X047348Y034592*
X047295Y034580*
X047188Y034563*
X047135Y034557*
X047029Y034553*
X046828Y034153*
G37*
G36*
X046740Y017616D02*
X046777Y017575D01*
X046811Y017532*
X046841Y017487*
X046866Y017440*
X046888Y017390*
X046906Y017338*
X046919Y017284*
X046929Y017228*
X046934Y017170*
X046936Y017109*
X047529Y017703*
X047469Y017704*
X047411Y017710*
X047354Y017719*
X047300Y017733*
X047249Y017751*
X047199Y017772*
X047152Y017798*
X047106Y017828*
X047063Y017861*
X047022Y017899*
X046740Y017616*
G37*
G36*
X074830Y018614D02*
X075342Y019087D01*
X074554Y019245*
X074580Y019205*
X074598Y019166*
X074608Y019126*
X074612Y019085*
X074608Y019044*
X074597Y019002*
X074579Y018960*
X074553Y018917*
X074520Y018874*
X074479Y018830*
X074830Y018614*
G37*
G36*
X063387Y042285D02*
X063350Y042323D01*
X063316Y042364*
X063284Y042407*
X063253Y042452*
X063198Y042550*
X063173Y042603*
X063130Y042715*
X063111Y042774*
X062718Y042032*
X062771Y042046*
X062824Y042054*
X062875Y042057*
X062924Y042053*
X062973Y042044*
X063020Y042028*
X063066Y042007*
X063111Y041980*
X063155Y041947*
X063198Y041908*
X063387Y042285*
G37*
G36*
X057985Y041145D02*
X057988Y041204D01*
X057996Y041258*
X058008Y041307*
X058026Y041353*
X058049Y041395*
X058077Y041432*
X058110Y041465*
X058148Y041494*
X058191Y041518*
X058239Y041539*
X057477Y041883*
X057498Y041828*
X057547Y041665*
X057558Y041612*
X057576Y041505*
X057581Y041452*
X057585Y041346*
X057985Y041145*
G37*
G36*
X057585Y010779D02*
X057583Y010723D01*
X057577Y010669*
X057566Y010616*
X057550Y010564*
X057531Y010514*
X057506Y010465*
X057478Y010417*
X057445Y010370*
X057407Y010325*
X057366Y010282*
X058205*
X058164Y010325*
X058126Y010370*
X058093Y010417*
X058065Y010465*
X058040Y010514*
X058021Y010564*
X058005Y010616*
X057994Y010669*
X057988Y010723*
X057985Y010779*
X057585*
G37*
G36*
X057785Y012803D02*
X057385Y012403D01*
X057423Y012401*
X057458Y012395*
X057487Y012385*
X057513Y012371*
X057535Y012353*
X057553Y012331*
X057567Y012305*
X057577Y012275*
X057583Y012241*
X057585Y012203*
X057985*
X057987Y012241*
X057993Y012275*
X058003Y012305*
X058017Y012331*
X058035Y012353*
X058057Y012371*
X058083Y012385*
X058113Y012395*
X058147Y012401*
X058185Y012403*
X057785Y012803*
G37*
G36*
X064435Y042322D02*
X064446Y042541D01*
X064025*
X064027Y042538*
X064029Y042531*
X064030Y042520*
X064033Y042485*
X064035Y042322*
X064435*
G37*
G36*
X069860Y024303D02*
X069915Y024301D01*
X069970Y024294*
X070023Y024283*
X070074Y024268*
X070125Y024248*
X070174Y024224*
X070222Y024195*
X070268Y024162*
X070313Y024125*
X070357Y024083*
Y024923*
X070313Y024881*
X070268Y024844*
X070222Y024811*
X070174Y024782*
X070125Y024758*
X070074Y024738*
X070023Y024723*
X069970Y024712*
X069915Y024705*
X069860Y024703*
Y024303*
G37*
G36*
X060422Y013957D02*
X060522Y014056D01*
X060982Y014457*
X061013Y014473*
X061036Y014478*
X060660Y014853*
X060655Y014831*
X060640Y014799*
X060614Y014759*
X060577Y014711*
X060473Y014588*
X060238Y014340*
X060139Y014240*
X060422Y013957*
G37*
G36*
X007785Y030853D02*
X032285D01*
Y034979*
X032211Y035029*
X031510Y035729*
X021627*
X021614Y035631*
X021528Y035424*
X021392Y035247*
X021214Y035111*
X021007Y035025*
X020785Y034996*
X020564Y035025*
X020357Y035111*
X020179Y035247*
X020043Y035424*
X019957Y035631*
X019928Y035853*
X019957Y036075*
X020043Y036282*
X020109Y036367*
X020046Y036494*
X015576*
X015119Y036037*
X015143Y035853*
X015114Y035631*
X015028Y035424*
X014892Y035247*
X014714Y035111*
X014507Y035025*
X014285Y034996*
X014064Y035025*
X013857Y035111*
X013679Y035247*
X013543Y035424*
X013457Y035631*
X013428Y035853*
X013457Y036075*
X013543Y036282*
X013679Y036459*
X013857Y036596*
X014064Y036681*
X014285Y036710*
X014398Y036696*
X014422Y036726*
X014360Y036853*
X007785*
Y030853*
G37*
G36*
X048251Y034817D02*
X048392Y034709D01*
X048528Y034532*
X048614Y034325*
X048643Y034103*
X048614Y033881*
X048528Y033674*
X048392Y033497*
X048214Y033360*
X048008Y033275*
X048002Y033274*
X047946Y033139*
X048028Y033032*
X048114Y032825*
X048143Y032603*
X048114Y032381*
X048028Y032174*
X048124Y032091*
X048711Y032678*
X048860Y032777*
X049035Y032812*
X051267*
X051275Y032851*
X051330Y032933*
X051413Y032989*
X051510Y033008*
X052042*
X052777Y033743*
Y034403*
X052812Y034579*
X052911Y034728*
X052921Y034875*
X052858Y034944*
X048294*
X048251Y034817*
G37*
G36*
X033390Y011267D02*
X033596Y011062D01*
X039962*
X040005Y011189*
X039929Y011247*
X039816Y011394*
X033443*
X033390Y011267*
G37*
G36*
X055640Y016538D02*
Y016353D01*
X055621Y016256*
X055566Y016173*
X055483Y016118*
X055385Y016098*
X054994*
Y016015*
X054959Y015839*
X054860Y015690*
X053699Y014529*
X053748Y014412*
X055090*
X055405Y014728*
X055554Y014827*
X055730Y014862*
X055985*
X056013Y014891*
X056068Y014989*
X056056Y015053*
Y016153*
X056075Y016251*
X056130Y016333*
X056213Y016389*
X056310Y016408*
X056484*
X056508Y016446*
X056437Y016573*
X055885*
X055788Y016593*
X055767Y016606*
X055640Y016538*
G37*
G36*
X035110Y038529D02*
X035077Y038507D01*
X035051Y038336*
X035070Y038312*
X041785*
X041961Y038277*
X042110Y038178*
X044476Y035812*
X044631*
Y035878*
X044650Y035976*
X044705Y036058*
X044788Y036114*
X044885Y036133*
X045391*
X045394Y036143*
X045419Y036260*
X045293Y036424*
X045207Y036631*
X045178Y036853*
X045207Y037075*
X045287Y037267*
X045246Y037377*
X045238Y037394*
X045035*
X044860Y037429*
X044711Y037529*
X043345Y038894*
X035476*
X035110Y038529*
G37*
G36*
X042816Y042767D02*
X042892Y042709D01*
X043028Y042532*
X043114Y042325*
X043143Y042103*
X043114Y041881*
X043028Y041674*
X042991Y041626*
X043047Y041512*
X044836*
X045011Y041477*
X045160Y041378*
X045744Y040794*
X045755Y040785*
X045782Y040767*
X045811Y040751*
X045841Y040738*
X045873Y040728*
X045907Y040719*
X045944Y040713*
X045984Y040709*
X046019Y040708*
X046035Y040710*
X046257Y040681*
X046464Y040596*
X046466Y040594*
X046550Y040690*
X046461Y040779*
X046461Y040779*
X045711Y041529*
X044345Y042894*
X042859*
X042816Y042767*
G37*
G36*
X044800Y043717D02*
X044860Y043678D01*
X046360Y042178*
X047110Y041428*
X047351Y041186*
X047535Y041210*
X047757Y041181*
X047964Y041096*
X048142Y040959*
X048278Y040782*
X048364Y040575*
X048393Y040353*
X048364Y040131*
X048278Y039924*
X048142Y039747*
X047964Y039611*
X047757Y039525*
X047535Y039496*
X047314Y039525*
X047107Y039611*
X047000Y039693*
X046864Y039637*
X046864Y039631*
X046778Y039424*
X046642Y039247*
X046566Y039189*
X046609Y039062*
X052765*
X052979Y039276*
X052963Y039439*
X052908Y039476*
X052808Y039626*
X052773Y039803*
Y040226*
X053235*
Y040353*
X053362*
Y041405*
X053413Y041446*
X053404Y041573*
X053135*
X053038Y041593*
X052955Y041648*
X052900Y041731*
X052881Y041828*
Y042878*
X052900Y042976*
X052955Y043058*
X053038Y043114*
X053135Y043133*
X053935*
X054033Y043114*
X054116Y043058*
X054171Y042976*
X054190Y042878*
Y042417*
X054312Y042364*
X054325Y042368*
X054381Y042420*
Y042878*
X054400Y042976*
X054455Y043058*
X054538Y043114*
X054635Y043133*
X055435*
X055533Y043114*
X055616Y043058*
X055671Y042976*
X055690Y042878*
Y041828*
X055671Y041731*
X055616Y041648*
X055533Y041593*
X055435Y041573*
X054994*
Y041358*
X055385*
X055483Y041339*
X055566Y041283*
X055704Y041306*
X055705Y041308*
X055788Y041364*
X055827Y041371*
Y042103*
X055862Y042279*
X055881Y042307*
Y042878*
X055900Y042976*
X055955Y043058*
X056038Y043114*
X056135Y043133*
X056935*
X057033Y043114*
X057116Y043058*
X057171Y042976*
X057190Y042878*
Y042602*
X057317Y042564*
X057429Y042709*
X057607Y042846*
X057814Y042931*
X058035Y042960*
X058257Y042931*
X058464Y042846*
X058642Y042709*
X058778Y042532*
X058864Y042325*
X058893Y042103*
X058864Y041881*
X058778Y041674*
X058642Y041497*
X058464Y041361*
X058421Y041226*
X058440Y041128*
Y040078*
X058421Y039981*
X058366Y039898*
X058283Y039843*
X058185Y039823*
X058034*
X058013Y039789*
X058085Y039662*
X058133*
Y038853*
X058387*
Y039662*
X058760*
X058860Y039642*
X058944Y039586*
X059000Y039502*
X059019Y039403*
Y039119*
X059146Y039081*
X059211Y039178*
X059961Y039928*
X060110Y040027*
X060267Y040058*
X060275Y040101*
X060329Y040182*
X060305Y040198*
X060250Y040281*
X060231Y040378*
Y041378*
X060250Y041476*
X060274Y041511*
X060302Y041645*
X060246Y041729*
X060227Y041828*
Y042201*
X061035*
Y042328*
X061162*
Y043087*
X061585*
X061685Y043067*
X061788Y043033*
X061846Y043101*
X061929Y043209*
X062107Y043346*
X062314Y043431*
X062535Y043460*
X062757Y043431*
X062964Y043346*
X063142Y043209*
X063256Y043061*
X063364Y043098*
X063379Y043109*
X063407Y043325*
X063493Y043532*
X063629Y043709*
X063649Y043724*
X063608Y043844*
X044839*
X044800Y043717*
G37*
G36*
X032872Y014169D02*
X032751D01*
X032095Y013514*
X032144Y013397*
X032200*
X032376Y013362*
X032525Y013263*
X032577Y013210*
X032698Y013251*
X032707Y013325*
X032793Y013532*
X032929Y013709*
X033107Y013846*
X033314Y013931*
X033536Y013960*
X033757Y013931*
X033964Y013846*
X034142Y013709*
X034278Y013532*
X034364Y013325*
X034393Y013103*
X034429Y013062*
X039345*
X039711Y013428*
X039860Y013527*
X040035Y013562*
X042012*
X042060Y013679*
X041545Y014194*
X034498*
X034372Y014169*
X033199*
X033073Y014194*
X032998*
X032872Y014169*
G37*
G36*
X059844Y012103D02*
X059825Y012004D01*
X059769Y011920*
X059797Y011786*
X059821Y011751*
X059840Y011653*
Y010653*
X059821Y010556*
X059766Y010473*
X059683Y010418*
X059585Y010398*
X059494*
Y009121*
X059533Y009114*
X059616Y009058*
X059671Y008976*
X059690Y008878*
Y008812*
X060231*
Y008878*
X060250Y008976*
X060305Y009058*
Y009148*
X060250Y009231*
X060231Y009328*
Y010328*
X060250Y010426*
X060305Y010508*
X060388Y010564*
X060485Y010583*
X060577*
Y010948*
X060510*
X060413Y010968*
X060330Y011023*
X060275Y011106*
X060256Y011203*
Y012003*
X060258Y012017*
X060163Y012144*
X059844*
Y012103*
G37*
G36*
X032892Y019497D02*
X032816Y019439D01*
X032859Y019312*
X041316*
X041430Y019459*
X041505Y019517*
X041462Y019644*
X033005*
X032892Y019497*
G37*
G36*
Y042747D02*
X032816Y042689D01*
X032859Y042562*
X041566*
X041679Y042709*
X041755Y042767*
X041712Y042894*
X033005*
X032892Y042747*
G37*
G36*
X046864Y036631D02*
X046778Y036424D01*
X046652Y036260*
X046677Y036143*
X046680Y036133*
X047185*
X047283Y036114*
X047366Y036058*
X047421Y035976*
X047440Y035878*
Y035862*
X053155*
X053330Y035827*
X053479Y035728*
X054210Y034997*
X054309Y034848*
X054440Y034843*
X054535Y034862*
X054600Y034849*
X054727Y034953*
Y036189*
X054762Y036365*
X054861Y036514*
X054974Y036627*
X054925Y036744*
X046879*
X046864Y036631*
G37*
G36*
X061840Y017628D02*
X061821Y017531D01*
X061766Y017448*
X061683Y017393*
X061585Y017373*
X061494*
Y017008*
X061560*
X061658Y016989*
X061741Y016933*
X061796Y016851*
X061815Y016753*
Y015953*
X061796Y015856*
X061741Y015773*
X061658Y015718*
X061560Y015698*
X060510*
X060413Y015718*
X060345Y015763*
X059994Y015413*
Y015103*
X059959Y014928*
X059860Y014779*
X059411Y014329*
X059459Y014212*
X059745*
X060134Y014600*
X060256Y014729*
Y015253*
X060275Y015351*
X060330Y015433*
X060413Y015489*
X060510Y015508*
X061560*
X061658Y015489*
X061741Y015433*
X061785Y015367*
X062535*
X062732Y015328*
X062899Y015216*
X063045Y015070*
X063156Y014904*
X063195Y014707*
Y012923*
X063291Y012849*
X063425Y012874*
X063461Y012928*
X064685Y014152*
X064679Y014247*
X064543Y014424*
X064457Y014631*
X064428Y014853*
X064457Y015075*
X064543Y015282*
X064656Y015429*
X064660Y015538*
X064646Y015594*
X062570Y017669*
X061840*
Y017628*
G37*
G36*
X057945Y019348D02*
Y018608D01*
X058117Y018435*
X058217Y018286*
X058250Y018120*
X058283Y018114*
X058366Y018058*
X058421Y017976*
X058440Y017878*
Y016828*
X058421Y016731*
X058366Y016648*
X058283Y016593*
X058185Y016573*
X058034*
X058013Y016539*
X058085Y016412*
X058133*
Y015603*
X058387*
Y016412*
X058421*
X058711Y016703*
X058860Y016802*
X059036Y016837*
X059211Y016802*
X059360Y016703*
X059459Y016554*
X059492Y016388*
X059531Y016364*
X059614Y016331*
X059961Y016678*
X060110Y016777*
X060267Y016808*
X060275Y016851*
X060330Y016933*
X060413Y016989*
X060510Y017008*
X060577*
Y017373*
X060485*
X060388Y017393*
X060305Y017448*
X060250Y017531*
X060231Y017628*
Y018628*
X060250Y018726*
X060274Y018761*
X060302Y018895*
X060246Y018979*
X060227Y019078*
Y019451*
X061035*
Y019705*
X060227*
Y020078*
X060172Y020144*
X058741*
X057945Y019348*
G37*
G36*
X063563Y039697D02*
X063614Y039575D01*
X063643Y039353*
X063614Y039131*
X063528Y038924*
X063392Y038747*
X063244Y038634*
Y038605*
X063245Y038603*
X063210Y038428*
X063110Y038279*
X062610Y037779*
X062461Y037679*
X062285Y037644*
X061804*
X061796Y037606*
X061741Y037523*
X061658Y037468*
X061560Y037448*
X061029*
X060711Y037129*
X060759Y037012*
X060908*
Y036353*
X061035*
Y036226*
X061819*
Y035953*
X061800Y035854*
X061744Y035770*
X061660Y035714*
X061560Y035694*
X061073*
X061028Y035635*
X061091Y035508*
X061560*
X061658Y035489*
X061741Y035433*
X061796Y035351*
X061815Y035253*
Y034453*
X061796Y034356*
X061741Y034273*
X061658Y034218*
X061560Y034198*
X061494*
Y033773*
X061516Y033758*
X061571Y033676*
X061590Y033578*
Y033531*
X061736Y033502*
X061885Y033403*
X061963Y033325*
X062083Y033384*
X062112Y033529*
X062211Y033678*
X063827Y035293*
Y039613*
X063671Y039769*
X063563Y039697*
G37*
G36*
X034143Y036603D02*
X034114Y036381D01*
X034028Y036174*
X033892Y035997*
X033816Y035939*
X033859Y035812*
X039536*
X039711Y035777*
X039741Y035757*
X039857Y035846*
X040064Y035931*
X040286Y035960*
X040507Y035931*
X040714Y035846*
X040892Y035709*
X041028Y035532*
X041114Y035325*
X041143Y035103*
X041114Y034881*
X041028Y034674*
X040892Y034497*
X040714Y034361*
X040507Y034275*
X040499Y034274*
X040508Y034147*
X042450*
X042626Y034112*
X042775Y034013*
X042976Y033812*
X044001*
X044020Y033836*
X043994Y034007*
X043961Y034029*
X041345Y036644*
X034179*
X034143Y036603*
G37*
G36*
X055640Y039788D02*
Y039603D01*
X055621Y039506*
X055566Y039423*
X055483Y039368*
X055385Y039348*
X054994*
Y039265*
X054959Y039089*
X054860Y038940*
X053699Y037779*
X053748Y037662*
X055090*
X055405Y037978*
X055554Y038077*
X055730Y038112*
X055985*
X056013Y038141*
X056068Y038239*
X056056Y038303*
Y039403*
X056075Y039501*
X056130Y039583*
X056213Y039639*
X056310Y039658*
X056484*
X056508Y039696*
X056437Y039823*
X055885*
X055788Y039843*
X055767Y039856*
X055640Y039788*
G37*
G36*
X048251Y011567D02*
X048392Y011459D01*
X048528Y011282*
X048614Y011075*
X048643Y010853*
X048614Y010631*
X048528Y010424*
X048392Y010247*
X048214Y010110*
X048008Y010025*
X048002Y010024*
X047946Y009889*
X048028Y009782*
X048114Y009575*
X048143Y009353*
X048114Y009131*
X048028Y008924*
X048124Y008841*
X048711Y009428*
X048860Y009527*
X049035Y009562*
X051267*
X051275Y009601*
X051330Y009683*
X051413Y009739*
X051510Y009758*
X052042*
X052777Y010493*
Y011153*
X052812Y011329*
X052911Y011478*
X052921Y011625*
X052858Y011694*
X048294*
X048251Y011567*
G37*
G36*
X034440Y017628D02*
Y017312D01*
X039417*
X039456Y017439*
X039396Y017479*
X039131Y017744*
X034547*
X034440Y017628*
G37*
G36*
X006794Y006862D02*
X038535D01*
Y008353*
X040035*
Y008312*
X043035*
X043211Y008277*
X043233Y008262*
X043810*
X043910Y008242*
X043994Y008186*
X044050Y008102*
X044069Y008003*
Y007203*
X044050Y007104*
X043994Y007020*
X043947Y006989*
X043985Y006862*
X051336*
X051374Y006989*
X051327Y007020*
X051271Y007104*
X051252Y007203*
Y007476*
X052035*
X052819*
Y007203*
X052800Y007104*
X052744Y007020*
X052697Y006989*
X052735Y006862*
X070035*
Y010860*
X084839*
Y006862*
X094777*
Y041516*
X069781*
Y043844*
X064863*
X064822Y043724*
X064842Y043709*
X064978Y043532*
X065064Y043325*
X065093Y043103*
X065064Y042881*
X064978Y042674*
X064842Y042497*
X064834Y042373*
X066010Y041197*
X066109Y041048*
X066144Y040872*
Y034003*
X066109Y033827*
X066010Y033679*
X065152Y032821*
X065212Y032701*
X065286Y032710*
X065302Y032708*
X065337Y032709*
X065377Y032713*
X065414Y032719*
X065448Y032728*
X065480Y032738*
X065510Y032751*
X065539Y032767*
X065566Y032785*
X065577Y032794*
X066961Y034178*
X067110Y034277*
X067285Y034312*
X068664*
X068678Y034314*
X068710Y034320*
X068741Y034329*
X068772Y034341*
X068802Y034356*
X068832Y034374*
X068863Y034396*
X068894Y034422*
X068919Y034446*
X068929Y034459*
X069107Y034596*
X069314Y034681*
X069535Y034710*
X069757Y034681*
X069964Y034596*
X070142Y034459*
X070278Y034282*
X070364Y034075*
X070393Y033853*
X070364Y033631*
X070278Y033424*
X070142Y033247*
X069964Y033111*
X069757Y033025*
X069535Y032996*
X069314Y033025*
X069107Y033111*
X068929Y033247*
X068919Y033260*
X068894Y033284*
X068863Y033310*
X068832Y033332*
X068802Y033350*
X068772Y033365*
X068741Y033377*
X068710Y033386*
X068678Y033393*
X068664Y033394*
X067476*
X066226Y032145*
X066217Y032133*
X066199Y032106*
X066184Y032078*
X066171Y032048*
X066160Y032016*
X066151Y031982*
X066145Y031945*
X066141Y031905*
X066141Y031869*
X066143Y031853*
X066114Y031631*
X066028Y031424*
X065892Y031247*
X065714Y031111*
X065507Y031025*
X065286Y030996*
X065064Y031025*
X064857Y031111*
X064679Y031247*
X064621Y031322*
X064494Y031279*
Y030793*
X066676Y028612*
X066970*
X067146Y028577*
X067295Y028478*
X067910Y027862*
X068009Y027714*
X068044Y027538*
Y027243*
X068110Y027178*
X068209Y027029*
X068244Y026853*
Y025043*
X068326Y024962*
X069914*
X069928Y024964*
X069960Y024970*
X069991Y024979*
X070022Y024991*
X070052Y025006*
X070082Y025024*
X070113Y025046*
X070144Y025072*
X070169Y025096*
X070179Y025109*
X070357Y025246*
X070564Y025331*
X070785Y025360*
X071007Y025331*
X071214Y025246*
X071392Y025109*
X071528Y024932*
X071614Y024725*
X071643Y024503*
X071614Y024281*
X071528Y024074*
X071392Y023897*
X071214Y023761*
X071007Y023675*
X070785Y023646*
X070564Y023675*
X070357Y023761*
X070179Y023897*
X070169Y023910*
X070144Y023934*
X070113Y023960*
X070082Y023982*
X070052Y024000*
X070022Y024015*
X069991Y024027*
X069960Y024036*
X069928Y024043*
X069914Y024044*
X068135*
X067960Y024079*
X067811Y024179*
X067461Y024529*
X067362Y024678*
X067327Y024853*
Y026529*
X067200Y026572*
X067142Y026497*
X067129Y026487*
X067104Y026461*
X067079Y026430*
X067057Y026400*
X067039Y026369*
X067024Y026339*
X067012Y026309*
X067003Y026278*
X066996Y026246*
X066994Y026232*
Y024543*
X067110Y024428*
X067209Y024279*
X067244Y024103*
Y022724*
X067246Y022710*
X067253Y022678*
X067262Y022647*
X067274Y022617*
X067289Y022587*
X067307Y022556*
X067329Y022526*
X067354Y022495*
X067379Y022469*
X067392Y022459*
X067528Y022282*
X067614Y022075*
X067643Y021853*
X067614Y021631*
X067528Y021424*
X067449Y021321*
X067512Y021194*
X068978*
X070461Y022678*
X070610Y022777*
X070785Y022812*
X073566*
X073679Y022959*
X073857Y023096*
X074064Y023181*
X074285Y023210*
X074507Y023181*
X074714Y023096*
X074892Y022959*
X075028Y022782*
X075114Y022575*
X075143Y022353*
X075114Y022131*
X075028Y021924*
X074892Y021747*
X074714Y021611*
X074507Y021525*
X074285Y021496*
X074064Y021525*
X073857Y021611*
X073679Y021747*
X073566Y021894*
X073109*
X073066Y021767*
X073142Y021709*
X073278Y021532*
X073364Y021325*
X073393Y021103*
X073364Y020881*
X073278Y020674*
X073142Y020497*
X072964Y020361*
X072757Y020275*
X072535Y020246*
X072314Y020275*
X072208Y020319*
X072142Y020209*
X072278Y020032*
X072364Y019825*
X072393Y019603*
X072364Y019381*
X072278Y019174*
X072142Y018997*
X071964Y018861*
X071757Y018775*
X071536Y018746*
X071314Y018775*
X071107Y018861*
X071014Y018932*
X070760Y018679*
X070809Y018562*
X073845*
X074334Y019051*
X074342Y019060*
X074352Y019077*
X074355Y019084*
X074340Y019106*
X074335Y019120*
X074293Y019174*
X074207Y019381*
X074178Y019603*
X074207Y019825*
X074293Y020032*
X074429Y020209*
X074607Y020346*
X074814Y020431*
X075035Y020460*
X075257Y020431*
X075464Y020346*
X075642Y020209*
X075778Y020032*
X075864Y019825*
X075893Y019603*
X075864Y019381*
X075778Y019174*
X075642Y018997*
X075511Y018897*
X075078Y018497*
X074360Y017779*
X074211Y017679*
X074035Y017644*
X068859*
X068816Y017517*
X068892Y017459*
X069028Y017282*
X069114Y017075*
X069143Y016853*
X069114Y016631*
X069028Y016424*
X068892Y016247*
X068714Y016111*
X068507Y016025*
X068285Y015996*
X068064Y016025*
X067857Y016111*
X067826Y016134*
X067818Y016137*
X067771Y016167*
X067729Y016191*
X067688Y016211*
X067648Y016228*
X067609Y016242*
X067571Y016253*
X067533Y016262*
X067495Y016268*
X067485Y016269*
X066698*
X066645Y016142*
X066744Y016044*
X066755Y016035*
X066782Y016017*
X066811Y016001*
X066841Y015988*
X066873Y015978*
X066907Y015969*
X066944Y015963*
X066984Y015959*
X067019Y015958*
X067035Y015960*
X067257Y015931*
X067464Y015846*
X067642Y015709*
X067778Y015532*
X067864Y015325*
X067893Y015103*
X067864Y014881*
X067778Y014674*
X067642Y014497*
X067464Y014361*
X067257Y014275*
X067035Y014246*
X066814Y014275*
X066607Y014361*
X066429Y014497*
X066293Y014674*
X066258Y014758*
X066128Y014741*
X066114Y014631*
X066028Y014424*
X065892Y014247*
X065816Y014189*
X065858Y014064*
X065866Y014062*
X067595*
X068434Y014901*
X068457Y015075*
X068543Y015282*
X068679Y015459*
X068857Y015596*
X069064Y015681*
X069285Y015710*
X069507Y015681*
X069714Y015596*
X069892Y015459*
X070028Y015282*
X070114Y015075*
X070143Y014853*
X070114Y014631*
X070028Y014424*
X069892Y014247*
X069714Y014111*
X069507Y014025*
X069285Y013996*
X069064Y014025*
X068917Y014086*
X068110Y013279*
X067961Y013179*
X067785Y013144*
X065976*
X064994Y012163*
Y009853*
X064959Y009678*
X064860Y009529*
X063610Y008279*
X063461Y008179*
X063285Y008144*
X061840*
Y007878*
X061821Y007781*
X061766Y007698*
X061683Y007643*
X061585Y007623*
X060485*
X060388Y007643*
X060305Y007698*
X060250Y007781*
X060231Y007878*
Y007894*
X059690*
Y007828*
X059671Y007731*
X059616Y007648*
X059533Y007593*
X059435Y007573*
X058635*
X058538Y007593*
X058455Y007648*
X058400Y007731*
X058381Y007828*
Y008878*
X058400Y008976*
X058455Y009058*
X058538Y009114*
X058577Y009121*
Y010214*
X058450Y010230*
X058441Y010184*
X058439Y010182*
X058439Y010179*
X058412Y010140*
X058386Y010101*
X058383Y010100*
X058382Y010097*
X058342Y010072*
X058303Y010046*
X058300Y010046*
X058298Y010044*
X058251Y010036*
X058244Y010034*
Y009853*
X058209Y009678*
X058110Y009529*
X057961Y009429*
X057785Y009394*
X057610Y009429*
X057461Y009529*
X057362Y009678*
X057327Y009853*
Y010034*
X057320Y010036*
X057273Y010044*
X057271Y010046*
X057268Y010046*
X057229Y010072*
X057189Y010097*
X057188Y010100*
X057185Y010101*
X057159Y010140*
X057132Y010179*
X057132Y010182*
X057130Y010184*
X057121Y010230*
X057111Y010276*
X057111Y010279*
X057111Y010282*
X057043Y010375*
X057004Y010398*
X056429*
X056310Y010279*
X056161Y010179*
X055985Y010144*
X055644*
Y010053*
X055626Y009963*
X055661Y009827*
X055810Y009728*
X056110Y009428*
X056209Y009279*
X056241Y009122*
X056283Y009114*
X056366Y009058*
X056421Y008976*
X056440Y008878*
Y008812*
X056881*
Y008878*
X056900Y008976*
X056955Y009058*
X057038Y009114*
X057135Y009133*
X057935*
X058033Y009114*
X058116Y009058*
X058171Y008976*
X058190Y008878*
Y007828*
X058171Y007731*
X058116Y007648*
X058033Y007593*
X057935Y007573*
X057135*
X057038Y007593*
X056955Y007648*
X056900Y007731*
X056881Y007828*
Y007894*
X056440*
Y007828*
X056421Y007731*
X056366Y007648*
X056283Y007593*
X056185Y007573*
X055385*
X055288Y007593*
X055205Y007648*
X055150Y007731*
X055131Y007828*
Y008878*
X055106Y008908*
X055055*
X054940Y008791*
Y007828*
X054921Y007731*
X054866Y007648*
X054783Y007593*
X054685Y007573*
X053885*
X053788Y007593*
X053705Y007648*
X053650Y007731*
X053631Y007828*
Y008359*
X053561Y008429*
X053462Y008578*
X053427Y008753*
Y009503*
X053300Y009607*
X053235Y009594*
X053185Y009604*
X052815Y009234*
Y008703*
X052796Y008606*
X052741Y008523*
X052658Y008468*
X052560Y008448*
X051510*
X051413Y008468*
X051330Y008523*
X051275Y008606*
X051267Y008644*
X049226*
X048560Y007978*
X048411Y007879*
X048235Y007844*
X046336*
X046160Y007879*
X046011Y007978*
X045345Y008644*
X044054*
X044046Y008606*
X043991Y008523*
X043908Y008468*
X043810Y008448*
X042760*
X042663Y008468*
X042580Y008523*
X042525Y008606*
X042506Y008703*
Y009503*
X042525Y009601*
X042580Y009683*
X042663Y009739*
X042760Y009758*
X043810*
X043908Y009739*
X043991Y009683*
X044046Y009601*
X044054Y009562*
X045535*
X045711Y009527*
X045860Y009428*
X046449Y008838*
X046545Y008922*
X046543Y008924*
X046458Y009131*
X046428Y009353*
X046431Y009369*
X046430Y009405*
X046426Y009445*
X046420Y009481*
X046411Y009516*
X046400Y009548*
X046387Y009578*
X046372Y009606*
X046354Y009633*
X046345Y009645*
X046095Y009894*
X043785*
X043610Y009929*
X043461Y010029*
X042845Y010644*
X041976*
X041610Y010279*
X041461Y010179*
X041285Y010144*
X033405*
X033230Y010179*
X033081Y010279*
X032658Y010702*
X032540Y010653*
Y007603*
X032521Y007506*
X032466Y007423*
X032383Y007368*
X032285Y007348*
X007785*
X007688Y007368*
X007605Y007423*
X007550Y007506*
X007531Y007603*
Y013603*
X007550Y013701*
X007605Y013783*
Y013923*
X007550Y014006*
X007531Y014103*
Y020103*
X007550Y020201*
X007605Y020283*
X007688Y020339*
X007785Y020358*
X019928*
X019961Y020351*
X019968Y020351*
X020043Y020532*
X020179Y020709*
X020357Y020846*
X020564Y020931*
X020785Y020960*
X021007Y020931*
X021100Y020893*
X021120Y020897*
X029950*
X030126Y020862*
X030275Y020763*
X031449Y019589*
X031544Y019673*
X031543Y019674*
X031457Y019881*
X031428Y020103*
X031457Y020325*
X031543Y020532*
X031679Y020709*
X031857Y020846*
X032064Y020931*
X032285Y020960*
X032507Y020931*
X032714Y020846*
X032892Y020709*
X033005Y020562*
X042535*
X042711Y020527*
X042860Y020428*
X044226Y019062*
X046036*
X046211Y019027*
X046360Y018928*
X047244Y018044*
X047255Y018035*
X047282Y018017*
X047311Y018001*
X047341Y017988*
X047373Y017978*
X047407Y017969*
X047444Y017963*
X047484Y017959*
X047519Y017958*
X047535Y017960*
X047757Y017931*
X047964Y017846*
X048142Y017709*
X048278Y017532*
X048364Y017325*
X048393Y017103*
X048364Y016881*
X048278Y016674*
X048142Y016497*
X047964Y016361*
X047757Y016275*
X047535Y016246*
X047314Y016275*
X047107Y016361*
X047000Y016443*
X046864Y016387*
X046864Y016381*
X046778Y016174*
X046642Y015997*
X046566Y015939*
X046609Y015812*
X052765*
X052979Y016026*
X052963Y016189*
X052908Y016226*
X052808Y016376*
X052773Y016553*
Y016976*
X053235*
Y017103*
X053362*
Y018155*
X053413Y018196*
X053404Y018323*
X053135*
X053038Y018343*
X052955Y018398*
X052900Y018481*
X052881Y018578*
Y019628*
X052900Y019726*
X052955Y019808*
X053038Y019864*
X053135Y019883*
X053935*
X054033Y019864*
X054116Y019808*
X054171Y019726*
X054190Y019628*
Y019167*
X054312Y019114*
X054325Y019118*
X054381Y019170*
Y019628*
X054400Y019726*
X054455Y019808*
X054538Y019864*
X054635Y019883*
X055435*
X055533Y019864*
X055616Y019808*
X055671Y019726*
X055690Y019628*
Y018578*
X055671Y018481*
X055616Y018398*
X055533Y018343*
X055435Y018323*
X054994*
Y018108*
X055385*
X055483Y018089*
X055566Y018033*
X055704Y018056*
X055705Y018058*
X055788Y018114*
X055827Y018121*
Y018853*
X055862Y019029*
X055881Y019057*
Y019628*
X055900Y019726*
X055955Y019808*
X056038Y019864*
X056135Y019883*
X056935*
X057033Y019864*
X057116Y019808*
X057152Y019849*
X057161Y019862*
X058227Y020928*
X058375Y021027*
X058551Y021062*
X062285*
X062461Y021027*
X062610Y020928*
X062709Y020828*
X062827Y020877*
Y026163*
X060711Y028279*
X060612Y028428*
X060577Y028603*
Y030873*
X060235*
X060138Y030893*
X060055Y030948*
X060000Y031031*
X059981Y031128*
Y031144*
X059690*
Y031078*
X059671Y030981*
X059616Y030898*
X059533Y030843*
X059435Y030823*
X058635*
X058538Y030843*
X058455Y030898*
X058400Y030981*
X058381Y031078*
Y032128*
X058400Y032226*
X058455Y032308*
X058538Y032364*
X058577Y032371*
Y033648*
X058485*
X058388Y033668*
X058305Y033723*
X058250Y033806*
X058231Y033903*
Y034903*
X058250Y035001*
X058274Y035036*
X058302Y035170*
X058246Y035254*
X058227Y035353*
Y035726*
X059036*
Y035980*
X058227*
Y036353*
X058239Y036417*
X058183Y036516*
X058155Y036544*
X057416*
X057388Y036516*
X057332Y036417*
X057344Y036353*
Y035980*
X056535*
Y035726*
X057344*
Y035353*
X057325Y035254*
X057269Y035170*
X057297Y035036*
X057321Y035001*
X057340Y034903*
Y033903*
X057321Y033806*
X057266Y033723*
X057183Y033668*
X057085Y033648*
X056429*
X056310Y033529*
X056161Y033429*
X055985Y033394*
X055644*
Y033303*
X055626Y033213*
X055661Y033077*
X055810Y032978*
X056110Y032678*
X056209Y032529*
X056241Y032372*
X056283Y032364*
X056366Y032308*
X056421Y032226*
X056440Y032128*
Y032062*
X056881*
Y032128*
X056900Y032226*
X056955Y032308*
X057038Y032364*
X057135Y032383*
X057935*
X058033Y032364*
X058116Y032308*
X058171Y032226*
X058190Y032128*
Y031078*
X058171Y030981*
X058116Y030898*
X058033Y030843*
X057935Y030823*
X057135*
X057038Y030843*
X056955Y030898*
X056900Y030981*
X056881Y031078*
Y031144*
X056440*
Y031078*
X056421Y030981*
X056366Y030898*
X056283Y030843*
X056185Y030823*
X055385*
X055288Y030843*
X055205Y030898*
X055150Y030981*
X055131Y031078*
Y032128*
X055106Y032158*
X055055*
X054940Y032041*
Y031078*
X054921Y030981*
X054866Y030898*
X054783Y030843*
X054685Y030823*
X053885*
X053788Y030843*
X053705Y030898*
X053650Y030981*
X053631Y031078*
Y031609*
X053561Y031679*
X053462Y031828*
X053427Y032003*
Y032753*
X053300Y032857*
X053235Y032844*
X053185Y032854*
X052815Y032484*
Y031953*
X052796Y031856*
X052741Y031773*
X052658Y031718*
X052560Y031698*
X051510*
X051413Y031718*
X051330Y031773*
X051275Y031856*
X051267Y031894*
X049226*
X048560Y031228*
X048411Y031129*
X048235Y031094*
X046336*
X046160Y031129*
X046011Y031228*
X045345Y031894*
X044054*
X044046Y031856*
X043991Y031773*
X043908Y031718*
X043810Y031698*
X042760*
X042663Y031718*
X042580Y031773*
X042525Y031856*
X042506Y031953*
Y032753*
X042525Y032851*
X042580Y032933*
Y032949*
X042461Y033029*
X042260Y033229*
X039700*
X039525Y033264*
X039376Y033364*
X038595Y034144*
X032540*
Y030853*
X032574Y030812*
X041345*
X041711Y031178*
X041860Y031277*
X042035Y031312*
X042513*
X042521Y031352*
X042577Y031436*
X042661Y031492*
X042760Y031512*
X043810*
X043910Y031492*
X043994Y031436*
X044050Y031352*
X044069Y031253*
Y030453*
X044050Y030354*
X043994Y030270*
X043910Y030214*
X043810Y030194*
X042760*
X042661Y030214*
X042577Y030270*
X042521Y030354*
X042513Y030394*
X042226*
X041860Y030029*
X041711Y029929*
X041535Y029894*
X021535*
Y029103*
X019785*
Y030598*
X007785*
X007688Y030618*
X007605Y030673*
X007550Y030756*
X007531Y030853*
Y036853*
X007550Y036951*
X007605Y037033*
Y037173*
X007550Y037256*
X007531Y037353*
Y043353*
X007550Y043451*
X007605Y043533*
X007688Y043589*
X007785Y043608*
X019928*
X019961Y043601*
X019968Y043601*
X020016Y043717*
X019940Y043844*
X006794*
Y006862*
G37*
G36*
X046864Y013381D02*
X046778Y013174D01*
X046652Y013010*
X046677Y012893*
X046680Y012883*
X047185*
X047283Y012864*
X047366Y012808*
X047421Y012726*
X047440Y012628*
Y012612*
X053155*
X053330Y012577*
X053479Y012478*
X054210Y011747*
X054309Y011598*
X054440Y011593*
X054535Y011612*
X054600Y011599*
X054727Y011703*
Y012939*
X054762Y013115*
X054861Y013264*
X054974Y013377*
X054925Y013494*
X046879*
X046864Y013381*
G37*
G36*
X035110Y015279D02*
X035050Y015239D01*
X035089Y015112*
X041735*
X041911Y015077*
X042060Y014978*
X044476Y012562*
X044631*
Y012628*
X044650Y012726*
X044705Y012808*
X044788Y012864*
X044885Y012883*
X045391*
X045394Y012893*
X045419Y013010*
X045293Y013174*
X045207Y013381*
X045178Y013603*
X045207Y013825*
X045287Y014017*
X045246Y014127*
X045238Y014144*
X045035*
X044860Y014179*
X044711Y014279*
X043345Y015644*
X035476*
X035110Y015279*
G37*
G36*
X061815Y011987D02*
Y011203D01*
X061796Y011106*
X061741Y011023*
X061658Y010968*
X061560Y010948*
X061494*
Y010583*
X061585*
X061683Y010564*
X061766Y010508*
X061821Y010426*
X061840Y010328*
Y010287*
X062820*
X063377Y010843*
Y011342*
X063263Y011398*
X063214Y011361*
X063007Y011275*
X062785Y011246*
X062564Y011275*
X062357Y011361*
X062179Y011497*
X062043Y011674*
X061957Y011881*
X061942Y011995*
X061815Y011987*
G37*
G36*
X007785Y007603D02*
X032285D01*
Y012204*
X032010Y012479*
X021627*
X021614Y012381*
X021528Y012174*
X021392Y011997*
X021214Y011861*
X021007Y011775*
X020785Y011746*
X020564Y011775*
X020357Y011861*
X020179Y011997*
X020043Y012174*
X019957Y012381*
X019928Y012603*
X019957Y012825*
X020043Y013032*
X020080Y013080*
X020024Y013194*
X016526*
X015619Y012287*
X015643Y012103*
X015614Y011881*
X015528Y011674*
X015392Y011497*
X015214Y011361*
X015007Y011275*
X014786Y011246*
X014564Y011275*
X014357Y011361*
X014179Y011497*
X014043Y011674*
X013957Y011881*
X013928Y012103*
X013957Y012325*
X014043Y012532*
X014179Y012709*
X014357Y012846*
X014564Y012931*
X014786Y012960*
X014970Y012936*
X015519Y013486*
X015471Y013603*
X007785*
Y007603*
G37*
G36*
Y014103D02*
X014887D01*
X015461Y014678*
X015610Y014777*
X015785Y014812*
X030845*
X031631Y015597*
Y016128*
X031650Y016226*
X031674Y016261*
X031702Y016395*
X031646Y016479*
X031627Y016578*
Y016976*
X032285*
Y017230*
X031627*
Y017628*
X031646Y017727*
X031702Y017811*
X031786Y017867*
X031885Y017887*
X032285*
Y018394*
X031536*
X031360Y018429*
X031211Y018528*
X029760Y019979*
X021627*
X021614Y019881*
X021528Y019674*
X021392Y019497*
X021214Y019361*
X021007Y019275*
X020785Y019246*
X020564Y019275*
X020357Y019361*
X020179Y019497*
X020043Y019674*
X019957Y019881*
X019928Y020103*
X007785*
Y014103*
G37*
G36*
Y037353D02*
X012637D01*
X012711Y037428*
X012860Y037527*
X013035Y037562*
X014330*
X014696Y037928*
X014845Y038027*
X015020Y038062*
X030845*
X031631Y038847*
Y039378*
X031650Y039476*
X031674Y039511*
X031702Y039645*
X031646Y039729*
X031627Y039828*
Y040226*
X032285*
Y040480*
X031627*
Y040878*
X031646Y040977*
X031702Y041061*
X031786Y041117*
X031885Y041137*
X032285*
Y041644*
X031537*
X031536Y041644*
X031360Y041679*
X031211Y041778*
X029760Y043229*
X021627*
X021614Y043131*
X021528Y042924*
X021392Y042747*
X021214Y042611*
X021007Y042525*
X020785Y042496*
X020564Y042525*
X020357Y042611*
X020179Y042747*
X020043Y042924*
X019957Y043131*
X019928Y043353*
X007785*
Y037353*
G37*
%LNgbr_bot-3*%
%LPD*%
G36*
X009130Y035615D02*
X010182Y034563D01*
X009130Y033511*
X009070Y033584*
X008907Y033889*
X008807Y034219*
X008773Y034563*
X008807Y034907*
X008907Y035238*
X009070Y035542*
X009130Y035615*
G37*
G36*
X010535Y034210D02*
X011588Y033157D01*
X011515Y033098*
X011210Y032935*
X010879Y032834*
X010535Y032801*
X010192Y032834*
X009861Y032935*
X009556Y033098*
X009483Y033157*
X010535Y034210*
G37*
G36*
Y036326D02*
X010879Y036292D01*
X011210Y036191*
X011515Y036029*
X011588Y035969*
X010535Y034917*
X009483Y035969*
X009556Y036029*
X009861Y036191*
X010192Y036292*
X010535Y036326*
G37*
G36*
X011941Y035615D02*
X012001Y035542D01*
X012164Y035238*
X012264Y034907*
X012298Y034563*
X012264Y034219*
X012164Y033889*
X012001Y033584*
X011941Y033511*
X010889Y034563*
X011941Y035615*
G37*
G36*
X052162Y042226D02*
X052694D01*
Y041828*
X052675Y041729*
X052619Y041645*
X052535Y041589*
X052435Y041569*
X052162*
Y042226*
G37*
G36*
X053108Y041341D02*
Y040480D01*
X052773*
Y040903*
X052808Y041080*
X052908Y041230*
X053058Y041331*
X053108Y041341*
G37*
G36*
X051635Y043137D02*
X051908D01*
Y042353*
Y041569*
X051635*
X051536Y041589*
X051452Y041645*
X051396Y041729*
X051263Y041746*
X051126Y041719*
X051111*
X050935Y041754*
X050786Y041854*
X050687Y042003*
X050652Y042178*
X050687Y042354*
X050786Y042503*
X050960Y042676*
X050961Y042678*
X051110Y042777*
X051285Y042812*
X051385Y042922*
X051396Y042977*
X051452Y043061*
X051536Y043117*
X051635Y043137*
G37*
G36*
X052162D02*
X052435D01*
X052535Y043117*
X052619Y043061*
X052675Y042977*
X052694Y042878*
Y042480*
X052162*
Y043137*
G37*
G36*
X060485Y043087D02*
X060908D01*
Y042455*
X060227*
Y042828*
X060246Y042927*
X060302Y043011*
X060386Y043067*
X060485Y043087*
G37*
G36*
X061162Y037012D02*
X061560D01*
X061660Y036992*
X061744Y036936*
X061800Y036852*
X061819Y036753*
Y036480*
X061162*
Y037012*
G37*
G36*
X051635Y019887D02*
X051908D01*
Y019103*
Y018319*
X051635*
X051536Y018339*
X051452Y018395*
X051396Y018479*
X051385Y018534*
X051286Y018644*
X051285*
X051110Y018679*
X050961Y018778*
X050961Y018779*
X050861Y018928*
X050826Y019103*
X050861Y019279*
X050961Y019428*
X051110Y019527*
X051285Y019562*
X051385Y019671*
X051396Y019727*
X051452Y019811*
X051536Y019867*
X051635Y019887*
G37*
G36*
X052162D02*
X052435D01*
X052535Y019867*
X052619Y019811*
X052675Y019727*
X052694Y019628*
Y019230*
X052162*
Y019887*
G37*
G36*
Y018976D02*
X052694D01*
Y018578*
X052675Y018479*
X052619Y018395*
X052535Y018339*
X052435Y018319*
X052162*
Y018976*
G37*
G36*
X092035Y020322D02*
X092297Y020287D01*
X092540Y020187*
X092749Y020026*
X092909Y019817*
X093010Y019574*
X093044Y019313*
X093010Y019052*
X092909Y018809*
X092749Y018600*
X092540Y018440*
X092297Y018339*
X092035Y018304*
X091774Y018339*
X091531Y018440*
X091322Y018600*
X091162Y018809*
X091061Y019052*
X091027Y019313*
X091061Y019574*
X091162Y019817*
X091322Y020026*
X091531Y020187*
X091774Y020287*
X092035Y020322*
G37*
G36*
X089495D02*
X089757Y020287D01*
X090000Y020187*
X090209Y020026*
X090369Y019817*
X090470Y019574*
X090504Y019313*
X090470Y019052*
X090369Y018809*
X090209Y018600*
X090000Y018440*
X089757Y018339*
X089495Y018304*
X089234Y018339*
X088991Y018440*
X088782Y018600*
X088622Y018809*
X088521Y019052*
X088487Y019313*
X088521Y019574*
X088622Y019817*
X088782Y020026*
X088991Y020187*
X089234Y020287*
X089495Y020322*
G37*
G36*
X089368Y022849D02*
Y021980D01*
X088500*
X088517Y022115*
X088618Y022359*
X088779Y022569*
X088989Y022730*
X089233Y022831*
X089368Y022849*
G37*
G36*
X017745Y025000D02*
X018798Y023947D01*
X018725Y023888*
X018420Y023725*
X018089Y023624*
X017745Y023591*
X017402Y023624*
X017071Y023725*
X016766Y023888*
X016693Y023947*
X017745Y025000*
G37*
G36*
X089622Y022849D02*
X089758Y022831D01*
X090002Y022730*
X090212Y022569*
X090372Y022359*
X090474Y022115*
X090491Y021980*
X089622*
Y022849*
G37*
G36*
Y021726D02*
X090491D01*
X090474Y021591*
X090372Y021347*
X090212Y021137*
X090002Y020976*
X089758Y020875*
X089622Y020857*
Y021726*
G37*
G36*
X088500D02*
X089368D01*
Y020857*
X089233Y020875*
X088989Y020976*
X088779Y021137*
X088618Y021347*
X088517Y021591*
X088500Y021726*
G37*
G36*
X053108Y018091D02*
Y017230D01*
X052773*
Y017653*
X052808Y017830*
X052908Y017980*
X053058Y018081*
X053108Y018091*
G37*
G36*
X092035Y012702D02*
X092297Y012667D01*
X092540Y012567*
X092749Y012406*
X092909Y012197*
X093010Y011954*
X093044Y011693*
X093010Y011432*
X092909Y011189*
X092749Y010980*
X092540Y010820*
X092297Y010719*
X092035Y010684*
X091774Y010719*
X091531Y010820*
X091322Y010980*
X091162Y011189*
X091061Y011432*
X091027Y011693*
X091061Y011954*
X091162Y012197*
X091322Y012406*
X091531Y012567*
X091774Y012667*
X092035Y012702*
G37*
G36*
X089495D02*
X089757Y012667D01*
X090000Y012567*
X090209Y012406*
X090369Y012197*
X090470Y011954*
X090504Y011693*
X090470Y011432*
X090369Y011189*
X090209Y010980*
X090000Y010820*
X089757Y010719*
X089495Y010684*
X089234Y010719*
X088991Y010820*
X088782Y010980*
X088622Y011189*
X088521Y011432*
X088487Y011693*
X088521Y011954*
X088622Y012197*
X088782Y012406*
X088991Y012567*
X089234Y012667*
X089495Y012702*
G37*
G36*
X091285Y022858D02*
X092785D01*
X092883Y022839*
X092966Y022783*
X093021Y022701*
X093040Y022603*
Y021916*
X094195Y020762*
X094320Y020575*
X094364Y020353*
Y010353*
X094320Y010132*
X094195Y009944*
X092695Y008444*
X092507Y008319*
X092285Y008274*
X090024*
X089999Y008273*
X089963Y008268*
X089933Y008262*
X089909Y008255*
X089894Y008250*
X089894Y008250*
X089892Y008247*
X089714Y008111*
X089507Y008025*
X089285Y007996*
X089064Y008025*
X088857Y008111*
X088679Y008247*
X088543Y008424*
X088457Y008631*
X088428Y008853*
X088457Y009075*
X088543Y009282*
X088679Y009459*
X088857Y009596*
X089064Y009681*
X089285Y009710*
X089507Y009681*
X089714Y009596*
X089892Y009459*
X089894Y009456*
X089894Y009456*
X089909Y009451*
X089933Y009445*
X089963Y009438*
X089999Y009433*
X090024Y009432*
X092046*
X093207Y010593*
Y020113*
X092472Y020848*
X091285*
X091188Y020868*
X091105Y020923*
X091050Y021006*
X091031Y021103*
Y022603*
X091050Y022701*
X091105Y022783*
X091188Y022839*
X091285Y022858*
G37*
G36*
X052162Y008262D02*
X052560D01*
X052660Y008242*
X052744Y008186*
X052800Y008102*
X052819Y008003*
Y007730*
X052162*
Y008262*
G37*
G36*
X051510D02*
X051908D01*
Y007730*
X051252*
Y008003*
X051271Y008102*
X051327Y008186*
X051411Y008242*
X051510Y008262*
G37*
G36*
X092035Y017782D02*
X092297Y017747D01*
X092540Y017647*
X092749Y017486*
X092909Y017277*
X093010Y017034*
X093044Y016773*
X093010Y016512*
X092909Y016269*
X092749Y016060*
X092540Y015900*
X092297Y015799*
X092035Y015764*
X091774Y015799*
X091531Y015900*
X091322Y016060*
X091162Y016269*
X091061Y016512*
X091027Y016773*
X091061Y017034*
X091162Y017277*
X091322Y017486*
X091531Y017647*
X091774Y017747*
X092035Y017782*
G37*
G36*
X089495D02*
X089757Y017747D01*
X090000Y017647*
X090209Y017486*
X090369Y017277*
X090470Y017034*
X090504Y016773*
X090470Y016512*
X090369Y016269*
X090209Y016060*
X090000Y015900*
X089757Y015799*
X089495Y015764*
X089234Y015799*
X088991Y015900*
X088782Y016060*
X088622Y016269*
X088521Y016512*
X088487Y016773*
X088521Y017034*
X088622Y017277*
X088782Y017486*
X088991Y017647*
X089234Y017747*
X089495Y017782*
G37*
G36*
X077535Y020460D02*
X077757Y020431D01*
X077964Y020346*
X078142Y020209*
X078278Y020032*
X078364Y019825*
X078393Y019603*
X078364Y019381*
X078324Y019286*
X080666Y016943*
X080757Y016931*
X080964Y016846*
X081142Y016709*
X081278Y016532*
X081364Y016325*
X081393Y016103*
X081364Y015881*
X081278Y015674*
X081142Y015497*
X080964Y015361*
X080757Y015275*
X080535Y015246*
X080314Y015275*
X080107Y015361*
X079929Y015497*
X079793Y015674*
X079707Y015881*
X079678Y016103*
X079707Y016325*
X079747Y016421*
X077405Y018763*
X077314Y018775*
X077107Y018861*
X076929Y018997*
X076793Y019174*
X076707Y019381*
X076678Y019603*
X076707Y019825*
X076793Y020032*
X076929Y020209*
X077107Y020346*
X077314Y020431*
X077535Y020460*
G37*
G36*
X092035Y015242D02*
X092297Y015207D01*
X092540Y015107*
X092749Y014946*
X092909Y014737*
X093010Y014494*
X093044Y014233*
X093010Y013972*
X092909Y013729*
X092749Y013520*
X092540Y013360*
X092297Y013259*
X092035Y013224*
X091774Y013259*
X091531Y013360*
X091322Y013520*
X091162Y013729*
X091061Y013972*
X091027Y014233*
X091061Y014494*
X091162Y014737*
X091322Y014946*
X091531Y015107*
X091774Y015207*
X092035Y015242*
G37*
G36*
X089495D02*
X089757Y015207D01*
X090000Y015107*
X090209Y014946*
X090369Y014737*
X090470Y014494*
X090504Y014233*
X090470Y013972*
X090369Y013729*
X090209Y013520*
X090000Y013360*
X089757Y013259*
X089495Y013224*
X089234Y013259*
X088991Y013360*
X088782Y013520*
X088622Y013729*
X088521Y013972*
X088487Y014233*
X088521Y014494*
X088622Y014737*
X088782Y014946*
X088991Y015107*
X089234Y015207*
X089495Y015242*
G37*
G36*
X022825Y027112D02*
X023169Y027078D01*
X023498Y026978*
X023802Y026815*
X024069Y026597*
X024288Y026330*
X024450Y026026*
X024550Y025696*
X024584Y025353*
X024550Y025010*
X024450Y024680*
X024288Y024376*
X024069Y024110*
X023802Y023891*
X023498Y023728*
X023169Y023628*
X022825Y023595*
X022482Y023628*
X022153Y023728*
X021849Y023891*
X021582Y024110*
X021363Y024376*
X021201Y024680*
X021101Y025010*
X021067Y025353*
X021101Y025696*
X021201Y026026*
X021363Y026330*
X021582Y026597*
X021849Y026815*
X022153Y026978*
X022482Y027078*
X022825Y027112*
G37*
G36*
X091285Y040108D02*
X092785D01*
X092883Y040089*
X092966Y040033*
X093021Y039951*
X093040Y039853*
Y038353*
X093021Y038256*
X092966Y038173*
X092883Y038118*
X092785Y038098*
X091285*
X091188Y038118*
X091105Y038173*
X091050Y038256*
X091031Y038353*
Y039853*
X091050Y039951*
X091105Y040033*
X091188Y040089*
X091285Y040108*
G37*
G36*
X089622Y038976D02*
X090491D01*
X090474Y038841*
X090372Y038597*
X090212Y038387*
X090002Y038226*
X089758Y038125*
X089622Y038107*
Y038976*
G37*
G36*
X089495Y037572D02*
X089757Y037537D01*
X090000Y037437*
X090209Y037276*
X090369Y037067*
X090470Y036824*
X090504Y036563*
X090470Y036302*
X090369Y036059*
X090209Y035850*
X090000Y035690*
X089757Y035589*
X089495Y035554*
X089234Y035589*
X088991Y035690*
X088782Y035850*
X088622Y036059*
X088521Y036302*
X088487Y036563*
X088521Y036824*
X088622Y037067*
X088782Y037276*
X088991Y037437*
X089234Y037537*
X089495Y037572*
G37*
G36*
X072286Y034460D02*
X072508Y034431D01*
X072714Y034345*
X072892Y034209*
X073028Y034032*
X073114Y033825*
X073136Y033656*
X073254Y033597*
X073266Y033596*
X073330Y033645*
X073537Y033731*
X073759Y033760*
X073981Y033731*
X074188Y033645*
X074365Y033509*
X074501Y033332*
X074587Y033125*
X074616Y032903*
X074600Y032783*
X074684Y032687*
X075799*
X075970Y032653*
X076116Y032556*
X076116*
X081488Y027184*
X081585Y027038*
X081620Y026866*
Y023858*
X081585Y023686*
X081488Y023540*
X080616Y022668*
X080470Y022571*
X080299Y022536*
X079151*
X079139Y022535*
X079137Y022528*
X079114Y022354*
X079028Y022147*
X078892Y021970*
X078714Y021834*
X078507Y021748*
X078286Y021719*
X078064Y021748*
X077857Y021834*
X077679Y021970*
X077543Y022147*
X077457Y022354*
X077428Y022576*
X077457Y022798*
X077543Y023005*
X077679Y023182*
X077754Y023240*
Y023367*
X077679Y023424*
X077543Y023601*
X077457Y023808*
X077428Y024030*
X077457Y024252*
X077543Y024459*
X077679Y024636*
X077857Y024773*
X078064Y024858*
X078286Y024887*
X078507Y024858*
X078714Y024773*
X078892Y024636*
X079028Y024459*
X079114Y024252*
X079137Y024078*
X079139Y024071*
X079151Y024070*
X079849*
X080086Y024307*
Y026417*
X075349Y031154*
X073581*
X073410Y031188*
X073264Y031285*
X071968Y032581*
X071871Y032727*
X071842Y032872*
X071679Y032997*
X071543Y033174*
X071458Y033381*
X071428Y033603*
X071458Y033825*
X071543Y034032*
X071679Y034209*
X071857Y034345*
X072064Y034431*
X072286Y034460*
G37*
G36*
X092035Y037572D02*
X092297Y037537D01*
X092540Y037437*
X092749Y037276*
X092909Y037067*
X093010Y036824*
X093044Y036563*
X093010Y036302*
X092909Y036059*
X092749Y035850*
X092540Y035690*
X092297Y035589*
X092035Y035554*
X091774Y035589*
X091531Y035690*
X091322Y035850*
X091162Y036059*
X091061Y036302*
X091027Y036563*
X091061Y036824*
X091162Y037067*
X091322Y037276*
X091531Y037437*
X091774Y037537*
X092035Y037572*
G37*
G36*
X089622Y040099D02*
X089758Y040081D01*
X090002Y039980*
X090212Y039819*
X090372Y039609*
X090474Y039365*
X090491Y039230*
X089622*
Y040099*
G37*
G36*
X089368D02*
Y039230D01*
X088500*
X088517Y039365*
X088618Y039609*
X088779Y039819*
X088989Y039980*
X089233Y040081*
X089368Y040099*
G37*
G36*
X068835Y040167D02*
X068860Y040162D01*
X068885*
X069061Y040127*
X069153Y040089*
X069302Y039989*
X069372Y039919*
X069471Y039770*
X069509Y039678*
X069544Y039503*
Y039403*
X069509Y039228*
X069471Y039136*
X069372Y038987*
X069302Y038917*
X069153Y038817*
X069061Y038779*
X068885Y038744*
X068860*
X068835Y038739*
X068811Y038744*
X068786*
X068610Y038779*
X068518Y038817*
X068369Y038917*
X068299Y038987*
X068200Y039136*
X068162Y039228*
X068127Y039403*
Y039503*
X068162Y039678*
X068200Y039770*
X068299Y039919*
X068369Y039989*
X068518Y040089*
X068610Y040127*
X068786Y040162*
X068811*
X068835Y040167*
G37*
G36*
X088500Y038976D02*
X089368D01*
Y038107*
X089233Y038125*
X088989Y038226*
X088779Y038387*
X088618Y038597*
X088517Y038841*
X088500Y038976*
G37*
G36*
X073235Y040167D02*
X073260Y040162D01*
X073285*
X073461Y040127*
X073553Y040089*
X073702Y039989*
X073772Y039919*
X073871Y039770*
X073909Y039678*
X073944Y039503*
Y039403*
X073909Y039228*
X073871Y039136*
X073772Y038987*
X073702Y038917*
X073553Y038817*
X073461Y038779*
X073285Y038744*
X073260*
X073235Y038739*
X073211Y038744*
X073186*
X073010Y038779*
X072918Y038817*
X072769Y038917*
X072699Y038987*
X072600Y039136*
X072562Y039228*
X072527Y039403*
Y039503*
X072562Y039678*
X072600Y039770*
X072699Y039919*
X072769Y039989*
X072918Y040089*
X073010Y040127*
X073186Y040162*
X073211*
X073235Y040167*
G37*
G36*
X089495Y035032D02*
X089757Y034997D01*
X090000Y034897*
X090209Y034736*
X090369Y034527*
X090470Y034284*
X090504Y034023*
X090470Y033762*
X090369Y033519*
X090209Y033310*
X090000Y033150*
X089757Y033049*
X089495Y033014*
X089234Y033049*
X088991Y033150*
X088782Y033310*
X088622Y033519*
X088521Y033762*
X088487Y034023*
X088521Y034284*
X088622Y034527*
X088782Y034736*
X088991Y034897*
X089234Y034997*
X089495Y035032*
G37*
G36*
X070035Y032710D02*
X070257Y032681D01*
X070464Y032596*
X070642Y032459*
X070778Y032282*
X070864Y032075*
X070893Y031853*
X070864Y031631*
X070778Y031424*
X070642Y031247*
X070464Y031111*
X070257Y031025*
X070035Y030996*
X069814Y031025*
X069789Y031035*
X069787Y031035*
X069746Y031046*
X069721Y031050*
X069699Y031051*
X069680Y031050*
X069662Y031046*
X069643Y031041*
X069624Y031032*
X069603Y031019*
X069592Y031011*
X068610Y030029*
X068461Y029929*
X068286Y029894*
X067657*
X067643Y029893*
X067611Y029886*
X067580Y029877*
X067549Y029865*
X067519Y029850*
X067489Y029832*
X067458Y029810*
X067427Y029784*
X067402Y029760*
X067392Y029747*
X067214Y029611*
X067007Y029525*
X066785Y029496*
X066564Y029525*
X066357Y029611*
X066179Y029747*
X066043Y029924*
X065957Y030131*
X065928Y030353*
X065957Y030575*
X066043Y030782*
X066179Y030959*
X066357Y031096*
X066564Y031181*
X066785Y031210*
X067007Y031181*
X067214Y031096*
X067392Y030959*
X067402Y030946*
X067427Y030922*
X067458Y030896*
X067489Y030874*
X067519Y030856*
X067549Y030841*
X067580Y030829*
X067611Y030820*
X067643Y030814*
X067657Y030812*
X068095*
X069051Y031767*
X069055Y031773*
X069079Y031805*
X069101Y031836*
X069146Y031917*
X069163Y031953*
X069201Y032050*
X069206Y032066*
X069207Y032075*
X069215Y032093*
X069218Y032102*
X069221Y032108*
X069293Y032282*
X069429Y032459*
X069607Y032596*
X069814Y032681*
X070035Y032710*
G37*
G36*
X052162Y030726D02*
X052819D01*
Y030453*
X052800Y030354*
X052744Y030270*
X052660Y030214*
X052560Y030194*
X052162*
Y030726*
G37*
G36*
X017745Y027116D02*
X018089Y027082D01*
X018420Y026981*
X018725Y026819*
X018798Y026759*
X017745Y025707*
X016693Y026759*
X016766Y026819*
X017071Y026981*
X017402Y027082*
X017745Y027116*
G37*
G36*
X016340Y026405D02*
X017392Y025353D01*
X016340Y024301*
X016280Y024374*
X016117Y024679*
X016017Y025009*
X015983Y025353*
X016017Y025697*
X016117Y026028*
X016280Y026332*
X016340Y026405*
G37*
G36*
X019151D02*
X019211Y026332D01*
X019374Y026028*
X019474Y025697*
X019508Y025353*
X019474Y025009*
X019374Y024679*
X019211Y024374*
X019151Y024301*
X018099Y025353*
X019151Y026405*
G37*
G36*
X071285Y040710D02*
X071507Y040681D01*
X071714Y040596*
X071892Y040459*
X072028Y040282*
X072114Y040075*
X072143Y039853*
X072114Y039631*
X072028Y039424*
X071892Y039247*
X071799Y039176*
Y038316*
X074748Y035367*
X076785*
X076982Y035328*
X077149Y035216*
X080881Y031485*
X080988Y031557*
X080957Y031631*
X080928Y031853*
X080957Y032075*
X081043Y032282*
X081179Y032459*
X081357Y032596*
X081564Y032681*
X081785Y032710*
X082007Y032681*
X082214Y032596*
X082392Y032459*
X082528Y032282*
X082614Y032075*
X082643Y031853*
X082614Y031631*
X082528Y031424*
X082392Y031247*
X082385Y031152*
X085110Y028428*
X085209Y028279*
X085244Y028103*
Y016247*
X085285Y016210*
X085507Y016181*
X085714Y016096*
X085892Y015959*
X086028Y015782*
X086114Y015575*
X086143Y015353*
X086114Y015131*
X086028Y014924*
X085892Y014747*
X085714Y014611*
X085507Y014525*
X085285Y014496*
X085064Y014525*
X084857Y014611*
X084679Y014747*
X084670Y014759*
X084549Y014719*
Y014316*
X087149Y011716*
X087260Y011550*
X087299Y011353*
Y010418*
X087299Y010418*
X087305Y010380*
X087313Y010346*
X087322Y010316*
X087332Y010290*
X087343Y010267*
X087356Y010248*
X087369Y010230*
X087380Y010218*
X087392Y010209*
X087528Y010032*
X087614Y009825*
X087643Y009603*
X087614Y009381*
X087528Y009174*
X087392Y008997*
X087214Y008861*
X087007Y008775*
X086785Y008746*
X086564Y008775*
X086357Y008861*
X086179Y008997*
X086043Y009174*
X085957Y009381*
X085928Y009603*
X085957Y009825*
X086043Y010032*
X086179Y010209*
X086191Y010218*
X086202Y010230*
X086215Y010248*
X086228Y010267*
X086239Y010290*
X086249Y010316*
X086258Y010346*
X086266Y010380*
X086272Y010418*
X086272Y010418*
Y011140*
X083672Y013740*
X083561Y013906*
X083522Y014103*
Y027390*
X076573Y034339*
X074535*
X074339Y034378*
X074172Y034490*
X070922Y037740*
X070811Y037906*
X070772Y038103*
Y039176*
X070679Y039247*
X070543Y039424*
X070457Y039631*
X070428Y039853*
X070457Y040075*
X070543Y040282*
X070679Y040459*
X070857Y040596*
X071064Y040681*
X071285Y040710*
G37*
G36*
X092035Y035032D02*
X092297Y034997D01*
X092540Y034897*
X092749Y034736*
X092909Y034527*
X093010Y034284*
X093044Y034023*
X093010Y033762*
X092909Y033519*
X092749Y033310*
X092540Y033150*
X092297Y033049*
X092035Y033014*
X091774Y033049*
X091531Y033150*
X091322Y033310*
X091162Y033519*
X091061Y033762*
X091027Y034023*
X091061Y034284*
X091162Y034527*
X091322Y034736*
X091531Y034897*
X091774Y034997*
X092035Y035032*
G37*
G36*
X051510Y031512D02*
X051908D01*
Y030980*
X051252*
Y031253*
X051271Y031352*
X051327Y031436*
X051411Y031492*
X051510Y031512*
G37*
G36*
X051252Y030726D02*
X051908D01*
Y030194*
X051510*
X051411Y030214*
X051327Y030270*
X051271Y030354*
X051252Y030453*
Y030726*
G37*
G36*
X052162Y031512D02*
X052560D01*
X052660Y031492*
X052744Y031436*
X052800Y031352*
X052819Y031253*
Y030980*
X052162*
Y031512*
G37*
G36*
X009130Y012365D02*
X010182Y011313D01*
X009130Y010261*
X009070Y010334*
X008907Y010639*
X008807Y010969*
X008773Y011313*
X008807Y011657*
X008907Y011988*
X009070Y012292*
X009130Y012365*
G37*
G36*
X010535Y010960D02*
X011588Y009907D01*
X011515Y009848*
X011210Y009685*
X010879Y009584*
X010535Y009551*
X010192Y009584*
X009861Y009685*
X009556Y009848*
X009483Y009907*
X010535Y010960*
G37*
G36*
Y013076D02*
X010879Y013042D01*
X011210Y012941*
X011515Y012779*
X011588Y012719*
X010535Y011667*
X009483Y012719*
X009556Y012779*
X009861Y012941*
X010192Y013042*
X010535Y013076*
G37*
G36*
X011941Y012365D02*
X012001Y012292D01*
X012164Y011988*
X012264Y011657*
X012298Y011313*
X012264Y010969*
X012164Y010639*
X012001Y010334*
X011941Y010261*
X010889Y011313*
X011941Y012365*
G37*
G36*
X009130Y017445D02*
X010182Y016393D01*
X009130Y015341*
X009070Y015414*
X008907Y015719*
X008807Y016049*
X008773Y016393*
X008807Y016737*
X008907Y017068*
X009070Y017372*
X009130Y017445*
G37*
G36*
X010535Y016040D02*
X011588Y014987D01*
X011515Y014928*
X011210Y014765*
X010879Y014664*
X010535Y014631*
X010192Y014664*
X009861Y014765*
X009556Y014928*
X009483Y014987*
X010535Y016040*
G37*
G36*
Y018156D02*
X010879Y018122D01*
X011210Y018021*
X011515Y017859*
X011588Y017799*
X010535Y016747*
X009483Y017799*
X009556Y017859*
X009861Y018021*
X010192Y018122*
X010535Y018156*
G37*
G36*
X011941Y017445D02*
X012001Y017372D01*
X012164Y017068*
X012264Y016737*
X012298Y016393*
X012264Y016049*
X012164Y015719*
X012001Y015414*
X011941Y015341*
X010889Y016393*
X011941Y017445*
G37*
G36*
X009130Y040695D02*
X010182Y039643D01*
X009130Y038591*
X009070Y038664*
X008907Y038969*
X008807Y039299*
X008773Y039643*
X008807Y039987*
X008907Y040318*
X009070Y040622*
X009130Y040695*
G37*
G36*
X010535Y039290D02*
X011588Y038237D01*
X011515Y038178*
X011210Y038015*
X010879Y037914*
X010535Y037881*
X010192Y037914*
X009861Y038015*
X009556Y038178*
X009483Y038237*
X010535Y039290*
G37*
G36*
Y041406D02*
X010879Y041372D01*
X011210Y041271*
X011515Y041109*
X011588Y041049*
X010535Y039997*
X009483Y041049*
X009556Y041109*
X009861Y041271*
X010192Y041372*
X010535Y041406*
G37*
G36*
X011941Y040695D02*
X012001Y040622D01*
X012164Y040318*
X012264Y039987*
X012298Y039643*
X012264Y039299*
X012164Y038969*
X012001Y038664*
X011941Y038591*
X010889Y039643*
X011941Y040695*
G37*
%LNgbr_bot-4*%
%LPC*%
G54D83*
X094278Y042353D02*
X093778D01*
X094278Y043353D02*
Y042353D01*
G54D77*
X093785Y010353D02*
Y020353D01*
Y010353D02*
X092285Y008853D01*
X093785Y020353D02*
X092285Y021853D01*
G54D83*
X093778Y042353D02*
X093611Y042520D01*
X093778Y043020D02*
X094278D01*
X093611Y042520D02*
Y042853D01*
X093778Y043020D01*
X093278Y042686D02*
X092612D01*
X093278Y042853D02*
Y042686D01*
X093111Y042353D02*
X092778D01*
X093111Y043020D02*
X093278Y042853D01*
X092778Y042353D02*
X092612Y042520D01*
X092778Y043020D02*
X093111D01*
X092612Y042520D02*
Y042853D01*
X092778Y043020D01*
G54D77*
X092285Y021853D02*
X092035D01*
X092285Y008853D02*
X089285D01*
G54D83*
X092278Y042853D02*
Y042353D01*
X092112Y043020D02*
X092278Y042853D01*
X091612Y042353D02*
Y043020D01*
X092112D01*
X090945D02*
X091112D01*
X090779Y042853D02*
X090945Y043020D01*
X090612Y042353D02*
Y042686D01*
X090779Y042853D01*
X090612Y043020D02*
Y042353D01*
X090279D02*
Y043020D01*
X089779Y042353D02*
X090279D01*
X089613Y042520D02*
X089779Y042353D01*
X089613Y043020D02*
Y042520D01*
X089279D02*
Y042686D01*
Y042853D01*
X089113Y043020D01*
Y042353D02*
X089279Y042520D01*
X089113Y043020D02*
X088613D01*
Y042353D02*
X089113D01*
X088613Y043353D02*
Y042353D01*
X087113Y042853D02*
X086947D01*
Y042353D02*
Y043186D01*
Y042853D02*
Y043186D01*
Y042853D02*
X086780D01*
X086947Y043186D02*
X087113Y043353D01*
X086947Y043186D02*
Y042853D01*
G54D76*
X086785Y009603D02*
Y011353D01*
X084035Y014103D01*
G54D83*
X086780Y042853D02*
X087113D01*
X086280Y042353D02*
X086114D01*
Y043020D01*
X085947D01*
Y042353D02*
X086280D01*
G54D75*
X085285Y015353D02*
X084785Y015853D01*
Y028103D01*
X081785Y031103D01*
G54D83*
X084614Y042353D02*
X084114D01*
X084614Y043353D02*
Y042353D01*
X084335Y009756D02*
X084135Y009556D01*
X084335Y010156D02*
Y009756D01*
X084135Y009556D02*
X083535D01*
X084135Y010356D02*
X084335Y010156D01*
X084114Y042353D02*
X083948Y042520D01*
X084114Y043020D02*
X084614D01*
G54D76*
X084035Y014103D02*
Y027603D01*
X076785Y034853D01*
G54D83*
X083948Y042520D02*
Y042853D01*
X084114Y043020D01*
X083935Y009556D02*
X084335Y009156D01*
X083615Y042686D02*
X082948D01*
X083615Y042853D02*
Y042686D01*
X083535Y009156D02*
Y010356D01*
X084135D01*
X083448Y042353D02*
X083115D01*
X083448Y043020D02*
X083615Y042853D01*
X083135Y010356D02*
X082336D01*
X083115Y042353D02*
X082948Y042520D01*
X083115Y043020D02*
X083448D01*
X082948Y042520D02*
Y042853D01*
X083115Y043020D01*
X082615Y042353D02*
X082115D01*
X082615Y043353D02*
Y042353D01*
X082336Y009156D02*
X083135D01*
X082336Y009756D02*
X082736D01*
X082336Y010356D02*
Y009156D01*
X082115Y042353D02*
X081948Y042520D01*
X082115Y043020D02*
X082615D01*
X081948Y042520D02*
Y042853D01*
X082115Y043020D01*
X081936Y009556D02*
Y010356D01*
G54D75*
X081785Y031103D02*
Y031853D01*
G54D83*
X081536Y009156D02*
X081936Y009556D01*
X081449Y042353D02*
X081282D01*
Y043020D01*
X081115D01*
G54D78*
X081170Y023858D02*
Y026866D01*
Y023858D02*
X080299Y022986D01*
X081170Y026866D02*
X075799Y032238D01*
G54D83*
X081136Y009556D02*
X081536Y009156D01*
X081136Y010356D02*
Y009556D01*
X081115Y042353D02*
X081449D01*
X080782Y042520D02*
Y042853D01*
X080615Y043020D01*
Y042353D02*
X080782Y042520D01*
X080615Y043020D02*
X080282D01*
X080536Y010356D02*
X080336D01*
G54D82*
X080535Y016103D02*
Y016353D01*
X077535Y019353D01*
G54D78*
X080535Y024121D02*
Y026603D01*
Y024121D02*
X080035Y023621D01*
X080535Y026603D02*
X075535Y031603D01*
G54D83*
X080336Y009156D02*
X080136D01*
X080336Y010356D02*
Y009156D01*
G54D78*
X080299Y022986D02*
X078695D01*
G54D83*
X080282Y042353D02*
X080615D01*
X080282Y043020D02*
X080116Y042853D01*
X080136Y009156D02*
X080536D01*
X080136Y010356D02*
X080536D01*
X080116Y042520D02*
X080282Y042353D01*
X080116Y042853D02*
Y042520D01*
G54D78*
X080035Y023621D02*
X078695D01*
G54D83*
X079737Y009756D02*
X079537Y009556D01*
X079737Y010156D02*
Y009756D01*
X079537Y009556D02*
X078937D01*
X079537Y010356D02*
X079737Y010156D01*
X079449Y042353D02*
X079782Y043020D01*
X079337Y009556D02*
X079737Y009156D01*
X079116Y043020D02*
X079449Y042353D01*
X078937Y009156D02*
Y010356D01*
X079537D01*
G54D78*
X078695Y022986D02*
X078286Y022576D01*
X078695Y023621D02*
X078286Y024030D01*
G54D83*
X078537Y009356D02*
Y010156D01*
X078337Y010356D01*
Y009156D02*
X078537Y009356D01*
X078337Y010356D02*
X077737D01*
X077783Y042186D02*
X077616Y042020D01*
X077783Y042353D02*
Y042186D01*
Y042353D02*
Y043020D01*
X077737Y007107D02*
X077537D01*
X077737Y009156D02*
X078337D01*
X077737Y010356D02*
Y009156D01*
X077616Y042020D02*
X077450D01*
X077537Y007107D02*
Y008307D01*
X077337Y008107D01*
G54D75*
X077535Y019353D02*
Y019603D01*
G54D83*
X077337Y007107D02*
X077737D01*
X077283Y042353D02*
X077783D01*
X077117Y042520D02*
X077283Y042353D01*
X077117Y043020D02*
Y042520D01*
G54D76*
X076785Y034853D02*
X074535D01*
G54D83*
X076617Y043020D02*
X076450D01*
X076538Y007107D02*
X076338D01*
X076538Y007307D02*
Y007107D01*
Y009756D02*
X077337D01*
X076450Y042520D02*
X076617Y042353D01*
X076450Y043020D02*
Y042520D01*
Y043020D02*
X076284D01*
X076450Y043186D02*
Y043020D01*
X076338Y007107D02*
Y007307D01*
X076538D01*
X076284Y043020D02*
X076617D01*
X076138Y009756D02*
X075938Y009556D01*
X076138Y010156D02*
Y009756D01*
X075950Y042853D02*
Y042353D01*
X075938Y009556D02*
X075338D01*
X075938Y010356D02*
X076138Y010156D01*
G54D78*
X075799Y032238D02*
X074035D01*
G54D83*
X075784Y043020D02*
X075950Y042853D01*
X075738Y007107D02*
X075538D01*
X075738Y009556D02*
X076138Y009156D01*
X075538Y007107D02*
Y008307D01*
X075338Y008107D01*
G54D78*
X075535Y031603D02*
X073581D01*
G54D83*
X075338Y007107D02*
X075738D01*
X075338Y009156D02*
Y010356D01*
X075938D01*
X075284Y042353D02*
Y043020D01*
X075784D01*
G54D75*
X075035Y019103D02*
Y019603D01*
Y019103D02*
X074035Y018103D01*
G54D83*
X074951Y042353D02*
X074451D01*
X074951Y042853D02*
Y042353D01*
X074938Y009356D02*
Y010156D01*
X074738Y010356D01*
X074784Y043020D02*
X074951Y042853D01*
X074738Y009156D02*
X074938Y009356D01*
X074738Y010356D02*
X074338D01*
G54D76*
X074535Y034853D02*
X071285Y038103D01*
G54D83*
X074451Y042353D02*
X074284Y042520D01*
X074451Y042686D02*
X074951D01*
X074451Y043020D02*
X074784D01*
X074338Y009156D02*
X074738D01*
X074338Y010356D02*
X074138Y010156D01*
G54D75*
X074285Y022353D02*
X070785D01*
G54D83*
X074284Y042520D02*
X074451Y042686D01*
X074138Y009356D02*
X074338Y009156D01*
X074138Y010156D02*
Y009356D01*
G54D75*
X074035Y018103D02*
X065035D01*
G54D78*
X074035Y032238D02*
X073371Y032903D01*
X073759D02*
X073371D01*
G54D83*
X073738Y007507D02*
Y008307D01*
Y010356D02*
X073339D01*
X073618Y043020D02*
X073784D01*
G54D78*
X073581Y031603D02*
X072286Y032899D01*
G54D83*
X073451Y042853D02*
X073618Y043020D01*
X073339Y007107D02*
X073738Y007507D01*
X073339Y010356D02*
Y009156D01*
X073285Y042353D02*
Y042686D01*
X073451Y042853D01*
X073285Y043020D02*
Y042353D01*
X072939Y007507D02*
X073339Y007107D01*
X072939Y008307D02*
Y007507D01*
Y010356D02*
X073738D01*
X072618Y043020D02*
X072785D01*
X072539Y008307D02*
X071739D01*
X072539Y009356D02*
Y010156D01*
X072339Y010356D01*
G54D75*
X072535Y021103D02*
X070785D01*
G54D83*
X072451Y042853D02*
X072618Y043020D01*
X072339Y009156D02*
X072539Y009356D01*
X072339Y010356D02*
X071939D01*
G54D78*
X072286Y032899D02*
Y033603D01*
G54D83*
X072285Y042353D02*
Y042686D01*
X072451Y042853D01*
X072285Y043020D02*
Y042353D01*
X071952D02*
X071452D01*
X071952Y042853D02*
Y042353D01*
X071939Y009156D02*
X072339D01*
X071939Y010356D02*
X071739Y010156D01*
X071785Y043020D02*
X071952Y042853D01*
X071739Y007107D02*
X072539D01*
X071739Y007707D02*
X072139D01*
X071739Y008307D02*
Y007107D01*
Y009356D02*
X071939Y009156D01*
X071739Y010156D02*
Y009356D01*
G54D75*
X071536Y019603D02*
X071036D01*
G54D83*
X071452Y042353D02*
X071285Y042520D01*
X071452Y042686D02*
X071952D01*
X071452Y043020D02*
X071785D01*
X071339Y007707D02*
X071139Y007507D01*
X071339Y008107D02*
Y007707D01*
Y010356D02*
Y009156D01*
G54D76*
X071285Y038103D02*
Y039853D01*
G54D83*
X071285Y042520D02*
X071452Y042686D01*
X071139Y007507D02*
X070539D01*
X071139Y008307D02*
X071339Y008107D01*
G54D75*
X071036Y019603D02*
X070285Y018853D01*
G54D83*
X070952Y042353D02*
Y043353D01*
X070939Y007507D02*
X071339Y007107D01*
X070939Y009956D02*
X071339Y010356D01*
G54D75*
X070785Y021103D02*
X069535Y019853D01*
X070785Y022353D02*
X069168Y020736D01*
X070785Y024503D02*
X068135D01*
G54D83*
X070619Y042686D02*
X070952Y042353D01*
X070539Y007107D02*
Y008307D01*
X071139D01*
X070539Y009156D02*
Y010356D01*
X070939Y009956D01*
G54D75*
X070285Y018853D02*
X065535D01*
G54D83*
X070285Y042353D02*
X070619Y042686D01*
X070285Y043353D02*
Y042353D01*
G54D75*
X070035Y031853D02*
Y032103D01*
X068286Y030353D01*
X069535Y019853D02*
X065786D01*
X069535Y033853D02*
X067285D01*
X069285Y014853D02*
X069035D01*
X069168Y020736D02*
X066168D01*
X069035Y014853D02*
X067785Y013603D01*
X068286Y030353D02*
X066785D01*
X068285Y016853D02*
X068161Y016728D01*
X065161D01*
X068135Y024503D02*
X067785Y024853D01*
Y013603D02*
X065786D01*
X067785Y024853D02*
Y026853D01*
X067585Y027053D01*
Y027538D01*
X066970Y028153D01*
X067285Y033853D02*
X065286Y031853D01*
X067035Y015103D02*
X066235Y015903D01*
X066970Y028153D02*
X066485D01*
X066785Y021853D02*
Y024103D01*
X066535Y024353D01*
Y027103D01*
X066485Y028153D02*
X064035Y030603D01*
X066235Y015903D02*
X064985D01*
X066168Y020736D02*
X065435Y021468D01*
X065786Y013603D02*
X064535Y012353D01*
X065786Y019853D02*
X064685Y020953D01*
X065685Y034003D02*
Y040872D01*
Y034003D02*
X064035Y032353D01*
X065685Y040872D02*
X064235Y042322D01*
X065535Y018853D02*
X064035Y020353D01*
X065435Y021468D02*
Y027703D01*
X063285Y029853D01*
X065286Y014103D02*
Y014853D01*
Y014103D02*
X063785Y012603D01*
X065161Y016728D02*
X062535Y019353D01*
X065035Y018103D02*
X063285Y019853D01*
X065035Y034603D02*
Y040353D01*
Y034603D02*
X063285Y032853D01*
X065035Y040353D02*
X062785Y042603D01*
X064985Y015903D02*
X062760Y018128D01*
X064685Y020953D02*
Y027203D01*
X062535Y029353D01*
X064535Y009853D02*
Y012353D01*
Y009853D02*
X063285Y008603D01*
X064285Y035103D02*
Y039803D01*
Y035103D02*
X062535Y033353D01*
X064285Y039803D02*
X062985Y041103D01*
X064235Y042322D02*
Y043103D01*
X064035Y020353D02*
Y026603D01*
X061810Y028828D01*
X064035Y030603D02*
Y032353D01*
X063835Y010653D02*
Y012538D01*
Y010653D02*
X063010Y009828D01*
X063835Y012538D02*
X063785Y012588D01*
Y012603D01*
X063285Y008603D02*
X061260D01*
X063285Y019853D02*
Y026353D01*
X061035Y028603D01*
X063285Y029853D02*
Y032853D01*
X063010Y009828D02*
X061035D01*
X062985Y041103D02*
X061260D01*
X062786Y038603D02*
X062785Y038604D01*
X062786Y038603D02*
X062285Y038103D01*
G54D76*
X062785Y012103D02*
X062681Y012207D01*
G54D75*
X062785Y038604D02*
Y039353D01*
Y042603D02*
X062535D01*
X062760Y018128D02*
X061035D01*
G54D76*
X062681Y012207D02*
Y014707D01*
X062535Y014853D01*
X061035D01*
G54D75*
X062535Y019353D02*
Y020353D01*
X062285Y020603D01*
X062535Y029353D02*
Y033353D01*
X062285Y020603D02*
X058551D01*
X062285Y038103D02*
X061035D01*
X061810Y028828D02*
Y032828D01*
X061560Y033078D01*
X061035D01*
X061260Y041103D02*
X061035Y040878D01*
X061260Y008603D02*
X061035Y008378D01*
X061010Y008353D01*
X061035Y009828D02*
Y011603D01*
Y013103D02*
X060535Y012603D01*
X061035Y016353D02*
Y018128D01*
Y016353D02*
X061035D01*
X061035Y028603D02*
Y031628D01*
X061010Y031603D01*
X061035Y033078D02*
Y034853D01*
Y036353D02*
X060535Y035853D01*
X061035Y039603D02*
Y040878D01*
Y039603D02*
X061035Y039603D01*
Y014853D02*
X059935Y013753D01*
X061035Y016353D02*
X060285D01*
X061035Y038103D02*
X059935Y037003D01*
X061035Y039603D02*
X060285D01*
X061010Y008353D02*
X059035D01*
X061010Y031603D02*
X059035D01*
X060535Y012603D02*
X059036D01*
X060535Y035853D02*
X059036D01*
X060285Y016353D02*
X059535Y015603D01*
X060285Y039603D02*
X059535Y038853D01*
X059935Y013753D02*
X055999D01*
X059935Y037003D02*
X055999D01*
X059535Y015103D02*
Y015603D01*
Y015103D02*
X058835Y014403D01*
X059535Y038353D02*
Y038853D01*
Y038353D02*
X058835Y037653D01*
X059036Y011153D02*
X059035D01*
X059036Y012603D02*
X057785D01*
X059036Y016378D02*
X058260Y015603D01*
X059036Y034403D02*
X059035D01*
Y008353D02*
Y011153D01*
Y031603D02*
Y034403D01*
X058835Y014403D02*
X055730D01*
X058835Y037653D02*
X055730D01*
X058551Y020603D02*
X057486Y019538D01*
X058035Y042103D02*
X057785Y041853D01*
X057793Y017361D02*
Y018111D01*
Y017361D02*
X057785Y017353D01*
X057793Y018111D02*
X057486Y018418D01*
X057785Y009853D02*
Y012603D01*
X056535D01*
X057785Y017353D02*
D01*
Y040603D02*
Y041853D01*
Y040603D02*
D01*
Y017353D02*
X057535Y017103D01*
X057785Y040603D02*
X057535Y040353D01*
Y008353D02*
X055785D01*
X057535Y016792D02*
Y017103D01*
Y016792D02*
X057035Y016292D01*
X057535Y031603D02*
X055785D01*
X057535Y040042D02*
Y040353D01*
Y040042D02*
X057035Y039542D01*
X057486Y018418D02*
Y019538D01*
X057035Y016103D02*
Y016292D01*
Y016103D02*
X056810Y015878D01*
X057035Y039353D02*
Y039542D01*
Y039353D02*
X056810Y039128D01*
Y015603D02*
Y015878D01*
Y038853D02*
Y039128D01*
X056535Y011153D02*
X055985Y010603D01*
X056535Y019103D02*
X056285Y018853D01*
X056535Y034403D02*
X055985Y033853D01*
X056535Y042353D02*
X056285Y042103D01*
Y017353D02*
Y018853D01*
Y017353D02*
X055435D01*
X056285Y040603D02*
Y042103D01*
Y040603D02*
X055435D01*
X055999Y013753D02*
X055185Y012939D01*
X055999Y037003D02*
X055185Y036189D01*
X055985Y010603D02*
X055185D01*
X055985Y033853D02*
X055185D01*
X055785Y008353D02*
Y008353D01*
Y031603D02*
D01*
Y008353D02*
Y009103D01*
X055485Y009403D01*
X055785Y031603D02*
Y032353D01*
X055485Y032653D01*
X055730Y014403D02*
X055280Y013953D01*
X055730Y037653D02*
X055280Y037203D01*
X055485Y009403D02*
X054916D01*
X055485Y032653D02*
X054916D01*
X055435Y017353D02*
X055185Y017103D01*
X055435Y040603D02*
X055185Y040353D01*
X055280Y013953D02*
X046385D01*
X055280Y037203D02*
X046385D01*
X055185Y010603D02*
Y012939D01*
Y033853D02*
Y036189D01*
X055035Y019103D02*
X054535Y018603D01*
X055035Y042353D02*
X054535Y041853D01*
X054916Y009403D02*
X054535Y009784D01*
X054916Y032653D02*
X054535Y033034D01*
Y009784D02*
Y010603D01*
D01*
Y033034D02*
Y033853D01*
D01*
Y017103D02*
Y018603D01*
Y017103D02*
D01*
Y040353D02*
Y041853D01*
Y040353D02*
D01*
Y016015D02*
Y017103D01*
Y016015D02*
X053124Y014603D01*
X054535Y039265D02*
Y040353D01*
Y039265D02*
X053124Y037853D01*
X054285Y008353D02*
X053885Y008753D01*
X054285Y031603D02*
X053885Y032003D01*
Y008753D02*
Y010603D01*
X053885D01*
X053885Y017103D02*
Y018753D01*
Y017103D02*
X053885D01*
X053885Y018753D02*
X053535Y019103D01*
X053885Y032003D02*
Y033853D01*
X053885Y033853D01*
X053885Y040353D02*
Y042003D01*
Y040353D02*
X053885D01*
X053885Y042003D02*
X053535Y042353D01*
X053885Y010603D02*
Y011422D01*
X053155Y012153D01*
X053885Y016284D02*
Y017103D01*
Y016284D02*
X052955Y015353D01*
X053885Y033853D02*
Y034672D01*
X053155Y035403D01*
X053885Y039534D02*
Y040353D01*
Y039534D02*
X052955Y038603D01*
X053235Y010303D02*
Y010603D01*
Y010303D02*
X052035Y009103D01*
X053235Y017103D02*
Y017653D01*
Y033553D02*
Y033853D01*
Y033553D02*
X052035Y032353D01*
X053235Y040353D02*
Y040903D01*
X053155Y012153D02*
X046835D01*
X053155Y035403D02*
X046835D01*
X053124Y014603D02*
X046520D01*
X053124Y037853D02*
X046520D01*
X052955Y015353D02*
X045535D01*
X052955Y038603D02*
X045535D01*
X052035Y007603D02*
D01*
Y009103D02*
X049035D01*
X052035Y018853D02*
X051785D01*
X052035Y030853D02*
D01*
Y032353D02*
X049035D01*
X052035Y042103D02*
X051785D01*
X051286Y019103D02*
X051285D01*
X051286Y042353D02*
X051285Y042353D01*
X051286Y042353D02*
X051111Y042178D01*
X051285Y019103D02*
X051285Y019103D01*
X051126Y042178D02*
X051111D01*
X049035Y009103D02*
X048235Y008303D01*
X049035Y032353D02*
X048235Y031553D01*
Y008303D02*
X046336D01*
X048235Y031553D02*
X046336D01*
X047786Y010853D02*
X047785D01*
X047786Y034103D02*
X047785D01*
Y010853D02*
X047535Y011103D01*
X047785Y034103D02*
X047535Y034353D01*
X047535Y017103D02*
X046785Y017853D01*
X047535Y040353D02*
X046785Y041103D01*
X047535Y011103D02*
X044285D01*
X047535Y034353D02*
X044285D01*
X047286Y009353D02*
X047286D01*
X047286Y032603D02*
X047286D01*
Y009353D02*
X047285Y009353D01*
X047286Y032603D02*
X047285Y032603D01*
Y009353D02*
D01*
X047036Y009103D01*
X047285Y009353D02*
Y009353D01*
Y009353D02*
X047036Y009103D01*
X047285Y009353D02*
X046285Y010353D01*
X047285Y032603D02*
D01*
X047036Y032353D01*
X047285Y032603D02*
Y032603D01*
Y032603D02*
X047036Y032353D01*
X047285Y032603D02*
X046535Y033353D01*
X046835Y012153D02*
X046785Y012103D01*
X046835Y035403D02*
X046785Y035353D01*
Y017853D02*
X046036Y018603D01*
X046785Y041103D02*
X046036Y041853D01*
X046535Y033353D02*
X042785D01*
X046520Y014603D02*
X046470Y014653D01*
X046520Y037853D02*
X046470Y037903D01*
Y014653D02*
X045601D01*
X046470Y037903D02*
X045601D01*
X046385Y013953D02*
X046035Y013603D01*
X046385Y037203D02*
X046035Y036853D01*
X046336Y008303D02*
X045535Y009103D01*
X046336Y031553D02*
X045535Y032353D01*
X046285Y010353D02*
X043785D01*
X046036Y018603D02*
X044035D01*
X046036Y041853D02*
X044536Y043353D01*
X046035Y016603D02*
X044836Y017803D01*
X046035Y039853D02*
X044836Y041053D01*
X045601Y014653D02*
X045551Y014603D01*
X045601Y037903D02*
X045551Y037853D01*
Y014603D02*
X045035D01*
X045551Y037853D02*
X045035D01*
X045535Y009103D02*
X043285D01*
X045535Y015353D02*
X044035Y016853D01*
X045535Y032353D02*
X043285D01*
X045535Y038603D02*
X044035Y040103D01*
X045285Y012103D02*
X044285D01*
X045285Y035353D02*
X044285D01*
X045035Y014603D02*
X043535Y016103D01*
X045035Y037853D02*
X043535Y039353D01*
X044836Y017803D02*
X042471D01*
X044836Y041053D02*
X040721D01*
X044536Y043353D02*
X032285D01*
X044285Y011103D02*
X042285Y013103D01*
X044285Y034353D02*
X041535Y037103D01*
X044285Y012103D02*
X041735Y014653D01*
X044285Y035353D02*
X041785Y037853D01*
X044035Y016853D02*
X034035D01*
X044035Y040103D02*
X040286D01*
X044035Y018603D02*
X042535Y020103D01*
X043785Y010353D02*
X043035Y011103D01*
X043535Y016103D02*
X035285D01*
X043535Y039353D02*
X035285D01*
X043285Y009103D02*
D01*
Y032353D02*
D01*
Y007603D02*
X043035Y007853D01*
X043285Y030853D02*
X042035D01*
X043035Y011103D02*
X041785D01*
X043035Y007853D02*
X039786D01*
X042785Y033353D02*
X042450Y033688D01*
X042535Y020103D02*
X032285D01*
X042471Y017803D02*
X042471Y017803D01*
X041601D01*
X042450Y033688D02*
X039700D01*
X042285Y013103D02*
X040035D01*
X042285Y042103D02*
X031536D01*
X042036Y018853D02*
X031536D01*
X042035Y030853D02*
X041535Y030353D01*
X041785Y011103D02*
X041285Y010603D01*
X041785Y037853D02*
X032285D01*
X041735Y014653D02*
X034397D01*
X041601Y017803D02*
X041601Y017803D01*
X039721D01*
X041535Y030353D02*
X021285D01*
X041535Y037103D02*
X033785D01*
X041285Y010603D02*
X033405D01*
X040721Y041053D02*
X040421Y041353D01*
X040535Y011853D02*
X033285D01*
X040421Y041353D02*
X031035D01*
X040286Y035103D02*
X039786D01*
X040286Y040103D02*
X040035Y040353D01*
Y013103D02*
X039535Y012603D01*
X040035Y040353D02*
X033785D01*
X039786Y035103D02*
X039536Y035353D01*
X039721Y017803D02*
X039321Y018203D01*
X039700Y033688D02*
X038785Y034603D01*
X039536Y035353D02*
X032535D01*
X039535Y012603D02*
X034036D01*
X039321Y018203D02*
X031266D01*
X038785Y034603D02*
X029285D01*
X035285Y016103D02*
X034785Y015603D01*
X035285Y039353D02*
X034785Y038853D01*
Y015603D02*
X033785D01*
X034785Y038853D02*
X033785D01*
X034397Y014653D02*
X034372Y014628D01*
X033199D01*
X034036Y012603D02*
X033536Y013103D01*
X034035Y016853D02*
X033785Y017103D01*
Y037103D02*
X033285Y036603D01*
X033405Y010603D02*
X032655Y011353D01*
X033285Y011853D02*
X032200Y012938D01*
X033199Y014628D02*
X033174Y014653D01*
X032897D01*
X032872Y014628D01*
X032560D01*
X032655Y011353D02*
X030785D01*
X032560Y014628D02*
X031535Y013603D01*
X032535Y035353D02*
X031700Y036188D01*
X032285Y015603D02*
X031035Y014353D01*
X032285Y017103D02*
X031035D01*
X032285Y037853D02*
X031385Y036953D01*
X032285Y038853D02*
X031035Y037603D01*
X032285Y039853D02*
X028785D01*
X032200Y012938D02*
X021120D01*
X031700Y036188D02*
X021120D01*
X031536Y042103D02*
X031536Y042103D01*
Y018853D02*
X029950Y020438D01*
X031536Y042103D02*
X029950Y043688D01*
X031535Y013603D02*
X021270D01*
X031385Y036953D02*
X015385D01*
X031266Y018203D02*
X031116Y018353D01*
X029035D01*
X031035Y014353D02*
X015785D01*
X031035Y017103D02*
X030535Y016603D01*
X031035Y037603D02*
X015020D01*
X031035Y041353D02*
X030785Y041603D01*
Y011353D02*
X030285Y010853D01*
X030785Y041603D02*
X028785D01*
X030535Y016603D02*
X028785D01*
X030285Y010853D02*
X028785D01*
X029950Y020438D02*
X021120D01*
X029950Y043688D02*
X021120D01*
X029285Y034603D02*
X028035Y033353D01*
X029035Y018353D02*
X028285Y017603D01*
X028785Y016603D02*
X028035Y015853D01*
X028785Y018353D02*
Y018603D01*
Y018353D02*
X028035Y017603D01*
X028785Y018603D02*
X028035Y019353D01*
X028785Y039853D02*
X028035Y039103D01*
X028785Y041603D02*
X028035Y040853D01*
X028785Y010853D02*
X028035Y010103D01*
X028285Y017603D02*
X028035D01*
X021285Y030353D02*
X020785Y029853D01*
X021270Y013603D02*
X021220Y013653D01*
X016335D01*
X021120Y020438D02*
X020785Y020103D01*
X021120Y043688D02*
X020785Y043353D01*
X021120Y012938D02*
X020785Y012603D01*
X021120Y036188D02*
X020785Y035853D01*
X018745Y034563D02*
X010535D01*
X016335Y013653D02*
X014786Y012103D01*
X015785Y014353D02*
X014785Y013353D01*
X015385Y036953D02*
X014285Y035853D01*
X015020Y037603D02*
X014520Y037103D01*
X014785Y013353D02*
X013035D01*
X014520Y037103D02*
X013035D01*
Y013353D02*
X011755Y012073D01*
X013035Y037103D02*
X010495Y034563D01*
X011755Y012073D02*
X011295D01*
X010535Y011313D01*
Y034563D02*
X010495D01*
G54D85*
X092035Y011693D03*
Y014233D03*
Y016773D03*
Y019313D03*
G54D86*
X092035Y021853D03*
G54D85*
X092035Y034023D03*
Y036563D03*
G54D86*
X092035Y039103D03*
G54D85*
X089495Y011693D03*
Y014233D03*
Y016773D03*
Y019313D03*
Y021853D03*
Y034023D03*
Y036563D03*
Y039103D03*
G54D84*
X073235Y039453D03*
X068835D03*
G54D74*
X061035Y008378D03*
Y009828D03*
G54D70*
X061035Y011603D03*
Y013103D03*
G54D74*
X061035Y018128D03*
Y019578D03*
G54D70*
X061035Y034853D03*
Y036353D03*
G54D74*
X061035Y040878D03*
Y042328D03*
G54D70*
X061035Y014853D03*
Y016353D03*
Y038103D03*
Y039603D03*
G54D74*
X060785Y031628D03*
Y033078D03*
X059036Y011153D03*
Y012603D03*
Y034403D03*
Y035853D03*
G54D56*
X059035Y008353D03*
Y031603D03*
G54D62*
X058260Y015603D03*
Y038853D03*
G54D56*
X057785Y017353D03*
Y040603D03*
X057535Y008353D03*
Y031603D03*
G54D62*
X056810Y015603D03*
Y038853D03*
G54D74*
X056535Y011153D03*
Y012603D03*
G54D56*
X056535Y019103D03*
G54D74*
X056535Y034403D03*
Y035853D03*
G54D56*
X056535Y042353D03*
X056285Y017353D03*
Y040603D03*
X055785Y008353D03*
Y031603D03*
G54D91*
X055185Y010603D03*
G54D92*
X055185Y017103D03*
G54D91*
X055185Y033853D03*
G54D92*
X055185Y040353D03*
G54D56*
X055035Y019103D03*
Y042353D03*
G54D91*
X054535Y010603D03*
Y017103D03*
Y033853D03*
Y040353D03*
G54D56*
X054285Y008353D03*
Y031603D03*
G54D91*
X053885Y010603D03*
Y017103D03*
Y033853D03*
Y040353D03*
G54D56*
X053535Y019103D03*
Y042353D03*
G54D91*
X053235Y010603D03*
Y017103D03*
Y033853D03*
Y040353D03*
G54D70*
X052035Y007603D03*
Y009103D03*
G54D56*
X052035Y019103D03*
G54D70*
X052035Y030853D03*
Y032353D03*
G54D56*
X052035Y042353D03*
X046785Y012103D03*
Y035353D03*
X045285Y012103D03*
Y035353D03*
G54D70*
X043285Y007603D03*
Y009103D03*
Y030853D03*
Y032353D03*
G54D56*
X033785Y015603D03*
Y017103D03*
Y038853D03*
Y040353D03*
X032285Y015603D03*
Y017103D03*
Y038853D03*
Y040353D03*
G54D87*
X022825Y025353D03*
X017745D03*
X010535Y011313D03*
Y016393D03*
Y034563D03*
Y039643D03*
G36*
X069373Y031158D02*
X069416Y031197D01*
X069460Y031230*
X069505Y031257*
X069551Y031278*
X069598Y031294*
X069647Y031303*
X069696Y031307*
X069747Y031304*
X069800Y031296*
X069853Y031282*
X069460Y032024*
X069441Y031965*
X069398Y031853*
X069373Y031800*
X069318Y031702*
X069287Y031657*
X069255Y031614*
X069221Y031573*
X069184Y031535*
X069373Y031158*
G37*
G36*
X067711Y030553D02*
X067656Y030555D01*
X067601Y030562*
X067548Y030573*
X067496Y030588*
X067446Y030608*
X067397Y030632*
X067349Y030661*
X067303Y030694*
X067258Y030731*
X067214Y030773*
Y029933*
X067258Y029975*
X067303Y030012*
X067349Y030045*
X067397Y030074*
X067446Y030098*
X067496Y030118*
X067548Y030133*
X067601Y030144*
X067656Y030151*
X067711Y030153*
Y030553*
G37*
G36*
X086531Y010507D02*
X086530Y010446D01*
X086525Y010388*
X086517Y010333*
X086505Y010281*
X086490Y010232*
X086472Y010186*
X086450Y010143*
X086425Y010103*
X086397Y010066*
X086365Y010032*
X087205*
X087174Y010066*
X087146Y010103*
X087121Y010143*
X087099Y010186*
X087081Y010232*
X087066Y010281*
X087054Y010333*
X087046Y010388*
X087041Y010446*
X087039Y010507*
X086531*
G37*
G36*
X079204Y023811D02*
X079145Y023813D01*
X079091Y023820*
X079044Y023832*
X079003Y023848*
X078968Y023869*
X078939Y023895*
X078916Y023926*
X078900Y023961*
X078890Y024000*
X078885Y024045*
X078389Y023439*
X079084Y023430*
X079204Y023811*
G37*
G36*
X079084Y023176D02*
X078389Y023167D01*
X078885Y022562*
X078890Y022606*
X078900Y022646*
X078916Y022681*
X078939Y022711*
X078968Y022737*
X079003Y022758*
X079044Y022774*
X079091Y022786*
X079145Y022793*
X079204Y022795*
X079084Y023176*
G37*
G36*
X090155Y009171D02*
X090089Y009172D01*
X089972Y009180*
X089921Y009187*
X089874Y009196*
X089833Y009207*
X089796Y009221*
X089764Y009236*
X089736Y009254*
X089714Y009273*
Y008433*
X089736Y008453*
X089764Y008470*
X089796Y008485*
X089833Y008499*
X089874Y008510*
X089921Y008519*
X089972Y008526*
X090089Y008535*
X090155Y008536*
Y009171*
G37*
G54D88*
X090285Y028853D03*
X089285Y008853D03*
X087285Y017103D03*
X086785Y009603D03*
X086035Y040603D03*
X085285Y015353D03*
X082535Y025103D03*
X081785Y031853D03*
X081285Y038103D03*
X080535Y016103D03*
X078286Y022576D03*
Y024030D03*
X078035Y013103D03*
X077535Y019603D03*
X075035D03*
X074535Y024103D03*
X074285Y022353D03*
X073759Y032903D03*
X072535Y014353D03*
Y021103D03*
X072286Y033603D03*
X071536Y019603D03*
X071285Y039853D03*
X070785Y024503D03*
X070035Y031853D03*
X069535Y033853D03*
X069285Y014853D03*
X068285Y007853D03*
Y016853D03*
X067035Y015103D03*
Y039603D03*
X066785Y021853D03*
Y030353D03*
X066535Y027103D03*
X065286Y014853D03*
Y031853D03*
X064235Y043103D03*
X063035Y037103D03*
X062785Y012103D03*
Y039353D03*
X062535Y042603D03*
X062035Y024603D03*
X059535Y040853D03*
X058785Y018853D03*
X058035Y042103D03*
X057785Y009853D03*
Y033103D03*
X057035Y027103D03*
X056035Y022353D03*
X053535Y028353D03*
X051785D03*
X051286Y019103D03*
X051126Y042178D03*
X047786Y010853D03*
Y034103D03*
X047535Y017103D03*
Y040353D03*
X047286Y009353D03*
Y032603D03*
X047285Y019103D03*
Y042353D03*
X046035Y013603D03*
Y016603D03*
Y036853D03*
Y039853D03*
X044035Y028353D03*
X042285Y042103D03*
X042036Y018853D03*
X041786Y009103D03*
X041535Y032603D03*
X041035Y022353D03*
Y023853D03*
Y025353D03*
X040535Y011853D03*
X040286Y035103D03*
X039285Y007603D03*
X036035Y022853D03*
X034285D03*
X033536Y013103D03*
X033285Y036603D03*
X032285Y020103D03*
Y043353D03*
X028035Y008353D03*
Y010103D03*
Y011853D03*
Y015853D03*
Y017603D03*
Y019353D03*
Y031603D03*
Y033353D03*
Y035103D03*
Y039103D03*
Y040853D03*
Y042603D03*
X020785Y012603D03*
Y020103D03*
Y029853D03*
Y035853D03*
Y043353D03*
X014786Y012103D03*
X014285Y035853D03*
M02*