%FSDAX33Y33*%
%MOMM*%
%SFA1B1*%

%IPPOS*%
%AMD1002*
%
%ADD11C,0.254000*%
%ADD20R,1.100000X1.000001*%
%ADD21R,0.800001X1.050000*%
%ADD23R,1.000001X1.100000*%
%ADD62C,0.399999*%
%ADD63C,0.508000*%
%ADD64C,0.635000*%
%ADD65C,0.381000*%
%ADD66C,0.900001*%
%ADD67R,1.500000X1.500000*%
%ADD68C,1.500000*%
%ADD69C,2.999999*%
%ADD70C,1.200000*%
%ADD71C,1.270000*%
%ADD74R,1.050000X0.800001*%
%ADD75O,0.399999X1.500000*%
%ADD76R,0.399999X1.500000*%
%ADD77C,0.499999*%
%LNgrb_bot_layer-1*%
%LPD*%
G36*
X152400Y076200D02*
X000000D01*
Y000000*
X152400*
Y076200*
G37*
%LNgrb_bot_layer-2*%
%LPC*%
G36*
X064760Y054603D02*
X064816Y054601D01*
X064870Y054594*
X064923Y054583*
X064975Y054568*
X065025Y054548*
X065074Y054524*
X065122Y054495*
X065168Y054462*
X065214Y054425*
X065257Y054383*
Y055223*
X065214Y055181*
X065168Y055144*
X065122Y055111*
X065074Y055082*
X065025Y055058*
X064975Y055038*
X064923Y055023*
X064870Y055012*
X064816Y055005*
X064760Y055003*
Y054603*
G37*
G36*
X048043Y056588D02*
X047938Y056589D01*
X047382Y056623*
X047348Y056631*
X047775Y055944*
X047787Y055990*
X047804Y056032*
X047826Y056068*
X047854Y056100*
X047887Y056127*
X047925Y056149*
X047968Y056166*
X048017Y056178*
X048071Y056186*
X048130Y056188*
X048043Y056588*
G37*
G36*
X064760Y031353D02*
X064816Y031351D01*
X064870Y031344*
X064923Y031333*
X064975Y031318*
X065025Y031298*
X065074Y031274*
X065122Y031245*
X065168Y031212*
X065214Y031175*
X065257Y031133*
Y031973*
X065214Y031931*
X065168Y031894*
X065122Y031861*
X065074Y031832*
X065025Y031808*
X064975Y031788*
X064923Y031773*
X064870Y031762*
X064816Y031755*
X064760Y031753*
Y031353*
G37*
G36*
X048043Y033338D02*
X047938Y033339D01*
X047382Y033373*
X047348Y033381*
X047775Y032694*
X047787Y032740*
X047804Y032782*
X047826Y032818*
X047854Y032850*
X047887Y032877*
X047925Y032899*
X047968Y032916*
X048017Y032928*
X048071Y032936*
X048130Y032938*
X048043Y033338*
G37*
G36*
X064890Y024566D02*
X064928Y024525D01*
X064961Y024482*
X064991Y024437*
X065017Y024389*
X065038Y024340*
X065056Y024288*
X065069Y024234*
X065079Y024178*
X065084Y024119*
X065086Y024059*
X065680Y024653*
X065619Y024654*
X065561Y024660*
X065505Y024669*
X065451Y024683*
X065399Y024700*
X065349Y024722*
X065302Y024748*
X065257Y024777*
X065214Y024811*
X065173Y024849*
X064890Y024566*
G37*
G36*
X048043Y025838D02*
X047938Y025839D01*
X047382Y025873*
X047348Y025881*
X047775Y025194*
X047787Y025240*
X047804Y025282*
X047826Y025318*
X047854Y025350*
X047887Y025377*
X047925Y025399*
X047968Y025416*
X048017Y025428*
X048071Y025436*
X048130Y025438*
X048043Y025838*
G37*
G36*
X062611Y027503D02*
X062556Y027505D01*
X062501Y027512*
X062448Y027523*
X062396Y027538*
X062346Y027558*
X062297Y027582*
X062249Y027611*
X062203Y027644*
X062158Y027681*
X062114Y027723*
Y026883*
X062158Y026925*
X062203Y026962*
X062249Y026995*
X062297Y027024*
X062346Y027048*
X062396Y027068*
X062448Y027083*
X062501Y027094*
X062556Y027101*
X062611Y027103*
Y027503*
G37*
G36*
X048043Y049088D02*
X047938Y049089D01*
X047382Y049123*
X047348Y049131*
X047775Y048444*
X047787Y048490*
X047804Y048532*
X047826Y048568*
X047854Y048600*
X047887Y048627*
X047925Y048649*
X047968Y048666*
X048017Y048678*
X048071Y048686*
X048130Y048688*
X048043Y049088*
G37*
G36*
X064697Y048009D02*
X065169Y047497D01*
X065327Y048284*
X065288Y048259*
X065248Y048241*
X065208Y048230*
X065167Y048227*
X065126Y048231*
X065084Y048242*
X065042Y048260*
X064999Y048286*
X064956Y048319*
X064912Y048359*
X064697Y048009*
G37*
G36*
X062611Y050753D02*
X062556Y050755D01*
X062501Y050762*
X062448Y050773*
X062396Y050788*
X062346Y050808*
X062297Y050832*
X062249Y050861*
X062203Y050894*
X062158Y050931*
X062114Y050973*
Y050133*
X062158Y050175*
X062203Y050212*
X062249Y050245*
X062297Y050274*
X062346Y050298*
X062396Y050318*
X062448Y050333*
X062501Y050344*
X062556Y050351*
X062611Y050353*
Y050753*
G37*
G36*
X072140Y030316D02*
X072177Y030275D01*
X072211Y030232*
X072241Y030187*
X072266Y030140*
X072288Y030090*
X072306Y030038*
X072319Y029984*
X072329Y029928*
X072334Y029870*
X072336Y029809*
X072929Y030403*
X072869Y030404*
X072811Y030410*
X072754Y030419*
X072700Y030433*
X072649Y030451*
X072599Y030472*
X072552Y030498*
X072506Y030528*
X072463Y030561*
X072422Y030599*
X072140Y030316*
G37*
G36*
X059611Y033003D02*
X059556Y033005D01*
X059501Y033012*
X059448Y033023*
X059396Y033038*
X059346Y033058*
X059297Y033082*
X059249Y033111*
X059203Y033144*
X059158Y033181*
X059114Y033223*
Y032383*
X059158Y032425*
X059203Y032462*
X059249Y032495*
X059297Y032524*
X059346Y032548*
X059396Y032568*
X059448Y032583*
X059501Y032594*
X059556Y032601*
X059611Y032603*
Y033003*
G37*
G36*
X072140Y053566D02*
X072177Y053525D01*
X072211Y053482*
X072241Y053437*
X072266Y053390*
X072288Y053340*
X072306Y053288*
X072319Y053234*
X072329Y053178*
X072334Y053120*
X072336Y053059*
X072929Y053653*
X072869Y053654*
X072811Y053660*
X072754Y053669*
X072700Y053683*
X072649Y053701*
X072599Y053722*
X072552Y053748*
X072506Y053778*
X072463Y053811*
X072422Y053849*
X072140Y053566*
G37*
G36*
X059611Y056253D02*
X059556Y056255D01*
X059501Y056262*
X059448Y056273*
X059396Y056288*
X059346Y056308*
X059297Y056332*
X059249Y056361*
X059203Y056394*
X059158Y056431*
X059114Y056473*
Y055633*
X059158Y055675*
X059203Y055712*
X059249Y055745*
X059297Y055774*
X059346Y055798*
X059396Y055818*
X059448Y055833*
X059501Y055844*
X059556Y055851*
X059611Y055853*
Y056253*
G37*
G36*
Y026253D02*
X059556Y026255D01*
X059501Y026262*
X059448Y026273*
X059396Y026288*
X059346Y026308*
X059297Y026332*
X059249Y026361*
X059203Y026394*
X059158Y026431*
X059114Y026473*
Y025633*
X059158Y025675*
X059203Y025712*
X059249Y025745*
X059297Y025774*
X059346Y025798*
X059396Y025818*
X059448Y025833*
X059501Y025844*
X059556Y025851*
X059611Y025853*
Y026253*
G37*
G36*
X072228Y023603D02*
X072286Y023601D01*
X072340Y023593*
X072390Y023580*
X072436Y023563*
X072477Y023540*
X072515Y023512*
X072548Y023479*
X072576Y023441*
X072601Y023398*
X072621Y023350*
X072966Y024111*
X072911Y024091*
X072748Y024042*
X072695Y024030*
X072588Y024013*
X072535Y024007*
X072429Y024003*
X072228Y023603*
G37*
G36*
Y046853D02*
X072286Y046851D01*
X072340Y046843*
X072390Y046830*
X072436Y046813*
X072477Y046790*
X072515Y046762*
X072548Y046729*
X072576Y046691*
X072601Y046648*
X072621Y046600*
X072966Y047361*
X072911Y047341*
X072748Y047292*
X072695Y047280*
X072588Y047263*
X072535Y047257*
X072429Y047253*
X072228Y046853*
G37*
G36*
X059611Y049503D02*
X059556Y049505D01*
X059501Y049512*
X059448Y049523*
X059396Y049538*
X059346Y049558*
X059297Y049582*
X059249Y049611*
X059203Y049644*
X059158Y049681*
X059114Y049723*
Y048883*
X059158Y048925*
X059203Y048962*
X059249Y048995*
X059297Y049024*
X059346Y049048*
X059396Y049068*
X059448Y049083*
X059501Y049094*
X059556Y049101*
X059611Y049103*
Y049503*
G37*
G36*
X071890Y022566D02*
X071928Y022525D01*
X071961Y022482*
X071991Y022437*
X072017Y022389*
X072038Y022340*
X072056Y022288*
X072069Y022234*
X072079Y022178*
X072084Y022119*
X072086Y022059*
X072680Y022653*
X072619Y022654*
X072561Y022660*
X072505Y022669*
X072451Y022683*
X072399Y022700*
X072349Y022722*
X072302Y022748*
X072257Y022777*
X072213Y022811*
X072173Y022849*
X071890Y022566*
G37*
G36*
X038322Y024213D02*
X038222Y024222D01*
X038115Y024247*
X038001Y024290*
X037880Y024349*
X037752Y024426*
X037617Y024519*
X037475Y024630*
X037170Y024902*
X037007Y025063*
Y022963*
X037170Y023125*
X037475Y023397*
X037617Y023507*
X037752Y023601*
X037880Y023677*
X038001Y023737*
X038115Y023779*
X038222Y023805*
X038322Y023813*
Y024213*
G37*
G36*
X071890Y045816D02*
X071928Y045775D01*
X071961Y045732*
X071991Y045687*
X072017Y045639*
X072038Y045590*
X072056Y045538*
X072069Y045484*
X072079Y045428*
X072084Y045369*
X072086Y045309*
X072680Y045903*
X072619Y045904*
X072561Y045910*
X072505Y045919*
X072451Y045933*
X072399Y045950*
X072349Y045972*
X072302Y045998*
X072257Y046027*
X072213Y046061*
X072173Y046099*
X071890Y045816*
G37*
G36*
X038322Y047463D02*
X038222Y047472D01*
X038115Y047497*
X038001Y047540*
X037880Y047599*
X037752Y047676*
X037617Y047769*
X037475Y047880*
X037170Y048152*
X037007Y048313*
Y046213*
X037170Y046375*
X037475Y046647*
X037617Y046757*
X037752Y046851*
X037880Y046927*
X038001Y046987*
X038115Y047029*
X038222Y047055*
X038322Y047063*
Y047463*
G37*
G36*
X070640Y029816D02*
X070677Y029775D01*
X070711Y029732*
X070741Y029687*
X070766Y029640*
X070788Y029590*
X070806Y029538*
X070819Y029484*
X070829Y029428*
X070834Y029370*
X070836Y029309*
X071429Y029903*
X071369Y029904*
X071311Y029910*
X071254Y029919*
X071200Y029933*
X071149Y029951*
X071099Y029972*
X071052Y029998*
X071006Y030028*
X070963Y030061*
X070922Y030099*
X070640Y029816*
G37*
G36*
X054990Y029390D02*
X054947Y029351D01*
X054902Y029316*
X054854Y029286*
X054803Y029259*
X054750Y029237*
X054694Y029219*
X054635Y029205*
X054573Y029195*
X054509Y029189*
X054442Y029188*
X055070Y028559*
X055072Y028627*
X055077Y028691*
X055087Y028753*
X055101Y028811*
X055119Y028868*
X055142Y028921*
X055168Y028972*
X055199Y029020*
X055233Y029065*
X055272Y029107*
X054990Y029390*
G37*
G36*
X070640Y053066D02*
X070677Y053025D01*
X070711Y052982*
X070741Y052937*
X070766Y052890*
X070788Y052840*
X070806Y052788*
X070819Y052734*
X070829Y052678*
X070834Y052620*
X070836Y052559*
X071429Y053153*
X071369Y053154*
X071311Y053160*
X071254Y053169*
X071200Y053183*
X071149Y053201*
X071099Y053222*
X071052Y053248*
X071006Y053278*
X070963Y053311*
X070922Y053349*
X070640Y053066*
G37*
G36*
X054990Y052640D02*
X054947Y052601D01*
X054902Y052566*
X054854Y052536*
X054803Y052509*
X054750Y052487*
X054694Y052469*
X054635Y052455*
X054573Y052445*
X054509Y052439*
X054442Y052438*
X055070Y051809*
X055072Y051877*
X055077Y051941*
X055087Y052003*
X055101Y052061*
X055119Y052118*
X055142Y052171*
X055168Y052222*
X055199Y052270*
X055233Y052315*
X055272Y052357*
X054990Y052640*
G37*
G36*
X091639Y028316D02*
X091677Y028275D01*
X091711Y028232*
X091741Y028187*
X091766Y028140*
X091788Y028090*
X091806Y028038*
X091819Y027984*
X091829Y027928*
X091834Y027870*
X091836Y027809*
X092429Y028403*
X092369Y028404*
X092311Y028410*
X092254Y028419*
X092200Y028433*
X092149Y028451*
X092099Y028472*
X092052Y028498*
X092006Y028528*
X091963Y028561*
X091922Y028599*
X091639Y028316*
G37*
G36*
X091985Y035479D02*
X091983Y035423D01*
X091977Y035369*
X091966Y035316*
X091950Y035264*
X091930Y035214*
X091906Y035165*
X091878Y035117*
X091845Y035070*
X091807Y035025*
X091765Y034982*
X092605*
X092564Y035025*
X092526Y035070*
X092493Y035117*
X092465Y035165*
X092440Y035214*
X092421Y035264*
X092405Y035316*
X092394Y035369*
X092388Y035423*
X092385Y035479*
X091985*
G37*
G36*
X092135Y038877D02*
X092138Y038933D01*
X092144Y038987*
X092155Y039040*
X092171Y039092*
X092191Y039142*
X092215Y039192*
X092243Y039239*
X092276Y039286*
X092314Y039331*
X092356Y039375*
X091515*
X091557Y039331*
X091595Y039286*
X091628Y039239*
X091656Y039192*
X091680Y039142*
X091700Y039092*
X091716Y039040*
X091727Y038987*
X091733Y038933*
X091735Y038877*
X092135*
G37*
G36*
X092821Y029228D02*
X092875Y029226D01*
X092928Y029221*
X092982Y029212*
X093035Y029200*
X093089Y029184*
X093142Y029165*
X093195Y029142*
X093248Y029116*
X093301Y029086*
X093354Y029053*
X093179Y029875*
X093146Y029828*
X093111Y029786*
X093073Y029749*
X093032Y029717*
X092988Y029690*
X092942Y029668*
X092893Y029650*
X092842Y029638*
X092787Y029631*
X092730Y029628*
X092821Y029228*
G37*
G36*
X091199Y045349D02*
X091158Y045311D01*
X091115Y045278*
X091069Y045248*
X091022Y045222*
X090972Y045201*
X090921Y045183*
X090867Y045169*
X090810Y045160*
X090752Y045154*
X090691Y045153*
X091285Y044559*
X091287Y044620*
X091292Y044678*
X091302Y044734*
X091315Y044788*
X091333Y044840*
X091355Y044890*
X091380Y044937*
X091410Y044982*
X091444Y045025*
X091481Y045066*
X091199Y045349*
G37*
G36*
X094010Y046353D02*
X094065Y046351D01*
X094120Y046344*
X094173Y046333*
X094225Y046318*
X094275Y046298*
X094324Y046274*
X094372Y046245*
X094418Y046212*
X094463Y046175*
X094507Y046133*
Y046973*
X094463Y046931*
X094418Y046894*
X094372Y046861*
X094324Y046832*
X094275Y046808*
X094225Y046788*
X094173Y046773*
X094120Y046762*
X094065Y046755*
X094010Y046753*
Y046353*
G37*
G36*
X100230Y031314D02*
X100742Y031787D01*
X099954Y031945*
X099980Y031905*
X099998Y031866*
X100008Y031826*
X100012Y031785*
X100008Y031744*
X099997Y031702*
X099979Y031660*
X099953Y031617*
X099920Y031574*
X099879Y031530*
X100230Y031314*
G37*
G36*
X083385Y053845D02*
X083388Y053904D01*
X083396Y053958*
X083408Y054007*
X083426Y054053*
X083449Y054095*
X083477Y054132*
X083510Y054165*
X083548Y054194*
X083591Y054218*
X083639Y054239*
X082877Y054583*
X082898Y054528*
X082947Y054365*
X082958Y054312*
X082976Y054205*
X082981Y054152*
X082985Y054046*
X083385Y053845*
G37*
G36*
X088787Y054985D02*
X088750Y055023D01*
X088716Y055064*
X088684Y055107*
X088653Y055152*
X088598Y055250*
X088573Y055303*
X088530Y055415*
X088511Y055474*
X088118Y054732*
X088171Y054746*
X088224Y054754*
X088275Y054757*
X088324Y054753*
X088373Y054744*
X088420Y054728*
X088466Y054707*
X088511Y054680*
X088555Y054647*
X088598Y054608*
X088787Y054985*
G37*
G36*
X077435Y055003D02*
X077407Y055003D01*
X077339Y055009*
X077323Y055012*
X077309Y055016*
X077299Y055021*
X077291Y055027*
X077287Y055033*
X077286Y055040*
X077087Y054607*
X077435Y054603*
Y055003*
G37*
G36*
X075929Y054603D02*
X075981Y054602D01*
X076087Y054593*
X076140Y054586*
X076248Y054564*
X076302Y054550*
X076411Y054515*
X076466Y054495*
X076121Y055256*
X076101Y055208*
X076076Y055165*
X076048Y055127*
X076015Y055094*
X075977Y055066*
X075936Y055044*
X075890Y055026*
X075840Y055013*
X075786Y055006*
X075728Y055003*
X075929Y054603*
G37*
G36*
X073643Y055003D02*
X073585Y055006D01*
X073531Y055013*
X073481Y055026*
X073435Y055044*
X073394Y055066*
X073357Y055094*
X073324Y055127*
X073295Y055165*
X073270Y055208*
X073250Y055256*
X072906Y054495*
X072960Y054515*
X073123Y054564*
X073177Y054576*
X073284Y054593*
X073337Y054599*
X073442Y054603*
X073643Y055003*
G37*
G36*
X082985Y046729D02*
X082983Y046673D01*
X082977Y046619*
X082966Y046566*
X082950Y046514*
X082931Y046464*
X082906Y046415*
X082878Y046367*
X082845Y046320*
X082807Y046275*
X082766Y046232*
X083605*
X083564Y046275*
X083526Y046320*
X083493Y046367*
X083465Y046415*
X083440Y046464*
X083421Y046514*
X083405Y046566*
X083394Y046619*
X083388Y046673*
X083385Y046729*
X082985*
G37*
G36*
X086119Y055228D02*
X086063Y055230D01*
X086009Y055237*
X085956Y055248*
X085905Y055264*
X085855Y055285*
X085807Y055310*
X085761Y055339*
X085716Y055373*
X085673Y055412*
X085631Y055455*
X085596Y054616*
X085642Y054656*
X085689Y054692*
X085737Y054724*
X085786Y054752*
X085836Y054775*
X085887Y054794*
X085939Y054809*
X085992Y054820*
X086046Y054826*
X086102Y054828*
X086119Y055228*
G37*
G36*
X085385Y054127D02*
X085388Y054183D01*
X085394Y054237*
X085405Y054290*
X085421Y054342*
X085440Y054392*
X085465Y054442*
X085493Y054489*
X085526Y054536*
X085564Y054581*
X085605Y054625*
X084765*
X084807Y054581*
X084845Y054536*
X084878Y054489*
X084906Y054442*
X084930Y054392*
X084950Y054342*
X084966Y054290*
X084977Y054237*
X084983Y054183*
X084985Y054127*
X085385*
G37*
G36*
X083185Y048753D02*
X082785Y048353D01*
X082823Y048351*
X082858Y048345*
X082887Y048335*
X082913Y048321*
X082935Y048303*
X082953Y048281*
X082967Y048255*
X082977Y048225*
X082983Y048191*
X082985Y048153*
X083385*
X083387Y048191*
X083393Y048225*
X083403Y048255*
X083417Y048281*
X083435Y048303*
X083457Y048321*
X083483Y048335*
X083513Y048345*
X083547Y048351*
X083585Y048353*
X083185Y048753*
G37*
G36*
Y025503D02*
X082785Y025103D01*
X082823Y025101*
X082858Y025095*
X082887Y025085*
X082913Y025071*
X082935Y025053*
X082953Y025031*
X082967Y025005*
X082977Y024975*
X082983Y024941*
X082985Y024903*
X083385*
X083387Y024941*
X083393Y024975*
X083403Y025005*
X083417Y025031*
X083435Y025053*
X083457Y025071*
X083483Y025085*
X083513Y025095*
X083547Y025101*
X083585Y025103*
X083185Y025503*
G37*
G36*
X073643Y031753D02*
X073585Y031756D01*
X073531Y031763*
X073481Y031776*
X073435Y031794*
X073394Y031816*
X073357Y031844*
X073324Y031877*
X073295Y031915*
X073270Y031958*
X073250Y032006*
X072906Y031245*
X072960Y031265*
X073123Y031314*
X073177Y031326*
X073284Y031343*
X073337Y031349*
X073442Y031353*
X073643Y031753*
G37*
G36*
X075929Y031353D02*
X075981Y031352D01*
X076087Y031343*
X076140Y031336*
X076248Y031314*
X076302Y031300*
X076411Y031265*
X076466Y031245*
X076121Y032006*
X076101Y031958*
X076076Y031915*
X076048Y031877*
X076015Y031844*
X075977Y031816*
X075936Y031794*
X075890Y031776*
X075840Y031763*
X075786Y031756*
X075728Y031753*
X075929Y031353*
G37*
G36*
X077435Y031753D02*
X077407Y031753D01*
X077339Y031759*
X077323Y031762*
X077309Y031766*
X077299Y031771*
X077291Y031777*
X077287Y031783*
X077286Y031790*
X077087Y031357*
X077435Y031353*
Y031753*
G37*
G36*
X082985Y023479D02*
X082983Y023423D01*
X082977Y023369*
X082966Y023316*
X082950Y023264*
X082931Y023214*
X082906Y023165*
X082878Y023117*
X082845Y023070*
X082807Y023025*
X082766Y022982*
X083605*
X083564Y023025*
X083526Y023070*
X083493Y023117*
X083465Y023165*
X083440Y023214*
X083421Y023264*
X083405Y023316*
X083394Y023369*
X083388Y023423*
X083385Y023479*
X082985*
G37*
G36*
X066692Y020753D02*
X066640Y020754D01*
X066534Y020763*
X066480Y020770*
X066373Y020792*
X066319Y020806*
X066210Y020841*
X066156Y020861*
X066500Y020100*
X066520Y020148*
X066545Y020191*
X066574Y020229*
X066607Y020262*
X066644Y020290*
X066685Y020313*
X066731Y020330*
X066781Y020343*
X066835Y020351*
X066893Y020353*
X066692Y020753*
G37*
G36*
X048111Y042753D02*
X048056Y042755D01*
X048001Y042762*
X047948Y042773*
X047896Y042788*
X047846Y042808*
X047797Y042832*
X047749Y042861*
X047703Y042894*
X047658Y042931*
X047614Y042973*
Y042133*
X047658Y042175*
X047703Y042212*
X047749Y042245*
X047797Y042274*
X047846Y042298*
X047896Y042318*
X047948Y042333*
X048001Y042344*
X048056Y042351*
X048111Y042353*
Y042753*
G37*
G36*
X085822Y026657D02*
X085922Y026756D01*
X086382Y027157*
X086413Y027173*
X086436Y027178*
X086060Y027553*
X086055Y027531*
X086040Y027499*
X086014Y027459*
X085977Y027411*
X085873Y027288*
X085638Y027040*
X085539Y026940*
X085822Y026657*
G37*
G36*
X089835Y055022D02*
X089846Y055241D01*
X089425*
X089427Y055238*
X089429Y055231*
X089430Y055220*
X089433Y055185*
X089435Y055022*
X089835*
G37*
G36*
X095260Y037003D02*
X095315Y037001D01*
X095370Y036994*
X095423Y036983*
X095474Y036968*
X095525Y036948*
X095574Y036924*
X095622Y036895*
X095668Y036862*
X095713Y036825*
X095757Y036783*
Y037623*
X095713Y037581*
X095668Y037544*
X095622Y037511*
X095574Y037482*
X095525Y037458*
X095474Y037438*
X095423Y037423*
X095370Y037412*
X095315Y037405*
X095260Y037403*
Y037003*
G37*
G36*
X072264Y049331D02*
X072178Y049124D01*
X072052Y048960*
X072077Y048843*
X072080Y048833*
X072585*
X072683Y048814*
X072766Y048758*
X072821Y048676*
X072840Y048578*
Y048562*
X078555*
X078730Y048527*
X078879Y048428*
X079610Y047697*
X079709Y047548*
X079840Y047543*
X079935Y047562*
X080000Y047549*
X080127Y047653*
Y048889*
X080162Y049065*
X080261Y049214*
X080374Y049327*
X080325Y049444*
X072279*
X072264Y049331*
G37*
G36*
X032194Y019562D02*
X067986D01*
X068024Y019689*
X067977Y019720*
X067921Y019804*
X067902Y019903*
Y020176*
X069469*
Y019903*
X069450Y019804*
X069394Y019720*
X069347Y019689*
X069385Y019562*
X076736*
X076774Y019689*
X076727Y019720*
X076671Y019804*
X076652Y019903*
Y020176*
X077435*
X078219*
Y019903*
X078200Y019804*
X078144Y019720*
X078097Y019689*
X078135Y019562*
X120177*
Y056544*
X090263*
X090222Y056424*
X090242Y056409*
X090378Y056232*
X090464Y056025*
X090493Y055803*
X090464Y055581*
X090378Y055374*
X090242Y055197*
X090234Y055073*
X091410Y053897*
X091509Y053748*
X091544Y053572*
Y046703*
X091509Y046527*
X091410Y046379*
X090552Y045521*
X090612Y045401*
X090686Y045410*
X090702Y045408*
X090737Y045409*
X090777Y045413*
X090814Y045419*
X090848Y045428*
X090880Y045438*
X090910Y045451*
X090939Y045467*
X090966Y045485*
X090977Y045494*
X092361Y046878*
X092510Y046977*
X092685Y047012*
X094064*
X094078Y047014*
X094110Y047020*
X094141Y047029*
X094172Y047041*
X094202Y047056*
X094232Y047074*
X094263Y047096*
X094294Y047122*
X094319Y047146*
X094329Y047159*
X094507Y047296*
X094714Y047381*
X094935Y047410*
X095157Y047381*
X095364Y047296*
X095542Y047159*
X095678Y046982*
X095764Y046775*
X095793Y046553*
X095764Y046331*
X095678Y046124*
X095542Y045947*
X095364Y045811*
X095157Y045725*
X094935Y045696*
X094714Y045725*
X094507Y045811*
X094329Y045947*
X094319Y045960*
X094294Y045984*
X094263Y046010*
X094232Y046032*
X094202Y046050*
X094172Y046065*
X094141Y046077*
X094110Y046086*
X094078Y046093*
X094064Y046094*
X092876*
X091626Y044845*
X091617Y044833*
X091599Y044806*
X091584Y044778*
X091571Y044748*
X091560Y044716*
X091551Y044682*
X091545Y044645*
X091541Y044605*
X091541Y044569*
X091543Y044553*
X091514Y044331*
X091428Y044124*
X091292Y043947*
X091114Y043811*
X090907Y043725*
X090686Y043696*
X090464Y043725*
X090257Y043811*
X090079Y043947*
X090021Y044022*
X089894Y043979*
Y043493*
X092076Y041312*
X092370*
X092546Y041277*
X092695Y041178*
X093310Y040562*
X093409Y040414*
X093444Y040238*
Y039943*
X093510Y039878*
X093609Y039729*
X093644Y039553*
Y037743*
X093726Y037662*
X095314*
X095328Y037664*
X095360Y037670*
X095391Y037679*
X095422Y037691*
X095452Y037706*
X095482Y037724*
X095513Y037746*
X095544Y037772*
X095569Y037796*
X095579Y037809*
X095757Y037946*
X095964Y038031*
X096185Y038060*
X096407Y038031*
X096614Y037946*
X096792Y037809*
X096928Y037632*
X097014Y037425*
X097043Y037203*
X097014Y036981*
X096928Y036774*
X096792Y036597*
X096614Y036461*
X096407Y036375*
X096185Y036346*
X095964Y036375*
X095757Y036461*
X095579Y036597*
X095569Y036610*
X095544Y036634*
X095513Y036660*
X095482Y036682*
X095452Y036700*
X095422Y036715*
X095391Y036727*
X095360Y036736*
X095328Y036743*
X095314Y036744*
X093535*
X093360Y036779*
X093211Y036879*
X092861Y037229*
X092762Y037378*
X092727Y037553*
Y039229*
X092600Y039272*
X092542Y039197*
X092529Y039187*
X092504Y039161*
X092479Y039130*
X092457Y039100*
X092439Y039069*
X092424Y039039*
X092412Y039009*
X092403Y038978*
X092396Y038946*
X092394Y038932*
Y037243*
X092510Y037128*
X092609Y036979*
X092644Y036803*
Y035424*
X092646Y035410*
X092653Y035378*
X092662Y035347*
X092674Y035317*
X092689Y035287*
X092707Y035256*
X092729Y035226*
X092754Y035195*
X092779Y035169*
X092792Y035159*
X092928Y034982*
X093014Y034775*
X093043Y034553*
X093014Y034331*
X092928Y034124*
X092849Y034021*
X092912Y033894*
X094378*
X095861Y035378*
X096010Y035477*
X096185Y035512*
X098966*
X099079Y035659*
X099257Y035796*
X099464Y035881*
X099685Y035910*
X099907Y035881*
X100114Y035796*
X100292Y035659*
X100428Y035482*
X100514Y035275*
X100543Y035053*
X100514Y034831*
X100428Y034624*
X100292Y034447*
X100114Y034311*
X099907Y034225*
X099685Y034196*
X099464Y034225*
X099257Y034311*
X099079Y034447*
X098966Y034594*
X098509*
X098466Y034467*
X098542Y034409*
X098678Y034232*
X098764Y034025*
X098793Y033803*
X098764Y033581*
X098678Y033374*
X098542Y033197*
X098364Y033061*
X098157Y032975*
X097935Y032946*
X097714Y032975*
X097608Y033019*
X097542Y032909*
X097678Y032732*
X097764Y032525*
X097793Y032303*
X097764Y032081*
X097678Y031874*
X097542Y031697*
X097364Y031561*
X097157Y031475*
X096936Y031446*
X096714Y031475*
X096507Y031561*
X096414Y031632*
X096160Y031379*
X096209Y031262*
X099245*
X099734Y031751*
X099742Y031760*
X099752Y031777*
X099755Y031784*
X099740Y031806*
X099735Y031820*
X099693Y031874*
X099607Y032081*
X099578Y032303*
X099607Y032525*
X099693Y032732*
X099829Y032909*
X100007Y033046*
X100214Y033131*
X100435Y033160*
X100657Y033131*
X100864Y033046*
X101042Y032909*
X101178Y032732*
X101264Y032525*
X101293Y032303*
X101264Y032081*
X101178Y031874*
X101042Y031697*
X100911Y031597*
X100478Y031197*
X099760Y030479*
X099611Y030379*
X099435Y030344*
X094259*
X094216Y030217*
X094292Y030159*
X094428Y029982*
X094514Y029775*
X094543Y029553*
X094514Y029331*
X094428Y029124*
X094292Y028947*
X094114Y028811*
X093907Y028725*
X093685Y028696*
X093464Y028725*
X093257Y028811*
X093226Y028834*
X093218Y028837*
X093171Y028867*
X093129Y028891*
X093088Y028911*
X093048Y028928*
X093009Y028942*
X092971Y028953*
X092933Y028962*
X092895Y028968*
X092885Y028969*
X092098*
X092045Y028842*
X092144Y028744*
X092155Y028735*
X092182Y028717*
X092211Y028701*
X092241Y028688*
X092273Y028678*
X092307Y028669*
X092344Y028663*
X092384Y028659*
X092419Y028658*
X092435Y028660*
X092657Y028631*
X092864Y028546*
X093042Y028409*
X093178Y028232*
X093264Y028025*
X093293Y027803*
X093264Y027581*
X093178Y027374*
X093042Y027197*
X092864Y027061*
X092657Y026975*
X092435Y026946*
X092214Y026975*
X092007Y027061*
X091829Y027197*
X091693Y027374*
X091658Y027458*
X091528Y027441*
X091514Y027331*
X091428Y027124*
X091292Y026947*
X091216Y026889*
X091258Y026764*
X091266Y026762*
X092995*
X093834Y027601*
X093857Y027775*
X093943Y027982*
X094079Y028159*
X094257Y028296*
X094464Y028381*
X094685Y028410*
X094907Y028381*
X095114Y028296*
X095292Y028159*
X095428Y027982*
X095514Y027775*
X095543Y027553*
X095514Y027331*
X095428Y027124*
X095292Y026947*
X095114Y026811*
X094907Y026725*
X094685Y026696*
X094464Y026725*
X094317Y026786*
X093510Y025979*
X093361Y025879*
X093185Y025844*
X091376*
X090394Y024863*
Y022553*
X090359Y022378*
X090260Y022229*
X089010Y020979*
X088861Y020879*
X088685Y020844*
X087240*
Y020578*
X087221Y020481*
X087166Y020398*
X087083Y020343*
X086985Y020323*
X085885*
X085788Y020343*
X085705Y020398*
X085650Y020481*
X085631Y020578*
Y020594*
X085090*
Y020528*
X085071Y020431*
X085016Y020348*
X084933Y020293*
X084835Y020273*
X084035*
X083938Y020293*
X083855Y020348*
X083800Y020431*
X083781Y020528*
Y021578*
X083800Y021676*
X083855Y021758*
X083938Y021814*
X083977Y021821*
Y023098*
X083885*
X083788Y023118*
X083705Y023173*
X083650Y023256*
X083631Y023353*
Y024353*
X083650Y024451*
X083674Y024486*
X083702Y024620*
X083646Y024704*
X083627Y024803*
Y025176*
X084436*
X085244*
Y024803*
X085225Y024704*
X085169Y024620*
X085197Y024486*
X085221Y024451*
X085240Y024353*
Y023353*
X085221Y023256*
X085166Y023173*
X085083Y023118*
X084985Y023098*
X084894*
Y021821*
X084933Y021814*
X085016Y021758*
X085071Y021676*
X085090Y021578*
Y021512*
X085631*
Y021578*
X085650Y021676*
X085705Y021758*
Y021848*
X085650Y021931*
X085631Y022028*
Y023028*
X085650Y023126*
X085705Y023208*
X085788Y023264*
X085885Y023283*
X085977*
Y023648*
X085910*
X085813Y023668*
X085730Y023723*
X085675Y023806*
X085656Y023903*
Y024703*
X085675Y024801*
X085730Y024883*
X085813Y024939*
X085910Y024958*
X086960*
X087058Y024939*
X087141Y024883*
X087196Y024801*
X087209Y024735*
X087334Y024756*
X087328Y024803*
X087357Y025025*
X087443Y025232*
X087579Y025409*
X087672Y025480*
Y027039*
X087185*
X087141Y026973*
X087058Y026918*
X086960Y026898*
X086472*
X086133Y026602*
X086111Y026579*
X086159Y026462*
X086308*
Y025930*
X085652*
Y025988*
X085540Y026048*
X085511Y026029*
X085335Y025994*
X085316*
X085288Y025967*
X085232Y025867*
X085244Y025803*
Y025430*
X084436*
X083627*
Y025803*
X083639Y025867*
X083583Y025967*
X083555Y025994*
X082816*
X082788Y025967*
X082732Y025867*
X082744Y025803*
Y025430*
X081935*
Y025176*
X082744*
Y024803*
X082725Y024704*
X082669Y024620*
X082697Y024486*
X082721Y024451*
X082740Y024353*
Y023353*
X082721Y023256*
X082666Y023173*
X082583Y023118*
X082485Y023098*
X081829*
X081710Y022979*
X081561Y022879*
X081385Y022844*
X081044*
Y022753*
X081026Y022663*
X081061Y022527*
X081210Y022428*
X081510Y022128*
X081609Y021979*
X081641Y021822*
X081683Y021814*
X081766Y021758*
X081821Y021676*
X081840Y021578*
Y021512*
X082281*
Y021578*
X082300Y021676*
X082355Y021758*
X082438Y021814*
X082535Y021833*
X083335*
X083433Y021814*
X083516Y021758*
X083571Y021676*
X083590Y021578*
Y020528*
X083571Y020431*
X083516Y020348*
X083433Y020293*
X083335Y020273*
X082535*
X082438Y020293*
X082355Y020348*
X082300Y020431*
X082281Y020528*
Y020594*
X081840*
Y020528*
X081821Y020431*
X081766Y020348*
X081683Y020293*
X081585Y020273*
X080785*
X080688Y020293*
X080605Y020348*
X080550Y020431*
X080531Y020528*
Y021578*
X080506Y021608*
X080455*
X080340Y021491*
Y020528*
X080321Y020431*
X080266Y020348*
X080183Y020293*
X080085Y020273*
X079285*
X079188Y020293*
X079105Y020348*
X079050Y020431*
X079031Y020528*
Y021059*
X078961Y021129*
X078862Y021278*
X078827Y021453*
Y022203*
X078700Y022307*
X078635Y022294*
X078585Y022304*
X078215Y021934*
Y021403*
X078196Y021306*
X078141Y021223*
X078058Y021168*
X077960Y021148*
X076910*
X076813Y021168*
X076730Y021223*
X076675Y021306*
X076667Y021344*
X074626*
X073960Y020678*
X073811Y020579*
X073635Y020544*
X071736*
X071560Y020579*
X071411Y020678*
X070745Y021344*
X069454*
X069446Y021306*
X069391Y021223*
X069308Y021168*
X069210Y021148*
X068160*
X068063Y021168*
X067980Y021223*
X067925Y021306*
X067906Y021403*
Y022203*
X067925Y022301*
X067980Y022383*
X068063Y022439*
X068160Y022458*
X069210*
X069308Y022439*
X069391Y022383*
X069446Y022301*
X069454Y022262*
X070935*
X071111Y022227*
X071260Y022128*
X071849Y021538*
X071945Y021622*
X071943Y021624*
X071858Y021831*
X071828Y022053*
X071831Y022069*
X071830Y022105*
X071826Y022145*
X071820Y022181*
X071811Y022216*
X071800Y022248*
X071787Y022278*
X071772Y022306*
X071754Y022333*
X071745Y022345*
X071495Y022594*
X069185*
X069010Y022629*
X068861Y022729*
X068245Y023344*
X067376*
X066510Y022479*
X066361Y022379*
X066185Y022344*
X065185*
X065010Y022379*
X064861Y022479*
X063745Y023594*
X057940*
Y020303*
X057921Y020206*
X057866Y020123*
X057783Y020068*
X057685Y020048*
X033185*
X033088Y020068*
X033005Y020123*
X032950Y020206*
X032931Y020303*
Y026303*
X032950Y026401*
X033005Y026483*
Y026623*
X032950Y026706*
X032931Y026803*
Y032803*
X032950Y032901*
X033005Y032983*
X033088Y033039*
X033185Y033058*
X046328*
X046361Y033051*
X046368Y033051*
X046443Y033232*
X046579Y033409*
X046757Y033546*
X046964Y033631*
X047185Y033660*
X047407Y033631*
X047421Y033626*
X047889Y033597*
X056350*
X056526Y033562*
X056675Y033463*
X057849Y032289*
X057944Y032373*
X057943Y032374*
X057857Y032581*
X057828Y032803*
X057857Y033025*
X057943Y033232*
X058079Y033409*
X058257Y033546*
X058464Y033631*
X058685Y033660*
X058907Y033631*
X059114Y033546*
X059292Y033409*
X059302Y033396*
X059327Y033372*
X059358Y033346*
X059389Y033324*
X059419Y033306*
X059449Y033291*
X059480Y033279*
X059511Y033270*
X059543Y033264*
X059557Y033262*
X065935*
X066111Y033227*
X066260Y033128*
Y033128*
X067626Y031762*
X071436*
X071611Y031727*
X071760Y031628*
X072644Y030744*
X072655Y030735*
X072682Y030717*
X072711Y030701*
X072741Y030688*
X072773Y030678*
X072807Y030669*
X072844Y030663*
X072884Y030659*
X072919Y030658*
X072935Y030660*
X073157Y030631*
X073364Y030546*
X073542Y030409*
X073678Y030232*
X073764Y030025*
X073793Y029803*
X073764Y029581*
X073678Y029374*
X073542Y029197*
X073364Y029061*
X073157Y028975*
X072935Y028946*
X072714Y028975*
X072507Y029061*
X072400Y029143*
X072264Y029087*
X072264Y029081*
X072178Y028874*
X072042Y028697*
X071966Y028639*
X072009Y028512*
X078165*
X078379Y028726*
X078363Y028889*
X078308Y028926*
X078208Y029076*
X078173Y029253*
Y029676*
X078635*
Y029803*
X078762*
Y030855*
X078813Y030896*
X078804Y031023*
X078535*
X078438Y031043*
X078355Y031098*
X078300Y031181*
X078281Y031278*
Y032328*
X078300Y032426*
X078355Y032508*
X078438Y032564*
X078535Y032583*
X079335*
X079433Y032564*
X079516Y032508*
X079571Y032426*
X079590Y032328*
Y031867*
X079712Y031814*
X079725Y031818*
X079781Y031870*
Y032328*
X079800Y032426*
X079855Y032508*
X079938Y032564*
X080035Y032583*
X080835*
X080933Y032564*
X081016Y032508*
X081071Y032426*
X081090Y032328*
Y031278*
X081071Y031181*
X081016Y031098*
X080933Y031043*
X080835Y031023*
X080394*
Y030808*
X080785*
X080883Y030789*
X080966Y030733*
X081104Y030756*
X081105Y030758*
X081188Y030814*
X081227Y030821*
Y031553*
X081262Y031729*
X081281Y031757*
Y032328*
X081300Y032426*
X081355Y032508*
X081438Y032564*
X081535Y032583*
X082335*
X082433Y032564*
X082516Y032508*
X082552Y032549*
X082561Y032562*
X083627Y033628*
X083775Y033727*
X083951Y033762*
X087685*
X087861Y033727*
X088010Y033628*
X088109Y033528*
X088227Y033577*
Y038863*
X086111Y040979*
X086012Y041128*
X085977Y041303*
Y043573*
X085635*
X085538Y043593*
X085455Y043648*
X085400Y043731*
X085381Y043828*
Y043844*
X085090*
Y043778*
X085071Y043681*
X085016Y043598*
X084933Y043543*
X084835Y043523*
X084035*
X083938Y043543*
X083855Y043598*
X083800Y043681*
X083781Y043778*
Y044828*
X083800Y044926*
X083855Y045008*
X083938Y045064*
X083977Y045071*
Y046348*
X083885*
X083788Y046368*
X083705Y046423*
X083650Y046506*
X083631Y046603*
Y047603*
X083650Y047701*
X083674Y047736*
X083702Y047870*
X083646Y047954*
X083627Y048053*
Y048426*
X084436*
X085244*
Y048053*
X085225Y047954*
X085169Y047870*
X085197Y047736*
X085221Y047701*
X085240Y047603*
Y046603*
X085221Y046506*
X085166Y046423*
X085083Y046368*
X084985Y046348*
X084894*
Y045071*
X084933Y045064*
X085016Y045008*
X085071Y044926*
X085090Y044828*
Y044762*
X085381*
Y044828*
X085400Y044926*
X085455Y045008*
Y045098*
X085400Y045181*
X085381Y045278*
Y046278*
X085400Y046376*
X085455Y046458*
X085538Y046514*
X085635Y046533*
X085977*
Y046898*
X085910*
X085813Y046918*
X085730Y046973*
X085675Y047056*
X085656Y047153*
Y047953*
X085675Y048051*
X085730Y048133*
X085813Y048189*
X085910Y048208*
X086960*
X087058Y048189*
X087141Y048133*
X087196Y048051*
X087215Y047953*
Y047153*
X087196Y047056*
X087141Y046973*
X087058Y046918*
X086960Y046898*
X086894*
Y046473*
X086916Y046458*
X086971Y046376*
X086990Y046278*
Y046231*
X087136Y046202*
X087285Y046103*
X087363Y046025*
X087483Y046084*
X087512Y046229*
X087611Y046378*
X089227Y047993*
Y052313*
X089071Y052469*
X088963Y052397*
X089014Y052275*
X089043Y052053*
X089014Y051831*
X088928Y051624*
X088792Y051447*
X088644Y051334*
Y051305*
X088645Y051303*
X088610Y051128*
X088510Y050979*
X088010Y050479*
X087861Y050379*
X087685Y050344*
X087204*
X087196Y050306*
X087141Y050223*
X087058Y050168*
X086960Y050148*
X086429*
X086111Y049829*
X086159Y049712*
X086308*
Y049180*
X085652*
Y049238*
X085540Y049298*
X085511Y049279*
X085335Y049244*
X085316*
X085288Y049216*
X085232Y049117*
X085244Y049053*
Y048680*
X084436*
X083627*
Y049053*
X083639Y049117*
X083583Y049216*
X083555Y049244*
X082816*
X082788Y049216*
X082732Y049117*
X082744Y049053*
Y048680*
X081935*
Y048426*
X082744*
Y048053*
X082725Y047954*
X082669Y047870*
X082697Y047736*
X082721Y047701*
X082740Y047603*
Y046603*
X082721Y046506*
X082666Y046423*
X082583Y046368*
X082485Y046348*
X081829*
X081710Y046229*
X081561Y046129*
X081385Y046094*
X081044*
Y046003*
X081026Y045913*
X081061Y045777*
X081210Y045678*
X081510Y045378*
X081609Y045229*
X081641Y045072*
X081683Y045064*
X081766Y045008*
X081821Y044926*
X081840Y044828*
Y044762*
X082281*
Y044828*
X082300Y044926*
X082355Y045008*
X082438Y045064*
X082535Y045083*
X083335*
X083433Y045064*
X083516Y045008*
X083571Y044926*
X083590Y044828*
Y043778*
X083571Y043681*
X083516Y043598*
X083433Y043543*
X083335Y043523*
X082535*
X082438Y043543*
X082355Y043598*
X082300Y043681*
X082281Y043778*
Y043844*
X081840*
Y043778*
X081821Y043681*
X081766Y043598*
X081683Y043543*
X081585Y043523*
X080785*
X080688Y043543*
X080605Y043598*
X080550Y043681*
X080531Y043778*
Y044828*
X080506Y044858*
X080455*
X080340Y044741*
Y043778*
X080321Y043681*
X080266Y043598*
X080183Y043543*
X080085Y043523*
X079285*
X079188Y043543*
X079105Y043598*
X079050Y043681*
X079031Y043778*
Y044309*
X078961Y044379*
X078862Y044528*
X078827Y044703*
Y045453*
X078700Y045557*
X078635Y045544*
X078585Y045554*
X078215Y045184*
Y044653*
X078196Y044556*
X078141Y044473*
X078058Y044418*
X077960Y044398*
X076910*
X076813Y044418*
X076730Y044473*
X076675Y044556*
X076667Y044594*
X074626*
X073960Y043928*
X073811Y043829*
X073635Y043794*
X071736*
X071560Y043829*
X071411Y043928*
X070745Y044594*
X069454*
X069446Y044556*
X069391Y044473*
X069308Y044418*
X069210Y044398*
X068160*
X068063Y044418*
X067980Y044473*
X067925Y044556*
X067906Y044653*
Y045453*
X067925Y045551*
X067980Y045633*
X068063Y045689*
X068160Y045708*
X069202*
X069219Y045727*
X069263Y045827*
X068245Y046844*
X067126*
X066510Y046229*
X066361Y046129*
X066185Y046094*
X064951*
X064775Y046129*
X064626Y046229*
X064011Y046844*
X057940*
Y043553*
X057921Y043456*
X057866Y043373*
X057783Y043318*
X057685Y043298*
X033185*
X033088Y043318*
X033005Y043373*
X032950Y043456*
X032931Y043553*
Y049553*
X032950Y049651*
X033005Y049733*
Y049873*
X032950Y049956*
X032931Y050053*
Y056053*
X032950Y056151*
X033005Y056233*
X033088Y056289*
X033185Y056308*
X046328*
X046361Y056301*
X046368Y056301*
X046416Y056417*
X046340Y056544*
X032194*
Y019562*
G37*
G36*
X073651Y047517D02*
X073792Y047409D01*
X073928Y047232*
X074014Y047025*
X074043Y046803*
X074014Y046581*
X073928Y046374*
X073792Y046197*
X073614Y046060*
X073408Y045975*
X073402Y045974*
X073346Y045839*
X073428Y045732*
X073514Y045525*
X073543Y045303*
X073514Y045081*
X073428Y044874*
X073524Y044791*
X074111Y045378*
X074260Y045477*
X074435Y045512*
X076667*
X076675Y045551*
X076730Y045633*
X076813Y045689*
X076910Y045708*
X077442*
X078177Y046443*
Y047103*
X078212Y047279*
X078311Y047428*
X078321Y047575*
X078258Y047644*
X073694*
X073651Y047517*
G37*
G36*
X083345Y032048D02*
Y031308D01*
X083517Y031135*
X083617Y030986*
X083650Y030820*
X083683Y030814*
X083766Y030758*
X083821Y030676*
X083840Y030578*
Y029528*
X083821Y029431*
X083766Y029348*
X083683Y029293*
X083585Y029273*
X083434*
X083413Y029239*
X083485Y029112*
X083533*
Y028303*
X083787*
Y029112*
X084160*
X084260Y029092*
X084344Y029036*
X084400Y028952*
X084419Y028853*
Y028569*
X084546Y028531*
X084611Y028628*
X085361Y029378*
X085510Y029477*
X085667Y029508*
X085675Y029551*
X085730Y029633*
X085813Y029689*
X085910Y029708*
X085977*
Y030073*
X085885*
X085788Y030093*
X085705Y030148*
X085650Y030231*
X085631Y030328*
Y031328*
X085650Y031426*
X085674Y031461*
X085702Y031595*
X085646Y031679*
X085627Y031778*
Y032151*
X086435*
Y032405*
X085627*
Y032778*
X085572Y032844*
X084141*
X083345Y032048*
G37*
G36*
X064951Y025570D02*
X064977Y025400D01*
X065010Y025378*
X065394Y024993*
X065405Y024985*
X065433Y024967*
X065461Y024951*
X065491Y024938*
X065523Y024927*
X065557Y024919*
X065594Y024913*
X065634Y024909*
X065669Y024908*
X065686Y024910*
X065908Y024881*
X066114Y024795*
X066292Y024659*
X066428Y024482*
X066514Y024275*
X066543Y024053*
X066533Y023980*
X066654Y023920*
X066861Y024128*
X067010Y024227*
X067185Y024262*
X068398*
X068450Y024357*
X068454Y024385*
X067245Y025594*
X064970*
X064951Y025570*
G37*
G36*
X059543Y032343D02*
X059511Y032336D01*
X059480Y032327*
X059449Y032315*
X059419Y032300*
X059389Y032282*
X059358Y032260*
X059327Y032234*
X059302Y032210*
X059292Y032197*
X059216Y032139*
X059259Y032012*
X064814*
X064829Y032013*
X064861Y032020*
X064892Y032029*
X064922Y032041*
X064952Y032056*
X064982Y032074*
X065013Y032096*
X065044Y032122*
X065069Y032146*
X065080Y032159*
X065155Y032217*
X065112Y032344*
X059557*
X059543Y032343*
G37*
G36*
X061799Y028253D02*
X061839Y028140D01*
X061907Y028131*
X062114Y028046*
X062292Y027909*
X062302Y027896*
X062327Y027872*
X062358Y027846*
X062389Y027824*
X062419Y027806*
X062449Y027791*
X062480Y027779*
X062511Y027770*
X062543Y027764*
X062557Y027762*
X067185*
X067361Y027727*
X067510Y027628*
X069876Y025262*
X070031*
Y025328*
X070050Y025426*
X070105Y025508*
X070188Y025564*
X070285Y025583*
X070791*
X070794Y025593*
X070819Y025710*
X070693Y025874*
X070607Y026081*
X070578Y026303*
X070607Y026525*
X070687Y026717*
X070646Y026827*
X070638Y026844*
X070435*
X070260Y026879*
X070111Y026979*
X068745Y028344*
X061876*
X061799Y028253*
G37*
G36*
X087240Y030328D02*
X087221Y030231D01*
X087166Y030148*
X087083Y030093*
X086985Y030073*
X086894*
Y029708*
X086960*
X087058Y029689*
X087141Y029633*
X087196Y029551*
X087215Y029453*
Y028653*
X087196Y028556*
X087141Y028473*
X087058Y028418*
X086960Y028398*
X085910*
X085813Y028418*
X085745Y028463*
X085394Y028113*
Y027803*
X085359Y027628*
X085260Y027479*
X084811Y027029*
X084859Y026912*
X085145*
X085534Y027300*
X085656Y027429*
Y027953*
X085675Y028051*
X085730Y028133*
X085813Y028189*
X085910Y028208*
X086960*
X087058Y028189*
X087141Y028133*
X087185Y028067*
X087935*
X088132Y028028*
X088299Y027916*
X088549Y027666*
X088660Y027500*
X088699Y027303*
Y025614*
X088826Y025576*
X088861Y025628*
X090085Y026852*
X090079Y026947*
X089943Y027124*
X089857Y027331*
X089828Y027553*
X089857Y027775*
X089943Y027982*
X090056Y028129*
X090060Y028238*
X090046Y028294*
X087970Y030369*
X087240*
Y030328*
G37*
G36*
X081040Y029238D02*
Y029053D01*
X081021Y028956*
X080966Y028873*
X080883Y028818*
X080785Y028798*
X080394*
Y028715*
X080359Y028539*
X080260Y028390*
X079099Y027229*
X079148Y027112*
X080490*
X080805Y027428*
X080954Y027527*
X081130Y027562*
X081385*
X081413Y027591*
X081468Y027689*
X081456Y027753*
Y028853*
X081475Y028951*
X081530Y029033*
X081613Y029089*
X081710Y029108*
X081884*
X081908Y029146*
X081837Y029273*
X081285*
X081188Y029293*
X081167Y029306*
X081040Y029238*
G37*
G36*
X072264Y026081D02*
X072178Y025874D01*
X072052Y025710*
X072077Y025593*
X072080Y025583*
X072585*
X072683Y025564*
X072766Y025508*
X072821Y025426*
X072840Y025328*
Y025312*
X078555*
X078730Y025277*
X078879Y025178*
X079610Y024447*
X079709Y024298*
X079840Y024293*
X079935Y024312*
X080000Y024299*
X080127Y024403*
Y025639*
X080162Y025815*
X080261Y025964*
X080374Y026077*
X080325Y026194*
X072279*
X072264Y026081*
G37*
G36*
X064951Y048820D02*
X064977Y048650D01*
X065010Y048628*
X065133Y048504*
X065143Y048497*
X065159Y048487*
X065166Y048484*
X065189Y048498*
X065202Y048504*
X065257Y048546*
X065464Y048631*
X065686Y048660*
X065907Y048631*
X066114Y048546*
X066292Y048409*
X066428Y048232*
X066514Y048025*
X066543Y047803*
X066532Y047722*
X066535Y047719*
X066651Y047654*
X066760Y047727*
X066935Y047762*
X068162*
X068210Y047879*
X067245Y048844*
X064970*
X064951Y048820*
G37*
G36*
X059543Y055593D02*
X059511Y055586D01*
X059480Y055577*
X059449Y055565*
X059419Y055550*
X059389Y055532*
X059358Y055510*
X059327Y055484*
X059302Y055460*
X059292Y055447*
X059216Y055389*
X059259Y055262*
X064814*
X064829Y055263*
X064861Y055270*
X064892Y055279*
X064922Y055291*
X064952Y055306*
X064982Y055324*
X065013Y055346*
X065044Y055372*
X065069Y055396*
X065080Y055409*
X065155Y055467*
X065112Y055594*
X059557*
X059543Y055593*
G37*
G36*
X061799Y051503D02*
X061839Y051390D01*
X061907Y051381*
X062114Y051296*
X062292Y051159*
X062302Y051146*
X062327Y051122*
X062358Y051096*
X062389Y051074*
X062419Y051056*
X062449Y051041*
X062480Y051029*
X062511Y051020*
X062543Y051014*
X062557Y051012*
X067185*
X067361Y050977*
X067510Y050878*
X069876Y048512*
X070031*
Y048578*
X070050Y048676*
X070105Y048758*
X070188Y048814*
X070285Y048833*
X070791*
X070794Y048843*
X070819Y048960*
X070693Y049124*
X070607Y049331*
X070578Y049553*
X070607Y049775*
X070687Y049967*
X070646Y050077*
X070638Y050094*
X070435*
X070260Y050129*
X070111Y050229*
X068745Y051594*
X061876*
X061799Y051503*
G37*
G36*
X066200Y056417D02*
X066260Y056378D01*
X067626Y055012*
X071436*
X071611Y054977*
X071760Y054878*
X072644Y053994*
X072655Y053985*
X072682Y053967*
X072711Y053951*
X072741Y053938*
X072773Y053928*
X072807Y053919*
X072844Y053913*
X072884Y053909*
X072919Y053908*
X072935Y053910*
X073157Y053881*
X073364Y053796*
X073542Y053659*
X073678Y053482*
X073764Y053275*
X073793Y053053*
X073764Y052831*
X073678Y052624*
X073542Y052447*
X073364Y052311*
X073157Y052225*
X072935Y052196*
X072714Y052225*
X072507Y052311*
X072400Y052393*
X072264Y052337*
X072264Y052331*
X072178Y052124*
X072042Y051947*
X071966Y051889*
X072009Y051762*
X078165*
X078379Y051976*
X078363Y052139*
X078308Y052176*
X078208Y052326*
X078173Y052503*
Y052926*
X078635*
Y053053*
X078762*
Y054105*
X078813Y054146*
X078804Y054273*
X078535*
X078438Y054293*
X078355Y054348*
X078300Y054431*
X078281Y054528*
Y055578*
X078300Y055676*
X078355Y055758*
X078438Y055814*
X078535Y055833*
X079335*
X079433Y055814*
X079516Y055758*
X079571Y055676*
X079590Y055578*
Y055117*
X079712Y055064*
X079725Y055068*
X079781Y055120*
Y055578*
X079800Y055676*
X079855Y055758*
X079938Y055814*
X080035Y055833*
X080835*
X080933Y055814*
X081016Y055758*
X081071Y055676*
X081090Y055578*
Y054528*
X081071Y054431*
X081016Y054348*
X080933Y054293*
X080835Y054273*
X080394*
Y054058*
X080785*
X080883Y054039*
X080966Y053983*
X081104Y054006*
X081105Y054008*
X081188Y054064*
X081227Y054071*
Y054803*
X081262Y054979*
X081281Y055007*
Y055578*
X081300Y055676*
X081355Y055758*
X081438Y055814*
X081535Y055833*
X082335*
X082433Y055814*
X082516Y055758*
X082571Y055676*
X082590Y055578*
Y055302*
X082717Y055264*
X082829Y055409*
X083007Y055546*
X083214Y055631*
X083435Y055660*
X083657Y055631*
X083864Y055546*
X084042Y055409*
X084178Y055232*
X084264Y055025*
X084293Y054803*
X084264Y054581*
X084178Y054374*
X084042Y054197*
X083864Y054061*
X083821Y053926*
X083840Y053828*
Y052778*
X083821Y052681*
X083766Y052598*
X083683Y052543*
X083585Y052523*
X083434*
X083413Y052489*
X083485Y052362*
X083533*
Y051553*
X083787*
Y052362*
X084160*
X084260Y052342*
X084344Y052286*
X084400Y052202*
X084419Y052103*
Y051819*
X084546Y051781*
X084611Y051878*
X085361Y052628*
X085510Y052727*
X085667Y052758*
X085675Y052801*
X085729Y052882*
X085705Y052898*
X085650Y052981*
X085631Y053078*
Y054078*
X085650Y054176*
X085674Y054211*
X085702Y054345*
X085646Y054429*
X085627Y054528*
Y054901*
X086435*
Y055028*
X086562*
Y055787*
X086985*
X087085Y055767*
X087188Y055733*
X087246Y055801*
X087329Y055909*
X087507Y056046*
X087714Y056131*
X087935Y056160*
X088157Y056131*
X088364Y056046*
X088542Y055909*
X088656Y055761*
X088764Y055798*
X088779Y055809*
X088807Y056025*
X088893Y056232*
X089029Y056409*
X089049Y056424*
X089008Y056544*
X066239*
X066200Y056417*
G37*
G36*
X081040Y052488D02*
Y052303D01*
X081021Y052206*
X080966Y052123*
X080883Y052068*
X080785Y052048*
X080394*
Y051965*
X080359Y051789*
X080260Y051640*
X079099Y050479*
X079148Y050362*
X080490*
X080805Y050678*
X080954Y050777*
X081130Y050812*
X081385*
X081413Y050841*
X081468Y050939*
X081456Y051003*
Y052103*
X081475Y052201*
X081530Y052283*
X081613Y052339*
X081710Y052358*
X081884*
X081908Y052396*
X081837Y052523*
X081285*
X081188Y052543*
X081167Y052556*
X081040Y052488*
G37*
G36*
X087215Y024687D02*
Y023903D01*
X087196Y023806*
X087141Y023723*
X087058Y023668*
X086960Y023648*
X086894*
Y023283*
X086985*
X087083Y023264*
X087166Y023208*
X087221Y023126*
X087240Y023028*
Y022987*
X088220*
X088777Y023543*
Y024042*
X088663Y024098*
X088614Y024061*
X088407Y023975*
X088185Y023946*
X087964Y023975*
X087757Y024061*
X087579Y024197*
X087443Y024374*
X087357Y024581*
X087342Y024695*
X087215Y024687*
G37*
G36*
X073651Y024267D02*
X073792Y024159D01*
X073928Y023982*
X074014Y023775*
X074043Y023553*
X074014Y023331*
X073928Y023124*
X073792Y022947*
X073614Y022810*
X073408Y022725*
X073402Y022724*
X073346Y022589*
X073428Y022482*
X073514Y022275*
X073543Y022053*
X073514Y021831*
X073428Y021624*
X073524Y021541*
X074111Y022128*
X074260Y022227*
X074435Y022262*
X076667*
X076675Y022301*
X076730Y022383*
X076813Y022439*
X076910Y022458*
X077442*
X078177Y023193*
Y023853*
X078212Y024029*
X078311Y024178*
X078321Y024325*
X078258Y024394*
X073694*
X073651Y024267*
G37*
G36*
X033185Y026803D02*
X046441D01*
X046485Y026812*
X057295*
X057685Y027202*
Y031179*
X057611Y031229*
X056160Y032679*
X048077*
X048065Y032678*
X048046Y032673*
X048036Y032669*
X048033Y032667*
X048032Y032667*
X048030Y032661*
X048023Y032632*
X048019Y032625*
X048014Y032581*
X047928Y032374*
X047792Y032197*
X047614Y032061*
X047407Y031975*
X047185Y031946*
X046964Y031975*
X046757Y032061*
X046579Y032197*
X046443Y032374*
X046357Y032581*
X046328Y032803*
X033185*
Y026803*
G37*
G36*
Y050053D02*
X046441D01*
X046485Y050062*
X057295*
X057685Y050452*
Y054429*
X057611Y054479*
X056160Y055929*
X048077*
X048065Y055928*
X048046Y055923*
X048036Y055919*
X048033Y055917*
X048032Y055917*
X048030Y055911*
X048023Y055882*
X048019Y055875*
X048014Y055831*
X047928Y055624*
X047792Y055447*
X047614Y055311*
X047407Y055225*
X047185Y055196*
X046964Y055225*
X046757Y055311*
X046579Y055447*
X046443Y055624*
X046357Y055831*
X046328Y056053*
X033185*
Y050053*
G37*
G36*
Y020303D02*
X057685D01*
Y024544*
X056985*
X056810Y024579*
X056661Y024679*
X056160Y025179*
X048077*
X048065Y025178*
X048046Y025173*
X048036Y025169*
X048033Y025167*
X048032Y025167*
X048030Y025161*
X048023Y025132*
X048019Y025125*
X048014Y025081*
X047928Y024874*
X047792Y024697*
X047614Y024561*
X047407Y024475*
X047185Y024446*
X046964Y024475*
X046757Y024561*
X046579Y024697*
X046443Y024874*
X046357Y025081*
X046328Y025303*
X046357Y025525*
X046443Y025732*
X046579Y025909*
X046757Y026046*
X046964Y026131*
X047185Y026160*
X047407Y026131*
X047421Y026126*
X047889Y026097*
X056350*
X056526Y026062*
X056675Y025963*
X057176Y025462*
X057685*
Y026303*
X033185*
Y020303*
G37*
G36*
Y043553D02*
X057685D01*
Y047794*
X056985*
X056810Y047829*
X056661Y047929*
X056160Y048429*
X048077*
X048065Y048428*
X048046Y048423*
X048036Y048419*
X048033Y048417*
X048032Y048417*
X048030Y048411*
X048023Y048382*
X048019Y048375*
X048014Y048331*
X047928Y048124*
X047792Y047947*
X047614Y047811*
X047407Y047725*
X047185Y047696*
X046964Y047725*
X046757Y047811*
X046579Y047947*
X046443Y048124*
X046357Y048331*
X046328Y048553*
X046357Y048775*
X046443Y048982*
X046579Y049159*
X046757Y049296*
X046964Y049381*
X047185Y049410*
X047407Y049381*
X047421Y049376*
X047889Y049347*
X056350*
X056526Y049312*
X056675Y049213*
X057176Y048712*
X057685*
Y049553*
X033185*
Y043553*
G37*
%LNgrb_bot_layer-3*%
%LPD*%
G36*
X077562Y032587D02*
X077835D01*
X077935Y032567*
X078019Y032511*
X078075Y032427*
X078094Y032328*
Y031930*
X077562*
Y032587*
G37*
G36*
X077035D02*
X077308D01*
Y031930*
X076777*
Y032328*
X076796Y032427*
X076852Y032511*
X076936Y032567*
X077035Y032587*
G37*
G36*
X115022Y034426D02*
X115891D01*
X115874Y034291*
X115772Y034047*
X115612Y033837*
X115402Y033676*
X115158Y033575*
X115022Y033557*
Y034426*
G37*
G36*
X114895Y033022D02*
X115157Y032987D01*
X115400Y032887*
X115609Y032726*
X115769Y032517*
X115870Y032274*
X115904Y032013*
X115870Y031752*
X115769Y031509*
X115609Y031300*
X115400Y031140*
X115157Y031039*
X114895Y031004*
X114634Y031039*
X114391Y031140*
X114182Y031300*
X114022Y031509*
X113921Y031752*
X113887Y032013*
X113921Y032274*
X114022Y032517*
X114182Y032726*
X114391Y032887*
X114634Y032987*
X114895Y033022*
G37*
G36*
X077562Y031676D02*
X078094D01*
Y031278*
X078075Y031179*
X078019Y031095*
X077935Y031039*
X077835Y031019*
X077562*
Y031676*
G37*
G36*
X076777D02*
X077308D01*
Y031019*
X077035*
X076936Y031039*
X076852Y031095*
X076796Y031179*
X076777Y031278*
Y031676*
G37*
G36*
X113900Y034426D02*
X114768D01*
Y033557*
X114633Y033575*
X114389Y033676*
X114179Y033837*
X114018Y034047*
X113917Y034291*
X113900Y034426*
G37*
G36*
X048225Y039812D02*
X048569Y039778D01*
X048898Y039678*
X049202Y039515*
X049469Y039297*
X049688Y039030*
X049850Y038726*
X049950Y038396*
X049984Y038053*
X049950Y037710*
X049850Y037380*
X049688Y037076*
X049469Y036810*
X049202Y036591*
X048898Y036428*
X048569Y036328*
X048225Y036295*
X047882Y036328*
X047553Y036428*
X047249Y036591*
X046982Y036810*
X046763Y037076*
X046601Y037380*
X046501Y037710*
X046467Y038053*
X046501Y038396*
X046601Y038726*
X046763Y039030*
X046982Y039297*
X047249Y039515*
X047553Y039678*
X047882Y039778*
X048225Y039812*
G37*
G36*
X041464Y037553D02*
X042645D01*
Y036372*
X042471Y036425*
X042166Y036588*
X041899Y036807*
X041680Y037074*
X041517Y037379*
X041464Y037553*
G37*
G36*
X043645D02*
X044827D01*
X044774Y037379*
X044611Y037074*
X044392Y036807*
X044125Y036588*
X043820Y036425*
X043645Y036372*
Y037553*
G37*
G36*
X115022Y035549D02*
X115158Y035531D01*
X115402Y035430*
X115612Y035269*
X115772Y035059*
X115874Y034815*
X115891Y034680*
X115022*
Y035549*
G37*
G36*
X114768D02*
Y034680D01*
X113900*
X113917Y034815*
X114018Y035059*
X114179Y035269*
X114389Y035430*
X114633Y035531*
X114768Y035549*
G37*
G36*
X055882Y040310D02*
X070685D01*
Y036053*
X055882*
Y040310*
G37*
G36*
X076910Y020962D02*
X077308D01*
Y020430*
X076652*
Y020703*
X076671Y020802*
X076727Y020886*
X076811Y020942*
X076910Y020962*
G37*
G36*
X114895Y025402D02*
X115157Y025367D01*
X115400Y025267*
X115609Y025106*
X115769Y024897*
X115870Y024654*
X115904Y024393*
X115870Y024132*
X115769Y023889*
X115609Y023680*
X115400Y023520*
X115157Y023419*
X114895Y023384*
X114634Y023419*
X114391Y023520*
X114182Y023680*
X114022Y023889*
X113921Y024132*
X113887Y024393*
X113921Y024654*
X114022Y024897*
X114182Y025106*
X114391Y025267*
X114634Y025367*
X114895Y025402*
G37*
G36*
X086562Y025676D02*
X087219D01*
Y025403*
X087200Y025304*
X087144Y025220*
X087060Y025164*
X086960Y025144*
X086562*
Y025676*
G37*
G36*
X068812Y020962D02*
X069210D01*
X069310Y020942*
X069394Y020886*
X069450Y020802*
X069469Y020703*
Y020430*
X068812*
Y020962*
G37*
G36*
X068160D02*
X068558D01*
Y020430*
X067902*
Y020703*
X067921Y020802*
X067977Y020886*
X068061Y020942*
X068160Y020962*
G37*
G36*
X077562D02*
X077960D01*
X078060Y020942*
X078144Y020886*
X078200Y020802*
X078219Y020703*
Y020430*
X077562*
Y020962*
G37*
G36*
X085652Y025676D02*
X086308D01*
Y025144*
X085910*
X085811Y025164*
X085727Y025220*
X085671Y025304*
X085652Y025403*
Y025676*
G37*
G36*
X114895Y030482D02*
X115157Y030447D01*
X115400Y030347*
X115609Y030186*
X115769Y029977*
X115870Y029734*
X115904Y029473*
X115870Y029212*
X115769Y028969*
X115609Y028760*
X115400Y028600*
X115157Y028499*
X114895Y028464*
X114634Y028499*
X114391Y028600*
X114182Y028760*
X114022Y028969*
X113921Y029212*
X113887Y029473*
X113921Y029734*
X114022Y029977*
X114182Y030186*
X114391Y030347*
X114634Y030447*
X114895Y030482*
G37*
G36*
X078508Y030791D02*
Y029930D01*
X078173*
Y030353*
X078208Y030530*
X078308Y030680*
X078458Y030781*
X078508Y030791*
G37*
G36*
X116685Y035558D02*
X118185D01*
X118283Y035539*
X118366Y035483*
X118421Y035401*
X118440Y035303*
Y034430*
X118452Y034410*
X118510Y034326*
X118670Y034137*
X119345Y033462*
X119470Y033275*
X119514Y033053*
Y022803*
X119470Y022582*
X119345Y022394*
X118095Y021144*
X117907Y021019*
X117685Y020974*
X115424*
X115399Y020973*
X115363Y020968*
X115333Y020962*
X115309Y020955*
X115294Y020950*
X115294Y020950*
X115292Y020947*
X115114Y020811*
X114907Y020725*
X114685Y020696*
X114464Y020725*
X114257Y020811*
X114079Y020947*
X113943Y021124*
X113857Y021331*
X113828Y021553*
X113857Y021775*
X113943Y021982*
X114079Y022159*
X114257Y022296*
X114464Y022381*
X114685Y022410*
X114907Y022381*
X115114Y022296*
X115292Y022159*
X115294Y022156*
X115294Y022156*
X115309Y022151*
X115333Y022145*
X115363Y022138*
X115399Y022133*
X115424Y022132*
X117446*
X118357Y023043*
Y023743*
X118230Y023786*
X118149Y023680*
X117940Y023520*
X117697Y023419*
X117435Y023384*
X117174Y023419*
X116931Y023520*
X116722Y023680*
X116562Y023889*
X116461Y024132*
X116427Y024393*
X116461Y024654*
X116562Y024897*
X116722Y025106*
X116931Y025267*
X117174Y025367*
X117435Y025402*
X117697Y025367*
X117940Y025267*
X118149Y025106*
X118230Y025001*
X118357Y025044*
Y026283*
X118230Y026326*
X118149Y026220*
X117940Y026060*
X117697Y025959*
X117435Y025924*
X117174Y025959*
X116931Y026060*
X116722Y026220*
X116562Y026429*
X116461Y026672*
X116427Y026933*
X116461Y027194*
X116562Y027437*
X116722Y027646*
X116931Y027807*
X117174Y027907*
X117435Y027942*
X117697Y027907*
X117940Y027807*
X118149Y027646*
X118230Y027541*
X118357Y027584*
Y028823*
X118230Y028866*
X118149Y028760*
X117940Y028600*
X117697Y028499*
X117435Y028464*
X117174Y028499*
X116931Y028600*
X116722Y028760*
X116562Y028969*
X116461Y029212*
X116427Y029473*
X116461Y029734*
X116562Y029977*
X116722Y030186*
X116931Y030347*
X117174Y030447*
X117435Y030482*
X117697Y030447*
X117940Y030347*
X118149Y030186*
X118230Y030081*
X118357Y030124*
Y031363*
X118230Y031406*
X118149Y031300*
X117940Y031140*
X117697Y031039*
X117435Y031004*
X117174Y031039*
X116931Y031140*
X116722Y031300*
X116562Y031509*
X116461Y031752*
X116427Y032013*
X116461Y032274*
X116562Y032517*
X116722Y032726*
X116931Y032887*
X117174Y032987*
X117435Y033022*
X117697Y032987*
X117940Y032887*
X118149Y032726*
X118230Y032621*
X118357Y032664*
Y032813*
X117882Y033288*
X117764Y033398*
X117666Y033476*
X117579Y033537*
X117559Y033548*
X116685*
X116588Y033568*
X116505Y033623*
X116450Y033706*
X116431Y033803*
Y035303*
X116450Y035401*
X116505Y035483*
X116588Y035539*
X116685Y035558*
G37*
G36*
X114895Y027942D02*
X115157Y027907D01*
X115400Y027807*
X115609Y027646*
X115769Y027437*
X115870Y027194*
X115904Y026933*
X115870Y026672*
X115769Y026429*
X115609Y026220*
X115400Y026060*
X115157Y025959*
X114895Y025924*
X114634Y025959*
X114391Y026060*
X114182Y026220*
X114022Y026429*
X113921Y026672*
X113887Y026933*
X113921Y027194*
X114022Y027437*
X114182Y027646*
X114391Y027807*
X114634Y027907*
X114895Y027942*
G37*
G36*
X086562Y026462D02*
X086960D01*
X087060Y026442*
X087144Y026386*
X087200Y026302*
X087219Y026203*
Y025930*
X086562*
Y026462*
G37*
G36*
X102935Y033160D02*
X103157Y033131D01*
X103364Y033046*
X103542Y032909*
X103678Y032732*
X103764Y032525*
X103793Y032303*
X103764Y032081*
X103724Y031986*
X106066Y029643*
X106157Y029631*
X106364Y029546*
X106542Y029409*
X106678Y029232*
X106764Y029025*
X106793Y028803*
X106764Y028581*
X106678Y028374*
X106542Y028197*
X106364Y028061*
X106157Y027975*
X105935Y027946*
X105714Y027975*
X105507Y028061*
X105329Y028197*
X105193Y028374*
X105107Y028581*
X105078Y028803*
X105107Y029025*
X105147Y029121*
X102805Y031463*
X102714Y031475*
X102507Y031561*
X102329Y031697*
X102193Y031874*
X102107Y032081*
X102078Y032303*
X102107Y032525*
X102193Y032732*
X102329Y032909*
X102507Y033046*
X102714Y033131*
X102935Y033160*
G37*
G36*
X043645Y039734D02*
X043820Y039681D01*
X044125Y039519*
X044392Y039299*
X044611Y039032*
X044774Y038728*
X044827Y038553*
X043645*
Y039734*
G37*
G36*
X086562Y048926D02*
X087219D01*
Y048653*
X087200Y048554*
X087144Y048470*
X087060Y048414*
X086960Y048394*
X086562*
Y048926*
G37*
G36*
X085652D02*
X086308D01*
Y048394*
X085910*
X085811Y048414*
X085727Y048470*
X085671Y048554*
X085652Y048653*
Y048926*
G37*
G36*
X086562Y049712D02*
X086960D01*
X087060Y049692*
X087144Y049636*
X087200Y049552*
X087219Y049453*
Y049180*
X086562*
Y049712*
G37*
G36*
X097686Y047160D02*
X097908Y047131D01*
X098114Y047045*
X098292Y046909*
X098428Y046732*
X098514Y046525*
X098536Y046356*
X098654Y046297*
X098666Y046296*
X098730Y046345*
X098937Y046431*
X099159Y046460*
X099381Y046431*
X099588Y046345*
X099765Y046209*
X099901Y046032*
X099987Y045825*
X100016Y045603*
X100000Y045483*
X100084Y045387*
X101199*
X101370Y045353*
X101516Y045256*
X101516*
X106888Y039884*
X106985Y039738*
X107020Y039566*
Y036558*
X106985Y036386*
X106888Y036240*
X106016Y035368*
X105870Y035271*
X105699Y035236*
X104551*
X104539Y035235*
X104537Y035228*
X104514Y035054*
X104428Y034847*
X104292Y034670*
X104114Y034534*
X103907Y034448*
X103686Y034419*
X103464Y034448*
X103257Y034534*
X103079Y034670*
X102943Y034847*
X102857Y035054*
X102828Y035276*
X102857Y035498*
X102943Y035705*
X103079Y035882*
X103154Y035940*
Y036067*
X103079Y036124*
X102943Y036301*
X102857Y036508*
X102828Y036730*
X102857Y036952*
X102943Y037159*
X103079Y037336*
X103257Y037473*
X103464Y037558*
X103686Y037587*
X103907Y037558*
X104114Y037473*
X104292Y037336*
X104428Y037159*
X104514Y036952*
X104537Y036778*
X104539Y036771*
X104551Y036770*
X105249*
X105486Y037007*
Y039117*
X100749Y043854*
X098981*
X098810Y043888*
X098664Y043985*
X097368Y045281*
X097271Y045427*
X097242Y045572*
X097079Y045697*
X096943Y045874*
X096858Y046081*
X096828Y046303*
X096858Y046525*
X096943Y046732*
X097079Y046909*
X097257Y047045*
X097464Y047131*
X097686Y047160*
G37*
G36*
X117435Y050272D02*
X117697Y050237D01*
X117940Y050137*
X118149Y049976*
X118309Y049767*
X118410Y049524*
X118444Y049263*
X118410Y049002*
X118309Y048759*
X118149Y048550*
X117940Y048390*
X117697Y048289*
X117435Y048254*
X117174Y048289*
X116931Y048390*
X116722Y048550*
X116562Y048759*
X116461Y049002*
X116427Y049263*
X116461Y049524*
X116562Y049767*
X116722Y049976*
X116931Y050137*
X117174Y050237*
X117435Y050272*
G37*
G36*
X114895D02*
X115157Y050237D01*
X115400Y050137*
X115609Y049976*
X115769Y049767*
X115870Y049524*
X115904Y049263*
X115870Y049002*
X115769Y048759*
X115609Y048550*
X115400Y048390*
X115157Y048289*
X114895Y048254*
X114634Y048289*
X114391Y048390*
X114182Y048550*
X114022Y048759*
X113921Y049002*
X113887Y049263*
X113921Y049524*
X114022Y049767*
X114182Y049976*
X114391Y050137*
X114634Y050237*
X114895Y050272*
G37*
G36*
X116685Y052808D02*
X118185D01*
X118283Y052789*
X118366Y052733*
X118421Y052651*
X118440Y052553*
Y051053*
X118421Y050956*
X118366Y050873*
X118283Y050818*
X118185Y050798*
X116685*
X116588Y050818*
X116505Y050873*
X116450Y050956*
X116431Y051053*
Y052553*
X116450Y052651*
X116505Y052733*
X116588Y052789*
X116685Y052808*
G37*
G36*
X094235Y052867D02*
X094260Y052862D01*
X094285*
X094461Y052827*
X094553Y052789*
X094702Y052689*
X094772Y052619*
X094871Y052470*
X094909Y052378*
X094944Y052203*
Y052103*
X094909Y051928*
X094871Y051836*
X094772Y051687*
X094702Y051617*
X094553Y051517*
X094461Y051479*
X094285Y051444*
X094260*
X094235Y051439*
X094211Y051444*
X094186*
X094010Y051479*
X093918Y051517*
X093769Y051617*
X093699Y051687*
X093600Y051836*
X093562Y051928*
X093527Y052103*
Y052203*
X093562Y052378*
X093600Y052470*
X093699Y052619*
X093769Y052689*
X093918Y052789*
X094010Y052827*
X094186Y052862*
X094211*
X094235Y052867*
G37*
G36*
X115022Y052799D02*
X115158Y052781D01*
X115402Y052680*
X115612Y052519*
X115772Y052309*
X115874Y052065*
X115891Y051930*
X115022*
Y052799*
G37*
G36*
X114768D02*
Y051930D01*
X113900*
X113917Y052065*
X114018Y052309*
X114179Y052519*
X114389Y052680*
X114633Y052781*
X114768Y052799*
G37*
G36*
X115022Y051676D02*
X115891D01*
X115874Y051541*
X115772Y051297*
X115612Y051087*
X115402Y050926*
X115158Y050825*
X115022Y050807*
Y051676*
G37*
G36*
X113900D02*
X114768D01*
Y050807*
X114633Y050825*
X114389Y050926*
X114179Y051087*
X114018Y051297*
X113917Y051541*
X113900Y051676*
G37*
G36*
X098635Y052867D02*
X098660Y052862D01*
X098685*
X098861Y052827*
X098953Y052789*
X099102Y052689*
X099172Y052619*
X099271Y052470*
X099309Y052378*
X099344Y052203*
Y052103*
X099309Y051928*
X099271Y051836*
X099172Y051687*
X099102Y051617*
X098953Y051517*
X098861Y051479*
X098685Y051444*
X098660*
X098635Y051439*
X098611Y051444*
X098586*
X098410Y051479*
X098318Y051517*
X098169Y051617*
X098099Y051687*
X098000Y051836*
X097962Y051928*
X097927Y052103*
Y052203*
X097962Y052378*
X098000Y052470*
X098099Y052619*
X098169Y052689*
X098318Y052789*
X098410Y052827*
X098586Y052862*
X098611*
X098635Y052867*
G37*
G36*
X067902Y043426D02*
X068558D01*
Y042894*
X068160*
X068061Y042914*
X067977Y042970*
X067921Y043054*
X067902Y043153*
Y043426*
G37*
G36*
X077562D02*
X078219D01*
Y043153*
X078200Y043054*
X078144Y042970*
X078060Y042914*
X077960Y042894*
X077562*
Y043426*
G37*
G36*
X076652D02*
X077308D01*
Y042894*
X076910*
X076811Y042914*
X076727Y042970*
X076671Y043054*
X076652Y043153*
Y043426*
G37*
G36*
X042645Y039734D02*
Y038553D01*
X041464*
X041517Y038728*
X041680Y039032*
X041899Y039299*
X042166Y039519*
X042471Y039681*
X042645Y039734*
G37*
G36*
X095435Y045410D02*
X095657Y045381D01*
X095864Y045296*
X096042Y045159*
X096178Y044982*
X096264Y044775*
X096293Y044553*
X096264Y044331*
X096178Y044124*
X096042Y043947*
X095864Y043811*
X095657Y043725*
X095435Y043696*
X095214Y043725*
X095189Y043735*
X095187Y043735*
X095146Y043746*
X095121Y043750*
X095099Y043751*
X095080Y043750*
X095062Y043746*
X095043Y043741*
X095024Y043732*
X095003Y043719*
X094992Y043711*
X094010Y042729*
X093861Y042629*
X093686Y042594*
X093057*
X093043Y042593*
X093011Y042586*
X092980Y042577*
X092949Y042565*
X092919Y042550*
X092889Y042532*
X092858Y042510*
X092827Y042484*
X092802Y042460*
X092792Y042447*
X092614Y042311*
X092407Y042225*
X092185Y042196*
X091964Y042225*
X091757Y042311*
X091579Y042447*
X091443Y042624*
X091357Y042831*
X091328Y043053*
X091357Y043275*
X091443Y043482*
X091579Y043659*
X091757Y043796*
X091964Y043881*
X092185Y043910*
X092407Y043881*
X092614Y043796*
X092792Y043659*
X092802Y043646*
X092827Y043622*
X092858Y043596*
X092889Y043574*
X092919Y043556*
X092949Y043541*
X092980Y043529*
X093011Y043520*
X093043Y043514*
X093057Y043512*
X093495*
X094451Y044467*
X094455Y044473*
X094479Y044505*
X094501Y044536*
X094546Y044617*
X094563Y044653*
X094601Y044750*
X094606Y044766*
X094607Y044775*
X094615Y044793*
X094618Y044802*
X094621Y044808*
X094693Y044982*
X094829Y045159*
X095007Y045296*
X095214Y045381*
X095435Y045410*
G37*
G36*
X068812Y043426D02*
X069469D01*
Y043153*
X069450Y043054*
X069394Y042970*
X069310Y042914*
X069210Y042894*
X068812*
Y043426*
G37*
G36*
Y044212D02*
X069210D01*
X069310Y044192*
X069394Y044136*
X069450Y044052*
X069469Y043953*
Y043680*
X068812*
Y044212*
G37*
G36*
X096936Y052910D02*
X097157Y052881D01*
X097364Y052796*
X097542Y052659*
X097678Y052482*
X097764Y052275*
X097793Y052053*
X097764Y051831*
X097678Y051624*
X097542Y051447*
X097530Y051438*
X097519Y051426*
X097506Y051409*
X097493Y051389*
X097482Y051366*
X097472Y051340*
X097463Y051310*
X097455Y051277*
X097449Y051239*
X097449Y051238*
Y050766*
X100148Y048067*
X102185*
X102382Y048028*
X102549Y047916*
X106281Y044185*
X106388Y044257*
X106357Y044331*
X106328Y044553*
X106357Y044775*
X106443Y044982*
X106579Y045159*
X106757Y045296*
X106964Y045381*
X107185Y045410*
X107407Y045381*
X107614Y045296*
X107792Y045159*
X107928Y044982*
X108014Y044775*
X108043Y044553*
X108019Y044369*
X109469Y042919*
X109568Y042770*
X109603Y042594*
Y028784*
X109851Y028536*
X109990Y028543*
X110079Y028659*
X110257Y028796*
X110464Y028881*
X110685Y028910*
X110907Y028881*
X111114Y028796*
X111292Y028659*
X111428Y028482*
X111514Y028275*
X111543Y028053*
X111514Y027831*
X111428Y027624*
X111292Y027447*
X111114Y027311*
X110907Y027225*
X110685Y027196*
X110464Y027225*
X110257Y027311*
X110079Y027447*
X109966Y027594*
X109685*
X109517Y027628*
X109509Y027622*
X109460Y027506*
X112549Y024416*
X112660Y024250*
X112699Y024053*
Y023118*
X112699Y023118*
X112705Y023080*
X112713Y023046*
X112722Y023016*
X112732Y022990*
X112743Y022967*
X112756Y022948*
X112769Y022930*
X112780Y022918*
X112792Y022909*
X112928Y022732*
X113014Y022525*
X113043Y022303*
X113014Y022081*
X112928Y021874*
X112792Y021697*
X112614Y021561*
X112407Y021475*
X112185Y021446*
X111964Y021475*
X111757Y021561*
X111579Y021697*
X111443Y021874*
X111357Y022081*
X111328Y022303*
X111357Y022525*
X111443Y022732*
X111579Y022909*
X111591Y022918*
X111602Y022930*
X111615Y022948*
X111628Y022967*
X111639Y022990*
X111649Y023016*
X111658Y023046*
X111666Y023080*
X111672Y023118*
X111672Y023118*
Y023840*
X107822Y027690*
X107711Y027856*
X107672Y028053*
Y041340*
X101973Y047039*
X099935*
X099739Y047078*
X099572Y047190*
X096572Y050190*
X096461Y050356*
X096422Y050553*
Y051238*
X096422Y051239*
X096416Y051277*
X096408Y051310*
X096399Y051340*
X096389Y051366*
X096378Y051389*
X096365Y051409*
X096352Y051426*
X096341Y051438*
X096329Y051447*
X096193Y051624*
X096107Y051831*
X096078Y052053*
X096107Y052275*
X096193Y052482*
X096329Y052659*
X096507Y052796*
X096714Y052881*
X096936Y052910*
G37*
G36*
X117435Y047732D02*
X117697Y047697D01*
X117940Y047597*
X118149Y047436*
X118309Y047227*
X118410Y046984*
X118444Y046723*
X118410Y046462*
X118309Y046219*
X118149Y046010*
X117940Y045850*
X117697Y045749*
X117435Y045714*
X117174Y045749*
X116931Y045850*
X116722Y046010*
X116562Y046219*
X116461Y046462*
X116427Y046723*
X116461Y046984*
X116562Y047227*
X116722Y047436*
X116931Y047597*
X117174Y047697*
X117435Y047732*
G37*
G36*
X114895D02*
X115157Y047697D01*
X115400Y047597*
X115609Y047436*
X115769Y047227*
X115870Y046984*
X115904Y046723*
X115870Y046462*
X115769Y046219*
X115609Y046010*
X115400Y045850*
X115157Y045749*
X114895Y045714*
X114634Y045749*
X114391Y045850*
X114182Y046010*
X114022Y046219*
X113921Y046462*
X113887Y046723*
X113921Y046984*
X114022Y047227*
X114182Y047436*
X114391Y047597*
X114634Y047697*
X114895Y047732*
G37*
G36*
X068160Y044212D02*
X068558D01*
Y043680*
X067902*
Y043953*
X067921Y044052*
X067977Y044136*
X068061Y044192*
X068160Y044212*
G37*
G36*
X077562D02*
X077960D01*
X078060Y044192*
X078144Y044136*
X078200Y044052*
X078219Y043953*
Y043680*
X077562*
Y044212*
G37*
G36*
X076910D02*
X077308D01*
Y043680*
X076652*
Y043953*
X076671Y044052*
X076727Y044136*
X076811Y044192*
X076910Y044212*
G37*
G36*
X076777Y054926D02*
X077308D01*
Y054269*
X077035*
X076936Y054289*
X076852Y054345*
X076796Y054429*
X076777Y054528*
Y054926*
G37*
G36*
X077562D02*
X078094D01*
Y054528*
X078075Y054429*
X078019Y054345*
X077935Y054289*
X077835Y054269*
X077562*
Y054926*
G37*
G36*
X078508Y054041D02*
Y053180D01*
X078173*
Y053603*
X078208Y053780*
X078308Y053930*
X078458Y054031*
X078508Y054041*
G37*
G36*
X077035Y055837D02*
X077308D01*
Y055180*
X076777*
Y055578*
X076796Y055677*
X076852Y055761*
X076936Y055817*
X077035Y055837*
G37*
G36*
X077562D02*
X077835D01*
X077935Y055817*
X078019Y055761*
X078075Y055677*
X078094Y055578*
Y055180*
X077562*
Y055837*
G37*
G36*
X085885Y055787D02*
X086308D01*
Y055155*
X085627*
Y055528*
X085646Y055627*
X085702Y055711*
X085786Y055767*
X085885Y055787*
G37*
G36*
X036435Y028593D02*
X037617D01*
X037564Y028419*
X037401Y028114*
X037182Y027847*
X036915Y027628*
X036610Y027465*
X036435Y027412*
Y028593*
G37*
G36*
X034254D02*
X035435D01*
Y027412*
X035261Y027465*
X034956Y027628*
X034689Y027847*
X034470Y028114*
X034307Y028419*
X034254Y028593*
G37*
G36*
X035435Y030774D02*
Y029593D01*
X034254*
X034307Y029768*
X034470Y030072*
X034689Y030339*
X034956Y030559*
X035261Y030721*
X035435Y030774*
G37*
G36*
X036435D02*
X036610Y030721D01*
X036915Y030559*
X037182Y030339*
X037401Y030072*
X037564Y029768*
X037617Y029593*
X036435*
Y030774*
G37*
G36*
Y051843D02*
X037617D01*
X037564Y051669*
X037401Y051364*
X037182Y051097*
X036915Y050878*
X036610Y050715*
X036435Y050662*
Y051843*
G37*
G36*
X034254D02*
X035435D01*
Y050662*
X035261Y050715*
X034956Y050878*
X034689Y051097*
X034470Y051364*
X034307Y051669*
X034254Y051843*
G37*
G36*
X035435Y054024D02*
Y052843D01*
X034254*
X034307Y053018*
X034470Y053322*
X034689Y053589*
X034956Y053809*
X035261Y053971*
X035435Y054024*
G37*
G36*
X036435D02*
X036610Y053971D01*
X036915Y053809*
X037182Y053589*
X037401Y053322*
X037564Y053018*
X037617Y052843*
X036435*
Y054024*
G37*
G36*
Y023513D02*
X037617D01*
X037564Y023339*
X037401Y023034*
X037182Y022767*
X036915Y022548*
X036610Y022385*
X036435Y022332*
Y023513*
G37*
G36*
X034254D02*
X035435D01*
Y022332*
X035261Y022385*
X034956Y022548*
X034689Y022767*
X034470Y023034*
X034307Y023339*
X034254Y023513*
G37*
G36*
X035435Y025694D02*
Y024513D01*
X034254*
X034307Y024688*
X034470Y024992*
X034689Y025259*
X034956Y025479*
X035261Y025641*
X035435Y025694*
G37*
G36*
X036435D02*
X036610Y025641D01*
X036915Y025479*
X037182Y025259*
X037401Y024992*
X037564Y024688*
X037617Y024513*
X036435*
Y025694*
G37*
G36*
Y046763D02*
X037617D01*
X037564Y046589*
X037401Y046284*
X037182Y046017*
X036915Y045798*
X036610Y045635*
X036435Y045582*
Y046763*
G37*
G36*
X034254D02*
X035435D01*
Y045582*
X035261Y045635*
X034956Y045798*
X034689Y046017*
X034470Y046284*
X034307Y046589*
X034254Y046763*
G37*
G36*
X035435Y048944D02*
Y047763D01*
X034254*
X034307Y047938*
X034470Y048242*
X034689Y048509*
X034956Y048729*
X035261Y048891*
X035435Y048944*
G37*
G36*
X036435D02*
X036610Y048891D01*
X036915Y048729*
X037182Y048509*
X037401Y048242*
X037564Y047938*
X037617Y047763*
X036435*
Y048944*
G37*
%LNgrb_bot_layer-4*%
%LPC*%
G54D64*
X118935Y022803D02*
Y033053D01*
Y022803D02*
X117685Y021553D01*
X118935Y033053D02*
X117435Y034553D01*
X117685Y021553D02*
X114685D01*
G54D63*
X112185Y022303D02*
Y024053D01*
X108185Y028053D01*
G54D62*
X110685Y028053D02*
X109685D01*
X109144Y028594D01*
Y042594D01*
X107185Y044553D01*
G54D63*
X108185Y028053D02*
Y041553D01*
X102185Y047553D01*
G54D65*
X106570Y036558D02*
Y039566D01*
Y036558D02*
X105699Y035686D01*
X106570Y039566D02*
X101199Y044938D01*
G54D77*
X105935Y028803D02*
Y029053D01*
X102935Y032053D01*
G54D65*
X105935Y036821D02*
Y039303D01*
Y036821D02*
X105435Y036321D01*
X105935Y039303D02*
X100935Y044303D01*
X105699Y035686D02*
X104095D01*
X105435Y036321D02*
X104095D01*
Y035686D02*
X103686Y035276D01*
X104095Y036321D02*
X103686Y036730D01*
G54D62*
X102935Y032053D02*
Y032303D01*
G54D63*
X102185Y047553D02*
X099935D01*
G54D65*
X101199Y044938D02*
X099435D01*
X100935Y044303D02*
X098981D01*
G54D62*
X100435Y031803D02*
Y032303D01*
Y031803D02*
X099435Y030803D01*
G54D63*
X099935Y047553D02*
X096936Y050553D01*
G54D62*
X099685Y035053D02*
X096185D01*
X099435Y030803D02*
X090435D01*
G54D65*
X099435Y044938D02*
X098771Y045603D01*
X099159D02*
X098771D01*
X098981Y044303D02*
X097686Y045599D01*
G54D62*
X097935Y033803D02*
X096185D01*
G54D65*
X097686Y045599D02*
Y046303D01*
G54D62*
X096936Y032303D02*
X096436D01*
G54D63*
X096936Y050553D02*
Y052053D01*
G54D62*
X096436Y032303D02*
X095685Y031553D01*
X096185Y033803D02*
X094935Y032553D01*
X096185Y035053D02*
X094568Y033436D01*
X096185Y037203D02*
X093535D01*
X095685Y031553D02*
X090935D01*
X095435Y044553D02*
Y044803D01*
X093686Y043053D01*
X094935Y032553D02*
X091186D01*
X094935Y046553D02*
X092685D01*
X094685Y027553D02*
X094435D01*
X094568Y033436D02*
X091568D01*
X094435Y027553D02*
X093185Y026303D01*
X093686Y043053D02*
X092185D01*
X093685Y029553D02*
X093561Y029428D01*
X090561D01*
X093535Y037203D02*
X093185Y037553D01*
Y026303D02*
X091186D01*
X093185Y037553D02*
Y039553D01*
X092985Y039753D01*
Y040238D01*
X092370Y040853D01*
X092685Y046553D02*
X090686Y044553D01*
X092435Y027803D02*
X091635Y028603D01*
X092370Y040853D02*
X091885D01*
X092185Y034553D02*
Y036803D01*
X091935Y037053D01*
Y039803D01*
X091885Y040853D02*
X089435Y043303D01*
X091635Y028603D02*
X090385D01*
X091568Y033436D02*
X090835Y034168D01*
X091186Y026303D02*
X089935Y025053D01*
X091186Y032553D02*
X090085Y033653D01*
X091085Y046703D02*
Y053572D01*
Y046703D02*
X089435Y045053D01*
X091085Y053572D02*
X089635Y055022D01*
X090935Y031553D02*
X089435Y033053D01*
X090835Y034168D02*
Y040403D01*
X088685Y042553D01*
X090686Y026803D02*
Y027553D01*
Y026803D02*
X089185Y025303D01*
X090561Y029428D02*
X087935Y032053D01*
X090435Y030803D02*
X088685Y032553D01*
X090435Y047303D02*
Y053053D01*
Y047303D02*
X088685Y045553D01*
X090435Y053053D02*
X088185Y055303D01*
X090385Y028603D02*
X088160Y030828D01*
X090085Y033653D02*
Y039903D01*
X087935Y042053D01*
X089935Y022553D02*
Y025053D01*
Y022553D02*
X088685Y021303D01*
X089685Y047803D02*
Y052503D01*
Y047803D02*
X087935Y046053D01*
X089685Y052503D02*
X088385Y053803D01*
X089635Y055022D02*
Y055803D01*
X089435Y033053D02*
Y039303D01*
X087210Y041528D01*
X089435Y043303D02*
Y045053D01*
X089235Y023353D02*
Y025238D01*
Y023353D02*
X088410Y022528D01*
X089235Y025238D02*
X089185Y025288D01*
Y025303D01*
X088685Y021303D02*
X086660D01*
X088685Y032553D02*
Y039053D01*
X086435Y041303D01*
X088685Y042553D02*
Y045553D01*
X088410Y022528D02*
X086435D01*
X088385Y053803D02*
X086660D01*
X088186Y051303D02*
X088185Y051304D01*
X088186Y051303D02*
X087685Y050803D01*
G54D63*
X088185Y024803D02*
Y027303D01*
X087935Y027553D01*
G54D62*
X088185Y051304D02*
Y052053D01*
Y055303D02*
X087935D01*
X088160Y030828D02*
X086435D01*
G54D63*
X087935Y027553D02*
X086435D01*
G54D62*
X087935Y032053D02*
Y033053D01*
X087685Y033303D01*
X087935Y042053D02*
Y046053D01*
X087685Y033303D02*
X083951D01*
X087685Y050803D02*
X086435D01*
X087210Y041528D02*
Y045528D01*
X086960Y045778D01*
X086435D01*
X086660Y053803D02*
X086435Y053578D01*
X086660Y021303D02*
X086435Y021078D01*
X086410Y021053D01*
X086435Y022528D02*
Y024303D01*
Y025803D02*
X085935Y025303D01*
X086435Y029053D02*
Y030828D01*
Y029053D02*
X086435D01*
X086435Y032278D02*
X084160D01*
X086435Y041303D02*
Y044328D01*
X086410Y044303D01*
X086435Y045778D02*
Y047553D01*
Y049053D02*
X085935Y048553D01*
X086435Y052303D02*
Y053578D01*
Y052303D02*
X086435Y052303D01*
X086435Y055028D02*
X085598D01*
X086435Y027553D02*
X085335Y026453D01*
X086435Y029053D02*
X085685D01*
X086435Y050803D02*
X085335Y049703D01*
X086435Y052303D02*
X085685D01*
X086410Y021053D02*
X084435D01*
X086410Y044303D02*
X084435D01*
X085935Y025303D02*
X084436D01*
X085935Y048553D02*
X084436D01*
X085685Y029053D02*
X084935Y028303D01*
X085685Y052303D02*
X084935Y051553D01*
X085598Y055028D02*
X085573Y055053D01*
X085185D01*
X085335Y026453D02*
X081399D01*
X085335Y049703D02*
X081399D01*
X085185Y053078D02*
Y055053D01*
Y053078D02*
X083660Y051553D01*
X084935Y027803D02*
Y028303D01*
Y027803D02*
X084235Y027103D01*
X084935Y051053D02*
Y051553D01*
Y051053D02*
X084235Y050353D01*
X084436Y023853D02*
X084435D01*
X084436Y025303D02*
X083185D01*
X084436Y029078D02*
Y031053D01*
Y029078D02*
X083660Y028303D01*
X084436Y031053D02*
X083936Y031553D01*
X084436Y047103D02*
X084435D01*
X084436Y048553D02*
X083185D01*
X084435Y021053D02*
Y023853D01*
Y044303D02*
Y047103D01*
X084235Y027103D02*
X081130D01*
X084235Y050353D02*
X081130D01*
X084185Y031553D02*
Y031804D01*
Y031553D02*
X083936D01*
X084185Y031804D02*
X083936Y032053D01*
X084160Y032278D02*
X083936Y032053D01*
X083951Y033303D02*
X082886Y032238D01*
X083936Y031553D02*
X083936Y031553D01*
X083435Y054803D02*
X083185Y054553D01*
X083193Y030061D02*
Y030811D01*
Y030061D02*
X083185Y030053D01*
X083193Y030811D02*
X082886Y031118D01*
X083185Y022553D02*
Y025303D01*
X081935D01*
X083185Y045803D02*
Y048553D01*
X081935D01*
X083185Y030053D02*
D01*
Y053303D02*
Y054553D01*
Y053303D02*
D01*
Y030053D02*
X082935Y029803D01*
X083185Y053303D02*
X082935Y053053D01*
Y021053D02*
X081185D01*
X082935Y029492D02*
Y029803D01*
Y029492D02*
X082435Y028992D01*
X082935Y044303D02*
X081185D01*
X082935Y052742D02*
Y053053D01*
Y052742D02*
X082435Y052242D01*
X082886Y031118D02*
Y032238D01*
X082435Y028803D02*
Y028992D01*
Y028803D02*
X082210Y028578D01*
X082435Y052053D02*
Y052242D01*
Y052053D02*
X082210Y051828D01*
Y028303D02*
Y028578D01*
Y051553D02*
Y051828D01*
X081935Y023853D02*
X081385Y023303D01*
X081935Y031803D02*
X081685Y031553D01*
X081935Y047103D02*
X081385Y046553D01*
X081935Y055053D02*
X081685Y054803D01*
Y030053D02*
Y031553D01*
Y030053D02*
X080835D01*
X081685Y053303D02*
Y054803D01*
Y053303D02*
X080835D01*
X081399Y026453D02*
X080585Y025639D01*
X081399Y049703D02*
X080585Y048889D01*
X081385Y023303D02*
X080585D01*
X081385Y046553D02*
X080585D01*
X081185Y021053D02*
Y021053D01*
Y044303D02*
D01*
Y021053D02*
Y021803D01*
X080885Y022103D01*
X081185Y044303D02*
Y045053D01*
X080885Y045353D01*
X081130Y027103D02*
X080680Y026653D01*
X081130Y050353D02*
X080680Y049903D01*
X080885Y022103D02*
X080316D01*
X080885Y045353D02*
X080316D01*
X080835Y030053D02*
X080585Y029803D01*
X080835Y053303D02*
X080585Y053053D01*
X080680Y026653D02*
X071785D01*
X080680Y049903D02*
X071785D01*
X080585Y023303D02*
Y025639D01*
Y046553D02*
Y048889D01*
X080435Y031803D02*
X079935Y031303D01*
X080435Y055053D02*
X079935Y054553D01*
X080316Y022103D02*
X079935Y022484D01*
X080316Y045353D02*
X079935Y045734D01*
Y022484D02*
Y023303D01*
D01*
Y045734D02*
Y046553D01*
D01*
Y029803D02*
Y031303D01*
Y029803D02*
D01*
Y053053D02*
Y054553D01*
Y053053D02*
D01*
Y028715D02*
Y029803D01*
Y028715D02*
X078524Y027303D01*
X079935Y051965D02*
Y053053D01*
Y051965D02*
X078524Y050553D01*
X079685Y021053D02*
X079285Y021453D01*
X079685Y044303D02*
X079285Y044703D01*
Y021453D02*
Y023303D01*
X079285D01*
X079285Y029803D02*
Y031453D01*
Y029803D02*
X079285D01*
X079285Y031453D02*
X078935Y031803D01*
X079285Y044703D02*
Y046553D01*
X079285Y046553D01*
X079285Y053053D02*
Y054703D01*
Y053053D02*
X079285D01*
X079285Y054703D02*
X078935Y055053D01*
X079285Y023303D02*
Y024122D01*
X078555Y024853D01*
X079285Y028984D02*
Y029803D01*
Y028984D02*
X078355Y028053D01*
X079285Y046553D02*
Y047372D01*
X078555Y048103D01*
X079285Y052234D02*
Y053053D01*
Y052234D02*
X078355Y051303D01*
X078635Y023003D02*
Y023303D01*
Y023003D02*
X077435Y021803D01*
X078635Y029803D02*
Y030353D01*
X077435Y031553D01*
X078635Y046253D02*
Y046553D01*
Y046253D02*
X077435Y045053D01*
X078635Y053053D02*
Y053603D01*
X077435Y054803D01*
X078555Y024853D02*
X072235D01*
X078555Y048103D02*
X072235D01*
X078524Y027303D02*
X071920D01*
X078524Y050553D02*
X071920D01*
X078355Y028053D02*
X070935D01*
X078355Y051303D02*
X070935D01*
X077435Y020303D02*
D01*
Y021803D02*
X074435D01*
X077435Y031553D02*
X077185D01*
X077435Y043553D02*
D01*
Y045053D02*
X074435D01*
X077435Y054803D02*
X077185D01*
X077435Y020303D02*
X068685D01*
X077435Y043553D02*
X068685D01*
X076686Y031803D02*
X076685D01*
X076686Y055053D02*
X076685D01*
Y031803D02*
X076435Y031553D01*
X076685Y055053D02*
X076435Y054803D01*
Y031553D02*
X072935D01*
X076435Y054803D02*
X072935D01*
X074435Y021803D02*
X073635Y021003D01*
X074435Y045053D02*
X073635Y044253D01*
Y021003D02*
X071736D01*
X073635Y044253D02*
X071736D01*
X073186Y023553D02*
X073185D01*
X073186Y046803D02*
X073185D01*
Y023553D02*
X072935Y023803D01*
X073185Y046803D02*
X072935Y047053D01*
X072935Y029803D02*
X072185Y030553D01*
X072935Y053053D02*
X072185Y053803D01*
X072935Y031553D02*
X072685Y031803D01*
X072935Y054803D02*
X072685Y055053D01*
X072935Y023803D02*
X069685D01*
X072935Y047053D02*
X069685D01*
X072686Y022053D02*
X072686D01*
X072686Y045303D02*
X072686D01*
Y022053D02*
X072685Y022053D01*
X072686Y045303D02*
X072685Y045303D01*
Y022053D02*
D01*
X072436Y021803D01*
X072685Y022053D02*
Y022053D01*
Y022053D02*
X072436Y021803D01*
X072685Y022053D02*
X071685Y023053D01*
X072685Y045303D02*
D01*
X072436Y045053D01*
X072685Y045303D02*
Y045303D01*
Y045303D02*
X072436Y045053D01*
X072685Y045303D02*
X071935Y046053D01*
X072235Y024853D02*
X072185Y024803D01*
X072235Y048103D02*
X072185Y048053D01*
Y030553D02*
X071436Y031303D01*
X072185Y053803D02*
X071436Y054553D01*
X071935Y046053D02*
X069685D01*
X071920Y027303D02*
X071870Y027353D01*
X071920Y050553D02*
X071870Y050603D01*
Y027353D02*
X071001D01*
X071870Y050603D02*
X071001D01*
X071785Y026653D02*
X071435Y026303D01*
X071785Y049903D02*
X071435Y049553D01*
X071736Y021003D02*
X070935Y021803D01*
X071736Y044253D02*
X070935Y045053D01*
X071685Y023053D02*
X069185D01*
X071436Y031303D02*
X067435D01*
X071436Y054553D02*
X067435D01*
X071435Y029303D02*
X070236Y030503D01*
X071435Y052553D02*
X070236Y053753D01*
X071001Y027353D02*
X070951Y027303D01*
X071001Y050603D02*
X070951Y050553D01*
Y027303D02*
X070435D01*
X070951Y050553D02*
X070435D01*
X070935Y021803D02*
X068685D01*
X070935Y028053D02*
X069435Y029553D01*
X070935Y045053D02*
X068685D01*
X070935Y051303D02*
X069435Y052803D01*
X070685Y024803D02*
X069685D01*
X070685Y048053D02*
X069685D01*
X070435Y027303D02*
X068935Y028803D01*
X070435Y050553D02*
X068935Y052053D01*
X070236Y030503D02*
X066121D01*
X070236Y053753D02*
X066121D01*
G54D11*
X070181Y036557D02*
Y037757D01*
X069582D01*
X070181Y038606D02*
Y039806D01*
X069782Y039406D01*
Y036957D02*
X069382Y036557D01*
X069782Y039406D02*
X069382Y039806D01*
G54D62*
X069685Y023803D02*
X067435Y026053D01*
X069685Y047053D02*
X067435Y049303D01*
X069685Y024803D02*
X067185Y027303D01*
X069685Y046053D02*
X068435Y047303D01*
X069685Y048053D02*
X067185Y050553D01*
G54D11*
X069582Y036957D02*
X070181D01*
X069582Y037757D02*
X069382Y037557D01*
G54D62*
X069435Y029553D02*
X060435D01*
X069435Y052803D02*
X060435D01*
G54D11*
X069382Y037157D02*
X069582Y036957D01*
X069382Y037557D02*
Y037157D01*
Y039806D02*
Y038606D01*
G54D62*
X069185Y023053D02*
X068435Y023803D01*
G54D11*
X068982Y036557D02*
X068182D01*
X068982Y037157D02*
X068582D01*
X068982Y037757D02*
Y036557D01*
Y038806D02*
X068782Y038606D01*
X068982Y039606D02*
Y038806D01*
G54D62*
X068935Y028803D02*
X061685D01*
X068935Y052053D02*
X061685D01*
G54D11*
X068782Y038606D02*
X068382D01*
X068782Y039806D02*
X068982Y039606D01*
G54D62*
X068685Y021803D02*
D01*
Y045053D02*
D01*
Y020303D02*
X068435Y020053D01*
X068685Y043553D02*
X067435D01*
X068435Y023803D02*
X067185D01*
X068435Y047303D02*
X066935D01*
X068435Y020053D02*
X067935Y020553D01*
G54D11*
X068382Y038606D02*
X068182Y038806D01*
X068382Y039806D02*
X068782D01*
X068182Y037757D02*
X068982D01*
X068182Y038806D02*
Y039606D01*
X068382Y039806D01*
G54D62*
X067935Y020553D02*
X066185D01*
G54D11*
X067782Y036957D02*
X067382Y036557D01*
X067782Y037757D02*
Y036957D01*
Y039806D02*
X066983D01*
G54D62*
X067435Y026053D02*
X058685D01*
X067435Y043553D02*
X066435Y042553D01*
X067435Y049303D02*
X058685D01*
X067435Y031303D02*
X065935Y032803D01*
X067435Y054553D02*
X065935Y056053D01*
G54D11*
X067382Y036557D02*
X066983Y036957D01*
X067382Y039806D02*
Y038606D01*
G54D62*
X067185Y023803D02*
X066185Y022803D01*
X067185Y027303D02*
X061685D01*
X067185Y050553D02*
X061685D01*
G54D11*
X066983Y036957D02*
Y037757D01*
Y039806D02*
X067382D01*
G54D62*
X066935Y047303D02*
X066185Y046553D01*
G54D11*
X066583Y038806D02*
X066383Y038606D01*
X066583Y039606D02*
Y038806D01*
G54D62*
X066435Y042553D02*
X066186Y042803D01*
G54D11*
X066383Y038606D02*
X065983D01*
X066383Y039806D02*
X066583Y039606D01*
G54D62*
X066186Y042803D02*
X065727Y042344D01*
X066185Y020553D02*
X065935Y020303D01*
X066185Y022803D02*
X065185D01*
X066185Y046553D02*
X064951D01*
X066121Y030503D02*
X066121Y030503D01*
X066121Y053753D02*
X066121Y053753D01*
Y030503D02*
X058066D01*
X066121Y053753D02*
X058066D01*
G54D11*
X065983Y038606D02*
X065783Y038806D01*
X065983Y039806D02*
X066383D01*
G54D62*
X065935Y032803D02*
X058685D01*
X065935Y056053D02*
X058685D01*
G54D11*
X065783Y038806D02*
Y039606D01*
X065983Y039806D01*
G54D62*
X065727Y042344D02*
X065518Y042553D01*
X065686Y024053D02*
X064686Y025053D01*
X065686Y031553D02*
X058436D01*
X065686Y054803D02*
X058436D01*
X065686Y047803D02*
X065186D01*
X065518Y042553D02*
X047185D01*
G54D11*
X065383Y036557D02*
X064983D01*
X065383Y038606D02*
Y039806D01*
X064783D01*
G54D62*
X065186Y047803D02*
X064686Y048303D01*
X065185Y022803D02*
X063935Y024053D01*
G54D11*
X065183Y036557D02*
Y037757D01*
X065383Y037557D01*
X064983Y036557D02*
X065183D01*
X064983Y039006D02*
X064583Y038606D01*
G54D62*
X064951Y046553D02*
X064201Y047303D01*
G54D11*
X064783Y039006D02*
X065383D01*
X064783Y039806D02*
X064583Y039606D01*
G54D62*
X064686Y025053D02*
X059170D01*
X064686Y048303D02*
X059170D01*
G54D11*
X064583Y039206D02*
X064783Y039006D01*
X064583Y039606D02*
Y039206D01*
X064383Y036557D02*
Y036757D01*
X064183D01*
G54D62*
X064201Y047303D02*
X057185D01*
G54D11*
X064183Y039206D02*
X063384D01*
X064183Y036557D02*
X064383D01*
X064183Y036757D02*
Y036557D01*
G54D62*
X063935Y024053D02*
X057185D01*
G54D11*
X063384Y036757D02*
Y037557D01*
X063184Y037757D01*
Y036557D02*
X063384Y036757D01*
X063184Y037757D02*
X062784D01*
X062984Y038606D02*
X062384D01*
X062984Y039806D02*
Y038606D01*
X062784Y036557D02*
X063184D01*
X062784Y037757D02*
X062584Y037557D01*
Y036757D02*
X062784Y036557D01*
X062584Y037557D02*
Y036757D01*
X062384Y038606D02*
X062184Y038806D01*
X062384Y039806D02*
X062984D01*
X062184Y038806D02*
Y039606D01*
X062384Y039806D01*
X061784Y038606D02*
Y039806D01*
X061184D01*
G54D62*
X061685Y028803D02*
X060685Y027803D01*
X061685Y052053D02*
X060685Y051053D01*
G54D11*
X061384Y039006D02*
X060984Y038606D01*
X061184Y039006D02*
X061784D01*
X061184Y039806D02*
X060984Y039606D01*
Y039206D02*
X061184Y039006D01*
X060984Y039606D02*
Y039206D01*
G54D62*
X060685Y027803D02*
X060185D01*
X060685Y051053D02*
X060185D01*
G54D11*
X060585Y038606D02*
X060185D01*
X060585Y039806D02*
X060185D01*
G54D62*
X060435Y029553D02*
X060185Y029303D01*
X060435Y052803D02*
X060185Y052553D01*
G54D11*
X060385Y038606D02*
X060585D01*
X060385Y039806D02*
Y038606D01*
X060185Y039806D02*
X060385D01*
X059585Y039006D02*
X059185Y038606D01*
X059585Y039806D02*
Y039006D01*
X059185Y038606D02*
X058785Y039006D01*
G54D62*
X059170Y025053D02*
X059120Y025003D01*
X059170Y048303D02*
X059120Y048253D01*
Y025003D02*
X056985D01*
X059120Y048253D02*
X056985D01*
G54D11*
X058785Y039006D02*
Y039806D01*
G54D62*
X058685Y027553D02*
Y027803D01*
Y027553D02*
X057485Y026353D01*
X058685Y029303D02*
X055185D01*
X058685Y050803D02*
Y051053D01*
Y050803D02*
X057485Y049603D01*
X058685Y052553D02*
X055185D01*
X058436Y031553D02*
X058185Y031803D01*
X058436Y054803D02*
X058185Y055053D01*
G54D11*
X058385Y038606D02*
X057586D01*
X058385Y039206D02*
X057985D01*
X058385Y039806D02*
Y038606D01*
G54D62*
X058185Y031803D02*
X057935Y031553D01*
X058185Y055053D02*
X057935Y054803D01*
X058066Y030503D02*
X057516Y031053D01*
X058066Y053753D02*
X057516Y054303D01*
X057935Y031553D02*
X056350Y033138D01*
X057935Y054803D02*
X056350Y056388D01*
G54D11*
X057586Y039806D02*
X058385D01*
G54D62*
X057516Y031053D02*
X055435D01*
X057516Y054303D02*
X055185D01*
X057485Y026353D02*
X046485D01*
X057485Y049603D02*
X046485D01*
G54D11*
X057186Y038606D02*
Y039806D01*
X056586D01*
G54D62*
X057185Y024053D02*
X056685Y023553D01*
X057185Y047303D02*
X056685Y046803D01*
X056985Y025003D02*
X056350Y025638D01*
X056985Y048253D02*
X056350Y048888D01*
G54D11*
X056786Y039006D02*
X056386Y038606D01*
G54D62*
X056685Y023553D02*
X055185D01*
X056685Y046803D02*
X055185D01*
G54D11*
X056586Y039006D02*
X057186D01*
X056586Y039806D02*
X056386Y039606D01*
Y039206D02*
X056586Y039006D01*
X056386Y039606D02*
Y039206D01*
G54D62*
X056350Y025638D02*
X047520D01*
X056350Y033138D02*
X047520D01*
X056350Y048888D02*
X047520D01*
X056350Y056388D02*
X047520D01*
X055435Y031053D02*
X054685Y030303D01*
X055185Y029303D02*
X054435Y028553D01*
X055185Y031053D02*
Y031303D01*
Y031053D02*
X054435Y030303D01*
X055185Y031303D02*
X054435Y032053D01*
X055185Y052553D02*
X054435Y051803D01*
X055185Y054303D02*
X054435Y053553D01*
X055185Y023553D02*
X054435Y022803D01*
X055185Y046803D02*
X054435Y046053D01*
X054685Y030303D02*
X054435D01*
X047520Y033138D02*
X047185Y032803D01*
X047520Y056388D02*
X047185Y056053D01*
X047520Y025638D02*
X047185Y025303D01*
X047520Y048888D02*
X047185Y048553D01*
X046485Y026353D02*
X044145Y024013D01*
X046485Y049603D02*
X044145Y047263D01*
Y024013D02*
X035935D01*
X044145Y047263D02*
X035935D01*
G54D68*
X117435Y024393D03*
Y026933D03*
Y029473D03*
Y032013D03*
G54D67*
X117435Y034553D03*
G54D68*
X117435Y046723D03*
Y049263D03*
G54D67*
X117435Y051803D03*
G54D68*
X114895Y024393D03*
Y026933D03*
Y029473D03*
Y032013D03*
Y034553D03*
Y046723D03*
Y049263D03*
Y051803D03*
G54D66*
X098635Y052153D03*
X094235D03*
G54D20*
X086435Y021078D03*
Y022528D03*
G54D74*
X086435Y024303D03*
Y025803D03*
G54D20*
X086435Y030828D03*
Y032278D03*
G54D74*
X086435Y047553D03*
Y049053D03*
G54D20*
X086435Y053578D03*
Y055028D03*
G54D74*
X086435Y027553D03*
Y029053D03*
Y050803D03*
Y052303D03*
G54D20*
X086185Y044328D03*
Y045778D03*
X084436Y023853D03*
Y025303D03*
Y047103D03*
Y048553D03*
G54D21*
X084435Y021053D03*
Y044303D03*
G54D23*
X083660Y028303D03*
Y051553D03*
G54D21*
X083185Y030053D03*
Y053303D03*
X082935Y021053D03*
Y044303D03*
G54D23*
X082210Y028303D03*
Y051553D03*
G54D20*
X081935Y023853D03*
Y025303D03*
G54D21*
X081935Y031803D03*
G54D20*
X081935Y047103D03*
Y048553D03*
G54D21*
X081935Y055053D03*
X081685Y030053D03*
Y053303D03*
X081185Y021053D03*
Y044303D03*
G54D75*
X080585Y023303D03*
G54D76*
X080585Y029803D03*
G54D75*
X080585Y046553D03*
G54D76*
X080585Y053053D03*
G54D21*
X080435Y031803D03*
Y055053D03*
G54D75*
X079935Y023303D03*
Y029803D03*
Y046553D03*
Y053053D03*
G54D21*
X079685Y021053D03*
Y044303D03*
G54D75*
X079285Y023303D03*
Y029803D03*
Y046553D03*
Y053053D03*
G54D21*
X078935Y031803D03*
Y055053D03*
G54D75*
X078635Y023303D03*
Y029803D03*
Y046553D03*
Y053053D03*
G54D74*
X077435Y020303D03*
Y021803D03*
G54D21*
X077435Y031803D03*
G54D74*
X077435Y043553D03*
Y045053D03*
G54D21*
X077435Y055053D03*
X072185Y024803D03*
Y048053D03*
X070685Y024803D03*
Y048053D03*
G54D74*
X068685Y020303D03*
Y021803D03*
Y043553D03*
Y045053D03*
G54D21*
X060185Y027803D03*
Y029303D03*
Y051053D03*
Y052553D03*
X058685Y027803D03*
Y029303D03*
Y051053D03*
Y052553D03*
G54D69*
X048225Y038053D03*
X043145D03*
X035935Y024013D03*
Y029093D03*
Y047263D03*
Y052343D03*
G36*
X093111Y043253D02*
X093056Y043255D01*
X093001Y043262*
X092948Y043273*
X092896Y043288*
X092846Y043308*
X092797Y043332*
X092749Y043361*
X092703Y043394*
X092658Y043431*
X092614Y043473*
Y042633*
X092658Y042675*
X092703Y042712*
X092749Y042745*
X092797Y042774*
X092846Y042798*
X092896Y042818*
X092948Y042833*
X093001Y042844*
X093056Y042851*
X093111Y042853*
Y043253*
G37*
G36*
X094773Y043858D02*
X094816Y043897D01*
X094860Y043930*
X094905Y043957*
X094951Y043978*
X094998Y043994*
X095047Y044003*
X095096Y044007*
X095147Y044004*
X095200Y043996*
X095253Y043982*
X094860Y044724*
X094841Y044665*
X094798Y044553*
X094773Y044500*
X094718Y044402*
X094687Y044357*
X094655Y044314*
X094621Y044273*
X094584Y044235*
X094773Y043858*
G37*
G36*
X104484Y035876D02*
X103789Y035867D01*
X104285Y035262*
X104290Y035306*
X104300Y035346*
X104316Y035381*
X104339Y035411*
X104368Y035437*
X104403Y035458*
X104444Y035474*
X104491Y035486*
X104545Y035493*
X104604Y035495*
X104484Y035876*
G37*
G36*
X104604Y036511D02*
X104545Y036513D01*
X104491Y036520*
X104444Y036532*
X104403Y036548*
X104368Y036569*
X104339Y036595*
X104316Y036626*
X104300Y036661*
X104290Y036700*
X104285Y036745*
X103789Y036139*
X104484Y036130*
X104604Y036511*
G37*
G36*
X118631Y033806D02*
X118505Y033937D01*
X118308Y034170*
X118236Y034273*
X118182Y034368*
X118146Y034453*
X118128Y034529*
Y034597*
X118146Y034655*
X118182Y034704*
X117284Y033806*
X117334Y033842*
X117392Y033860*
X117459*
X117536Y033842*
X117621Y033806*
X117715Y033753*
X117818Y033681*
X117931Y033591*
X118182Y033357*
X118631Y033806*
G37*
G36*
X115555Y021871D02*
X115489Y021872D01*
X115372Y021880*
X115321Y021887*
X115274Y021896*
X115233Y021907*
X115196Y021921*
X115164Y021936*
X115136Y021954*
X115114Y021973*
Y021133*
X115136Y021153*
X115164Y021170*
X115196Y021185*
X115233Y021199*
X115274Y021210*
X115321Y021219*
X115372Y021226*
X115489Y021235*
X115555Y021236*
Y021871*
G37*
G36*
X111931Y023207D02*
X111930Y023146D01*
X111925Y023088*
X111917Y023033*
X111905Y022981*
X111890Y022932*
X111872Y022886*
X111850Y022843*
X111825Y022803*
X111797Y022766*
X111765Y022732*
X112605*
X112574Y022766*
X112546Y022803*
X112521Y022843*
X112499Y022886*
X112481Y022932*
X112466Y022981*
X112454Y023033*
X112446Y023088*
X112441Y023146*
X112439Y023207*
X111931*
G37*
G36*
X097190Y051150D02*
X097191Y051210D01*
X097196Y051268*
X097204Y051323*
X097216Y051375*
X097231Y051424*
X097249Y051470*
X097271Y051513*
X097296Y051554*
X097324Y051591*
X097355Y051625*
X096515*
X096547Y051591*
X096575Y051554*
X096600Y051513*
X096622Y051470*
X096640Y051424*
X096655Y051375*
X096667Y051323*
X096675Y051268*
X096680Y051210*
X096682Y051150*
X097190*
G37*
G54D70*
X115685Y041553D03*
X114685Y021553D03*
X112685Y029803D03*
X112185Y022303D03*
X112107Y054581D03*
X110685Y028053D03*
X107185Y044553D03*
X106685Y050803D03*
X105935Y028803D03*
X103686Y035276D03*
Y036730D03*
X103435Y025803D03*
X102935Y032303D03*
X100435D03*
X099935Y036803D03*
X099685Y035053D03*
X099159Y045603D03*
X097935Y027053D03*
Y033803D03*
X097686Y046303D03*
X096936Y032303D03*
Y052053D03*
X096185Y037203D03*
X095435Y044553D03*
X094935Y046553D03*
X094685Y027553D03*
X094435Y054803D03*
X093685Y029553D03*
X093435Y020553D03*
X092435Y027803D03*
X092185Y034553D03*
Y043053D03*
X091935Y039803D03*
X090686Y027553D03*
Y044553D03*
X089635Y055803D03*
X088435Y049803D03*
X088185Y024803D03*
Y052053D03*
X087935Y055303D03*
X086935Y035303D03*
X085185Y055053D03*
X084185Y031553D03*
X083435Y054803D03*
X083185Y022553D03*
Y045803D03*
X081185Y041053D03*
X076686Y031803D03*
Y055053D03*
X073186Y023553D03*
Y046803D03*
X073185Y036553D03*
X072935Y029803D03*
Y053053D03*
X072686Y022053D03*
Y045303D03*
X072685Y031803D03*
Y055053D03*
X071435Y026303D03*
Y029303D03*
Y049553D03*
Y052553D03*
X067185Y022303D03*
G54D71*
X066935Y045303D03*
G54D70*
X065935Y020303D03*
X065686Y024053D03*
Y031553D03*
Y054803D03*
X065686Y047803D03*
X061685Y027303D03*
Y050553D03*
X058685Y026053D03*
Y032803D03*
Y049303D03*
Y056053D03*
G54D71*
X054435Y021053D03*
Y022803D03*
Y024553D03*
Y028553D03*
Y030303D03*
Y032053D03*
Y046053D03*
Y047803D03*
Y051803D03*
Y053553D03*
Y055303D03*
G54D70*
X047185Y025303D03*
Y032803D03*
Y042553D03*
Y048553D03*
Y056053D03*
M02*