%FSDAX33Y33*%
%MOMM*%
%SFA1B1*%

%IPPOS*%
%AMD1002*
%
%ADD11C,0.254000*%
%ADD17R,0.499999X2.500000*%
%ADD18R,2.000001X2.500000*%
%ADD19R,1.524000X2.999999*%
%ADD20R,1.100000X1.000001*%
%ADD21R,0.800001X1.050000*%
%ADD22R,1.500000X1.549999*%
%ADD23R,1.000001X1.100000*%
%ADD24R,1.549999X1.500000*%
%ADD25R,1.849999X1.450000*%
%ADD26R,1.270000X0.508000*%
%ADD27R,1.050000X0.599999*%
%ADD28O,1.050000X0.599999*%
%ADD29O,1.450000X0.599999*%
%ADD30R,1.450000X0.599999*%
%ADD31R,1.500000X1.350000*%
%ADD32R,2.300000X3.200001*%
%ADD33R,1.799999X0.599999*%
%ADD34O,1.799999X0.599999*%
%ADD35O,1.749999X0.549999*%
%ADD36O,0.549999X1.749999*%
%ADD62C,0.399999*%
%ADD63C,0.508000*%
%ADD64C,0.635000*%
%ADD65C,0.381000*%
%ADD66C,0.900001*%
%ADD67R,1.500000X1.500000*%
%ADD68C,1.500000*%
%ADD69C,2.999999*%
%ADD70C,1.200000*%
%ADD71C,1.270000*%
%LNgrb_top_layer-1*%
%LPD*%
G36*
X152400Y076200D02*
X000000D01*
Y000000*
X152400*
Y076200*
G37*
%LNgrb_top_layer-2*%
%LPC*%
G36*
X085828Y055093D02*
X085882Y055095D01*
X085936Y055101*
X085990Y055110*
X086043Y055123*
X086095Y055140*
X086148Y055161*
X086200Y055186*
X086251Y055214*
X086302Y055247*
X086353Y055283*
X086226Y054452*
X086191Y054498*
X086152Y054539*
X086112Y054575*
X086069Y054606*
X086024Y054633*
X085976Y054655*
X085927Y054671*
X085874Y054683*
X085820Y054691*
X085763Y054693*
X085828Y055093*
G37*
G36*
X105987Y055497D02*
X105943Y055537D01*
X105900Y055570*
X105857Y055596*
X105815Y055615*
X105773Y055626*
X105732Y055630*
X105691Y055626*
X105651Y055615*
X105611Y055597*
X105572Y055572*
X105730Y056359*
X105745Y056337*
X105767Y056308*
X105833Y056231*
X106123Y055927*
X106202Y055847*
X105987Y055497*
G37*
G36*
X085828Y031843D02*
X085882Y031845D01*
X085936Y031851*
X085990Y031860*
X086043Y031873*
X086095Y031890*
X086148Y031911*
X086200Y031936*
X086251Y031964*
X086302Y031997*
X086353Y032033*
X086226Y031202*
X086191Y031248*
X086152Y031289*
X086112Y031325*
X086069Y031356*
X086024Y031383*
X085976Y031405*
X085927Y031421*
X085874Y031433*
X085820Y031441*
X085763Y031443*
X085828Y031843*
G37*
G36*
X105987Y032247D02*
X105943Y032287D01*
X105900Y032320*
X105857Y032346*
X105815Y032365*
X105773Y032376*
X105732Y032380*
X105691Y032376*
X105651Y032365*
X105611Y032347*
X105572Y032322*
X105730Y033109*
X105745Y033087*
X105767Y033058*
X105833Y032981*
X106123Y032677*
X106202Y032597*
X105987Y032247*
G37*
G36*
X085787Y024253D02*
X085843Y024255D01*
X085897Y024262*
X085951Y024273*
X086002Y024288*
X086053Y024308*
X086102Y024332*
X086149Y024361*
X086196Y024394*
X086241Y024431*
X086285Y024473*
Y023633*
X086241Y023675*
X086196Y023712*
X086149Y023745*
X086102Y023774*
X086053Y023798*
X086002Y023818*
X085951Y023833*
X085897Y023844*
X085843Y023851*
X085787Y023853*
Y024253*
G37*
G36*
X105987Y024747D02*
X105943Y024787D01*
X105900Y024820*
X105857Y024846*
X105815Y024865*
X105773Y024876*
X105732Y024880*
X105691Y024876*
X105651Y024865*
X105611Y024847*
X105572Y024822*
X105730Y025609*
X105745Y025587*
X105767Y025558*
X105833Y025481*
X106123Y025177*
X106202Y025097*
X105987Y024747*
G37*
G36*
Y047997D02*
X105943Y048037D01*
X105900Y048070*
X105857Y048096*
X105815Y048115*
X105773Y048126*
X105732Y048130*
X105691Y048126*
X105651Y048115*
X105611Y048097*
X105572Y048072*
X105730Y048859*
X105745Y048837*
X105767Y048808*
X105833Y048731*
X106123Y048427*
X106202Y048347*
X105987Y047997*
G37*
G36*
X085788Y048003D02*
X085843Y048005D01*
X085898Y048012*
X085951Y048023*
X086003Y048038*
X086053Y048058*
X086102Y048082*
X086150Y048111*
X086196Y048144*
X086241Y048181*
X086285Y048223*
Y047383*
X086241Y047425*
X086196Y047462*
X086150Y047495*
X086102Y047524*
X086053Y047548*
X086003Y047568*
X085951Y047583*
X085898Y047594*
X085843Y047601*
X085788Y047603*
Y048003*
G37*
G36*
X078504Y029823D02*
X078561Y029826D01*
X078616Y029833*
X078667Y029846*
X078714Y029863*
X078758Y029886*
X078799Y029914*
X078837Y029947*
X078871Y029984*
X078901Y030027*
X078929Y030075*
X079181Y029274*
X079125Y029302*
X079015Y029350*
X078960Y029369*
X078852Y029399*
X078798Y029410*
X078745Y029417*
X078692Y029422*
X078639Y029423*
X078504Y029823*
G37*
G36*
X094487Y032247D02*
X094443Y032287D01*
X094400Y032320*
X094357Y032346*
X094315Y032365*
X094273Y032376*
X094232Y032380*
X094191Y032376*
X094151Y032365*
X094111Y032347*
X094072Y032322*
X094230Y033109*
X094245Y033087*
X094267Y033058*
X094333Y032981*
X094623Y032677*
X094702Y032597*
X094487Y032247*
G37*
G36*
X078504Y053073D02*
X078561Y053076D01*
X078616Y053083*
X078667Y053096*
X078714Y053113*
X078758Y053136*
X078799Y053164*
X078837Y053197*
X078871Y053234*
X078901Y053277*
X078929Y053325*
X079181Y052524*
X079125Y052552*
X079015Y052600*
X078960Y052619*
X078852Y052649*
X078798Y052660*
X078745Y052667*
X078692Y052672*
X078639Y052673*
X078504Y053073*
G37*
G36*
X094487Y055497D02*
X094443Y055537D01*
X094400Y055570*
X094357Y055596*
X094315Y055615*
X094273Y055626*
X094232Y055630*
X094191Y055626*
X094151Y055615*
X094111Y055597*
X094072Y055572*
X094230Y056359*
X094245Y056337*
X094267Y056308*
X094333Y056231*
X094623Y055927*
X094702Y055847*
X094487Y055497*
G37*
G36*
X094032Y025202D02*
X093993Y025238D01*
X093953Y025272*
X093910Y025305*
X093864Y025335*
X093766Y025390*
X093714Y025415*
X093602Y025459*
X093542Y025478*
X094285Y025871*
X094271Y025817*
X094262Y025765*
X094260Y025714*
X094263Y025664*
X094273Y025616*
X094288Y025568*
X094309Y025522*
X094336Y025477*
X094369Y025434*
X094408Y025391*
X094032Y025202*
G37*
G36*
X078518Y022891D02*
X078557Y022933D01*
X078590Y022977*
X078617Y023022*
X078639Y023068*
X078654Y023115*
X078663Y023164*
X078667Y023214*
X078664Y023265*
X078656Y023317*
X078642Y023370*
X079384Y022978*
X079324Y022958*
X079265Y022935*
X079206Y022908*
X079148Y022878*
X079035Y022808*
X078980Y022768*
X078872Y022677*
X078820Y022626*
X078518Y022891*
G37*
G36*
Y046141D02*
X078557Y046183D01*
X078590Y046227*
X078617Y046272*
X078639Y046318*
X078654Y046365*
X078663Y046414*
X078667Y046464*
X078664Y046515*
X078656Y046567*
X078642Y046620*
X079384Y046228*
X079324Y046208*
X079265Y046185*
X079206Y046158*
X079148Y046128*
X079035Y046058*
X078980Y046018*
X078872Y045927*
X078820Y045876*
X078518Y046141*
G37*
G36*
X094032Y048452D02*
X093993Y048488D01*
X093953Y048522*
X093910Y048555*
X093864Y048585*
X093766Y048640*
X093714Y048665*
X093602Y048709*
X093542Y048728*
X094285Y049121*
X094271Y049067*
X094262Y049015*
X094260Y048964*
X094263Y048914*
X094273Y048866*
X094288Y048818*
X094309Y048772*
X094336Y048727*
X094369Y048684*
X094408Y048641*
X094032Y048452*
G37*
G36*
X038676Y031813D02*
X038613Y031810D01*
X038549Y031800*
X038485Y031784*
X038421Y031761*
X038358Y031732*
X038294Y031696*
X038230Y031654*
X038167Y031605*
X038103Y031550*
X038039Y031488*
Y032538*
X038103Y032476*
X038167Y032421*
X038230Y032372*
X038294Y032330*
X038358Y032294*
X038421Y032265*
X038485Y032242*
X038549Y032226*
X038613Y032216*
X038676Y032213*
Y031813*
G37*
G36*
X035934Y032701D02*
X035891Y032654D01*
X035853Y032602*
X035820Y032545*
X035791Y032484*
X035766Y032418*
X035747Y032348*
X035731Y032273*
X035721Y032193*
X035715Y032109*
X035713Y032021*
X034971Y032763*
X035060Y032764*
X035144Y032770*
X035223Y032781*
X035298Y032796*
X035369Y032816*
X035434Y032840*
X035496Y032869*
X035552Y032903*
X035604Y032941*
X035651Y032984*
X035934Y032701*
G37*
G36*
X078862Y021734D02*
X078898Y021773D01*
X078933Y021814*
X078965Y021857*
X078995Y021902*
X079051Y022000*
X079075Y022052*
X079119Y022164*
X079138Y022224*
X079531Y021481*
X079477Y021496*
X079425Y021504*
X079374Y021506*
X079324Y021503*
X079276Y021494*
X079229Y021478*
X079182Y021457*
X079137Y021430*
X079094Y021397*
X079051Y021358*
X078862Y021734*
G37*
G36*
Y044985D02*
X078898Y045023D01*
X078933Y045064*
X078965Y045107*
X078995Y045152*
X079051Y045250*
X079075Y045302*
X079119Y045414*
X079138Y045474*
X079531Y044731*
X079477Y044746*
X079425Y044754*
X079374Y044756*
X079324Y044753*
X079276Y044744*
X079229Y044728*
X079182Y044707*
X079137Y044680*
X079094Y044647*
X079051Y044608*
X078862Y044985*
G37*
G36*
X080172Y028795D02*
X080214Y028839D01*
X080251Y028883*
X080282Y028927*
X080309Y028971*
X080331Y029015*
X080348Y029059*
X080361Y029103*
X080368Y029146*
X080370Y029190*
X080367Y029234*
X080894Y028707*
X080851Y028710*
X080807Y028707*
X080763Y028700*
X080719Y028688*
X080675Y028671*
X080631Y028649*
X080587Y028622*
X080543Y028590*
X080499Y028553*
X080455Y028512*
X080172Y028795*
G37*
G36*
Y052045D02*
X080214Y052089D01*
X080251Y052133*
X080282Y052177*
X080309Y052221*
X080331Y052265*
X080348Y052309*
X080361Y052353*
X080368Y052396*
X080370Y052440*
X080367Y052484*
X080894Y051957*
X080851Y051960*
X080807Y051957*
X080763Y051950*
X080719Y051938*
X080675Y051921*
X080631Y051899*
X080587Y051872*
X080543Y051840*
X080499Y051803*
X080455Y051762*
X080172Y052045*
G37*
G36*
X060114Y028744D02*
X060116Y028688D01*
X060123Y028633*
X060134Y028581*
X060151Y028530*
X060172Y028481*
X060197Y028434*
X060228Y028389*
X060262Y028346*
X060302Y028305*
X060346Y028265*
X059509Y028195*
X059548Y028243*
X059583Y028291*
X059613Y028341*
X059640Y028391*
X059662Y028442*
X059681Y028494*
X059695Y028546*
X059705Y028599*
X059711Y028654*
X059714Y028709*
X060114Y028744*
G37*
G36*
X081889Y026103D02*
X081834Y026101D01*
X081779Y026094*
X081726Y026083*
X081674Y026068*
X081624Y026048*
X081575Y026024*
X081527Y025995*
X081481Y025962*
X081436Y025925*
X081392Y025883*
Y026723*
X081436Y026681*
X081481Y026644*
X081527Y026611*
X081575Y026582*
X081624Y026558*
X081674Y026538*
X081726Y026523*
X081779Y026512*
X081834Y026505*
X081889Y026503*
Y026103*
G37*
G36*
X061913Y028384D02*
X061914Y028334D01*
X061925Y028212*
X061931Y028180*
X061938Y028153*
X061947Y028130*
X061958Y028112*
X061970Y028099*
X061983Y028089*
X061444*
X061457Y028099*
X061469Y028112*
X061480Y028130*
X061489Y028153*
X061496Y028180*
X061502Y028212*
X061507Y028248*
X061513Y028334*
X061513Y028384*
X061913*
G37*
G36*
X059538Y040003D02*
X059593Y040005D01*
X059648Y040012*
X059701Y040023*
X059752Y040038*
X059803Y040058*
X059852Y040082*
X059900Y040111*
X059946Y040144*
X059991Y040181*
X060035Y040223*
Y039383*
X059991Y039425*
X059946Y039462*
X059900Y039495*
X059852Y039524*
X059803Y039548*
X059752Y039568*
X059701Y039583*
X059648Y039594*
X059593Y039601*
X059538Y039603*
Y040003*
G37*
G36*
X058200Y030349D02*
X058241Y030311D01*
X058284Y030278*
X058330Y030248*
X058377Y030222*
X058427Y030201*
X058478Y030183*
X058532Y030169*
X058589Y030160*
X058647Y030154*
X058707Y030153*
X058114Y029559*
X058112Y029620*
X058107Y029678*
X058097Y029734*
X058084Y029788*
X058066Y029840*
X058044Y029890*
X058019Y029937*
X057989Y029982*
X057955Y030025*
X057918Y030066*
X058200Y030349*
G37*
G36*
X081889Y049353D02*
X081834Y049351D01*
X081779Y049344*
X081726Y049333*
X081674Y049318*
X081624Y049298*
X081575Y049274*
X081527Y049245*
X081481Y049212*
X081436Y049175*
X081392Y049133*
Y049973*
X081436Y049931*
X081481Y049894*
X081527Y049861*
X081575Y049832*
X081624Y049808*
X081674Y049788*
X081726Y049773*
X081779Y049762*
X081834Y049755*
X081889Y049753*
Y049353*
G37*
G36*
X060413Y043979D02*
X060416Y043923D01*
X060422Y043869*
X060433Y043816*
X060449Y043764*
X060468Y043714*
X060493Y043665*
X060521Y043617*
X060554Y043570*
X060592Y043525*
X060633Y043482*
X059793*
X059835Y043525*
X059873Y043570*
X059906Y043617*
X059934Y043665*
X059958Y043714*
X059978Y043764*
X059994Y043816*
X060005Y043869*
X060011Y043923*
X060013Y043979*
X060413*
G37*
G36*
X056038Y044753D02*
X056093Y044755D01*
X056148Y044762*
X056201Y044773*
X056252Y044788*
X056303Y044808*
X056352Y044832*
X056400Y044861*
X056446Y044894*
X056491Y044931*
X056535Y044973*
Y044133*
X056491Y044175*
X056446Y044212*
X056400Y044245*
X056352Y044274*
X056303Y044298*
X056252Y044318*
X056201Y044333*
X056148Y044344*
X056093Y044351*
X056038Y044353*
Y044753*
G37*
G36*
X062639Y044353D02*
X062584Y044351D01*
X062529Y044344*
X062476Y044333*
X062424Y044318*
X062374Y044298*
X062325Y044274*
X062277Y044245*
X062231Y044212*
X062186Y044175*
X062142Y044133*
Y044973*
X062186Y044931*
X062231Y044894*
X062277Y044861*
X062325Y044832*
X062374Y044808*
X062424Y044788*
X062476Y044773*
X062529Y044762*
X062584Y044755*
X062639Y044753*
Y044353*
G37*
G36*
X052169Y031314D02*
X051657Y031787D01*
X052445Y031945*
X052419Y031905*
X052401Y031866*
X052390Y031826*
X052387Y031785*
X052391Y031744*
X052402Y031702*
X052420Y031660*
X052446Y031617*
X052479Y031574*
X052520Y031530*
X052169Y031314*
G37*
G36*
X068758Y055792D02*
X069270Y055319D01*
X068482Y055161*
X068508Y055201*
X068526Y055240*
X068536Y055281*
X068540Y055321*
X068536Y055363*
X068525Y055404*
X068507Y055447*
X068481Y055489*
X068448Y055533*
X068407Y055576*
X068758Y055792*
G37*
G36*
X065390Y055697D02*
X065339Y055644D01*
X065249Y055536*
X065208Y055481*
X065138Y055368*
X065108Y055310*
X065082Y055252*
X065058Y055192*
X065039Y055132*
X064646Y055875*
X064699Y055860*
X064752Y055852*
X064803Y055850*
X064852Y055853*
X064901Y055862*
X064948Y055878*
X064994Y055899*
X065039Y055926*
X065083Y055959*
X065126Y055998*
X065390Y055697*
G37*
G36*
X036816Y030444D02*
X036863Y030401D01*
X036915Y030363*
X036971Y030329*
X037033Y030300*
X037098Y030276*
X037169Y030256*
X037244Y030241*
X037323Y030230*
X037407Y030224*
X037496Y030223*
X036754Y029481*
X036752Y029569*
X036746Y029653*
X036736Y029733*
X036720Y029808*
X036701Y029878*
X036676Y029944*
X036647Y030005*
X036614Y030062*
X036576Y030114*
X036533Y030161*
X036816Y030444*
G37*
G36*
X033793Y029673D02*
X033863Y029676D01*
X033930Y029685*
X033995Y029699*
X034059Y029719*
X034120Y029746*
X034179Y029777*
X034236Y029815*
X034292Y029859*
X034345Y029908*
X034396Y029963*
Y028983*
X034345Y029038*
X034292Y029087*
X034236Y029131*
X034179Y029169*
X034120Y029201*
X034059Y029227*
X033995Y029247*
X033930Y029261*
X033863Y029270*
X033793Y029273*
Y029673*
G37*
G36*
X074721Y054869D02*
X075204Y055371D01*
X075337Y054585*
X075300Y054611*
X075262Y054630*
X075223Y054641*
X075183Y054645*
X075143Y054641*
X075102Y054631*
X075060Y054612*
X075018Y054586*
X074975Y054553*
X074931Y054513*
X074721Y054869*
G37*
G36*
X080227Y054257D02*
X080186Y054295D01*
X080143Y054329*
X080097Y054358*
X080050Y054384*
X080000Y054406*
X079948Y054423*
X079895Y054437*
X079838Y054446*
X079780Y054452*
X079719Y054453*
X080313Y055047*
X080315Y054987*
X080320Y054928*
X080330Y054872*
X080343Y054818*
X080361Y054766*
X080383Y054717*
X080408Y054669*
X080438Y054624*
X080472Y054581*
X080509Y054540*
X080227Y054257*
G37*
G36*
X070165Y045703D02*
X070108Y045701D01*
X070054Y045693*
X070002Y045681*
X069952Y045664*
X069905Y045642*
X069860Y045616*
X069818Y045584*
X069778Y045548*
X069741Y045506*
X069706Y045460*
X069566Y046289*
X069617Y046253*
X069669Y046222*
X069721Y046194*
X069773Y046170*
X069826Y046149*
X069878Y046133*
X069932Y046120*
X069985Y046111*
X070039Y046105*
X070093Y046103*
X070165Y045703*
G37*
G36*
X067727Y054257D02*
X067686Y054295D01*
X067643Y054329*
X067597Y054358*
X067550Y054384*
X067500Y054406*
X067448Y054423*
X067395Y054437*
X067338Y054446*
X067280Y054452*
X067219Y054453*
X067813Y055047*
X067815Y054987*
X067820Y054928*
X067830Y054872*
X067843Y054818*
X067861Y054766*
X067883Y054717*
X067908Y054669*
X067938Y054624*
X067972Y054581*
X068009Y054540*
X067727Y054257*
G37*
G36*
X070165Y022453D02*
X070108Y022451D01*
X070054Y022443*
X070002Y022431*
X069952Y022414*
X069905Y022392*
X069860Y022366*
X069818Y022334*
X069778Y022298*
X069741Y022257*
X069706Y022210*
X069566Y023039*
X069617Y023003*
X069669Y022972*
X069721Y022944*
X069773Y022920*
X069826Y022899*
X069878Y022883*
X069932Y022870*
X069985Y022861*
X070039Y022855*
X070093Y022853*
X070165Y022453*
G37*
G36*
X080227Y031007D02*
X080186Y031045D01*
X080143Y031079*
X080097Y031108*
X080050Y031134*
X080000Y031156*
X079948Y031173*
X079895Y031187*
X079838Y031196*
X079780Y031202*
X079719Y031203*
X080313Y031797*
X080315Y031737*
X080320Y031678*
X080330Y031622*
X080343Y031568*
X080361Y031516*
X080383Y031467*
X080408Y031419*
X080438Y031374*
X080472Y031331*
X080509Y031290*
X080227Y031007*
G37*
G36*
X074721Y031619D02*
X075204Y032121D01*
X075337Y031335*
X075300Y031361*
X075262Y031380*
X075223Y031391*
X075183Y031395*
X075143Y031391*
X075102Y031381*
X075060Y031362*
X075018Y031336*
X074975Y031303*
X074931Y031263*
X074721Y031619*
G37*
G36*
X087072Y019662D02*
X087036Y019695D01*
X087000Y019723*
X086965Y019746*
X086929Y019763*
X086894Y019776*
X086858Y019783*
X086823Y019785*
X086787Y019782*
X086752Y019773*
X086717Y019759*
X087056Y020400*
X087064Y020362*
X087076Y020324*
X087092Y020284*
X087112Y020244*
X087136Y020203*
X087164Y020161*
X087195Y020118*
X087271Y020030*
X087315Y019985*
X087072Y019662*
G37*
G36*
X069056Y031178D02*
X068747Y031278D01*
X068623Y031992*
X069183Y031617*
X069056Y031178*
G37*
G36*
X106139Y042353D02*
X106084Y042351D01*
X106029Y042344*
X105976Y042333*
X105924Y042318*
X105874Y042298*
X105825Y042274*
X105777Y042245*
X105731Y042212*
X105686Y042175*
X105642Y042133*
Y042973*
X105686Y042931*
X105731Y042894*
X105777Y042861*
X105825Y042832*
X105874Y042808*
X105924Y042788*
X105976Y042773*
X106029Y042762*
X106084Y042755*
X106139Y042753*
Y042353*
G37*
G36*
X038191Y045752D02*
X038144Y045795D01*
X038092Y045833*
X038036Y045867*
X037974Y045896*
X037909Y045920*
X037838Y045940*
X037763Y045955*
X037684Y045966*
X037600Y045972*
X037511Y045973*
X038253Y046716*
X038255Y046627*
X038261Y046543*
X038271Y046463*
X038287Y046388*
X038306Y046318*
X038331Y046252*
X038360Y046191*
X038393Y046135*
X038431Y046083*
X038474Y046035*
X038191Y045752*
G37*
G36*
X035934Y047411D02*
X035891Y047364D01*
X035853Y047312*
X035820Y047255*
X035791Y047194*
X035766Y047128*
X035747Y047058*
X035731Y046983*
X035721Y046903*
X035715Y046819*
X035713Y046731*
X034971Y047473*
X035060Y047474*
X035144Y047480*
X035223Y047491*
X035298Y047506*
X035369Y047526*
X035434Y047550*
X035496Y047579*
X035552Y047613*
X035604Y047651*
X035651Y047694*
X035934Y047411*
G37*
G36*
X038503Y049063D02*
X038452Y049062D01*
X038362Y049055*
X038324Y049048*
X038291Y049040*
X038262Y049030*
X038239Y049018*
X038219Y049004*
X038205Y048989*
X038194Y048971*
Y049555*
X038205Y049537*
X038219Y049522*
X038239Y049508*
X038262Y049496*
X038291Y049486*
X038324Y049478*
X038362Y049471*
X038405Y049467*
X038503Y049463*
Y049063*
G37*
G36*
X035934Y049951D02*
X035891Y049904D01*
X035853Y049852*
X035820Y049795*
X035791Y049734*
X035766Y049668*
X035747Y049598*
X035731Y049523*
X035721Y049443*
X035715Y049359*
X035713Y049271*
X034971Y050013*
X035060Y050014*
X035144Y050020*
X035223Y050031*
X035298Y050046*
X035369Y050066*
X035434Y050090*
X035496Y050119*
X035552Y050153*
X035604Y050191*
X035651Y050234*
X035934Y049951*
G37*
G36*
X047915Y035876D02*
X048610Y035867D01*
X048114Y035262*
X048109Y035306*
X048099Y035346*
X048083Y035381*
X048060Y035411*
X048031Y035437*
X047996Y035458*
X047955Y035474*
X047908Y035486*
X047854Y035493*
X047795Y035495*
X047915Y035876*
G37*
G36*
X053431Y046532D02*
X053433Y046477D01*
X053440Y046424*
X053451Y046371*
X053467Y046319*
X053488Y046269*
X053513Y046219*
X053543Y046171*
X053577Y046123*
X053617Y046077*
X053660Y046031*
X052820*
X052864Y046077*
X052903Y046123*
X052937Y046171*
X052967Y046219*
X052992Y046269*
X053013Y046319*
X053029Y046371*
X053040Y046424*
X053047Y046477*
X053050Y046532*
X053431*
G37*
G36*
X055568Y046549D02*
X055534Y046514D01*
X055468Y046434*
X055437Y046390*
X055376Y046294*
X055348Y046242*
X055266Y046070*
X054958Y046851*
X055009Y046831*
X055059Y046818*
X055108Y046811*
X055156Y046811*
X055203Y046817*
X055250Y046830*
X055295Y046849*
X055339Y046875*
X055383Y046907*
X055425Y046946*
X055568Y046549*
G37*
G36*
X047795Y036511D02*
X047854Y036513D01*
X047908Y036520*
X047955Y036532*
X047996Y036548*
X048031Y036569*
X048060Y036595*
X048083Y036626*
X048099Y036661*
X048109Y036700*
X048114Y036745*
X048610Y036139*
X047915Y036130*
X047795Y036511*
G37*
G36*
X062438Y025807D02*
X063198Y025818D01*
Y025288*
X063189Y025290*
X063164Y025292*
X062919Y025297*
X062438Y025299*
Y025807*
G37*
G36*
X053171D02*
Y025299D01*
X053123Y025297*
X053080Y025289*
X053042Y025276*
X053009Y025258*
X052981Y025236*
X052958Y025208*
X052940Y025175*
X052928Y025137*
X052920Y025093*
X052917Y025045*
X052409Y025553*
X052917Y026061*
X052920Y026013*
X052928Y025970*
X052940Y025932*
X052958Y025899*
X052981Y025871*
X053009Y025848*
X053042Y025830*
X053080Y025817*
X053123Y025810*
X053171Y025807*
G37*
G36*
X035993Y052550D02*
X035914Y052467D01*
X035788Y052320*
X035743Y052255*
X035709Y052195*
X035686Y052142*
X035674Y052094*
X035674Y052051*
X035685Y052015*
X035707Y051984*
X035145Y052547*
X035175Y052524*
X035212Y052513*
X035254Y052514*
X035302Y052525*
X035356Y052548*
X035415Y052583*
X035480Y052628*
X035551Y052685*
X035710Y052833*
X035993Y052550*
G37*
G36*
X062563Y054877D02*
X062561Y054933D01*
X062555Y054987*
X062544Y055040*
X062528Y055092*
X062508Y055142*
X062484Y055192*
X062456Y055239*
X062423Y055286*
X062385Y055331*
X062343Y055375*
X063183*
X063142Y055331*
X063104Y055286*
X063071Y055239*
X063043Y055192*
X063019Y055142*
X062999Y055092*
X062983Y055040*
X062972Y054987*
X062966Y054933*
X062963Y054877*
X062563*
G37*
G36*
X064008Y053042D02*
X064520Y052569D01*
X063732Y052411*
X063758Y052451*
X063776Y052490*
X063786Y052531*
X063790Y052571*
X063786Y052613*
X063775Y052654*
X063757Y052697*
X063731Y052739*
X063698Y052783*
X063657Y052826*
X064008Y053042*
G37*
G36*
X038676Y024193D02*
X038613Y024190D01*
X038549Y024180*
X038485Y024164*
X038421Y024141*
X038358Y024112*
X038294Y024076*
X038230Y024034*
X038167Y023985*
X038103Y023930*
X038039Y023868*
Y024918*
X038103Y024856*
X038167Y024801*
X038230Y024752*
X038294Y024710*
X038358Y024674*
X038421Y024645*
X038485Y024622*
X038549Y024606*
X038613Y024596*
X038676Y024593*
Y024193*
G37*
G36*
X041513Y027127D02*
X041511Y027183D01*
X041505Y027237*
X041494Y027290*
X041478Y027342*
X041458Y027392*
X041434Y027442*
X041406Y027489*
X041373Y027536*
X041335Y027581*
X041293Y027625*
X042133Y027625*
X042092Y027581*
X042054Y027536*
X042021Y027489*
X041993Y027442*
X041968Y027392*
X041949Y027342*
X041933Y027290*
X041922Y027237*
X041916Y027183*
X041913Y027127*
X041513*
G37*
G36*
X046139Y044353D02*
X046084Y044351D01*
X046029Y044344*
X045976Y044333*
X045924Y044318*
X045874Y044298*
X045825Y044274*
X045777Y044245*
X045731Y044212*
X045686Y044175*
X045642Y044133*
Y044973*
X045686Y044931*
X045731Y044894*
X045777Y044861*
X045825Y044832*
X045874Y044808*
X045924Y044788*
X045976Y044773*
X046029Y044762*
X046084Y044755*
X046139Y044753*
Y044353*
G37*
G36*
X035934Y025081D02*
X035891Y025034D01*
X035853Y024982*
X035820Y024925*
X035791Y024864*
X035766Y024798*
X035747Y024728*
X035731Y024653*
X035721Y024573*
X035715Y024489*
X035713Y024401*
X034971Y025143*
X035060Y025144*
X035144Y025150*
X035223Y025161*
X035298Y025176*
X035369Y025196*
X035434Y025220*
X035496Y025249*
X035552Y025283*
X035604Y025321*
X035651Y025364*
X035934Y025081*
G37*
G36*
X035592Y023392D02*
X035546Y023434D01*
X035495Y023472*
X035438Y023506*
X035378Y023537*
X035312Y023564*
X035241Y023588*
X035165Y023608*
X035084Y023624*
X034998Y023636*
X034907Y023645*
X035710Y024322*
X035704Y024236*
X035704Y024154*
X035710Y024076*
X035720Y024003*
X035736Y023934*
X035758Y023868*
X035785Y023808*
X035818Y023751*
X035856Y023698*
X035900Y023650*
X035592Y023392*
G37*
G36*
X041171Y022249D02*
X041109Y022247D01*
X041052Y022241*
X040999Y022231*
X040951Y022217*
X040907Y022199*
X040868Y022177*
X040834Y022152*
X040804Y022122*
X040778Y022088*
X040757Y022050*
X040477Y022842*
X040514Y022826*
X040552Y022811*
X040594Y022799*
X040639Y022788*
X040736Y022771*
X040789Y022765*
X040966Y022757*
X041171Y022249*
G37*
G36*
X074213Y047958D02*
X074721Y047704D01*
X074673Y047702*
X074630Y047694*
X074592Y047681*
X074559Y047663*
X074531Y047641*
X074508Y047613*
X074490Y047580*
X074478Y047542*
X074470Y047498*
X074467Y047450*
X074213Y047958*
G37*
G36*
X111213Y045003D02*
Y043553D01*
X111251*
X111254Y043549*
X111272Y043516*
X111375Y043391*
X111385Y043383*
X111392Y043373*
X111423Y043352*
X111452Y043328*
X111464Y043324*
X111474Y043318*
X111511Y043310*
X111548Y043299*
X111560Y043301*
X111572Y043298*
X111714*
X111811Y043318*
X111894Y043373*
X111949Y043456*
X111968Y043553*
X119213*
Y032803*
X111213*
Y032368*
X111096Y032319*
X111088Y032328*
X110939Y032427*
X110763Y032462*
X110463*
X110288Y032427*
X110139Y032328*
X110040Y032179*
X110005Y032003*
X110040Y031828*
X110139Y031679*
X110288Y031579*
X110463Y031544*
X110573*
X110672Y031445*
X110624Y031328*
X109739*
X109718Y031332*
X109713Y031353*
Y032678*
X109706Y032715*
X109702Y032753*
X109696Y032764*
X109694Y032776*
X109673Y032807*
X109655Y032841*
X109552Y032966*
X109542Y032973*
X109535Y032983*
X109504Y033004*
X109475Y033028*
X109463Y033032*
X109453Y033039*
X109416Y033046*
X109379Y033057*
X109367Y033056*
X109355Y033058*
X108333*
X108320Y033056*
X108308Y033057*
X108272Y033046*
X108235Y033039*
X108225Y033032*
X108212Y033028*
X108183Y033004*
X108152Y032983*
X108145Y032973*
X108136Y032965*
X108118Y032932*
X108097Y032901*
X108095Y032888*
X108089Y032877*
X108066Y032803*
X106362*
X106213Y032952*
Y042094*
X106389Y042129*
X106538Y042229*
X106904Y042594*
X108463*
X108639Y042629*
X108788Y042729*
X109954Y043894*
X110463*
X110639Y043929*
X110788Y044029*
X110887Y044178*
X110922Y044353*
X110887Y044529*
X110788Y044678*
X110639Y044777*
X110463Y044812*
X109763*
X109713Y044853*
Y045003*
X109718Y045024*
X109739Y045028*
X111097*
X111213Y045003*
G37*
G36*
X094478Y043456D02*
X094533Y043373D01*
X094616Y043318*
X094713Y043298*
X104580*
X104623Y043171*
X104607Y043159*
X104471Y042982*
X104385Y042775*
X104356Y042553*
X104385Y042331*
X104471Y042124*
X104607Y041947*
X104785Y041811*
X104992Y041725*
X105213Y041696*
X105435Y041725*
X105642Y041811*
X105820Y041947*
X105940Y041919*
X105959Y041905*
Y038648*
X105832Y038629*
X105802Y038728*
X105639Y039032*
X105420Y039299*
X105153Y039519*
X104848Y039681*
X104673Y039734*
Y038053*
Y036372*
X104848Y036425*
X105153Y036588*
X105420Y036807*
X105639Y037074*
X105802Y037379*
X105832Y037477*
X105959Y037458*
Y033437*
X105832Y033394*
X105820Y033409*
X105642Y033546*
X105435Y033631*
X105213Y033660*
X104992Y033631*
X104785Y033546*
X104607Y033409*
X104471Y033232*
X104396Y033051*
X104389Y033051*
X104356Y033058*
X096833*
X096820Y033056*
X096808Y033057*
X096772Y033046*
X096735Y033039*
X096725Y033032*
X096712Y033028*
X096683Y033004*
X096652Y032983*
X096645Y032973*
X096636Y032965*
X096618Y032932*
X096597Y032901*
X096595Y032888*
X096589Y032877*
X096566Y032803*
X094862*
X094696Y032969*
X094522Y033152*
X094465Y033219*
X094458Y033228*
X094456Y033232*
X094442Y033250*
X094441Y033251*
X094441Y033251*
X094320Y033409*
X094142Y033546*
X093935Y033631*
X093713Y033660*
X093492Y033631*
X093285Y033546*
X093107Y033409*
X092971Y033232*
X092885Y033025*
X092856Y032803*
X087213*
Y043553*
X094459*
X094478Y043456*
G37*
G36*
X036772Y032782D02*
X036783Y032717D01*
X036630Y032517*
X036529Y032274*
X036495Y032013*
X036529Y031752*
X036630Y031509*
X036790Y031300*
X036999Y031140*
X037242Y031039*
X037503Y031004*
X037765Y031039*
X038008Y031140*
X038217Y031300*
X038233Y031321*
X038275Y031362*
X038328Y031407*
X038378Y031446*
X038427Y031478*
X038473Y031504*
X038518Y031525*
X038560Y031540*
X038600Y031550*
X038628Y031554*
X039544*
X040945Y030154*
X041094Y030054*
X041269Y030019*
X045219*
X045395Y030054*
X045544Y030154*
X045723Y030333*
X045759Y030309*
X045963Y030268*
X047163*
X047368Y030309*
X047542Y030425*
X047658Y030598*
X047699Y030803*
X047658Y031008*
X047542Y031182*
Y031225*
X047658Y031398*
X047699Y031603*
X047671Y031741*
X047759Y031868*
X048726*
X048857Y031697*
X049035Y031561*
X049242Y031475*
X049463Y031446*
X049685Y031475*
X049892Y031561*
X050070Y031697*
X050092Y031698*
X051375Y030414*
X051334Y030277*
X051207Y030251*
X051032Y030134*
X050913Y030185*
X050818Y030248*
X050613Y030288*
X050409Y030248*
X050235Y030132*
X050192*
X050018Y030248*
X049813Y030288*
X049609Y030248*
X049435Y030132*
X049392*
X049218Y030248*
X049013Y030288*
X048809Y030248*
X048635Y030132*
X048592*
X048418Y030248*
X048213Y030288*
X048009Y030248*
X047835Y030132*
X047719Y029958*
X047678Y029753*
Y028553*
X047719Y028348*
X047755Y028295*
Y028243*
X044363Y024852*
X038628*
X038600Y024856*
X038560Y024866*
X038518Y024881*
X038473Y024902*
X038427Y024928*
X038378Y024960*
X038328Y024999*
X038318Y025007*
X038365Y025134*
X040753*
X040929Y025169*
X041078Y025269*
X041582Y025773*
X042113*
X042211Y025793*
X042294Y025848*
X042349Y025931*
X042368Y026028*
Y027078*
X042349Y027176*
X042294Y027258*
X042286Y027285*
X042282Y027410*
X042287Y027416*
X042307Y027437*
X042320Y027447*
X042456Y027624*
X042542Y027831*
X042571Y028053*
X042542Y028275*
X042456Y028482*
X042320Y028659*
X042142Y028796*
X041935Y028881*
X041713Y028910*
X041492Y028881*
X041285Y028796*
X041107Y028659*
X040971Y028482*
X040885Y028275*
X040856Y028053*
X040885Y027831*
X040971Y027624*
X041107Y027447*
X041120Y027437*
X041140Y027416*
X041145Y027410*
X041141Y027285*
X041133Y027258*
X041078Y027176*
X041059Y027078*
Y026547*
X040563Y026052*
X038206*
X038163Y026179*
X038217Y026220*
X038377Y026429*
X038478Y026672*
X038512Y026933*
X038478Y027194*
X038377Y027437*
X038217Y027646*
X038008Y027807*
X037765Y027907*
X037503Y027942*
X037242Y027907*
X036999Y027807*
X036790Y027646*
X036630Y027437*
X036529Y027194*
X036495Y026933*
X036529Y026672*
X036630Y026429*
X036790Y026220*
X036844Y026179*
X036801Y026052*
X036163*
X035988Y026017*
X035839Y025918*
X035434Y025512*
X035411Y025496*
X035376Y025475*
X035335Y025455*
X035290Y025439*
X035238Y025424*
X035181Y025413*
X035118Y025404*
X035049Y025399*
X034990Y025398*
X034963Y025402*
X034702Y025367*
X034459Y025267*
X034250Y025106*
X034090Y024897*
X033989Y024654*
X033955Y024393*
X033989Y024132*
X034090Y023889*
X034250Y023680*
X034459Y023520*
X034702Y023419*
X034861Y023398*
X034883Y023392*
X034967Y023383*
X035041Y023373*
X035108Y023359*
X035168Y023343*
X035223Y023325*
X035271Y023305*
X035314Y023284*
X035351Y023261*
X035374Y023244*
X035889Y022729*
X036038Y022629*
X036213Y022594*
X038213*
X038389Y022629*
X038538Y022729*
X038904Y023094*
X039640*
X039683Y022967*
X039607Y022909*
X039471Y022732*
X039385Y022525*
X039356Y022303*
X039385Y022081*
X039471Y021874*
X039607Y021697*
X039785Y021561*
X039992Y021475*
X040213Y021446*
X040435Y021475*
X040642Y021561*
X040820Y021697*
X040956Y021874*
X040975Y021920*
X040981Y021927*
X040993Y021949*
X040997Y021954*
X041001Y021958*
X041008Y021963*
X041018Y021969*
X041035Y021976*
X041058Y021983*
X041089Y021989*
X041094Y021989*
X041484*
X041516Y021968*
X041613Y021948*
X042663*
X042761Y021968*
X042844Y022023*
X042899Y022106*
X042918Y022203*
Y022803*
X042899Y022901*
X042854Y022967*
X042873Y023035*
X042906Y023094*
X044713*
X044889Y023129*
X045038Y023229*
X049338Y027529*
X049437Y027677*
X049472Y027853*
Y028015*
X049584Y028075*
X049609Y028059*
X049813Y028018*
X050018Y028059*
X050192Y028175*
X050235*
X050409Y028059*
X050613Y028018*
X050818Y028059*
X050913Y028122*
X051032Y028172*
X051207Y028055*
X051286Y028039*
Y029153*
X051540*
Y028039*
X051577Y028046*
X051704Y027970*
Y027799*
X051716Y027738*
X051611Y027612*
X051340*
Y026803*
Y025994*
X051713*
X051813Y026014*
X051897Y026070*
X052030Y026041*
X052066Y026018*
X052150Y026001*
Y025333*
X052113*
X052016Y025314*
X051967Y025281*
X051913Y025317*
X051813Y025337*
X051190*
Y024303*
Y023269*
X051813*
X051913Y023289*
X051967Y023325*
X052016Y023293*
X052113Y023273*
X052350*
Y022583*
X052113*
X052016Y022564*
X051967Y022531*
X051913Y022567*
X051813Y022587*
X051190*
Y021553*
Y020519*
X051813*
X051913Y020539*
X051967Y020575*
X052016Y020543*
X052113Y020523*
X053613*
X053711Y020543*
X053794Y020598*
X053849Y020681*
X053868Y020778*
Y021599*
X055423*
X055449Y021604*
X056058*
X056156Y021624*
X056239Y021679*
X056262Y021714*
X056389Y021676*
Y020706*
X056001Y020317*
X049176*
X049143Y020350*
Y021278*
X049124Y021376*
X049069Y021458*
X048986Y021514*
X048888Y021533*
X047038*
X046941Y021514*
X046858Y021458*
X046803Y021376*
X046784Y021278*
Y019828*
X046803Y019731*
X046831Y019689*
X046777Y019564*
X046775Y019562*
X032222*
Y030250*
X032349Y030288*
X032389Y030229*
X033469Y029149*
X033618Y029049*
X033793Y029014*
X033854*
X033886Y029010*
X033929Y029001*
X033970Y028988*
X034009Y028971*
X034048Y028950*
X034087Y028924*
X034126Y028894*
X034164Y028858*
X034209Y028810*
X034213Y028807*
X034215Y028803*
X034219Y028800*
X034250Y028760*
X034459Y028600*
X034702Y028499*
X034963Y028464*
X035225Y028499*
X035468Y028600*
X035677Y028760*
X035837Y028969*
X035938Y029212*
X035972Y029473*
X035938Y029734*
X035837Y029977*
X035677Y030186*
X035628Y030224*
X035668Y030344*
X035983*
X036384Y029944*
X036401Y029921*
X036422Y029885*
X036441Y029845*
X036458Y029799*
X036472Y029748*
X036484Y029691*
X036492Y029628*
X036497Y029558*
X036498Y029499*
X036495Y029473*
X036529Y029212*
X036630Y028969*
X036790Y028760*
X036999Y028600*
X037242Y028499*
X037503Y028464*
X037765Y028499*
X038008Y028600*
X038217Y028760*
X038377Y028969*
X038478Y029212*
X038512Y029473*
X038478Y029734*
X038377Y029977*
X038217Y030186*
X038008Y030347*
X037765Y030447*
X037503Y030482*
X037477Y030478*
X037418Y030479*
X037349Y030484*
X037286Y030493*
X037229Y030504*
X037177Y030519*
X037132Y030535*
X037091Y030555*
X037056Y030576*
X037033Y030592*
X036498Y031128*
X036349Y031227*
X036173Y031262*
X035808*
X035745Y031389*
X035837Y031509*
X035938Y031752*
X035972Y032013*
X035969Y032039*
X035970Y032098*
X035975Y032168*
X035983Y032231*
X035995Y032288*
X036009Y032339*
X036026Y032385*
X036045Y032425*
X036066Y032461*
X036083Y032484*
X036444Y032844*
X036750*
X036772Y032782*
G37*
G36*
X105959Y049187D02*
X105832Y049144D01*
X105820Y049159*
X105642Y049296*
X105435Y049381*
X105213Y049410*
X104992Y049381*
X104785Y049296*
X104607Y049159*
X104471Y048982*
X104396Y048801*
X104389Y048801*
X104356Y048808*
X096833*
X096820Y048806*
X096808Y048807*
X096772Y048796*
X096735Y048789*
X096725Y048782*
X096712Y048778*
X096683Y048754*
X096652Y048733*
X096645Y048723*
X096636Y048715*
X096618Y048682*
X096597Y048651*
X096595Y048638*
X096589Y048627*
X096553Y048509*
X096504Y048519*
X095304*
X095090Y048476*
X095001Y048417*
X094999*
X094556Y048859*
X094548Y048870*
X094535Y048892*
X094526Y048911*
X094520Y048929*
X094517Y048947*
X094515Y048967*
X094516Y048989*
X094520Y049014*
X094531Y049055*
X094531Y049057*
X094542Y049081*
X094571Y049303*
X094542Y049525*
X094456Y049732*
X094320Y049909*
X094244Y049967*
X094287Y050094*
X105959*
Y049187*
G37*
G36*
X079347Y047771D02*
X079288Y047650D01*
X079213Y047660*
X078991Y047631*
X078785Y047545*
X078607Y047409*
X078471Y047232*
X078430Y047133*
X078394Y047119*
X078281Y047104*
X078128Y047206*
X077913Y047249*
X077063*
X076849Y047206*
X076760Y047147*
X076123*
X075948Y047112*
X075799Y047013*
X075570Y046783*
X074913*
X074854Y046771*
X074752Y046831*
X074727Y046857*
Y047444*
X076634*
X076666Y047423*
X076763Y047403*
X078213*
X078311Y047423*
X078394Y047478*
X078449Y047561*
X078468Y047658*
Y048258*
X078498Y048294*
X078823*
X079347Y047771*
G37*
G36*
X042477Y056417D02*
X042466Y056401D01*
X042447Y056303*
Y053303*
X042466Y053206*
X042521Y053123*
X042604Y053068*
X042701Y053048*
X043005*
Y048558*
X042701*
X042604Y048539*
X042549Y048502*
X042451Y048536*
X042422Y048558*
Y050053*
X042387Y050229*
X042288Y050378*
X039288Y053378*
X039139Y053477*
X038963Y053512*
X036213*
X036038Y053477*
X035889Y053378*
X035455Y052943*
X035385Y052878*
X035327Y052832*
X035293Y052808*
X034213*
X034116Y052789*
X034033Y052733*
X033978Y052651*
X033959Y052553*
Y051053*
X033978Y050956*
X034033Y050873*
X034116Y050818*
X034213Y050798*
X035670*
X035726Y050683*
X035727Y050676*
X035434Y050382*
X035411Y050366*
X035376Y050345*
X035335Y050325*
X035290Y050309*
X035238Y050294*
X035181Y050283*
X035118Y050274*
X035049Y050269*
X034990Y050268*
X034963Y050272*
X034702Y050237*
X034459Y050137*
X034250Y049976*
X034090Y049767*
X033989Y049524*
X033955Y049263*
X033989Y049002*
X034090Y048759*
X034250Y048550*
X034459Y048390*
X034702Y048289*
X034963Y048254*
X035225Y048289*
X035468Y048390*
X035677Y048550*
X035837Y048759*
X035938Y049002*
X035972Y049263*
X035969Y049289*
X035970Y049348*
X035975Y049418*
X035983Y049481*
X035995Y049538*
X036009Y049589*
X036026Y049635*
X036045Y049675*
X036066Y049711*
X036083Y049734*
X036354Y050004*
X036652*
X036714Y049877*
X036630Y049767*
X036529Y049524*
X036495Y049263*
X036529Y049002*
X036630Y048759*
X036722Y048639*
X036659Y048512*
X036293*
X036118Y048477*
X035969Y048378*
X035434Y047842*
X035411Y047826*
X035376Y047805*
X035335Y047785*
X035290Y047769*
X035238Y047754*
X035181Y047743*
X035118Y047734*
X035049Y047729*
X034990Y047728*
X034963Y047732*
X034702Y047697*
X034459Y047597*
X034250Y047436*
X034090Y047227*
X033989Y046984*
X033955Y046723*
X033989Y046462*
X034090Y046219*
X034250Y046010*
X034459Y045850*
X034702Y045749*
X034963Y045714*
X035225Y045749*
X035468Y045850*
X035677Y046010*
X035837Y046219*
X035938Y046462*
X035972Y046723*
X035969Y046749*
X035970Y046808*
X035975Y046878*
X035983Y046941*
X035995Y046998*
X036009Y047049*
X036026Y047095*
X036045Y047135*
X036066Y047171*
X036083Y047194*
X036484Y047594*
X036799*
X036839Y047474*
X036790Y047436*
X036630Y047227*
X036529Y046984*
X036495Y046723*
X036529Y046462*
X036630Y046219*
X036790Y046010*
X036999Y045850*
X037242Y045749*
X037503Y045714*
X037530Y045718*
X037589Y045717*
X037658Y045712*
X037721Y045704*
X037778Y045692*
X037830Y045678*
X037875Y045661*
X037916Y045642*
X037951Y045620*
X037974Y045604*
X038355Y045223*
Y044203*
X038390Y044028*
X038489Y043879*
X042389Y039979*
X042538Y039879*
X042713Y039844*
X043733*
X045099Y038479*
X045248Y038379*
X045409Y038347*
X045464Y038271*
X045485Y038232*
X045469Y038208*
X045428Y038003*
X045469Y037798*
X045585Y037625*
Y037582*
X045469Y037408*
X045428Y037203*
X045469Y036998*
X045534Y036900*
X045576Y036803*
X045534Y036706*
X045469Y036608*
X045428Y036403*
X045469Y036198*
X045585Y036025*
Y035982*
X045469Y035808*
X045439Y035656*
X045308Y035608*
X043538Y037378*
X043389Y037477*
X043213Y037512*
X033463*
X033288Y037477*
X033139Y037378*
X032389Y036628*
X032349Y036568*
X032222Y036606*
Y056544*
X042409*
X042477Y056417*
G37*
G36*
X120205Y019562D02*
X084114D01*
X084075Y019689*
X084077Y019690*
X084926Y020539*
X085652*
X085849Y020578*
X086016Y020690*
X086615Y021289*
X086959*
Y020714*
X086978Y020616*
X087043Y020458*
X087045Y020444*
X087047Y020440*
X087047Y020437*
X087056Y020409*
X087056Y020400*
X087061Y020374*
X087066Y020363*
X087067Y020351*
X087073Y020334*
X087078Y020324*
X087080Y020314*
X087088Y020293*
X087093Y020285*
X087096Y020276*
X087108Y020252*
X087113Y020245*
X087116Y020237*
X087132Y020209*
X087137Y020204*
X087140Y020196*
X087160Y020167*
X087165Y020162*
X087168Y020155*
X087171Y020151*
X087185Y020138*
X087195Y020123*
X087219Y020107*
X087230Y020096*
X087233Y020095*
X087245Y020084*
X087262Y020078*
X087278Y020068*
X087309Y020061*
X087338Y020051*
X087357Y020052*
X087375Y020048*
X094213*
X094311Y020068*
X094394Y020123*
X094533*
X094616Y020068*
X094713Y020048*
X105713*
X105811Y020068*
X105894Y020123*
X106033*
X106116Y020068*
X106213Y020048*
X111565*
X111662Y020068*
X111745Y020123*
X111894Y020272*
X111949Y020354*
X111968Y020452*
Y030404*
X111949Y030502*
X111894Y030584*
X111225Y031253*
X111142Y031309*
X111045Y031328*
X109739*
X109718Y031332*
X109713Y031353*
Y032678*
X109706Y032715*
X109702Y032753*
X109696Y032764*
X109694Y032776*
X109673Y032807*
X109655Y032841*
X109552Y032966*
X109542Y032973*
X109535Y032983*
X109504Y033004*
X109475Y033028*
X109463Y033032*
X109453Y033039*
X109416Y033046*
X109379Y033057*
X109367Y033056*
X109355Y033058*
X108333*
X108320Y033056*
X108308Y033057*
X108272Y033046*
X108235Y033039*
X108225Y033032*
X108212Y033028*
X108183Y033004*
X108152Y032983*
X108145Y032973*
X108136Y032965*
X108118Y032932*
X108097Y032901*
X108095Y032888*
X108089Y032877*
X108053Y032759*
X108004Y032769*
X106804*
X106590Y032726*
X106501Y032667*
X106499*
X106196Y032969*
X106089Y033082*
X106088Y033083*
X106084Y033098*
X106087Y033158*
X106115Y033238*
X106115Y033238*
X106127Y033245*
X106132Y033252*
X106139Y033257*
X106162Y033291*
X106187Y033324*
X106189Y033332*
X106194Y033339*
X106202Y033380*
X106213Y033420*
X106212Y033429*
X106213Y033437*
Y037458*
X106207Y037489*
X106206Y037520*
X106198Y037537*
X106194Y037555*
X106177Y037581*
X106163Y037610*
X106149Y037622*
X106139Y037638*
X106113Y037656*
X106090Y037677*
X106072Y037683*
X106056Y037693*
X106025Y037700*
X105996Y037710*
X105900Y037724*
X105932Y038053*
X105900Y038382*
X105996Y038396*
X106025Y038407*
X106056Y038413*
X106072Y038423*
X106090Y038430*
X106113Y038451*
X106139Y038468*
X106149Y038484*
X106163Y038496*
X106177Y038525*
X106194Y038551*
X106198Y038569*
X106206Y038586*
X106207Y038618*
X106213Y038648*
Y041905*
X106210Y041921*
X106211Y041938*
X106201Y041970*
X106194Y042003*
X106185Y042016*
X106179Y042032*
X106157Y042057*
X106139Y042085*
X106125Y042095*
X106114Y042107*
X106096Y042121*
X106091Y042123*
X106088Y042127*
X106047Y042145*
X106006Y042165*
X106002Y042166*
X105998Y042167*
X105877Y042195*
X105865Y042196*
X105853Y042200*
X105815Y042197*
X105778Y042198*
X105766Y042194*
X105754Y042193*
X105720Y042176*
X105685Y042163*
X105676Y042155*
X105665Y042149*
X105514Y042033*
X105369Y041973*
X105213Y041953*
X105058Y041973*
X104913Y042033*
X104789Y042129*
X104694Y042253*
X104634Y042398*
X104613Y042553*
X104634Y042708*
X104694Y042853*
X104790Y042979*
X104791Y042980*
X104816Y043013*
X104843Y043044*
X104846Y043052*
X104851Y043058*
X104862Y043099*
X104875Y043138*
X104875Y043146*
X104877Y043155*
X104875Y043171*
X104908Y043234*
X104958Y043286*
X104980Y043298*
X105713*
X105811Y043318*
X105894Y043373*
X106033*
X106116Y043318*
X106213Y043298*
X108315*
X108412Y043318*
X108495Y043373*
X109619Y044497*
X109639Y044510*
X109653Y044531*
X109671Y044549*
X109680Y044572*
X109694Y044593*
X109699Y044618*
X109709Y044641*
Y044666*
X109713Y044691*
Y045003*
X109718Y045024*
X109739Y045028*
X111188*
X111209Y045024*
X111213Y045003*
Y043678*
X111221Y043641*
X111225Y043603*
X111231Y043592*
X111233Y043581*
X111254Y043549*
X111272Y043516*
X111375Y043391*
X111385Y043383*
X111392Y043373*
X111423Y043352*
X111452Y043328*
X111464Y043324*
X111474Y043318*
X111511Y043310*
X111548Y043299*
X111560Y043301*
X111572Y043298*
X111714*
X111811Y043318*
X111894Y043373*
X111949Y043456*
X111968Y043553*
Y056053*
X111949Y056151*
X111894Y056233*
X111811Y056289*
X111714Y056308*
X108333*
X108320Y056306*
X108308Y056307*
X108272Y056296*
X108235Y056289*
X108225Y056282*
X108212Y056278*
X108183Y056254*
X108152Y056233*
X108145Y056223*
X108136Y056215*
X108118Y056182*
X108097Y056151*
X108095Y056138*
X108089Y056127*
X108053Y056009*
X108004Y056019*
X106804*
X106590Y055976*
X106501Y055917*
X106499*
X106196Y056219*
X106022Y056402*
X106008Y056417*
X106067Y056544*
X120205*
Y019562*
G37*
G36*
X041505Y049863D02*
Y048577D01*
X041387Y048528*
X039128Y050788*
X038979Y050887*
X038803Y050922*
X038213*
X038170Y051049*
X038220Y051087*
X038380Y051297*
X038482Y051541*
X038499Y051676*
X037503*
Y051930*
X038499*
X038482Y052065*
X038380Y052309*
X038259Y052467*
X038322Y052594*
X038773*
X041505Y049863*
G37*
G36*
X104444Y056417D02*
X104396Y056301D01*
X104389Y056301*
X104356Y056308*
X096833*
X096820Y056306*
X096808Y056307*
X096772Y056296*
X096735Y056289*
X096725Y056282*
X096712Y056278*
X096683Y056254*
X096652Y056233*
X096645Y056223*
X096636Y056215*
X096618Y056182*
X096597Y056151*
X096595Y056138*
X096589Y056127*
X096553Y056009*
X096504Y056019*
X095304*
X095090Y055976*
X095001Y055917*
X094999*
X094696Y056219*
X094522Y056402*
X094508Y056417*
X094567Y056544*
X104368*
X104444Y056417*
G37*
G36*
X071916Y048835D02*
X071853Y048708D01*
X070439*
X070341Y048689*
X070258Y048633*
X070203Y048551*
X070184Y048453*
Y046953*
X070203Y046856*
X070236Y046807*
X070199Y046752*
X070180Y046653*
Y046030*
X071213*
Y045903*
X071340*
Y044894*
X071988*
X072088Y044914*
X072172Y044970*
X072228Y045054*
X072247Y045153*
Y045492*
X072374Y045577*
X072413Y045569*
X072836*
Y046328*
X073090*
Y045569*
X073513*
X073573Y045581*
X073676Y045520*
X073700Y045494*
Y044053*
X073739Y043856*
X073850Y043690*
X074600Y042940*
X074767Y042828*
X074963Y042789*
X086959*
Y038817*
X086618*
Y038828*
X086599Y038926*
X086544Y039008*
X086461Y039064*
X086363Y039083*
X085563*
X085466Y039064*
X085383Y039008*
X085328Y038926*
X085309Y038828*
Y037778*
X085328Y037681*
X085383Y037598*
X085466Y037543*
X085563Y037523*
X086363*
X086461Y037543*
X086544Y037598*
X086599Y037681*
X086618Y037778*
Y037789*
X086959*
Y033481*
X079316*
X079120Y033442*
X078953Y033330*
X078301Y032678*
X078270Y032699*
X078172Y032718*
X077337*
X076784Y033270*
X076618Y033382*
X076421Y033421*
X074342*
X074146Y033382*
X073979Y033270*
X073492Y032783*
X072914*
X072816Y032764*
X072733Y032708*
X072678Y032626*
X072659Y032528*
Y032467*
X072243*
Y032703*
X072224Y032801*
X072169Y032883*
X072086Y032939*
X071988Y032958*
X070439*
X070341Y032939*
X070258Y032883*
X070203Y032801*
X070184Y032703*
Y031203*
X070203Y031106*
X070236Y031057*
X070199Y031002*
X070180Y030903*
Y030280*
X071213*
X072247*
Y030903*
X072228Y031002*
X072191Y031057*
X072224Y031106*
X072243Y031203*
Y031439*
X072676*
X072678Y031431*
X072702Y031395*
X072730Y031261*
X072674Y031177*
X072655Y031078*
Y030705*
X073463*
X074272*
Y031078*
X074253Y031177*
X074197Y031261*
X074225Y031395*
X074249Y031431*
X074268Y031528*
Y032106*
X074555Y032393*
X076208*
X076468Y032134*
Y031863*
X076487Y031766*
X076542Y031683*
X076625Y031628*
X076722Y031608*
X078172*
X078270Y031628*
X078302Y031649*
X078573*
X078770Y031688*
X078937Y031800*
X078973Y031836*
X079084Y032002*
X079086Y032010*
X079529Y032453*
X081864*
X081944Y032326*
X081912Y032163*
X081954Y031948*
X082076Y031767*
X082258Y031645*
X082472Y031602*
X083322*
X083537Y031645*
X083626Y031704*
X083663*
X084049Y031319*
X084198Y031219*
X084373Y031184*
X085815*
X085829Y031182*
X085857Y031176*
X085882Y031167*
X085906Y031156*
X085929Y031143*
X085951Y031127*
X085974Y031106*
X085997Y031082*
X086026Y031045*
X086043Y031030*
X086107Y030947*
X086285Y030810*
X086491Y030725*
X086713Y030696*
X086832Y030711*
X086959Y030603*
Y026944*
X086961Y026932*
X086960Y026919*
X086939Y026888*
X086799Y026867*
X086088Y027578*
X085939Y027677*
X085763Y027712*
X085608*
X085594Y027733*
X085511Y027789*
X085413Y027808*
X084611*
X084530Y027906*
X084531Y027912*
Y028944*
X084496Y029120*
X084397Y029269*
X083844Y029822*
X083841Y029838*
X083719Y030020*
X083537Y030141*
X083322Y030184*
X082472*
X082258Y030141*
X082076Y030020*
X081954Y029838*
X081912Y029623*
X081954Y029408*
X082076Y029227*
X082258Y029105*
X082472Y029062*
X083202*
X083216Y029041*
X083147Y028914*
X082472*
X082258Y028871*
X082169Y028812*
X082013*
X081838Y028777*
X081742Y028713*
X081654Y028807*
X081706Y028874*
X081792Y029081*
X081821Y029303*
X081792Y029525*
X081706Y029732*
X081570Y029909*
X081392Y030046*
X081185Y030131*
X080963Y030160*
X080742Y030131*
X080535Y030046*
X080428Y029963*
X080292Y030020*
X080292Y030025*
X080206Y030232*
X080070Y030409*
X079892Y030546*
X079685Y030631*
X079463Y030660*
X079242Y030631*
X079035Y030546*
X078857Y030409*
X078721Y030232*
X078710Y030204*
X078707Y030202*
X078687Y030165*
X078672Y030144*
X078657Y030128*
X078643Y030116*
X078628Y030106*
X078611Y030097*
X078591Y030090*
X078567Y030084*
X078554Y030082*
X078176*
X078087Y030141*
X077872Y030184*
X077022*
X076808Y030141*
X076626Y030020*
X076504Y029838*
X076462Y029623*
X076504Y029408*
X076626Y029227*
X076808Y029105*
X077022Y029062*
X077872*
X078087Y029105*
X078172Y029162*
X078262Y029144*
X078298Y029017*
X078239Y028978*
X078114Y028853*
X078087Y028871*
X077872Y028914*
X077022*
X076808Y028871*
X076719Y028812*
X076268*
Y029328*
X076249Y029426*
X076194Y029508*
Y029598*
X076249Y029681*
X076268Y029778*
Y030224*
X076478Y030434*
X076719*
X076808Y030375*
X077022Y030332*
X077872*
X078087Y030375*
X078269Y030497*
X078391Y030678*
X078433Y030893*
X078391Y031108*
X078269Y031290*
X078087Y031411*
X077872Y031454*
X077022*
X076808Y031411*
X076719Y031352*
X076288*
X076113Y031317*
X075964Y031218*
X075779Y031033*
X074913*
X074816Y031014*
X074733Y030958*
X074678Y030876*
X074659Y030778*
Y029778*
X074678Y029681*
X074733Y029598*
Y029508*
X074678Y029426*
X074659Y029328*
Y028436*
X074532Y028384*
X074038Y028878*
X073889Y028977*
X073714Y029012*
X067904*
X067422Y029493*
Y031863*
X068788Y033229*
X068887Y033378*
X068922Y033553*
Y037053*
X068887Y037229*
X068788Y037378*
X064038Y042128*
X063889Y042227*
X063713Y042262*
X060787*
X060744Y042389*
X060820Y042447*
X060956Y042624*
X061042Y042831*
X061071Y043053*
X061042Y043275*
X060956Y043482*
X060820Y043659*
X060807Y043669*
X060782Y043695*
X060757Y043726*
X060735Y043756*
X060717Y043787*
X060702Y043817*
X060690Y043847*
X060681Y043878*
X060674Y043910*
X060672Y043924*
Y044863*
X060877Y045067*
X060972Y044983*
X060971Y044982*
X060885Y044775*
X060856Y044553*
X060885Y044331*
X060971Y044124*
X061107Y043947*
X061285Y043811*
X061492Y043725*
X061713Y043696*
X061935Y043725*
X062142Y043811*
X062320Y043947*
X062330Y043960*
X062355Y043984*
X062386Y044010*
X062417Y044032*
X062447Y044050*
X062477Y044065*
X062508Y044077*
X062539Y044086*
X062571Y044093*
X062585Y044094*
X064963*
X065139Y044129*
X065288Y044229*
X069904Y048844*
X071909*
X071916Y048835*
G37*
G36*
X073876Y056417D02*
X073492Y056033D01*
X072914*
X072816Y056014*
X072733Y055958*
X072678Y055876*
X072659Y055778*
Y055717*
X072243*
Y055953*
X072224Y056051*
X072169Y056133*
X072086Y056189*
X071988Y056208*
X070439*
X070341Y056189*
X070258Y056133*
X070203Y056051*
X070184Y055953*
Y054453*
X070203Y054356*
X070236Y054307*
X070199Y054252*
X070180Y054153*
Y053530*
X071213*
X072247*
Y054153*
X072228Y054252*
X072191Y054307*
X072224Y054356*
X072243Y054453*
Y054689*
X072676*
X072678Y054681*
X072702Y054645*
X072730Y054511*
X072674Y054427*
X072655Y054328*
Y053955*
X073463*
X074272*
Y054328*
X074253Y054427*
X074197Y054511*
X074225Y054645*
X074249Y054681*
X074268Y054778*
Y055356*
X074555Y055643*
X076208*
X076468Y055384*
Y055113*
X076487Y055016*
X076542Y054933*
X076625Y054878*
X076722Y054858*
X078172*
X078270Y054878*
X078302Y054899*
X078573*
X078770Y054938*
X078937Y055050*
X078973Y055086*
X079084Y055252*
X079086Y055260*
X079529Y055703*
X081864*
X081944Y055576*
X081912Y055413*
X081954Y055198*
X082076Y055017*
X082258Y054895*
X082472Y054852*
X083322*
X083537Y054895*
X083626Y054954*
X083663*
X084049Y054569*
X084198Y054469*
X084373Y054434*
X085815*
X085829Y054432*
X085857Y054426*
X085882Y054417*
X085906Y054406*
X085929Y054393*
X085951Y054377*
X085974Y054356*
X085997Y054332*
X086026Y054295*
X086043Y054280*
X086107Y054197*
X086285Y054060*
X086491Y053975*
X086713Y053946*
X086832Y053961*
X086959Y053853*
Y050194*
X086961Y050182*
X086960Y050169*
X086939Y050138*
X086799Y050117*
X086088Y050828*
X085939Y050927*
X085763Y050962*
X085608*
X085594Y050983*
X085511Y051039*
X085413Y051058*
X084611*
X084530Y051156*
X084531Y051162*
Y052194*
X084496Y052370*
X084397Y052519*
X083844Y053072*
X083841Y053088*
X083719Y053270*
X083537Y053391*
X083322Y053434*
X082472*
X082258Y053391*
X082076Y053270*
X081954Y053088*
X081912Y052873*
X081954Y052658*
X082076Y052477*
X082258Y052355*
X082472Y052312*
X083202*
X083216Y052291*
X083147Y052164*
X082472*
X082258Y052121*
X082169Y052062*
X082013*
X081838Y052027*
X081742Y051963*
X081654Y052057*
X081706Y052124*
X081792Y052331*
X081821Y052553*
X081792Y052775*
X081706Y052982*
X081570Y053159*
X081392Y053296*
X081185Y053381*
X080963Y053410*
X080742Y053381*
X080535Y053296*
X080428Y053213*
X080292Y053270*
X080292Y053275*
X080206Y053482*
X080070Y053659*
X079892Y053796*
X079685Y053881*
X079463Y053910*
X079242Y053881*
X079035Y053796*
X078857Y053659*
X078721Y053482*
X078710Y053454*
X078707Y053452*
X078687Y053415*
X078672Y053394*
X078657Y053378*
X078643Y053366*
X078628Y053356*
X078611Y053347*
X078591Y053340*
X078567Y053334*
X078554Y053332*
X078176*
X078087Y053391*
X077872Y053434*
X077022*
X076808Y053391*
X076626Y053270*
X076504Y053088*
X076462Y052873*
X076504Y052658*
X076626Y052477*
X076808Y052355*
X077022Y052312*
X077872*
X078087Y052355*
X078172Y052412*
X078262Y052394*
X078298Y052267*
X078239Y052228*
X078114Y052103*
X078087Y052121*
X077872Y052164*
X077022*
X076808Y052121*
X076719Y052062*
X076268*
Y052578*
X076249Y052676*
X076194Y052758*
Y052848*
X076249Y052931*
X076268Y053028*
Y053474*
X076478Y053684*
X076719*
X076808Y053625*
X077022Y053582*
X077872*
X078087Y053625*
X078269Y053747*
X078391Y053928*
X078433Y054143*
X078391Y054358*
X078269Y054540*
X078087Y054661*
X077872Y054704*
X077022*
X076808Y054661*
X076719Y054602*
X076288*
X076113Y054567*
X075964Y054468*
X075779Y054283*
X074913*
X074816Y054264*
X074733Y054208*
X074678Y054126*
X074659Y054028*
Y053028*
X074678Y052931*
X074733Y052848*
Y052758*
X074678Y052676*
X074659Y052578*
Y051606*
X074592Y051563*
X074535Y051550*
X074057Y052028*
X073908Y052127*
X073733Y052162*
X068363*
X068188Y052127*
X068039Y052028*
X064023Y048012*
X061613*
X061581Y048065*
X061559Y048139*
X061603Y048204*
X061622Y048303*
Y049426*
X060363*
X059105*
Y048303*
X059124Y048204*
X059180Y048120*
X059264Y048064*
X059363Y048044*
X059910*
X059948Y047917*
X059889Y047878*
X058431Y046420*
X058311Y046479*
X058321Y046553*
X058292Y046775*
X058206Y046982*
X058070Y047159*
X057892Y047296*
X057685Y047381*
X057463Y047410*
X057242Y047381*
X057035Y047296*
X056857Y047159*
X056744Y047012*
X056713*
X056538Y046977*
X056465Y047081*
X057081Y047697*
X057178Y047843*
X057200Y047951*
X057213Y048015*
X057331Y048048*
X057813*
X057911Y048068*
X057994Y048123*
X058049Y048206*
X058068Y048303*
Y049508*
X058077Y049553*
Y050966*
X058038Y051162*
X057927Y051329*
X057931Y051354*
X058068Y051453*
X058114Y051444*
X058139*
X058163Y051439*
X058188Y051444*
X058213*
X058389Y051479*
X058481Y051517*
X058630Y051617*
X058700Y051687*
X058799Y051836*
X058837Y051928*
X058872Y052103*
Y052203*
X058837Y052378*
X058799Y052470*
X058700Y052619*
X058630Y052689*
X058481Y052789*
X058389Y052827*
X058213Y052862*
X058188*
X058163Y052867*
X058139Y052862*
X058114*
X057938Y052827*
X057846Y052789*
X057697Y052689*
X057627Y052619*
X057528Y052470*
X057490Y052378*
X057455Y052203*
Y052103*
X057485Y051951*
X057436Y051908*
X057372Y051884*
X057340Y051916*
X057173Y052028*
X056976Y052067*
X056319*
X056292Y052275*
X056206Y052482*
X056070Y052659*
X055892Y052796*
X055685Y052881*
X055463Y052910*
X055242Y052881*
X055035Y052796*
X054857Y052659*
X054721Y052482*
X054635Y052275*
X054606Y052053*
X054635Y051831*
X054721Y051624*
X054857Y051447*
X055035Y051311*
X055242Y051225*
X055463Y051196*
X055513Y051202*
X055537Y051180*
X055531Y051102*
X055521Y051072*
X055494Y051046*
X055413Y051062*
X055290*
Y049553*
X055036*
Y051062*
X054913*
X054814Y051042*
X054764Y051008*
X054713Y051042*
X054613Y051062*
X054491*
Y049553*
X054364*
Y049426*
X053855*
Y048303*
X053874Y048204*
X053930Y048120*
X053993Y048078*
X054003Y047986*
X053997Y047938*
X053896Y047871*
X052923Y046897*
X052825Y046752*
X052791Y046580*
Y046482*
X052789Y046467*
X052782Y046436*
X052773Y046406*
X052760Y046375*
X052745Y046344*
X052725Y046313*
X052702Y046280*
X052674Y046247*
X052647Y046219*
X052634Y046209*
X052498Y046032*
X052412Y045825*
X052383Y045603*
X052412Y045381*
X052498Y045174*
X052634Y044997*
X052811Y044860*
X053018Y044775*
X053240Y044746*
X053462Y044775*
X053669Y044860*
X053846Y044997*
X053983Y045174*
X054068Y045381*
X054090Y045549*
X054208Y045609*
X054221Y045609*
X054285Y045560*
X054491Y045475*
X054713Y045446*
X054787Y045455*
X054847Y045335*
X052565Y043053*
X052447Y043102*
Y043176*
X051689*
Y043303*
X051562*
Y044112*
X051189*
X051089Y044092*
X051005Y044036*
X050872Y044065*
X050836Y044089*
X050738Y044108*
X050586*
X050546Y044208*
X050544Y044235*
X051107Y044798*
X051763*
X051861Y044818*
X051944Y044873*
X051999Y044956*
X052018Y045053*
Y046053*
X051999Y046151*
X051975Y046186*
X051947Y046320*
X052003Y046404*
X052022Y046503*
Y046876*
X050405*
Y046503*
X050424Y046404*
X050480Y046320*
X050452Y046186*
X050428Y046151*
X050409Y046053*
Y045397*
X050023Y045012*
X048975*
X048943Y045065*
X048921Y045139*
X048965Y045204*
X048984Y045303*
Y046676*
X047963*
X046943*
Y045303*
X046962Y045204*
X047006Y045139*
X046984Y045065*
X046952Y045012*
X046085*
X046071Y045014*
X046039Y045020*
X046008Y045029*
X045977Y045041*
X045947Y045056*
X045917Y045074*
X045886Y045096*
X045855Y045122*
X045830Y045146*
X045820Y045159*
X045642Y045296*
X045435Y045381*
X045213Y045410*
X044992Y045381*
X044785Y045296*
X044607Y045159*
X044571Y045157*
X044568Y045158*
X044473Y045264*
X044480Y045303*
Y048303*
X044461Y048401*
X044406Y048483*
X044323Y048539*
X044225Y048558*
X043922*
Y053048*
X044225*
X044323Y053068*
X044406Y053123*
X044461Y053206*
X044480Y053303*
Y056303*
X044461Y056401*
X044450Y056417*
X044518Y056544*
X046905*
X046972Y056417*
X046962Y056402*
X046943Y056303*
Y054930*
X047963*
X048984*
Y056303*
X048965Y056402*
X048955Y056417*
X049022Y056544*
X050267*
X050334Y056417*
X050324Y056402*
X050305Y056303*
Y055180*
X051563*
X052822*
Y056303*
X052803Y056402*
X052793Y056417*
X052860Y056544*
X059067*
X059134Y056417*
X059124Y056402*
X059105Y056303*
Y055180*
X060363*
X061622*
Y056303*
X061603Y056402*
X061593Y056417*
X061660Y056544*
X062136*
X062177Y056424*
X062157Y056409*
X062021Y056232*
X061935Y056025*
X061906Y055803*
X061935Y055581*
X062021Y055374*
X062157Y055197*
X062170Y055187*
X062195Y055161*
X062220Y055130*
X062242Y055100*
X062260Y055069*
X062275Y055039*
X062287Y055009*
X062296Y054978*
X062303Y054946*
X062305Y054932*
Y054003*
X062340Y053828*
X062439Y053679*
X063512Y052605*
X063520Y052596*
X063530Y052579*
X063533Y052572*
X063518Y052550*
X063513Y052536*
X063471Y052482*
X063385Y052275*
X063356Y052053*
X063385Y051831*
X063471Y051624*
X063607Y051447*
X063785Y051311*
X063992Y051225*
X064213Y051196*
X064435Y051225*
X064642Y051311*
X064820Y051447*
X064956Y051624*
X065042Y051831*
X065071Y052053*
X065042Y052275*
X064956Y052482*
X064820Y052659*
X064689Y052759*
X064256Y053159*
X063222Y054193*
Y054932*
X063224Y054946*
X063231Y054978*
X063240Y055009*
X063252Y055039*
X063267Y055069*
X063285Y055100*
X063307Y055130*
X063332Y055161*
X063357Y055187*
X063370Y055197*
X063484Y055345*
X063592Y055308*
X063607Y055298*
X063635Y055081*
X063721Y054874*
X063857Y054697*
X064035Y054561*
X064242Y054475*
X064463Y054446*
X064685Y054475*
X064892Y054561*
X065070Y054697*
X065206Y054874*
X065277Y055046*
X065281Y055053*
X065285Y055064*
X065292Y055081*
X065293Y055089*
X065298Y055106*
X065316Y055153*
X065337Y055199*
X065360Y055242*
X065420Y055338*
X065449Y055379*
X065509Y055450*
X065904Y055844*
X067773*
X068262Y055355*
X068270Y055346*
X068280Y055329*
X068283Y055322*
X068268Y055300*
X068263Y055286*
X068221Y055232*
X068135Y055025*
X068106Y054803*
X068135Y054581*
X068221Y054374*
X068357Y054197*
X068535Y054061*
X068742Y053975*
X068963Y053946*
X069185Y053975*
X069392Y054061*
X069570Y054197*
X069706Y054374*
X069792Y054581*
X069821Y054803*
X069792Y055025*
X069706Y055232*
X069570Y055409*
X069439Y055509*
X069006Y055909*
X068488Y056427*
X068537Y056544*
X073824*
X073876Y056417*
G37*
G36*
X059998Y040517D02*
X059857Y040409D01*
X059847Y040396*
X059822Y040372*
X059791Y040346*
X059760Y040324*
X059730Y040306*
X059700Y040291*
X059669Y040279*
X059638Y040270*
X059606Y040264*
X059592Y040262*
X059463*
X059288Y040227*
X059139Y040128*
X058350Y039338*
X057263*
X057059Y039298*
X056885Y039182*
X056769Y039008*
X056728Y038803*
X056769Y038598*
X056885Y038425*
Y038382*
X056769Y038208*
X056735Y038035*
X056705Y038006*
X056655Y037977*
X056607Y037960*
X056435Y038031*
X056213Y038060*
X056098Y038045*
X055477Y038666*
X055310Y038778*
X055113Y038817*
X051127*
Y039267*
X051254Y039345*
X051286Y039339*
Y040453*
X051540*
Y039339*
X051620Y039355*
X051795Y039472*
X051914Y039422*
X052009Y039359*
X052213Y039318*
X052418Y039359*
X052592Y039475*
X052635*
X052809Y039359*
X053013Y039318*
X053218Y039359*
X053392Y039475*
X053435*
X053609Y039359*
X053813Y039318*
X054018Y039359*
X054192Y039475*
X054235*
X054409Y039359*
X054613Y039318*
X054818Y039359*
X054992Y039475*
X055035*
X055209Y039359*
X055413Y039318*
X055618Y039359*
X055792Y039475*
X055835*
X056009Y039359*
X056213Y039318*
X056418Y039359*
X056592Y039475*
X056708Y039648*
X056749Y039853*
Y040644*
X059955*
X059998Y040517*
G37*
G36*
X044213Y034404D02*
X044165Y034287D01*
X044090*
Y033528*
X043963*
Y033401*
X043092*
X043037Y033378*
X043013Y033403*
X042864Y033502*
X042768Y033521*
Y033578*
X042749Y033676*
X042725Y033711*
X042697Y033845*
X042753Y033929*
X042772Y034028*
Y034401*
X041155*
Y034028*
X041174Y033929*
X041230Y033845*
X041202Y033711*
X041178Y033676*
X041159Y033578*
Y032578*
X041178Y032481*
X041233Y032398*
X041316Y032343*
X041413Y032323*
X042513*
X042611Y032343*
X042694Y032398*
X042718Y032400*
X043139Y031979*
X043159Y031966*
Y031587*
X041729*
X039688Y033628*
X039539Y033727*
X039363Y033762*
X038322*
X038259Y033889*
X038380Y034047*
X038482Y034291*
X038499Y034426*
X037503*
Y034680*
X038499*
X038482Y034815*
X038380Y035059*
X038220Y035269*
X038010Y035430*
X037920Y035467*
X037945Y035594*
X043023*
X044213Y034404*
G37*
G36*
X066505Y035863D02*
Y034493D01*
X065139Y033128*
X065040Y032979*
X065005Y032803*
Y030577*
X064887Y030528*
X061516Y033899*
X061552Y033990*
X061576Y034019*
X061836*
Y034676*
X061305*
Y034291*
X061276Y034267*
X061184Y034231*
X061047Y034369*
X061071Y034553*
X061042Y034775*
X060956Y034982*
X060820Y035159*
X060772Y035196*
X060771Y035207*
X060808Y035328*
X060863Y035339*
X060947Y035395*
X061003Y035479*
X061022Y035578*
Y035951*
X060214*
X059405*
Y035578*
X059424Y035479*
X059480Y035395*
X059564Y035339*
X059619Y035328*
X059656Y035207*
X059655Y035196*
X059607Y035159*
X059471Y034982*
X059385Y034775*
X059356Y034553*
X059385Y034331*
X059471Y034124*
X059607Y033947*
X059785Y033811*
X059992Y033725*
X060213Y033696*
X060398Y033720*
X064255Y029863*
Y028303*
X064290Y028128*
X064389Y027979*
X066889Y025479*
X067038Y025379*
X067213Y025344*
X070091*
X070186Y025217*
X070184Y025203*
Y023703*
X070203Y023606*
X070236Y023557*
X070199Y023502*
X070180Y023403*
Y022780*
X071213*
Y022653*
X071340*
Y021644*
X071988*
X072088Y021664*
X072172Y021720*
X072228Y021804*
X072247Y021903*
Y022242*
X072374Y022327*
X072413Y022319*
X072836*
Y023078*
X073090*
Y022319*
X073513*
X073573Y022331*
X073676Y022270*
X073700Y022244*
Y020803*
X073739Y020606*
X073850Y020440*
X074600Y019690*
X074602Y019689*
X074563Y019562*
X056865*
X056816Y019679*
X057267Y020130*
X057378Y020296*
X057417Y020493*
Y021599*
X057963*
X057989Y021604*
X058598*
X058696Y021624*
X058719Y021639*
X059684*
Y021403*
X059703Y021306*
X059758Y021223*
X059841Y021168*
X059938Y021148*
X061488*
X061586Y021168*
X061669Y021223*
X061724Y021306*
X061743Y021403*
Y022903*
X061724Y023001*
X061691Y023049*
X061728Y023104*
X061747Y023203*
Y023826*
X059680*
Y023203*
X059699Y023104*
X059736Y023049*
X059703Y023001*
X059684Y022903*
Y022667*
X058957*
X058856Y022794*
X058857Y022799*
Y022926*
X057963*
Y023180*
X058857*
Y023307*
X058838Y023406*
X058782Y023490*
X058807Y023626*
X058834Y023667*
X058853Y023764*
Y024272*
X058834Y024370*
X058779Y024453*
X058696Y024508*
X058598Y024527*
X057989*
X057963Y024532*
X056929*
X056732Y024493*
X056565Y024382*
X056440Y024257*
X056388Y024263*
X056307Y024303*
X056294Y024370*
X056239Y024453*
X056156Y024508*
X056058Y024527*
X054788*
X054691Y024508*
X054608Y024453*
X054553Y024370*
X054534Y024272*
Y023764*
X054553Y023667*
X054608Y023584*
X054691Y023529*
X054788Y023509*
X056058*
X056073Y023512*
X056200Y023417*
Y022715*
X056073Y022619*
X056058Y022622*
X055449*
X055423Y022627*
X053424*
X053377Y022665*
Y023273*
X053613*
X053711Y023293*
X053794Y023348*
X053849Y023431*
X053868Y023528*
Y025039*
X059756*
X059794Y024912*
X059755Y024886*
X059699Y024802*
X059680Y024703*
Y024080*
X061747*
Y024703*
X061728Y024802*
X061672Y024886*
X061633Y024912*
X061671Y025039*
X063059*
X063152Y025037*
X063169Y025036*
X063178Y025037*
X063198Y025033*
X063220Y025037*
X063242Y025037*
X063249Y025039*
X063251*
X063371Y024919*
X063356Y024803*
X063385Y024581*
X063471Y024374*
X063607Y024197*
X063785Y024061*
X063992Y023975*
X064213Y023946*
X064435Y023975*
X064642Y024061*
X064820Y024197*
X064956Y024374*
X065042Y024581*
X065071Y024803*
X065042Y025025*
X064956Y025232*
X064820Y025409*
X064642Y025546*
X064435Y025631*
X064213Y025660*
X064098Y025645*
X063827Y025916*
X063660Y026028*
X063463Y026067*
X063230*
X063198Y026073*
X063197Y026073*
X063195Y026073*
X062770Y026067*
X053493*
X053466Y026092*
X053407Y026194*
X053418Y026253*
Y027353*
X053399Y027451*
X053344Y027533*
X053261Y027589*
X053163Y027608*
X052966*
X052938Y027750*
X052827Y027916*
X052816Y027928*
X052878Y028045*
X053013Y028018*
X053218Y028059*
X053392Y028175*
X053435*
X053609Y028059*
X053813Y028018*
X054018Y028059*
X054192Y028175*
X054235*
X054409Y028059*
X054613Y028018*
X054818Y028059*
X054992Y028175*
X055035*
X055209Y028059*
X055413Y028018*
X055618Y028059*
X055792Y028175*
X055835*
X056009Y028059*
X056213Y028018*
X056418Y028059*
X056592Y028175*
X056661Y028277*
X056818Y028300*
X057043Y028075*
X056971Y027982*
X056885Y027775*
X056856Y027553*
X056885Y027331*
X056971Y027124*
X057107Y026947*
X057285Y026811*
X057492Y026725*
X057713Y026696*
X057935Y026725*
X058142Y026811*
X058320Y026947*
X058456Y027124*
X058542Y027331*
X058571Y027553*
X058542Y027775*
X058456Y027982*
X058320Y028159*
X058142Y028296*
X058074Y028324*
X058038Y028378*
X056938Y029478*
X056789Y029577*
X056749Y029585*
Y029753*
X056708Y029958*
X056592Y030132*
X056418Y030248*
X056213Y030288*
X056009Y030248*
X055984Y030231*
X055872Y030291*
Y031552*
X055892Y031561*
X056070Y031697*
X056206Y031874*
X056292Y032081*
X056321Y032303*
X056292Y032525*
X056206Y032732*
X056070Y032909*
X055892Y033046*
X055685Y033131*
X055463Y033160*
X055242Y033131*
X055136Y033087*
X055070Y033197*
X055206Y033374*
X055292Y033581*
X055321Y033803*
X055292Y034025*
X055206Y034232*
X055070Y034409*
X054892Y034546*
X054685Y034631*
X054464Y034660*
X054242Y034631*
X054035Y034546*
X053857Y034409*
X053721Y034232*
X053635Y034025*
X053606Y033803*
X053635Y033581*
X053721Y033374*
X053755Y033331*
Y033088*
X053730Y033068*
X053560Y033094*
X053538Y033128*
X053172Y033493*
Y034334*
X053320Y034447*
X053456Y034624*
X053542Y034831*
X053571Y035053*
X053542Y035275*
X053456Y035482*
X053320Y035659*
X053142Y035796*
X052935Y035881*
X052713Y035910*
X052492Y035881*
X052285Y035796*
X052107Y035659*
X051971Y035482*
X051885Y035275*
X051856Y035053*
X051885Y034831*
X051971Y034624*
X052107Y034447*
X052255Y034334*
Y033303*
X052268Y033234*
X052230Y033186*
X052159Y033135*
X051963Y033160*
X051742Y033131*
X051535Y033046*
X051357Y032909*
X051221Y032732*
X051135Y032525*
X051108Y032315*
X051048Y032274*
X050995Y032248*
X050715Y032528*
X051077Y032890*
X051188Y033056*
X051227Y033253*
Y037789*
X054901*
X055371Y037319*
X055356Y037203*
X055385Y036981*
X055471Y036774*
X055607Y036597*
X055785Y036461*
X055992Y036375*
X056213Y036346*
X056435Y036375*
X056603Y036444*
X056646Y036430*
X056706Y036394*
X056731Y036369*
X056765Y036197*
X056882Y036022*
X056832Y035902*
X056769Y035808*
X056728Y035603*
X056769Y035398*
X056885Y035225*
Y035182*
X056769Y035008*
X056728Y034803*
X056769Y034598*
X056834Y034500*
X056876Y034403*
X056834Y034306*
X056769Y034208*
X056728Y034003*
X056769Y033798*
X056885Y033625*
Y033582*
X056769Y033408*
X056728Y033203*
X056769Y032998*
X056834Y032900*
X056876Y032803*
X056834Y032706*
X056769Y032608*
X056728Y032403*
X056769Y032198*
X056885Y032025*
Y031982*
X056769Y031808*
X056728Y031603*
X056769Y031398*
X056885Y031225*
Y031182*
X056769Y031008*
X056728Y030803*
X056769Y030598*
X056885Y030425*
X057059Y030309*
X057263Y030268*
X057432*
X057440Y030228*
X057539Y030079*
X057773Y029845*
X057782Y029833*
X057800Y029806*
X057815Y029778*
X057828Y029748*
X057839Y029716*
X057847Y029682*
X057854Y029645*
X057857Y029605*
X057858Y029569*
X057856Y029553*
X057885Y029331*
X057971Y029124*
X058107Y028947*
X058285Y028811*
X058492Y028725*
X058713Y028696*
X058935Y028725*
X059142Y028811*
X059320Y028947*
X059334Y028966*
X059455Y028925*
Y028651*
X059453Y028638*
X059447Y028604*
X059437Y028570*
X059425Y028536*
X059410Y028502*
X059392Y028468*
X059371Y028433*
X059345Y028398*
X059311Y028356*
X059301Y028336*
X059221Y028232*
X059135Y028025*
X059106Y027803*
X059135Y027581*
X059221Y027374*
X059357Y027197*
X059535Y027061*
X059742Y026975*
X059963Y026946*
X060185Y026975*
X060392Y027061*
X060570Y027197*
X060706Y027374*
X060741Y027458*
X060871Y027441*
X060885Y027331*
X060971Y027124*
X061107Y026947*
X061285Y026811*
X061492Y026725*
X061713Y026696*
X061935Y026725*
X062142Y026811*
X062320Y026947*
X062456Y027124*
X062542Y027331*
X062571Y027553*
X062542Y027775*
X062456Y027982*
X062320Y028159*
X062175Y028270*
X062172Y028307*
Y028384*
X062137Y028559*
X062038Y028708*
X061022Y029724*
Y030872*
X060987Y031048*
X060888Y031197*
X059432Y032653*
X059283Y032752*
X059108Y032787*
X058970*
X058902Y032914*
X058958Y032998*
X058999Y033203*
X058958Y033408*
X058842Y033582*
Y033625*
X058958Y033798*
X058999Y034003*
X058958Y034208*
X058893Y034306*
X058851Y034403*
X058893Y034500*
X058958Y034598*
X058999Y034803*
X058958Y035008*
X058842Y035182*
Y035225*
X058958Y035398*
X058999Y035603*
X058958Y035808*
X058895Y035902*
X058845Y036022*
X058962Y036197*
X058978Y036276*
X057863*
Y036530*
X058978*
X058962Y036609*
X058947Y036632*
X059006Y036744*
X059328*
X059412Y036617*
X059405Y036578*
Y036205*
X060214*
X061022*
Y036578*
X061003Y036677*
X060947Y036761*
X060975Y036895*
X060999Y036931*
X061018Y037028*
Y037069*
X061298*
X061309Y037059*
Y036528*
X061328Y036431*
X061383Y036348*
X061466Y036293*
X061563Y036273*
X062363*
X062461Y036293*
X062544Y036348*
X062599Y036431*
X062618Y036528*
Y037578*
X062599Y037676*
X062544Y037758*
X062461Y037814*
X062363Y037833*
X061832*
X061813Y037853*
X061664Y037952*
X061587Y037967*
X061600Y038094*
X064273*
X066505Y035863*
G37*
G36*
X086389Y049229D02*
X086538Y049129D01*
X086713Y049094*
X086885*
X086905Y049076*
X086971Y048973*
X086969Y048967*
X086960Y048937*
X086961Y048925*
X086959Y048912*
Y048753*
X086832Y048645*
X086713Y048660*
X086492Y048631*
X086285Y048546*
X086107Y048409*
X086097Y048396*
X086072Y048372*
X086041Y048346*
X086010Y048324*
X085980Y048306*
X085950Y048291*
X085919Y048279*
X085888Y048270*
X085856Y048264*
X085842Y048262*
X085687*
X085627Y048374*
X085635Y048387*
X085653Y048476*
X084888*
X084124*
X084142Y048387*
X084150Y048374*
X084090Y048262*
X083904*
X083883Y048283*
X083734Y048382*
X083713Y048386*
X083578Y048476*
X083363Y048519*
X082513*
X082299Y048476*
X082117Y048355*
X081995Y048173*
X081953Y047958*
X081995Y047743*
X082117Y047562*
X082299Y047440*
X082513Y047397*
X083363*
X083477Y047420*
X083538Y047379*
X083713Y047344*
X085842*
X085856Y047343*
X085888Y047336*
X085919Y047327*
X085950Y047315*
X085980Y047300*
X086010Y047282*
X086041Y047260*
X086072Y047234*
X086097Y047210*
X086107Y047197*
X086285Y047061*
X086492Y046975*
X086713Y046946*
X086832Y046961*
X086959Y046853*
Y043817*
X083938*
X083887Y043913*
X083884Y043944*
X083924Y044148*
X083882Y044363*
X083760Y044545*
X083578Y044666*
X083363Y044709*
X082513*
X082299Y044666*
X082210Y044607*
X081809*
X081415Y045001*
Y045537*
X081532Y045586*
X082024Y045094*
X082105Y045040*
X082117Y045022*
X082299Y044900*
X082513Y044857*
X083363*
X083578Y044900*
X083760Y045022*
X083882Y045203*
X083924Y045418*
X083882Y045633*
X083760Y045815*
X083578Y045936*
X083363Y045979*
X082523*
X082500Y046001*
X082500Y046005*
X082572Y046123*
X082811*
Y046688*
Y047253*
X082513*
X082297Y047210*
X082114Y047087*
X081992Y046904*
X081949Y046688*
X081959Y046636*
X081842Y046573*
X081422Y046993*
Y047803*
X081387Y047979*
X081288Y048128*
X080830Y048585*
X080890Y048705*
X080963Y048696*
X081185Y048725*
X081392Y048811*
X081570Y048947*
X081580Y048960*
X081605Y048984*
X081636Y049010*
X081667Y049032*
X081697Y049050*
X081727Y049065*
X081758Y049077*
X081789Y049086*
X081821Y049093*
X081835Y049094*
X083938*
X084114Y049129*
X084263Y049229*
X084982Y049948*
X085413*
X085511Y049968*
X085594Y050023*
X085595Y050023*
X086389Y049229*
G37*
G36*
X064482Y039135D02*
X064478Y039107D01*
X064426Y039012*
X061037*
X060994Y039139*
X061070Y039197*
X061206Y039374*
X061292Y039581*
X061321Y039803*
X061292Y040025*
X061206Y040232*
X061070Y040409*
X060929Y040517*
X060972Y040644*
X062973*
X064482Y039135*
G37*
G36*
X047678Y039853D02*
X047719Y039648D01*
X047835Y039475*
X048009Y039359*
X048213Y039318*
X048418Y039359*
X048592Y039475*
X048635*
X048809Y039359*
X049013Y039318*
X049218Y039359*
X049392Y039475*
X049435*
X049609Y039359*
X049813Y039318*
X049973Y039349*
X050100Y039272*
Y038403*
X050139Y038206*
X050200Y038115*
Y033466*
X049812Y033079*
X049685Y033131*
X049463Y033160*
X049242Y033131*
X049035Y033046*
X048857Y032909*
X048847Y032896*
X047736*
X047667Y033023*
X047678Y033076*
X046563*
Y033330*
X047678*
X047662Y033409*
X047545Y033584*
X047595Y033704*
X047658Y033798*
X047699Y034003*
X047658Y034208*
X047593Y034306*
X047551Y034403*
X047593Y034500*
X047658Y034598*
X047699Y034803*
X047658Y035008*
X047740Y035107*
X047767Y035116*
X047885Y035054*
X047971Y034847*
X048107Y034670*
X048285Y034534*
X048492Y034448*
X048713Y034419*
X048935Y034448*
X049142Y034534*
X049320Y034670*
X049456Y034847*
X049542Y035054*
X049571Y035276*
X049542Y035498*
X049456Y035705*
X049320Y035882*
X049245Y035940*
Y036067*
X049320Y036124*
X049456Y036301*
X049542Y036508*
X049571Y036730*
X049542Y036952*
X049456Y037159*
X049320Y037336*
X049142Y037473*
X048935Y037558*
X048713Y037587*
X048492Y037558*
X048285Y037473*
X048107Y037336*
X047971Y037159*
X047885Y036952*
X047767Y036890*
X047740Y036899*
X047658Y036998*
X047699Y037203*
X047658Y037408*
X047542Y037582*
Y037625*
X047658Y037798*
X047699Y038003*
X047658Y038208*
X047542Y038382*
Y038425*
X047658Y038598*
X047699Y038803*
X047658Y039008*
X047542Y039182*
X047368Y039298*
X047163Y039338*
X045963*
X045759Y039298*
X045705Y039262*
X045614*
X044398Y040477*
X044447Y040594*
X047678*
Y039853*
G37*
G36*
X079347Y024521D02*
X079288Y024400D01*
X079213Y024410*
X078991Y024381*
X078785Y024295*
X078607Y024159*
X078471Y023982*
X078430Y023884*
X078394Y023869*
X078281Y023854*
X078128Y023956*
X077913Y023999*
X077063*
X076849Y023956*
X076760Y023897*
X076123*
X075948Y023862*
X075799Y023763*
X075570Y023533*
X074913*
X074854Y023521*
X074752Y023581*
X074727Y023607*
Y024194*
X076634*
X076666Y024173*
X076763Y024153*
X078213*
X078311Y024173*
X078394Y024228*
X078449Y024311*
X078468Y024408*
Y025008*
X078498Y025044*
X078823*
X079347Y024521*
G37*
G36*
X105959Y025937D02*
X105832Y025894D01*
X105820Y025909*
X105642Y026046*
X105435Y026131*
X105213Y026160*
X104992Y026131*
X104785Y026046*
X104607Y025909*
X104471Y025732*
X104396Y025551*
X104389Y025551*
X104356Y025558*
X096833*
X096820Y025556*
X096808Y025557*
X096772Y025546*
X096735Y025539*
X096725Y025532*
X096712Y025528*
X096683Y025504*
X096652Y025483*
X096645Y025473*
X096636Y025465*
X096618Y025432*
X096597Y025401*
X096595Y025388*
X096589Y025377*
X096553Y025259*
X096504Y025269*
X095304*
X095090Y025226*
X095001Y025167*
X094999*
X094556Y025609*
X094548Y025620*
X094535Y025642*
X094526Y025661*
X094520Y025679*
X094517Y025697*
X094515Y025717*
X094516Y025739*
X094520Y025764*
X094531Y025805*
X094531Y025807*
X094542Y025831*
X094571Y026053*
X094542Y026275*
X094456Y026482*
X094320Y026659*
X094244Y026717*
X094287Y026844*
X105959*
Y025937*
G37*
G36*
X086389Y025979D02*
X086538Y025879D01*
X086713Y025844*
X086885*
X086905Y025826*
X086971Y025723*
X086969Y025717*
X086960Y025687*
X086961Y025675*
X086959Y025662*
Y025003*
X086832Y024895*
X086713Y024910*
X086491Y024881*
X086285Y024795*
X086107Y024659*
X086097Y024646*
X086071Y024622*
X086040Y024596*
X086010Y024574*
X085980Y024556*
X085949Y024541*
X085919Y024529*
X085888Y024520*
X085856Y024513*
X085842Y024512*
X084404*
X083883Y025033*
X083734Y025132*
X083713Y025136*
X083578Y025226*
X083363Y025269*
X082513*
X082299Y025226*
X082117Y025105*
X081995Y024923*
X081953Y024708*
X081995Y024493*
X082117Y024312*
X082299Y024190*
X082513Y024147*
X083363*
X083399Y024154*
X083427Y024120*
X083372Y024018*
X083357Y024003*
X083065*
Y023565*
X083903*
X083903Y023567*
X084017Y023643*
X084038Y023629*
X084214Y023594*
X085842*
X085856Y023592*
X085888Y023586*
X085919Y023576*
X085949Y023565*
X085980Y023550*
X086010Y023532*
X086040Y023510*
X086071Y023484*
X086097Y023460*
X086107Y023447*
X086285Y023310*
X086491Y023225*
X086713Y023196*
X086832Y023211*
X086959Y023103*
Y022317*
X086402*
X086206Y022278*
X086039Y022166*
X085439Y021567*
X084713*
X084517Y021528*
X084350Y021416*
X084004Y021071*
X083900Y021102*
X083876Y021122*
X083760Y021295*
X083578Y021416*
X083363Y021459*
X082513*
X082299Y021416*
X082210Y021357*
X081809*
X081415Y021751*
Y022287*
X081532Y022336*
X082024Y021844*
X082105Y021790*
X082117Y021772*
X082299Y021650*
X082513Y021607*
X083363*
X083578Y021650*
X083760Y021772*
X083882Y021953*
X083924Y022168*
X083882Y022383*
X083760Y022565*
X083578Y022686*
X083363Y022729*
X082523*
X082500Y022751*
X082500Y022755*
X082572Y022873*
X082811*
Y023438*
Y024003*
X082513*
X082297Y023960*
X082114Y023838*
X081992Y023654*
X081949Y023438*
X081959Y023386*
X081842Y023324*
X081422Y023743*
Y024553*
X081387Y024729*
X081288Y024878*
X080830Y025335*
X080890Y025455*
X080963Y025446*
X081185Y025475*
X081392Y025561*
X081570Y025697*
X081580Y025710*
X081605Y025734*
X081636Y025760*
X081667Y025782*
X081697Y025800*
X081727Y025815*
X081758Y025827*
X081789Y025836*
X081821Y025843*
X081835Y025844*
X083938*
X084114Y025879*
X084263Y025979*
X084982Y026698*
X085413*
X085511Y026718*
X085594Y026773*
X085595Y026773*
X086389Y025979*
G37*
G36*
X073888Y026729D02*
X073840Y026612D01*
X072784*
X072619Y026778*
X072470Y026877*
X072294Y026912*
X068004*
X067688Y027227*
X067737Y027344*
X073273*
X073888Y026729*
G37*
G36*
X111714Y043553D02*
X111572D01*
X111468Y043678*
Y045028*
X111449Y045126*
X111394Y045208*
X111311Y045264*
X111213Y045283*
X109713*
X109616Y045264*
X109533Y045208*
X109478Y045126*
X109459Y045028*
Y044691*
X109439Y044678*
X108315Y043553*
X106213*
Y047421*
X106308Y047499*
X106501*
X106590Y047440*
X106804Y047397*
X108004*
X108219Y047440*
X108401Y047562*
X108523Y047743*
X108565Y047958*
X108523Y048173*
X108401Y048355*
X108219Y048476*
X108004Y048519*
X106804*
X106590Y048476*
X106501Y048417*
X106499*
X106213Y048702*
Y054921*
X106308Y054999*
X106501*
X106590Y054940*
X106804Y054897*
X108004*
X108219Y054940*
X108401Y055062*
X108523Y055243*
X108565Y055458*
X108523Y055673*
X108401Y055855*
X108294Y055926*
X108333Y056053*
X111714*
Y043553*
G37*
G36*
X104385Y055831D02*
X104471Y055624D01*
X104607Y055447*
X104785Y055311*
X104992Y055225*
X105213Y055196*
X105435Y055225*
X105586Y055288*
X105705Y055221*
X105713Y055208*
Y051053*
X094713*
Y054921*
X094808Y054999*
X095001*
X095090Y054940*
X095304Y054897*
X096504*
X096719Y054940*
X096901Y055062*
X097023Y055243*
X097065Y055458*
X097023Y055673*
X096901Y055855*
X096794Y055926*
X096833Y056053*
X104356*
X104385Y055831*
G37*
G36*
Y048331D02*
X104471Y048124D01*
X104607Y047947*
X104785Y047811*
X104992Y047725*
X105213Y047696*
X105435Y047725*
X105586Y047788*
X105705Y047721*
X105713Y047708*
Y043553*
X094713*
Y047421*
X094808Y047499*
X095001*
X095090Y047440*
X095304Y047397*
X096504*
X096719Y047440*
X096901Y047562*
X097023Y047743*
X097065Y047958*
X097023Y048173*
X096901Y048355*
X096794Y048426*
X096833Y048553*
X104356*
X104385Y048331*
G37*
G36*
X092885Y055831D02*
X092971Y055624D01*
X093107Y055447*
X093285Y055311*
X093492Y055225*
X093713Y055196*
X093935Y055225*
X094086Y055288*
X094205Y055221*
X094213Y055208*
Y051012*
X091433*
X091320Y051159*
X091142Y051296*
X090935Y051381*
X090713Y051410*
X090492Y051381*
X090285Y051296*
X090107Y051159*
X089971Y050982*
X089885Y050775*
X089856Y050553*
X089885Y050331*
X089971Y050124*
X090107Y049947*
X090285Y049811*
X090492Y049725*
X090713Y049696*
X090935Y049725*
X091142Y049811*
X091320Y049947*
X091433Y050094*
X093140*
X093183Y049967*
X093107Y049909*
X092971Y049732*
X092885Y049525*
X092856Y049303*
X092885Y049081*
X092971Y048874*
X093107Y048697*
X093285Y048561*
X093459Y048489*
X093465Y048485*
X093474Y048482*
X093492Y048475*
X093501Y048474*
X093517Y048469*
X093613Y048431*
X093649Y048414*
X093731Y048368*
X093762Y048347*
X093794Y048323*
X093799Y048318*
X094213Y047904*
Y043553*
X087213*
Y047115*
X087320Y047197*
X087456Y047374*
X087542Y047581*
X087571Y047803*
X087542Y048025*
X087456Y048232*
X087320Y048409*
X087213Y048491*
Y048912*
X087312Y048993*
X087313Y048992*
X087763*
X087978Y049035*
X088160Y049157*
X088282Y049338*
X088324Y049553*
X088282Y049768*
X088160Y049950*
X087978Y050071*
X087763Y050114*
X087313*
X087312Y050113*
X087213Y050194*
Y054115*
X087319Y054197*
X087456Y054374*
X087541Y054581*
X087571Y054803*
X087541Y055025*
X087456Y055232*
X087319Y055409*
X087213Y055490*
Y056053*
X092856*
X092885Y055831*
G37*
G36*
Y032581D02*
X092971Y032374D01*
X093107Y032197*
X093285Y032061*
X093492Y031975*
X093713Y031946*
X093935Y031975*
X094086Y032038*
X094205Y031971*
X094213Y031958*
Y027762*
X091433*
X091320Y027909*
X091142Y028046*
X090935Y028131*
X090713Y028160*
X090492Y028131*
X090285Y028046*
X090107Y027909*
X089971Y027732*
X089885Y027525*
X089856Y027303*
X089885Y027081*
X089971Y026874*
X090107Y026697*
X090285Y026561*
X090492Y026475*
X090713Y026446*
X090935Y026475*
X091142Y026561*
X091320Y026697*
X091433Y026844*
X093140*
X093183Y026717*
X093107Y026659*
X092971Y026482*
X092885Y026275*
X092856Y026053*
X092885Y025831*
X092971Y025624*
X093107Y025447*
X093285Y025311*
X093459Y025239*
X093465Y025235*
X093474Y025232*
X093492Y025225*
X093501Y025224*
X093517Y025219*
X093613Y025181*
X093649Y025164*
X093731Y025118*
X093762Y025097*
X093794Y025073*
X093799Y025068*
X094213Y024654*
Y020303*
X087375*
X087372Y020308*
X087352Y020338*
X087336Y020365*
X087324Y020389*
X087316Y020410*
X087311Y020427*
X087305Y020453*
X087300Y020464*
X087299Y020475*
X087298Y020477*
X087292Y020525*
X087213Y020714*
Y023365*
X087319Y023447*
X087456Y023624*
X087541Y023831*
X087571Y024053*
X087541Y024275*
X087456Y024482*
X087319Y024659*
X087213Y024740*
Y025662*
X087312Y025743*
X087313Y025742*
X087763*
X087978Y025785*
X088160Y025907*
X088282Y026089*
X088324Y026303*
X088282Y026518*
X088160Y026700*
X087978Y026821*
X087763Y026864*
X087313*
X087312Y026864*
X087213Y026944*
Y030865*
X087319Y030947*
X087456Y031124*
X087541Y031331*
X087571Y031553*
X087541Y031775*
X087456Y031982*
X087319Y032159*
X087213Y032240*
Y032803*
X092856*
X092885Y032581*
G37*
G36*
X104385Y025081D02*
X104471Y024874D01*
X104607Y024697*
X104785Y024561*
X104992Y024475*
X105213Y024446*
X105435Y024475*
X105586Y024538*
X105705Y024471*
X105713Y024458*
Y020303*
X094713*
Y024171*
X094808Y024249*
X095001*
X095090Y024190*
X095304Y024147*
X096504*
X096719Y024190*
X096901Y024312*
X097023Y024493*
X097065Y024708*
X097023Y024923*
X096901Y025105*
X096794Y025176*
X096833Y025303*
X104356*
X104385Y025081*
G37*
G36*
Y032581D02*
X104471Y032374D01*
X104607Y032197*
X104785Y032061*
X104992Y031975*
X105213Y031946*
X105435Y031975*
X105586Y032038*
X105705Y031971*
X105713Y031958*
Y027803*
X094713*
Y031671*
X094808Y031749*
X095001*
X095090Y031690*
X095304Y031647*
X096504*
X096719Y031690*
X096901Y031812*
X097023Y031993*
X097065Y032208*
X097023Y032423*
X096901Y032605*
X096794Y032676*
X096833Y032803*
X104356*
X104385Y032581*
G37*
G36*
X109459Y032678D02*
Y031328D01*
X109478Y031231*
X109533Y031148*
X109616Y031093*
X109713Y031073*
X111045*
X111714Y030404*
Y020452*
X111565Y020303*
X106213*
Y024171*
X106308Y024249*
X106501*
X106590Y024190*
X106804Y024147*
X108004*
X108219Y024190*
X108401Y024312*
X108523Y024493*
X108565Y024708*
X108523Y024923*
X108401Y025105*
X108219Y025226*
X108004Y025269*
X106804*
X106590Y025226*
X106501Y025167*
X106499*
X106213Y025452*
Y031671*
X106308Y031749*
X106501*
X106590Y031690*
X106804Y031647*
X108004*
X108219Y031690*
X108401Y031812*
X108523Y031993*
X108565Y032208*
X108523Y032423*
X108401Y032605*
X108294Y032676*
X108333Y032803*
X109355*
X109459Y032678*
G37*
%LNgrb_top_layer-3*%
%LPD*%
G36*
X103673Y037553D02*
X102492D01*
X102545Y037379*
X102708Y037074*
X102927Y036807*
X103194Y036588*
X103499Y036425*
X103673Y036372*
Y037553*
G37*
G36*
X099983Y039077D02*
X097959D01*
Y037053*
X099983*
Y039077*
G37*
G36*
X103673Y039734D02*
X103499Y039681D01*
X103194Y039519*
X102927Y039299*
X102708Y039032*
X102545Y038728*
X102492Y038553*
X103673*
Y039734*
G37*
G36*
X048888Y024533D02*
X047038D01*
X046941Y024514*
X046858Y024458*
X046803Y024376*
X046784Y024278*
Y023992*
X046713*
X046517Y023953*
X046350Y023841*
X044623Y022114*
X044563*
X044349Y022071*
X044167Y021950*
X044045Y021768*
X044003Y021553*
X044045Y021338*
X044167Y021157*
X044349Y021035*
X044563Y020992*
X045013*
X045228Y021035*
X045410Y021157*
X045532Y021338*
X045574Y021553*
X045564Y021602*
X046685Y022723*
X046831Y022689*
X046858Y022648*
X046941Y022593*
X047038Y022573*
X048888*
X048986Y022593*
X049069Y022648*
X049124Y022731*
X049143Y022828*
Y024278*
X049124Y024376*
X049069Y024458*
X048986Y024514*
X048888Y024533*
G37*
G36*
X050936Y024176D02*
X050055D01*
Y023528*
X050074Y023429*
X050130Y023345*
X050214Y023289*
X050313Y023269*
X050936*
Y024176*
G37*
G36*
Y022587D02*
X050313D01*
X050214Y022567*
X050130Y022511*
X050074Y022427*
X050055Y022328*
Y021680*
X050936*
Y022587*
G37*
G36*
X037713Y022410D02*
X037492Y022381D01*
X037285Y022296*
X037107Y022159*
X036971Y021982*
X036885Y021775*
X036856Y021553*
X036885Y021331*
X036971Y021124*
X037107Y020947*
X037285Y020811*
X037430Y020751*
X037571Y020627*
X038004Y020194*
X038192Y020069*
X038413Y020024*
X042138*
X042228Y020042*
X042363*
X042578Y020085*
X042760Y020207*
X042882Y020388*
X042924Y020603*
X042882Y020818*
X042760Y021000*
X042578Y021121*
X042363Y021164*
X042228*
X042138Y021182*
X038653*
X038582Y021253*
X038567Y021272*
X038550Y021297*
X038539Y021317*
X038537Y021321*
X038542Y021331*
X038571Y021553*
X038542Y021775*
X038456Y021982*
X038320Y022159*
X038142Y022296*
X037935Y022381*
X037713Y022410*
G37*
G36*
X050936Y021426D02*
X050055D01*
Y020778*
X050074Y020679*
X050130Y020595*
X050214Y020539*
X050313Y020519*
X050936*
Y021426*
G37*
G36*
X051086Y027612D02*
X050713D01*
X050614Y027592*
X050530Y027536*
X050474Y027452*
X050455Y027353*
Y026930*
X051086*
Y027612*
G37*
G36*
X046463Y029660D02*
X046242Y029631D01*
X046035Y029546*
X045857Y029409*
X045721Y029232*
X045635Y029025*
X045606Y028803*
X045630Y028619*
X044023Y027012*
X043868*
Y027078*
X043849Y027176*
X043794Y027258*
X043711Y027314*
X043613Y027333*
X042813*
X042716Y027314*
X042633Y027258*
X042578Y027176*
X042559Y027078*
Y026028*
X042578Y025931*
X042633Y025848*
X042716Y025793*
X042813Y025773*
X043613*
X043711Y025793*
X043794Y025848*
X043849Y025931*
X043868Y026028*
Y026094*
X044213*
X044389Y026129*
X044538Y026229*
X046279Y027970*
X046463Y027946*
X046685Y027975*
X046892Y028061*
X047070Y028197*
X047206Y028374*
X047292Y028581*
X047321Y028803*
X047292Y029025*
X047206Y029232*
X047070Y029409*
X046892Y029546*
X046685Y029631*
X046463Y029660*
G37*
G36*
X051086Y026676D02*
X050455D01*
Y026253*
X050474Y026154*
X050530Y026070*
X050614Y026014*
X050713Y025994*
X051086*
Y026676*
G37*
G36*
X050936Y025337D02*
X050313D01*
X050214Y025317*
X050130Y025261*
X050074Y025177*
X050055Y025078*
Y024430*
X050936*
Y025337*
G37*
G36*
X034963Y027942D02*
X034702Y027907D01*
X034459Y027807*
X034250Y027646*
X034090Y027437*
X033989Y027194*
X033955Y026933*
X033989Y026672*
X034090Y026429*
X034250Y026220*
X034459Y026060*
X034702Y025959*
X034963Y025924*
X035225Y025959*
X035468Y026060*
X035677Y026220*
X035837Y026429*
X035938Y026672*
X035972Y026933*
X035938Y027194*
X035837Y027437*
X035677Y027646*
X035468Y027807*
X035225Y027907*
X034963Y027942*
G37*
G36*
X116463Y025772D02*
X116120Y025738D01*
X115791Y025638*
X115487Y025475*
X115220Y025257*
X115001Y024990*
X114839Y024686*
X114739Y024356*
X114705Y024013*
X114739Y023670*
X114839Y023340*
X115001Y023036*
X115220Y022770*
X115487Y022551*
X115791Y022388*
X116120Y022288*
X116463Y022255*
X116807Y022288*
X117136Y022388*
X117440Y022551*
X117707Y022770*
X117926Y023036*
X118088Y023340*
X118188Y023670*
X118222Y024013*
X118188Y024356*
X118088Y024686*
X117926Y024990*
X117707Y025257*
X117440Y025475*
X117136Y025638*
X116807Y025738*
X116463Y025772*
G37*
G36*
Y030852D02*
X116120Y030818D01*
X115791Y030718*
X115487Y030555*
X115220Y030337*
X115001Y030070*
X114839Y029766*
X114739Y029436*
X114705Y029093*
X114739Y028750*
X114839Y028420*
X115001Y028116*
X115220Y027850*
X115487Y027631*
X115791Y027468*
X116120Y027368*
X116463Y027335*
X116807Y027368*
X117136Y027468*
X117440Y027631*
X117707Y027850*
X117926Y028116*
X118088Y028420*
X118188Y028750*
X118222Y029093*
X118188Y029436*
X118088Y029766*
X117926Y030070*
X117707Y030337*
X117440Y030555*
X117136Y030718*
X116807Y030818*
X116463Y030852*
G37*
G36*
Y049022D02*
X116120Y048988D01*
X115791Y048888*
X115487Y048725*
X115220Y048507*
X115001Y048240*
X114839Y047936*
X114739Y047606*
X114705Y047263*
X114739Y046920*
X114839Y046590*
X115001Y046286*
X115220Y046020*
X115487Y045801*
X115791Y045638*
X116120Y045538*
X116463Y045505*
X116807Y045538*
X117136Y045638*
X117440Y045801*
X117707Y046020*
X117926Y046286*
X118088Y046590*
X118188Y046920*
X118222Y047263*
X118188Y047606*
X118088Y047936*
X117926Y048240*
X117707Y048507*
X117440Y048725*
X117136Y048888*
X116807Y048988*
X116463Y049022*
G37*
G36*
Y054102D02*
X116120Y054068D01*
X115791Y053968*
X115487Y053805*
X115220Y053587*
X115001Y053320*
X114839Y053016*
X114739Y052686*
X114705Y052343*
X114739Y052000*
X114839Y051670*
X115001Y051366*
X115220Y051100*
X115487Y050881*
X115791Y050718*
X116120Y050618*
X116463Y050585*
X116807Y050618*
X117136Y050718*
X117440Y050881*
X117707Y051100*
X117926Y051366*
X118088Y051670*
X118188Y052000*
X118222Y052343*
X118188Y052686*
X118088Y053016*
X117926Y053320*
X117707Y053587*
X117440Y053805*
X117136Y053968*
X116807Y054068*
X116463Y054102*
G37*
G36*
X082770Y030766D02*
X081933D01*
X081951Y030677*
X082073Y030494*
X082256Y030371*
X082472Y030328*
X082770*
Y030766*
G37*
G36*
X083862D02*
X083024D01*
Y030328*
X083322*
X083539Y030371*
X083722Y030494*
X083844Y030677*
X083862Y030766*
G37*
G36*
X082770Y031458D02*
X082472D01*
X082256Y031415*
X082073Y031293*
X081951Y031109*
X081933Y031020*
X082770*
Y031458*
G37*
G36*
X074272Y030451D02*
X073590D01*
Y029819*
X074013*
X074113Y029839*
X074197Y029895*
X074253Y029979*
X074272Y030078*
Y030451*
G37*
G36*
X071086Y030026D02*
X070180D01*
Y029403*
X070199Y029304*
X070255Y029220*
X070339Y029164*
X070439Y029144*
X071086*
Y030026*
G37*
G36*
X072247D02*
X071340D01*
Y029144*
X071988*
X072088Y029164*
X072172Y029220*
X072228Y029304*
X072247Y029403*
Y030026*
G37*
G36*
X073336Y030451D02*
X072655D01*
Y030078*
X072674Y029979*
X072730Y029895*
X072814Y029839*
X072914Y029819*
X073336*
Y030451*
G37*
G36*
X085836Y036837D02*
X085563D01*
X085464Y036817*
X085380Y036761*
X085324Y036677*
X085305Y036578*
Y036180*
X085836*
Y036837*
G37*
G36*
X086363D02*
X086090D01*
Y036180*
X086622*
Y036578*
X086603Y036677*
X086547Y036761*
X086463Y036817*
X086363Y036837*
G37*
G36*
X071086Y045776D02*
X070180D01*
Y045153*
X070199Y045054*
X070255Y044970*
X070339Y044914*
X070439Y044894*
X071086*
Y045776*
G37*
G36*
X084863Y039083D02*
X084063D01*
X083966Y039064*
X083883Y039008*
X083828Y038926*
X083809Y038828*
Y037778*
X083828Y037681*
X083883Y037598*
X083966Y037543*
X084005Y037535*
Y036821*
X083966Y036814*
X083883Y036758*
X083828Y036676*
X083809Y036578*
Y035528*
X083828Y035431*
X083883Y035348*
X083966Y035293*
X084063Y035273*
X084863*
X084961Y035293*
X085044Y035348*
X085099Y035431*
X085118Y035528*
Y036578*
X085099Y036676*
X085044Y036758*
X084961Y036814*
X084922Y036821*
Y037535*
X084961Y037543*
X085044Y037598*
X085099Y037681*
X085118Y037778*
Y038828*
X085099Y038926*
X085044Y039008*
X084961Y039064*
X084863Y039083*
G37*
G36*
X083322Y031458D02*
X083024D01*
Y031020*
X083862*
X083844Y031109*
X083722Y031293*
X083539Y031415*
X083322Y031458*
G37*
G36*
X085836Y035926D02*
X085305D01*
Y035528*
X085324Y035429*
X085380Y035345*
X085464Y035289*
X085563Y035269*
X085836*
Y035926*
G37*
G36*
X086622D02*
X086090D01*
Y035269*
X086363*
X086463Y035289*
X086547Y035345*
X086603Y035429*
X086622Y035528*
Y035926*
G37*
G36*
X054237Y051062D02*
X054113D01*
X054014Y051042*
X053930Y050986*
X053874Y050902*
X053855Y050803*
Y049680*
X054237*
Y051062*
G37*
G36*
X060236D02*
X059363D01*
X059264Y051042*
X059180Y050986*
X059124Y050902*
X059105Y050803*
Y049680*
X060236*
Y051062*
G37*
G36*
X051436D02*
X050563D01*
X050464Y051042*
X050380Y050986*
X050324Y050902*
X050305Y050803*
Y049680*
X051436*
Y051062*
G37*
G36*
X053763Y052867D02*
X053739Y052862D01*
X053714*
X053538Y052827*
X053446Y052789*
X053297Y052689*
X053227Y052619*
X053128Y052470*
X053090Y052378*
X053055Y052203*
Y052103*
X053090Y051928*
X053128Y051836*
X053227Y051687*
X053297Y051617*
X053446Y051517*
X053538Y051479*
X053714Y051444*
X053739*
X053763Y051439*
X053788Y051444*
X053813*
X053989Y051479*
X054081Y051517*
X054230Y051617*
X054300Y051687*
X054399Y051836*
X054437Y051928*
X054472Y052103*
Y052203*
X054437Y052378*
X054399Y052470*
X054300Y052619*
X054230Y052689*
X054081Y052789*
X053989Y052827*
X053813Y052862*
X053788*
X053763Y052867*
G37*
G36*
X052563Y051062D02*
X051690D01*
Y049680*
X052822*
Y050803*
X052803Y050902*
X052747Y050986*
X052663Y051042*
X052563Y051062*
G37*
G36*
X061363D02*
X060490D01*
Y049680*
X061622*
Y050803*
X061603Y050902*
X061547Y050986*
X061463Y051042*
X061363Y051062*
G37*
G36*
X052822Y049426D02*
X051690D01*
Y048044*
X052563*
X052663Y048064*
X052747Y048120*
X052803Y048204*
X052822Y048303*
Y049426*
G37*
G36*
X048725Y048562D02*
X048090D01*
Y046930*
X048984*
Y048303*
X048965Y048402*
X048909Y048486*
X048825Y048542*
X048725Y048562*
G37*
G36*
X047836D02*
X047201D01*
X047102Y048542*
X047018Y048486*
X046962Y048402*
X046943Y048303*
Y046930*
X047836*
Y048562*
G37*
G36*
X052188Y044112D02*
X051816D01*
Y043430*
X052447*
Y043853*
X052428Y043952*
X052372Y044036*
X052288Y044092*
X052188Y044112*
G37*
G36*
X051436Y049426D02*
X050305D01*
Y048303*
X050324Y048204*
X050380Y048120*
X050464Y048064*
X050563Y048044*
X051436*
Y049426*
G37*
G36*
X051763Y047762D02*
X051340D01*
Y047130*
X052022*
Y047503*
X052003Y047602*
X051947Y047686*
X051863Y047742*
X051763Y047762*
G37*
G36*
X051086D02*
X050663D01*
X050564Y047742*
X050480Y047686*
X050424Y047602*
X050405Y047503*
Y047130*
X051086*
Y047762*
G37*
G36*
X071086Y053276D02*
X070180D01*
Y052653*
X070199Y052554*
X070255Y052470*
X070339Y052414*
X070439Y052394*
X071086*
Y053276*
G37*
G36*
X082770Y054016D02*
X081933D01*
X081951Y053927*
X082073Y053744*
X082256Y053621*
X082472Y053578*
X082770*
Y054016*
G37*
G36*
X061622Y054926D02*
X060490D01*
Y053544*
X061363*
X061463Y053564*
X061547Y053620*
X061603Y053704*
X061622Y053803*
Y054926*
G37*
G36*
X060236D02*
X059105D01*
Y053803*
X059124Y053704*
X059180Y053620*
X059264Y053564*
X059363Y053544*
X060236*
Y054926*
G37*
G36*
X083322Y054708D02*
X083024D01*
Y054270*
X083862*
X083844Y054359*
X083722Y054542*
X083539Y054665*
X083322Y054708*
G37*
G36*
X082770D02*
X082472D01*
X082256Y054665*
X082073Y054542*
X081951Y054359*
X081933Y054270*
X082770*
Y054708*
G37*
G36*
X083862Y054016D02*
X083024D01*
Y053578*
X083322*
X083539Y053621*
X083722Y053744*
X083844Y053927*
X083862Y054016*
G37*
G36*
X052822Y054926D02*
X051690D01*
Y053544*
X052563*
X052663Y053564*
X052747Y053620*
X052803Y053704*
X052822Y053803*
Y054926*
G37*
G36*
X048984Y054676D02*
X048090D01*
Y053044*
X048725*
X048825Y053064*
X048909Y053120*
X048965Y053204*
X048984Y053303*
Y054676*
G37*
G36*
X047836D02*
X046943D01*
Y053303*
X046962Y053204*
X047018Y053120*
X047102Y053064*
X047201Y053044*
X047836*
Y054676*
G37*
G36*
X072247Y053276D02*
X071340D01*
Y052394*
X071988*
X072088Y052414*
X072172Y052470*
X072228Y052554*
X072247Y052653*
Y053276*
G37*
G36*
X051436Y054926D02*
X050305D01*
Y053803*
X050324Y053704*
X050380Y053620*
X050464Y053564*
X050563Y053544*
X051436*
Y054926*
G37*
G36*
X074272Y053701D02*
X073590D01*
Y053069*
X074013*
X074113Y053089*
X074197Y053145*
X074253Y053229*
X074272Y053328*
Y053701*
G37*
G36*
X073336D02*
X072655D01*
Y053328*
X072674Y053229*
X072730Y053145*
X072814Y053089*
X072914Y053069*
X073336*
Y053701*
G37*
G36*
X043836Y034287D02*
X043413D01*
X043314Y034267*
X043230Y034211*
X043174Y034127*
X043155Y034028*
Y033655*
X043836*
Y034287*
G37*
G36*
X041837Y035287D02*
X041413D01*
X041314Y035267*
X041230Y035211*
X041174Y035127*
X041155Y035028*
Y034655*
X041837*
Y035287*
G37*
G36*
X042513D02*
X042091D01*
Y034655*
X042772*
Y035028*
X042753Y035127*
X042697Y035211*
X042613Y035267*
X042513Y035287*
G37*
G36*
X062622Y034676D02*
X062090D01*
Y034019*
X062363*
X062463Y034039*
X062547Y034095*
X062603Y034179*
X062622Y034278*
Y034676*
G37*
G36*
X071086Y022526D02*
X070180D01*
Y021903*
X070199Y021804*
X070255Y021720*
X070339Y021664*
X070439Y021644*
X071086*
Y022526*
G37*
G36*
X063863Y037833D02*
X063063D01*
X062966Y037814*
X062883Y037758*
X062828Y037676*
X062809Y037578*
Y036528*
X062828Y036431*
X062883Y036348*
X062966Y036293*
X063005Y036285*
Y035571*
X062966Y035564*
X062883Y035508*
X062828Y035426*
X062809Y035328*
Y034278*
X062828Y034181*
X062883Y034098*
X062966Y034043*
X063063Y034023*
X063863*
X063961Y034043*
X064044Y034098*
X064099Y034181*
X064118Y034278*
Y035328*
X064099Y035426*
X064044Y035508*
X063961Y035564*
X063922Y035571*
Y036285*
X063961Y036293*
X064044Y036348*
X064099Y036431*
X064118Y036528*
Y037578*
X064099Y037676*
X064044Y037758*
X063961Y037814*
X063863Y037833*
G37*
G36*
X062363Y035587D02*
X062090D01*
Y034930*
X062622*
Y035328*
X062603Y035427*
X062547Y035511*
X062463Y035567*
X062363Y035587*
G37*
G36*
X061836D02*
X061563D01*
X061464Y035567*
X061380Y035511*
X061324Y035427*
X061305Y035328*
Y034930*
X061836*
Y035587*
G37*
G36*
X083363Y047253D02*
X083065D01*
Y046815*
X083903*
X083885Y046904*
X083763Y047087*
X083580Y047210*
X083363Y047253*
G37*
G36*
X083903Y046561D02*
X083065D01*
Y046123*
X083363*
X083580Y046166*
X083763Y046289*
X083885Y046472*
X083903Y046561*
G37*
G36*
X085113Y049168D02*
X085015D01*
Y048730*
X085653*
X085635Y048819*
X085513Y049003*
X085330Y049125*
X085113Y049168*
G37*
G36*
X084761D02*
X084663D01*
X084447Y049125*
X084264Y049003*
X084142Y048819*
X084124Y048730*
X084761*
Y049168*
G37*
G36*
Y025226D02*
X084124D01*
X084142Y025137*
X084264Y024954*
X084447Y024831*
X084663Y024788*
X084761*
Y025226*
G37*
G36*
X083903Y023311D02*
X083065D01*
Y022873*
X083363*
X083580Y022916*
X083763Y023039*
X083885Y023222*
X083903Y023311*
G37*
G36*
X085653Y025226D02*
X085015D01*
Y024788*
X085113*
X085330Y024831*
X085513Y024954*
X085635Y025137*
X085653Y025226*
G37*
G36*
X085113Y025918D02*
X085015D01*
Y025480*
X085653*
X085635Y025569*
X085513Y025753*
X085330Y025875*
X085113Y025918*
G37*
G36*
X084761D02*
X084663D01*
X084447Y025875*
X084264Y025753*
X084142Y025569*
X084124Y025480*
X084761*
Y025918*
G37*
%LNgrb_top_layer-4*%
%LPC*%
G36*
X037859Y020709D02*
X037811Y020756D01*
X037577Y020961*
X037558Y020972*
X037542Y020978*
X038285Y021371*
X038279Y021341*
X038278Y021309*
X038283Y021275*
X038294Y021240*
X038311Y021202*
X038333Y021163*
X038361Y021121*
X038395Y021078*
X038435Y021033*
X038480Y020986*
X037859Y020709*
G37*
%LNgrb_top_layer-5*%
%LPD*%
G36*
X108753Y037553D02*
X107572D01*
X107625Y037379*
X107788Y037074*
X108007Y036807*
X108274Y036588*
X108579Y036425*
X108753Y036372*
Y037553*
G37*
G36*
X110935D02*
X109753D01*
Y036372*
X109928Y036425*
X110233Y036588*
X110500Y036807*
X110719Y037074*
X110882Y037379*
X110935Y037553*
G37*
G36*
X109753Y039734D02*
Y038553D01*
X110935*
X110882Y038728*
X110719Y039032*
X110500Y039299*
X110233Y039519*
X109928Y039681*
X109753Y039734*
G37*
G36*
X108753D02*
X108579Y039681D01*
X108274Y039519*
X108007Y039299*
X107788Y039032*
X107625Y038728*
X107572Y038553*
X108753*
Y039734*
G37*
G36*
X110935Y037553D02*
X109753D01*
Y036372*
X109928Y036425*
X110233Y036588*
X110500Y036807*
X110719Y037074*
X110882Y037379*
X110935Y037553*
G37*
G36*
X108753D02*
X107572D01*
X107625Y037379*
X107788Y037074*
X108007Y036807*
X108274Y036588*
X108579Y036425*
X108753Y036372*
Y037553*
G37*
G36*
Y039734D02*
X108579Y039681D01*
X108274Y039519*
X108007Y039299*
X107788Y039032*
X107625Y038728*
X107572Y038553*
X108753*
Y039734*
G37*
G36*
X109753D02*
Y038553D01*
X110935*
X110882Y038728*
X110719Y039032*
X110500Y039299*
X110233Y039519*
X109928Y039681*
X109753Y039734*
G37*
%LNgrb_top_layer-6*%
%LPC*%
G54D62*
X032713Y030553D02*
Y036303D01*
Y030553D02*
X033793Y029473D01*
X032713Y036303D02*
X033463Y037053D01*
Y031053D02*
Y035803D01*
Y031053D02*
X033713Y030803D01*
X033463Y035803D02*
X033713Y036053D01*
X033463Y037053D02*
X043213D01*
X033713Y030803D02*
X036173D01*
X033713Y036053D02*
X043213D01*
X033793Y029473D02*
X034963D01*
Y024303D02*
Y024393D01*
Y024303D02*
X036213Y023053D01*
X034963Y024393D02*
X036163Y025593D01*
X034963Y032013D02*
X036253Y033303D01*
X034963Y046723D02*
X035263D01*
X034963D02*
X036293Y048053D01*
X034963Y049263D02*
X036163Y050463D01*
X034963Y051803D02*
D01*
X036213Y053053D01*
X036163Y025593D02*
X040753D01*
X036163Y050463D02*
X038803D01*
X036173Y030803D02*
X037503Y029473D01*
X036213Y023053D02*
X038213D01*
X036213Y053053D02*
X038963D01*
X036253Y033303D02*
X039363D01*
X036293Y048053D02*
X038213D01*
X037503Y024393D02*
X044553D01*
X037503Y032013D02*
X039734D01*
X037503Y046723D02*
X038813Y045413D01*
X037503Y049263D02*
X038503D01*
G54D64*
X037713Y021303D02*
Y021553D01*
Y021303D02*
X038413Y020603D01*
G54D62*
X038213Y023053D02*
X038713Y023553D01*
X038213Y048053D02*
X039463Y046803D01*
G54D64*
X038413Y020603D02*
X042138D01*
G54D62*
X038503Y049263D02*
X040213Y047553D01*
X038713Y023553D02*
X044713D01*
X038803Y050463D02*
X041213Y048053D01*
X038813Y044203D02*
Y045413D01*
Y044203D02*
X042713Y040303D01*
X038963Y053053D02*
X041964Y050053D01*
X039363Y033303D02*
X041538Y031128D01*
X039463Y044553D02*
Y046803D01*
Y044553D02*
X042963Y041053D01*
X039734Y032013D02*
X041269Y030478D01*
G54D63*
X040213Y022303D02*
X040413Y022503D01*
G54D62*
X040213Y044803D02*
Y047553D01*
Y044803D02*
X043239Y041778D01*
G54D63*
X040413Y022503D02*
X042138D01*
G54D62*
X040753Y025593D02*
X041713Y026553D01*
X041213Y044803D02*
Y048053D01*
Y044803D02*
X043463Y042553D01*
X041269Y030478D02*
X045219D01*
X041538Y031128D02*
X044950D01*
X041713Y026553D02*
Y028053D01*
D01*
X041964Y033078D02*
X042688D01*
X041964Y034528D02*
X042188Y034303D01*
X041964Y045303D02*
Y050053D01*
Y045303D02*
X043963Y043303D01*
X042188Y034303D02*
X042713D01*
X042688Y033078D02*
X043463Y032303D01*
X042713Y040303D02*
X043923D01*
X042713Y034303D02*
X043488Y033528D01*
X042963Y041053D02*
X047963D01*
X043213Y026553D02*
X044213D01*
X043213Y036053D02*
X045263Y034003D01*
X043213Y037053D02*
X045463Y034803D01*
X043239Y041778D02*
X048514D01*
X043463Y032303D02*
X043713D01*
X043463Y042553D02*
X048658D01*
X043463Y045553D02*
Y046803D01*
Y045553D02*
X044463Y044553D01*
X043463Y046803D02*
Y054803D01*
X043488Y033528D02*
X043963D01*
X043713Y032303D02*
X043938Y032078D01*
X043923Y040303D02*
X045423Y038803D01*
X043938Y032078D02*
X043963D01*
X044213D01*
X043963Y033528D02*
X044213D01*
X043963Y043303D02*
X050238D01*
X044213Y032078D02*
X044538Y032403D01*
X044213Y033528D02*
X044538Y033203D01*
X044213Y026553D02*
X046463Y028803D01*
X044463Y044553D02*
X045213D01*
X044538Y032403D02*
X046563D01*
X044538Y033203D02*
X046563D01*
X044553Y024393D02*
X048213Y028053D01*
X044713Y023553D02*
X049013Y027853D01*
G54D63*
X044788Y021553D02*
X046713Y023478D01*
G54D62*
X044950Y031128D02*
X045425Y031603D01*
X045213Y044553D02*
X050213D01*
X045219Y030478D02*
X045544Y030803D01*
X045263Y034003D02*
X046563D01*
X045423Y038803D02*
X046563D01*
X045425Y031603D02*
X046563D01*
X045463Y034803D02*
X046563D01*
X045544Y030803D02*
X046563D01*
X046463Y028803D02*
Y028803D01*
G54D63*
X046563Y032403D02*
X046584Y032382D01*
G54D65*
X046563Y035603D02*
X047629D01*
X046563Y036403D02*
X047629D01*
G54D63*
X046584Y032382D02*
X049384D01*
X046713Y023478D02*
X047888D01*
G54D62*
X047438Y046778D02*
X047463Y046803D01*
G54D65*
X047629Y035603D02*
X047711Y035686D01*
X047629Y036403D02*
X047711Y036321D01*
X048463D01*
X047711Y035686D02*
X048463D01*
G54D63*
X047888Y023478D02*
X047963Y023553D01*
Y020553D02*
X048213D01*
G54D62*
X047963Y041053D02*
X048213Y040803D01*
G54D63*
X048213Y020553D02*
X048963Y019803D01*
G54D62*
X048213Y028053D02*
Y029153D01*
Y040453D02*
Y040803D01*
G54D65*
X048463Y035686D02*
X048713Y035436D01*
X048463Y036321D02*
X048713Y036571D01*
G54D62*
X048514Y041778D02*
X048938Y041353D01*
X048658Y042553D02*
X049738Y041473D01*
G54D65*
X048713Y035276D02*
Y035436D01*
Y036571D02*
Y036730D01*
G54D62*
X048938Y040528D02*
Y041353D01*
Y040528D02*
X049013Y040453D01*
G54D63*
X048963Y019803D02*
X056213D01*
G54D62*
X049013Y027853D02*
Y029153D01*
G54D63*
X049384Y032382D02*
X049463Y032303D01*
G54D62*
X049463Y032303D02*
X049763D01*
X049738Y040528D02*
Y041473D01*
Y040528D02*
X049813Y040453D01*
X049763Y032303D02*
X049863Y032403D01*
G54D63*
X049988Y032528D02*
X050713Y033253D01*
X049988Y032528D02*
X052213Y030303D01*
G54D62*
X050213Y044553D02*
X051213Y045553D01*
X050238Y043303D02*
X050613Y042928D01*
G54D63*
X050613Y038403D02*
Y040453D01*
Y038403D02*
X050713Y038303D01*
X050613Y040453D02*
Y042928D01*
X050713Y033253D02*
Y038303D01*
X055113D01*
G54D62*
X051063Y024303D02*
X051213Y024453D01*
Y026803D01*
X051413Y027003D01*
Y029153D01*
Y040453D02*
Y043028D01*
X051689Y043303D01*
X051963Y031803D02*
Y032303D01*
Y031803D02*
X053013Y030753D01*
G54D63*
X052213Y029153D02*
Y030303D01*
Y029153D02*
X052217Y029149D01*
G54D62*
X052213Y040453D02*
Y042053D01*
X056713Y046553D01*
G54D63*
X052217Y027799D02*
Y029149D01*
Y027799D02*
X052463Y027553D01*
Y027003D02*
Y027553D01*
Y027003D02*
X052663Y026803D01*
Y024503D02*
Y025553D01*
G54D62*
X052663Y024503D02*
X052863Y024303D01*
G54D63*
X052663Y025553D02*
Y026803D01*
Y025553D02*
X063463D01*
G54D62*
X052713Y033303D02*
Y035053D01*
Y033303D02*
X053213Y032803D01*
G54D63*
X052863Y021553D02*
Y024303D01*
G54D62*
X052863Y021553D02*
X053424Y022113D01*
X053013Y029153D02*
Y030753D01*
Y040453D02*
Y041853D01*
X055713Y044553D01*
X053213Y031553D02*
Y032803D01*
Y031553D02*
X053813Y030953D01*
G54D65*
X053240Y045603D02*
Y046580D01*
X054213Y047553D01*
G54D63*
X053424Y022113D02*
X055423D01*
G54D62*
X053813Y029153D02*
Y030953D01*
Y040453D02*
Y041653D01*
X055463Y043303D01*
X054213Y031818D02*
Y033553D01*
Y031818D02*
X054613Y031418D01*
X054213Y033553D02*
X054464Y033803D01*
G54D65*
X054213Y047553D02*
X055404D01*
G54D62*
X054613Y029153D02*
Y031418D01*
Y040453D02*
Y041453D01*
X055713Y042553D01*
G54D65*
X054713Y046303D02*
X055052D01*
X056763Y048015D01*
G54D63*
X055113Y038303D02*
X056213Y037203D01*
G54D65*
X055404Y047553D02*
X055963Y048113D01*
G54D62*
X055413Y029153D02*
Y032003D01*
Y029153D02*
X055463Y029203D01*
X055413Y032003D02*
X055463Y032053D01*
X055413Y040453D02*
Y041334D01*
X055883Y041803D01*
X055463Y032053D02*
Y032303D01*
Y043303D02*
X057213D01*
G54D63*
X055463Y052053D02*
X055963Y051553D01*
G54D62*
X055713Y042553D02*
X057713D01*
X055713Y044553D02*
X056963D01*
X055883Y041803D02*
X063713D01*
G54D63*
X055963Y051553D02*
X056976D01*
G54D65*
X055963Y048113D02*
Y049553D01*
G54D63*
X056213Y019803D02*
X056903Y020493D01*
G54D62*
X056213Y029153D02*
X056613D01*
G54D63*
X056213Y037203D02*
X057863D01*
G54D62*
X056213Y040453D02*
Y041103D01*
X063163D01*
X056613Y029153D02*
X057713Y028053D01*
G54D63*
X056713Y022303D02*
Y023803D01*
Y022303D02*
X056903Y022113D01*
X056713Y023803D02*
X056929Y024018D01*
G54D62*
X056713Y046553D02*
X057463D01*
G54D65*
X056763Y048015D02*
Y049553D01*
G54D63*
X056903Y020493D02*
Y022113D01*
X057963D01*
X056929Y024018D02*
X057963D01*
X056976Y051553D02*
X057517Y051012D01*
G54D62*
X057213Y043303D02*
X058213Y044303D01*
X057517Y051012D02*
X057563Y050966D01*
G54D63*
X057563Y049553D02*
Y050966D01*
G54D62*
X057713Y027553D02*
Y028053D01*
Y042553D02*
X059213Y044053D01*
X057863Y030403D02*
Y030803D01*
Y030403D02*
X058713Y029553D01*
X057863Y031603D02*
X058913D01*
X057863Y032403D02*
X057939Y032328D01*
X057863Y036403D02*
X059888D01*
X057863Y037203D02*
X059888D01*
X057863Y038003D02*
X058913D01*
X057863Y038803D02*
X058463D01*
X057939Y032328D02*
X059108D01*
G54D63*
X057963Y022113D02*
X058003Y022153D01*
G54D62*
X057963Y023053D02*
X058963D01*
G54D63*
X058003Y022153D02*
X060714D01*
G54D62*
X058213Y044303D02*
Y045553D01*
X060213Y047553D01*
X058463Y038803D02*
X059463Y039803D01*
X058913Y031603D02*
X059914Y030603D01*
X058913Y038003D02*
X059463Y038553D01*
X058963Y023053D02*
X059863Y023953D01*
X059108Y032328D02*
X060563Y030872D01*
X059213Y044053D02*
Y045303D01*
X060713Y046803D01*
X059463Y038553D02*
X064463D01*
X059463Y039803D02*
X060463D01*
X059863Y023953D02*
X060714D01*
X059888Y036403D02*
X060213Y036078D01*
X059888Y037203D02*
X060213Y037528D01*
X059914Y027853D02*
Y030603D01*
Y027853D02*
X059963Y027803D01*
X060213Y034553D02*
X064713Y030053D01*
X060213Y036078D02*
X060688D01*
X060213Y037528D02*
X061488D01*
X060213Y043053D02*
Y045053D01*
X060963Y045803D01*
X060213Y047553D02*
X064213D01*
X060563Y029534D02*
Y030872D01*
Y029534D02*
X061713Y028384D01*
X060688Y036078D02*
X061963Y034803D01*
X060713Y046803D02*
X064713D01*
X060963Y045803D02*
X064963D01*
X061488Y037528D02*
X061963Y037053D01*
X061713Y027553D02*
Y028384D01*
Y044553D02*
X064963D01*
X062763Y054003D02*
Y055803D01*
Y054003D02*
X064213Y052553D01*
X063163Y041103D02*
X067713Y036553D01*
X063463Y034803D02*
Y037053D01*
Y034803D02*
D01*
G54D63*
X063463Y025553D02*
X064213Y024803D01*
G54D62*
X063713Y041803D02*
X068463Y037053D01*
X064213Y052053D02*
Y052553D01*
Y047553D02*
X068363Y051703D01*
X064463Y038553D02*
X066964Y036053D01*
X064463Y055303D02*
X064713D01*
Y028303D02*
Y030053D01*
Y028303D02*
X067213Y025803D01*
X064713Y046803D02*
X068963Y051053D01*
X064713Y055303D02*
X064963Y055553D01*
Y044553D02*
X069713Y049303D01*
X064963Y045803D02*
X069463Y050303D01*
X064963Y055553D02*
X065713Y056303D01*
X065463Y028803D02*
Y032803D01*
Y028803D02*
X067813Y026453D01*
X065463Y032803D02*
X066964Y034303D01*
X065713Y056303D02*
X067963D01*
X066213Y029134D02*
Y032553D01*
Y029134D02*
X067544Y027803D01*
X066213Y032553D02*
X067713Y034053D01*
X066964Y029303D02*
Y032053D01*
Y029303D02*
X067713Y028553D01*
X066964Y032053D02*
X068463Y033553D01*
X066964Y034303D02*
Y036053D01*
X067213Y025803D02*
X072025D01*
X067213Y055053D02*
X068863Y053403D01*
X067544Y027803D02*
X073463D01*
X067713Y028553D02*
X073714D01*
X067713Y034053D02*
Y036553D01*
X067813Y026453D02*
X072294D01*
X067963Y056303D02*
X068963Y055303D01*
X068213Y031553D02*
X068464D01*
X068363Y051703D02*
X073733D01*
X068463Y033553D02*
Y037053D01*
X068464Y031553D02*
X068714Y031803D01*
X070363Y030153D01*
X068863Y053403D02*
X071213D01*
X068963Y054803D02*
Y055303D01*
Y051053D02*
X073213D01*
X069213Y022553D02*
X069313Y022653D01*
X069213Y045803D02*
X069313Y045903D01*
Y022653D02*
X071213D01*
X069313Y045903D02*
X071213D01*
X069463Y050303D02*
X072713D01*
X069713Y049303D02*
X072213D01*
X070363Y030153D02*
X071213D01*
Y022653D02*
X072538D01*
G54D63*
X071213Y024453D02*
X071288Y024528D01*
G54D62*
X071213Y030153D02*
X073038D01*
G54D63*
X071213Y031953D02*
X073388D01*
G54D62*
X071213Y045903D02*
X072538D01*
G54D63*
X071213Y047703D02*
X071288Y047778D01*
G54D62*
X071213Y053403D02*
X073038D01*
G54D63*
X071213Y055203D02*
X073388D01*
X071288Y024528D02*
X072963D01*
X071288Y047778D02*
X072963D01*
G54D62*
X072025Y025803D02*
X072325Y025503D01*
X072213Y049303D02*
X072763Y048753D01*
X072294Y026453D02*
X072594Y026153D01*
X072325Y025503D02*
X079013D01*
X072538Y022653D02*
X072963Y023078D01*
X072538Y045903D02*
X072963Y046328D01*
X072594Y026153D02*
X079363D01*
X072713Y050303D02*
X073613Y049403D01*
X072763Y048753D02*
X079013D01*
G54D63*
X072963Y024528D02*
X074033D01*
X072963Y047778D02*
X074033D01*
G54D62*
X073038Y030153D02*
X073463Y030578D01*
X073038Y053403D02*
X073463Y053828D01*
X073213Y051053D02*
X074213Y050053D01*
G54D63*
X073388Y031953D02*
X073463Y032028D01*
X073388Y055203D02*
X073463Y055278D01*
G54D62*
X073463Y027803D02*
X074463Y026803D01*
X073463Y030578D02*
X073963Y031078D01*
G54D63*
X073463Y032028D02*
X074342Y032907D01*
G54D62*
X073463Y053828D02*
X073963Y054328D01*
G54D63*
X073463Y055278D02*
X074342Y056157D01*
G54D62*
X073613Y049403D02*
X079363D01*
X073714Y028553D02*
X074713Y027553D01*
X073733Y051703D02*
X074633Y050803D01*
X073963Y031078D02*
X074463D01*
X073963Y054328D02*
X074463D01*
G54D63*
X074033Y024528D02*
X074213Y024708D01*
X074033Y047778D02*
X074213Y047958D01*
Y020803D02*
Y024708D01*
Y020803D02*
X074963Y020053D01*
X074213Y024708D02*
X077488D01*
X074213Y044053D02*
Y047958D01*
Y044053D02*
X074963Y043303D01*
X074213Y047958D02*
X077488D01*
G54D62*
X074213Y050053D02*
X078713D01*
G54D63*
X074342Y032907D02*
X076421D01*
X074342Y056157D02*
X076421D01*
G54D62*
X074463Y026803D02*
X078713D01*
X074463Y031078D02*
X075188Y031803D01*
X074463Y054328D02*
X075188Y055053D01*
X074633Y050803D02*
X078463D01*
X074713Y027553D02*
X078463D01*
G54D63*
X074963Y020053D02*
X083713D01*
X074963Y043303D02*
X087713D01*
G54D62*
X075188Y031803D02*
X075713D01*
X075188Y055053D02*
X075713D01*
X075213Y021328D02*
X075338Y021203D01*
X075213Y022778D02*
X075338Y022903D01*
X075213Y044578D02*
X075338Y044453D01*
X075213Y046028D02*
X075338Y046153D01*
X075463Y021328D02*
X075893Y020898D01*
X075463Y022778D02*
X076123Y023438D01*
X075463Y028828D02*
X075938Y028353D01*
X075463Y030278D02*
X075673D01*
X075463Y044578D02*
X075893Y044148D01*
X075463Y046028D02*
X076123Y046688D01*
X075463Y052078D02*
X075938Y051603D01*
X075463Y053528D02*
X075673D01*
Y030278D02*
X076288Y030893D01*
X075673Y053528D02*
X076288Y054143D01*
X075893Y020898D02*
X077488D01*
X075893Y044148D02*
X077488D01*
X075938Y028353D02*
X077447D01*
X075938Y051603D02*
X077447D01*
X076123Y023438D02*
X077488D01*
X076123Y046688D02*
X077488D01*
X076288Y030893D02*
X077447D01*
X076288Y054143D02*
X077447D01*
G54D63*
X076421Y032907D02*
X077067Y032260D01*
X076421Y056157D02*
X077067Y055510D01*
Y032163D02*
Y032260D01*
Y032163D02*
X077447D01*
X077067Y055413D02*
Y055510D01*
Y055413D02*
X077447D01*
G54D62*
X077197Y022123D02*
X077488D01*
X077197Y045373D02*
X077488D01*
X077447Y028353D02*
X078263D01*
X077447Y029623D02*
X079283D01*
G54D63*
X077447Y032163D02*
X078573D01*
G54D62*
X077447Y051603D02*
X078263D01*
X077447Y052873D02*
X079283D01*
G54D63*
X077447Y055413D02*
X078573D01*
G54D62*
X077488Y020898D02*
X078308D01*
X077488Y022168D02*
X078078D01*
X077488Y044148D02*
X078308D01*
X077488Y045418D02*
X078078D01*
Y022168D02*
X078963Y023053D01*
X078078Y045418D02*
X078963Y046303D01*
X078263Y028353D02*
X078563Y028653D01*
X078263Y051603D02*
X078563Y051903D01*
X078308Y020898D02*
X079339Y021928D01*
X078308Y044148D02*
X079339Y045178D01*
X078463Y027553D02*
X078913Y028003D01*
X078463Y050803D02*
X078913Y051253D01*
X078563Y028653D02*
X080313D01*
X078563Y051903D02*
X080313D01*
G54D63*
X078573Y032163D02*
X078609Y032199D01*
X078573Y055413D02*
X078609Y055449D01*
Y032199D02*
Y032260D01*
X079316Y032967D01*
X078609Y055449D02*
Y055510D01*
X079316Y056217D01*
G54D62*
X078713Y026803D02*
X079263Y027353D01*
X078713Y050053D02*
X079263Y050603D01*
X078913Y028003D02*
X081663D01*
X078913Y051253D02*
X081663D01*
X078963Y023053D02*
Y023303D01*
X079213Y023553D01*
X078963Y046303D02*
Y046553D01*
X079213Y046803D01*
X079013Y025503D02*
X080263Y024253D01*
X079013Y048753D02*
X080263Y047503D01*
X079213Y023553D02*
X079213Y023553D01*
X079213Y046803D02*
X079213Y046803D01*
X079263Y027353D02*
X083513D01*
X079263Y050603D02*
X083513D01*
X079283Y029623D02*
X079463Y029803D01*
X079283Y052873D02*
X079463Y053053D01*
G54D63*
X079316Y032967D02*
X087049D01*
X079316Y056217D02*
X087049D01*
G54D62*
X079339Y021928D02*
X079463Y022053D01*
X079339Y045178D02*
X079463Y045303D01*
X079363Y026153D02*
X080963Y024553D01*
X079363Y049403D02*
X080963Y047803D01*
X079463Y022053D02*
X079713D01*
X079463Y045303D02*
X079713D01*
X079713Y031803D02*
X080623Y030893D01*
X079713Y055053D02*
X080623Y054143D01*
X080263Y023253D02*
Y024253D01*
Y023253D02*
X080956Y022561D01*
X080263Y046503D02*
Y047503D01*
Y046503D02*
X080956Y045811D01*
X080313Y028653D02*
X080963Y029303D01*
X080313Y051903D02*
X080963Y052553D01*
X080623Y030893D02*
X082897D01*
X080623Y054143D02*
X082897D01*
X080956Y021561D02*
Y022561D01*
Y021561D02*
X081618Y020898D01*
X080956Y044811D02*
Y045811D01*
Y044811D02*
X081618Y044148D01*
X080963Y023553D02*
Y024553D01*
Y023553D02*
X082348Y022168D01*
X080963Y026303D02*
X083938D01*
X080963Y046803D02*
Y047803D01*
Y046803D02*
X082348Y045418D01*
X080963Y049553D02*
X083938D01*
X081618Y020898D02*
X082938D01*
X081618Y044148D02*
X082938D01*
X081663Y028003D02*
X082013Y028353D01*
X081663Y051253D02*
X082013Y051603D01*
X081713Y024053D02*
Y025303D01*
Y024053D02*
X082328Y023438D01*
X081713Y025303D02*
X081913Y025503D01*
X081713Y047303D02*
Y048553D01*
Y047303D02*
X082328Y046688D01*
X081713Y048553D02*
X081913Y048753D01*
Y025503D02*
X084739D01*
X081913Y048753D02*
X084739D01*
X082013Y028353D02*
X082897D01*
X082013Y051603D02*
X082897D01*
X082328Y023438D02*
X082938D01*
X082328Y046688D02*
X082938D01*
X082348Y022168D02*
X082938D01*
X082348Y045418D02*
X082938D01*
X082897Y029623D02*
X083393D01*
X082897Y032163D02*
X083853D01*
X082897Y052873D02*
X083393D01*
X082897Y055413D02*
X083853D01*
X082938Y024708D02*
X083558D01*
X082938Y047958D02*
X083558D01*
X083393Y029623D02*
X084072Y028944D01*
X083393Y052873D02*
X084072Y052194D01*
X083513Y027353D02*
X084072Y027912D01*
X083513Y050603D02*
X084072Y051162D01*
X083558Y024708D02*
X084214Y024053D01*
X083558Y047958D02*
X083713Y047803D01*
G54D63*
X083713Y020053D02*
X084713Y021053D01*
G54D62*
X083713Y047803D02*
X086713D01*
X083853Y032163D02*
X084373Y031643D01*
X083853Y055413D02*
X084373Y054893D01*
X083938Y026303D02*
X084888Y027253D01*
X083938Y049553D02*
X084888Y050503D01*
X084072Y027912D02*
Y028944D01*
Y051162D02*
Y052194D01*
X084214Y024053D02*
X086713D01*
X084373Y031643D02*
X086843D01*
X084373Y054893D02*
X086843D01*
X084463Y036053D02*
Y038303D01*
G54D63*
X084713Y021053D02*
X085652D01*
G54D62*
X084739Y025503D02*
X084888Y025353D01*
X084739Y048753D02*
X084888Y048603D01*
Y027253D02*
X085763D01*
X084888Y050503D02*
X085763D01*
G54D63*
X085652Y021053D02*
X086402Y021803D01*
G54D62*
X085763Y027253D02*
X086713Y026303D01*
X085763Y050503D02*
X086713Y049553D01*
G54D63*
X085963Y038303D02*
X091713D01*
G54D62*
X086213Y020303D02*
X086285Y020375D01*
X086213Y020303D02*
X086463Y020053D01*
X086285Y020375D02*
X086642D01*
G54D63*
X086402Y021803D02*
X088213D01*
G54D62*
X086463Y020053D02*
Y020196D01*
Y020053D02*
X086463Y020054D01*
X086463Y020196D02*
X086463Y020197D01*
Y020053D02*
Y020054D01*
Y020053D02*
X086713Y020303D01*
X086463Y020054D02*
Y020197D01*
Y020303D01*
Y020197D02*
X086642Y020375D01*
X086713Y031553D02*
X086753D01*
X086713Y054803D02*
X086753D01*
X086713Y020303D02*
X087213Y019803D01*
X086713Y026303D02*
X087538D01*
X086713Y049553D02*
X087538D01*
X086753Y031553D02*
X086843Y031643D01*
X086753Y054803D02*
X086843Y054893D01*
G54D63*
X087049Y032967D02*
X087808Y032208D01*
X087049Y056217D02*
X087808Y055458D01*
G54D62*
X087213Y019803D02*
X111714D01*
G54D63*
X087713Y043303D02*
X088504Y044094D01*
X087808Y032208D02*
X088504D01*
X087808Y055458D02*
X088504D01*
X088213Y021803D02*
X088504Y021512D01*
X088213Y021803D02*
X088504Y022094D01*
Y020898D02*
Y021512D01*
Y022094D02*
Y022168D01*
Y023438D01*
Y044094D02*
Y044148D01*
Y045418D01*
Y046688D01*
G54D62*
X090713Y027303D02*
X107463D01*
X090713Y050553D02*
X107463D01*
X093713Y025803D02*
Y026053D01*
Y025803D02*
X094808Y024708D01*
X093713Y032803D02*
X094213D01*
X093713Y049053D02*
Y049303D01*
Y049053D02*
X094808Y047958D01*
X093713Y056053D02*
X094213D01*
Y032803D02*
X094808Y032208D01*
X094213Y056053D02*
X094808Y055458D01*
Y024708D02*
X095904D01*
X094808Y047958D02*
X095904D01*
X094808Y032208D02*
X095904D01*
X094808Y055458D02*
X095904D01*
Y020898D02*
Y022168D01*
Y020898D02*
X097808D01*
X095904Y022168D02*
Y023438D01*
Y044148D02*
X097808D01*
X095904Y051648D02*
Y052918D01*
X096539Y053553D01*
X095904Y054188D02*
X096539Y053553D01*
X097963D01*
X097808Y020898D02*
X097963Y021053D01*
X097808Y044148D02*
X097963Y044303D01*
Y021053D02*
Y022803D01*
Y021053D02*
X098118Y020898D01*
X097963Y022803D02*
Y024553D01*
Y044303D02*
Y046053D01*
Y047803D01*
Y051803D02*
Y053553D01*
Y055303D01*
X098118Y020898D02*
X100004D01*
G54D11*
X098463Y038065D02*
X099479D01*
X098971Y038573D02*
Y037557D01*
G54D62*
X100004Y020898D02*
Y022168D01*
Y051648D02*
Y052918D01*
Y054188D01*
G54D63*
X103923Y038303D02*
X104173Y038053D01*
G54D62*
X105213Y025303D02*
X105713D01*
X105213Y032803D02*
X105713D01*
X105213Y042553D02*
X106213D01*
X105213Y048553D02*
X105713D01*
X105213Y056053D02*
X105713D01*
Y025303D02*
X106308Y024708D01*
X105713Y032803D02*
X106308Y032208D01*
X105713Y048553D02*
X106308Y047958D01*
X105713Y056053D02*
X106308Y055458D01*
X106213Y042553D02*
X106713Y043053D01*
X106308Y024708D02*
X107404D01*
X106308Y032208D02*
X107404D01*
X106308Y047958D02*
X107404D01*
X106308Y055458D02*
X107404D01*
X106713Y043053D02*
X108463D01*
X107404Y027362D02*
Y028398D01*
Y027362D02*
X107463Y027303D01*
X107404Y051648D02*
X107463Y051589D01*
Y050553D02*
Y051589D01*
Y050553D02*
X108713D01*
X108463Y043053D02*
X109763Y044353D01*
X108713Y050553D02*
X110463Y048803D01*
X109763Y044353D02*
X110463D01*
Y032003D02*
X110763D01*
X110463Y046253D02*
Y048803D01*
X110763Y032003D02*
X112713Y030053D01*
X111714Y019803D02*
X112713Y020803D01*
Y030053D01*
G54D68*
X034963Y024393D03*
Y026933D03*
Y029473D03*
Y032013D03*
G54D67*
X034963Y034553D03*
G54D68*
X034963Y046723D03*
Y049263D03*
G54D67*
X034963Y051803D03*
G54D68*
X037503Y024393D03*
Y026933D03*
Y029473D03*
Y032013D03*
Y034553D03*
Y046723D03*
Y049263D03*
Y051803D03*
G54D21*
X041713Y026553D03*
G54D20*
X041964Y033078D03*
Y034528D03*
G54D28*
X042138Y020603D03*
G54D27*
X042138Y022503D03*
G54D21*
X043213Y026553D03*
G54D19*
X043463Y046803D03*
Y054803D03*
G54D20*
X043963Y032078D03*
Y033528D03*
G54D28*
X044788Y021553D03*
G54D35*
X046563Y030803D03*
Y031603D03*
Y032403D03*
Y033203D03*
Y034003D03*
Y034803D03*
Y035603D03*
Y036403D03*
Y037203D03*
Y038003D03*
Y038803D03*
G54D25*
X047963Y020553D03*
Y023553D03*
G54D19*
X047963Y046803D03*
Y054803D03*
G54D36*
X048213Y029153D03*
Y040453D03*
X049013Y029153D03*
Y040453D03*
X049813Y029153D03*
Y040453D03*
G54D23*
X050238Y043303D03*
G54D36*
X050613Y029153D03*
Y040453D03*
G54D22*
X051063Y021553D03*
Y024303D03*
G54D23*
X051213Y026803D03*
G54D20*
X051213Y045553D03*
Y047003D03*
G54D36*
X051413Y029153D03*
Y040453D03*
G54D18*
X051563Y049553D03*
Y055053D03*
G54D23*
X051689Y043303D03*
G54D36*
X052213Y029153D03*
Y040453D03*
G54D23*
X052663Y026803D03*
G54D22*
X052863Y021553D03*
Y024303D03*
G54D36*
X053013Y029153D03*
Y040453D03*
G54D66*
X053763Y052153D03*
G54D36*
X053813Y029153D03*
Y040453D03*
G54D17*
X054364Y049553D03*
G54D36*
X054613Y029153D03*
Y040453D03*
G54D17*
X055163Y049553D03*
G54D36*
X055413Y029153D03*
Y040453D03*
G54D26*
X055423Y022113D03*
Y024018D03*
G54D17*
X055963Y049553D03*
G54D36*
X056213Y029153D03*
Y040453D03*
G54D17*
X056763Y049553D03*
X057563D03*
G54D35*
X057863Y030803D03*
Y031603D03*
Y032403D03*
Y033203D03*
Y034003D03*
Y034803D03*
Y035603D03*
Y036403D03*
Y037203D03*
Y038003D03*
Y038803D03*
G54D26*
X057963Y022113D03*
Y024018D03*
Y023053D03*
G54D66*
X058163Y052153D03*
G54D20*
X060213Y036078D03*
Y037528D03*
G54D18*
X060363Y049553D03*
Y055053D03*
G54D24*
X060714Y022153D03*
Y023953D03*
G54D21*
X061963Y037053D03*
Y034803D03*
X063463Y037053D03*
Y034803D03*
G54D24*
X071213Y022653D03*
Y024453D03*
Y030153D03*
Y031953D03*
Y045903D03*
Y047703D03*
Y053403D03*
Y055203D03*
G54D20*
X072963Y023078D03*
Y024528D03*
Y046328D03*
Y047778D03*
X073463Y030578D03*
Y032028D03*
Y053828D03*
Y055278D03*
X075463Y021328D03*
Y022778D03*
Y028828D03*
Y030278D03*
Y044578D03*
Y046028D03*
Y052078D03*
Y053528D03*
G54D29*
X077447Y028353D03*
Y029623D03*
Y030893D03*
G54D30*
X077447Y032163D03*
G54D29*
X077447Y051603D03*
Y052873D03*
Y054143D03*
G54D30*
X077447Y055413D03*
G54D29*
X077488Y020898D03*
Y022168D03*
Y023438D03*
G54D30*
X077488Y024708D03*
G54D29*
X077488Y044148D03*
Y045418D03*
Y046688D03*
G54D30*
X077488Y047958D03*
G54D29*
X082897Y028353D03*
Y029623D03*
Y030893D03*
Y032163D03*
Y051603D03*
Y052873D03*
Y054143D03*
Y055413D03*
X082938Y020898D03*
Y022168D03*
Y023438D03*
Y024708D03*
Y044148D03*
Y045418D03*
Y046688D03*
Y047958D03*
G54D21*
X084463Y036053D03*
Y038303D03*
G54D28*
X084888Y025353D03*
G54D27*
X084888Y027253D03*
G54D28*
X084888Y048603D03*
G54D27*
X084888Y050503D03*
G54D21*
X085963Y036053D03*
Y038303D03*
G54D28*
X087538Y026303D03*
Y049553D03*
G54D34*
X088504Y020898D03*
Y022168D03*
Y023438D03*
Y024708D03*
Y028398D03*
Y029668D03*
Y030938D03*
Y032208D03*
Y044148D03*
Y045418D03*
Y046688D03*
Y047958D03*
Y051648D03*
Y052918D03*
Y054188D03*
Y055458D03*
G54D32*
X091713Y022803D03*
Y030303D03*
Y046053D03*
Y053553D03*
G54D33*
X095904Y020898D03*
G54D34*
X095904Y022168D03*
Y023438D03*
Y024708D03*
G54D33*
X095904Y028398D03*
G54D34*
X095904Y029668D03*
Y030938D03*
Y032208D03*
G54D33*
X095904Y044148D03*
G54D34*
X095904Y045418D03*
Y046688D03*
Y047958D03*
G54D33*
X095904Y051648D03*
G54D34*
X095904Y052918D03*
Y054188D03*
Y055458D03*
X100004Y020898D03*
Y022168D03*
Y023438D03*
Y024708D03*
Y028398D03*
Y029668D03*
Y030938D03*
Y032208D03*
Y044148D03*
Y045418D03*
Y046688D03*
Y047958D03*
Y051648D03*
Y052918D03*
Y054188D03*
Y055458D03*
G54D32*
X103213Y022803D03*
Y030303D03*
Y046053D03*
Y053553D03*
G54D69*
X104173Y038053D03*
G54D33*
X107404Y020898D03*
G54D34*
X107404Y022168D03*
Y023438D03*
Y024708D03*
G54D33*
X107404Y028398D03*
G54D34*
X107404Y029668D03*
Y030938D03*
Y032208D03*
G54D33*
X107404Y044148D03*
G54D34*
X107404Y045418D03*
Y046688D03*
Y047958D03*
G54D33*
X107404Y051648D03*
G54D34*
X107404Y052918D03*
Y054188D03*
Y055458D03*
G54D69*
X109253Y038053D03*
G54D31*
X110463Y030103D03*
Y032003D03*
Y044353D03*
Y046253D03*
G54D69*
X116463Y024013D03*
Y029093D03*
Y047263D03*
Y052343D03*
G54D70*
X036713Y041553D03*
X037713Y021553D03*
X039713Y029803D03*
X040213Y022303D03*
X040292Y054581D03*
X041713Y028053D03*
X045213Y044553D03*
X045713Y050803D03*
X046463Y028803D03*
X048713Y035276D03*
Y036730D03*
X048963Y025803D03*
X049463Y032303D03*
X051963D03*
X052463Y036803D03*
X052713Y035053D03*
X053240Y045603D03*
X054464Y027053D03*
Y033803D03*
X054713Y046303D03*
X055463Y032303D03*
Y052053D03*
X056213Y037203D03*
X056963Y044553D03*
X057463Y046553D03*
X057713Y027553D03*
X057963Y054803D03*
X058713Y029553D03*
X058963Y020553D03*
X059963Y027803D03*
X060213Y034553D03*
Y043053D03*
X060463Y039803D03*
X061713Y027553D03*
Y044553D03*
X062763Y055803D03*
X063963Y049803D03*
X064213Y024803D03*
Y052053D03*
X064463Y055303D03*
X065463Y035303D03*
X067213Y055053D03*
X068213Y031553D03*
X068963Y054803D03*
X069213Y022553D03*
Y045803D03*
X071213Y041053D03*
X075713Y031803D03*
Y055053D03*
X079213Y023553D03*
Y046803D03*
X079213Y036553D03*
X079463Y029803D03*
Y053053D03*
X079713Y022053D03*
Y045303D03*
X079713Y031803D03*
Y055053D03*
X080963Y026303D03*
Y029303D03*
Y049553D03*
Y052553D03*
X085213Y022303D03*
G54D71*
X085463Y045303D03*
G54D70*
X086463Y020303D03*
X086713Y024053D03*
Y031553D03*
Y054803D03*
X086713Y047803D03*
X090713Y027303D03*
Y050553D03*
X093713Y026053D03*
Y032803D03*
Y049303D03*
Y056053D03*
G54D71*
X097963Y021053D03*
Y022803D03*
Y024553D03*
Y028553D03*
Y030303D03*
Y032053D03*
Y046053D03*
Y047803D03*
Y051803D03*
Y053553D03*
Y055303D03*
G54D70*
X105213Y025303D03*
Y032803D03*
Y042553D03*
Y048553D03*
Y056053D03*
M02*