G04 Layer_Physical_Order=2*
G04 Layer_Color=16711680*
%FSLAX25Y25*%
%MOIN*%
G70*
G01*
G75*
%ADD18C,0.02953*%
%ADD20C,0.05905*%
%ADD21R,0.05905X0.05905*%
%ADD22C,0.04724*%
G36*
X155301Y123629D02*
X150949Y122940D01*
X146664Y121911D01*
X142473Y120549D01*
X138402Y118863D01*
X134476Y116862D01*
X130719Y114560D01*
X127154Y111970D01*
X123803Y109108D01*
X120687Y105992D01*
X117825Y102641D01*
X115235Y99076D01*
X112933Y95319D01*
X110933Y91393D01*
X109246Y87322D01*
X107885Y83131D01*
X106856Y78846D01*
X106167Y74494D01*
X105821Y70101D01*
Y67898D01*
Y65694D01*
X106167Y61301D01*
X106856Y56949D01*
X107885Y52664D01*
X109246Y48474D01*
X110933Y44402D01*
X112933Y40476D01*
X115235Y36719D01*
X117825Y33154D01*
X120687Y29803D01*
X123803Y26687D01*
X127154Y23825D01*
X130719Y21235D01*
X134476Y18933D01*
X138402Y16932D01*
X142473Y15246D01*
X146664Y13884D01*
X150949Y12856D01*
X155301Y12166D01*
X159694Y11821D01*
X164101D01*
X168494Y12166D01*
X172846Y12856D01*
X177131Y13884D01*
X181322Y15246D01*
X185393Y16932D01*
X189319Y18933D01*
X193076Y21235D01*
X196641Y23825D01*
X199992Y26687D01*
X203108Y29803D01*
X205970Y33154D01*
X208560Y36719D01*
X210862Y40476D01*
X212863Y44402D01*
X214549Y48473D01*
X215911Y52664D01*
X216940Y56949D01*
X217629Y61301D01*
X217975Y65694D01*
Y67898D01*
Y70101D01*
X217629Y74494D01*
X216940Y78846D01*
X215911Y83131D01*
X214549Y87322D01*
X212863Y91393D01*
X210862Y95319D01*
X208560Y99076D01*
X205970Y102641D01*
X203108Y105992D01*
X199992Y109108D01*
X196641Y111970D01*
X193076Y114560D01*
X189319Y116862D01*
X185393Y118863D01*
X181322Y120549D01*
X177131Y121911D01*
X172846Y122940D01*
X168494Y123629D01*
X164101Y123975D01*
X159694D01*
X155301Y123629D01*
D02*
G37*
%LPC*%
G36*
X177063Y28937D02*
X179936D01*
X179930Y28889D01*
X179532Y27928D01*
X178898Y27102D01*
X178072Y26469D01*
X177111Y26070D01*
X177063Y26064D01*
Y28937D01*
D02*
G37*
G36*
Y33779D02*
X177111Y33772D01*
X178072Y33374D01*
X178898Y32740D01*
X179532Y31915D01*
X179930Y30953D01*
X179936Y30906D01*
X177063D01*
Y33779D01*
D02*
G37*
G36*
X175094Y33779D02*
Y30906D01*
X172222D01*
X172228Y30953D01*
X172626Y31915D01*
X173260Y32740D01*
X174085Y33374D01*
X175047Y33772D01*
X175094Y33779D01*
D02*
G37*
G36*
X172222Y28937D02*
X175094D01*
Y26064D01*
X175047Y26070D01*
X174085Y26469D01*
X173260Y27102D01*
X172626Y27928D01*
X172228Y28889D01*
X172222Y28937D01*
D02*
G37*
G36*
X166079Y33908D02*
X167111Y33772D01*
X168072Y33374D01*
X168898Y32740D01*
X169532Y31915D01*
X169930Y30953D01*
X170066Y29921D01*
X169930Y28889D01*
X169532Y27928D01*
X168898Y27102D01*
X168072Y26469D01*
X167111Y26070D01*
X166079Y25934D01*
X165047Y26070D01*
X164085Y26469D01*
X163260Y27102D01*
X162626Y27928D01*
X162228Y28889D01*
X162092Y29921D01*
X162228Y30953D01*
X162626Y31915D01*
X163260Y32740D01*
X164085Y33374D01*
X165047Y33772D01*
X166079Y33908D01*
D02*
G37*
G36*
X156079D02*
X157111Y33772D01*
X158072Y33374D01*
X158898Y32740D01*
X159531Y31915D01*
X159930Y30953D01*
X160066Y29921D01*
X159930Y28889D01*
X159531Y27928D01*
X158898Y27102D01*
X158072Y26469D01*
X157111Y26070D01*
X156079Y25934D01*
X155047Y26070D01*
X154085Y26469D01*
X153260Y27102D01*
X152626Y27928D01*
X152228Y28889D01*
X152092Y29921D01*
X152228Y30953D01*
X152626Y31915D01*
X153260Y32740D01*
X154085Y33374D01*
X155047Y33772D01*
X156079Y33908D01*
D02*
G37*
G36*
X193441Y111068D02*
X194319Y110953D01*
X195137Y110614D01*
X195839Y110075D01*
X196378Y109373D01*
X196717Y108555D01*
X196832Y107677D01*
X196717Y106799D01*
X196378Y105982D01*
X195839Y105279D01*
X195137Y104740D01*
X194319Y104402D01*
X193441Y104286D01*
X192563Y104402D01*
X191745Y104740D01*
X191208Y105152D01*
X140156D01*
X126871Y91868D01*
Y52699D01*
X144424Y35147D01*
X144977Y34633D01*
X145444Y34259D01*
X145860Y33969D01*
X145991Y33894D01*
X149031D01*
X149422Y33816D01*
X149752Y33595D01*
X149973Y33264D01*
X150051Y32874D01*
Y26969D01*
X149973Y26578D01*
X149752Y26248D01*
X149422Y26026D01*
X149031Y25949D01*
X143126D01*
X142736Y26026D01*
X142405Y26248D01*
X142184Y26578D01*
X142106Y26969D01*
Y30009D01*
X142031Y30140D01*
X141749Y30545D01*
X140998Y31431D01*
X122561Y49868D01*
X122014Y50687D01*
X121822Y51653D01*
Y92913D01*
X122014Y93880D01*
X122561Y94699D01*
X137325Y109462D01*
X138144Y110010D01*
X139110Y110202D01*
X191208D01*
X191745Y110614D01*
X192563Y110953D01*
X193441Y111068D01*
D02*
G37*
G36*
X112732Y54921D02*
X114980D01*
X114685Y54210D01*
X114146Y53508D01*
X113444Y52969D01*
X112732Y52674D01*
Y54921D01*
D02*
G37*
G36*
X160555Y96197D02*
X163789Y96164D01*
X163975Y96138D01*
X164164Y96136D01*
X167368Y95696D01*
X167550Y95647D01*
X167737Y95622D01*
X170860Y94781D01*
X171034Y94709D01*
X171217Y94660D01*
X174209Y93433D01*
X174372Y93339D01*
X174547Y93268D01*
X177360Y91672D01*
X177511Y91559D01*
X177675Y91466D01*
X180265Y89529D01*
X180400Y89397D01*
X180551Y89285D01*
X182876Y87036D01*
X182993Y86888D01*
X183129Y86758D01*
X185152Y84234D01*
X185249Y84073D01*
X185368Y83926D01*
X187056Y81167D01*
X187132Y80995D01*
X187232Y80834D01*
X188558Y77885D01*
X188612Y77704D01*
X188690Y77532D01*
X188991Y76548D01*
X207161D01*
X207316Y76527D01*
X207472Y76531D01*
X208700Y76402D01*
X209003Y76330D01*
X209309Y76273D01*
X210483Y75892D01*
X210765Y75757D01*
X211052Y75638D01*
X212122Y75021D01*
X212368Y74831D01*
X212625Y74655D01*
X213543Y73829D01*
X213745Y73592D01*
X213959Y73366D01*
X214685Y72367D01*
X214833Y72094D01*
X214996Y71828D01*
X215498Y70700D01*
X215587Y70402D01*
X215691Y70108D01*
X215948Y68901D01*
X215972Y68590D01*
X216013Y68281D01*
Y67047D01*
X215972Y66738D01*
X215948Y66428D01*
X215691Y65220D01*
X215587Y64926D01*
X215498Y64628D01*
X214996Y63500D01*
X214833Y63234D01*
X214685Y62961D01*
X213959Y61962D01*
X213745Y61736D01*
X213543Y61499D01*
X212625Y60673D01*
X212368Y60497D01*
X212121Y60307D01*
X211052Y59690D01*
X210765Y59571D01*
X210483Y59437D01*
X209309Y59055D01*
X209003Y58998D01*
X208700Y58926D01*
X207472Y58797D01*
X207316Y58801D01*
X207161Y58780D01*
X188990D01*
X188690Y57796D01*
X188612Y57625D01*
X188558Y57444D01*
X187232Y54494D01*
X187132Y54334D01*
X187056Y54161D01*
X185368Y51402D01*
X185249Y51256D01*
X185152Y51094D01*
X183129Y48570D01*
X182993Y48440D01*
X182876Y48292D01*
X180552Y46043D01*
X180400Y45931D01*
X180265Y45799D01*
X177675Y43862D01*
X177511Y43769D01*
X177360Y43656D01*
X174547Y42060D01*
X174372Y41989D01*
X174209Y41896D01*
X171217Y40668D01*
X171034Y40620D01*
X170860Y40547D01*
X167737Y39706D01*
X167550Y39682D01*
X167368Y39632D01*
X164164Y39192D01*
X163975Y39191D01*
X163789Y39164D01*
X160555Y39132D01*
X160367Y39154D01*
X160179Y39152D01*
X156966Y39527D01*
X156784Y39574D01*
X156596Y39595D01*
X153457Y40373D01*
X153281Y40441D01*
X153098Y40486D01*
X150082Y41654D01*
X149916Y41744D01*
X149740Y41811D01*
X146896Y43350D01*
X146743Y43461D01*
X146576Y43550D01*
X143948Y45435D01*
X143811Y45564D01*
X143657Y45673D01*
X141288Y47875D01*
X141168Y48020D01*
X141029Y48148D01*
X138956Y50631D01*
X138856Y50790D01*
X138734Y50934D01*
X136991Y53659D01*
X136911Y53830D01*
X136809Y53988D01*
X135424Y56911D01*
X135366Y57090D01*
X135284Y57260D01*
X134279Y60334D01*
X134244Y60520D01*
X134184Y60699D01*
X133574Y63875D01*
X133563Y64063D01*
X133527Y64248D01*
X133323Y67476D01*
X133335Y67664D01*
X133323Y67852D01*
X133527Y71080D01*
X133563Y71265D01*
X133575Y71453D01*
X134184Y74630D01*
X134244Y74809D01*
X134279Y74994D01*
X135284Y78068D01*
X135366Y78238D01*
X135424Y78417D01*
X136809Y81340D01*
X136911Y81498D01*
X136991Y81669D01*
X138734Y84394D01*
X138856Y84538D01*
X138956Y84697D01*
X141029Y87180D01*
X141168Y87308D01*
X141288Y87453D01*
X143657Y89655D01*
X143811Y89764D01*
X143948Y89893D01*
X146576Y91778D01*
X146743Y91867D01*
X146896Y91978D01*
X149740Y93517D01*
X149916Y93584D01*
X150082Y93675D01*
X153098Y94842D01*
X153281Y94887D01*
X153457Y94956D01*
X156596Y95734D01*
X156784Y95755D01*
X156966Y95801D01*
X160179Y96176D01*
X160367Y96174D01*
X160555Y96197D01*
D02*
G37*
G36*
X113635Y78150D02*
X115882D01*
Y75902D01*
X115171Y76197D01*
X114468Y76736D01*
X113929Y77438D01*
X113635Y78150D01*
D02*
G37*
G36*
X115882Y82365D02*
Y80118D01*
X113635D01*
X113929Y80830D01*
X114468Y81532D01*
X115171Y82071D01*
X115882Y82365D01*
D02*
G37*
G36*
X117850D02*
X118562Y82071D01*
X119264Y81532D01*
X119803Y80830D01*
X120098Y80118D01*
X117850D01*
Y82365D01*
D02*
G37*
G36*
Y78150D02*
X120098D01*
X119803Y77438D01*
X119264Y76736D01*
X118562Y76197D01*
X117850Y75902D01*
Y78150D01*
D02*
G37*
G36*
X108517Y54921D02*
X110764D01*
Y52674D01*
X110052Y52969D01*
X109350Y53508D01*
X108811Y54210D01*
X108517Y54921D01*
D02*
G37*
G36*
X112732Y59137D02*
X113444Y58842D01*
X114146Y58303D01*
X114685Y57601D01*
X114980Y56890D01*
X112732D01*
Y59137D01*
D02*
G37*
G36*
X110764D02*
Y56890D01*
X108517D01*
X108811Y57601D01*
X109350Y58303D01*
X110052Y58842D01*
X110764Y59137D01*
D02*
G37*
%LPD*%
G36*
X141051Y32861D02*
X141637Y32254D01*
X142558Y31167D01*
X142893Y30687D01*
X143145Y30248D01*
X143313Y29851D01*
X143398Y29497D01*
X143399Y29184D01*
X143317Y28914D01*
X143151Y28685D01*
X147315Y32849D01*
X147086Y32683D01*
X146816Y32601D01*
X146503Y32602D01*
X146149Y32687D01*
X145752Y32855D01*
X145313Y33107D01*
X144833Y33442D01*
X144310Y33861D01*
X143139Y34949D01*
X141051Y32861D01*
D02*
G37*
D18*
X193441Y107677D02*
X139110D01*
X124346Y51653D02*
Y92913D01*
X146079Y29921D02*
X124346Y51653D01*
X139110Y107677D02*
X124346Y92913D01*
D20*
X176079Y29921D02*
D03*
X166079D02*
D03*
X156079D02*
D03*
D21*
X146079D02*
D03*
D22*
X193441Y107677D02*
D03*
X116866Y79134D02*
D03*
X111748Y55905D02*
D03*
M02*
