%FSDAX33Y33*%
%MOMM*%
%SFA1B1*%

%IPPOS*%
%AMD1002*
%
%ADD22C,0.508000*%
%ADD23C,0.254000*%
%ADD24C,1.524000*%
%ADD25C,1.500000*%
%ADD26R,1.500000X1.500000*%
%ADD27C,1.270000*%
%ADD30O,0.599999X2.200001*%
%ADD31R,0.800001X1.050000*%
%LNfilm_bottom-1*%
%LPD*%
G36*
X076199Y076199D02*
X000000D01*
Y000000*
X076199*
Y076199*
G37*
%LNfilm_bottom-2*%
%LPC*%
G36*
X045486Y011454D02*
X044786Y010354D01*
X044886Y010454*
X046486*
X045486Y011454*
G37*
G36*
X049451Y066254D02*
X046386D01*
X047386Y065254*
X047686Y064954*
X049451Y066254*
G37*
G36*
X039753Y052687D02*
X037653Y050587D01*
X037484Y050475*
X037286Y050436*
X037286Y050436*
X036915*
X036897Y050407*
X036967Y050280*
X039323*
X039385Y050407*
X039310Y050505*
X039220Y050722*
X039190Y050954*
X039220Y051186*
X039310Y051402*
X039452Y051588*
X039638Y051730*
X039854Y051820*
X040086Y051850*
X040307Y051821*
X040317Y051831*
X040341Y051966*
X040080Y052227*
X039968Y052395*
X039928Y052594*
Y052722*
X039801Y052760*
X039753Y052687*
G37*
G36*
X046181Y065409D02*
X046263Y065302D01*
X046352Y065086*
X046383Y064854*
X046352Y064622*
X046263Y064405*
X046120Y064220*
X046004Y064131*
Y063322*
X046018Y063320*
X046235Y063230*
X046420Y063088*
X046563Y062902*
X046652Y062686*
X046683Y062454*
X046652Y062222*
X046589Y062068*
X046697Y061997*
X047168Y062468*
Y065105*
X046738Y065536*
X046244*
X046181Y065409*
G37*
G36*
X033096Y059454D02*
X033053Y059238D01*
X032931Y059054*
X032796Y058964*
X032826Y058832*
X032918Y058820*
X033135Y058730*
X033320Y058588*
X033409Y058472*
X033672*
X034841Y059641*
X034817Y059776*
X034807Y059786*
X034586Y059757*
X034354Y059788*
X034138Y059877*
X033952Y060020*
X033863Y060136*
X033096*
Y059454*
G37*
G36*
X037293Y059609D02*
X037320Y059588D01*
X037463Y059402*
X037552Y059186*
X037566Y059081*
X036686*
Y058954*
X036559*
Y058074*
X036541Y058076*
X034298Y055832*
X034130Y055720*
X033931Y055681*
X033096*
Y055581*
X032531*
Y055327*
X033096*
Y054654*
X033053Y054438*
X032931Y054254*
X032855Y054203*
X032851Y054048*
X032963Y053902*
X033052Y053686*
X033083Y053454*
X033064Y053309*
X033076Y053296*
X033126Y053263*
X033796Y052593*
X033829Y052544*
X035113Y051259*
X035263Y051289*
X035310Y051402*
X035452Y051588*
X035638Y051730*
X035854Y051820*
X036086Y051850*
X036318Y051820*
X036535Y051730*
X036720Y051588*
X036809Y051472*
X037072*
X038341Y052741*
X038317Y052876*
X038307Y052886*
X038086Y052857*
X037854Y052888*
X037638Y052977*
X037452Y053120*
X037310Y053305*
X037220Y053522*
X037190Y053754*
X037220Y053986*
X037310Y054202*
X037452Y054388*
X037568Y054477*
Y056854*
X037608Y057052*
X037720Y057220*
X038750Y058250*
X038918Y058362*
X039116Y058402*
X040540*
X040588Y058519*
X040080Y059027*
Y059027*
X040074Y059036*
X040047Y059054*
X039924Y059238*
X039881Y059454*
Y059736*
X037336*
X037293Y059609*
G37*
G36*
X018490Y021451D02*
Y021132D01*
X021751Y017872*
X022056*
X022109Y017999*
X018608Y021500*
X018490Y021451*
G37*
G36*
X019964Y050584D02*
X019954Y050574D01*
X019983Y050354*
X019952Y050122*
X019952Y050121*
X022401Y047672*
X022914*
X022953Y047799*
X022820Y047887*
X020099Y050608*
X019964Y050584*
G37*
G36*
X040964Y051184D02*
X040954Y051174D01*
X040983Y050954*
X040964Y050809*
X044201Y047572*
X045672*
X048318Y050218*
Y050589*
X048097Y050811*
X048018Y050772*
X047982Y050746*
X047952Y050522*
X047863Y050305*
X047720Y050120*
X047535Y049977*
X047318Y049888*
X047086Y049857*
X046854Y049888*
X046638Y049977*
X046452Y050120*
X046334Y050273*
X046325Y050275*
X046170Y050379*
X046126Y050380*
X046025Y050356*
X045963Y050205*
X045820Y050020*
X045635Y049877*
X045418Y049787*
X045186Y049757*
X044954Y049787*
X044738Y049877*
X044552Y050020*
X044463Y050136*
X042386*
X042188Y050175*
X042020Y050287*
X041099Y051208*
X040964Y051184*
G37*
G36*
X040954Y056492D02*
X040968Y056470D01*
X041011Y056254*
Y054654*
X040968Y054438*
X040964Y054432*
Y052808*
X042601Y051172*
X044463*
X044552Y051288*
X044738Y051430*
X044954Y051520*
X045186Y051550*
X045418Y051520*
X045635Y051430*
X045820Y051288*
X045963Y051102*
X045974Y051075*
X046117Y051061*
X046157Y051120*
X046222Y051185*
X045572Y051836*
X042386*
X042188Y051875*
X042020Y051987*
X041350Y052657*
X041238Y052825*
X041198Y053024*
Y054432*
X041194Y054438*
X041151Y054654*
Y056254*
X041194Y056470*
X041209Y056492*
X041149Y056604*
X041013*
X040954Y056492*
G37*
G36*
X004086Y009554D02*
X072086D01*
Y066654*
X060264*
X060192Y066536*
X060193Y066527*
X060353Y066420*
X066453Y060320*
X066565Y060152*
X066604Y059954*
Y043862*
X066802Y043710*
X066963Y043500*
X067064Y043256*
X067099Y042994*
X067066Y042746*
X070853Y038960*
X070965Y038792*
X071004Y038594*
Y015054*
X070965Y014855*
X070853Y014687*
X066253Y010087*
X066085Y009975*
X065886Y009936*
X046486*
Y009936*
X043663*
X043658Y009932*
X043460Y009893*
X029129*
X028931Y009932*
X028763Y010044*
X025515Y013292*
X025403Y013460*
X025363Y013659*
Y014332*
X025359Y014338*
X025316Y014554*
Y016154*
X025359Y016370*
X025482Y016553*
X025665Y016676*
X025881Y016719*
X026097Y016676*
X026281Y016553*
X026403Y016370*
X026446Y016154*
Y014554*
X026403Y014338*
X026399Y014332*
Y013873*
X027490Y012783*
X027597Y012855*
X027555Y012957*
X027541Y013062*
X028294*
Y012309*
X028189Y012323*
X028087Y012365*
X028015Y012257*
X029344Y010929*
X042202*
X042258Y011043*
X042210Y011105*
X042120Y011322*
X042090Y011554*
X042120Y011786*
X042210Y012002*
X042352Y012188*
X042468Y012277*
Y015044*
X042446Y015154*
Y016754*
X042489Y016970*
X042612Y017153*
X042795Y017276*
X043011Y017319*
X043227Y017276*
X043411Y017153*
X043533Y016970*
X043576Y016754*
Y015154*
X043533Y014938*
X043504Y014894*
Y012277*
X043620Y012188*
X043763Y012002*
X043852Y011786*
X043883Y011554*
X043852Y011322*
X043763Y011105*
X043748Y011086*
X043804Y010972*
X044873*
X045014Y011194*
X043915Y012292*
X043803Y012460*
X043763Y012659*
Y014932*
X043759Y014938*
X043716Y015154*
Y016754*
X043759Y016970*
X043882Y017153*
X044020Y017245*
X044052Y017393*
X043809Y017636*
X041358*
X041320Y017509*
X041453Y017420*
X041585Y017287*
X041741Y017319*
X041957Y017276*
X042141Y017153*
X042263Y016970*
X042306Y016754*
Y015154*
X042263Y014938*
X042141Y014754*
X041957Y014632*
X041741Y014589*
X041525Y014632*
X041342Y014754*
X041219Y014938*
X041176Y015154*
Y016231*
X040872Y016536*
X036686*
X036488Y016575*
X036320Y016687*
X035802Y017206*
X035243*
X035218Y017079*
X035335Y017030*
X035520Y016888*
X035663Y016702*
X035752Y016486*
X035783Y016254*
X035752Y016022*
X035663Y015805*
X035520Y015620*
X035335Y015477*
X035118Y015388*
X034886Y015357*
X034654Y015388*
X034438Y015477*
X034252Y015620*
X034159Y015741*
X033988Y015775*
X033820Y015887*
X033264Y016444*
X032845*
X032764Y016317*
X032796Y016154*
Y014554*
X032753Y014338*
X032749Y014332*
Y012719*
X032920Y012588*
X033063Y012402*
X033152Y012186*
X033183Y011954*
X033152Y011722*
X033063Y011505*
X032920Y011320*
X032735Y011177*
X032518Y011088*
X032286Y011057*
X032054Y011088*
X031838Y011177*
X031652Y011320*
X031510Y011505*
X031420Y011722*
X031390Y011954*
X031420Y012186*
X031510Y012402*
X031652Y012588*
X031713Y012635*
Y014332*
X031709Y014338*
X031666Y014554*
Y016154*
X031684Y016242*
X031598Y016350*
X031509Y016239*
X031526Y016154*
Y014554*
X031483Y014338*
X031361Y014154*
X031177Y014032*
X030961Y013989*
X030745Y014032*
X030562Y014154*
X030439Y014338*
X030396Y014554*
Y016154*
X030439Y016370*
X030443Y016376*
Y016499*
X030316Y016551*
X030209Y016444*
Y016376*
X030213Y016370*
X030256Y016154*
Y014554*
X030213Y014338*
X030091Y014154*
X029907Y014032*
X029691Y013989*
X029475Y014032*
X029292Y014154*
X029169Y014338*
X029126Y014554*
Y016154*
X029169Y016370*
X029173Y016376*
Y016659*
X029213Y016857*
X029325Y017025*
X029819Y017518*
X029770Y017636*
X029493*
X028650Y016793*
X028682Y016645*
X028821Y016553*
X028943Y016370*
X028986Y016154*
Y015481*
X028421*
X027856*
Y015515*
X027729Y015583*
X027716Y015574*
Y014554*
X027673Y014338*
X027551Y014154*
X027367Y014032*
X027151Y013989*
X026935Y014032*
X026752Y014154*
X026629Y014338*
X026586Y014554*
Y016154*
X026629Y016370*
X026752Y016553*
X026935Y016676*
X027151Y016719*
X027156Y016718*
X027247Y016855*
X028912Y018520*
X029080Y018632*
X029279Y018672*
X029629*
X029642Y018799*
X029475Y018832*
X029292Y018954*
X029169Y019138*
X029126Y019354*
Y020885*
X029113Y020897*
X029022Y020863*
X028986Y020824*
Y019354*
X028943Y019138*
X028821Y018954*
X028637Y018832*
X028421Y018789*
X028205Y018832*
X028022Y018954*
X027899Y019138*
X027856Y019354*
Y020840*
X027843Y020848*
X027716Y020777*
Y019354*
X027673Y019138*
X027551Y018954*
X027367Y018832*
X027151Y018789*
X026935Y018832*
X026752Y018954*
X026629Y019138*
X026586Y019354*
Y020702*
X026573Y020711*
X026446Y020643*
Y019354*
X026403Y019138*
X026399Y019132*
Y018049*
X026360Y017850*
X026248Y017682*
X025553Y016987*
X025384Y016875*
X025186Y016836*
X024673*
X024661Y016709*
X024683Y016704*
X024827Y016676*
X025011Y016553*
X025133Y016370*
X025176Y016154*
Y014554*
X025133Y014338*
X025129Y014332*
Y012632*
X025135Y012630*
X025320Y012488*
X025463Y012302*
X025552Y012086*
X025583Y011854*
X025552Y011622*
X025463Y011405*
X025320Y011220*
X025135Y011077*
X024918Y010988*
X024686Y010957*
X024454Y010988*
X024238Y011077*
X024052Y011220*
X023910Y011405*
X023820Y011622*
X023790Y011854*
X023820Y012086*
X023910Y012302*
X024052Y012488*
X024093Y012519*
Y014332*
X024089Y014338*
X024046Y014554*
Y016154*
X024089Y016370*
X024212Y016553*
X024395Y016676*
X024539Y016704*
X024562Y016709*
X024549Y016836*
X023403*
X023391Y016709*
X023413Y016704*
X023557Y016676*
X023741Y016553*
X023863Y016370*
X023906Y016154*
Y014554*
X023863Y014338*
X023741Y014154*
X023557Y014032*
X023341Y013989*
X023125Y014032*
X022942Y014154*
X022819Y014338*
X022776Y014554*
Y016154*
X022819Y016370*
X022942Y016553*
X023125Y016676*
X023269Y016704*
X023292Y016709*
X023279Y016836*
X021536*
X021338Y016875*
X021170Y016987*
X017883Y020275*
X017182*
Y021833*
X018109*
X018157Y021950*
X018120Y021987*
X018008Y022155*
X017968Y022354*
Y023239*
X017833Y023375*
X017132*
Y024933*
X018440*
Y024232*
X018853Y023820*
X018965Y023652*
X019004Y023454*
Y022568*
X022801Y018772*
X022987*
X023025Y018899*
X022942Y018954*
X022819Y019138*
X022776Y019354*
Y019986*
X021678Y021084*
X021654Y021088*
X021438Y021177*
X021252Y021320*
X021110Y021505*
X021020Y021722*
X021006Y021827*
X022766*
X022752Y021722*
X022680Y021547*
X022880Y021347*
X022942Y021353*
X023125Y021476*
X023214Y021493*
Y020154*
X023468*
Y021590*
X023482Y021620*
X023352Y021720*
X023210Y021905*
X023120Y022122*
X023090Y022354*
X023120Y022586*
X023210Y022802*
X023352Y022988*
X023538Y023130*
X023754Y023220*
X023986Y023250*
X024218Y023220*
X024435Y023130*
X024620Y022988*
X024709Y022872*
X025671*
X025683Y022999*
X025515Y023032*
X025347Y023144*
X024855Y023636*
X023909*
X023820Y023520*
X023635Y023377*
X023418Y023288*
X023186Y023257*
X022954Y023288*
X022738Y023377*
X022552Y023520*
X022410Y023705*
X022320Y023922*
X022290Y024154*
X022320Y024386*
X022410Y024602*
X022552Y024788*
X022738Y024930*
X022954Y025020*
X023186Y025050*
X023418Y025020*
X023635Y024930*
X023820Y024788*
X023909Y024672*
X025070*
X025168Y024652*
X025169*
X025302Y024750*
X025320Y024886*
X025410Y025102*
X025552Y025288*
X025738Y025430*
X025954Y025520*
X026186Y025550*
X026418Y025520*
X026635Y025430*
X026820Y025288*
X026963Y025102*
X027052Y024886*
X027083Y024654*
X027064Y024509*
X027235Y024337*
X027356Y024396*
X027348Y024454*
X027379Y024686*
X027468Y024902*
X027611Y025088*
X027796Y025230*
X028013Y025320*
X028245Y025350*
X028477Y025320*
X028693Y025230*
X028879Y025088*
X029021Y024902*
X029111Y024686*
X029141Y024454*
X029122Y024309*
X030665Y022766*
X030797Y022813*
X030820Y022986*
X030910Y023202*
X031052Y023388*
X031238Y023530*
X031454Y023620*
X031686Y023650*
X031918Y023620*
X032135Y023530*
X032320Y023388*
X032463Y023202*
X032552Y022986*
X032583Y022754*
X032564Y022609*
X032598Y022575*
X032710Y022407*
X032749Y022209*
Y021176*
X032753Y021170*
X032796Y020954*
Y019354*
X032753Y019138*
X032739Y019116*
X032798Y019004*
X036332*
X036530Y018964*
X036698Y018852*
X036698*
X036878Y018672*
X037318*
X037320Y018686*
X037410Y018902*
X037552Y019088*
X037738Y019230*
X037954Y019320*
X038186Y019350*
X038418Y019320*
X038635Y019230*
X038820Y019088*
X038963Y018902*
X039052Y018686*
X039054Y018672*
X042156*
X042209Y018799*
X041588Y019419*
X041525Y019432*
X041342Y019554*
X041219Y019738*
X041176Y019954*
Y020013*
X041168Y020054*
X041176Y020094*
Y020627*
X041741*
Y020881*
X041176*
Y021554*
X041209Y021717*
X041128Y021844*
X038809*
X038634Y021668*
X038466Y021556*
X038267Y021517*
X036595*
X036520Y021420*
X036335Y021277*
X036118Y021188*
X035886Y021157*
X035654Y021188*
X035438Y021277*
X035252Y021420*
X035110Y021605*
X035020Y021822*
X034990Y022054*
X035020Y022286*
X035110Y022502*
X035252Y022688*
X035438Y022830*
X035654Y022920*
X035886Y022950*
X036118Y022920*
X036139Y022911*
X036229Y023001*
X036220Y023022*
X036190Y023254*
X036220Y023486*
X036310Y023702*
X036452Y023888*
X036638Y024030*
X036854Y024120*
X037086Y024150*
X037207Y024134*
X037224Y024146*
X037291Y024252*
X037220Y024422*
X037190Y024654*
X037220Y024886*
X037310Y025102*
X037452Y025288*
X037638Y025430*
X037854Y025520*
X038086Y025550*
X038318Y025520*
X038535Y025430*
X038720Y025288*
X038863Y025102*
X038875Y025072*
X042786*
X042985Y025032*
X043153Y024920*
X045776Y022297*
X045884Y022368*
X045820Y022522*
X045790Y022754*
X045820Y022986*
X045910Y023202*
X046052Y023388*
X046238Y023530*
X046454Y023620*
X046686Y023650*
X046918Y023620*
X047088Y023549*
X047194Y023616*
X047206Y023633*
X047190Y023754*
X047220Y023986*
X047310Y024202*
X047452Y024388*
X047638Y024530*
X047854Y024620*
X048086Y024650*
X048318Y024620*
X048339Y024611*
X048429Y024701*
X048420Y024722*
X048390Y024954*
X048420Y025186*
X048510Y025402*
X048652Y025588*
X048838Y025730*
X049054Y025820*
X049286Y025850*
X049518Y025820*
X049735Y025730*
X049920Y025588*
X050063Y025402*
X050152Y025186*
X050183Y024954*
X050152Y024722*
X050063Y024505*
X049920Y024320*
X050001Y024225*
X050138Y024330*
X050354Y024420*
X050586Y024450*
X050818Y024420*
X051035Y024330*
X051220Y024188*
X051363Y024002*
X051452Y023786*
X051483Y023554*
X051452Y023322*
X051363Y023105*
X051220Y022920*
X051149Y022865*
Y021776*
X051153Y021770*
X051196Y021554*
Y019954*
X051153Y019738*
X051031Y019554*
X050847Y019432*
X050631Y019389*
X050415Y019432*
X050232Y019554*
X050109Y019738*
X050066Y019954*
Y021554*
X050109Y021770*
X050113Y021776*
Y022796*
X049952Y022920*
X049874Y023021*
X049747Y022978*
Y021962*
X049761Y021953*
X049883Y021770*
X049926Y021554*
Y019954*
X049883Y019738*
X049761Y019554*
X049577Y019432*
X049361Y019389*
X049145Y019432*
X048962Y019554*
X048839Y019738*
X048796Y019954*
Y020510*
X048783Y020520*
X048656Y020456*
Y019954*
X048613Y019738*
X048491Y019554*
X048307Y019432*
X048091Y019389*
X047875Y019432*
X047692Y019554*
X047569Y019738*
X047526Y019954*
Y021554*
X047568Y021764*
Y022245*
X047566Y022246*
X047441Y022277*
X047339Y022144*
Y021776*
X047343Y021770*
X047386Y021554*
Y019954*
X047343Y019738*
X047221Y019554*
X047037Y019432*
X046821Y019389*
X046605Y019432*
X046422Y019554*
X046299Y019738*
X046256Y019954*
Y021554*
X046299Y021770*
X046303Y021776*
Y021950*
X046238Y021977*
X046136Y022056*
X046057Y022004*
X046032Y021975*
X046069Y021789*
X046067Y021779*
X046073Y021770*
X046116Y021554*
Y019954*
X046073Y019738*
X045951Y019554*
X045767Y019432*
X045551Y019389*
X045335Y019432*
X045152Y019554*
X045029Y019738*
X044986Y019954*
Y021523*
X044973Y021535*
X044849Y021478*
X044846Y021475*
Y021144*
X044854Y021104*
X044846Y021063*
Y019954*
X044803Y019738*
X044681Y019554*
Y019473*
X044760Y019420*
X046872Y017309*
X047037Y017276*
X047221Y017153*
X047343Y016970*
X047386Y016754*
Y016081*
X046821*
X046256*
Y016354*
X046243Y016363*
X046116Y016295*
Y015154*
X046073Y014938*
X045951Y014754*
X045767Y014632*
X045551Y014589*
X045335Y014632*
X045152Y014754*
X045029Y014938*
X044986Y015154*
Y016354*
X044973Y016363*
X044846Y016295*
Y015154*
X044803Y014938*
X044799Y014932*
Y012873*
X046701Y010972*
X049729*
X049792Y011099*
X049710Y011205*
X049620Y011422*
X049590Y011654*
X049620Y011886*
X049710Y012102*
X049852Y012288*
X049968Y012377*
Y013196*
X049841Y013259*
X049735Y013177*
X049518Y013088*
X049286Y013057*
X049054Y013088*
X048838Y013177*
X048652Y013320*
X048510Y013505*
X048420Y013722*
X048390Y013954*
X048420Y014186*
X048510Y014402*
X048652Y014588*
X048838Y014730*
X048843Y014732*
Y014932*
X048839Y014938*
X048796Y015154*
Y016754*
X048839Y016970*
X048962Y017153*
X049145Y017276*
X049361Y017319*
X049577Y017276*
X049761Y017153*
X049883Y016970*
X049926Y016754*
Y016258*
X050053Y016194*
X050066Y016204*
Y016754*
X050109Y016970*
X050232Y017153*
X050415Y017276*
X050631Y017319*
X050847Y017276*
X051031Y017153*
X051153Y016970*
X051196Y016754*
Y015154*
X051153Y014938*
X051031Y014754*
X051004Y014737*
Y012377*
X051120Y012288*
X051263Y012102*
X051352Y011886*
X051383Y011654*
X051352Y011422*
X051263Y011205*
X051181Y011099*
X051244Y010972*
X065672*
X069968Y015268*
Y038379*
X066334Y042014*
X066086Y041981*
X065824Y042016*
X065580Y042117*
X065370Y042278*
X065209Y042487*
X065108Y042732*
X065074Y042994*
X065108Y043256*
X065209Y043500*
X065370Y043710*
X065568Y043862*
Y059739*
X059772Y065536*
X048913*
X048204Y065014*
Y062254*
X048165Y062055*
X048053Y061887*
X047875Y061710*
X047938Y061593*
X048066Y061619*
X048282Y061576*
X048466Y061453*
X048588Y061270*
X048631Y061054*
Y059746*
X048644Y059737*
X048771Y059805*
Y061054*
X048814Y061270*
X048937Y061453*
X049120Y061576*
X049314Y061614*
X050495Y062795*
X050520Y062986*
X050610Y063202*
X050752Y063388*
X050938Y063530*
X051154Y063620*
X051386Y063650*
X051618Y063620*
X051835Y063530*
X052020Y063388*
X052163Y063202*
X052252Y062986*
X052283Y062754*
X052252Y062522*
X052163Y062305*
X052020Y062120*
X051835Y061977*
X051618Y061888*
X051386Y061857*
X051154Y061888*
X051082Y061917*
X049901Y060736*
Y059454*
X049858Y059238*
X049765Y059099*
X049823Y058972*
X050386*
X050584Y058932*
X050753Y058820*
X054241Y055331*
X054386Y055350*
X054618Y055320*
X054835Y055230*
X055020Y055088*
X055163Y054902*
X055252Y054686*
X055283Y054454*
X055252Y054222*
X055163Y054005*
X055020Y053820*
X054835Y053677*
X054618Y053588*
X054386Y053557*
X054154Y053588*
X053938Y053677*
X053752Y053820*
X053610Y054005*
X053520Y054222*
X053490Y054454*
X053509Y054599*
X050172Y057936*
X049086*
X048888Y057975*
X048720Y058087*
X048066Y058741*
X047513Y058187*
X047344Y058075*
X047146Y058036*
X044203*
X044154Y057918*
X044623Y057450*
X044735Y057282*
X044774Y057084*
Y056476*
X044778Y056470*
X044821Y056254*
Y054654*
X044778Y054438*
X044656Y054254*
X044472Y054132*
X044256Y054089*
X044040Y054132*
X043857Y054254*
X043734Y054438*
X043691Y054654*
Y056254*
X043734Y056470*
X043738Y056476*
Y056869*
X043541Y057066*
X043442Y056986*
X043465Y056952*
X043504Y056754*
Y056476*
X043508Y056470*
X043551Y056254*
Y054654*
X043508Y054438*
X043386Y054254*
X043202Y054132*
X042986Y054089*
X042770Y054132*
X042587Y054254*
X042464Y054438*
X042421Y054654*
Y056254*
X042464Y056470*
X042468Y056476*
Y056539*
X042404Y056604*
X042283*
X042224Y056492*
X042238Y056470*
X042281Y056254*
Y054654*
X042238Y054438*
X042234Y054432*
Y053238*
X042601Y052872*
X045786*
X045874Y052854*
X045936Y052971*
X045160Y053747*
X045048Y053915*
X045008Y054114*
Y054432*
X045004Y054438*
X044961Y054654*
Y056254*
X045004Y056470*
X045127Y056653*
X045310Y056776*
X045526Y056819*
X045742Y056776*
X045926Y056653*
X046048Y056470*
X046091Y056254*
Y054654*
X046048Y054438*
X046044Y054432*
Y054328*
X046161Y054211*
X046278Y054260*
Y054432*
X046274Y054438*
X046231Y054654*
Y056254*
X046274Y056470*
X046397Y056653*
X046580Y056776*
X046796Y056819*
X047012Y056776*
X047196Y056653*
X047318Y056470*
X047361Y056254*
Y054654*
X047318Y054438*
X047314Y054432*
Y054236*
X047421Y054129*
X047548Y054181*
Y054432*
X047544Y054438*
X047501Y054654*
Y056254*
X047544Y056470*
X047549Y056477*
X047588Y056672*
X047700Y056840*
X047868Y056952*
X048066Y056992*
X048265Y056952*
X048433Y056840*
X048545Y056672*
X048584Y056477*
X048588Y056470*
X048631Y056254*
Y054654*
X048588Y054438*
X048584Y054432*
Y054288*
X051353Y051520*
X051465Y051352*
X051504Y051154*
Y049254*
X051465Y049055*
X051353Y048887*
X047153Y044687*
X046984Y044575*
X046786Y044536*
X042986*
X042788Y044575*
X042620Y044687*
X039072Y048236*
X035505*
X035307Y048275*
X035139Y048387*
X032603Y050923*
X032518Y050888*
X032286Y050857*
X032054Y050888*
X031838Y050977*
X031652Y051120*
X031631Y051147*
X031504Y051104*
Y047168*
X048841Y029831*
X048986Y029850*
X049218Y029820*
X049435Y029730*
X049620Y029588*
X049763Y029402*
X049852Y029186*
X049883Y028954*
X049852Y028722*
X049763Y028505*
X049620Y028320*
X049435Y028177*
X049218Y028088*
X048986Y028057*
X048754Y028088*
X048538Y028177*
X048352Y028320*
X048210Y028505*
X048120Y028722*
X048090Y028954*
X048109Y029099*
X030620Y046587*
X030508Y046755*
X030468Y046954*
X030468Y046954*
Y048653*
X030341Y048676*
X028453Y046787*
X028285Y046675*
X028086Y046636*
X022186*
X021988Y046675*
X021820Y046787*
X019143Y049464*
X019086Y049457*
X018854Y049488*
X018638Y049577*
X018452Y049720*
X018310Y049905*
X018220Y050122*
X018190Y050354*
X018220Y050586*
X018310Y050802*
X018452Y050988*
X018638Y051130*
X018854Y051220*
X019086Y051250*
X019318Y051220*
X019364Y051201*
X019436Y051309*
X019209Y051536*
X018078*
X017974Y051420*
X017983Y051354*
X017952Y051122*
X017863Y050905*
X017720Y050720*
X017535Y050577*
X017318Y050488*
X017086Y050457*
X016854Y050488*
X016638Y050577*
X016452Y050720*
X016310Y050905*
X016220Y051122*
X016190Y051354*
X016220Y051586*
X016310Y051802*
X016452Y051988*
X016638Y052130*
X016854Y052220*
X017086Y052250*
X017231Y052231*
X017420Y052420*
X017588Y052532*
X017786Y052572*
X019256*
X019309Y052699*
X019072Y052936*
X016501*
X015964Y052399*
X015983Y052254*
X015952Y052022*
X015863Y051805*
X015720Y051620*
X015535Y051477*
X015318Y051388*
X015086Y051357*
X014854Y051388*
X014638Y051477*
X014452Y051620*
X014310Y051805*
X014220Y052022*
X014190Y052254*
X014220Y052486*
X014310Y052702*
X014452Y052888*
X014638Y053030*
X014854Y053120*
X015086Y053150*
X015231Y053131*
X015920Y053820*
X016088Y053932*
X016286Y053972*
X019286*
Y053972*
X019485Y053932*
X019653Y053820*
X021183Y052289*
X021303Y052349*
X021290Y052454*
X021320Y052686*
X021410Y052902*
X021552Y053088*
X021738Y053230*
X021954Y053320*
X022030Y053330*
X023123Y054423*
Y054432*
X023119Y054438*
X023076Y054654*
Y056254*
X023119Y056470*
X023242Y056653*
X023425Y056776*
X023641Y056819*
X023857Y056776*
X024041Y056653*
X024163Y056470*
X024206Y056254*
Y054654*
X024163Y054438*
X024159Y054432*
Y054209*
X024120Y054010*
X024008Y053842*
X022993Y052828*
X023052Y052686*
X023083Y052454*
X023052Y052222*
X022963Y052005*
X022820Y051820*
X022635Y051677*
X022418Y051588*
X022186Y051557*
X022081Y051571*
X022022Y051451*
X023901Y049572*
X026251*
X027058Y050379*
Y051244*
X026931Y051270*
X026863Y051105*
X026720Y050920*
X026535Y050777*
X026318Y050688*
X026086Y050657*
X025854Y050688*
X025638Y050777*
X025452Y050920*
X025310Y051105*
X025220Y051322*
X025190Y051554*
X025220Y051786*
X025310Y052002*
X025452Y052188*
X025568Y052277*
Y054314*
X025441Y054365*
X025429Y054352*
Y053679*
X025390Y053480*
X025278Y053312*
X024694Y052729*
X024702Y052602*
X024720Y052588*
X024863Y052402*
X024952Y052186*
X024983Y051954*
X024952Y051722*
X024863Y051505*
X024720Y051320*
X024535Y051177*
X024318Y051088*
X024086Y051057*
X023854Y051088*
X023638Y051177*
X023452Y051320*
X023310Y051505*
X023220Y051722*
X023190Y051954*
X023220Y052186*
X023310Y052402*
X023452Y052588*
X023568Y052677*
Y052854*
X023608Y053052*
X023720Y053220*
X024393Y053893*
Y054432*
X024389Y054438*
X024346Y054654*
Y056254*
X024389Y056470*
X024512Y056653*
X024671Y056759*
X024725Y056897*
X024662Y056978*
X024573Y057195*
X024552Y057356*
X024545Y057362*
X024433Y057530*
X024393Y057729*
X024383Y057741*
X024297Y057728*
X024247Y057708*
X024163Y057505*
X024020Y057320*
X023835Y057177*
X023618Y057088*
X023386Y057057*
X023154Y057088*
X022938Y057177*
X022752Y057320*
X022610Y057505*
X022520Y057722*
X022490Y057954*
X022520Y058186*
X022610Y058402*
X022752Y058588*
X022938Y058730*
X023123Y058807*
Y059232*
X023119Y059238*
X023076Y059454*
Y061054*
X023119Y061270*
X023242Y061453*
X023425Y061576*
X023641Y061619*
X023857Y061576*
X024041Y061453*
X024163Y061270*
X024206Y061054*
Y059454*
X024163Y059238*
X024159Y059232*
Y058407*
X024163Y058402*
X024252Y058186*
X024266Y058080*
X024393Y058088*
Y059232*
X024389Y059238*
X024346Y059454*
Y061054*
X024389Y061270*
X024512Y061453*
X024695Y061576*
X024911Y061619*
X025127Y061576*
X025311Y061453*
X025433Y061270*
X025476Y061054*
Y059454*
X025433Y059238*
X025429Y059232*
Y058332*
X025439Y058323*
X025671Y058293*
X025887Y058203*
X026073Y058061*
X026215Y057875*
X026305Y057659*
X026336Y057427*
X026305Y057195*
X026215Y056978*
X026185Y056939*
X026243Y056806*
X026397Y056776*
X026581Y056653*
X026703Y056470*
X026746Y056254*
Y054654*
X026703Y054438*
X026604Y054290*
Y052277*
X026720Y052188*
X026863Y052002*
X026931Y051838*
X027058Y051863*
Y054250*
X027052Y054254*
X026929Y054438*
X026886Y054654*
Y056254*
X026929Y056470*
X027052Y056653*
X027235Y056776*
X027451Y056819*
X027667Y056776*
X027851Y056653*
X027973Y056470*
X028016Y056254*
Y055693*
X028029Y055684*
X028156Y055747*
Y056254*
X028199Y056470*
X028322Y056653*
X028505Y056776*
X028721Y056819*
X028937Y056776*
X029121Y056653*
X029243Y056470*
X029286Y056254*
Y054654*
X029243Y054438*
X029239Y054432*
Y049219*
X029239Y049219*
X029356Y049156*
X029473Y049273*
Y052277*
X029444Y052422*
Y054564*
X029426Y054654*
Y056254*
X029469Y056470*
X029562Y056609*
X029504Y056736*
X029451*
X029253Y056775*
X029085Y056887*
X027085Y058887*
X026973Y059055*
X026940Y059222*
X026929Y059238*
X026886Y059454*
Y060127*
X028016*
Y059522*
X028029Y059513*
X028156Y059579*
Y061054*
X028168Y061114*
Y062731*
X028052Y062820*
X027910Y063005*
X027820Y063222*
X027790Y063454*
X027820Y063686*
X027910Y063902*
X028052Y064088*
X028238Y064230*
X028454Y064320*
X028686Y064350*
X028918Y064320*
X029135Y064230*
X029320Y064088*
X029463Y063902*
X029552Y063686*
X029583Y063454*
X029552Y063222*
X029463Y063005*
X029320Y062820*
X029204Y062731*
Y061328*
X029243Y061270*
X029286Y061054*
Y059454*
X029243Y059238*
X029121Y059054*
X028937Y058932*
X028727Y058890*
X028696Y058843*
X028660Y058777*
X029666Y057772*
X031486*
X031685Y057732*
X031691Y057728*
X031810Y057801*
X031790Y057954*
X031809Y058099*
X030895Y059012*
X030871Y059048*
X030862Y059054*
X030739Y059238*
X030696Y059454*
Y061054*
X030739Y061270*
X030862Y061453*
X031045Y061576*
X031261Y061619*
X031477Y061576*
X031661Y061453*
X031783Y061270*
X031826Y061054*
Y060867*
X031953Y060811*
X031966Y060823*
Y061054*
X032009Y061270*
X032132Y061453*
X032315Y061576*
X032531Y061619*
X032747Y061576*
X032931Y061453*
X033053Y061270*
X033073Y061172*
X033863*
X033952Y061288*
X034138Y061430*
X034354Y061520*
X034586Y061550*
X034818Y061520*
X035035Y061430*
X035220Y061288*
X035363Y061102*
X035452Y060886*
X035483Y060654*
X035454Y060433*
X035464Y060423*
X035599Y060399*
X035820Y060620*
X035988Y060732*
X036186Y060772*
X039881*
Y061054*
X039924Y061270*
X040047Y061453*
X040230Y061576*
X040340Y061597*
X040353Y061729*
X040238Y061777*
X040052Y061920*
X039910Y062105*
X039820Y062322*
X039790Y062554*
X039820Y062786*
X039910Y063002*
X040052Y063188*
X040238Y063330*
X040454Y063420*
X040686Y063450*
X040918Y063420*
X041135Y063330*
X041320Y063188*
X041463Y063002*
X041471Y062983*
X041595Y063016*
X041590Y063054*
X041620Y063286*
X041710Y063502*
X041852Y063688*
X042038Y063830*
X042227Y063909*
X042202Y064036*
X040501*
X039064Y062599*
X039066Y062581*
X038313*
Y063334*
X038331Y063331*
X039920Y064920*
X040088Y065032*
X040286Y065072*
X043286*
X043485Y065032*
X043653Y064920*
X044453Y064120*
X044565Y063952*
X044604Y063754*
Y062793*
X044611Y062790*
X044788Y062654*
X044856Y062663*
X044859Y062664*
X044923Y062692*
X044968Y062802*
Y064131*
X044852Y064220*
X044710Y064405*
X044620Y064622*
X044590Y064854*
X044620Y065086*
X044710Y065302*
X044792Y065409*
X044729Y065536*
X034301*
X030509Y061744*
Y061276*
X030513Y061270*
X030556Y061054*
Y059454*
X030513Y059238*
X030391Y059054*
X030207Y058932*
X029991Y058889*
X029775Y058932*
X029592Y059054*
X029469Y059238*
X029426Y059454*
Y061054*
X029469Y061270*
X029473Y061276*
Y061959*
X029513Y062157*
X029625Y062325*
X033720Y066420*
X033880Y066527*
X033881Y066536*
X033808Y066654*
X004086*
Y009554*
G37*
%LNfilm_bottom-3*%
%LPD*%
G36*
X036813Y058827D02*
X037566D01*
X037552Y058722*
X037463Y058505*
X037320Y058320*
X037135Y058177*
X036918Y058088*
X036813Y058074*
Y058827*
G37*
G36*
X009630Y019727D02*
X010499D01*
Y018858*
X010364Y018876*
X010120Y018977*
X009910Y019138*
X009749Y019347*
X009648Y019592*
X009630Y019727*
G37*
G36*
X010753D02*
X011622D01*
X011604Y019592*
X011503Y019347*
X011342Y019138*
X011133Y018977*
X010888Y018876*
X010753Y018858*
Y019727*
G37*
G36*
X007082Y020858D02*
X009090D01*
Y018850*
X007082*
Y020858*
G37*
G36*
X009630Y024027D02*
X010626D01*
X011622*
X011604Y023892*
X011503Y023647*
X011342Y023438*
X011144Y023286*
Y020722*
X011342Y020570*
X011503Y020360*
X011604Y020116*
X011622Y019981*
X010626*
X009630*
X009648Y020116*
X009749Y020360*
X009910Y020570*
X010108Y020722*
Y023286*
X009910Y023438*
X009749Y023647*
X009648Y023892*
X009630Y024027*
G37*
G36*
X038506Y020127D02*
X039259D01*
Y019374*
X039154Y019388*
X038938Y019477*
X038752Y019620*
X038610Y019805*
X038520Y020022*
X038506Y020127*
G37*
G36*
X039513D02*
X040266D01*
X040252Y020022*
X040163Y019805*
X040020Y019620*
X039835Y019477*
X039618Y019388*
X039513Y019374*
Y020127*
G37*
G36*
X015682Y021833D02*
X016990D01*
Y020275*
X015682*
Y020536*
X014581*
X014146Y020101*
X014179Y019854*
X014144Y019592*
X014043Y019347*
X013882Y019138*
X013673Y018977*
X013428Y018876*
X013166Y018841*
X012904Y018876*
X012660Y018977*
X012450Y019138*
X012289Y019347*
X012188Y019592*
X012154Y019854*
X012188Y020116*
X012289Y020360*
X012450Y020570*
X012660Y020731*
X012904Y020832*
X013166Y020866*
X013414Y020834*
X014000Y021420*
X014168Y021532*
X014366Y021572*
X015682*
Y021833*
G37*
G36*
X012813Y017304D02*
X013050Y017281D01*
X013399Y017175*
X013721Y017003*
X014004Y016771*
X014235Y016489*
X014407Y016167*
X014513Y015817*
X014537Y015581*
X012813*
Y017304*
G37*
G36*
X067059D02*
Y015581D01*
X065336*
X065359Y015817*
X065465Y016167*
X065637Y016489*
X065869Y016771*
X066151Y017003*
X066473Y017175*
X066823Y017281*
X067059Y017304*
G37*
G36*
X067313D02*
X067550Y017281D01*
X067899Y017175*
X068221Y017003*
X068504Y016771*
X068735Y016489*
X068907Y016167*
X069013Y015817*
X069037Y015581*
X067313*
Y017304*
G37*
G36*
X017759Y016734D02*
Y015981D01*
X017006*
X017020Y016086*
X017110Y016302*
X017252Y016488*
X017438Y016630*
X017654Y016720*
X017759Y016734*
G37*
G36*
X018013D02*
X018118Y016720D01*
X018335Y016630*
X018520Y016488*
X018663Y016302*
X018752Y016086*
X018766Y015981*
X018013*
Y016734*
G37*
G36*
X012559Y017304D02*
Y015581D01*
X010836*
X010859Y015817*
X010965Y016167*
X011137Y016489*
X011369Y016771*
X011651Y017003*
X011973Y017175*
X012323Y017281*
X012559Y017304*
G37*
G36*
X039513Y021134D02*
X039618Y021120D01*
X039835Y021030*
X040020Y020888*
X040163Y020702*
X040252Y020486*
X040266Y020381*
X039513*
Y021134*
G37*
G36*
X010753Y025150D02*
X010888Y025132D01*
X011133Y025031*
X011342Y024870*
X011503Y024660*
X011604Y024416*
X011622Y024281*
X010753*
Y025150*
G37*
G36*
X052959Y024534D02*
Y023781D01*
X052206*
X052220Y023886*
X052310Y024102*
X052452Y024288*
X052638Y024430*
X052854Y024520*
X052959Y024534*
G37*
G36*
X053213D02*
X053318Y024520D01*
X053535Y024430*
X053720Y024288*
X053863Y024102*
X053952Y023886*
X053966Y023781*
X053213*
Y024534*
G37*
G36*
X009813Y031927D02*
X010566D01*
X010552Y031822*
X010463Y031605*
X010320Y031420*
X010135Y031277*
X009918Y031188*
X009813Y031174*
Y031927*
G37*
G36*
X013166Y025166D02*
X013428Y025132D01*
X013673Y025031*
X013882Y024870*
X013958Y024772*
X015632*
Y024933*
X016940*
Y023375*
X015632*
Y023736*
X014080*
X014043Y023647*
X013882Y023438*
X013673Y023277*
X013428Y023176*
X013166Y023141*
X012904Y023176*
X012660Y023277*
X012450Y023438*
X012289Y023647*
X012188Y023892*
X012154Y024154*
X012188Y024416*
X012289Y024660*
X012450Y024870*
X012660Y025031*
X012904Y025132*
X013166Y025166*
G37*
G36*
X010499Y025150D02*
Y024281D01*
X009630*
X009648Y024416*
X009749Y024660*
X009910Y024870*
X010120Y025031*
X010364Y025132*
X010499Y025150*
G37*
G36*
X058186Y024350D02*
X058418Y024320D01*
X058635Y024230*
X058820Y024088*
X058963Y023902*
X059052Y023686*
X059054Y023672*
X063963*
X064052Y023788*
X064238Y023930*
X064454Y024020*
X064686Y024050*
X064918Y024020*
X065135Y023930*
X065320Y023788*
X065463Y023602*
X065552Y023386*
X065583Y023154*
X065552Y022922*
X065463Y022705*
X065320Y022520*
X065135Y022377*
X064918Y022288*
X064686Y022257*
X064454Y022288*
X064238Y022377*
X064052Y022520*
X063963Y022636*
X058586*
X058551Y022643*
X058418Y022588*
X058186Y022557*
X057954Y022588*
X057738Y022677*
X057552Y022820*
X057410Y023005*
X057320Y023222*
X057290Y023454*
X057320Y023686*
X057410Y023902*
X057552Y024088*
X057738Y024230*
X057954Y024320*
X058186Y024350*
G37*
G36*
X021759Y022834D02*
Y022081D01*
X021006*
X021020Y022186*
X021110Y022402*
X021252Y022588*
X021438Y022730*
X021654Y022820*
X021759Y022834*
G37*
G36*
X022013D02*
X022118Y022820D01*
X022335Y022730*
X022520Y022588*
X022663Y022402*
X022752Y022186*
X022766Y022081*
X022013*
Y022834*
G37*
G36*
X039259Y021134D02*
Y020381D01*
X038506*
X038520Y020486*
X038610Y020702*
X038752Y020888*
X038938Y021030*
X039154Y021120*
X039259Y021134*
G37*
G36*
X007082Y025158D02*
X009090D01*
Y023150*
X007082*
Y025158*
G37*
G36*
X052206Y023527D02*
X052959D01*
Y022774*
X052854Y022788*
X052638Y022877*
X052452Y023020*
X052310Y023205*
X052220Y023422*
X052206Y023527*
G37*
G36*
X053213D02*
X053966D01*
X053952Y023422*
X053863Y023205*
X053720Y023020*
X053535Y022877*
X053318Y022788*
X053213Y022774*
Y023527*
G37*
G36*
X045941Y012692D02*
X046694D01*
Y011939*
X046589Y011953*
X046373Y012042*
X046187Y012185*
X046045Y012370*
X045955Y012587*
X045941Y012692*
G37*
G36*
X046948D02*
X047701D01*
X047687Y012587*
X047598Y012370*
X047455Y012185*
X047270Y012042*
X047053Y011953*
X046948Y011939*
Y012692*
G37*
G36*
X069759Y012434D02*
Y011681D01*
X069006*
X069020Y011786*
X069110Y012002*
X069252Y012188*
X069438Y012330*
X069654Y012420*
X069759Y012434*
G37*
G36*
X036806Y013427D02*
X037559D01*
Y012674*
X037454Y012688*
X037238Y012777*
X037052Y012920*
X036910Y013105*
X036820Y013322*
X036806Y013427*
G37*
G36*
X037813D02*
X038566D01*
X038552Y013322*
X038463Y013105*
X038320Y012920*
X038135Y012777*
X037918Y012688*
X037813Y012674*
Y013427*
G37*
G36*
X028548Y013062D02*
X029301D01*
X029287Y012957*
X029198Y012740*
X029055Y012555*
X028870Y012412*
X028653Y012323*
X028548Y012309*
Y013062*
G37*
G36*
X070013Y012434D02*
X070118Y012420D01*
X070335Y012330*
X070520Y012188*
X070663Y012002*
X070752Y011786*
X070766Y011681*
X070013*
Y012434*
G37*
G36*
Y011427D02*
X070766D01*
X070752Y011322*
X070663Y011105*
X070520Y010920*
X070335Y010777*
X070118Y010688*
X070013Y010674*
Y011427*
G37*
G36*
X007406Y011327D02*
X008159D01*
Y010574*
X008054Y010588*
X007838Y010677*
X007652Y010820*
X007510Y011005*
X007420Y011222*
X007406Y011327*
G37*
G36*
X008413D02*
X009166D01*
X009152Y011222*
X009063Y011005*
X008920Y010820*
X008735Y010677*
X008518Y010588*
X008413Y010574*
Y011327*
G37*
G36*
X008159Y012334D02*
Y011581D01*
X007406*
X007420Y011686*
X007510Y011902*
X007652Y012088*
X007838Y012230*
X008054Y012320*
X008159Y012334*
G37*
G36*
X008413D02*
X008518Y012320D01*
X008735Y012230*
X008920Y012088*
X009063Y011902*
X009152Y011686*
X009166Y011581*
X008413*
Y012334*
G37*
G36*
X069006Y011427D02*
X069759D01*
Y010674*
X069654Y010688*
X069438Y010777*
X069252Y010920*
X069110Y011105*
X069020Y011322*
X069006Y011427*
G37*
G36*
X046256Y015827D02*
X046821D01*
X047386*
Y015154*
X047343Y014938*
X047339Y014932*
Y013542*
X047455Y013453*
X047598Y013267*
X047687Y013051*
X047701Y012946*
X045941*
X045955Y013051*
X046045Y013267*
X046187Y013453*
X046303Y013542*
Y014932*
X046299Y014938*
X046256Y015154*
Y015827*
G37*
G36*
X018013Y015727D02*
X018766D01*
X018752Y015622*
X018663Y015405*
X018520Y015220*
X018335Y015077*
X018118Y014988*
X018013Y014974*
Y015727*
G37*
G36*
X057506Y015027D02*
X058259D01*
Y014274*
X058154Y014288*
X057938Y014377*
X057752Y014520*
X057610Y014705*
X057520Y014922*
X057506Y015027*
G37*
G36*
X058513D02*
X059266D01*
X059252Y014922*
X059163Y014705*
X059020Y014520*
X058835Y014377*
X058618Y014288*
X058513Y014274*
Y015027*
G37*
G36*
X058259Y016034D02*
Y015281D01*
X057506*
X057520Y015386*
X057610Y015602*
X057752Y015788*
X057938Y015930*
X058154Y016020*
X058259Y016034*
G37*
G36*
X058513D02*
X058618Y016020D01*
X058835Y015930*
X059020Y015788*
X059163Y015602*
X059252Y015386*
X059266Y015281*
X058513*
Y016034*
G37*
G36*
X017006Y015727D02*
X017759D01*
Y014974*
X017654Y014988*
X017438Y015077*
X017252Y015220*
X017110Y015405*
X017020Y015622*
X017006Y015727*
G37*
G36*
X037559Y014434D02*
Y013681D01*
X036806*
X036820Y013786*
X036910Y014002*
X037052Y014188*
X037238Y014330*
X037454Y014420*
X037559Y014434*
G37*
G36*
X065336Y015327D02*
X067059D01*
Y013603*
X066823Y013627*
X066473Y013733*
X066151Y013905*
X065869Y014136*
X065637Y014419*
X065465Y014741*
X065359Y015090*
X065336Y015327*
G37*
G36*
X067313D02*
X069037D01*
X069013Y015090*
X068907Y014741*
X068735Y014419*
X068504Y014136*
X068221Y013905*
X067899Y013733*
X067550Y013627*
X067313Y013603*
Y015327*
G37*
G36*
X027856Y015227D02*
X028421D01*
X028986*
Y014554*
X028943Y014338*
X028939Y014332*
Y013912*
X029055Y013823*
X029198Y013637*
X029287Y013421*
X029301Y013316*
X027541*
X027555Y013421*
X027645Y013637*
X027787Y013823*
X027903Y013912*
Y014332*
X027899Y014338*
X027856Y014554*
Y015227*
G37*
G36*
X037813Y014434D02*
X037918Y014420D01*
X038135Y014330*
X038320Y014188*
X038463Y014002*
X038552Y013786*
X038566Y013681*
X037813*
Y014434*
G37*
G36*
X010836Y015327D02*
X012559D01*
Y013603*
X012323Y013627*
X011973Y013733*
X011651Y013905*
X011369Y014136*
X011137Y014419*
X010965Y014741*
X010859Y015090*
X010836Y015327*
G37*
G36*
X012813D02*
X014537D01*
X014513Y015090*
X014407Y014741*
X014235Y014419*
X014004Y014136*
X013721Y013905*
X013399Y013733*
X013050Y013627*
X012813Y013603*
Y015327*
G37*
G36*
X058159Y060134D02*
Y059381D01*
X057406*
X057420Y059486*
X057510Y059702*
X057652Y059888*
X057838Y060030*
X058054Y060120*
X058159Y060134*
G37*
G36*
X058413D02*
X058518Y060120D01*
X058735Y060030*
X058920Y059888*
X059063Y059702*
X059152Y059486*
X059166Y059381*
X058413*
Y060134*
G37*
G36*
X026086Y065150D02*
X026318Y065120D01*
X026535Y065030*
X026720Y064888*
X026863Y064702*
X026952Y064486*
X026983Y064254*
X026952Y064022*
X026863Y063805*
X026720Y063620*
X026704Y063607*
Y061264*
X026746Y061054*
Y059454*
X026703Y059238*
X026581Y059054*
X026397Y058932*
X026181Y058889*
X025965Y058932*
X025782Y059054*
X025659Y059238*
X025616Y059454*
Y061054*
X025659Y061270*
X025668Y061283*
Y063465*
X025638Y063477*
X025452Y063620*
X025310Y063805*
X025220Y064022*
X025190Y064254*
X025220Y064486*
X025310Y064702*
X025452Y064888*
X025638Y065030*
X025854Y065120*
X026086Y065150*
G37*
G36*
X038313Y062327D02*
X039066D01*
X039052Y062222*
X038963Y062005*
X038820Y061820*
X038635Y061677*
X038418Y061588*
X038313Y061574*
Y062327*
G37*
G36*
X027324Y061593D02*
Y060381D01*
X026886*
Y061054*
X026929Y061270*
X027052Y061453*
X027235Y061576*
X027324Y061593*
G37*
G36*
X027578D02*
X027667Y061576D01*
X027851Y061453*
X027973Y061270*
X028016Y061054*
Y060381*
X027578*
Y061593*
G37*
G36*
X057406Y059127D02*
X058159D01*
Y058374*
X058054Y058388*
X057838Y058477*
X057652Y058620*
X057510Y058805*
X057420Y059022*
X057406Y059127*
G37*
G36*
X069559Y055534D02*
Y054781D01*
X068806*
X068820Y054886*
X068910Y055102*
X069052Y055288*
X069238Y055430*
X069454Y055520*
X069559Y055534*
G37*
G36*
X069813D02*
X069918Y055520D01*
X070135Y055430*
X070320Y055288*
X070463Y055102*
X070552Y054886*
X070566Y054781*
X069813*
Y055534*
G37*
G36*
X048771Y055327D02*
X049209D01*
Y054114*
X049120Y054132*
X048937Y054254*
X048814Y054438*
X048771Y054654*
Y055327*
G37*
G36*
X058413Y059127D02*
X059166D01*
X059152Y059022*
X059063Y058805*
X058920Y058620*
X058735Y058477*
X058518Y058388*
X058413Y058374*
Y059127*
G37*
G36*
X049209Y056793D02*
Y055581D01*
X048771*
Y056254*
X048814Y056470*
X048937Y056653*
X049120Y056776*
X049209Y056793*
G37*
G36*
X049463D02*
X049552Y056776D01*
X049736Y056653*
X049858Y056470*
X049901Y056254*
Y055621*
X050741Y054781*
X050759Y054784*
Y054031*
X050006*
X050009Y054049*
X049797Y054260*
X049736Y054254*
X049552Y054132*
X049463Y054114*
Y055454*
Y056793*
G37*
G36*
X037306Y062327D02*
X038059D01*
Y061574*
X037954Y061588*
X037738Y061677*
X037552Y061820*
X037410Y062005*
X037320Y062222*
X037306Y062327*
G37*
G36*
X067313Y066204D02*
X067550Y066181D01*
X067899Y066075*
X068221Y065903*
X068504Y065671*
X068735Y065389*
X068907Y065067*
X069013Y064717*
X069037Y064481*
X067313*
Y066204*
G37*
G36*
X035859Y063434D02*
Y062681D01*
X035106*
X035120Y062786*
X035210Y063002*
X035352Y063188*
X035538Y063330*
X035754Y063420*
X035859Y063434*
G37*
G36*
X036113D02*
X036218Y063420D01*
X036435Y063330*
X036620Y063188*
X036763Y063002*
X036852Y062786*
X036866Y062681*
X036113*
Y063434*
G37*
G36*
X012559Y066204D02*
Y064481D01*
X010836*
X010859Y064717*
X010965Y065067*
X011137Y065389*
X011369Y065671*
X011651Y065903*
X011973Y066075*
X012323Y066181*
X012559Y066204*
G37*
G36*
X012813D02*
X013050Y066181D01*
X013399Y066075*
X013721Y065903*
X014004Y065671*
X014235Y065389*
X014407Y065067*
X014513Y064717*
X014537Y064481*
X012813*
Y066204*
G37*
G36*
X067059D02*
Y064481D01*
X065336*
X065359Y064717*
X065465Y065067*
X065637Y065389*
X065869Y065671*
X066151Y065903*
X066473Y066075*
X066823Y066181*
X067059Y066204*
G37*
G36*
X038059Y063334D02*
Y062581D01*
X037306*
X037320Y062686*
X037410Y062902*
X037552Y063088*
X037738Y063230*
X037954Y063320*
X038059Y063334*
G37*
G36*
X067313Y064227D02*
X069037D01*
X069013Y063990*
X068907Y063641*
X068735Y063319*
X068504Y063036*
X068221Y062805*
X067899Y062633*
X067550Y062527*
X067313Y062503*
Y064227*
G37*
G36*
X035106Y062427D02*
X035859D01*
Y061674*
X035754Y061688*
X035538Y061777*
X035352Y061920*
X035210Y062105*
X035120Y062322*
X035106Y062427*
G37*
G36*
X036113D02*
X036866D01*
X036852Y062322*
X036763Y062105*
X036620Y061920*
X036435Y061777*
X036218Y061688*
X036113Y061674*
Y062427*
G37*
G36*
X010836Y064227D02*
X012559D01*
Y062503*
X012323Y062527*
X011973Y062633*
X011651Y062805*
X011369Y063036*
X011137Y063319*
X010965Y063641*
X010859Y063990*
X010836Y064227*
G37*
G36*
X012813D02*
X014537D01*
X014513Y063990*
X014407Y063641*
X014235Y063319*
X014004Y063036*
X013721Y062805*
X013399Y062633*
X013050Y062527*
X012813Y062503*
Y064227*
G37*
G36*
X065336D02*
X067059D01*
Y062503*
X066823Y062527*
X066473Y062633*
X066151Y062805*
X065869Y063036*
X065637Y063319*
X065465Y063641*
X065359Y063990*
X065336Y064227*
G37*
G36*
X054813Y037234D02*
X054918Y037220D01*
X055135Y037130*
X055320Y036988*
X055463Y036802*
X055552Y036586*
X055566Y036481*
X054813*
Y037234*
G37*
G36*
X053806Y036227D02*
X054559D01*
Y035474*
X054454Y035488*
X054238Y035577*
X054052Y035720*
X053910Y035905*
X053820Y036122*
X053806Y036227*
G37*
G36*
X054813D02*
X055566D01*
X055552Y036122*
X055463Y035905*
X055320Y035720*
X055135Y035577*
X054918Y035488*
X054813Y035474*
Y036227*
G37*
G36*
X062550Y037787D02*
X063419D01*
Y036918*
X063284Y036936*
X063040Y037037*
X062830Y037198*
X062669Y037407*
X062568Y037652*
X062550Y037787*
G37*
G36*
X063673D02*
X064542D01*
X064524Y037652*
X064423Y037407*
X064262Y037198*
X064053Y037037*
X063808Y036936*
X063673Y036918*
Y037787*
G37*
G36*
X054559Y037234D02*
Y036481D01*
X053806*
X053820Y036586*
X053910Y036802*
X054052Y036988*
X054238Y037130*
X054454Y037220*
X054559Y037234*
G37*
G36*
X034559Y035734D02*
Y034981D01*
X033806*
X033820Y035086*
X033910Y035302*
X034052Y035488*
X034238Y035630*
X034454Y035720*
X034559Y035734*
G37*
G36*
X009559Y032934D02*
Y032181D01*
X008806*
X008820Y032286*
X008910Y032502*
X009052Y032688*
X009238Y032830*
X009454Y032920*
X009559Y032934*
G37*
G36*
X009813D02*
X009918Y032920D01*
X010135Y032830*
X010320Y032688*
X010463Y032502*
X010552Y032286*
X010566Y032181*
X009813*
Y032934*
G37*
G36*
X008806Y031927D02*
X009559D01*
Y031174*
X009454Y031188*
X009238Y031277*
X009052Y031420*
X008910Y031605*
X008820Y031822*
X008806Y031927*
G37*
G36*
X034813Y035734D02*
X034918Y035720D01*
X035135Y035630*
X035320Y035488*
X035463Y035302*
X035552Y035086*
X035566Y034981*
X034813*
Y035734*
G37*
G36*
X033806Y034727D02*
X034559D01*
Y033974*
X034454Y033988*
X034238Y034077*
X034052Y034220*
X033910Y034405*
X033820Y034622*
X033806Y034727*
G37*
G36*
X034813D02*
X035566D01*
X035552Y034622*
X035463Y034405*
X035320Y034220*
X035135Y034077*
X034918Y033988*
X034813Y033974*
Y034727*
G37*
G36*
X063673Y038910D02*
X063808Y038892D01*
X064053Y038791*
X064262Y038630*
X064423Y038420*
X064524Y038176*
X064542Y038041*
X063673*
Y038910*
G37*
G36*
X051013Y053777D02*
X051766D01*
X051764Y053759*
X054253Y051270*
X054365Y051102*
X054404Y050904*
Y047788*
X063299Y038894*
X063419Y038910*
Y038041*
X062550*
X062566Y038161*
X053520Y047207*
X053408Y047375*
X053368Y047574*
Y050689*
X051031Y053026*
X051013Y053024*
Y053777*
G37*
G36*
X050006D02*
X050759D01*
Y053024*
X050654Y053038*
X050438Y053127*
X050252Y053270*
X050110Y053455*
X050020Y053672*
X050006Y053777*
G37*
G36*
X009859Y050134D02*
Y049381D01*
X009106*
X009120Y049486*
X009210Y049702*
X009352Y049888*
X009538Y050030*
X009754Y050120*
X009859Y050134*
G37*
G36*
X051013Y054784D02*
X051118Y054770D01*
X051335Y054680*
X051520Y054538*
X051663Y054352*
X051752Y054136*
X051766Y054031*
X051013*
Y054784*
G37*
G36*
X068806Y054527D02*
X069559D01*
Y053774*
X069454Y053788*
X069238Y053877*
X069052Y054020*
X068910Y054205*
X068820Y054422*
X068806Y054527*
G37*
G36*
X069813D02*
X070566D01*
X070552Y054422*
X070463Y054205*
X070320Y054020*
X070135Y053877*
X069918Y053788*
X069813Y053774*
Y054527*
G37*
G36*
X010113Y050134D02*
X010218Y050120D01*
X010435Y050030*
X010620Y049888*
X010763Y049702*
X010852Y049486*
X010866Y049381*
X010113*
Y050134*
G37*
G36*
X063546Y044006D02*
X063808Y043972D01*
X064053Y043871*
X064262Y043710*
X064423Y043500*
X064524Y043256*
X064559Y042994*
X064524Y042732*
X064423Y042487*
X064262Y042278*
X064053Y042117*
X063808Y042016*
X063546Y041981*
X063284Y042016*
X063040Y042117*
X062830Y042278*
X062669Y042487*
X062568Y042732*
X062534Y042994*
X062568Y043256*
X062669Y043500*
X062830Y043710*
X063040Y043871*
X063284Y043972*
X063546Y044006*
G37*
G36*
X059286Y053750D02*
X059518Y053720D01*
X059735Y053630*
X059920Y053488*
X060063Y053302*
X060152Y053086*
X060183Y052854*
X060152Y052622*
X060063Y052405*
X059920Y052220*
X059804Y052131*
Y044928*
X063299Y041434*
X063546Y041466*
X063808Y041432*
X064053Y041331*
X064262Y041170*
X064423Y040960*
X064524Y040716*
X064559Y040454*
X064524Y040192*
X064423Y039947*
X064262Y039738*
X064053Y039577*
X063808Y039476*
X063546Y039441*
X063284Y039476*
X063040Y039577*
X062830Y039738*
X062669Y039947*
X062568Y040192*
X062534Y040454*
X062566Y040701*
X058920Y044347*
X058808Y044515*
X058768Y044714*
Y052131*
X058652Y052220*
X058510Y052405*
X058420Y052622*
X058390Y052854*
X058420Y053086*
X058510Y053302*
X058652Y053488*
X058838Y053630*
X059054Y053720*
X059286Y053750*
G37*
G36*
X066086Y041466D02*
X066348Y041432D01*
X066593Y041331*
X066802Y041170*
X066963Y040960*
X067064Y040716*
X067099Y040454*
X067066Y040206*
X068853Y038420*
X068965Y038252*
X069004Y038054*
Y024160*
X069111Y024078*
X069274Y023866*
X069376Y023619*
X069411Y023354*
X069376Y023088*
X069274Y022841*
X069111Y022629*
X068899Y022466*
X068652Y022364*
X068386Y022329*
X068121Y022364*
X067874Y022466*
X067662Y022629*
X067499Y022841*
X067396Y023088*
X067362Y023354*
X067396Y023619*
X067499Y023866*
X067662Y024078*
X067874Y024241*
X067968Y024280*
Y037839*
X067208Y038600*
X067090Y038551*
Y036910*
X067004*
Y020054*
X066965Y019855*
X066853Y019687*
X063664Y016499*
X063683Y016354*
X063652Y016122*
X063563Y015905*
X063420Y015720*
X063235Y015577*
X063018Y015488*
X062786Y015457*
X062554Y015488*
X062338Y015577*
X062152Y015720*
X062010Y015905*
X061920Y016122*
X061890Y016354*
X061920Y016586*
X062010Y016802*
X062152Y016988*
X062338Y017130*
X062554Y017220*
X062786Y017250*
X062931Y017231*
X065968Y020268*
Y036910*
X065082*
Y038918*
X066724*
X066772Y039035*
X066334Y039474*
X066086Y039441*
X065824Y039476*
X065580Y039577*
X065370Y039738*
X065209Y039947*
X065108Y040192*
X065074Y040454*
X065108Y040716*
X065209Y040960*
X065370Y041170*
X065580Y041331*
X065824Y041432*
X066086Y041466*
G37*
G36*
X009106Y049127D02*
X009859D01*
Y048374*
X009754Y048388*
X009538Y048477*
X009352Y048620*
X009210Y048805*
X009120Y049022*
X009106Y049127*
G37*
G36*
X010113D02*
X010866D01*
X010852Y049022*
X010763Y048805*
X010620Y048620*
X010435Y048477*
X010218Y048388*
X010113Y048374*
Y049127*
G37*
G36*
X034586Y046950D02*
X034818Y046920D01*
X035035Y046830*
X035220Y046688*
X035363Y046502*
X035452Y046286*
X035483Y046054*
X035464Y045909*
X056953Y024420*
X057065Y024252*
X057104Y024054*
Y020654*
X057065Y020455*
X056953Y020287*
X054553Y017887*
X054385Y017775*
X054186Y017736*
X048701*
X048609Y017644*
Y016976*
X048613Y016970*
X048656Y016754*
Y015154*
X048613Y014938*
X048491Y014754*
X048307Y014632*
X048091Y014589*
X047875Y014632*
X047692Y014754*
X047569Y014938*
X047526Y015154*
Y016754*
X047569Y016970*
X047573Y016976*
Y017859*
X047613Y018057*
X047725Y018225*
X048120Y018620*
X048288Y018732*
X048486Y018772*
X053972*
X056068Y020868*
Y023839*
X034731Y045176*
X034586Y045157*
X034354Y045188*
X034138Y045277*
X033952Y045420*
X033810Y045605*
X033720Y045822*
X033690Y046054*
X033720Y046286*
X033810Y046502*
X033952Y046688*
X034138Y046830*
X034354Y046920*
X034586Y046950*
G37*
%LNfilm_bottom-4*%
%LPC*%
G54D22*
X070486Y015054D02*
Y038594D01*
Y015054D02*
X065886Y010454D01*
X070486Y038594D02*
X066086Y042994D01*
X068486Y023954D02*
Y038054D01*
Y023954D02*
X068086Y023554D01*
X068486Y038054D02*
X066086Y040454D01*
X066486Y020054D02*
Y037514D01*
Y020054D02*
X062786Y016354D01*
X066486Y037514D02*
X066086Y037914D01*
Y042994D02*
Y059954D01*
X059986Y066054D01*
X065886Y010454D02*
X046486D01*
X064686Y023154D02*
X058586D01*
X063546Y037914D02*
X053886Y047574D01*
X063546Y040454D02*
X059286Y044714D01*
X059986Y066054D02*
X047686D01*
X059286Y044714D02*
Y052854D01*
X058586Y023154D02*
X058386Y023354D01*
X056586Y020654D02*
Y024054D01*
Y020654D02*
X054186Y018254D01*
X056586Y024054D02*
X034586Y046054D01*
X054386Y054454D02*
X050386Y058454D01*
X054186Y018254D02*
X048486D01*
X053886Y047574D02*
Y050904D01*
X050886Y053904D01*
X051386Y062754D02*
X051186D01*
X049336Y060904D01*
X050986Y049254D02*
Y051154D01*
Y049254D02*
X046786Y045054D01*
X050986Y051154D02*
X048066Y054074D01*
X050886Y053904D02*
X049336Y055454D01*
X050631Y015954D02*
X050486Y015809D01*
X050631Y020754D02*
Y023499D01*
X050486Y011654D02*
Y015809D01*
X050386Y058454D02*
X049086D01*
X049848Y049716D02*
Y050969D01*
Y049716D02*
X046086Y045954D01*
X049848Y050969D02*
X046796Y054021D01*
X049361Y014079D02*
Y015954D01*
Y020754D02*
X049229Y020886D01*
X049336Y060254D02*
Y060904D01*
X049286Y024954D02*
Y025054D01*
X049229Y025111D01*
Y020886D02*
Y025111D01*
X049086Y058454D02*
X048066Y059474D01*
X048986Y028954D02*
X030986Y046954D01*
X048836Y050004D02*
Y050804D01*
Y050004D02*
X045886Y047054D01*
X048836Y050804D02*
X045526Y054114D01*
X048486Y018254D02*
X048091Y017859D01*
Y015954D02*
Y017859D01*
Y020754D02*
X048086Y020759D01*
Y023754D01*
X048066Y054074D02*
Y055454D01*
Y056474D01*
Y059761D02*
Y060254D01*
Y059474D02*
X047146Y058554D01*
X047686Y062254D02*
Y066054D01*
Y062254D02*
X046796Y061364D01*
X047686Y066054D02*
X034086D01*
X047146Y058554D02*
X043864D01*
X047086Y050754D02*
X046523D01*
X046886Y012754D02*
X046821Y012819D01*
Y015954D01*
Y020754D02*
Y022619D01*
X046686Y022754D01*
X046796Y054021D02*
Y055454D01*
Y060254D02*
Y061364D01*
X046786Y016254D02*
Y016661D01*
X044394Y019054D01*
X046786Y051017D02*
Y051354D01*
Y051017D02*
X046523Y050754D01*
X046786Y051354D02*
X045786Y052354D01*
X046786Y045054D02*
X042986D01*
X046486Y010454D02*
D01*
X043503D01*
X046486D02*
X044281Y012659D01*
X046086Y045954D02*
X043586D01*
X045886Y047054D02*
X043986D01*
X045786Y052354D02*
X042386D01*
X045586Y060654D02*
X045486Y060754D01*
X045551Y015954D02*
Y016626D01*
X044024Y018154D01*
G54D23*
X045551Y020754D02*
Y021789D01*
G54D22*
X045551Y021789D02*
X042786Y024554D01*
X045526Y054114D02*
Y055454D01*
X045486Y060754D02*
Y064854D01*
X045186Y050654D02*
X042386D01*
X044394Y019054D02*
X042686D01*
X044336Y021104D02*
X044281Y021159D01*
Y012659D02*
Y015954D01*
Y020754D02*
Y021159D01*
Y021247D02*
Y021659D01*
X042686Y023254D01*
X044256Y055454D02*
Y057084D01*
X043456Y057884D01*
X044256Y060254D02*
X044162Y060348D01*
X044256Y062284D02*
X044162Y062190D01*
X044256Y062284D02*
X044086Y062454D01*
X044162Y060348D02*
Y062014D01*
Y062190D01*
X044086Y062454D02*
Y063754D01*
X043286Y064554D01*
X044024Y018154D02*
X036664D01*
X043986Y047054D02*
X040086Y050954D01*
X043864Y058646D02*
X041194D01*
X043586Y045954D02*
X040650Y048890D01*
X043503Y010454D02*
X043460Y010411D01*
X029129D01*
X043456Y057884D02*
X039116D01*
X043286Y064554D02*
X040286D01*
X043011Y015954D02*
X042986Y015929D01*
X043011Y020754D02*
Y021426D01*
X042076Y022362D01*
X042986Y011554D02*
Y015929D01*
Y045054D02*
X039286Y048754D01*
X042986Y055454D02*
Y056754D01*
X042618Y057122D01*
X042986Y060254D02*
Y061454D01*
X042486Y061954D01*
X042786Y024554D02*
X038386D01*
X042686Y019054D02*
X041686Y020054D01*
X042686Y023254D02*
X037086D01*
X042618Y057122D02*
X039954D01*
X042486Y061954D02*
Y063054D01*
X042386Y050654D02*
X040446Y052594D01*
X042386Y052354D02*
X041716Y053024D01*
X042076Y022362D02*
X038594D01*
X041741Y015954D02*
Y016399D01*
X041086Y017054D01*
X041716Y053024D02*
Y055454D01*
X041686Y060854D02*
Y061654D01*
X040786Y062554D01*
X041194Y058646D02*
X040446Y059394D01*
X041086Y017054D02*
X036686D01*
X040786Y062554D02*
X040686D01*
X040650Y048890D02*
Y049069D01*
X039958Y049762D01*
X040446Y052594D02*
Y055454D01*
Y059394D02*
Y060254D01*
X036186D01*
X040286Y064554D02*
X038186Y062454D01*
X039958Y049762D02*
X035662D01*
X039954Y057122D02*
X039386Y056554D01*
Y053054D02*
Y056554D01*
Y053054D02*
X037286Y050954D01*
X039286Y048754D02*
X035505D01*
X039116Y057884D02*
X038086Y056854D01*
X038594Y022362D02*
X038267Y022035D01*
X038386Y024554D02*
X038186Y024354D01*
X038267Y022035D02*
X035686D01*
X038086Y053754D02*
Y056854D01*
X037286Y050954D02*
X036086D01*
X036686Y017054D02*
X036016Y017724D01*
X036686Y058954D02*
X033931Y056199D01*
X036664Y018154D02*
X036332Y018486D01*
X030441D01*
X036186Y060254D02*
X033886Y057954D01*
X036016Y017724D02*
X030756D01*
X035662Y049762D02*
X034943Y050480D01*
X035505Y048754D02*
X032905Y051354D01*
X034943Y050480D02*
Y050697D01*
X033429Y052211D01*
X034886Y016254D02*
X034186D01*
X034586Y060654D02*
X032586D01*
X034186Y016254D02*
X033478Y016962D01*
X034086Y066054D02*
X029991Y061959D01*
X033931Y056199D02*
X032531D01*
X033886Y057954D02*
X032686D01*
X033478Y016962D02*
X031294D01*
X033429Y052211D02*
Y052227D01*
X032760Y052897D01*
X032743D01*
X032186Y053454D01*
X032686Y057954D02*
X031261Y059379D01*
X032586Y060654D02*
X032431Y060499D01*
X032531Y055454D02*
Y056199D01*
Y056209D01*
X031486Y057254D01*
X032431Y059454D02*
Y060499D01*
X032286Y011954D02*
X032231Y012009D01*
Y015354D01*
Y020154D02*
Y022209D01*
X031686Y022754D01*
X031486Y057254D02*
X029451D01*
X031294Y016962D02*
X030961Y016629D01*
X031261Y054529D02*
Y054829D01*
Y055454D01*
Y054829D02*
X030986Y054554D01*
X031261Y059379D02*
Y060254D01*
X030986Y046954D02*
Y054554D01*
X030961Y015354D02*
Y016629D01*
Y020154D02*
Y021737D01*
X028245Y024454D01*
X030756Y017724D02*
X029691Y016659D01*
X030441Y018486D02*
X030109Y018154D01*
X029279D01*
X029991Y049059D02*
Y052393D01*
Y049059D02*
X028086Y047154D01*
X029991Y052393D02*
X029962Y052422D01*
X029991Y055454D02*
X029962Y055425D01*
X029991Y060254D02*
Y061959D01*
X029962Y052422D02*
Y055425D01*
X029691Y015354D02*
Y016659D01*
Y020154D02*
Y021149D01*
X026186Y024654D01*
X029451Y057254D02*
X027451Y059254D01*
X029279Y018154D02*
X027613Y016488D01*
X029129Y010411D02*
X025881Y013659D01*
X028721Y049219D02*
Y055454D01*
Y049219D02*
X027756Y048254D01*
X028721Y060254D02*
X028686Y060289D01*
Y063454D01*
X028421Y013189D02*
Y015354D01*
Y013189D02*
X028386Y013154D01*
X028421Y020154D02*
Y021119D01*
X026029Y023511D01*
X028086Y047154D02*
X022186D01*
X027756Y048254D02*
X023186D01*
X027613Y016309D02*
Y016488D01*
Y016309D02*
X027151Y015847D01*
X027576Y050164D02*
Y055329D01*
Y050164D02*
X026465Y049054D01*
X027576Y055329D02*
X027451Y055454D01*
Y059254D02*
Y060254D01*
X027151Y015354D02*
Y015847D01*
Y020154D02*
Y020989D01*
D01*
X026036Y022104D01*
X026465Y049054D02*
X023686D01*
X026186Y024654D02*
D01*
Y060259D02*
Y063954D01*
Y060259D02*
X026181Y060254D01*
Y055454D02*
X026086Y055359D01*
Y051554D02*
Y055359D01*
X026036Y022104D02*
D01*
X025786Y022354D01*
X026029Y023511D02*
X025713D01*
X025881Y013659D02*
Y015354D01*
Y018049D02*
Y020154D01*
Y018049D02*
X025186Y017354D01*
X025786Y022354D02*
X023986D01*
X025713Y023511D02*
X025070Y024154D01*
X025326Y057314D02*
X024911Y057729D01*
X025186Y017354D02*
X021536D01*
X025070Y024154D02*
X023186D01*
X024911Y053679D02*
Y055454D01*
Y053679D02*
X024086Y052854D01*
X024911Y057729D02*
Y060254D01*
X024686Y011854D02*
X024636D01*
X024611Y011829D01*
Y015354D01*
Y018579D02*
Y020154D01*
Y018579D02*
X024286Y018254D01*
X022586D01*
X024086Y051954D02*
Y052854D01*
X023686Y049054D02*
X019286Y053454D01*
X023641Y054209D02*
Y055454D01*
Y054209D02*
X022186Y052754D01*
X023641Y058209D02*
Y060254D01*
Y058209D02*
X023386Y057954D01*
X023341Y020154D02*
X021886Y021609D01*
X023186Y048254D02*
X020102Y051338D01*
X022586Y018254D02*
X018486Y022354D01*
X022186Y052454D02*
Y052754D01*
Y047154D02*
X019086Y050254D01*
X021886Y021609D02*
Y021954D01*
X021536Y017354D02*
X017836Y021054D01*
X020102Y051338D02*
Y051375D01*
X019423Y052054D01*
X017786D01*
X019286Y053454D02*
X016286D01*
X019086Y050254D02*
Y050354D01*
X018486Y022354D02*
Y023454D01*
X017786Y024154D01*
Y052054D02*
X017086Y051354D01*
X016336Y021054D02*
X014366D01*
X016286Y053454D02*
X015086Y052254D01*
X016286Y024254D02*
X013166D01*
X014366Y021054D02*
X013166Y019854D01*
X010626D02*
Y024154D01*
G54D24*
X068386Y023354D03*
G54D26*
X066086Y037914D03*
G54D25*
X066086Y040454D03*
Y042994D03*
X063546Y037914D03*
Y040454D03*
Y042994D03*
G54D30*
X050631Y015954D03*
Y020754D03*
X049361Y015954D03*
Y020754D03*
X049336Y055454D03*
Y060254D03*
X048091Y015954D03*
Y020754D03*
X048066Y055454D03*
Y060254D03*
X046821Y015954D03*
Y020754D03*
X046796Y055454D03*
Y060254D03*
X045551Y015954D03*
Y020754D03*
X045526Y055454D03*
Y060254D03*
X044281Y015954D03*
Y020754D03*
X044256Y055454D03*
Y060254D03*
X043011Y015954D03*
Y020754D03*
X042986Y055454D03*
Y060254D03*
X041741Y015954D03*
Y020754D03*
X041716Y055454D03*
Y060254D03*
X040446Y055454D03*
Y060254D03*
X032531Y055454D03*
Y060254D03*
X032231Y015354D03*
Y020154D03*
X031261Y055454D03*
Y060254D03*
X030961Y015354D03*
Y020154D03*
X029991Y055454D03*
Y060254D03*
X029691Y015354D03*
Y020154D03*
X028721Y055454D03*
Y060254D03*
X028421Y015354D03*
Y020154D03*
X027451Y055454D03*
Y060254D03*
X027151Y015354D03*
Y020154D03*
X026181Y055454D03*
Y060254D03*
X025881Y015354D03*
Y020154D03*
X024911Y055454D03*
Y060254D03*
X024611Y015354D03*
Y020154D03*
X023641Y055454D03*
Y060254D03*
X023341Y015354D03*
Y020154D03*
G54D31*
X017836Y021054D03*
X017786Y024154D03*
X016336Y021054D03*
X016286Y024154D03*
G54D25*
X013166Y019854D03*
Y024154D03*
X010626Y019854D03*
Y024154D03*
G54D26*
X008086Y019854D03*
Y024154D03*
G54D27*
X069886Y011554D03*
X069686Y054654D03*
X064686Y023154D03*
X062786Y016354D03*
X059286Y052854D03*
X058386Y015154D03*
X058286Y059254D03*
X058186Y023454D03*
X054686Y036354D03*
X054386Y054454D03*
X053086Y023654D03*
X051386Y062754D03*
X050886Y053904D03*
X050586Y023554D03*
X050486Y011654D03*
X049286Y013954D03*
Y024954D03*
X048986Y028954D03*
X048086Y023754D03*
X047086Y050754D03*
X046821Y012819D03*
X046686Y022754D03*
X045786Y062454D03*
X045486Y064854D03*
X045186Y050654D03*
X044162Y062014D03*
X042986Y011554D03*
X042486Y063054D03*
X040686Y062554D03*
X040086Y050954D03*
X039386Y020254D03*
X038186Y018454D03*
Y062454D03*
X038086Y053754D03*
Y024654D03*
X037686Y013554D03*
X037086Y023254D03*
X036686Y058954D03*
X036086Y050954D03*
X035986Y062554D03*
X035886Y022054D03*
X034886Y016254D03*
X034686Y034854D03*
X034586Y046054D03*
Y060654D03*
X032686Y057954D03*
X032286Y011954D03*
Y051754D03*
X032186Y053454D03*
X031686Y022754D03*
X028686Y063454D03*
X028421Y013189D03*
X028245Y024454D03*
X026186Y024654D03*
X026086Y051554D03*
Y064254D03*
X025439Y057427D03*
X024686Y011854D03*
X024086Y051954D03*
X023986Y022354D03*
X023386Y057954D03*
X023186Y024154D03*
X022186Y052454D03*
X021886Y021954D03*
X019086Y050354D03*
X017886Y015854D03*
X017086Y051354D03*
X015086Y052254D03*
X009986Y049254D03*
X009686Y032054D03*
X008286Y011454D03*
M02*