%FSDAX33Y33*%
%MOMM*%
%SFA1B1*%

%IPPOS*%
%AMD1002*
%
%ADD19R,1.050000X0.800001*%
%ADD20R,1.400000X2.000001*%
%ADD21R,1.000001X2.000001*%
%ADD22C,0.508000*%
%ADD23C,0.254000*%
%ADD24C,1.524000*%
%ADD25C,1.500000*%
%ADD26R,1.500000X1.500000*%
%ADD27C,1.270000*%
%LNfilm_top-1*%
%LPD*%
G36*
X076199Y076199D02*
X000000D01*
Y000000*
X076199*
Y076199*
G37*
%LNfilm_top-2*%
%LPC*%
G36*
X072113Y009554D02*
X004113D01*
Y066654*
X072113*
Y009554*
G37*
%LNfilm_top-3*%
%LPD*%
G36*
X066386Y032934D02*
X066281Y032920D01*
X066064Y032830*
X065879Y032688*
X065736Y032502*
X065647Y032286*
X065633Y032181*
X066386*
Y032934*
G37*
G36*
X066640D02*
Y032181D01*
X067393*
X067379Y032286*
X067289Y032502*
X067147Y032688*
X066961Y032830*
X066745Y032920*
X066640Y032934*
G37*
G36*
X041386Y034727D02*
X040633D01*
X040647Y034622*
X040736Y034405*
X040879Y034220*
X041064Y034077*
X041281Y033988*
X041386Y033974*
Y034727*
G37*
G36*
X055067Y033708D02*
X053159D01*
Y031200*
X053595*
Y030358*
X053334*
Y029050*
X054892*
Y030358*
X054631*
Y031200*
X055067*
Y033708*
G37*
G36*
X066386Y031927D02*
X065633D01*
X065647Y031822*
X065736Y031605*
X065879Y031420*
X066064Y031277*
X066281Y031188*
X066386Y031174*
Y031927*
G37*
G36*
X067393D02*
X066640D01*
Y031174*
X066745Y031188*
X066961Y031277*
X067147Y031420*
X067289Y031605*
X067379Y031822*
X067393Y031927*
G37*
G36*
X042393Y034727D02*
X041640D01*
Y033974*
X041745Y033988*
X041961Y034077*
X042147Y034220*
X042289Y034405*
X042379Y034622*
X042393Y034727*
G37*
G36*
X022393Y036227D02*
X021640D01*
Y035474*
X021745Y035488*
X021961Y035577*
X022147Y035720*
X022289Y035905*
X022379Y036122*
X022393Y036227*
G37*
G36*
X042986Y036927D02*
X042159D01*
Y035800*
X042986*
Y036927*
G37*
G36*
X044067D02*
X043240D01*
Y035800*
X044067*
Y036927*
G37*
G36*
X041386Y035734D02*
X041281Y035720D01*
X041064Y035630*
X040879Y035488*
X040736Y035302*
X040647Y035086*
X040633Y034981*
X041386*
Y035734*
G37*
G36*
X041640D02*
Y034981D01*
X042393*
X042379Y035086*
X042289Y035302*
X042147Y035488*
X041961Y035630*
X041745Y035720*
X041640Y035734*
G37*
G36*
X021386Y036227D02*
X020633D01*
X020647Y036122*
X020736Y035905*
X020879Y035720*
X021064Y035577*
X021281Y035488*
X021386Y035474*
Y036227*
G37*
G36*
X052867Y033708D02*
X051359D01*
Y031200*
X051595*
Y030358*
X051334*
Y029050*
X052892*
Y030358*
X052631*
Y031200*
X052867*
Y033708*
G37*
G36*
X037067D02*
X035159D01*
Y031200*
X035595*
Y030308*
X035334*
Y029000*
X036892*
Y030308*
X036631*
Y031200*
X037067*
Y033708*
G37*
G36*
X044067D02*
X042159D01*
Y031200*
X042595*
Y030308*
X042334*
Y029000*
X043892*
Y030308*
X043631*
Y031200*
X044067*
Y033708*
G37*
G36*
X045867D02*
X044359D01*
Y031200*
X044595*
Y030308*
X044334*
Y029000*
X045892*
Y030308*
X045631*
Y031200*
X045867*
Y033708*
G37*
G36*
X030067D02*
X028159D01*
Y031200*
X028595*
Y030258*
X028334*
Y028950*
X029892*
Y030258*
X029631*
Y031200*
X030067*
Y033708*
G37*
G36*
X031867D02*
X030359D01*
Y031200*
X030595*
Y030258*
X030334*
Y028950*
X031892*
Y030258*
X031631*
Y031200*
X031867*
Y033708*
G37*
G36*
X034067D02*
X032159D01*
Y031200*
X032595*
Y030258*
X032334*
Y028950*
X033892*
Y030258*
X033631*
Y031200*
X034067*
Y033708*
G37*
G36*
X048067D02*
X046159D01*
Y031200*
X046595*
Y030308*
X046434*
Y029000*
X047992*
Y030308*
X047631*
Y031200*
X048067*
Y033708*
G37*
G36*
X059867D02*
X058359D01*
Y031200*
X058595*
Y030308*
X058334*
Y029000*
X059892*
Y030308*
X059631*
Y031200*
X059867*
Y033708*
G37*
G36*
X062067D02*
X060159D01*
Y031200*
X060595*
Y030308*
X060334*
Y029000*
X061892*
Y030308*
X061631*
Y031200*
X062067*
Y033708*
G37*
G36*
X051067D02*
X049159D01*
Y031200*
X049595*
Y030358*
X049334*
Y029050*
X050892*
Y030358*
X050631*
Y031200*
X051067*
Y033708*
G37*
G36*
X038867D02*
X037359D01*
Y031200*
X037595*
Y030308*
X037334*
Y029000*
X038892*
Y030308*
X038631*
Y031200*
X038867*
Y033708*
G37*
G36*
X041067D02*
X039159D01*
Y031200*
X039595*
Y030308*
X039334*
Y029000*
X040892*
Y030308*
X040631*
Y031200*
X041067*
Y033708*
G37*
G36*
X058067D02*
X056159D01*
Y031200*
X056595*
Y030308*
X056334*
Y029000*
X057892*
Y030308*
X057631*
Y031200*
X058067*
Y033708*
G37*
G36*
X044986Y036927D02*
X044359D01*
Y035800*
X044986*
Y036927*
G37*
G36*
X051986Y036927D02*
X051359D01*
Y035800*
X051986*
Y036927*
G37*
G36*
X052867D02*
X052240D01*
Y035800*
X052867*
Y036927*
G37*
G36*
X053986D02*
X053159D01*
Y035800*
X053986*
Y036927*
G37*
G36*
X041067D02*
X040240D01*
Y035800*
X041067*
Y036927*
G37*
G36*
X049986D02*
X049159D01*
Y035800*
X049986*
Y036927*
G37*
G36*
X051067D02*
X050240D01*
Y035800*
X051067*
Y036927*
G37*
G36*
X055067D02*
X054240D01*
Y035800*
X055067*
Y036927*
G37*
G36*
X059867D02*
X059240D01*
Y035800*
X059867*
Y036927*
G37*
G36*
X060986D02*
X060159D01*
Y035800*
X060986*
Y036927*
G37*
G36*
X062067D02*
X061240D01*
Y035800*
X062067*
Y036927*
G37*
G36*
X056986D02*
X056159D01*
Y035800*
X056986*
Y036927*
G37*
G36*
X058067D02*
X057240D01*
Y035800*
X058067*
Y036927*
G37*
G36*
X058986D02*
X058359D01*
Y035800*
X058986*
Y036927*
G37*
G36*
X039986D02*
X039159D01*
Y035800*
X039986*
Y036927*
G37*
G36*
X028986D02*
X028159D01*
Y035800*
X028986*
Y036927*
G37*
G36*
X030067D02*
X029240D01*
Y035800*
X030067*
Y036927*
G37*
G36*
X030986D02*
X030359D01*
Y035800*
X030986*
Y036927*
G37*
G36*
X045867Y036927D02*
X045240D01*
Y035800*
X045867*
Y036927*
G37*
G36*
X046986D02*
X046159D01*
Y035800*
X046986*
Y036927*
G37*
G36*
X048067D02*
X047240D01*
Y035800*
X048067*
Y036927*
G37*
G36*
X031867Y036927D02*
X031240D01*
Y035800*
X031867*
Y036927*
G37*
G36*
X037067D02*
X036240D01*
Y035800*
X037067*
Y036927*
G37*
G36*
X037986D02*
X037359D01*
Y035800*
X037986*
Y036927*
G37*
G36*
X038867D02*
X038240D01*
Y035800*
X038867*
Y036927*
G37*
G36*
X032986D02*
X032159D01*
Y035800*
X032986*
Y036927*
G37*
G36*
X034067D02*
X033240D01*
Y035800*
X034067*
Y036927*
G37*
G36*
X035986D02*
X035159D01*
Y035800*
X035986*
Y036927*
G37*
G36*
X038386Y014434D02*
X038281Y014420D01*
X038064Y014330*
X037879Y014188*
X037736Y014002*
X037647Y013786*
X037633Y013681*
X038386*
Y014434*
G37*
G36*
X038640D02*
Y013681D01*
X039393*
X039379Y013786*
X039289Y014002*
X039147Y014188*
X038961Y014330*
X038745Y014420*
X038640Y014434*
G37*
G36*
X017686Y015027D02*
X016933D01*
X016947Y014922*
X017036Y014705*
X017179Y014520*
X017364Y014377*
X017581Y014288*
X017686Y014274*
Y015027*
G37*
G36*
X008886Y015327D02*
X007162D01*
X007186Y015090*
X007292Y014741*
X007464Y014419*
X007695Y014136*
X007978Y013905*
X008300Y013733*
X008649Y013627*
X008886Y013603*
Y015327*
G37*
G36*
X010863D02*
X009140D01*
Y013603*
X009376Y013627*
X009726Y013733*
X010048Y013905*
X010330Y014136*
X010562Y014419*
X010734Y014741*
X010840Y015090*
X010863Y015327*
G37*
G36*
X063386D02*
X061662D01*
X061686Y015090*
X061792Y014741*
X061964Y014419*
X062195Y014136*
X062478Y013905*
X062800Y013733*
X063149Y013627*
X063386Y013603*
Y015327*
G37*
G36*
X018693Y015027D02*
X017940D01*
Y014274*
X018045Y014288*
X018261Y014377*
X018447Y014520*
X018589Y014705*
X018679Y014922*
X018693Y015027*
G37*
G36*
X017686Y016034D02*
X017581Y016020D01*
X017364Y015930*
X017179Y015788*
X017036Y015602*
X016947Y015386*
X016933Y015281*
X017686*
Y016034*
G37*
G36*
X017940D02*
Y015281D01*
X018693*
X018679Y015386*
X018589Y015602*
X018447Y015788*
X018261Y015930*
X018045Y016020*
X017940Y016034*
G37*
G36*
X008886Y017304D02*
X008649Y017281D01*
X008300Y017175*
X007978Y017003*
X007695Y016771*
X007464Y016489*
X007292Y016167*
X007186Y015817*
X007162Y015581*
X008886*
Y017304*
G37*
G36*
X069117Y025158D02*
X067109D01*
Y023150*
X067595*
Y020858*
X067109*
Y018850*
X067595*
Y016768*
X065138Y014312*
X065044Y014397*
X065062Y014419*
X065234Y014741*
X065340Y015090*
X065363Y015327*
X063640*
Y013603*
X063876Y013627*
X064226Y013733*
X064548Y013905*
X064569Y013922*
X064655Y013828*
X063198Y012372*
X052236*
X052147Y012488*
X051961Y012630*
X051745Y012720*
X051513Y012750*
X051281Y012720*
X051064Y012630*
X050879Y012488*
X050790Y012372*
X048382*
X048339Y012499*
X048412Y012555*
X048554Y012740*
X048644Y012957*
X048658Y013062*
X046898*
X046912Y012957*
X047001Y012740*
X047144Y012555*
X047217Y012499*
X047174Y012372*
X044702*
X044689Y012402*
X044547Y012588*
X044361Y012730*
X044145Y012820*
X043913Y012850*
X043681Y012820*
X043464Y012730*
X043279Y012588*
X043136Y012402*
X043124Y012372*
X033561*
X033445Y012420*
X033213Y012450*
X032981Y012420*
X032764Y012330*
X032579Y012188*
X032490Y012072*
X030051*
X030022Y012199*
X030154Y012370*
X030244Y012587*
X030258Y012692*
X028498*
X028512Y012587*
X028601Y012370*
X028733Y012199*
X028705Y012072*
X026502*
X026489Y012102*
X026347Y012288*
X026161Y012430*
X025945Y012520*
X025713Y012550*
X025481Y012520*
X025264Y012430*
X025188Y012372*
X018127*
X014290Y016209*
X014309Y016354*
X014279Y016586*
X014189Y016802*
X014047Y016988*
X013861Y017130*
X013645Y017220*
X013413Y017250*
X013181Y017220*
X012964Y017130*
X012779Y016988*
X012636Y016802*
X012547Y016586*
X012516Y016354*
X012547Y016122*
X012636Y015905*
X012779Y015720*
X012964Y015577*
X013181Y015488*
X013413Y015457*
X013558Y015476*
X017546Y011487*
X017714Y011375*
X017913Y011336*
X024882*
X024936Y011205*
X025079Y011020*
X025264Y010877*
X025481Y010788*
X025713Y010757*
X025945Y010788*
X026161Y010877*
X026347Y011020*
X026359Y011036*
X032490*
X032579Y010920*
X032764Y010777*
X032981Y010688*
X033213Y010657*
X033445Y010688*
X033661Y010777*
X033847Y010920*
X033989Y011105*
X034079Y011322*
X034081Y011336*
X043266*
X043279Y011320*
X043464Y011177*
X043681Y011088*
X043913Y011057*
X044145Y011088*
X044361Y011177*
X044547Y011320*
X044559Y011336*
X050790*
X050879Y011220*
X051064Y011077*
X051281Y010988*
X051513Y010957*
X051745Y010988*
X051961Y011077*
X052147Y011220*
X052236Y011336*
X063413*
X063611Y011375*
X063779Y011487*
X068479Y016187*
X068591Y016355*
X068631Y016554*
Y018850*
X069117*
Y020858*
X068631*
Y023150*
X069117*
Y025158*
G37*
G36*
X058186Y015727D02*
X057433D01*
X057447Y015622*
X057536Y015405*
X057679Y015220*
X057864Y015077*
X058081Y014988*
X058186Y014974*
Y015727*
G37*
G36*
X059193D02*
X058440D01*
Y014974*
X058545Y014988*
X058761Y015077*
X058947Y015220*
X059089Y015405*
X059179Y015622*
X059193Y015727*
G37*
G36*
X047905Y014069D02*
Y013316D01*
X048658*
X048644Y013421*
X048554Y013637*
X048412Y013823*
X048226Y013965*
X048010Y014055*
X047905Y014069*
G37*
G36*
X007193Y011427D02*
X006440D01*
Y010674*
X006545Y010688*
X006761Y010777*
X006947Y010920*
X007089Y011105*
X007179Y011322*
X007193Y011427*
G37*
G36*
X067786Y012334D02*
X067681Y012320D01*
X067464Y012230*
X067279Y012088*
X067136Y011902*
X067047Y011686*
X067033Y011581*
X067786*
Y012334*
G37*
G36*
X068040D02*
Y011581D01*
X068793*
X068779Y011686*
X068689Y011902*
X068547Y012088*
X068361Y012230*
X068145Y012320*
X068040Y012334*
G37*
G36*
X067786Y011327D02*
X067033D01*
X067047Y011222*
X067136Y011005*
X067279Y010820*
X067464Y010677*
X067681Y010588*
X067786Y010574*
Y011327*
G37*
G36*
X068793D02*
X068040D01*
Y010574*
X068145Y010588*
X068361Y010677*
X068547Y010820*
X068689Y011005*
X068779Y011222*
X068793Y011327*
G37*
G36*
X006186Y011427D02*
X005433D01*
X005447Y011322*
X005536Y011105*
X005679Y010920*
X005864Y010777*
X006081Y010688*
X006186Y010674*
Y011427*
G37*
G36*
Y012434D02*
X006081Y012420D01*
X005864Y012330*
X005679Y012188*
X005536Y012002*
X005447Y011786*
X005433Y011681*
X006186*
Y012434*
G37*
G36*
X029251Y013699D02*
X029146Y013685D01*
X028929Y013595*
X028744Y013453*
X028601Y013267*
X028512Y013051*
X028498Y012946*
X029251*
Y013699*
G37*
G36*
X029505D02*
Y012946D01*
X030258*
X030244Y013051*
X030154Y013267*
X030012Y013453*
X029826Y013595*
X029610Y013685*
X029505Y013699*
G37*
G36*
X047651Y014069D02*
X047546Y014055D01*
X047329Y013965*
X047144Y013823*
X047001Y013637*
X046912Y013421*
X046898Y013316*
X047651*
Y014069*
G37*
G36*
X006440Y012434D02*
Y011681D01*
X007193*
X007179Y011786*
X007089Y012002*
X006947Y012188*
X006761Y012330*
X006545Y012420*
X006440Y012434*
G37*
G36*
X038386Y013427D02*
X037633D01*
X037647Y013322*
X037736Y013105*
X037879Y012920*
X038064Y012777*
X038281Y012688*
X038386Y012674*
Y013427*
G37*
G36*
X039393D02*
X038640D01*
Y012674*
X038745Y012688*
X038961Y012777*
X039147Y012920*
X039289Y013105*
X039379Y013322*
X039393Y013427*
G37*
G36*
X009140Y017304D02*
Y015581D01*
X010863*
X010840Y015817*
X010734Y016167*
X010562Y016489*
X010330Y016771*
X010048Y017003*
X009726Y017175*
X009376Y017281*
X009140Y017304*
G37*
G36*
X022986Y023527D02*
X022233D01*
X022247Y023422*
X022336Y023205*
X022479Y023020*
X022664Y022877*
X022881Y022788*
X022986Y022774*
Y023527*
G37*
G36*
X023993D02*
X023240D01*
Y022774*
X023345Y022788*
X023561Y022877*
X023747Y023020*
X023889Y023205*
X023979Y023422*
X023993Y023527*
G37*
G36*
X063033Y025166D02*
X062771Y025132D01*
X062526Y025031*
X062317Y024870*
X062156Y024660*
X062055Y024416*
X062020Y024154*
X062055Y023892*
X062156Y023647*
X062317Y023438*
X062526Y023277*
X062771Y023176*
X063033Y023141*
X063295Y023176*
X063539Y023277*
X063749Y023438*
X063910Y023647*
X064011Y023892*
X064045Y024154*
X064011Y024416*
X063910Y024660*
X063749Y024870*
X063539Y025031*
X063295Y025132*
X063033Y025166*
G37*
G36*
X054186Y021827D02*
X053433D01*
X053447Y021722*
X053536Y021505*
X053679Y021320*
X053864Y021177*
X054081Y021088*
X054186Y021074*
Y021827*
G37*
G36*
X055193D02*
X054440D01*
Y021074*
X054545Y021088*
X054761Y021177*
X054947Y021320*
X055089Y021505*
X055179Y021722*
X055193Y021827*
G37*
G36*
X007813Y024378D02*
X007547Y024344D01*
X007300Y024241*
X007088Y024078*
X006925Y023866*
X006823Y023619*
X006788Y023354*
X006823Y023088*
X006925Y022841*
X007088Y022629*
X007300Y022466*
X007547Y022364*
X007813Y022329*
X008078Y022364*
X008325Y022466*
X008537Y022629*
X008542Y022636*
X010790*
X010879Y022520*
X011064Y022377*
X011281Y022288*
X011513Y022257*
X011745Y022288*
X011961Y022377*
X012147Y022520*
X012289Y022705*
X012379Y022922*
X012409Y023154*
X012379Y023386*
X012289Y023602*
X012147Y023788*
X011961Y023930*
X011745Y024020*
X011513Y024050*
X011281Y024020*
X011064Y023930*
X010879Y023788*
X010790Y023672*
X008781*
X008700Y023866*
X008537Y024078*
X008325Y024241*
X008078Y024344*
X007813Y024378*
G37*
G36*
X065446Y024027D02*
X064577D01*
X064595Y023892*
X064696Y023647*
X064857Y023438*
X065066Y023277*
X065311Y023176*
X065446Y023158*
Y024027*
G37*
G36*
Y025150D02*
X065311Y025132D01*
X065066Y025031*
X064857Y024870*
X064696Y024660*
X064595Y024416*
X064577Y024281*
X065446*
Y025150*
G37*
G36*
X065700D02*
Y024281D01*
X066569*
X066551Y024416*
X066450Y024660*
X066289Y024870*
X066079Y025031*
X065835Y025132*
X065700Y025150*
G37*
G36*
X027213Y029850D02*
X026981Y029820D01*
X026764Y029730*
X026579Y029588*
X026436Y029402*
X026347Y029186*
X026316Y028954*
X026347Y028722*
X026436Y028505*
X026579Y028320*
X026764Y028177*
X026981Y028088*
X027213Y028057*
X027358Y028076*
X027696Y027737*
X027755Y027699*
X027716Y027572*
X017913*
X017714Y027532*
X017546Y027420*
X014096Y023970*
X013984Y023802*
X013945Y023604*
Y021504*
X013984Y021305*
X014096Y021137*
X021646Y013587*
X021814Y013475*
X022013Y013436*
X026190*
X026279Y013320*
X026464Y013177*
X026681Y013088*
X026913Y013057*
X027145Y013088*
X027361Y013177*
X027547Y013320*
X027689Y013505*
X027779Y013722*
X027809Y013954*
X027779Y014186*
X027689Y014402*
X027547Y014588*
X027361Y014730*
X027145Y014820*
X026913Y014850*
X026681Y014820*
X026464Y014730*
X026279Y014588*
X026190Y014472*
X022227*
X014981Y021718*
Y023389*
X018127Y026536*
X025801*
X025854Y026409*
X025246Y025802*
X025134Y025633*
X025095Y025435*
Y024277*
X024979Y024188*
X024836Y024002*
X024747Y023786*
X024716Y023554*
X024747Y023322*
X024836Y023105*
X024979Y022920*
X025164Y022777*
X025381Y022688*
X025613Y022657*
X025845Y022688*
X026061Y022777*
X026247Y022920*
X026389Y023105*
X026479Y023322*
X026509Y023554*
X026479Y023786*
X026389Y024002*
X026247Y024188*
X026328Y024282*
X026464Y024177*
X026681Y024088*
X026913Y024057*
X027145Y024088*
X027165Y024096*
X027255Y024006*
X027247Y023986*
X027216Y023754*
X027247Y023522*
X027336Y023305*
X027479Y023120*
X027664Y022977*
X027881Y022888*
X028113Y022857*
X028345Y022888*
X028515Y022958*
X028620Y022891*
X028632Y022875*
X028616Y022754*
X028647Y022522*
X028736Y022305*
X028879Y022120*
X029064Y021977*
X029281Y021888*
X029513Y021857*
X029745Y021888*
X029961Y021977*
X030147Y022120*
X030236Y022236*
X034596*
X034794Y022275*
X034962Y022387*
X037116Y024541*
X037236Y024500*
X037247Y024422*
X037336Y024205*
X037479Y024020*
X037664Y023877*
X037881Y023788*
X038113Y023757*
X038234Y023773*
X038250Y023762*
X038317Y023656*
X038247Y023486*
X038216Y023254*
X038247Y023022*
X038336Y022805*
X038479Y022620*
X038664Y022477*
X038881Y022388*
X039113Y022357*
X039345Y022388*
X039365Y022396*
X039455Y022306*
X039447Y022286*
X039416Y022054*
X039447Y021822*
X039536Y021605*
X039679Y021420*
X039864Y021277*
X040081Y021188*
X040313Y021157*
X040545Y021188*
X040675Y021242*
X040720Y021223*
X040795Y021154*
Y016977*
X040679Y016888*
X040536Y016702*
X040447Y016486*
X040416Y016254*
X040447Y016022*
X040536Y015805*
X040679Y015620*
X040864Y015477*
X041081Y015388*
X041313Y015357*
X041545Y015388*
X041761Y015477*
X041947Y015620*
X042089Y015805*
X042179Y016022*
X042209Y016254*
X042179Y016486*
X042089Y016702*
X041947Y016888*
X041831Y016977*
Y020976*
X043502Y022647*
X043636Y022602*
X043647Y022522*
X043736Y022305*
X043879Y022120*
X044064Y021977*
X044281Y021888*
X044513Y021857*
X044745Y021888*
X044961Y021977*
X045147Y022120*
X045289Y022305*
X045379Y022522*
X045409Y022754*
X045379Y022986*
X045289Y023202*
X045232Y023277*
X046709Y024754*
X046992*
X047080Y024627*
X047058Y024454*
X047088Y024222*
X047178Y024005*
X047320Y023820*
X047506Y023677*
X047722Y023588*
X047954Y023557*
X048186Y023588*
X048403Y023677*
X048588Y023820*
X048731Y024005*
X048820Y024222*
X048851Y024454*
X048832Y024599*
X049003Y024770*
X049124Y024711*
X049116Y024654*
X049147Y024422*
X049236Y024205*
X049379Y024020*
X049564Y023877*
X049781Y023788*
X050013Y023757*
X050245Y023788*
X050461Y023877*
X050647Y024020*
X050743Y024145*
X050894Y024175*
X051062Y024287*
X051554Y024779*
X052228*
X052284Y024665*
X052236Y024602*
X052147Y024386*
X052144Y024367*
X052134Y024352*
X052095Y024154*
X052134Y023955*
X052144Y023941*
X052147Y023922*
X052236Y023705*
X052379Y023520*
X052564Y023377*
X052781Y023288*
X052859Y023277*
X052900Y023157*
X052781Y023038*
X052661Y023130*
X052445Y023220*
X052213Y023250*
X051981Y023220*
X051764Y023130*
X051579Y022988*
X051436Y022802*
X051347Y022586*
X051316Y022354*
X051347Y022122*
X051436Y021905*
X051579Y021720*
X051764Y021577*
X051981Y021488*
X052213Y021457*
X052445Y021488*
X052661Y021577*
X052847Y021720*
X052955Y021861*
X053027Y021875*
X053195Y021987*
X053307Y022099*
X053344Y022081*
X055193*
X055179Y022186*
X055089Y022402*
X054947Y022588*
X054761Y022730*
X054572Y022809*
X054597Y022936*
X056413*
X056611Y022975*
X056779Y023087*
X061191Y027500*
X061892*
Y028808*
X060334*
Y028107*
X060009Y027783*
X059892Y027831*
Y028808*
X058334*
Y028107*
X058009Y027783*
X057892Y027831*
Y028808*
X056334*
Y028107*
X054398Y026172*
X053026*
X052984Y026163*
X052922Y026280*
X054191Y027550*
X054892*
Y028858*
X053334*
Y028157*
X053009Y027833*
X052892Y027881*
Y028858*
X051334*
Y028157*
X051009Y027833*
X050892Y027881*
Y028858*
X049334*
Y028722*
X048963*
X048764Y028682*
X048596Y028570*
X048109Y028083*
X047992Y028131*
Y028808*
X046434*
Y028407*
X046009Y027983*
X045892Y028031*
Y028808*
X044334*
Y028107*
X044009Y027783*
X043892Y027831*
Y028808*
X042334*
Y028107*
X039398Y025172*
X038836*
X038747Y025288*
X038561Y025430*
X038345Y025520*
X038266Y025530*
X038225Y025650*
X040075Y027500*
X040892*
Y028808*
X039334*
Y028224*
X039009Y027899*
X038892Y027948*
Y028808*
X037334*
Y028107*
X037009Y027783*
X036892Y027831*
Y028808*
X035334*
Y028107*
X032698Y025472*
X031335*
X031296Y025599*
X031429Y025687*
X033191Y027450*
X033892*
Y028758*
X032334*
Y028057*
X032009Y027733*
X031892Y027781*
Y028758*
X030334*
Y028057*
X030009Y027733*
X029892Y027781*
Y028758*
X028334*
Y028745*
X028207Y028692*
X028090Y028809*
X028109Y028954*
X028079Y029186*
X027989Y029402*
X027847Y029588*
X027661Y029730*
X027445Y029820*
X027213Y029850*
G37*
G36*
X066569Y024027D02*
X065700D01*
Y023158*
X065835Y023176*
X066079Y023277*
X066289Y023438*
X066450Y023647*
X066551Y023892*
X066569Y024027*
G37*
G36*
X022986Y024534D02*
X022881Y024520D01*
X022664Y024430*
X022479Y024288*
X022336Y024102*
X022247Y023886*
X022233Y023781*
X022986*
Y024534*
G37*
G36*
X023240D02*
Y023781D01*
X023993*
X023979Y023886*
X023889Y024102*
X023747Y024288*
X023561Y024430*
X023345Y024520*
X023240Y024534*
G37*
G36*
X036940Y021134D02*
Y020381D01*
X037693*
X037679Y020486*
X037589Y020702*
X037447Y020888*
X037261Y021030*
X037045Y021120*
X036940Y021134*
G37*
G36*
X058440Y016734D02*
Y015981D01*
X059193*
X059179Y016086*
X059089Y016302*
X058947Y016488*
X058761Y016630*
X058545Y016720*
X058440Y016734*
G37*
G36*
X018013Y024350D02*
X017781Y024320D01*
X017564Y024230*
X017379Y024088*
X017236Y023902*
X017147Y023686*
X017116Y023454*
X017147Y023222*
X017236Y023005*
X017379Y022820*
X017564Y022677*
X017781Y022588*
X018013Y022557*
X018245Y022588*
X018461Y022677*
X018647Y022820*
X018736Y022936*
X019898*
X024746Y018087*
X024914Y017975*
X025113Y017936*
X037290*
X037379Y017820*
X037564Y017677*
X037781Y017588*
X038013Y017557*
X038245Y017588*
X038461Y017677*
X038647Y017820*
X038789Y018005*
X038879Y018222*
X038909Y018454*
X038879Y018686*
X038789Y018902*
X038647Y019088*
X038461Y019230*
X038245Y019320*
X038013Y019350*
X037781Y019320*
X037564Y019230*
X037379Y019088*
X037290Y018972*
X025327*
X020479Y023820*
X020311Y023932*
X020113Y023972*
X018736*
X018647Y024088*
X018461Y024230*
X018245Y024320*
X018013Y024350*
G37*
G36*
X063033Y020866D02*
X062771Y020832D01*
X062526Y020731*
X062317Y020570*
X062156Y020360*
X062055Y020116*
X062020Y019854*
X062055Y019592*
X062156Y019347*
X062317Y019138*
X062526Y018977*
X062771Y018876*
X063033Y018841*
X063295Y018876*
X063539Y018977*
X063749Y019138*
X063910Y019347*
X064011Y019592*
X064045Y019854*
X064011Y020116*
X063910Y020360*
X063749Y020570*
X063539Y020731*
X063295Y020832*
X063033Y020866*
G37*
G36*
X063386Y017304D02*
X063149Y017281D01*
X062800Y017175*
X062478Y017003*
X062195Y016771*
X061964Y016489*
X061792Y016167*
X061686Y015817*
X061662Y015581*
X063386*
Y017304*
G37*
G36*
X063640D02*
Y015581D01*
X065363*
X065340Y015817*
X065234Y016167*
X065062Y016489*
X064830Y016771*
X064548Y017003*
X064226Y017175*
X063876Y017281*
X063640Y017304*
G37*
G36*
X058186Y016734D02*
X058081Y016720D01*
X057864Y016630*
X057679Y016488*
X057536Y016302*
X057447Y016086*
X057433Y015981*
X058186*
Y016734*
G37*
G36*
X065446Y019727D02*
X064577D01*
X064595Y019592*
X064696Y019347*
X064857Y019138*
X065066Y018977*
X065311Y018876*
X065446Y018858*
Y019727*
G37*
G36*
Y020850D02*
X065311Y020832D01*
X065066Y020731*
X064857Y020570*
X064696Y020360*
X064595Y020116*
X064577Y019981*
X065446*
Y020850*
G37*
G36*
X065700D02*
Y019981D01*
X066569*
X066551Y020116*
X066450Y020360*
X066289Y020570*
X066079Y020731*
X065835Y020832*
X065700Y020850*
G37*
G36*
X036686Y021134D02*
X036581Y021120D01*
X036364Y021030*
X036179Y020888*
X036036Y020702*
X035947Y020486*
X035933Y020381*
X036686*
Y021134*
G37*
G36*
X066569Y019727D02*
X065700D01*
Y018858*
X065835Y018876*
X066079Y018977*
X066289Y019138*
X066450Y019347*
X066551Y019592*
X066569Y019727*
G37*
G36*
X036686Y020127D02*
X035933D01*
X035947Y020022*
X036036Y019805*
X036179Y019620*
X036364Y019477*
X036581Y019388*
X036686Y019374*
Y020127*
G37*
G36*
X037693D02*
X036940D01*
Y019374*
X037045Y019388*
X037261Y019477*
X037447Y019620*
X037589Y019805*
X037679Y020022*
X037693Y020127*
G37*
G36*
X021386Y037234D02*
X021281Y037220D01*
X021064Y037130*
X020879Y036988*
X020736Y036802*
X020647Y036586*
X020633Y036481*
X021386*
Y037234*
G37*
G36*
X057113Y051250D02*
X056881Y051220D01*
X056664Y051130*
X056479Y050988*
X056336Y050802*
X056247Y050586*
X056216Y050354*
X056247Y050122*
X056336Y049905*
X056479Y049720*
X056595Y049631*
Y049158*
X056334*
Y047850*
X057892*
Y049158*
X057631*
Y049631*
X057747Y049720*
X057889Y049905*
X057979Y050122*
X058009Y050354*
X057979Y050586*
X057889Y050802*
X057747Y050988*
X057561Y051130*
X057345Y051220*
X057113Y051250*
G37*
G36*
X059113Y052250D02*
X058881Y052220D01*
X058664Y052130*
X058479Y051988*
X058336Y051802*
X058247Y051586*
X058216Y051354*
X058247Y051122*
X058336Y050905*
X058479Y050720*
X058595Y050631*
Y049158*
X058334*
Y047850*
X059892*
Y049158*
X059631*
Y050631*
X059747Y050720*
X059889Y050905*
X059979Y051122*
X060009Y051354*
X059979Y051586*
X059889Y051802*
X059747Y051988*
X059561Y052130*
X059345Y052220*
X059113Y052250*
G37*
G36*
X061113Y053150D02*
X060881Y053120D01*
X060664Y053030*
X060479Y052888*
X060336Y052702*
X060247Y052486*
X060216Y052254*
X060247Y052022*
X060336Y051805*
X060479Y051620*
X060595Y051531*
Y049158*
X060334*
Y047850*
X061892*
Y049158*
X061631*
Y051531*
X061747Y051620*
X061889Y051805*
X061979Y052022*
X062009Y052254*
X061979Y052486*
X061889Y052702*
X061747Y052888*
X061561Y053030*
X061345Y053120*
X061113Y053150*
G37*
G36*
X050113Y052450D02*
X049881Y052420D01*
X049664Y052330*
X049479Y052188*
X049336Y052002*
X049247Y051786*
X049216Y051554*
X049247Y051322*
X049336Y051105*
X049479Y050920*
X049595Y050831*
Y049158*
X049334*
Y047850*
X050892*
Y049158*
X050631*
Y050831*
X050747Y050920*
X050889Y051105*
X050979Y051322*
X051009Y051554*
X050979Y051786*
X050889Y052002*
X050747Y052188*
X050561Y052330*
X050345Y052420*
X050113Y052450*
G37*
G36*
X052113Y052850D02*
X051881Y052820D01*
X051664Y052730*
X051479Y052588*
X051336Y052402*
X051247Y052186*
X051216Y051954*
X051247Y051722*
X051336Y051505*
X051479Y051320*
X051595Y051231*
Y049158*
X051334*
Y047850*
X052892*
Y049158*
X052631*
Y051231*
X052747Y051320*
X052889Y051505*
X052979Y051722*
X053009Y051954*
X052979Y052186*
X052889Y052402*
X052747Y052588*
X052561Y052730*
X052345Y052820*
X052113Y052850*
G37*
G36*
X054013Y053350D02*
X053781Y053320D01*
X053564Y053230*
X053379Y053088*
X053236Y052902*
X053147Y052686*
X053116Y052454*
X053147Y052222*
X053236Y052005*
X053379Y051820*
X053495Y051731*
Y049158*
X053334*
Y047850*
X054892*
Y049158*
X054531*
Y051731*
X054647Y051820*
X054789Y052005*
X054879Y052222*
X054909Y052454*
X054879Y052686*
X054789Y052902*
X054647Y053088*
X054461Y053230*
X054245Y053320*
X054013Y053350*
G37*
G36*
X066086Y049127D02*
X065333D01*
X065347Y049022*
X065436Y048805*
X065579Y048620*
X065764Y048477*
X065981Y048388*
X066086Y048374*
Y049127*
G37*
G36*
X026193Y053777D02*
X025440D01*
Y053024*
X025545Y053038*
X025761Y053127*
X025947Y053270*
X026089Y053455*
X026179Y053672*
X026193Y053777*
G37*
G36*
X006386Y054527D02*
X005633D01*
X005647Y054422*
X005736Y054205*
X005879Y054020*
X006064Y053877*
X006281Y053788*
X006386Y053774*
Y054527*
G37*
G36*
X007393D02*
X006640D01*
Y053774*
X006745Y053788*
X006961Y053877*
X007147Y054020*
X007289Y054205*
X007379Y054422*
X007393Y054527*
G37*
G36*
X067093Y049127D02*
X066340D01*
Y048374*
X066445Y048388*
X066661Y048477*
X066847Y048620*
X066989Y048805*
X067079Y049022*
X067093Y049127*
G37*
G36*
X066086Y050134D02*
X065981Y050120D01*
X065764Y050030*
X065579Y049888*
X065436Y049702*
X065347Y049486*
X065333Y049381*
X066086*
Y050134*
G37*
G36*
X066340D02*
Y049381D01*
X067093*
X067079Y049486*
X066989Y049702*
X066847Y049888*
X066661Y050030*
X066445Y050120*
X066340Y050134*
G37*
G36*
X038113Y054650D02*
X037881Y054620D01*
X037664Y054530*
X037479Y054388*
X037336Y054202*
X037247Y053986*
X037216Y053754*
X037247Y053522*
X037336Y053305*
X037479Y053120*
X037595Y053031*
Y049158*
X037334*
Y047850*
X038892*
Y049158*
X038631*
Y053031*
X038747Y053120*
X038889Y053305*
X038979Y053522*
X039009Y053754*
X038979Y053986*
X038889Y054202*
X038747Y054388*
X038561Y054530*
X038345Y054620*
X038113Y054650*
G37*
G36*
X057892Y047658D02*
X056334D01*
Y046350*
X056595*
Y045308*
X056159*
Y042800*
X058067*
Y045308*
X057631*
Y046350*
X057892*
Y047658*
G37*
G36*
X059892D02*
X058334D01*
Y046350*
X058595*
Y045308*
X058359*
Y042800*
X059867*
Y045308*
X059631*
Y046350*
X059892*
Y047658*
G37*
G36*
X061892D02*
X060334D01*
Y046350*
X060595*
Y045308*
X060159*
Y042800*
X062067*
Y045308*
X061631*
Y046350*
X061892*
Y047658*
G37*
G36*
X050892D02*
X049334D01*
Y046350*
X049595*
Y045308*
X049159*
Y042800*
X051067*
Y045308*
X050631*
Y046350*
X050892*
Y047658*
G37*
G36*
X052892D02*
X051334D01*
Y046350*
X051595*
Y045308*
X051359*
Y042800*
X052867*
Y045308*
X052631*
Y046350*
X052892*
Y047658*
G37*
G36*
X054892D02*
X053334D01*
Y046350*
X053595*
Y045308*
X053159*
Y042800*
X055067*
Y045308*
X054631*
Y046350*
X054892*
Y047658*
G37*
G36*
X029892D02*
X028334D01*
Y046350*
X028595*
Y045408*
X028159*
Y042900*
X030067*
Y045408*
X029631*
Y046350*
X029892*
Y047658*
G37*
G36*
X038892D02*
X037334D01*
Y046350*
X037595*
Y045408*
X037359*
Y042900*
X038867*
Y045408*
X038631*
Y046350*
X038892*
Y047658*
G37*
G36*
X029113Y051650D02*
X028881Y051620D01*
X028664Y051530*
X028479Y051388*
X028336Y051202*
X028247Y050986*
X028216Y050754*
X028247Y050522*
X028336Y050305*
X028479Y050120*
X028595Y050031*
Y049158*
X028334*
Y047850*
X029892*
Y049158*
X029631*
Y050031*
X029747Y050120*
X029889Y050305*
X029979Y050522*
X029992Y050622*
X030120*
X030147Y050422*
X030236Y050205*
X030379Y050020*
X030495Y049930*
Y049158*
X030334*
Y047850*
X031892*
Y049158*
X031531*
Y049930*
X031647Y050020*
X031789Y050205*
X031879Y050422*
X031909Y050654*
X031879Y050886*
X031789Y051102*
X031647Y051288*
X031461Y051430*
X031245Y051520*
X031013Y051550*
X030781Y051520*
X030564Y051430*
X030379Y051288*
X030236Y051102*
X030147Y050886*
X030133Y050785*
X030005*
X029979Y050986*
X029889Y051202*
X029747Y051388*
X029561Y051530*
X029345Y051620*
X029113Y051650*
G37*
G36*
X036113Y051850D02*
X035881Y051820D01*
X035664Y051730*
X035479Y051588*
X035336Y051402*
X035247Y051186*
X035216Y050954*
X035247Y050722*
X035336Y050505*
X035479Y050320*
X035595Y050231*
Y049158*
X035334*
Y047850*
X036892*
Y049158*
X036631*
Y050231*
X036747Y050320*
X036889Y050505*
X036979Y050722*
X037009Y050954*
X036979Y051186*
X036889Y051402*
X036747Y051588*
X036561Y051730*
X036345Y051820*
X036113Y051850*
G37*
G36*
X031892Y047658D02*
X030334D01*
Y046350*
X030595*
Y045408*
X030359*
Y042900*
X031867*
Y045408*
X031631*
Y046350*
X031892*
Y047658*
G37*
G36*
X033892D02*
X032334D01*
Y046350*
X032595*
Y045408*
X032159*
Y042900*
X034067*
Y045408*
X033631*
Y046350*
X033892*
Y047658*
G37*
G36*
X036892D02*
X035334D01*
Y046350*
X035595*
Y045408*
X035159*
Y042900*
X037067*
Y045408*
X036631*
Y046350*
X036892*
Y047658*
G37*
G36*
X025440Y054784D02*
Y054031D01*
X026193*
X026179Y054136*
X026089Y054352*
X025947Y054538*
X025761Y054680*
X025545Y054770*
X025440Y054784*
G37*
G36*
X065363Y064227D02*
X063640D01*
Y062503*
X063876Y062527*
X064226Y062633*
X064548Y062805*
X064830Y063036*
X065062Y063319*
X065234Y063641*
X065340Y063990*
X065363Y064227*
G37*
G36*
X037886Y063334D02*
X037781Y063320D01*
X037564Y063230*
X037379Y063088*
X037236Y062902*
X037147Y062686*
X037133Y062581*
X037886*
Y063334*
G37*
G36*
X038140D02*
Y062581D01*
X038893*
X038879Y062686*
X038789Y062902*
X038647Y063088*
X038461Y063230*
X038245Y063320*
X038140Y063334*
G37*
G36*
X008886Y064227D02*
X007162D01*
X007186Y063990*
X007292Y063641*
X007464Y063319*
X007695Y063036*
X007978Y062805*
X008300Y062633*
X008649Y062527*
X008886Y062503*
Y064227*
G37*
G36*
X010863D02*
X009140D01*
Y062503*
X009376Y062527*
X009726Y062633*
X010048Y062805*
X010330Y063036*
X010562Y063319*
X010734Y063641*
X010840Y063990*
X010863Y064227*
G37*
G36*
X063386D02*
X061662D01*
X061686Y063990*
X061792Y063641*
X061964Y063319*
X062195Y063036*
X062478Y062805*
X062800Y062633*
X063149Y062527*
X063386Y062503*
Y064227*
G37*
G36*
X040086Y063434D02*
X039981Y063420D01*
X039764Y063330*
X039579Y063188*
X039436Y063002*
X039347Y062786*
X039333Y062681*
X040086*
Y063434*
G37*
G36*
X009140Y066204D02*
Y064481D01*
X010863*
X010840Y064717*
X010734Y065067*
X010562Y065389*
X010330Y065671*
X010048Y065903*
X009726Y066075*
X009376Y066181*
X009140Y066204*
G37*
G36*
X063386D02*
X063149Y066181D01*
X062800Y066075*
X062478Y065903*
X062195Y065671*
X061964Y065389*
X061792Y065067*
X061686Y064717*
X061662Y064481*
X063386*
Y066204*
G37*
G36*
X063640D02*
Y064481D01*
X065363*
X065340Y064717*
X065234Y065067*
X065062Y065389*
X064830Y065671*
X064548Y065903*
X064226Y066075*
X063876Y066181*
X063640Y066204*
G37*
G36*
X040340Y063434D02*
Y062681D01*
X041093*
X041079Y062786*
X040989Y063002*
X040847Y063188*
X040661Y063330*
X040445Y063420*
X040340Y063434*
G37*
G36*
X048270Y066515D02*
X028056D01*
X027857Y066475*
X027689Y066363*
X024958Y063631*
X024813Y063650*
X024581Y063620*
X024364Y063530*
X024179Y063388*
X024036Y063202*
X023947Y062986*
X023916Y062754*
X023947Y062522*
X024036Y062305*
X024179Y062120*
X024364Y061977*
X024581Y061888*
X024813Y061857*
X025045Y061888*
X025261Y061977*
X025447Y062120*
X025589Y062305*
X025679Y062522*
X025709Y062754*
X025690Y062899*
X028270Y065479*
X029928*
X029984Y065365*
X029936Y065302*
X029847Y065086*
X029816Y064854*
X029847Y064622*
X029936Y064405*
X030018Y064299*
X029955Y064172*
X028213*
X028014Y064132*
X027846Y064020*
X017415Y053589*
X017361Y053630*
X017145Y053720*
X016913Y053750*
X016681Y053720*
X016464Y053630*
X016279Y053488*
X016136Y053302*
X016047Y053086*
X016016Y052854*
X016047Y052622*
X016136Y052405*
X016279Y052220*
X016436Y052099*
X016405Y051974*
X016404Y051972*
X009113*
X008914Y051932*
X008746Y051820*
X005346Y048420*
X005234Y048252*
X005195Y048054*
Y042314*
X005234Y042115*
X005346Y041947*
X009109Y038185*
Y036910*
X011117*
Y038918*
X009841*
X006231Y042528*
Y047839*
X009327Y050936*
X018813*
X019011Y050975*
X019179Y051087*
X021668Y053576*
X021813Y053557*
X022045Y053588*
X022261Y053677*
X022447Y053820*
X022589Y054005*
X022679Y054222*
X022709Y054454*
X022679Y054686*
X022589Y054902*
X022447Y055088*
X022261Y055230*
X022045Y055320*
X021813Y055350*
X021581Y055320*
X021364Y055230*
X021179Y055088*
X021036Y054902*
X020947Y054686*
X020916Y054454*
X020935Y054309*
X018598Y051972*
X017421*
X017420Y051974*
X017389Y052099*
X017547Y052220*
X017689Y052405*
X017702Y052436*
X017779Y052487*
X028427Y063136*
X029547*
X029618Y063009*
X029595Y062972*
X029313*
X029114Y062932*
X028946Y062820*
X023803Y057677*
X023691Y057509*
X023652Y057311*
Y054025*
X020198Y050572*
X017090*
X016892Y050532*
X016858Y050510*
X016567*
X016533Y050532*
X016335Y050572*
X013513*
X013314Y050532*
X013146Y050420*
X006646Y043920*
X006534Y043752*
X006495Y043554*
X006534Y043355*
X006646Y043187*
X009133Y040701*
X009100Y040454*
X009135Y040192*
X009236Y039947*
X009397Y039738*
X009606Y039577*
X009851Y039476*
X010113Y039441*
X010375Y039476*
X010619Y039577*
X010829Y039738*
X010990Y039947*
X011091Y040192*
X011125Y040454*
X011091Y040716*
X010990Y040960*
X010829Y041170*
X010619Y041331*
X010375Y041432*
X010113Y041466*
X009865Y041434*
X007745Y043554*
X013727Y049536*
X016165*
X016199Y049513*
X016397Y049474*
X017028*
X017227Y049513*
X017260Y049536*
X020413*
X020611Y049575*
X020779Y049687*
X024450Y053359*
X024619Y053348*
X024679Y053270*
X024864Y053127*
X025081Y053038*
X025186Y053024*
Y053904*
Y054784*
X025081Y054770*
X024864Y054680*
X024802Y054632*
X024688Y054688*
Y057096*
X029527Y061936*
X029690*
X029779Y061820*
X029964Y061677*
X030181Y061588*
X030413Y061557*
X030645Y061588*
X030861Y061677*
X031038Y061813*
X031106Y061804*
X031109Y061803*
X031173Y061776*
X031260Y061565*
X031403Y061380*
X031588Y061237*
X031805Y061148*
X031910Y061134*
Y062014*
Y062894*
X031805Y062880*
X031588Y062790*
X031411Y062654*
X031343Y062663*
X031340Y062664*
X031276Y062692*
X031189Y062902*
X031113Y063001*
X031176Y063128*
X031223*
X031263Y063136*
X032744*
X032816Y063054*
X032847Y062822*
X032936Y062605*
X033079Y062420*
X033264Y062277*
X033481Y062188*
X033713Y062157*
X033945Y062188*
X034161Y062277*
X034347Y062420*
X034489Y062605*
X034497Y062625*
X034621Y062592*
X034616Y062554*
X034635Y062409*
X033946Y061720*
X033834Y061552*
X033795Y061354*
Y049918*
X033034Y049158*
X032334*
Y047850*
X033892*
Y048550*
X034679Y049337*
X034791Y049505*
X034831Y049704*
Y061139*
X035368Y061676*
X035513Y061657*
X035745Y061688*
X035961Y061777*
X036147Y061920*
X036289Y062105*
X036379Y062322*
X036409Y062554*
X036379Y062786*
X036289Y063002*
X036147Y063188*
X035961Y063330*
X035745Y063420*
X035513Y063450*
X035281Y063420*
X035064Y063330*
X034879Y063188*
X034736Y063002*
X034728Y062983*
X034604Y063016*
X034609Y063054*
X034579Y063286*
X034489Y063502*
X034347Y063688*
X034161Y063830*
X033945Y063920*
X033713Y063950*
X033546Y063928*
X033455Y064020*
X033287Y064132*
X033089Y064172*
X031578*
X031508Y064299*
X031531Y064336*
X040290*
X041522Y063103*
X041690Y062991*
X041889Y062952*
X041889Y062952*
X046777*
X046879Y062820*
X047064Y062677*
X047281Y062588*
X047513Y062557*
X047745Y062588*
X047961Y062677*
X048147Y062820*
X048289Y063005*
X048379Y063222*
X048409Y063454*
X048379Y063686*
X048289Y063902*
X048147Y064088*
X047961Y064230*
X047745Y064320*
X047513Y064350*
X047281Y064320*
X047064Y064230*
X046879Y064088*
X046802Y063988*
X042103*
X040871Y065220*
X040703Y065332*
X040605Y065352*
X040617Y065479*
X048055*
X049223Y064310*
X049216Y064254*
X049247Y064022*
X049336Y063805*
X049479Y063620*
X049664Y063477*
X049881Y063388*
X050113Y063357*
X050345Y063388*
X050561Y063477*
X050747Y063620*
X050889Y063805*
X050979Y064022*
X051009Y064254*
X050979Y064486*
X050889Y064702*
X050747Y064888*
X050561Y065030*
X050345Y065120*
X050113Y065150*
X049881Y065120*
X049880Y065119*
X048636Y066363*
X048468Y066475*
X048270Y066515*
G37*
G36*
X008886Y066204D02*
X008649Y066181D01*
X008300Y066075*
X007978Y065903*
X007695Y065671*
X007464Y065389*
X007292Y065067*
X007186Y064717*
X007162Y064481*
X008886*
Y066204*
G37*
G36*
X032164Y062894D02*
Y062141D01*
X032917*
X032903Y062246*
X032813Y062462*
X032671Y062648*
X032485Y062790*
X032269Y062880*
X032164Y062894*
G37*
G36*
X018793Y059127D02*
X018040D01*
Y058374*
X018145Y058388*
X018361Y058477*
X018547Y058620*
X018689Y058805*
X018779Y059022*
X018793Y059127*
G37*
G36*
X041613Y061550D02*
X041381Y061520D01*
X041164Y061430*
X040979Y061288*
X040836Y061102*
X040747Y060886*
X040716Y060654*
X040747Y060422*
X040836Y060205*
X040979Y060020*
X041095Y059931*
Y059652*
X040509Y059066*
X040389Y059107*
X040379Y059186*
X040289Y059402*
X040147Y059588*
X039961Y059730*
X039745Y059820*
X039640Y059834*
Y058954*
X039513*
Y058827*
X038633*
X038647Y058722*
X038736Y058505*
X038879Y058320*
X039064Y058177*
X039281Y058088*
X039359Y058077*
X039400Y057957*
X039346Y057903*
X039234Y057735*
X039195Y057537*
Y053254*
X039234Y053055*
X039346Y052887*
X040277Y051957*
X040218Y051837*
X040113Y051850*
X039881Y051820*
X039664Y051730*
X039479Y051588*
X039336Y051402*
X039247Y051186*
X039216Y050954*
X039247Y050722*
X039336Y050505*
X039479Y050320*
X039595Y050231*
Y049158*
X039334*
Y047850*
X040892*
Y049158*
X040631*
Y050231*
X040747Y050320*
X040889Y050505*
X040968Y050695*
X041095Y050670*
Y046808*
X041009Y046748*
X040892Y046802*
Y047658*
X039334*
Y046350*
X039595*
Y045408*
X039159*
Y042900*
X041067*
Y045209*
X041194Y045265*
X041381Y045188*
X041613Y045157*
X041845Y045188*
X042032Y045265*
X042119Y045226*
X042159Y045192*
Y042800*
X044067*
Y045308*
X043631*
Y046350*
X043892*
Y047658*
X042334*
Y046802*
X042217Y046748*
X042131Y046808*
Y048632*
X042258Y048670*
X042334Y048557*
Y047850*
X043892*
Y049158*
X043231*
Y050996*
X043358Y051059*
X043464Y050977*
X043681Y050888*
X043913Y050857*
X043969Y050864*
X044595Y050239*
Y049158*
X044334*
Y047850*
X045892*
Y049158*
X045631*
Y050454*
X045591Y050652*
X045479Y050820*
X044778Y051521*
X044779Y051522*
X044809Y051754*
X044780Y051974*
X044790Y051984*
X044925Y052008*
X046595Y050339*
Y049158*
X046334*
Y047850*
X047892*
Y049158*
X047631*
Y050554*
X047591Y050752*
X047479Y050920*
X044904Y053495*
X044879Y053686*
X044789Y053902*
X044647Y054088*
X044461Y054230*
X044245Y054320*
X044013Y054350*
X043781Y054320*
X043564Y054230*
X043379Y054088*
X043236Y053902*
X043146Y053686*
X043116Y053454*
X043146Y053222*
X043236Y053005*
X043379Y052820*
X043537Y052698*
X043540Y052600*
X043526Y052556*
X043464Y052530*
X043279Y052388*
X043136Y052202*
X043110Y052138*
X042985Y052114*
X041131Y053968*
Y055339*
X041819Y056028*
X049805*
X050003Y056067*
X050171Y056179*
X050549Y056558*
X050760Y056530*
X050992Y056561*
X051208Y056650*
X051394Y056793*
X051537Y056978*
X051626Y057195*
X051657Y057427*
X051626Y057659*
X051537Y057875*
X051394Y058061*
X051208Y058203*
X050992Y058293*
X050760Y058323*
X050528Y058293*
X050312Y058203*
X050126Y058061*
X049984Y057875*
X049894Y057659*
X049863Y057427*
X049874Y057347*
X049590Y057064*
X044013*
X043985Y057126*
X043979Y057191*
X044147Y057320*
X044236Y057436*
X048913*
X049111Y057475*
X049279Y057587*
X050227Y058536*
X051498*
X051935Y058099*
X051916Y057954*
X051947Y057722*
X052036Y057505*
X052179Y057320*
X052364Y057177*
X052581Y057088*
X052813Y057057*
X053045Y057088*
X053261Y057177*
X053447Y057320*
X053589Y057505*
X053679Y057722*
X053709Y057954*
X053679Y058186*
X053589Y058402*
X053447Y058588*
X053261Y058730*
X053045Y058820*
X052813Y058850*
X052668Y058831*
X052079Y059420*
X051911Y059532*
X051713Y059572*
X050013*
X049814Y059532*
X049646Y059420*
X048698Y058472*
X044236*
X044147Y058588*
X043961Y058730*
X043745Y058820*
X043513Y058850*
X043281Y058820*
X043064Y058730*
X042879Y058588*
X042736Y058402*
X042647Y058186*
X042616Y057954*
X042647Y057722*
X042736Y057505*
X042879Y057320*
X043047Y057191*
X043041Y057126*
X043012Y057064*
X041605*
X041406Y057024*
X041238Y056912*
X040358Y056031*
X040231Y056084*
Y057323*
X041979Y059071*
X042091Y059239*
X042131Y059437*
Y059931*
X042247Y060020*
X042389Y060205*
X042479Y060422*
X042509Y060654*
X042479Y060886*
X042389Y061102*
X042247Y061288*
X042061Y061430*
X041845Y061520*
X041613Y061550*
G37*
G36*
X039386Y059834D02*
X039281Y059820D01*
X039064Y059730*
X038879Y059588*
X038736Y059402*
X038647Y059186*
X038633Y059081*
X039386*
Y059834*
G37*
G36*
X006386Y055534D02*
X006281Y055520D01*
X006064Y055430*
X005879Y055288*
X005736Y055102*
X005647Y054886*
X005633Y054781*
X006386*
Y055534*
G37*
G36*
X006640D02*
Y054781D01*
X007393*
X007379Y054886*
X007289Y055102*
X007147Y055288*
X006961Y055430*
X006745Y055520*
X006640Y055534*
G37*
G36*
X017786Y059127D02*
X017033D01*
X017047Y059022*
X017136Y058805*
X017279Y058620*
X017464Y058477*
X017681Y058388*
X017786Y058374*
Y059127*
G37*
G36*
Y060134D02*
X017681Y060120D01*
X017464Y060030*
X017279Y059888*
X017136Y059702*
X017047Y059486*
X017033Y059381*
X017786*
Y060134*
G37*
G36*
X038893Y062327D02*
X038140D01*
Y061574*
X038245Y061588*
X038461Y061677*
X038647Y061820*
X038789Y062005*
X038879Y062222*
X038893Y062327*
G37*
G36*
X040086Y062427D02*
X039333D01*
X039347Y062322*
X039436Y062105*
X039579Y061920*
X039764Y061777*
X039981Y061688*
X040086Y061674*
Y062427*
G37*
G36*
X041093D02*
X040340D01*
Y061674*
X040445Y061688*
X040661Y061777*
X040847Y061920*
X040989Y062105*
X041079Y062322*
X041093Y062427*
G37*
G36*
X018040Y060134D02*
Y059381D01*
X018793*
X018779Y059486*
X018689Y059702*
X018547Y059888*
X018361Y060030*
X018145Y060120*
X018040Y060134*
G37*
G36*
X032917Y061887D02*
X032164D01*
Y061134*
X032269Y061148*
X032485Y061237*
X032671Y061380*
X032813Y061565*
X032903Y061782*
X032917Y061887*
G37*
G36*
X037886Y062327D02*
X037133D01*
X037147Y062222*
X037236Y062005*
X037379Y061820*
X037564Y061677*
X037781Y061588*
X037886Y061574*
Y062327*
G37*
G36*
X045867Y039327D02*
X044359D01*
Y038200*
Y037181*
X045113*
X045867*
Y038308*
Y039327*
G37*
G36*
X012526Y038910D02*
X012391Y038892D01*
X012146Y038791*
X011937Y038630*
X011776Y038420*
X011675Y038176*
X011657Y038041*
X012526*
Y038910*
G37*
G36*
X012780D02*
Y038041D01*
X013649*
X013631Y038176*
X013530Y038420*
X013369Y038630*
X013159Y038791*
X012915Y038892*
X012780Y038910*
G37*
G36*
X052867Y039327D02*
X051359D01*
Y038200*
Y037181*
X052113*
X052867*
Y038200*
Y039327*
G37*
G36*
X044067D02*
X042159D01*
Y038200*
Y037181*
X043113*
X044067*
Y038200*
Y039327*
G37*
G36*
X048067D02*
X046159D01*
Y038200*
Y037181*
X047113*
X048067*
Y038200*
Y039327*
G37*
G36*
X012653Y041466D02*
X012391Y041432D01*
X012146Y041331*
X011937Y041170*
X011776Y040960*
X011675Y040716*
X011640Y040454*
X011675Y040192*
X011776Y039947*
X011937Y039738*
X012146Y039577*
X012391Y039476*
X012653Y039441*
X012915Y039476*
X013159Y039577*
X013369Y039738*
X013530Y039947*
X013631Y040192*
X013665Y040454*
X013631Y040716*
X013530Y040960*
X013369Y041170*
X013159Y041331*
X012915Y041432*
X012653Y041466*
G37*
G36*
X045867Y040708D02*
X045240D01*
Y039581*
X045867*
Y040708*
G37*
G36*
X046986D02*
X046159D01*
Y039581*
X046986*
Y040708*
G37*
G36*
X048067D02*
X047240D01*
Y039581*
X048067*
Y040708*
G37*
G36*
X042986D02*
X042159D01*
Y039581*
X042986*
Y040708*
G37*
G36*
X044067D02*
X043240D01*
Y039581*
X044067*
Y040708*
G37*
G36*
X044986D02*
X044359D01*
Y039581*
X044986*
Y040708*
G37*
G36*
X038867Y039427D02*
X037359D01*
Y038300*
Y037181*
X038113*
X038867*
Y038300*
Y039427*
G37*
G36*
X041067D02*
X039159D01*
Y038308*
Y037181*
X040113*
X041067*
Y038300*
Y039427*
G37*
G36*
X051067Y039327D02*
X049159D01*
Y038308*
Y037181*
X050113*
X051067*
Y038200*
Y039327*
G37*
G36*
X037067Y039427D02*
X035159D01*
Y038308*
Y037181*
X036113*
X037067*
Y038300*
Y039427*
G37*
G36*
X021640Y037234D02*
Y036481D01*
X022393*
X022379Y036586*
X022289Y036802*
X022147Y036988*
X021961Y037130*
X021745Y037220*
X021640Y037234*
G37*
G36*
X012526Y037787D02*
X011657D01*
X011675Y037652*
X011776Y037407*
X011937Y037198*
X012146Y037037*
X012391Y036936*
X012526Y036918*
Y037787*
G37*
G36*
X013649D02*
X012780D01*
Y036918*
X012915Y036936*
X013159Y037037*
X013369Y037198*
X013530Y037407*
X013631Y037652*
X013649Y037787*
G37*
G36*
X062067Y039327D02*
X060159D01*
Y038200*
Y037181*
X061113*
X062067*
Y038200*
Y039327*
G37*
G36*
X055067D02*
X053159D01*
Y038308*
Y037181*
X054113*
X055067*
Y038200*
Y039327*
G37*
G36*
X059867D02*
X058359D01*
Y038200*
Y037181*
X059113*
X059867*
Y038308*
Y039327*
G37*
G36*
X031867Y039427D02*
X030359D01*
Y038300*
Y037181*
X031113*
X031867*
Y038300*
Y039427*
G37*
G36*
X034067D02*
X032159D01*
Y038308*
Y037181*
X033113*
X034067*
Y038300*
Y039427*
G37*
G36*
X058067Y039327D02*
X056159D01*
Y038200*
Y037181*
X057113*
X058067*
Y038200*
Y039327*
G37*
G36*
X030067Y039427D02*
X028159D01*
Y038308*
Y037181*
X029113*
X030067*
Y038300*
Y039427*
G37*
G36*
X049986Y040708D02*
X049159D01*
Y039581*
X049986*
Y040708*
G37*
G36*
X035986Y040808D02*
X035159D01*
Y039681*
X035986*
Y040808*
G37*
G36*
X037067D02*
X036240D01*
Y039681*
X037067*
Y040808*
G37*
G36*
X037986D02*
X037359D01*
Y039681*
X037986*
Y040808*
G37*
G36*
X031867D02*
X031240D01*
Y039681*
X031867*
Y040808*
G37*
G36*
X032986D02*
X032159D01*
Y039681*
X032986*
Y040808*
G37*
G36*
X034067D02*
X033240D01*
Y039681*
X034067*
Y040808*
G37*
G36*
X038867D02*
X038240D01*
Y039681*
X038867*
Y040808*
G37*
G36*
X012653Y044006D02*
X012391Y043972D01*
X012146Y043871*
X011937Y043710*
X011776Y043500*
X011675Y043256*
X011640Y042994*
X011675Y042732*
X011776Y042487*
X011937Y042278*
X012146Y042117*
X012391Y042016*
X012653Y041981*
X012915Y042016*
X013159Y042117*
X013369Y042278*
X013530Y042487*
X013631Y042732*
X013665Y042994*
X013631Y043256*
X013530Y043500*
X013369Y043710*
X013159Y043871*
X012915Y043972*
X012653Y044006*
G37*
G36*
X045892Y047658D02*
X044334D01*
Y046350*
X044595*
Y045308*
X044359*
Y042800*
X045867*
Y045308*
X045631*
Y046350*
X045892*
Y047658*
G37*
G36*
X047892D02*
X046334D01*
Y046350*
X046595*
Y045308*
X046159*
Y042800*
X048067*
Y045308*
X047631*
Y046350*
X047892*
Y047658*
G37*
G36*
X039986Y040808D02*
X039159D01*
Y039681*
X039986*
Y040808*
G37*
G36*
X041067D02*
X040240D01*
Y039681*
X041067*
Y040808*
G37*
G36*
X010113Y044006D02*
X009851Y043972D01*
X009606Y043871*
X009397Y043710*
X009236Y043500*
X009135Y043256*
X009100Y042994*
X009135Y042732*
X009236Y042487*
X009397Y042278*
X009606Y042117*
X009851Y042016*
X010113Y041981*
X010375Y042016*
X010619Y042117*
X010829Y042278*
X010990Y042487*
X011091Y042732*
X011125Y042994*
X011091Y043256*
X010990Y043500*
X010829Y043710*
X010619Y043871*
X010375Y043972*
X010113Y044006*
G37*
G36*
X030986Y040808D02*
X030359D01*
Y039681*
X030986*
Y040808*
G37*
G36*
X053986Y040708D02*
X053159D01*
Y039581*
X053986*
Y040708*
G37*
G36*
X055067D02*
X054240D01*
Y039581*
X055067*
Y040708*
G37*
G36*
X056986D02*
X056159D01*
Y039581*
X056986*
Y040708*
G37*
G36*
X051067D02*
X050240D01*
Y039581*
X051067*
Y040708*
G37*
G36*
X051986D02*
X051359D01*
Y039581*
X051986*
Y040708*
G37*
G36*
X052867D02*
X052240D01*
Y039581*
X052867*
Y040708*
G37*
G36*
X058067D02*
X057240D01*
Y039581*
X058067*
Y040708*
G37*
G36*
X062067D02*
X061240D01*
Y039581*
X062067*
Y040708*
G37*
G36*
X028986Y040808D02*
X028159D01*
Y039681*
X028986*
Y040808*
G37*
G36*
X030067D02*
X029240D01*
Y039681*
X030067*
Y040808*
G37*
G36*
X058986Y040708D02*
X058359D01*
Y039581*
X058986*
Y040708*
G37*
G36*
X059867D02*
X059240D01*
Y039581*
X059867*
Y040708*
G37*
G36*
X060986D02*
X060159D01*
Y039581*
X060986*
Y040708*
G37*
%LNfilm_top-4*%
%LPC*%
G54D22*
X005713Y042314D02*
Y048054D01*
Y042314D02*
X010113Y037914D01*
X005713Y048054D02*
X009113Y051454D01*
X007013Y043554D02*
X010113Y040454D01*
X007013Y043554D02*
X013513Y050054D01*
X007813Y023354D02*
X008413Y023154D01*
X011513D01*
X009113Y051454D02*
X018813D01*
X012513Y037654D02*
X012653D01*
D01*
X012913Y037394D01*
X012653Y037654D02*
Y037914D01*
Y037654D02*
X028513D01*
X012913Y021054D02*
Y037394D01*
Y021054D02*
X021148Y012819D01*
X013413Y016354D02*
X017913Y011854D01*
X013513Y050054D02*
X016335D01*
X014463Y021504D02*
Y023604D01*
Y021504D02*
X022013Y013954D01*
X014463Y023604D02*
X017913Y027054D01*
X016335Y050054D02*
X016397Y049992D01*
X017028D01*
X017090Y050054D01*
X020413D01*
X017113Y052854D02*
X017413D01*
X028213Y063654D01*
X017913Y011854D02*
X025713D01*
X017913Y027054D02*
X030063D01*
X018013Y023454D02*
X020113D01*
X018813Y051454D02*
X021813Y054454D01*
X020113Y023454D02*
X025113Y018454D01*
X020413Y050054D02*
X024170Y053811D01*
X021148Y012819D02*
X026431D01*
X022013Y013954D02*
X026913D01*
X024170Y053811D02*
Y057311D01*
X029313Y062454D01*
X024813Y062754D02*
X028056Y065997D01*
X025113Y018454D02*
X038013D01*
X025313Y053904D02*
X027663D01*
X025613Y023554D02*
Y025435D01*
X026274Y026097D01*
X025713Y011654D02*
X025813Y011554D01*
X033213D01*
X026274Y026097D02*
X027386D01*
X026431Y012819D02*
X026439Y012811D01*
X027386D01*
X026913Y024954D02*
X032913D01*
X027213Y028954D02*
X028063Y028104D01*
X027386Y012811D02*
X027394Y012819D01*
X027386Y026097D02*
X027429Y026054D01*
X027394Y012819D02*
X029378D01*
X027429Y026054D02*
X031063D01*
X027663Y053904D02*
X032513Y058754D01*
X028056Y065997D02*
X048270D01*
X028063Y028104D02*
X029113D01*
X028113Y023754D02*
Y023954D01*
X028129Y023970D01*
X033929D01*
X028213Y063654D02*
X030794D01*
X028513Y037654D02*
X029113Y037054D01*
Y029604D02*
Y032454D01*
Y029604D02*
D01*
Y037054D02*
Y037054D01*
Y037054D02*
X031113D01*
X029113Y037054D02*
Y039554D01*
X031113D01*
X029113Y044154D02*
Y047004D01*
Y048504D02*
Y050754D01*
X029313Y062454D02*
X030113D01*
X029513Y022754D02*
X034596D01*
X030063Y027054D02*
X031113Y028104D01*
X030113Y062454D02*
X030313Y062254D01*
X030713Y064854D02*
X040505D01*
X030794Y063654D02*
X030802Y063646D01*
X031223D01*
X031013Y048604D02*
Y050654D01*
Y048604D02*
X031113Y048504D01*
X031063Y026054D02*
X033113Y028104D01*
X031113Y029604D02*
Y032454D01*
Y037054D02*
X033113D01*
X031113Y039554D02*
X033113D01*
X031113Y044154D02*
Y047004D01*
X031223Y063646D02*
X031231Y063654D01*
X033089D01*
X032037Y059230D02*
Y062014D01*
Y059230D02*
X032513Y058754D01*
X032913Y024954D02*
X036113Y028154D01*
X033089Y063654D02*
X033713Y063030D01*
X033113Y029604D02*
Y032454D01*
Y029604D02*
D01*
Y037054D02*
X036113D01*
X033113Y039554D02*
X036113D01*
X033113Y044154D02*
Y047004D01*
Y048504D02*
X034313Y049704D01*
X033213Y011676D02*
X033391Y011854D01*
X051513D01*
X033929Y023970D02*
X038113Y028154D01*
X034313Y049704D02*
Y061354D01*
X035513Y062554D01*
X034596Y022754D02*
X039996Y028154D01*
X036113Y029654D02*
Y032454D01*
Y029654D02*
D01*
Y037054D02*
X038113D01*
X036113Y039554D02*
X038113D01*
X036113Y044154D02*
Y047004D01*
Y048504D02*
Y050954D01*
X038013Y062454D02*
X039513Y060954D01*
X038113Y029654D02*
Y032454D01*
Y037054D02*
X040113D01*
X038113Y039554D02*
X040113D01*
X038113Y044154D02*
D01*
Y047004D01*
Y048504D02*
Y053754D01*
Y024654D02*
X039613D01*
X039113Y023254D02*
X040213D01*
X039513Y058954D02*
Y060954D01*
X039613Y024654D02*
X043113Y028154D01*
X039713Y053254D02*
Y057537D01*
Y053254D02*
X041613Y051354D01*
X039713Y057537D02*
X041613Y059437D01*
X039996Y028154D02*
X040113D01*
Y029654D02*
Y032454D01*
Y029654D02*
D01*
Y037054D02*
X043113D01*
X040113Y039554D02*
X043013D01*
X040113Y044154D02*
Y047004D01*
Y048504D02*
Y050954D01*
X040213Y023254D02*
X045113Y028154D01*
X040313Y022054D02*
X040813D01*
X040505Y064854D02*
X041889Y063470D01*
X040613Y053754D02*
Y055554D01*
Y053754D02*
X042713Y051654D01*
X040613Y055554D02*
X041605Y056546D01*
X040813Y022054D02*
X046913Y028154D01*
X041313Y016254D02*
Y021191D01*
X047344Y027222D01*
X041605Y056546D02*
X049805D01*
X041613Y046054D02*
Y051354D01*
X041613Y059437D02*
Y060654D01*
X041889Y063470D02*
X047513D01*
X042713Y048904D02*
Y051654D01*
Y048904D02*
X043113Y048504D01*
X043013Y039554D02*
X043113Y039454D01*
X043113Y037054D02*
X043113D01*
Y029654D02*
Y032454D01*
Y037054D02*
X045113D01*
X043113Y039454D02*
X045113D01*
X043113Y044054D02*
Y047004D01*
X043513Y057954D02*
X048913D01*
G54D23*
X043913Y051654D02*
Y051754D01*
G54D22*
X043913Y051654D02*
X045113Y050454D01*
X044013Y053454D02*
X044213D01*
X047113Y050554D01*
X044513Y022754D02*
Y023291D01*
X046494Y025272D01*
X045113Y029654D02*
D01*
Y039454D02*
X047113D01*
X045113Y044054D02*
Y047004D01*
Y048504D02*
Y050454D01*
Y029654D02*
Y032454D01*
Y037054D02*
X047113D01*
X046494Y025272D02*
X047131D01*
X046913Y028154D02*
X047213D01*
X047113Y029754D02*
Y032454D01*
Y029754D02*
X047213Y029654D01*
X047113Y037054D02*
X050113D01*
X047113Y039454D02*
X050113D01*
X047113Y044054D02*
Y047004D01*
Y048504D02*
Y050554D01*
X047131Y025272D02*
X048713Y026854D01*
X047344Y027222D02*
X047981D01*
X047778Y013189D02*
Y015419D01*
X054313Y021954D01*
X047954Y024454D02*
X049559Y026059D01*
X047981Y027222D02*
X048963Y028204D01*
X048270Y065997D02*
X049713Y064554D01*
X048713Y026854D02*
X050763D01*
X048913Y057954D02*
X050013Y059054D01*
X048963Y028204D02*
X050113D01*
X049559Y026059D02*
X051968D01*
X049713Y064554D02*
X050013D01*
X049805Y056546D02*
X050686Y057427D01*
X050013Y024654D02*
X050696D01*
X050013Y059054D02*
X051713D01*
X050113Y037054D02*
D01*
Y029704D02*
Y032454D01*
Y037054D02*
X052113D01*
X050113Y044054D02*
Y047004D01*
Y044054D02*
D01*
Y048504D02*
Y051554D01*
Y039454D02*
X052113D01*
X050686Y057427D02*
X050760D01*
X050696Y024654D02*
X051339Y025297D01*
X050763Y026854D02*
X052113Y028204D01*
X051339Y025297D02*
X052669D01*
X051513Y011854D02*
X063413D01*
X051713Y059054D02*
X052813Y057954D01*
X051863Y028204D02*
X052113D01*
X051968Y026059D02*
X054113Y028204D01*
X052113Y029704D02*
Y032454D01*
Y037054D02*
X054113D01*
X052113Y039454D02*
X054113D01*
X052113Y044054D02*
Y047004D01*
Y048504D02*
Y051954D01*
X052213Y022354D02*
X052829D01*
X052613Y024154D02*
X053013D01*
X052613D02*
X053013Y024554D01*
X052669Y025297D02*
X053026Y025654D01*
X052829Y022354D02*
X053929Y023454D01*
X053013Y024554D02*
X055513D01*
X053026Y025654D02*
X054613D01*
X053929Y023454D02*
X056413D01*
X054013Y048604D02*
Y052454D01*
Y048604D02*
X054113Y048504D01*
Y039454D02*
Y039454D01*
Y029704D02*
Y032454D01*
Y029704D02*
D01*
Y037054D02*
X057113D01*
X054113Y039454D02*
Y039454D01*
Y044054D02*
Y047004D01*
Y044054D02*
D01*
Y039454D02*
X057113D01*
X054313Y021954D02*
X056556D01*
X054313D02*
X059313Y016954D01*
X054613Y025654D02*
X057113Y028154D01*
X055513Y024554D02*
X059113Y028154D01*
X056413Y023454D02*
X061113Y028154D01*
X056556Y021954D02*
X063813Y029210D01*
X057113Y029654D02*
Y032454D01*
Y037054D02*
X059113D01*
X057113Y039454D02*
X059113D01*
X057113Y044054D02*
Y047004D01*
Y048504D02*
X057313Y048704D01*
X057113Y048904D02*
Y050354D01*
Y048904D02*
X057313Y048704D01*
X059113Y039454D02*
X061113D01*
X059113Y044054D02*
Y047004D01*
Y048504D02*
Y051354D01*
Y029654D02*
Y032454D01*
Y037054D02*
X061113D01*
X059313Y016954D02*
X061713D01*
X061113Y029654D02*
Y032454D01*
Y037054D02*
X063813Y034354D01*
X061113Y044054D02*
Y047004D01*
Y048504D02*
Y052254D01*
X061713Y016954D02*
X063113Y018354D01*
X064073D01*
X063413Y011854D02*
X068113Y016554D01*
X063813Y029210D02*
Y034354D01*
X064073Y018354D02*
X065573Y019854D01*
X068113Y016554D02*
Y019854D01*
Y024154D01*
G54D24*
X007813Y023354D03*
G54D26*
X010113Y037914D03*
G54D25*
X010113Y040454D03*
Y042994D03*
X012653Y037914D03*
Y040454D03*
Y042994D03*
G54D20*
X029113Y032454D03*
Y037054D03*
G54D19*
X029113Y028104D03*
Y029604D03*
G54D20*
X029113Y039554D03*
Y044154D03*
G54D19*
X029113Y047004D03*
Y048504D03*
X031113Y028104D03*
Y029604D03*
G54D21*
X031113Y032454D03*
Y037054D03*
Y039554D03*
Y044154D03*
G54D19*
X031113Y047004D03*
Y048504D03*
G54D20*
X033113Y032454D03*
Y037054D03*
G54D19*
X033113Y028104D03*
Y029604D03*
G54D20*
X033113Y039554D03*
Y044154D03*
G54D19*
X033113Y047004D03*
Y048504D03*
G54D20*
X036113Y032454D03*
Y037054D03*
Y039554D03*
Y044154D03*
G54D19*
X036113Y047004D03*
Y048504D03*
Y028154D03*
Y029654D03*
X038113Y028154D03*
Y029654D03*
G54D21*
X038113Y032454D03*
Y037054D03*
Y039554D03*
Y044154D03*
G54D19*
X038113Y047004D03*
Y048504D03*
G54D20*
X040113Y032454D03*
Y037054D03*
G54D19*
X040113Y028154D03*
Y029654D03*
G54D20*
X040113Y039554D03*
Y044154D03*
G54D19*
X040113Y047004D03*
Y048504D03*
X043113Y028154D03*
Y029654D03*
G54D20*
X043113Y032454D03*
Y037054D03*
Y039454D03*
Y044054D03*
G54D19*
X043113Y047004D03*
Y048504D03*
X045113Y028154D03*
Y029654D03*
G54D21*
X045113Y039454D03*
Y044054D03*
G54D19*
X045113Y047004D03*
Y048504D03*
G54D21*
X045113Y032454D03*
Y037054D03*
G54D20*
X047113Y032454D03*
Y037054D03*
Y039454D03*
Y044054D03*
G54D19*
X047113Y047004D03*
Y048504D03*
X047213Y028154D03*
Y029654D03*
X050113Y028204D03*
Y029704D03*
G54D20*
X050113Y032454D03*
Y037054D03*
G54D19*
X050113Y047004D03*
Y048504D03*
G54D20*
X050113Y039454D03*
Y044054D03*
G54D19*
X052113Y028204D03*
Y029704D03*
G54D21*
X052113Y032454D03*
Y037054D03*
Y039454D03*
Y044054D03*
G54D19*
X052113Y047004D03*
Y048504D03*
G54D20*
X054113Y032454D03*
Y037054D03*
G54D19*
X054113Y047004D03*
Y048504D03*
Y028204D03*
Y029704D03*
G54D20*
X054113Y039454D03*
Y044054D03*
G54D19*
X057113Y028154D03*
Y029654D03*
G54D20*
X057113Y032454D03*
Y037054D03*
Y039454D03*
Y044054D03*
G54D19*
X057113Y047004D03*
Y048504D03*
G54D21*
X059113Y039454D03*
Y044054D03*
G54D19*
X059113Y047004D03*
Y048504D03*
Y028154D03*
Y029654D03*
G54D21*
X059113Y032454D03*
Y037054D03*
G54D19*
X061113Y028154D03*
Y029654D03*
G54D20*
X061113Y032454D03*
Y037054D03*
Y039454D03*
Y044054D03*
G54D19*
X061113Y047004D03*
Y048504D03*
G54D25*
X063033Y019854D03*
Y024154D03*
X065573Y019854D03*
Y024154D03*
G54D26*
X068113Y019854D03*
Y024154D03*
G36*
X059609Y027382D02*
X056198Y023972D01*
X055785*
X055746Y024099*
X055879Y024187*
X059191Y027500*
X059560*
X059609Y027382*
G37*
G36*
X038492D02*
X034382Y023272D01*
X030310*
X030276Y023325*
X030346Y023452*
X033929*
X034127Y023491*
X034295Y023603*
X038191Y027500*
X038444*
X038492Y027382*
G37*
G36*
X043609D02*
X039998Y023772D01*
X039836*
X039747Y023888*
X039589Y024009*
X039609Y024118*
X039620Y024137*
X039811Y024175*
X039979Y024287*
X043191Y027500*
X043560*
X043609Y027382*
G37*
G54D27*
X006313Y011554D03*
X006513Y054654D03*
X011513Y023154D03*
X013413Y016354D03*
X016913Y052854D03*
X017813Y015154D03*
X017913Y059254D03*
X018013Y023454D03*
X021513Y036354D03*
X021813Y054454D03*
X023113Y023654D03*
X024813Y062754D03*
X025313Y053904D03*
X025613Y023554D03*
X025713Y011654D03*
X026913Y013954D03*
Y024954D03*
X027213Y028954D03*
X028113Y023754D03*
X029113Y050754D03*
X029378Y012819D03*
X029513Y022754D03*
X030413Y062454D03*
X030713Y064854D03*
X031013Y050654D03*
X032037Y062014D03*
X033213Y011554D03*
X033713Y063054D03*
X035513Y062554D03*
X036113Y050954D03*
X036813Y020254D03*
X038013Y018454D03*
Y062454D03*
X038113Y053754D03*
Y024654D03*
X038513Y013554D03*
X039113Y023254D03*
X039513Y058954D03*
X040113Y050954D03*
X040213Y062554D03*
X040313Y022054D03*
X041313Y016254D03*
X041513Y034854D03*
X041613Y046054D03*
X041613Y060654D03*
X043513Y057954D03*
X043913Y011954D03*
Y051754D03*
X044013Y053454D03*
X044513Y022754D03*
X047513Y063454D03*
X047778Y013189D03*
X047954Y024454D03*
X050013Y024654D03*
X050113Y051554D03*
Y064254D03*
X050760Y057427D03*
X051513Y011854D03*
X052113Y051954D03*
X052213Y022354D03*
X052813Y057954D03*
X053013Y024154D03*
X054013Y052454D03*
X054313Y021954D03*
X057113Y050354D03*
X058313Y015854D03*
X059113Y051354D03*
X061113Y052254D03*
X066213Y049254D03*
X066513Y032054D03*
X067913Y011454D03*
M02*