%FSDAX33Y33*%
%MOMM*%
%SFA1B1*%

%IPPOS*%
%AMD49*
4,1,8,1.209040,1.262380,-1.209040,1.262380,-1.651000,0.820420,-1.651000,-0.820420,-1.209040,-1.262380,1.209040,-1.262380,1.651000,-0.820420,1.651000,0.820420,1.209040,1.262380,0.0*
1,1,0.883402,1.209040,0.820420*
1,1,0.883402,-1.209040,0.820420*
1,1,0.883402,-1.209040,-0.820420*
1,1,0.883402,1.209040,-0.820420*
%
%AMD1002*
%
%ADD40O,1.749999X0.549999*%
%ADD41O,0.549999X1.749999*%
%ADD42R,2.999999X1.524000*%
%ADD43R,0.800001X1.050000*%
%ADD44R,1.100000X1.000001*%
%ADD45R,1.549999X1.500000*%
%ADD46O,1.050000X0.599999*%
%ADD47R,1.050000X0.599999*%
%ADD48R,3.300001X2.524001*%
G04~CAMADD=49~8~0.0~0.0~1299.2~993.7~173.9~0.0~15~0.0~0.0~0.0~0.0~0~0.0~0.0~0.0~0.0~0~0.0~0.0~0.0~0.0~1299.2~993.7*
%ADD49D49*%
%ADD50R,2.999999X5.000000*%
%ADD51R,1.000001X1.100000*%
%ADD52R,5.499999X3.850000*%
%ADD53R,9.100000X10.900001*%
%ADD54R,2.500000X1.050000*%
%ADD55R,1.050000X0.800001*%
%ADD56R,2.000001X2.500000*%
%ADD57R,0.499999X2.500000*%
%ADD58R,5.000000X2.999999*%
%ADD59R,3.850000X5.499999*%
%ADD60R,1.849999X1.450000*%
%ADD61C,1.000001*%
%ADD62C,0.750001*%
%ADD63C,0.399999*%
%ADD64C,0.381000*%
%ADD65R,1.500000X1.500000*%
%ADD66C,1.500000*%
%ADD67C,5.000000*%
%ADD68C,0.700001*%
%ADD69C,6.000001*%
%ADD70C,2.999999*%
%ADD71C,0.900001*%
%ADD72C,1.270000*%
%LNfilm_top-1*%
%LPD*%
G36*
X177799Y126999D02*
X000000D01*
Y000000*
X177799*
Y126999*
G37*
%LNfilm_top-2*%
%LPC*%
G36*
X137008Y008512D02*
X136562D01*
Y009552*
X134054*
Y008512*
X127762*
Y009552*
X125254*
Y008512*
X124408*
Y017902*
X129659*
Y016752*
X128808*
Y013752*
X131204*
Y013748*
X131508*
Y015252*
Y016756*
X131359*
Y017902*
X134529*
Y017852*
X136087*
Y017902*
X137008*
Y008512*
G37*
G36*
X168899D02*
X137390D01*
X137263*
Y017902*
X137244Y017999*
X137189Y018082*
X137106Y018137*
X137008Y018157*
X136087*
X136083Y018160*
Y018302*
X134533*
Y018160*
X134529Y018157*
X131359*
Y019832*
X131539Y019971*
X131681Y020156*
X131771Y020371*
X131801Y020602*
X131771Y020833*
X131681Y021048*
X131539Y021233*
X131355Y021375*
X131139Y021464*
X130908Y021495*
X130677Y021464*
X130462Y021375*
X130277Y021233*
X130135Y021048*
X130046Y020833*
X130016Y020602*
X130030Y020492*
X129940Y020402*
X129831Y020417*
X129600Y020386*
X129384Y020297*
X129199Y020155*
X129058Y019971*
X128968Y019755*
X128938Y019524*
X128968Y019293*
X129058Y019078*
X129199Y018893*
X129384Y018751*
X129600Y018662*
X129659Y018654*
Y018157*
X124408*
X124311Y018137*
X124228Y018082*
X124173Y017999*
X124153Y017902*
Y008512*
X124026*
X008918*
Y118492*
X168899Y118492*
X168899Y008512*
G37*
%LNfilm_top-3*%
%LPD*%
G36*
X133108Y013358D02*
X132926Y013334D01*
X132755Y013263*
X132609Y013151*
X132497Y013005*
X132426Y012835*
X132402Y012652*
X132426Y012469*
X132497Y012299*
X132609Y012153*
X132755Y012040*
X132926Y011970*
X133108Y011946*
X133291Y011970*
X133461Y012040*
X133608Y012153*
X133720Y012299*
X133790Y012469*
X133814Y012652*
X133790Y012835*
X133720Y013005*
X133608Y013151*
X133461Y013263*
X133291Y013334*
X133108Y013358*
G37*
G36*
X128708D02*
X128526Y013334D01*
X128355Y013263*
X128209Y013151*
X128097Y013005*
X128026Y012835*
X128002Y012652*
X128026Y012469*
X128097Y012299*
X128209Y012153*
X128355Y012040*
X128526Y011970*
X128708Y011946*
X128891Y011970*
X129061Y012040*
X129208Y012153*
X129320Y012299*
X129390Y012469*
X129414Y012652*
X129390Y012835*
X129320Y013005*
X129208Y013151*
X129061Y013263*
X128891Y013334*
X128708Y013358*
G37*
G36*
X127762Y015052D02*
X126708D01*
Y013748*
X127762*
Y015052*
G37*
G36*
X126308D02*
X125254D01*
Y013748*
X126308*
Y015052*
G37*
G36*
X127762Y011256D02*
X126708D01*
Y009952*
X127762*
Y011256*
G37*
G36*
X126308D02*
X125254D01*
Y009952*
X126308*
Y011256*
G37*
G36*
X136562D02*
X135508D01*
Y009952*
X136562*
Y011256*
G37*
G36*
X135108D02*
X134054D01*
Y009952*
X135108*
Y011256*
G37*
G36*
Y016756D02*
X134054D01*
Y015711*
X133012*
Y016756*
X132708*
Y015252*
Y013748*
X133012*
Y014793*
X134054*
Y013748*
X135108*
Y015252*
Y016756*
G37*
G36*
X136562D02*
X135508D01*
Y015452*
X136562*
Y016756*
G37*
G36*
X136087Y017452D02*
X135508D01*
Y016998*
X136087*
Y017452*
G37*
G36*
X135108D02*
X134529D01*
Y016998*
X135108*
Y017452*
G37*
G36*
X136562Y015052D02*
X135508D01*
Y013748*
X136562*
Y015052*
G37*
G36*
X132308Y016756D02*
X131908D01*
Y015252*
Y013748*
X132308*
Y015252*
Y016756*
G37*
G36*
X127762D02*
X126708D01*
Y015452*
X127762*
Y016756*
G37*
G36*
X126308D02*
X125254D01*
Y015452*
X126308*
Y016756*
G37*
G36*
X138645Y050632D02*
X137858D01*
Y049846*
X137920Y049854*
X138165Y049955*
X138374Y050116*
X138535Y050326*
X138636Y050570*
X138645Y050632*
G37*
G36*
X137458D02*
X136672D01*
X136680Y050570*
X136781Y050326*
X136942Y050116*
X137152Y049955*
X137396Y049854*
X137458Y049846*
Y050632*
G37*
G36*
X092112Y049302D02*
X091508D01*
Y048748*
X092112*
Y049302*
G37*
G36*
X012679Y054502D02*
X012008D01*
Y053832*
X012040Y053836*
X012257Y053925*
X012442Y054068*
X012585Y054254*
X012674Y054470*
X012679Y054502*
G37*
G36*
X011608D02*
X010938D01*
X010942Y054470*
X011032Y054254*
X011174Y054068*
X011360Y053925*
X011576Y053836*
X011608Y053832*
Y054502*
G37*
G36*
X030508Y063577D02*
X027508D01*
Y062027*
X030508*
Y062045*
X036095*
X039346Y058794*
X039298Y058677*
X038108*
Y055370*
X036000*
X035819Y055346*
X035651Y055276*
X035507Y055166*
X035396Y055021*
X035326Y054853*
X035302Y054672*
Y053032*
X035326Y052851*
X035396Y052683*
X035507Y052538*
X035651Y052427*
X035819Y052358*
X036000Y052334*
X038417*
X038597Y052358*
X038765Y052427*
X038910Y052538*
X039021Y052683*
X039090Y052851*
X039114Y053032*
Y054327*
X044108*
Y058677*
X041603*
X036943Y063337*
X036787Y063457*
X036604Y063533*
X036408Y063558*
X030508*
Y063577*
G37*
G36*
X091108Y049302D02*
X090504D01*
Y048748*
X091108*
Y049302*
G37*
G36*
X137658Y049301D02*
X137397Y049266D01*
X137154Y049165*
X136945Y049005*
X136785Y048796*
X136684Y048553*
X136650Y048292*
X136684Y048031*
X136785Y047788*
X136945Y047579*
X137154Y047418*
X137397Y047318*
X137658Y047283*
X137919Y047318*
X138163Y047418*
X138371Y047579*
X138532Y047788*
X138633Y048031*
X138667Y048292*
X138633Y048553*
X138532Y048796*
X138371Y049005*
X138163Y049165*
X137919Y049266*
X137658Y049301*
G37*
G36*
X135118D02*
X134857Y049266D01*
X134614Y049165*
X134405Y049005*
X134245Y048796*
X134144Y048553*
X134110Y048292*
X134144Y048031*
X134245Y047788*
X134405Y047579*
X134614Y047418*
X134857Y047318*
X135118Y047283*
X135379Y047318*
X135623Y047418*
X135831Y047579*
X135992Y047788*
X136093Y048031*
X136127Y048292*
X136093Y048553*
X135992Y048796*
X135831Y049005*
X135623Y049165*
X135379Y049266*
X135118Y049301*
G37*
G36*
X039112Y048468D02*
X037408D01*
Y047152*
X039112*
Y048468*
G37*
G36*
X118758Y063537D02*
X117558D01*
X117353Y063496*
X117180Y063380*
X117064Y063207*
X117023Y063002*
X117064Y062797*
X117180Y062623*
Y062580*
X117064Y062407*
X117023Y062202*
X117064Y061997*
X117127Y061903*
X117177Y061783*
X117060Y061608*
X117059Y061602*
X118158*
X119332*
X119366Y061655*
X119367Y061655*
X119401Y061660*
X123533Y057528*
Y056602*
X123824*
Y056427*
X123859Y056251*
X123959Y056102*
X124144Y055917*
X124116Y055702*
X124146Y055471*
X124235Y055256*
X124286Y055190*
X124230Y055076*
X124083*
X122233Y056926*
X122084Y057026*
X121908Y057061*
X119296*
X119237Y057173*
X119253Y057197*
X119294Y057402*
X119253Y057607*
X119137Y057780*
Y057823*
X119253Y057997*
X119294Y058202*
X119253Y058407*
X119137Y058580*
Y058623*
X119253Y058797*
X119294Y059002*
X119253Y059207*
X119137Y059380*
Y059423*
X119253Y059597*
X119294Y059802*
X119253Y060007*
X119137Y060180*
Y060223*
X119253Y060397*
X119294Y060602*
X119253Y060807*
X119190Y060901*
X119140Y061021*
X119257Y061195*
X119258Y061202*
X118158*
X117059*
X117060Y061195*
X117177Y061021*
X117127Y060901*
X117064Y060807*
X117023Y060602*
X117064Y060397*
X117180Y060223*
Y060180*
X117064Y060007*
X117023Y059802*
X117064Y059597*
X117180Y059423*
Y059380*
X117064Y059207*
X117023Y059002*
X117064Y058797*
X117180Y058623*
Y058580*
X117064Y058407*
X117023Y058202*
X117064Y057997*
X117180Y057823*
Y057780*
X117064Y057607*
X117023Y057402*
X117064Y057197*
X117180Y057023*
Y056980*
X117064Y056807*
X117023Y056602*
X117064Y056397*
X117180Y056223*
Y056180*
X117064Y056007*
X117023Y055802*
X117064Y055597*
X117180Y055423*
Y055380*
X117064Y055207*
X117023Y055002*
X117064Y054797*
X117180Y054623*
Y054580*
X117064Y054407*
X117023Y054202*
X117051Y054063*
X116964Y053936*
X115669*
X115581Y054148*
X115439Y054333*
X115255Y054475*
X115039Y054564*
X114808Y054595*
X114577Y054564*
X114362Y054475*
X114177Y054333*
X114035Y054148*
X113946Y053933*
X113916Y053702*
X113946Y053471*
X114035Y053256*
X114087Y053188*
X114025Y053061*
X113172*
X113039Y053233*
X112855Y053375*
X112639Y053464*
X112408Y053495*
X112177Y053464*
X111962Y053375*
X111777Y053233*
X111635Y053048*
X111546Y052833*
X111516Y052602*
X111546Y052371*
X111635Y052156*
X111777Y051971*
X111962Y051829*
X112177Y051740*
X112408Y051709*
X112639Y051740*
X112855Y051829*
X113039Y051971*
X113172Y052143*
X117020*
X117080Y052031*
X117064Y052007*
X117023Y051802*
X117064Y051597*
X117180Y051423*
Y051380*
X117064Y051207*
X117023Y051002*
X117064Y050797*
X117180Y050623*
X117353Y050507*
X117558Y050467*
X118758*
X118963Y050507*
X119017Y050543*
X119422*
X119477Y050471*
X119662Y050329*
X119877Y050240*
X120108Y050209*
X120339Y050240*
X120555Y050329*
X120739Y050471*
X120881Y050656*
X120971Y050871*
X121001Y051102*
X120971Y051333*
X120881Y051548*
X120739Y051733*
X120555Y051875*
X120339Y051964*
X120108Y051995*
X119877Y051964*
X119662Y051875*
X119477Y051733*
X119386Y051614*
X119267Y051668*
X119294Y051802*
X119253Y052007*
X119137Y052180*
Y052223*
X119253Y052397*
X119294Y052602*
X119253Y052807*
X119137Y052980*
Y053023*
X119253Y053197*
X119294Y053402*
X119253Y053607*
X119137Y053780*
Y053823*
X119253Y053997*
X119294Y054202*
X119253Y054407*
X119237Y054431*
X119296Y054543*
X121018*
X124984Y050577*
X125133Y050478*
X125308Y050443*
X128145*
X128277Y050271*
X128462Y050129*
X128677Y050040*
X128908Y050009*
X129139Y050040*
X129355Y050129*
X129539Y050271*
X129681Y050456*
X129771Y050671*
X129801Y050902*
X129771Y051133*
X129681Y051348*
X129539Y051533*
X129355Y051675*
X129139Y051764*
X128908Y051795*
X128677Y051764*
X128462Y051675*
X128277Y051533*
X128145Y051361*
X125498*
X124433Y052426*
X124482Y052543*
X128145*
X128277Y052371*
X128462Y052229*
X128677Y052140*
X128908Y052109*
X129139Y052140*
X129355Y052229*
X129539Y052371*
X129681Y052556*
X129771Y052771*
X129801Y053002*
X129771Y053233*
X129681Y053448*
X129539Y053633*
X129355Y053775*
X129139Y053864*
X128908Y053895*
X128677Y053864*
X128462Y053775*
X128277Y053633*
X128145Y053461*
X124398*
X123815Y054044*
X123877Y054161*
X123893Y054158*
X128323*
X128499Y054193*
X128648Y054292*
X128693Y054338*
X128908Y054309*
X129139Y054340*
X129355Y054429*
X129539Y054571*
X129681Y054756*
X129771Y054971*
X129801Y055202*
X129771Y055433*
X129681Y055648*
X129539Y055833*
X129355Y055975*
X129139Y056064*
X128908Y056095*
X128677Y056064*
X128462Y055975*
X128277Y055833*
X128135Y055648*
X128046Y055433*
X128016Y055202*
X128020Y055171*
X127936Y055076*
X125787*
X125731Y055190*
X125781Y055256*
X125871Y055471*
X125901Y055702*
X125871Y055933*
X125781Y056148*
X125639Y056333*
X125460Y056471*
X125459Y056484*
X125501Y056598*
X125533*
Y057402*
Y058206*
X124979*
Y058202*
X124157*
X119943Y062416*
X119996Y062543*
X123018*
X130149Y055412*
Y051502*
X130184Y051326*
X130284Y051177*
X131284Y050177*
X131433Y050078*
X131608Y050043*
X132308*
X132484Y050078*
X132633Y050177*
X134098Y051643*
X134340*
X134383Y051516*
X134245Y051336*
X134144Y051093*
X134110Y050832*
X134144Y050571*
X134163Y050525*
X132084Y048446*
X131984Y048297*
X131949Y048122*
Y045492*
X130209Y043752*
X130089Y043811*
X130101Y043902*
X130071Y044133*
X129981Y044348*
X129839Y044533*
X129655Y044675*
X129439Y044764*
X129208Y044795*
X128977Y044764*
X128762Y044675*
X128577Y044533*
X128445Y044361*
X123981*
X123955Y044488*
X124055Y044529*
X124239Y044671*
X124381Y044856*
X124470Y045071*
X124501Y045302*
X124470Y045533*
X124381Y045748*
X124239Y045933*
X124055Y046075*
X123839Y046164*
X123608Y046195*
X123377Y046164*
X123162Y046075*
X122977Y045933*
X122835Y045748*
X122799Y045661*
X118198*
X116167Y047692*
Y048214*
X116279Y048274*
X116303Y048257*
X116508Y048217*
X116713Y048257*
X116887Y048373*
X117003Y048547*
X117044Y048752*
Y048893*
X120995*
X121127Y048721*
X121312Y048579*
X121527Y048490*
X121758Y048459*
X121989Y048490*
X122205Y048579*
X122389Y048721*
X122531Y048906*
X122621Y049121*
X122651Y049352*
X122621Y049583*
X122531Y049798*
X122389Y049983*
X122205Y050125*
X121989Y050214*
X121758Y050245*
X121527Y050214*
X121312Y050125*
X121127Y049983*
X120995Y049811*
X117044*
Y049952*
X117003Y050157*
X116887Y050330*
X116713Y050446*
X116508Y050487*
X116303Y050446*
X116130Y050330*
X116087*
X115913Y050446*
X115708Y050487*
X115503Y050446*
X115330Y050330*
X115287*
X115113Y050446*
X114908Y050487*
X114703Y050446*
X114530Y050330*
X114487*
X114313Y050446*
X114108Y050487*
X113903Y050446*
X113809Y050383*
X113690Y050333*
X113515Y050450*
X113508Y050451*
Y049352*
X113108*
Y050451*
X113102Y050450*
X112927Y050333*
X112808Y050383*
X112713Y050446*
X112508Y050487*
X112303Y050446*
X112130Y050330*
X112087*
X111913Y050446*
X111708Y050487*
X111503Y050446*
X111330Y050330*
X111287*
X111113Y050446*
X110908Y050487*
X110703Y050446*
X110530Y050330*
X110487*
X110313Y050446*
X110108Y050487*
X109903Y050446*
X109879Y050430*
X109767Y050490*
Y052912*
X109788Y052933*
X109839Y052940*
X110055Y053029*
X110239Y053171*
X110381Y053356*
X110471Y053571*
X110501Y053802*
X110471Y054033*
X110381Y054248*
X110239Y054433*
X110055Y054575*
X109839Y054664*
X109608Y054695*
X109377Y054664*
X109162Y054575*
X109094Y054523*
X108967Y054585*
Y056602*
X108932Y056777*
X108833Y056926*
X105973Y059786*
X106001Y060002*
X105971Y060233*
X105881Y060448*
X105739Y060633*
X105555Y060775*
X105339Y060864*
X105108Y060895*
X104877Y060864*
X104662Y060775*
X104477Y060633*
X104335Y060448*
X104246Y060233*
X104216Y060002*
X104246Y059771*
X104335Y059556*
X104477Y059371*
X104662Y059229*
X104877Y059140*
X105108Y059109*
X105324Y059138*
X107745Y056716*
X107673Y056609*
X107539Y056664*
X107308Y056695*
X107093Y056666*
X105884Y057875*
X105901Y058002*
X105871Y058233*
X105781Y058448*
X105639Y058633*
X105455Y058775*
X105239Y058864*
X105008Y058895*
X104777Y058864*
X104562Y058775*
X104377Y058633*
X104235Y058448*
X104146Y058233*
X104116Y058002*
X104146Y057771*
X104235Y057556*
X104377Y057371*
X104562Y057229*
X104777Y057140*
X105008Y057109*
X105239Y057140*
X105298Y057164*
X106444Y056017*
X106416Y055802*
X106446Y055571*
X106535Y055356*
X106677Y055171*
X106862Y055029*
X107077Y054940*
X107308Y054909*
X107539Y054940*
X107755Y055029*
X107922Y055158*
X108049Y055127*
Y050490*
X107937Y050430*
X107913Y050446*
X107708Y050487*
X107503Y050446*
X107409Y050383*
X107290Y050333*
X107115Y050450*
X107108Y050451*
Y049352*
Y048198*
X107174Y048152*
Y047030*
X107047Y046992*
X106939Y047133*
X106754Y047275*
X106539Y047364*
X106308Y047394*
X106077Y047364*
X105862Y047275*
X105677Y047133*
X105535Y046948*
X105446Y046733*
X105415Y046502*
X105446Y046271*
X105535Y046055*
X105629Y045933*
X105566Y045806*
X105454*
Y045202*
X106208*
Y045002*
X106408*
Y044198*
X106962*
Y044202*
X107174*
Y042877*
X106958*
Y042561*
X105708*
X105533Y042526*
X105384Y042426*
X090604Y027646*
X090504Y027497*
X090469Y027322*
Y018134*
X090424Y018115*
X090215Y017955*
X090055Y017746*
X089954Y017503*
X089920Y017242*
X089954Y016981*
X090055Y016738*
X090215Y016529*
X090424Y016368*
X090667Y016268*
X090928Y016233*
X091189Y016268*
X091433Y016368*
X091642Y016529*
X091682Y016582*
X091809Y016539*
Y016232*
X091279Y015702*
X089928*
Y013702*
X091928*
Y015053*
X092593Y015717*
X092692Y015866*
X092727Y016042*
Y016390*
X092854Y016453*
X092964Y016368*
X093207Y016268*
X093468Y016233*
X093729Y016268*
X093973Y016368*
X094182Y016529*
X094342Y016738*
X094443Y016981*
X094477Y017242*
X094443Y017503*
X094342Y017746*
X094182Y017955*
X093973Y018115*
X093729Y018216*
X093468Y018251*
X093207Y018216*
X092964Y018115*
X092854Y018031*
X092727Y018094*
Y018672*
X105933Y031877*
X106032Y032026*
X106067Y032202*
Y039238*
X106239Y039371*
X106381Y039556*
X106471Y039771*
X106501Y040002*
X106471Y040233*
X106381Y040448*
X106239Y040633*
X106055Y040775*
X105839Y040864*
X105608Y040895*
X105377Y040864*
X105244Y040809*
X105172Y040916*
X105898Y041643*
X106958*
Y041327*
X108258*
Y042877*
X108092*
Y044202*
X108250*
X108338Y044075*
X108316Y043902*
X108346Y043671*
X108435Y043456*
X108577Y043271*
X108762Y043129*
X108977Y043040*
X109063Y043028*
X109132Y042891*
X109124Y042877*
X108458*
Y041327*
X108649*
Y040702*
X108362*
Y040706*
X107808*
Y039902*
Y039098*
X108362*
Y039102*
X108649*
Y034902*
X108684Y034726*
X108784Y034577*
X112199Y031162*
Y018514*
X110908*
Y017961*
X106408*
Y018514*
X102908*
Y017961*
X100708*
X100533Y017926*
X100384Y017826*
X097718Y015161*
X096901*
X096882Y015206*
X096722Y015415*
X096513Y015575*
X096269Y015676*
X096008Y015711*
X095747Y015676*
X095504Y015575*
X095295Y015415*
X095135Y015206*
X095034Y014963*
X095000Y014702*
X095034Y014441*
X095135Y014198*
X095295Y013989*
X095504Y013828*
X095747Y013728*
X096008Y013693*
X096269Y013728*
X096513Y013828*
X096722Y013989*
X096882Y014198*
X096901Y014243*
X097908*
X098084Y014278*
X098233Y014377*
X100898Y017043*
X102908*
Y016490*
X106408*
Y017043*
X110908*
Y016490*
X114408*
Y018514*
X113117*
Y031352*
X113082Y031527*
X112983Y031676*
X109567Y035092*
Y039102*
X109808*
Y040702*
X109567*
Y041327*
X109758*
Y042103*
X111233Y043577*
X111332Y043726*
X111367Y043902*
Y048214*
X111479Y048274*
X111503Y048257*
X111708Y048217*
X111913Y048257*
X112087Y048373*
X112130*
X112277Y048275*
X112299Y048173*
X112296Y048129*
X112174Y048036*
X112032Y047850*
X111942Y047634*
X111938Y047602*
X112808*
Y047402*
X113008*
Y046532*
X113040Y046536*
X113257Y046625*
X113442Y046768*
X113522Y046872*
X113649Y046829*
Y045602*
Y043302*
X113083*
Y042761*
X112372*
X112239Y042933*
X112055Y043075*
X111839Y043164*
X111608Y043195*
X111377Y043164*
X111162Y043075*
X110977Y042933*
X110835Y042748*
X110746Y042533*
X110716Y042302*
X110746Y042071*
X110835Y041856*
X110977Y041671*
X111162Y041529*
X111377Y041440*
X111608Y041409*
X111839Y041440*
X112055Y041529*
X112239Y041671*
X112372Y041843*
X113083*
Y041506*
X113079*
Y040702*
X114108*
X115137*
Y041506*
X115133*
Y043302*
X114567*
Y045602*
Y045602*
Y046515*
X114694Y046567*
X116449Y044812*
Y031102*
X116484Y030926*
X116584Y030777*
X119449Y027912*
Y019652*
X119133*
Y018352*
X120683*
Y019652*
X120367*
Y028102*
X120332Y028277*
X120233Y028426*
X117367Y031292*
Y045002*
X117364Y045018*
X117481Y045080*
X117684Y044877*
X117833Y044778*
X118008Y044743*
X121242*
X121285Y044616*
X121177Y044533*
X121035Y044348*
X120946Y044133*
X120916Y043902*
X120946Y043671*
X121035Y043456*
X121177Y043271*
X121285Y043188*
X121242Y043061*
X119972*
X119839Y043233*
X119655Y043375*
X119439Y043464*
X119208Y043495*
X118977Y043464*
X118762Y043375*
X118577Y043233*
X118435Y043048*
X118346Y042833*
X118316Y042602*
X118346Y042371*
X118435Y042156*
X118577Y041971*
X118762Y041829*
X118977Y041740*
X119208Y041709*
X119439Y041740*
X119655Y041829*
X119839Y041971*
X119972Y042143*
X129708*
X129884Y042178*
X130033Y042277*
X132733Y044977*
X132832Y045126*
X132867Y045302*
Y047932*
X134812Y049876*
X134857Y049858*
X135118Y049823*
X135379Y049858*
X135623Y049958*
X135831Y050119*
X135992Y050328*
X136093Y050571*
X136127Y050832*
X136093Y051093*
X135992Y051336*
X135854Y051516*
X135896Y051643*
X136872*
X136918Y051516*
X136781Y051338*
X136680Y051094*
X136672Y051032*
X137658*
X138645*
X138636Y051094*
X138535Y051338*
X138399Y051516*
X138444Y051643*
X146445*
X146577Y051471*
X146762Y051329*
X146977Y051240*
X147208Y051209*
X147439Y051240*
X147655Y051329*
X147839Y051471*
X147981Y051656*
X148071Y051871*
X148101Y052102*
X148071Y052333*
X147981Y052548*
X147839Y052733*
X147655Y052875*
X147439Y052964*
X147208Y052995*
X146977Y052964*
X146762Y052875*
X146577Y052733*
X146445Y052561*
X138436*
X138394Y052688*
X138532Y052868*
X138633Y053111*
X138667Y053372*
X138633Y053633*
X138532Y053876*
X138371Y054085*
X138163Y054245*
X137919Y054346*
X137658Y054381*
X137397Y054346*
X137154Y054245*
X136945Y054085*
X136785Y053876*
X136684Y053633*
X136650Y053372*
X136684Y053111*
X136785Y052868*
X136923Y052688*
X136880Y052561*
X135896*
X135854Y052688*
X135992Y052868*
X136093Y053111*
X136127Y053372*
X136093Y053633*
X135992Y053876*
X135831Y054085*
X135623Y054245*
X135379Y054346*
X135118Y054381*
X134857Y054346*
X134614Y054245*
X134405Y054085*
X134245Y053876*
X134144Y053633*
X134110Y053372*
X134144Y053111*
X134245Y052868*
X134383Y052688*
X134340Y052561*
X133908*
X133733Y052526*
X133584Y052426*
X132118Y050961*
X131798*
X131067Y051692*
Y055602*
X131032Y055777*
X130933Y055926*
X123533Y063326*
X123384Y063426*
X123208Y063461*
X119017*
X118963Y063496*
X118758Y063537*
G37*
G36*
X121208Y048072D02*
Y047402D01*
X121879*
X121874Y047434*
X121785Y047650*
X121642Y047836*
X121457Y047978*
X121240Y048068*
X121208Y048072*
G37*
G36*
X120808D02*
X120776Y048068D01*
X120560Y047978*
X120374Y047836*
X120232Y047650*
X120142Y047434*
X120138Y047402*
X120808*
Y048072*
G37*
G36*
X066808Y054502D02*
X066138D01*
X066142Y054470*
X066232Y054254*
X066374Y054068*
X066560Y053925*
X066776Y053836*
X066808Y053832*
Y054502*
G37*
G36*
X136105Y055712D02*
X135318D01*
Y054926*
X135380Y054934*
X135625Y055035*
X135834Y055196*
X135995Y055406*
X136096Y055650*
X136105Y055712*
G37*
G36*
X134918D02*
X134132D01*
X134140Y055650*
X134241Y055406*
X134402Y055196*
X134612Y055035*
X134856Y054934*
X134918Y054926*
Y055712*
G37*
G36*
X137658Y056921D02*
X137397Y056886D01*
X137154Y056785*
X136945Y056625*
X136785Y056416*
X136684Y056173*
X136650Y055912*
X136684Y055651*
X136785Y055408*
X136945Y055199*
X137154Y055038*
X137397Y054938*
X137658Y054903*
X137919Y054938*
X138163Y055038*
X138371Y055199*
X138532Y055408*
X138633Y055651*
X138667Y055912*
X138633Y056173*
X138532Y056416*
X138371Y056625*
X138163Y056785*
X137919Y056886*
X137658Y056921*
G37*
G36*
X095808Y055772D02*
X095776Y055768D01*
X095560Y055678*
X095374Y055536*
X095232Y055350*
X095142Y055134*
X095138Y055102*
X095808*
Y055772*
G37*
G36*
X051387Y055552D02*
X050808D01*
Y055098*
X051387*
Y055552*
G37*
G36*
X050408D02*
X049829D01*
Y055098*
X050408*
Y055552*
G37*
G36*
X067208Y055572D02*
Y054902D01*
X067879*
X067874Y054934*
X067785Y055150*
X067642Y055336*
X067457Y055478*
X067240Y055568*
X067208Y055572*
G37*
G36*
X096879Y054702D02*
X096208D01*
Y054032*
X096240Y054036*
X096457Y054125*
X096642Y054268*
X096785Y054454*
X096874Y054670*
X096879Y054702*
G37*
G36*
X095808D02*
X095138D01*
X095142Y054670*
X095232Y054454*
X095374Y054268*
X095560Y054125*
X095776Y054036*
X095808Y054032*
Y054702*
G37*
G36*
X067879Y054502D02*
X067208D01*
Y053832*
X067240Y053836*
X067457Y053925*
X067642Y054068*
X067785Y054254*
X067874Y054470*
X067879Y054502*
G37*
G36*
X066808Y055572D02*
X066776Y055568D01*
X066560Y055478*
X066374Y055336*
X066232Y055150*
X066142Y054934*
X066138Y054902*
X066808*
Y055572*
G37*
G36*
X012008D02*
Y054902D01*
X012679*
X012674Y054934*
X012585Y055150*
X012442Y055336*
X012257Y055478*
X012040Y055568*
X012008Y055572*
G37*
G36*
X011608D02*
X011576Y055568D01*
X011360Y055478*
X011174Y055336*
X011032Y055150*
X010942Y054934*
X010938Y054902*
X011608*
Y055572*
G37*
G36*
X037008Y048468D02*
X035304D01*
Y047152*
X037008*
Y048468*
G37*
G36*
X136105Y045552D02*
X135318D01*
Y044766*
X135380Y044774*
X135625Y044875*
X135834Y045036*
X135995Y045246*
X136096Y045490*
X136105Y045552*
G37*
G36*
X134918D02*
X134132D01*
X134140Y045490*
X134241Y045246*
X134402Y045036*
X134612Y044875*
X134856Y044774*
X134918Y044766*
Y045552*
G37*
G36*
X137658Y046761D02*
X137397Y046726D01*
X137154Y046625*
X136945Y046465*
X136785Y046256*
X136684Y046013*
X136650Y045752*
X136684Y045491*
X136785Y045248*
X136945Y045039*
X137154Y044878*
X137397Y044778*
X137658Y044743*
X137919Y044778*
X138163Y044878*
X138371Y045039*
X138532Y045248*
X138633Y045491*
X138667Y045752*
X138633Y046013*
X138532Y046256*
X138371Y046465*
X138163Y046625*
X137919Y046726*
X137658Y046761*
G37*
G36*
X037008Y046752D02*
X035304D01*
Y045436*
X037008*
Y046752*
G37*
G36*
X069179Y046102D02*
X068508D01*
Y045432*
X068540Y045436*
X068757Y045525*
X068942Y045668*
X069085Y045854*
X069174Y046070*
X069179Y046102*
G37*
G36*
X068108D02*
X067438D01*
X067442Y046070*
X067532Y045854*
X067674Y045668*
X067860Y045525*
X068076Y045436*
X068108Y045432*
Y046102*
G37*
G36*
X106008Y044802D02*
X105454D01*
Y044198*
X106008*
Y044802*
G37*
G36*
X144608Y043872D02*
X144576Y043868D01*
X144360Y043778*
X144174Y043636*
X144032Y043450*
X143942Y043234*
X143938Y043202*
X144608*
Y043872*
G37*
G36*
X028362Y045602D02*
X026808D01*
Y043048*
X028362*
Y045602*
G37*
G36*
X026408D02*
X024854D01*
Y043048*
X026408*
Y045602*
G37*
G36*
X095108Y044472D02*
Y043802D01*
X095779*
X095774Y043834*
X095685Y044050*
X095542Y044236*
X095357Y044378*
X095140Y044468*
X095108Y044472*
G37*
G36*
X094708D02*
X094676Y044468D01*
X094460Y044378*
X094274Y044236*
X094132Y044050*
X094042Y043834*
X094038Y043802*
X094708*
Y044472*
G37*
G36*
X145008Y043872D02*
Y043202D01*
X145679*
X145674Y043234*
X145585Y043450*
X145442Y043636*
X145257Y043778*
X145040Y043868*
X145008Y043872*
G37*
G36*
X039112Y046752D02*
X037408D01*
Y045436*
X039112*
Y046752*
G37*
G36*
X068508Y047172D02*
Y046502D01*
X069179*
X069174Y046534*
X069085Y046750*
X068942Y046936*
X068757Y047078*
X068540Y047168*
X068508Y047172*
G37*
G36*
X068108D02*
X068076Y047168D01*
X067860Y047078*
X067674Y046936*
X067532Y046750*
X067442Y046534*
X067438Y046502*
X068108*
Y047172*
G37*
G36*
X121879Y047002D02*
X121208D01*
Y046332*
X121240Y046336*
X121457Y046425*
X121642Y046568*
X121785Y046754*
X121874Y046970*
X121879Y047002*
G37*
G36*
X086808Y047672D02*
Y047002D01*
X087479*
X087474Y047034*
X087385Y047250*
X087242Y047436*
X087057Y047578*
X086840Y047668*
X086808Y047672*
G37*
G36*
X086408D02*
X086376Y047668D01*
X086160Y047578*
X085974Y047436*
X085832Y047250*
X085742Y047034*
X085738Y047002*
X086408*
Y047672*
G37*
G36*
X112608Y047202D02*
X111938D01*
X111942Y047170*
X112032Y046954*
X112174Y046768*
X112360Y046625*
X112576Y046536*
X112608Y046532*
Y047202*
G37*
G36*
X120808Y047002D02*
X120138D01*
X120142Y046970*
X120232Y046754*
X120374Y046568*
X120560Y046425*
X120776Y046336*
X120808Y046332*
Y047002*
G37*
G36*
X134918Y046738D02*
X134856Y046730D01*
X134612Y046629*
X134402Y046468*
X134241Y046258*
X134140Y046014*
X134132Y045952*
X134918*
Y046738*
G37*
G36*
X087479Y046602D02*
X086808D01*
Y045932*
X086840Y045936*
X087057Y046025*
X087242Y046168*
X087385Y046354*
X087474Y046570*
X087479Y046602*
G37*
G36*
X086408D02*
X085738D01*
X085742Y046570*
X085832Y046354*
X085974Y046168*
X086160Y046025*
X086376Y045936*
X086408Y045932*
Y046602*
G37*
G36*
X028362Y048556D02*
X026808D01*
Y046002*
X028362*
Y048556*
G37*
G36*
X026408D02*
X024854D01*
Y046002*
X026408*
Y048556*
G37*
G36*
X135318Y046738D02*
Y045952D01*
X136105*
X136096Y046014*
X135995Y046258*
X135834Y046468*
X135625Y046629*
X135380Y046730*
X135318Y046738*
G37*
G36*
X096208Y055772D02*
Y055102D01*
X096879*
X096874Y055134*
X096785Y055350*
X096642Y055536*
X096457Y055678*
X096240Y055768*
X096208Y055772*
G37*
G36*
X028808Y064302D02*
X027504D01*
Y063723*
X028808*
Y064302*
G37*
G36*
X136105Y063332D02*
X135318D01*
Y062546*
X135380Y062554*
X135625Y062655*
X135834Y062816*
X135995Y063026*
X136096Y063270*
X136105Y063332*
G37*
G36*
X134918D02*
X134132D01*
X134140Y063270*
X134241Y063026*
X134402Y062816*
X134612Y062655*
X134856Y062554*
X134918Y062546*
Y063332*
G37*
G36*
X135318Y064518D02*
Y063732D01*
X136105*
X136096Y063794*
X135995Y064038*
X135834Y064248*
X135625Y064409*
X135380Y064510*
X135318Y064518*
G37*
G36*
X134918D02*
X134856Y064510D01*
X134612Y064409*
X134402Y064248*
X134241Y064038*
X134140Y063794*
X134132Y063732*
X134918*
Y064518*
G37*
G36*
X030512Y064302D02*
X029208D01*
Y063723*
X030512*
Y064302*
G37*
G36*
X137658Y064541D02*
X137397Y064506D01*
X137154Y064405*
X136945Y064245*
X136785Y064036*
X136684Y063793*
X136650Y063532*
X136684Y063271*
X136785Y063028*
X136945Y062819*
X137154Y062658*
X137397Y062558*
X137658Y062523*
X137919Y062558*
X138163Y062658*
X138371Y062819*
X138532Y063028*
X138633Y063271*
X138667Y063532*
X138633Y063793*
X138532Y064036*
X138371Y064245*
X138163Y064405*
X137919Y064506*
X137658Y064541*
G37*
G36*
X093108Y061702D02*
X092438D01*
X092442Y061670*
X092532Y061454*
X092674Y061268*
X092860Y061125*
X093076Y061036*
X093108Y061032*
Y061702*
G37*
G36*
X114208Y061572D02*
Y060902D01*
X114879*
X114874Y060934*
X114785Y061150*
X114642Y061336*
X114457Y061478*
X114240Y061568*
X114208Y061572*
G37*
G36*
X113808D02*
X113776Y061568D01*
X113560Y061478*
X113374Y061336*
X113232Y061150*
X113142Y060934*
X113138Y060902*
X113808*
Y061572*
G37*
G36*
X093508Y062772D02*
Y062102D01*
X094179*
X094174Y062134*
X094085Y062350*
X093942Y062536*
X093757Y062678*
X093540Y062768*
X093508Y062772*
G37*
G36*
X093108D02*
X093076Y062768D01*
X092860Y062678*
X092674Y062536*
X092532Y062350*
X092442Y062134*
X092438Y062102*
X093108*
Y062772*
G37*
G36*
X094179Y061702D02*
X093508D01*
Y061032*
X093540Y061036*
X093757Y061125*
X093942Y061268*
X094085Y061454*
X094174Y061670*
X094179Y061702*
G37*
G36*
X092408Y065502D02*
X091579D01*
Y064698*
X092408*
Y065502*
G37*
G36*
X089612Y065902D02*
X089008D01*
Y065348*
X089612*
Y065902*
G37*
G36*
X088608D02*
X088004D01*
Y065348*
X088608*
Y065902*
G37*
G36*
X137658Y067081D02*
X137397Y067046D01*
X137154Y066945*
X136945Y066785*
X136785Y066576*
X136684Y066333*
X136650Y066072*
X136684Y065811*
X136785Y065568*
X136945Y065359*
X137154Y065198*
X137397Y065098*
X137658Y065063*
X137919Y065098*
X138163Y065198*
X138371Y065359*
X138532Y065568*
X138633Y065811*
X138667Y066072*
X138633Y066333*
X138532Y066576*
X138371Y066785*
X138163Y066945*
X137919Y067046*
X137658Y067081*
G37*
G36*
X028808Y067702D02*
X027504D01*
Y067123*
X028808*
Y067702*
G37*
G36*
X119379Y067202D02*
X118708D01*
Y066532*
X118740Y066536*
X118957Y066625*
X119142Y066768*
X119285Y066954*
X119374Y067170*
X119379Y067202*
G37*
G36*
X118308D02*
X117638D01*
X117642Y067170*
X117732Y066954*
X117874Y066768*
X118060Y066625*
X118276Y066536*
X118308Y066532*
Y067202*
G37*
G36*
X135118Y067081D02*
X134857Y067046D01*
X134614Y066945*
X134405Y066785*
X134245Y066576*
X134144Y066333*
X134110Y066072*
X134144Y065811*
X134245Y065568*
X134405Y065359*
X134614Y065198*
X134857Y065098*
X135118Y065063*
X135379Y065098*
X135623Y065198*
X135831Y065359*
X135992Y065568*
X136093Y065811*
X136127Y066072*
X136093Y066333*
X135992Y066576*
X135831Y066785*
X135623Y066945*
X135379Y067046*
X135118Y067081*
G37*
G36*
X023712Y070206D02*
X019108D01*
Y064702*
X023712*
Y070206*
G37*
G36*
X018708D02*
X014104D01*
Y064702*
X018708*
Y070206*
G37*
G36*
X093637Y065502D02*
X092808D01*
Y064698*
X093637*
Y065502*
G37*
G36*
X068458Y066113D02*
X068008D01*
X067794Y066070*
X067612Y065948*
X067490Y065767*
X067448Y065552*
X067490Y065337*
X067612Y065155*
X067794Y065034*
X068008Y064991*
X068458*
X068673Y065034*
X068855Y065155*
X068976Y065337*
X069019Y065552*
X068976Y065767*
X068855Y065948*
X068673Y066070*
X068458Y066113*
G37*
G36*
X030512Y065281D02*
X029208D01*
Y064702*
X030512*
Y065281*
G37*
G36*
X028808D02*
X027504D01*
Y064702*
X028808*
Y065281*
G37*
G36*
X137658Y062001D02*
X137397Y061966D01*
X137154Y061865*
X136945Y061705*
X136785Y061496*
X136684Y061253*
X136650Y060992*
X136684Y060731*
X136785Y060488*
X136945Y060279*
X137154Y060118*
X137397Y060018*
X137658Y059983*
X137919Y060018*
X138163Y060118*
X138371Y060279*
X138532Y060488*
X138633Y060731*
X138667Y060992*
X138633Y061253*
X138532Y061496*
X138371Y061705*
X138163Y061865*
X137919Y061966*
X137658Y062001*
G37*
G36*
X033008Y057702D02*
X032338D01*
X032342Y057670*
X032432Y057454*
X032574Y057268*
X032760Y057125*
X032976Y057036*
X033008Y057032*
Y057702*
G37*
G36*
X051383Y060502D02*
X049833D01*
Y059202*
X049971*
Y057902*
X049833*
Y056602*
X051383*
Y057902*
X051246*
Y059202*
X051383*
Y060502*
G37*
G36*
X126487Y057202D02*
X125933D01*
Y056598*
X126487*
Y057202*
G37*
G36*
X111008Y057972D02*
Y057302D01*
X111679*
X111674Y057334*
X111585Y057550*
X111442Y057736*
X111257Y057878*
X111040Y057968*
X111008Y057972*
G37*
G36*
X110608D02*
X110576Y057968D01*
X110360Y057878*
X110174Y057736*
X110032Y057550*
X109942Y057334*
X109938Y057302*
X110608*
Y057972*
G37*
G36*
X034079Y057702D02*
X033408D01*
Y057032*
X033440Y057036*
X033657Y057125*
X033842Y057268*
X033985Y057454*
X034074Y057670*
X034079Y057702*
G37*
G36*
X111679Y056902D02*
X111008D01*
Y056232*
X111040Y056236*
X111257Y056325*
X111442Y056468*
X111585Y056654*
X111674Y056870*
X111679Y056902*
G37*
G36*
X051387Y056406D02*
X050808D01*
Y055952*
X051387*
Y056406*
G37*
G36*
X050408D02*
X049829D01*
Y055952*
X050408*
Y056406*
G37*
G36*
X086908Y057395D02*
X086677Y057364D01*
X086462Y057275*
X086277Y057133*
X086135Y056948*
X086046Y056733*
X086016Y056502*
X086044Y056286*
X051018Y021261*
X049208*
X049033Y021226*
X048884Y021126*
X046184Y018426*
X046084Y018277*
X046049Y018102*
Y013902*
X046084Y013726*
X046184Y013577*
X047784Y011977*
X047933Y011878*
X048108Y011843*
X049628*
X049804Y011878*
X049953Y011977*
X051522Y013546*
X051567Y013528*
X051828Y013493*
X052089Y013528*
X052333Y013628*
X052541Y013789*
X052702Y013998*
X052803Y014241*
X052837Y014502*
X052803Y014763*
X052702Y015006*
X052541Y015215*
X052333Y015375*
X052089Y015476*
X051828Y015511*
X051567Y015476*
X051324Y015375*
X051115Y015215*
X050955Y015006*
X050854Y014763*
X050820Y014502*
X050854Y014241*
X050873Y014195*
X050406Y013728*
X050288Y013777*
Y015502*
X048288*
Y013502*
X050013*
X050062Y013385*
X049438Y012761*
X048298*
X046967Y014092*
Y017912*
X049398Y020343*
X051208*
X051384Y020378*
X051533Y020477*
X086693Y055638*
X086908Y055609*
X087139Y055640*
X087355Y055729*
X087539Y055871*
X087681Y056056*
X087771Y056271*
X087801Y056502*
X087771Y056733*
X087681Y056948*
X087539Y057133*
X087355Y057275*
X087139Y057364*
X086908Y057395*
G37*
G36*
X110608Y056902D02*
X109938D01*
X109942Y056870*
X110032Y056654*
X110174Y056468*
X110360Y056325*
X110576Y056236*
X110608Y056232*
Y056902*
G37*
G36*
X135318Y056898D02*
Y056112D01*
X136105*
X136096Y056174*
X135995Y056418*
X135834Y056628*
X135625Y056789*
X135380Y056890*
X135318Y056898*
G37*
G36*
X134918D02*
X134856Y056890D01*
X134612Y056789*
X134402Y056628*
X134241Y056418*
X134140Y056174*
X134132Y056112*
X134918*
Y056898*
G37*
G36*
X135118Y059461D02*
X134857Y059426D01*
X134614Y059325*
X134405Y059165*
X134245Y058956*
X134144Y058713*
X134110Y058452*
X134144Y058191*
X134245Y057948*
X134405Y057739*
X134614Y057578*
X134857Y057478*
X135118Y057443*
X135379Y057478*
X135623Y057578*
X135831Y057739*
X135992Y057948*
X136093Y058191*
X136127Y058452*
X136093Y058713*
X135992Y058956*
X135831Y059165*
X135623Y059325*
X135379Y059426*
X135118Y059461*
G37*
G36*
X023712Y064302D02*
X019108D01*
Y058798*
X023712*
Y064302*
G37*
G36*
X018708D02*
X014104D01*
Y058798*
X018708*
Y064302*
G37*
G36*
X061237Y059102D02*
X060408D01*
Y058298*
X061237*
Y059102*
G37*
G36*
X135118Y062001D02*
X134857Y061966D01*
X134614Y061865*
X134405Y061705*
X134245Y061496*
X134144Y061253*
X134110Y060992*
X134144Y060731*
X134245Y060488*
X134405Y060279*
X134614Y060118*
X134857Y060018*
X135118Y059983*
X135379Y060018*
X135623Y060118*
X135831Y060279*
X135992Y060488*
X136093Y060731*
X136127Y060992*
X136093Y061253*
X135992Y061496*
X135831Y061705*
X135623Y061865*
X135379Y061966*
X135118Y062001*
G37*
G36*
X114879Y060502D02*
X114208D01*
Y059832*
X114240Y059836*
X114457Y059925*
X114642Y060068*
X114785Y060254*
X114874Y060470*
X114879Y060502*
G37*
G36*
X113808D02*
X113138D01*
X113142Y060470*
X113232Y060254*
X113374Y060068*
X113560Y059925*
X113776Y059836*
X113808Y059832*
Y060502*
G37*
G36*
X060008Y059102D02*
X059179D01*
Y058298*
X060008*
Y059102*
G37*
G36*
X033008Y058772D02*
X032976Y058768D01*
X032760Y058678*
X032574Y058536*
X032432Y058350*
X032342Y058134*
X032338Y058102*
X033008*
Y058772*
G37*
G36*
X126487Y058206D02*
X125933D01*
Y057602*
X126487*
Y058206*
G37*
G36*
X137658Y059461D02*
X137397Y059426D01*
X137154Y059325*
X136945Y059165*
X136785Y058956*
X136684Y058713*
X136650Y058452*
X136684Y058191*
X136785Y057948*
X136945Y057739*
X137154Y057578*
X137397Y057478*
X137658Y057443*
X137919Y057478*
X138163Y057578*
X138371Y057739*
X138532Y057948*
X138633Y058191*
X138667Y058452*
X138633Y058713*
X138532Y058956*
X138371Y059165*
X138163Y059325*
X137919Y059426*
X137658Y059461*
G37*
G36*
X145912Y058702D02*
X145308D01*
Y058148*
X145912*
Y058702*
G37*
G36*
X144908D02*
X144304D01*
Y058148*
X144908*
Y058702*
G37*
G36*
X033408Y058772D02*
Y058102D01*
X034079*
X034074Y058134*
X033985Y058350*
X033842Y058536*
X033657Y058678*
X033440Y058768*
X033408Y058772*
G37*
G36*
X049088Y018028D02*
X049026Y018020D01*
X048782Y017919*
X048572Y017758*
X048411Y017548*
X048310Y017304*
X048302Y017242*
X049088*
Y018028*
G37*
G36*
X096995Y017042D02*
X096208D01*
Y016256*
X096270Y016264*
X096515Y016365*
X096724Y016526*
X096885Y016736*
X096986Y016980*
X096995Y017042*
G37*
G36*
X095808D02*
X095022D01*
X095030Y016980*
X095131Y016736*
X095292Y016526*
X095502Y016365*
X095746Y016264*
X095808Y016256*
Y017042*
G37*
G36*
X096208Y018228D02*
Y017442D01*
X096995*
X096986Y017504*
X096885Y017748*
X096724Y017958*
X096515Y018119*
X096270Y018220*
X096208Y018228*
G37*
G36*
X095808D02*
X095746Y018220D01*
X095502Y018119*
X095292Y017958*
X095131Y017748*
X095030Y017504*
X095022Y017442*
X095808*
Y018228*
G37*
G36*
X049488Y018028D02*
Y017242D01*
X050275*
X050266Y017304*
X050165Y017548*
X050004Y017758*
X049795Y017919*
X049550Y018020*
X049488Y018028*
G37*
G36*
X049088Y016842D02*
X048302D01*
X048310Y016780*
X048411Y016536*
X048572Y016326*
X048782Y016165*
X049026Y016064*
X049088Y016056*
Y016842*
G37*
G36*
X089708Y059095D02*
X089477Y059064D01*
X089262Y058975*
X089077Y058833*
X088935Y058648*
X088846Y058433*
X088816Y058202*
X088846Y057971*
X088935Y057756*
X089077Y057571*
X089249Y057438*
Y056792*
X051114Y018656*
X051014Y018507*
X050979Y018332*
Y017578*
X050955Y017546*
X050854Y017303*
X050820Y017042*
X050854Y016781*
X050955Y016538*
X051115Y016329*
X051324Y016168*
X051567Y016068*
X051828Y016033*
X052089Y016068*
X052333Y016168*
X052541Y016329*
X052702Y016538*
X052803Y016781*
X052837Y017042*
X052803Y017303*
X052702Y017546*
X052541Y017755*
X052333Y017915*
X052089Y018016*
X051946Y018035*
X051922Y018166*
X090033Y056277*
X090132Y056426*
X090167Y056602*
Y057438*
X090339Y057571*
X090481Y057756*
X090571Y057971*
X090601Y058202*
X090571Y058433*
X090481Y058648*
X090339Y058833*
X090155Y058975*
X089939Y059064*
X089708Y059095*
G37*
G36*
X071108Y016048D02*
Y015262D01*
X071895*
X071886Y015324*
X071785Y015568*
X071624Y015778*
X071415Y015939*
X071170Y016040*
X071108Y016048*
G37*
G36*
X070708D02*
X070646Y016040D01*
X070402Y015939*
X070192Y015778*
X070031Y015568*
X069930Y015324*
X069922Y015262*
X070708*
Y016048*
G37*
G36*
X050275Y016842D02*
X049488D01*
Y016056*
X049550Y016064*
X049795Y016165*
X050004Y016326*
X050165Y016536*
X050266Y016780*
X050275Y016842*
G37*
G36*
X059448Y018051D02*
X059187Y018016D01*
X058944Y017915*
X058735Y017755*
X058575Y017546*
X058474Y017303*
X058440Y017042*
X058474Y016781*
X058575Y016538*
X058735Y016329*
X058944Y016168*
X059187Y016068*
X059448Y016033*
X059709Y016068*
X059953Y016168*
X060161Y016329*
X060322Y016538*
X060423Y016781*
X060457Y017042*
X060423Y017303*
X060322Y017546*
X060161Y017755*
X059953Y017915*
X059709Y018016*
X059448Y018051*
G37*
G36*
X056908D02*
X056647Y018016D01*
X056404Y017915*
X056195Y017755*
X056035Y017546*
X055934Y017303*
X055900Y017042*
X055934Y016781*
X056035Y016538*
X056195Y016329*
X056404Y016168*
X056647Y016068*
X056908Y016033*
X057169Y016068*
X057413Y016168*
X057621Y016329*
X057782Y016538*
X057883Y016781*
X057917Y017042*
X057883Y017303*
X057782Y017546*
X057621Y017755*
X057413Y017915*
X057169Y018016*
X056908Y018051*
G37*
G36*
X135108Y018952D02*
X134529D01*
Y018498*
X135108*
Y018952*
G37*
G36*
X158408Y022102D02*
X157738D01*
X157742Y022070*
X157832Y021854*
X157974Y021668*
X158160Y021525*
X158376Y021436*
X158408Y021432*
Y022102*
G37*
G36*
X136087Y019806D02*
X135508D01*
Y019352*
X136087*
Y019806*
G37*
G36*
X135108D02*
X134529D01*
Y019352*
X135108*
Y019806*
G37*
G36*
X158808Y023172D02*
Y022502D01*
X159479*
X159474Y022534*
X159385Y022750*
X159242Y022936*
X159057Y023078*
X158840Y023168*
X158808Y023172*
G37*
G36*
X158408D02*
X158376Y023168D01*
X158160Y023078*
X157974Y022936*
X157832Y022750*
X157742Y022534*
X157738Y022502*
X158408*
Y023172*
G37*
G36*
X159479Y022102D02*
X158808D01*
Y021432*
X158840Y021436*
X159057Y021525*
X159242Y021668*
X159385Y021854*
X159474Y022070*
X159479Y022102*
G37*
G36*
X144108Y021750D02*
Y018702D01*
X147157*
X147132Y019012*
X147013Y019511*
X146817Y019984*
X146549Y020420*
X146216Y020810*
X145827Y021143*
X145390Y021410*
X144917Y021606*
X144419Y021726*
X144108Y021750*
G37*
G36*
X014108D02*
Y018702D01*
X017157*
X017132Y019012*
X017013Y019511*
X016817Y019984*
X016549Y020420*
X016216Y020810*
X015827Y021143*
X015390Y021410*
X014917Y021606*
X014419Y021726*
X014108Y021750*
G37*
G36*
X013708D02*
X013398Y021726D01*
X012900Y021606*
X012426Y021410*
X011990Y021143*
X011600Y020810*
X011268Y020420*
X011000Y019984*
X010804Y019511*
X010684Y019012*
X010660Y018702*
X013708*
Y021750*
G37*
G36*
X136087Y018952D02*
X135508D01*
Y018498*
X136087*
Y018952*
G37*
G36*
X143708Y021750D02*
X143398Y021726D01*
X142900Y021606*
X142426Y021410*
X141990Y021143*
X141600Y020810*
X141268Y020420*
X141000Y019984*
X140804Y019511*
X140684Y019012*
X140660Y018702*
X143708*
Y021750*
G37*
G36*
X079108D02*
Y018702D01*
X082157*
X082132Y019012*
X082013Y019511*
X081817Y019984*
X081549Y020420*
X081216Y020810*
X080827Y021143*
X080390Y021410*
X079917Y021606*
X079419Y021726*
X079108Y021750*
G37*
G36*
X078708D02*
X078398Y021726D01*
X077900Y021606*
X077426Y021410*
X076990Y021143*
X076600Y020810*
X076268Y020420*
X076000Y019984*
X075804Y019511*
X075684Y019012*
X075660Y018702*
X078708*
Y021750*
G37*
G36*
X082157Y018302D02*
X079108D01*
Y015254*
X079419Y015278*
X079917Y015398*
X080390Y015594*
X080827Y015861*
X081216Y016194*
X081549Y016583*
X081817Y017020*
X082013Y017493*
X082132Y017991*
X082157Y018302*
G37*
G36*
X120683Y018152D02*
X119133D01*
Y016852*
X119449*
Y013652*
X119133*
Y012352*
X120683*
Y013652*
X120367*
Y016852*
X120683*
Y018152*
G37*
G36*
X114412Y012802D02*
X112858D01*
Y011986*
X114412*
Y012802*
G37*
G36*
X112458D02*
X110904D01*
Y011986*
X112458*
Y012802*
G37*
G36*
Y014018D02*
X110904D01*
Y013202*
X112458*
Y014018*
G37*
G36*
X106412D02*
X104858D01*
Y013202*
X106412*
Y014018*
G37*
G36*
X104458D02*
X102904D01*
Y013202*
X104458*
Y014018*
G37*
G36*
X106412Y012802D02*
X104858D01*
Y011986*
X106412*
Y012802*
G37*
G36*
X071908Y013522D02*
X069908D01*
Y011522*
X071908*
Y013522*
G37*
G36*
X120687Y011302D02*
X120108D01*
Y010848*
X120687*
Y011302*
G37*
G36*
X119708D02*
X119129D01*
Y010848*
X119708*
Y011302*
G37*
G36*
X104458Y012802D02*
X102904D01*
Y011986*
X104458*
Y012802*
G37*
G36*
X120687Y012156D02*
X120108D01*
Y011702*
X120687*
Y012156*
G37*
G36*
X119708D02*
X119129D01*
Y011702*
X119708*
Y012156*
G37*
G36*
X114412Y014018D02*
X112858D01*
Y013202*
X114412*
Y014018*
G37*
G36*
X147157Y018302D02*
X144108D01*
Y015254*
X144419Y015278*
X144917Y015398*
X145390Y015594*
X145827Y015861*
X146216Y016194*
X146549Y016583*
X146817Y017020*
X147013Y017493*
X147132Y017991*
X147157Y018302*
G37*
G36*
X143708D02*
X140660D01*
X140684Y017991*
X140804Y017493*
X141000Y017020*
X141268Y016583*
X141600Y016194*
X141990Y015861*
X142426Y015594*
X142900Y015398*
X143398Y015278*
X143708Y015254*
Y018302*
G37*
G36*
X057108Y015488D02*
Y014702D01*
X057895*
X057886Y014764*
X057785Y015008*
X057624Y015218*
X057415Y015379*
X057170Y015480*
X057108Y015488*
G37*
G36*
X078708Y018302D02*
X075660D01*
X075684Y017991*
X075804Y017493*
X076000Y017020*
X076268Y016583*
X076600Y016194*
X076990Y015861*
X077426Y015594*
X077900Y015398*
X078398Y015278*
X078708Y015254*
Y018302*
G37*
G36*
X017157D02*
X014108D01*
Y015254*
X014419Y015278*
X014917Y015398*
X015390Y015594*
X015827Y015861*
X016216Y016194*
X016549Y016583*
X016817Y017020*
X017013Y017493*
X017132Y017991*
X017157Y018302*
G37*
G36*
X013708D02*
X010660D01*
X010684Y017991*
X010804Y017493*
X011000Y017020*
X011268Y016583*
X011600Y016194*
X011990Y015861*
X012426Y015594*
X012900Y015398*
X013398Y015278*
X013708Y015254*
Y018302*
G37*
G36*
X056708Y015488D02*
X056646Y015480D01*
X056402Y015379*
X056192Y015218*
X056031Y015008*
X055930Y014764*
X055922Y014702*
X056708*
Y015488*
G37*
G36*
Y014302D02*
X055922D01*
X055930Y014240*
X056031Y013996*
X056192Y013786*
X056402Y013625*
X056646Y013524*
X056708Y013516*
Y014302*
G37*
G36*
X057895D02*
X057108D01*
Y013516*
X057170Y013524*
X057415Y013625*
X057624Y013786*
X057785Y013996*
X057886Y014240*
X057895Y014302*
G37*
G36*
X059448Y015511D02*
X059187Y015476D01*
X058944Y015375*
X058735Y015215*
X058575Y015006*
X058474Y014763*
X058440Y014502*
X058474Y014241*
X058575Y013998*
X058735Y013789*
X058944Y013628*
X059187Y013528*
X059448Y013493*
X059709Y013528*
X059953Y013628*
X060161Y013789*
X060322Y013998*
X060423Y014241*
X060457Y014502*
X060423Y014763*
X060322Y015006*
X060161Y015215*
X059953Y015375*
X059709Y015476*
X059448Y015511*
G37*
G36*
X070708Y014862D02*
X069922D01*
X069930Y014800*
X070031Y014556*
X070192Y014346*
X070402Y014185*
X070646Y014084*
X070708Y014076*
Y014862*
G37*
G36*
X071895D02*
X071108D01*
Y014076*
X071170Y014084*
X071415Y014185*
X071624Y014346*
X071785Y014556*
X071886Y014800*
X071895Y014862*
G37*
G36*
X093468Y015711D02*
X093207Y015676D01*
X092964Y015575*
X092755Y015415*
X092595Y015206*
X092494Y014963*
X092460Y014702*
X092494Y014441*
X092595Y014198*
X092755Y013989*
X092964Y013828*
X093207Y013728*
X093468Y013693*
X093729Y013728*
X093973Y013828*
X094182Y013989*
X094342Y014198*
X094443Y014441*
X094477Y014702*
X094443Y014963*
X094342Y015206*
X094182Y015415*
X093973Y015575*
X093729Y015676*
X093468Y015711*
G37*
G36*
X034508Y024702D02*
X033838D01*
X033842Y024670*
X033932Y024454*
X034074Y024268*
X034260Y024125*
X034476Y024036*
X034508Y024032*
Y024702*
G37*
G36*
X114108Y036672D02*
X114076Y036668D01*
X113860Y036578*
X113674Y036436*
X113532Y036250*
X113442Y036034*
X113438Y036002*
X114108*
Y036672*
G37*
G36*
X136608Y039000D02*
Y035952D01*
X139657*
X139632Y036262*
X139513Y036761*
X139317Y037234*
X139049Y037670*
X138716Y038060*
X138327Y038393*
X137890Y038660*
X137417Y038856*
X136919Y038976*
X136608Y039000*
G37*
G36*
X136208D02*
X135898Y038976D01*
X135400Y038856*
X134926Y038660*
X134490Y038393*
X134100Y038060*
X133768Y037670*
X133500Y037234*
X133304Y036761*
X133184Y036262*
X133160Y035952*
X136208*
Y039000*
G37*
G36*
X057508Y039902D02*
X056838D01*
X056842Y039870*
X056932Y039654*
X057074Y039468*
X057260Y039325*
X057476Y039236*
X057508Y039232*
Y039902*
G37*
G36*
X107408Y039702D02*
X106854D01*
Y039098*
X107408*
Y039702*
G37*
G36*
X114508Y036672D02*
Y036002D01*
X115179*
X115174Y036034*
X115085Y036250*
X114942Y036436*
X114757Y036578*
X114540Y036668*
X114508Y036672*
G37*
G36*
X087608Y039000D02*
Y035952D01*
X090657*
X090632Y036262*
X090513Y036761*
X090317Y037234*
X090049Y037670*
X089716Y038060*
X089327Y038393*
X088890Y038660*
X088417Y038856*
X087919Y038976*
X087608Y039000*
G37*
G36*
X122608Y036172D02*
X122576Y036168D01*
X122360Y036078*
X122174Y035936*
X122032Y035750*
X121942Y035534*
X121938Y035502*
X122608*
Y036172*
G37*
G36*
X115179Y035602D02*
X114508D01*
Y034932*
X114540Y034936*
X114757Y035025*
X114942Y035168*
X115085Y035354*
X115174Y035570*
X115179Y035602*
G37*
G36*
X114108D02*
X113438D01*
X113442Y035570*
X113532Y035354*
X113674Y035168*
X113860Y035025*
X114076Y034936*
X114108Y034932*
Y035602*
G37*
G36*
X087208Y039000D02*
X086898Y038976D01*
X086400Y038856*
X085926Y038660*
X085490Y038393*
X085100Y038060*
X084768Y037670*
X084500Y037234*
X084304Y036761*
X084184Y036262*
X084160Y035952*
X087208*
Y039000*
G37*
G36*
X038108Y036381D02*
Y035802D01*
X038562*
Y036381*
X038108*
G37*
G36*
X123008Y036172D02*
Y035502D01*
X123679*
X123674Y035534*
X123585Y035750*
X123442Y035936*
X123257Y036078*
X123040Y036168*
X123008Y036172*
G37*
G36*
X058579Y039902D02*
X057908D01*
Y039232*
X057940Y039236*
X058157Y039325*
X058342Y039468*
X058485Y039654*
X058574Y039870*
X058579Y039902*
G37*
G36*
X137658Y044221D02*
X137397Y044186D01*
X137154Y044085*
X136945Y043925*
X136785Y043716*
X136684Y043473*
X136650Y043212*
X136684Y042951*
X136785Y042708*
X136945Y042499*
X137154Y042338*
X137397Y042238*
X137658Y042203*
X137919Y042238*
X138163Y042338*
X138371Y042499*
X138532Y042708*
X138633Y042951*
X138667Y043212*
X138633Y043473*
X138532Y043716*
X138371Y043925*
X138163Y044085*
X137919Y044186*
X137658Y044221*
G37*
G36*
X145679Y042802D02*
X145008D01*
Y042132*
X145040Y042136*
X145257Y042225*
X145442Y042368*
X145585Y042554*
X145674Y042770*
X145679Y042802*
G37*
G36*
X144608D02*
X143938D01*
X143942Y042770*
X144032Y042554*
X144174Y042368*
X144360Y042225*
X144576Y042136*
X144608Y042132*
Y042802*
G37*
G36*
X095779Y043402D02*
X095108D01*
Y042732*
X095140Y042736*
X095357Y042825*
X095542Y042968*
X095685Y043154*
X095774Y043370*
X095779Y043402*
G37*
G36*
X094708D02*
X094038D01*
X094042Y043370*
X094132Y043154*
X094274Y042968*
X094460Y042825*
X094676Y042736*
X094708Y042732*
Y043402*
G37*
G36*
X040908Y044295D02*
X040677Y044264D01*
X040462Y044175*
X040277Y044033*
X040135Y043848*
X040046Y043633*
X040016Y043402*
X040044Y043186*
X037684Y040826*
X037584Y040677*
X037549Y040502*
Y040177*
X037358*
Y038627*
X038658*
Y040177*
X038467*
Y040312*
X040693Y042538*
X040908Y042509*
X041139Y042540*
X041355Y042629*
X041539Y042771*
X041681Y042956*
X041771Y043171*
X041801Y043402*
X041771Y043633*
X041681Y043848*
X041539Y044033*
X041355Y044175*
X041139Y044264*
X040908Y044295*
G37*
G36*
X057908Y040972D02*
Y040302D01*
X058579*
X058574Y040334*
X058485Y040550*
X058342Y040736*
X058157Y040878*
X057940Y040968*
X057908Y040972*
G37*
G36*
X135118Y044221D02*
X134857Y044186D01*
X134614Y044085*
X134405Y043925*
X134245Y043716*
X134144Y043473*
X134110Y043212*
X134144Y042951*
X134245Y042708*
X134405Y042499*
X134614Y042338*
X134659Y042320*
Y041564*
X134614Y041545*
X134405Y041385*
X134245Y041176*
X134226Y041131*
X132478*
X132303Y041096*
X132154Y040996*
X130484Y039326*
X130384Y039177*
X130349Y039002*
Y033602*
X130384Y033426*
X130484Y033277*
X134584Y029177*
X134733Y029078*
X134908Y029043*
X150658*
Y027752*
X152652*
Y018102*
X151133*
Y012102*
X155483*
Y018102*
X154165*
Y027752*
X156158*
Y031252*
X150658*
Y029961*
X135098*
X131267Y033792*
Y038812*
X132668Y040213*
X134226*
X134245Y040168*
X134405Y039959*
X134614Y039798*
X134857Y039698*
X135118Y039663*
X135379Y039698*
X135623Y039798*
X135831Y039959*
X135992Y040168*
X136093Y040411*
X136127Y040672*
X136093Y040933*
X135992Y041176*
X135831Y041385*
X135623Y041545*
X135577Y041564*
Y042320*
X135623Y042338*
X135831Y042499*
X135992Y042708*
X136093Y042951*
X136127Y043212*
X136093Y043473*
X135992Y043716*
X135831Y043925*
X135623Y044085*
X135379Y044186*
X135118Y044221*
G37*
G36*
X115137Y040302D02*
X114308D01*
Y039498*
X115137*
Y040302*
G37*
G36*
X113908D02*
X113079D01*
Y039498*
X113908*
Y040302*
G37*
G36*
X057508Y040972D02*
X057476Y040968D01*
X057260Y040878*
X057074Y040736*
X056932Y040550*
X056842Y040334*
X056838Y040302*
X057508*
Y040972*
G37*
G36*
X107408Y040706D02*
X106854D01*
Y040102*
X107408*
Y040706*
G37*
G36*
X138658Y041672D02*
X136658D01*
Y039672*
X138658*
Y041672*
G37*
G36*
X038562Y035402D02*
X038108D01*
Y034823*
X038562*
Y035402*
G37*
G36*
X162208Y031256D02*
X159654D01*
Y029702*
X162208*
Y031256*
G37*
G36*
X106708Y028572D02*
Y027902D01*
X107379*
X107374Y027934*
X107285Y028150*
X107142Y028336*
X106957Y028478*
X106740Y028568*
X106708Y028572*
G37*
G36*
X106308D02*
X106276Y028568D01*
X106060Y028478*
X105874Y028336*
X105732Y028150*
X105642Y027934*
X105638Y027902*
X106308*
Y028572*
G37*
G36*
X019951Y031262D02*
X018408D01*
Y029719*
X018552Y029733*
X018883Y029834*
X019187Y029996*
X019455Y030216*
X019674Y030483*
X019837Y030787*
X019937Y031118*
X019951Y031262*
G37*
G36*
X018008D02*
X016466D01*
X016480Y031118*
X016580Y030787*
X016743Y030483*
X016962Y030216*
X017229Y029996*
X017534Y029834*
X017864Y029733*
X018008Y029719*
Y031262*
G37*
G36*
X165162Y031256D02*
X162608D01*
Y029702*
X165162*
Y031256*
G37*
G36*
Y029302D02*
X162608D01*
Y027748*
X165162*
Y029302*
G37*
G36*
X034908Y025772D02*
Y025102D01*
X035579*
X035574Y025134*
X035485Y025350*
X035342Y025536*
X035157Y025678*
X034940Y025768*
X034908Y025772*
G37*
G36*
X034508D02*
X034476Y025768D01*
X034260Y025678*
X034074Y025536*
X033932Y025350*
X033842Y025134*
X033838Y025102*
X034508*
Y025772*
G37*
G36*
X035579Y024702D02*
X034908D01*
Y024032*
X034940Y024036*
X035157Y024125*
X035342Y024268*
X035485Y024454*
X035574Y024670*
X035579Y024702*
G37*
G36*
X162208Y029302D02*
X159654D01*
Y027748*
X162208*
Y029302*
G37*
G36*
X107379Y027502D02*
X106708D01*
Y026832*
X106740Y026836*
X106957Y026925*
X107142Y027068*
X107285Y027254*
X107374Y027470*
X107379Y027502*
G37*
G36*
X106308D02*
X105638D01*
X105642Y027470*
X105732Y027254*
X105874Y027068*
X106060Y026925*
X106276Y026836*
X106308Y026832*
Y027502*
G37*
G36*
X071708Y031502D02*
X071038D01*
X071042Y031470*
X071132Y031254*
X071274Y031068*
X071460Y030925*
X071676Y030836*
X071708Y030832*
Y031502*
G37*
G36*
X122608Y035102D02*
X121938D01*
X121942Y035070*
X122032Y034854*
X122174Y034668*
X122360Y034525*
X122576Y034436*
X122608Y034432*
Y035102*
G37*
G36*
X139657Y035552D02*
X136608D01*
Y032504*
X136919Y032528*
X137417Y032648*
X137890Y032844*
X138327Y033111*
X138716Y033444*
X139049Y033833*
X139317Y034270*
X139513Y034743*
X139632Y035241*
X139657Y035552*
G37*
G36*
X136208D02*
X133160D01*
X133184Y035241*
X133304Y034743*
X133500Y034270*
X133768Y033833*
X134100Y033444*
X134490Y033111*
X134926Y032844*
X135400Y032648*
X135898Y032528*
X136208Y032504*
Y035552*
G37*
G36*
X030508Y061877D02*
X027508D01*
Y060672*
X026073Y059237*
X025953Y059080*
X025878Y058898*
X025852Y058702*
Y057552*
X024858*
Y054122*
X022495Y051758*
X017783*
Y051977*
X015433*
Y050027*
X017783*
Y050245*
X022808*
X023004Y050271*
X023187Y050347*
X023343Y050467*
X024928Y052052*
X028288*
X031252Y049089*
Y043752*
X031278Y043556*
X031353Y043374*
X031473Y043217*
X035677Y039014*
Y036027*
X035703Y035831*
X035758Y035697*
Y034827*
X037058*
Y035609*
X037088Y035649*
X037127Y035743*
X037254Y035717*
Y034823*
X037708*
Y035602*
Y036381*
X037317*
X037254*
X037190Y036481*
Y039327*
X037164Y039523*
X037158Y039536*
Y040177*
X036653*
X032765Y044065*
Y049402*
X032739Y049598*
X032663Y049780*
X032543Y049937*
X032543Y049937*
X028358Y054122*
Y057552*
X027365*
Y058389*
X029303Y060327*
X030508*
Y061877*
G37*
G36*
X017783Y048977D02*
X015433D01*
Y047027*
X015852*
Y038142*
X015878Y037946*
X015953Y037764*
X016073Y037607*
X016556Y037124*
X016484Y036885*
X016450Y036542*
X016484Y036199*
X016584Y035869*
X016746Y035565*
X016965Y035298*
X017231Y035080*
X017535Y034917*
X017865Y034817*
X018208Y034783*
X018551Y034817*
X018881Y034917*
X019185Y035080*
X019452Y035298*
X019670Y035565*
X019833Y035869*
X019933Y036199*
X019967Y036542*
X019933Y036885*
X019833Y037215*
X019670Y037519*
X019452Y037785*
X019185Y038004*
X018881Y038167*
X018551Y038267*
X018208Y038300*
X017865Y038267*
X017626Y038194*
X017365Y038455*
Y047027*
X017783*
Y048977*
G37*
G36*
X123679Y035102D02*
X123008D01*
Y034432*
X123040Y034436*
X123257Y034525*
X123442Y034668*
X123585Y034854*
X123674Y035070*
X123679Y035102*
G37*
G36*
X090657Y035552D02*
X087608D01*
Y032504*
X087919Y032528*
X088417Y032648*
X088890Y032844*
X089327Y033111*
X089716Y033444*
X090049Y033833*
X090317Y034270*
X090513Y034743*
X090632Y035241*
X090657Y035552*
G37*
G36*
X018408Y033205D02*
Y031662D01*
X019951*
X019937Y031806*
X019837Y032136*
X019674Y032441*
X019455Y032708*
X019187Y032927*
X018883Y033090*
X018552Y033191*
X018408Y033205*
G37*
G36*
X018008D02*
X017864Y033191D01*
X017534Y033090*
X017229Y032927*
X016962Y032708*
X016743Y032441*
X016580Y032136*
X016480Y031806*
X016466Y031662*
X018008*
Y033205*
G37*
G36*
X072779Y031502D02*
X072108D01*
Y030832*
X072140Y030836*
X072357Y030925*
X072542Y031068*
X072685Y031254*
X072774Y031470*
X072779Y031502*
G37*
G36*
X087208Y035552D02*
X084160D01*
X084184Y035241*
X084304Y034743*
X084500Y034270*
X084768Y033833*
X085100Y033444*
X085490Y033111*
X085926Y032844*
X086400Y032648*
X086898Y032528*
X087208Y032504*
Y035552*
G37*
G36*
X072108Y032572D02*
Y031902D01*
X072779*
X072774Y031934*
X072685Y032150*
X072542Y032336*
X072357Y032478*
X072140Y032568*
X072108Y032572*
G37*
G36*
X071708D02*
X071676Y032568D01*
X071460Y032478*
X071274Y032336*
X071132Y032150*
X071042Y031934*
X071038Y031902*
X071708*
Y032572*
G37*
G36*
X099908Y110221D02*
X099647Y110186D01*
X099404Y110085*
X099195Y109925*
X099035Y109716*
X098934Y109473*
X098900Y109212*
X098934Y108951*
X099035Y108708*
X099195Y108499*
X099404Y108338*
X099449Y108320*
Y105277*
X099208*
Y103727*
X100508*
Y105277*
X100367*
Y108320*
X100413Y108338*
X100621Y108499*
X100782Y108708*
X100883Y108951*
X100917Y109212*
X100883Y109473*
X100782Y109716*
X100621Y109925*
X100413Y110085*
X100169Y110186*
X099908Y110221*
G37*
G36*
X092908D02*
X092647Y110186D01*
X092404Y110085*
X092195Y109925*
X092035Y109716*
X091934Y109473*
X091900Y109212*
X091934Y108951*
X092035Y108708*
X092195Y108499*
X092404Y108338*
X092449Y108320*
Y105277*
X092208*
Y103727*
X093508*
Y105277*
X093367*
Y108320*
X093413Y108338*
X093621Y108499*
X093782Y108708*
X093883Y108951*
X093917Y109212*
X093883Y109473*
X093782Y109716*
X093621Y109925*
X093413Y110085*
X093169Y110186*
X092908Y110221*
G37*
G36*
X106908Y110261D02*
X106647Y110226D01*
X106404Y110125*
X106195Y109965*
X106035Y109756*
X105934Y109513*
X105900Y109252*
X105934Y108991*
X106035Y108748*
X106195Y108539*
X106404Y108378*
X106449Y108360*
Y105177*
X106308*
Y103627*
X107608*
Y105177*
X107367*
Y108360*
X107413Y108378*
X107621Y108539*
X107782Y108748*
X107883Y108991*
X107917Y109252*
X107883Y109513*
X107782Y109756*
X107621Y109965*
X107413Y110125*
X107169Y110226*
X106908Y110261*
G37*
G36*
X017157Y108302D02*
X014108D01*
Y105254*
X014419Y105278*
X014917Y105398*
X015390Y105594*
X015827Y105861*
X016216Y106194*
X016549Y106583*
X016817Y107020*
X017013Y107493*
X017132Y107991*
X017157Y108302*
G37*
G36*
X013708D02*
X010660D01*
X010684Y107991*
X010804Y107493*
X011000Y107020*
X011268Y106583*
X011600Y106194*
X011990Y105861*
X012426Y105594*
X012900Y105398*
X013398Y105278*
X013708Y105254*
Y108302*
G37*
G36*
X047908Y115961D02*
X043988D01*
X043813Y115926*
X043664Y115826*
X042295Y114457*
X042249Y114476*
X041988Y114511*
X041727Y114476*
X041484Y114375*
X041275Y114215*
X041115Y114006*
X041014Y113763*
X040980Y113502*
X041014Y113241*
X041115Y112998*
X041275Y112789*
X041484Y112628*
X041727Y112528*
X041988Y112493*
X042249Y112528*
X042493Y112628*
X042701Y112789*
X042862Y112998*
X042963Y113241*
X042997Y113502*
X042963Y113763*
X042944Y113808*
X044178Y115043*
X047718*
X049149Y113612*
Y110102*
X049184Y109926*
X049284Y109777*
X055083Y103978*
X055035Y103861*
X049738*
X042944Y110655*
X042963Y110701*
X042997Y110962*
X042963Y111223*
X042862Y111466*
X042701Y111675*
X042493Y111835*
X042249Y111936*
X041988Y111971*
X041727Y111936*
X041484Y111835*
X041275Y111675*
X041115Y111466*
X041014Y111223*
X040980Y110962*
X041014Y110701*
X041115Y110458*
X041275Y110249*
X041484Y110088*
X041727Y109988*
X041988Y109953*
X042249Y109988*
X042295Y110006*
X049224Y103077*
X049328Y103008*
X049290Y102881*
X048178*
X040404Y110655*
X040423Y110701*
X040457Y110962*
X040423Y111223*
X040322Y111466*
X040161Y111675*
X039953Y111835*
X039709Y111936*
X039448Y111971*
X039187Y111936*
X038944Y111835*
X038735Y111675*
X038575Y111466*
X038474Y111223*
X038440Y110962*
X038474Y110701*
X038575Y110458*
X038735Y110249*
X038944Y110088*
X039187Y109988*
X039448Y109953*
X039709Y109988*
X039755Y110006*
X047574Y102188*
X047521Y102061*
X043998*
X041873Y104186*
X041901Y104402*
X041871Y104633*
X041781Y104848*
X041639Y105033*
X041455Y105175*
X041239Y105264*
X041008Y105295*
X040777Y105264*
X040562Y105175*
X040377Y105033*
X040235Y104848*
X040146Y104633*
X040116Y104402*
X040146Y104171*
X040235Y103956*
X040377Y103771*
X040562Y103629*
X040777Y103540*
X041008Y103509*
X041224Y103538*
X043484Y101277*
X043633Y101178*
X043808Y101143*
X059218*
X087532Y072829*
X087516Y072702*
X087546Y072471*
X087635Y072256*
X087777Y072071*
X087962Y071929*
X088177Y071840*
X088408Y071809*
X088639Y071840*
X088855Y071929*
X089039Y072071*
X089181Y072256*
X089271Y072471*
X089301Y072702*
X089279Y072866*
X089392Y072938*
X089461Y072881*
Y071097*
X089377Y071033*
X089235Y070848*
X089146Y070633*
X089116Y070402*
X089146Y070171*
X089235Y069956*
X089377Y069771*
X089562Y069629*
X089777Y069540*
X090008Y069509*
X090239Y069540*
X090455Y069629*
X090639Y069771*
X090781Y069956*
X090871Y070171*
X090901Y070402*
X090871Y070633*
X090781Y070848*
X090639Y071033*
X090455Y071175*
X090378Y071206*
Y073090*
X090344Y073266*
X090244Y073415*
X089354Y074305*
X060913Y102746*
X060808Y102816*
X060847Y102943*
X062218*
X089974Y075187*
X089982Y075176*
X089993Y075168*
X091044Y074117*
X091016Y073902*
X091046Y073671*
X091135Y073456*
X091277Y073271*
X091462Y073129*
X091677Y073040*
X091908Y073009*
X092139Y073040*
X092355Y073129*
X092539Y073271*
X092681Y073456*
X092771Y073671*
X092801Y073902*
X092773Y074112*
X092814Y074175*
X092869Y074228*
X093008Y074209*
X093239Y074240*
X093455Y074329*
X093639Y074471*
X093781Y074656*
X093822Y074755*
X093949Y074730*
Y074492*
X093334Y073876*
X093234Y073727*
X093199Y073552*
Y068502*
X091583*
Y067911*
X089608*
Y068302*
X088008*
Y067911*
X072867*
Y071727*
X073058*
Y073277*
X071758*
Y071727*
X071949*
Y067911*
X071633*
Y068298*
X071637*
Y069102*
X069579*
Y068298*
X069583*
Y067961*
X068687*
X068673Y067970*
X068458Y068013*
X068008*
X067794Y067970*
X067612Y067848*
X067490Y067666*
X067448Y067452*
X067490Y067237*
X067612Y067055*
X067794Y066934*
X068008Y066891*
X068458*
X068673Y066934*
X068836Y067043*
X069583*
Y066502*
X071633*
Y066993*
X088008*
Y066856*
X088004*
Y066302*
X088808*
X089612*
Y066856*
X089608*
Y066993*
X091583*
Y066706*
X091579*
Y065902*
X092608*
X093637*
Y066644*
X093764Y066697*
X096183Y064278*
X096135Y064161*
X089708*
X089533Y064126*
X089384Y064026*
X083924Y058566*
X083708Y058595*
X083477Y058564*
X083262Y058475*
X083077Y058333*
X082935Y058148*
X082846Y057933*
X082816Y057702*
X082846Y057471*
X082935Y057256*
X083077Y057071*
X083262Y056929*
X083477Y056840*
X083708Y056809*
X083939Y056840*
X084155Y056929*
X084339Y057071*
X084481Y057256*
X084571Y057471*
X084601Y057702*
X084573Y057917*
X089898Y063243*
X097218*
X098584Y061877*
X098733Y061778*
X098908Y061743*
X099242*
X099285Y061616*
X099177Y061533*
X099035Y061348*
X098946Y061133*
X098916Y060902*
X098946Y060671*
X099035Y060456*
X099087Y060388*
X099025Y060261*
X093008*
X092833Y060226*
X092684Y060126*
X091584Y059026*
X091484Y058877*
X091449Y058702*
Y056392*
X090034Y054976*
X089995Y054918*
X054284Y019207*
X054184Y019058*
X054149Y018883*
Y018022*
X054107Y018016*
X053864Y017915*
X053655Y017755*
X053495Y017546*
X053394Y017303*
X053360Y017042*
X053394Y016781*
X053495Y016538*
X053655Y016329*
X053864Y016168*
X054107Y016068*
X054368Y016033*
X054629Y016068*
X054873Y016168*
X055081Y016329*
X055242Y016538*
X055343Y016781*
X055377Y017042*
X055343Y017303*
X055242Y017546*
X055081Y017755*
X055067Y017766*
Y018693*
X090683Y054308*
X090721Y054366*
X092233Y055877*
X092332Y056026*
X092367Y056202*
Y058512*
X093198Y059343*
X098223*
X098285Y059216*
X098253Y059175*
X098108Y059195*
X097877Y059164*
X097662Y059075*
X097477Y058933*
X097335Y058748*
X097246Y058533*
X097216Y058302*
X097246Y058071*
X097335Y057856*
X097477Y057671*
X097662Y057529*
X097732Y057500*
X097746Y057442*
X097741Y057359*
X097577Y057233*
X097435Y057048*
X097346Y056833*
X097316Y056602*
X097346Y056371*
X097435Y056156*
X097577Y055971*
X097762Y055829*
X097977Y055740*
X098208Y055709*
X098439Y055740*
X098655Y055829*
X098839Y055971*
X098981Y056156*
X099070Y056371*
X099101Y056602*
X099073Y056817*
X099998Y057743*
X101720*
X101780Y057631*
X101764Y057607*
X101723Y057402*
X101764Y057197*
X101829Y057099*
X101871Y057002*
X101829Y056905*
X101764Y056807*
X101723Y056602*
X101764Y056397*
X101780Y056373*
X101720Y056261*
X101643*
X101467Y056226*
X101318Y056126*
X099802Y054610*
X099681Y054650*
X099670Y054733*
X099581Y054948*
X099439Y055133*
X099255Y055275*
X099039Y055364*
X098808Y055395*
X098577Y055364*
X098362Y055275*
X098177Y055133*
X098035Y054948*
X097946Y054733*
X097916Y054502*
X097944Y054286*
X094721Y051063*
X094587Y051109*
X094570Y051233*
X094481Y051448*
X094339Y051633*
X094167Y051765*
Y053338*
X094339Y053471*
X094481Y053655*
X094570Y053871*
X094601Y054102*
X094570Y054333*
X094481Y054548*
X094339Y054733*
X094154Y054875*
X093939Y054964*
X093708Y054994*
X093477Y054964*
X093262Y054875*
X093077Y054733*
X092935Y054548*
X092846Y054333*
X092815Y054102*
X092846Y053871*
X092935Y053655*
X093077Y053471*
X093249Y053338*
Y051765*
X093077Y051633*
X092945Y051461*
X092108*
Y051702*
X090508*
Y050256*
X090504*
Y049702*
X091308*
X092112*
Y050256*
X092108*
Y050543*
X092945*
X093077Y050371*
X093262Y050229*
X093477Y050140*
X093601Y050123*
X093647Y049989*
X062584Y018926*
X062484Y018777*
X062449Y018602*
Y013892*
X061218Y012661*
X056858*
X055324Y014195*
X055343Y014241*
X055377Y014502*
X055343Y014763*
X055242Y015006*
X055081Y015215*
X054873Y015375*
X054629Y015476*
X054368Y015511*
X054107Y015476*
X053864Y015375*
X053655Y015215*
X053495Y015006*
X053394Y014763*
X053360Y014502*
X053394Y014241*
X053495Y013998*
X053655Y013789*
X053864Y013628*
X054107Y013528*
X054368Y013493*
X054629Y013528*
X054675Y013546*
X056344Y011877*
X056493Y011778*
X056668Y011743*
X061408*
X061584Y011778*
X061733Y011877*
X063233Y013377*
X063332Y013526*
X063367Y013702*
Y018412*
X092807Y047852*
X092928Y047793*
X092916Y047702*
X092946Y047471*
X093035Y047256*
X093177Y047071*
X093362Y046929*
X093577Y046840*
X093808Y046809*
X094039Y046840*
X094255Y046929*
X094439Y047071*
X094581Y047256*
X094671Y047471*
X094701Y047702*
X094671Y047933*
X094598Y048108*
X097022Y050533*
X097149Y050480*
Y050165*
X096977Y050033*
X096835Y049848*
X096746Y049633*
X096716Y049402*
X096746Y049171*
X096835Y048956*
X096977Y048771*
X097162Y048629*
X097377Y048540*
X097608Y048509*
X097839Y048540*
X098055Y048629*
X098239Y048771*
X098381Y048956*
X098470Y049171*
X098501Y049402*
X098470Y049633*
X098381Y049848*
X098239Y050033*
X098067Y050165*
Y050446*
X098615Y050994*
X098735Y050953*
X098746Y050871*
X098835Y050656*
X098977Y050471*
X099149Y050338*
Y048202*
X099184Y048026*
X099284Y047877*
X100444Y046717*
X100416Y046502*
X100446Y046271*
X100535Y046055*
X100677Y045871*
X100862Y045729*
X101077Y045640*
X101308Y045609*
X101539Y045640*
X101755Y045729*
X101939Y045871*
X102081Y046055*
X102170Y046271*
X102201Y046502*
X102170Y046733*
X102081Y046948*
X101939Y047133*
X101755Y047275*
X101539Y047364*
X101308Y047394*
X101093Y047366*
X100067Y048392*
Y050338*
X100239Y050471*
X100381Y050656*
X100471Y050871*
X100501Y051102*
X100473Y051317*
X101633Y052478*
X101755Y052441*
X101764Y052397*
X101880Y052223*
Y052180*
X101764Y052007*
X101723Y051802*
X101764Y051597*
X101880Y051423*
Y051380*
X101764Y051207*
X101723Y051002*
X101764Y050797*
X101880Y050623*
X102053Y050507*
X102258Y050467*
X102399*
Y044542*
X086018Y028161*
X078468*
X078293Y028126*
X078144Y028026*
X071215Y021097*
X071169Y021116*
X070908Y021151*
X070647Y021116*
X070404Y021015*
X070195Y020855*
X070035Y020646*
X069934Y020403*
X069900Y020142*
X069934Y019881*
X070035Y019638*
X070195Y019429*
X070404Y019268*
X070647Y019168*
X070908Y019133*
X071169Y019168*
X071413Y019268*
X071622Y019429*
X071782Y019638*
X071883Y019881*
X071917Y020142*
X071883Y020403*
X071864Y020448*
X078658Y027243*
X086208*
X086384Y027278*
X086533Y027377*
X103183Y044027*
X103282Y044176*
X103317Y044352*
Y050467*
X103458*
X103663Y050507*
X103837Y050623*
X103953Y050797*
X103960Y050835*
X104093Y050848*
X104132Y050754*
X104274Y050568*
X104282Y050562*
X104261Y050418*
X104130Y050330*
X104014Y050157*
X103973Y049952*
Y048752*
X104014Y048547*
X104049Y048494*
Y043492*
X085818Y025261*
X078108*
X077933Y025226*
X077784Y025126*
X071215Y018557*
X071169Y018576*
X070908Y018611*
X070647Y018576*
X070404Y018475*
X070195Y018315*
X070035Y018106*
X069934Y017863*
X069900Y017602*
X069934Y017341*
X070035Y017098*
X070195Y016889*
X070404Y016728*
X070647Y016628*
X070908Y016593*
X071169Y016628*
X071413Y016728*
X071622Y016889*
X071782Y017098*
X071883Y017341*
X071917Y017602*
X071883Y017863*
X071864Y017908*
X078298Y024343*
X086008*
X086184Y024378*
X086333Y024477*
X104833Y042977*
X104932Y043126*
X104967Y043302*
Y048214*
X105079Y048274*
X105103Y048257*
X105308Y048217*
X105513Y048257*
X105687Y048373*
X105730*
X105903Y048257*
X106108Y048217*
X106313Y048257*
X106408Y048320*
X106527Y048370*
X106702Y048254*
X106708Y048252*
Y049352*
Y050451*
X106702Y050450*
X106679Y050435*
X106567Y050495*
Y053138*
X106739Y053271*
X106881Y053456*
X106971Y053671*
X107001Y053902*
X106971Y054133*
X106881Y054348*
X106739Y054533*
X106555Y054675*
X106339Y054764*
X106108Y054795*
X105877Y054764*
X105662Y054675*
X105477Y054533*
X105335Y054348*
X105246Y054133*
X105216Y053902*
X105246Y053671*
X105335Y053456*
X105477Y053271*
X105649Y053138*
Y051885*
X105522Y051851*
X105357Y051978*
X105140Y052068*
X105108Y052072*
Y051202*
X104708*
Y052072*
X104676Y052068*
X104460Y051978*
X104274Y051836*
X104132Y051650*
X104042Y051434*
X104033Y051362*
X103905Y051326*
X103837Y051395*
Y051423*
X103953Y051597*
X103994Y051802*
X103953Y052007*
X103837Y052180*
Y052223*
X103953Y052397*
X103994Y052602*
X103953Y052807*
X103887Y052905*
X103846Y053002*
X103887Y053099*
X103953Y053197*
X103994Y053402*
X103953Y053607*
X103890Y053701*
X103840Y053820*
X103957Y053995*
X103958Y054002*
X102858*
Y054402*
X103958*
X103957Y054408*
X103840Y054583*
X103890Y054703*
X103953Y054797*
X103994Y055002*
X103953Y055207*
X103837Y055380*
Y055423*
X103953Y055597*
X103994Y055802*
X103953Y056007*
X103837Y056180*
Y056223*
X103953Y056397*
X103994Y056602*
X103953Y056807*
X103887Y056905*
X103846Y057002*
X103887Y057099*
X103953Y057197*
X103994Y057402*
X103953Y057607*
X103837Y057780*
Y057823*
X103953Y057997*
X103994Y058202*
X103953Y058407*
X103837Y058580*
Y058623*
X103953Y058797*
X103994Y059002*
X103953Y059207*
X103887Y059305*
X103846Y059402*
X103887Y059499*
X103953Y059597*
X103994Y059802*
X103953Y060007*
X103837Y060180*
Y060223*
X103953Y060397*
X103994Y060602*
X103953Y060807*
X103887Y060905*
X103846Y061002*
X103887Y061099*
X103953Y061197*
X103994Y061402*
X103953Y061607*
X103890Y061701*
X103840Y061821*
X103957Y061995*
X103958Y062002*
X102858*
Y062402*
X103958*
X103957Y062408*
X103840Y062583*
X103890Y062703*
X103953Y062797*
X103994Y063002*
X103953Y063207*
X103837Y063380*
X103663Y063496*
X103458Y063537*
X103117*
Y064393*
X103973*
Y064052*
X104014Y063847*
X104130Y063673*
X104303Y063557*
X104508Y063517*
X104713Y063557*
X104887Y063673*
X104930*
X105103Y063557*
X105308Y063517*
X105513Y063557*
X105687Y063673*
X105730*
X105903Y063557*
X106108Y063517*
X106313Y063557*
X106487Y063673*
X106530*
X106703Y063557*
X106908Y063517*
X107113Y063557*
X107287Y063673*
X107330*
X107503Y063557*
X107708Y063517*
X107913Y063557*
X108087Y063673*
X108130*
X108303Y063557*
X108508Y063517*
X108713Y063557*
X108887Y063673*
X108930*
X109103Y063557*
X109308Y063517*
X109513Y063557*
X109687Y063673*
X109730*
X109903Y063557*
X110108Y063517*
X110313Y063557*
X110408Y063620*
X110527Y063670*
X110702Y063554*
X110708Y063552*
Y064652*
X111108*
Y063552*
X111115Y063554*
X111290Y063670*
X111409Y063620*
X111503Y063557*
X111708Y063517*
X111913Y063557*
X112087Y063673*
X112130*
X112303Y063557*
X112508Y063517*
X112713Y063557*
X112887Y063673*
X112930*
X113103Y063557*
X113308Y063517*
X113513Y063557*
X113687Y063673*
X113730*
X113903Y063557*
X114108Y063517*
X114313Y063557*
X114487Y063673*
X114530*
X114703Y063557*
X114908Y063517*
X115113Y063557*
X115287Y063673*
X115330*
X115503Y063557*
X115708Y063517*
X115913Y063557*
X116087Y063673*
X116130*
X116303Y063557*
X116508Y063517*
X116713Y063557*
X116887Y063673*
X117003Y063847*
X117044Y064052*
Y064193*
X123468*
X125684Y061977*
X125833Y061878*
X126008Y061843*
X132145*
X132277Y061671*
X132462Y061529*
X132677Y061440*
X132908Y061409*
X133139Y061440*
X133355Y061529*
X133539Y061671*
X133681Y061856*
X133771Y062071*
X133801Y062302*
X133771Y062533*
X133681Y062748*
X133539Y062933*
X133355Y063075*
X133139Y063164*
X132908Y063195*
X132677Y063164*
X132462Y063075*
X132277Y062933*
X132145Y062761*
X126198*
X123983Y064976*
X123834Y065076*
X123658Y065111*
X117044*
Y065252*
X117003Y065457*
X116887Y065630*
X116713Y065746*
X116508Y065787*
X116303Y065746*
X116130Y065630*
X116087*
X115913Y065746*
X115708Y065787*
X115503Y065746*
X115330Y065630*
X115287*
X115113Y065746*
X114908Y065787*
X114794Y065764*
X114653Y065853*
X114652Y065856*
X114647Y065891*
X115493Y066738*
X115708Y066709*
X115939Y066740*
X116155Y066829*
X116339Y066971*
X116481Y067156*
X116571Y067371*
X116601Y067602*
X116571Y067833*
X116481Y068048*
X116339Y068233*
X116155Y068375*
X115939Y068464*
X115708Y068495*
X115477Y068464*
X115262Y068375*
X115077Y068233*
X115016Y068154*
X114947Y068151*
X114867Y068167*
X114739Y068333*
X114555Y068475*
X114339Y068564*
X114108Y068595*
X113877Y068564*
X113662Y068475*
X113508Y068357*
X113376Y068392*
X113370Y068433*
X113281Y068648*
X113139Y068833*
X112954Y068975*
X112739Y069064*
X112508Y069094*
X112277Y069064*
X112062Y068975*
X111877Y068833*
X111735Y068648*
X111646Y068433*
X111615Y068202*
X111632Y068075*
X111384Y067826*
X111284Y067677*
X111249Y067502*
Y067277*
X111122Y067246*
X110955Y067375*
X110739Y067464*
X110508Y067495*
X110277Y067464*
X110062Y067375*
X109995Y067323*
X109849Y067372*
X109844Y067389*
X110181Y067726*
X110308Y067709*
X110539Y067740*
X110754Y067829*
X110939Y067971*
X111081Y068155*
X111170Y068371*
X111201Y068602*
X111170Y068833*
X111081Y069048*
X110939Y069233*
X110864Y069291*
X110907Y069418*
X122057*
X125571Y065904*
X125525Y065770*
X125477Y065764*
X125262Y065675*
X125077Y065533*
X124935Y065348*
X124846Y065133*
X124816Y064902*
X124846Y064671*
X124935Y064456*
X125077Y064271*
X125262Y064129*
X125477Y064040*
X125708Y064009*
X125818Y064024*
X125908Y063934*
X125893Y063824*
X125924Y063593*
X126013Y063378*
X126155Y063193*
X126340Y063051*
X126555Y062962*
X126786Y062932*
X127017Y062962*
X127232Y063051*
X127417Y063193*
X127559Y063378*
X127648Y063593*
X127679Y063824*
X127648Y064055*
X127559Y064271*
X127417Y064455*
X127237Y064594*
Y066220*
X127203Y066392*
X127105Y066538*
X125549Y068094*
X122824Y070819*
X122678Y070917*
X122695Y071043*
X123618*
X124344Y070317*
X124316Y070102*
X124346Y069871*
X124435Y069656*
X124577Y069471*
X124762Y069329*
X124977Y069240*
X125208Y069209*
X125439Y069240*
X125655Y069329*
X125839Y069471*
X125981Y069656*
X126071Y069871*
X126101Y070102*
X126071Y070333*
X125981Y070548*
X125839Y070733*
X125655Y070875*
X125439Y070964*
X125208Y070995*
X124993Y070966*
X124133Y071826*
X123984Y071926*
X123808Y071961*
X116098*
X099367Y088692*
Y099727*
X099558*
Y101277*
X098817*
Y103727*
X099008*
Y105277*
X097708*
Y103727*
X097899*
Y101052*
X097934Y100876*
X098034Y100727*
X098258Y100503*
Y099727*
X098449*
Y088502*
X098484Y088326*
X098584Y088177*
X115584Y071177*
X115733Y071078*
X115720Y070951*
X111705*
X111680Y071078*
X111839Y071144*
X112024Y071286*
X112166Y071471*
X112255Y071686*
X112286Y071917*
X112255Y072148*
X112166Y072363*
X112024Y072548*
X111839Y072690*
X111624Y072779*
X111393Y072810*
X111162Y072779*
X110947Y072690*
X110762Y072548*
X110630Y072376*
X109183*
X105233Y076326*
X105084Y076426*
X104908Y076461*
X102908*
Y076648*
X102912*
Y077202*
X101304*
Y076648*
X101308*
Y076461*
X101095*
X101039Y076533*
X100855Y076675*
X100639Y076764*
X100408Y076795*
X100177Y076764*
X099962Y076675*
X099894Y076623*
X099767Y076686*
Y082602*
X099732Y082777*
X099633Y082926*
X092983Y089576*
X092834Y089676*
X092658Y089711*
X084348*
X069822Y104237*
X069830Y104364*
X069839Y104371*
X069981Y104556*
X070071Y104771*
X070101Y105002*
X070071Y105233*
X069981Y105448*
X069839Y105633*
X069655Y105775*
X069439Y105864*
X069208Y105895*
X068977Y105864*
X068762Y105775*
X068577Y105633*
X068435Y105448*
X068346Y105233*
X068316Y105002*
X068346Y104771*
X068435Y104556*
X068442Y104546*
X068347Y104462*
X067767Y105042*
Y106412*
X071033Y109677*
X071132Y109826*
X071167Y110002*
Y114202*
X071132Y114377*
X071033Y114526*
X070133Y115426*
X069984Y115526*
X069808Y115561*
X067178*
X067003Y115526*
X066854Y115426*
X065925Y114497*
X065879Y114516*
X065618Y114551*
X065357Y114516*
X065114Y114415*
X064905Y114255*
X064745Y114046*
X064644Y113803*
X064610Y113542*
X064644Y113281*
X064745Y113038*
X064905Y112829*
X065114Y112668*
X065357Y112568*
X065618Y112533*
X065879Y112568*
X066123Y112668*
X066331Y112829*
X066492Y113038*
X066593Y113281*
X066627Y113542*
X066593Y113803*
X066574Y113848*
X067041Y114316*
X067158Y114267*
Y112542*
X069158*
Y114542*
X069221Y114643*
X069618*
X070249Y114012*
Y110192*
X066984Y106926*
X066884Y106777*
X066849Y106602*
Y104889*
X066755Y104837*
X066726Y104833*
X066077Y105482*
Y110110*
X066123Y110128*
X066331Y110289*
X066492Y110498*
X066593Y110741*
X066627Y111002*
X066593Y111263*
X066492Y111506*
X066331Y111715*
X066123Y111875*
X065879Y111976*
X065618Y112011*
X065357Y111976*
X065114Y111875*
X064905Y111715*
X064745Y111506*
X064644Y111263*
X064610Y111002*
X064644Y110741*
X064745Y110498*
X064905Y110289*
X065114Y110128*
X065159Y110110*
Y105329*
X065065Y105277*
X065036Y105273*
X061617Y108692*
Y111432*
X062772Y112586*
X062817Y112568*
X063078Y112533*
X063339Y112568*
X063583Y112668*
X063791Y112829*
X063952Y113038*
X064053Y113281*
X064087Y113542*
X064053Y113803*
X063952Y114046*
X063791Y114255*
X063583Y114415*
X063339Y114516*
X063078Y114551*
X062817Y114516*
X062574Y114415*
X062365Y114255*
X062205Y114046*
X062104Y113803*
X062070Y113542*
X062104Y113281*
X062123Y113235*
X060834Y111946*
X060734Y111797*
X060699Y111622*
Y108502*
X060734Y108326*
X060834Y108177*
X082334Y086677*
X082483Y086578*
X082658Y086543*
X090718*
X095049Y082212*
Y077186*
X094922Y077123*
X094855Y077175*
X094639Y077264*
X094408Y077295*
X094177Y077264*
X093962Y077175*
X093777Y077033*
X093635Y076848*
X093546Y076633*
X093516Y076402*
X093546Y076171*
X093635Y075956*
X093777Y075771*
X093949Y075638*
Y075474*
X093822Y075449*
X093781Y075548*
X093639Y075733*
X093455Y075875*
X093239Y075964*
X093008Y075995*
X092793Y075966*
X064383Y104376*
X064234Y104476*
X064058Y104511*
X062506*
X062484Y104526*
X062308Y104561*
X055798*
X050067Y110292*
Y113802*
X050032Y113977*
X049933Y114126*
X048233Y115826*
X048084Y115926*
X047908Y115961*
G37*
G36*
X108312Y101321D02*
X107858D01*
Y100742*
X108312*
Y101321*
G37*
G36*
X093458Y101281D02*
X093004D01*
Y100702*
X093458*
Y101281*
G37*
G36*
X100208D02*
X099754D01*
Y100702*
X100208*
Y101281*
G37*
G36*
X108312Y100342D02*
X107858D01*
Y099763*
X108312*
Y100342*
G37*
G36*
X107458Y101321D02*
X107004D01*
Y100742*
X107458*
Y101321*
G37*
G36*
X101062Y101281D02*
X100608D01*
Y100702*
X101062*
Y101281*
G37*
G36*
X094312D02*
X093858D01*
Y100702*
X094312*
Y101281*
G37*
G36*
X078708Y108302D02*
X075660D01*
X075684Y107991*
X075804Y107493*
X076000Y107020*
X076268Y106583*
X076600Y106194*
X076990Y105861*
X077426Y105594*
X077900Y105398*
X078398Y105278*
X078708Y105254*
Y108302*
G37*
G36*
X156662Y107768D02*
X155108D01*
Y106952*
X156662*
Y107768*
G37*
G36*
X154708D02*
X153154D01*
Y106952*
X154708*
Y107768*
G37*
G36*
X162708D02*
X161154D01*
Y106952*
X162708*
Y107768*
G37*
G36*
X014108Y111750D02*
Y108702D01*
X017157*
X017132Y109012*
X017013Y109511*
X016817Y109984*
X016549Y110420*
X016216Y110810*
X015827Y111143*
X015390Y111410*
X014917Y111606*
X014419Y111726*
X014108Y111750*
G37*
G36*
X013708D02*
X013398Y111726D01*
X012900Y111606*
X012426Y111410*
X011990Y111143*
X011600Y110810*
X011268Y110420*
X011000Y109984*
X010804Y109511*
X010684Y109012*
X010660Y108702*
X013708*
Y111750*
G37*
G36*
X164662Y107768D02*
X163108D01*
Y106952*
X164662*
Y107768*
G37*
G36*
Y106552D02*
X163108D01*
Y105736*
X164662*
Y106552*
G37*
G36*
X147157Y108302D02*
X144108D01*
Y105254*
X144419Y105278*
X144917Y105398*
X145390Y105594*
X145827Y105861*
X146216Y106194*
X146549Y106583*
X146817Y107020*
X147013Y107493*
X147132Y107991*
X147157Y108302*
G37*
G36*
X143708D02*
X140660D01*
X140684Y107991*
X140804Y107493*
X141000Y107020*
X141268Y106583*
X141600Y106194*
X141990Y105861*
X142426Y105594*
X142900Y105398*
X143398Y105278*
X143708Y105254*
Y108302*
G37*
G36*
X082157D02*
X079108D01*
Y105254*
X079419Y105278*
X079917Y105398*
X080390Y105594*
X080827Y105861*
X081216Y106194*
X081549Y106583*
X081817Y107020*
X082013Y107493*
X082132Y107991*
X082157Y108302*
G37*
G36*
X162708Y106552D02*
X161154D01*
Y105736*
X162708*
Y106552*
G37*
G36*
X156662D02*
X155108D01*
Y105736*
X156662*
Y106552*
G37*
G36*
X154708D02*
X153154D01*
Y105736*
X154708*
Y106552*
G37*
G36*
X107458Y100342D02*
X107004D01*
Y099763*
X107458*
Y100342*
G37*
G36*
X050808Y095172D02*
X050776Y095168D01*
X050560Y095078*
X050374Y094936*
X050232Y094750*
X050142Y094534*
X050138Y094502*
X050808*
Y095172*
G37*
G36*
X025279Y095102D02*
X024608D01*
Y094432*
X024640Y094436*
X024857Y094525*
X025042Y094668*
X025185Y094854*
X025274Y095070*
X025279Y095102*
G37*
G36*
X024208D02*
X023538D01*
X023542Y095070*
X023632Y094854*
X023774Y094668*
X023960Y094525*
X024176Y094436*
X024208Y094432*
Y095102*
G37*
G36*
X024608Y096172D02*
Y095502D01*
X025279*
X025274Y095534*
X025185Y095750*
X025042Y095936*
X024857Y096078*
X024640Y096168*
X024608Y096172*
G37*
G36*
X024208D02*
X024176Y096168D01*
X023960Y096078*
X023774Y095936*
X023632Y095750*
X023542Y095534*
X023538Y095502*
X024208*
Y096172*
G37*
G36*
X051208Y095172D02*
Y094502D01*
X051879*
X051874Y094534*
X051785Y094750*
X051642Y094936*
X051457Y095078*
X051240Y095168*
X051208Y095172*
G37*
G36*
X136608Y097000D02*
Y093952D01*
X139657*
X139632Y094263*
X139513Y094761*
X139317Y095234*
X139049Y095670*
X138716Y096060*
X138327Y096393*
X137890Y096660*
X137417Y096856*
X136919Y096976*
X136608Y097000*
G37*
G36*
X095908Y094372D02*
Y093702D01*
X096579*
X096574Y093734*
X096485Y093950*
X096342Y094136*
X096157Y094278*
X095940Y094368*
X095908Y094372*
G37*
G36*
X095508D02*
X095476Y094368D01*
X095260Y094278*
X095074Y094136*
X094932Y093950*
X094842Y093734*
X094838Y093702*
X095508*
Y094372*
G37*
G36*
X051879Y094102D02*
X051208D01*
Y093432*
X051240Y093436*
X051457Y093525*
X051642Y093668*
X051785Y093854*
X051874Y094070*
X051879Y094102*
G37*
G36*
X136208Y097000D02*
X135898Y096976D01*
X135400Y096856*
X134926Y096660*
X134490Y096393*
X134100Y096060*
X133768Y095670*
X133500Y095234*
X133304Y094761*
X133184Y094263*
X133160Y093952*
X136208*
Y097000*
G37*
G36*
X087608D02*
Y093952D01*
X090657*
X090632Y094263*
X090513Y094761*
X090317Y095234*
X090049Y095670*
X089716Y096060*
X089327Y096393*
X088890Y096660*
X088417Y096856*
X087919Y096976*
X087608Y097000*
G37*
G36*
X087208D02*
X086898Y096976D01*
X086400Y096856*
X085926Y096660*
X085490Y096393*
X085100Y096060*
X084768Y095670*
X084500Y095234*
X084304Y094761*
X084184Y094263*
X084160Y093952*
X087208*
Y097000*
G37*
G36*
X075208Y105095D02*
X074977Y105064D01*
X074762Y104975*
X074577Y104833*
X074435Y104648*
X074346Y104433*
X074316Y104202*
X074346Y103971*
X074435Y103756*
X074577Y103571*
X074762Y103429*
X074977Y103340*
X075208Y103309*
X075335Y103326*
X081444Y097217*
X081416Y097002*
X081446Y096771*
X081535Y096556*
X081677Y096371*
X081862Y096229*
X082077Y096140*
X082308Y096109*
X082539Y096140*
X082755Y096229*
X082939Y096371*
X083081Y096556*
X083171Y096771*
X083201Y097002*
X083171Y097233*
X083081Y097448*
X082939Y097633*
X082755Y097775*
X082539Y097864*
X082308Y097895*
X082093Y097866*
X076046Y103913*
X076071Y103971*
X076101Y104202*
X076071Y104433*
X075981Y104648*
X075839Y104833*
X075655Y104975*
X075439Y105064*
X075208Y105095*
G37*
G36*
X093458Y100302D02*
X093004D01*
Y099723*
X093458*
Y100302*
G37*
G36*
X137908Y104795D02*
X137677Y104764D01*
X137462Y104675*
X137277Y104533*
X137135Y104348*
X137046Y104133*
X137016Y103902*
X137046Y103671*
X137135Y103456*
X137277Y103271*
X137462Y103129*
X137677Y103040*
X137908Y103009*
X138124Y103038*
X141384Y099777*
X141533Y099678*
X141708Y099643*
X144145*
X144277Y099471*
X144462Y099329*
X144677Y099240*
X144908Y099209*
X145139Y099240*
X145355Y099329*
X145539Y099471*
X145681Y099656*
X145771Y099871*
X145801Y100102*
X145771Y100333*
X145681Y100548*
X145539Y100733*
X145355Y100875*
X145139Y100964*
X144908Y100995*
X144677Y100964*
X144462Y100875*
X144277Y100733*
X144145Y100561*
X141898*
X138773Y103686*
X138801Y103902*
X138771Y104133*
X138681Y104348*
X138539Y104533*
X138355Y104675*
X138139Y104764*
X137908Y104795*
G37*
G36*
X164662Y098768D02*
X163108D01*
Y097952*
X164662*
Y098768*
G37*
G36*
X101062Y100302D02*
X100608D01*
Y099723*
X101062*
Y100302*
G37*
G36*
X100208D02*
X099754D01*
Y099723*
X100208*
Y100302*
G37*
G36*
X094312D02*
X093858D01*
Y099723*
X094312*
Y100302*
G37*
G36*
X156662Y098768D02*
X155108D01*
Y097952*
X156662*
Y098768*
G37*
G36*
X162708Y097552D02*
X161154D01*
Y096736*
X162708*
Y097552*
G37*
G36*
X156662D02*
X155108D01*
Y096736*
X156662*
Y097552*
G37*
G36*
X154708D02*
X153154D01*
Y096736*
X154708*
Y097552*
G37*
G36*
Y098768D02*
X153154D01*
Y097952*
X154708*
Y098768*
G37*
G36*
X162708D02*
X161154D01*
Y097952*
X162708*
Y098768*
G37*
G36*
X164662Y097552D02*
X163108D01*
Y096736*
X164662*
Y097552*
G37*
G36*
X078708Y111750D02*
X078398Y111726D01*
X077900Y111606*
X077426Y111410*
X076990Y111143*
X076600Y110810*
X076268Y110420*
X076000Y109984*
X075804Y109511*
X075684Y109012*
X075660Y108702*
X078708*
Y111750*
G37*
G36*
X118968Y114681D02*
X118707Y114646D01*
X118464Y114545*
X118255Y114385*
X118095Y114176*
X117994Y113933*
X117960Y113672*
X117994Y113411*
X118095Y113168*
X118255Y112959*
X118464Y112798*
X118707Y112698*
X118968Y112663*
X119229Y112698*
X119473Y112798*
X119682Y112959*
X119842Y113168*
X119943Y113411*
X119977Y113672*
X119943Y113933*
X119842Y114176*
X119682Y114385*
X119473Y114545*
X119229Y114646*
X118968Y114681*
G37*
G36*
X036708Y113302D02*
X035922D01*
X035930Y113240*
X036031Y112996*
X036192Y112786*
X036402Y112625*
X036646Y112524*
X036708Y112516*
Y113302*
G37*
G36*
X037895D02*
X037108D01*
Y112516*
X037170Y112524*
X037415Y112625*
X037624Y112786*
X037785Y112996*
X037886Y113240*
X037895Y113302*
G37*
G36*
X036708Y114488D02*
X036646Y114480D01*
X036402Y114379*
X036192Y114218*
X036031Y114008*
X035930Y113764*
X035922Y113702*
X036708*
Y114488*
G37*
G36*
X093908Y115292D02*
X091908D01*
Y113292*
X093908*
Y115292*
G37*
G36*
X100908D02*
X098908D01*
Y113292*
X100908*
Y115292*
G37*
G36*
X047068Y114511D02*
X046807Y114476D01*
X046564Y114375*
X046355Y114215*
X046195Y114006*
X046094Y113763*
X046060Y113502*
X046094Y113241*
X046195Y112998*
X046355Y112789*
X046564Y112628*
X046807Y112528*
X047068Y112493*
X047329Y112528*
X047573Y112628*
X047781Y112789*
X047942Y112998*
X048043Y113241*
X048077Y113502*
X048043Y113763*
X047942Y114006*
X047781Y114215*
X047573Y114375*
X047329Y114476*
X047068Y114511*
G37*
G36*
X106708Y112778D02*
X106646Y112770D01*
X106402Y112669*
X106192Y112508*
X106031Y112298*
X105930Y112054*
X105922Y111992*
X106708*
Y112778*
G37*
G36*
X093108Y112738D02*
Y111952D01*
X093895*
X093886Y112014*
X093785Y112258*
X093624Y112468*
X093415Y112629*
X093170Y112730*
X093108Y112738*
G37*
G36*
X092708D02*
X092646Y112730D01*
X092402Y112629*
X092192Y112468*
X092031Y112258*
X091930Y112014*
X091922Y111952*
X092708*
Y112738*
G37*
G36*
X044528Y114511D02*
X044267Y114476D01*
X044024Y114375*
X043815Y114215*
X043655Y114006*
X043554Y113763*
X043520Y113502*
X043554Y113241*
X043655Y112998*
X043815Y112789*
X044024Y112628*
X044267Y112528*
X044528Y112493*
X044789Y112528*
X045033Y112628*
X045241Y112789*
X045402Y112998*
X045503Y113241*
X045537Y113502*
X045503Y113763*
X045402Y114006*
X045241Y114215*
X045033Y114375*
X044789Y114476*
X044528Y114511*
G37*
G36*
X039448D02*
X039187Y114476D01*
X038944Y114375*
X038735Y114215*
X038575Y114006*
X038474Y113763*
X038440Y113502*
X038474Y113241*
X038575Y112998*
X038735Y112789*
X038944Y112628*
X039187Y112528*
X039448Y112493*
X039709Y112528*
X039953Y112628*
X040161Y112789*
X040322Y112998*
X040423Y113241*
X040457Y113502*
X040423Y113763*
X040322Y114006*
X040161Y114215*
X039953Y114375*
X039709Y114476*
X039448Y114511*
G37*
G36*
X107108Y112778D02*
Y111992D01*
X107895*
X107886Y112054*
X107785Y112298*
X107624Y112508*
X107415Y112669*
X107170Y112770*
X107108Y112778*
G37*
G36*
X037108Y114488D02*
Y113702D01*
X037895*
X037886Y113764*
X037785Y114008*
X037624Y114218*
X037415Y114379*
X037170Y114480*
X037108Y114488*
G37*
G36*
X156662Y116768D02*
X155108D01*
Y115952*
X156662*
Y116768*
G37*
G36*
X154708D02*
X153154D01*
Y115952*
X154708*
Y116768*
G37*
G36*
X162708D02*
X161154D01*
Y115952*
X162708*
Y116768*
G37*
G36*
X146208Y116672D02*
Y116002D01*
X146879*
X146874Y116034*
X146785Y116250*
X146642Y116436*
X146457Y116578*
X146240Y116668*
X146208Y116672*
G37*
G36*
X145808D02*
X145776Y116668D01*
X145560Y116578*
X145374Y116436*
X145232Y116250*
X145142Y116034*
X145138Y116002*
X145808*
Y116672*
G37*
G36*
X164662Y116768D02*
X163108D01*
Y115952*
X164662*
Y116768*
G37*
G36*
X146879Y115602D02*
X146208D01*
Y114932*
X146240Y114936*
X146457Y115025*
X146642Y115168*
X146785Y115354*
X146874Y115570*
X146879Y115602*
G37*
G36*
X156662Y115552D02*
X155108D01*
Y114736*
X156662*
Y115552*
G37*
G36*
X154708D02*
X153154D01*
Y114736*
X154708*
Y115552*
G37*
G36*
X121118Y117358D02*
X113808D01*
X113613Y117333*
X113430Y117257*
X113273Y117137*
X111225Y115088*
X107908*
Y115332*
X105908*
Y113332*
X107908*
Y113575*
X111538*
X111734Y113601*
X111917Y113677*
X112073Y113797*
X114122Y115845*
X120805*
X121936Y114715*
X121864Y114607*
X121769Y114646*
X121508Y114681*
X121247Y114646*
X121004Y114545*
X120795Y114385*
X120635Y114176*
X120534Y113933*
X120500Y113672*
X120534Y113411*
X120635Y113168*
X120795Y112959*
X121004Y112798*
X121247Y112698*
X121508Y112663*
X121769Y112698*
X122013Y112798*
X122222Y112959*
X122382Y113168*
X122483Y113411*
X122517Y113672*
X122483Y113933*
X122443Y114027*
X122551Y114099*
X123048Y113602*
Y112672*
X125048*
Y114672*
X124118*
X121653Y117137*
X121497Y117257*
X121314Y117333*
X121118Y117358*
G37*
G36*
X145808Y115602D02*
X145138D01*
X145142Y115570*
X145232Y115354*
X145374Y115168*
X145560Y115025*
X145776Y114936*
X145808Y114932*
Y115602*
G37*
G36*
X164662Y115552D02*
X163108D01*
Y114736*
X164662*
Y115552*
G37*
G36*
X162708D02*
X161154D01*
Y114736*
X162708*
Y115552*
G37*
G36*
X100108Y112738D02*
Y111952D01*
X100895*
X100886Y112014*
X100785Y112258*
X100624Y112468*
X100415Y112629*
X100170Y112730*
X100108Y112738*
G37*
G36*
X118968Y112141D02*
X118707Y112106D01*
X118464Y112005*
X118255Y111845*
X118095Y111636*
X117994Y111393*
X117960Y111132*
X117994Y110871*
X118095Y110628*
X118255Y110419*
X118464Y110258*
X118707Y110158*
X118968Y110123*
X119229Y110158*
X119473Y110258*
X119682Y110419*
X119842Y110628*
X119943Y110871*
X119977Y111132*
X119943Y111393*
X119842Y111636*
X119682Y111845*
X119473Y112005*
X119229Y112106*
X118968Y112141*
G37*
G36*
X067958Y110802D02*
X067172D01*
X067180Y110740*
X067281Y110496*
X067442Y110286*
X067652Y110125*
X067896Y110024*
X067958Y110016*
Y110802*
G37*
G36*
X069145D02*
X068358D01*
Y110016*
X068420Y110024*
X068665Y110125*
X068874Y110286*
X069035Y110496*
X069136Y110740*
X069145Y110802*
G37*
G36*
X123848Y110932D02*
X123062D01*
X123070Y110870*
X123171Y110626*
X123332Y110416*
X123542Y110255*
X123786Y110154*
X123848Y110146*
Y110932*
G37*
G36*
X125035D02*
X124248D01*
Y110146*
X124310Y110154*
X124555Y110255*
X124764Y110416*
X124925Y110626*
X125026Y110870*
X125035Y110932*
G37*
G36*
X121508Y112141D02*
X121247Y112106D01*
X121004Y112005*
X120795Y111845*
X120635Y111636*
X120534Y111393*
X120500Y111132*
X120534Y110871*
X120635Y110628*
X120795Y110419*
X121004Y110258*
X121247Y110158*
X121508Y110123*
X121769Y110158*
X122013Y110258*
X122222Y110419*
X122382Y110628*
X122483Y110871*
X122517Y111132*
X122483Y111393*
X122382Y111636*
X122222Y111845*
X122013Y112005*
X121769Y112106*
X121508Y112141*
G37*
G36*
X063078Y112011D02*
X062817Y111976D01*
X062574Y111875*
X062365Y111715*
X062205Y111506*
X062104Y111263*
X062070Y111002*
X062104Y110741*
X062205Y110498*
X062365Y110289*
X062574Y110128*
X062817Y110028*
X063078Y109993*
X063339Y110028*
X063583Y110128*
X063791Y110289*
X063952Y110498*
X064053Y110741*
X064087Y111002*
X064053Y111263*
X063952Y111506*
X063791Y111715*
X063583Y111875*
X063339Y111976*
X063078Y112011*
G37*
G36*
X144108Y111750D02*
Y108702D01*
X147157*
X147132Y109012*
X147013Y109511*
X146817Y109984*
X146549Y110420*
X146216Y110810*
X145827Y111143*
X145390Y111410*
X144917Y111606*
X144419Y111726*
X144108Y111750*
G37*
G36*
X143708D02*
X143398Y111726D01*
X142900Y111606*
X142426Y111410*
X141990Y111143*
X141600Y110810*
X141268Y110420*
X141000Y109984*
X140804Y109511*
X140684Y109012*
X140660Y108702*
X143708*
Y111750*
G37*
G36*
X079108D02*
Y108702D01*
X082157*
X082132Y109012*
X082013Y109511*
X081817Y109984*
X081549Y110420*
X081216Y110810*
X080827Y111143*
X080390Y111410*
X079917Y111606*
X079419Y111726*
X079108Y111750*
G37*
G36*
X044328Y110762D02*
X043542D01*
X043550Y110700*
X043651Y110456*
X043812Y110246*
X044022Y110085*
X044266Y109984*
X044328Y109976*
Y110762*
G37*
G36*
X045515D02*
X044728D01*
Y109976*
X044790Y109984*
X045035Y110085*
X045244Y110246*
X045405Y110456*
X045506Y110700*
X045515Y110762*
G37*
G36*
X047068Y111971D02*
X046807Y111936D01*
X046564Y111835*
X046355Y111675*
X046195Y111466*
X046094Y111223*
X046060Y110962*
X046094Y110701*
X046195Y110458*
X046355Y110249*
X046564Y110088*
X046807Y109988*
X047068Y109953*
X047329Y109988*
X047573Y110088*
X047781Y110249*
X047942Y110458*
X048043Y110701*
X048077Y110962*
X048043Y111223*
X047942Y111466*
X047781Y111675*
X047573Y111835*
X047329Y111936*
X047068Y111971*
G37*
G36*
X099708Y111552D02*
X098922D01*
X098930Y111490*
X099031Y111246*
X099192Y111036*
X099402Y110875*
X099646Y110774*
X099708Y110766*
Y111552*
G37*
G36*
X123848Y112118D02*
X123786Y112110D01*
X123542Y112009*
X123332Y111848*
X123171Y111638*
X123070Y111394*
X123062Y111332*
X123848*
Y112118*
G37*
G36*
X068358Y111988D02*
Y111202D01*
X069145*
X069136Y111264*
X069035Y111508*
X068874Y111718*
X068665Y111879*
X068420Y111980*
X068358Y111988*
G37*
G36*
X067958D02*
X067896Y111980D01*
X067652Y111879*
X067442Y111718*
X067281Y111508*
X067180Y111264*
X067172Y111202*
X067958*
Y111988*
G37*
G36*
X099708Y112738D02*
X099646Y112730D01*
X099402Y112629*
X099192Y112468*
X099031Y112258*
X098930Y112014*
X098922Y111952*
X099708*
Y112738*
G37*
G36*
X164658Y112264D02*
X161158D01*
Y111711*
X156658*
Y112264*
X153158*
Y111761*
X150408*
Y112077*
X149108*
Y111526*
X148989Y111498*
X148913Y111680*
X148908Y111687*
Y112077*
X147608*
Y111687*
X147603Y111680*
X147528Y111498*
X147502Y111302*
Y102202*
Y088965*
X144623Y086087*
X144503Y085930*
X144428Y085748*
X144402Y085552*
Y078906*
X144378Y078848*
X144352Y078652*
Y061102*
X144308*
Y059656*
X144304*
Y059102*
X145108*
X145912*
Y059555*
X165352*
Y057202*
X165378Y057006*
X165453Y056824*
X165573Y056667*
X166273Y055967*
X166430Y055847*
X166613Y055771*
X166808Y055745*
X167152*
Y026315*
X162773Y021937*
X162653Y021780*
X162578Y021598*
X162552Y021402*
Y018102*
X161133*
Y015858*
X158508*
X158312Y015833*
X158130Y015757*
X157973Y015637*
X157954Y015618*
X157927Y015614*
X157712Y015525*
X157527Y015383*
X157385Y015198*
X157296Y014983*
X157266Y014752*
X157296Y014521*
X157385Y014306*
X157527Y014121*
X157712Y013979*
X157927Y013890*
X158158Y013859*
X158389Y013890*
X158605Y013979*
X158789Y014121*
X158931Y014306*
X158948Y014345*
X161133*
Y012102*
X165483*
Y018102*
X164065*
Y021089*
X168443Y025467*
X168443*
X168563Y025624*
X168639Y025806*
X168665Y026002*
Y056502*
X168639Y056698*
X168563Y056880*
X168443Y057037*
X168287Y057157*
X168276Y057161*
X168264Y057288*
X168341Y057339*
X168473Y057538*
X168520Y057772*
X168473Y058006*
X168341Y058204*
X168142Y058337*
X168117Y058342*
Y058472*
X168142Y058477*
X168341Y058609*
X168473Y058808*
X168520Y059042*
X168473Y059276*
X168341Y059474*
X168264Y059526*
X168276Y059652*
X168287Y059657*
X168443Y059777*
X168563Y059934*
X168639Y060116*
X168665Y060312*
X168639Y060508*
X168563Y060690*
X168443Y060847*
X168295Y060961*
X168282Y060979*
X168280Y061104*
X168344Y061146*
X168477Y061346*
X168484Y061382*
X167908*
X167332*
X167339Y061346*
X167440Y061195*
X167378Y061068*
X166618*
X166618*
X166618*
X166065*
Y064189*
X166512Y064635*
X167386*
X167445Y064508*
X167343Y064356*
X167297Y064122*
X167343Y063888*
X167476Y063689*
X167674Y063557*
X167700Y063552*
Y063422*
X167674Y063417*
X167476Y063284*
X167343Y063086*
X167297Y062852*
X167343Y062618*
X167476Y062419*
X167674Y062287*
X167689Y062284*
Y062154*
X167673Y062151*
X167473Y062017*
X167339Y061818*
X167332Y061782*
X167908*
X168484*
X168477Y061818*
X168344Y062017*
X168144Y062151*
X168127Y062154*
Y062284*
X168142Y062287*
X168341Y062419*
X168473Y062618*
X168520Y062852*
X168473Y063086*
X168341Y063284*
X168142Y063417*
X168117Y063422*
Y063552*
X168142Y063557*
X168341Y063689*
X168473Y063888*
X168520Y064122*
X168473Y064356*
X168341Y064554*
X168264Y064606*
X168276Y064732*
X168287Y064737*
X168443Y064857*
X168563Y065014*
X168639Y065196*
X168665Y065392*
X168639Y065588*
X168563Y065770*
X168443Y065927*
X168287Y066047*
X168104Y066123*
X167908Y066148*
X166198*
X166198*
X166100Y066135*
X166002Y066123*
X165820Y066047*
X165663Y065927*
X164773Y065037*
X164653Y064880*
X164578Y064698*
X164552Y064502*
Y061068*
X145908*
Y061102*
X145865*
Y078381*
X145881Y078397*
X146008Y078342*
Y077927*
X147308*
Y077945*
X154294*
X154490Y077971*
X154673Y078047*
X154829Y078167*
X163016Y086354*
X163100Y086302*
X163500Y086136*
X163921Y086035*
X164352Y086001*
X164784Y086035*
X165205Y086136*
X165605Y086302*
X165974Y086528*
X166303Y086809*
X166584Y087138*
X166810Y087508*
X166976Y087907*
X167077Y088328*
X167111Y088760*
X167077Y089191*
X166976Y089612*
X166810Y090012*
X166584Y090381*
X166303Y090710*
X165974Y090992*
X165605Y091218*
X165205Y091383*
X164784Y091484*
X164352Y091518*
X163921Y091484*
X163500Y091383*
X163100Y091218*
X162731Y090992*
X162402Y090710*
X162121Y090381*
X161894Y090012*
X161729Y089612*
X161628Y089191*
X161594Y088760*
X161628Y088328*
X161729Y087907*
X161894Y087508*
X161946Y087423*
X153981Y079458*
X147308*
Y079477*
X146042*
X146008*
X145915Y079558*
Y085239*
X148793Y088117*
X148913Y088274*
X148989Y088456*
X149015Y088652*
Y090695*
X149142Y090704*
X149146Y090671*
X149235Y090456*
X149377Y090271*
X149562Y090129*
X149777Y090040*
X150008Y090009*
X150239Y090040*
X150455Y090129*
X150639Y090271*
X150781Y090456*
X150871Y090671*
X150901Y090902*
X150871Y091133*
X150781Y091348*
X150639Y091533*
X150467Y091665*
Y092427*
X150658*
Y092843*
X153158*
Y092240*
X156658*
Y092793*
X161158*
Y092240*
X164658*
Y094264*
X161158*
Y093711*
X156658*
Y094264*
X153158*
Y093761*
X150658*
Y093977*
X149358*
Y093513*
X149334Y093477*
X149299Y093302*
X149334Y093126*
X149358Y093091*
Y092427*
X149549*
Y091665*
X149377Y091533*
X149235Y091348*
X149146Y091133*
X149142Y091100*
X149015Y091109*
Y092427*
X149158*
Y093977*
X149015*
Y099577*
X149128Y099648*
X149142Y099647*
X149277Y099471*
X149462Y099329*
X149677Y099240*
X149908Y099209*
X150139Y099240*
X150355Y099329*
X150539Y099471*
X150681Y099656*
X150771Y099871*
X150801Y100102*
X150771Y100333*
X150681Y100548*
X150539Y100733*
X150367Y100865*
Y101427*
X150408*
Y101743*
X153158*
Y101240*
X156658*
Y101793*
X161158*
Y101240*
X164658*
Y103264*
X161158*
Y102711*
X156658*
Y103264*
X153158*
Y102661*
X150408*
Y102977*
X149142*
X149108*
X149015Y103058*
Y108495*
X149142Y108504*
X149146Y108471*
X149235Y108256*
X149377Y108071*
X149562Y107929*
X149777Y107840*
X150008Y107809*
X150239Y107840*
X150455Y107929*
X150639Y108071*
X150781Y108256*
X150871Y108471*
X150901Y108702*
X150871Y108933*
X150781Y109148*
X150639Y109333*
X150467Y109465*
Y110843*
X153158*
Y110240*
X156658*
Y110793*
X161158*
Y110240*
X164658*
Y112264*
G37*
G36*
X124248Y112118D02*
Y111332D01*
X125035*
X125026Y111394*
X124925Y111638*
X124764Y111848*
X124555Y112009*
X124310Y112110*
X124248Y112118*
G37*
G36*
X044728Y111948D02*
Y111162D01*
X045515*
X045506Y111224*
X045405Y111468*
X045244Y111678*
X045035Y111839*
X044790Y111940*
X044728Y111948*
G37*
G36*
X093895Y111552D02*
X093108D01*
Y110766*
X093170Y110774*
X093415Y110875*
X093624Y111036*
X093785Y111246*
X093886Y111490*
X093895Y111552*
G37*
G36*
X092708D02*
X091922D01*
X091930Y111490*
X092031Y111246*
X092192Y111036*
X092402Y110875*
X092646Y110774*
X092708Y110766*
Y111552*
G37*
G36*
X100895D02*
X100108D01*
Y110766*
X100170Y110774*
X100415Y110875*
X100624Y111036*
X100785Y111246*
X100886Y111490*
X100895Y111552*
G37*
G36*
X044328Y111948D02*
X044266Y111940D01*
X044022Y111839*
X043812Y111678*
X043651Y111468*
X043550Y111224*
X043542Y111162*
X044328*
Y111948*
G37*
G36*
X107895Y111592D02*
X107108D01*
Y110806*
X107170Y110814*
X107415Y110915*
X107624Y111076*
X107785Y111286*
X107886Y111530*
X107895Y111592*
G37*
G36*
X106708D02*
X105922D01*
X105930Y111530*
X106031Y111286*
X106192Y111076*
X106402Y110915*
X106646Y110814*
X106708Y110806*
Y111592*
G37*
G36*
X092008Y105277D02*
X090708D01*
Y103727*
X090899*
Y101302*
X090934Y101126*
X091034Y100977*
X091508Y100503*
Y099727*
X091699*
Y092652*
X091734Y092476*
X091834Y092327*
X105549Y078612*
Y078302*
X105584Y078126*
X105684Y077977*
X107244Y076417*
X107216Y076202*
X107246Y075971*
X107335Y075756*
X107477Y075571*
X107662Y075429*
X107877Y075340*
X108108Y075309*
X108339Y075340*
X108555Y075429*
X108739Y075571*
X108881Y075756*
X108971Y075971*
X109001Y076202*
X108971Y076433*
X108881Y076648*
X108739Y076833*
X108555Y076975*
X108339Y077064*
X108108Y077095*
X107893Y077066*
X106467Y078492*
Y078802*
X106432Y078977*
X106333Y079126*
X092617Y092842*
Y099727*
X092808*
Y101277*
X092032*
X091817Y101492*
Y103727*
X092008*
Y105277*
G37*
G36*
X136105Y076032D02*
X135318D01*
Y075246*
X135380Y075254*
X135625Y075355*
X135834Y075516*
X135995Y075726*
X136096Y075970*
X136105Y076032*
G37*
G36*
X134918D02*
X134132D01*
X134140Y075970*
X134241Y075726*
X134402Y075516*
X134612Y075355*
X134856Y075254*
X134918Y075246*
Y076032*
G37*
G36*
X072208Y076681D02*
X071754D01*
Y076102*
X072208*
Y076681*
G37*
G36*
X019479Y076602D02*
X018808D01*
Y075932*
X018840Y075936*
X019057Y076025*
X019242Y076168*
X019385Y076354*
X019474Y076570*
X019479Y076602*
G37*
G36*
X018408D02*
X017738D01*
X017742Y076570*
X017832Y076354*
X017974Y076168*
X018160Y076025*
X018376Y075936*
X018408Y075932*
Y076602*
G37*
G36*
X137658Y077241D02*
X137397Y077206D01*
X137154Y077105*
X136945Y076945*
X136785Y076736*
X136684Y076493*
X136650Y076232*
X136684Y075971*
X136785Y075728*
X136945Y075519*
X137154Y075358*
X137397Y075258*
X137658Y075223*
X137919Y075258*
X138163Y075358*
X138371Y075519*
X138532Y075728*
X138633Y075971*
X138667Y076232*
X138633Y076493*
X138532Y076736*
X138371Y076945*
X138163Y077105*
X137919Y077206*
X137658Y077241*
G37*
G36*
X114808Y075702D02*
X114138D01*
X114142Y075670*
X114232Y075454*
X114374Y075268*
X114560Y075125*
X114776Y075036*
X114808Y075032*
Y075702*
G37*
G36*
X054708Y075472D02*
Y074802D01*
X055379*
X055374Y074834*
X055285Y075050*
X055142Y075236*
X054957Y075378*
X054740Y075468*
X054708Y075472*
G37*
G36*
X054308D02*
X054276Y075468D01*
X054060Y075378*
X053874Y075236*
X053732Y075050*
X053642Y074834*
X053638Y074802*
X054308*
Y075472*
G37*
G36*
X073062Y075702D02*
X072608D01*
Y075123*
X073062*
Y075702*
G37*
G36*
X072208D02*
X071754D01*
Y075123*
X072208*
Y075702*
G37*
G36*
X115879D02*
X115208D01*
Y075032*
X115240Y075036*
X115457Y075125*
X115642Y075268*
X115785Y075454*
X115874Y075670*
X115879Y075702*
G37*
G36*
X073062Y076681D02*
X072608D01*
Y076102*
X073062*
Y076681*
G37*
G36*
X137658Y079781D02*
X137397Y079746D01*
X137154Y079645*
X136945Y079485*
X136785Y079276*
X136684Y079033*
X136650Y078772*
X136684Y078511*
X136785Y078268*
X136945Y078059*
X137154Y077898*
X137397Y077798*
X137658Y077763*
X137919Y077798*
X138163Y077898*
X138371Y078059*
X138532Y078268*
X138633Y078511*
X138667Y078772*
X138633Y079033*
X138532Y079276*
X138371Y079485*
X138163Y079645*
X137919Y079746*
X137658Y079781*
G37*
G36*
X135118D02*
X134857Y079746D01*
X134614Y079645*
X134405Y079485*
X134245Y079276*
X134144Y079033*
X134110Y078772*
X134144Y078511*
X134245Y078268*
X134405Y078059*
X134614Y077898*
X134857Y077798*
X135118Y077763*
X135379Y077798*
X135623Y077898*
X135831Y078059*
X135992Y078268*
X136093Y078511*
X136127Y078772*
X136093Y079033*
X135992Y079276*
X135831Y079485*
X135623Y079645*
X135379Y079746*
X135118Y079781*
G37*
G36*
X102912Y078156D02*
X102308D01*
Y077602*
X102912*
Y078156*
G37*
G36*
X092008Y079672D02*
X091976Y079668D01*
X091760Y079578*
X091574Y079436*
X091432Y079250*
X091342Y079034*
X091338Y079002*
X092008*
Y079672*
G37*
G36*
X093079Y078602D02*
X092408D01*
Y077932*
X092440Y077936*
X092657Y078025*
X092842Y078168*
X092985Y078354*
X093074Y078570*
X093079Y078602*
G37*
G36*
X092008D02*
X091338D01*
X091342Y078570*
X091432Y078354*
X091574Y078168*
X091760Y078025*
X091976Y077936*
X092008Y077932*
Y078602*
G37*
G36*
X101908Y078156D02*
X101304D01*
Y077602*
X101908*
Y078156*
G37*
G36*
X134918Y077218D02*
X134856Y077210D01*
X134612Y077109*
X134402Y076948*
X134241Y076738*
X134140Y076494*
X134132Y076432*
X134918*
Y077218*
G37*
G36*
X115208Y076772D02*
Y076102D01*
X115879*
X115874Y076134*
X115785Y076350*
X115642Y076536*
X115457Y076678*
X115240Y076768*
X115208Y076772*
G37*
G36*
X114808D02*
X114776Y076768D01*
X114560Y076678*
X114374Y076536*
X114232Y076350*
X114142Y076134*
X114138Y076102*
X114808*
Y076772*
G37*
G36*
X018808Y077672D02*
Y077002D01*
X019479*
X019474Y077034*
X019385Y077250*
X019242Y077436*
X019057Y077578*
X018840Y077668*
X018808Y077672*
G37*
G36*
X018408D02*
X018376Y077668D01*
X018160Y077578*
X017974Y077436*
X017832Y077250*
X017742Y077034*
X017738Y077002*
X018408*
Y077672*
G37*
G36*
X135318Y077218D02*
Y076432D01*
X136105*
X136096Y076494*
X135995Y076738*
X135834Y076948*
X135625Y077109*
X135380Y077210*
X135318Y077218*
G37*
G36*
X106108Y105177D02*
X104808D01*
Y103627*
X104999*
Y101242*
X105034Y101066*
X105134Y100917*
X105508Y100543*
Y099767*
X105699*
Y083752*
X105734Y083576*
X105834Y083427*
X110984Y078277*
X111133Y078178*
X111308Y078143*
X117718*
X122544Y073317*
X122516Y073102*
X122546Y072871*
X122635Y072656*
X122777Y072471*
X122962Y072329*
X123177Y072240*
X123408Y072209*
X123639Y072240*
X123855Y072329*
X124039Y072471*
X124181Y072656*
X124270Y072871*
X124301Y073102*
X124270Y073333*
X124181Y073548*
X124039Y073733*
X123855Y073875*
X123639Y073964*
X123408Y073995*
X123193Y073966*
X118233Y078926*
X118084Y079026*
X117908Y079061*
X114374*
X114331Y079188*
X114439Y079271*
X114572Y079443*
X120118*
X123844Y075717*
X123816Y075502*
X123846Y075271*
X123935Y075056*
X124077Y074871*
X124262Y074729*
X124477Y074640*
X124708Y074609*
X124939Y074640*
X125155Y074729*
X125339Y074871*
X125481Y075056*
X125571Y075271*
X125601Y075502*
X125571Y075733*
X125481Y075948*
X125339Y076133*
X125155Y076275*
X124939Y076364*
X124708Y076395*
X124493Y076366*
X120633Y080226*
X120484Y080326*
X120308Y080361*
X114572*
X114439Y080533*
X114255Y080675*
X114039Y080764*
X113808Y080795*
X113577Y080764*
X113362Y080675*
X113177Y080533*
X113035Y080348*
X112946Y080133*
X112916Y079902*
X112946Y079671*
X113035Y079456*
X113177Y079271*
X113285Y079188*
X113242Y079061*
X111498*
X106617Y083942*
Y099767*
X106808*
Y101317*
X106032*
X105917Y101432*
Y103627*
X106108*
Y105177*
G37*
G36*
X070408Y070306D02*
X069579D01*
Y069502*
X070408*
Y070306*
G37*
G36*
X149079Y069302D02*
X148408D01*
Y068632*
X148440Y068636*
X148657Y068725*
X148842Y068868*
X148985Y069054*
X149074Y069270*
X149079Y069302*
G37*
G36*
X148008D02*
X147338D01*
X147342Y069270*
X147432Y069054*
X147574Y068868*
X147760Y068725*
X147976Y068636*
X148008Y068632*
Y069302*
G37*
G36*
X148408Y070372D02*
Y069702D01*
X149079*
X149074Y069734*
X148985Y069950*
X148842Y070136*
X148657Y070278*
X148440Y070368*
X148408Y070372*
G37*
G36*
X148008D02*
X147976Y070368D01*
X147760Y070278*
X147574Y070136*
X147432Y069950*
X147342Y069734*
X147338Y069702*
X148008*
Y070372*
G37*
G36*
X071637Y070306D02*
X070808D01*
Y069502*
X071637*
Y070306*
G37*
G36*
X030512Y068681D02*
X029208D01*
Y068102*
X030512*
Y068681*
G37*
G36*
X118708Y068272D02*
Y067602D01*
X119379*
X119374Y067634*
X119285Y067850*
X119142Y068036*
X118957Y068178*
X118740Y068268*
X118708Y068272*
G37*
G36*
X118308D02*
X118276Y068268D01*
X118060Y068178*
X117874Y068036*
X117732Y067850*
X117642Y067634*
X117638Y067602*
X118308*
Y068272*
G37*
G36*
X030512Y067702D02*
X029208D01*
Y067123*
X030512*
Y067702*
G37*
G36*
X028808Y068681D02*
X027504D01*
Y068102*
X028808*
Y068681*
G37*
G36*
X137658Y069621D02*
X137397Y069586D01*
X137154Y069485*
X136945Y069325*
X136785Y069116*
X136684Y068873*
X136650Y068612*
X136684Y068351*
X136785Y068108*
X136945Y067899*
X137154Y067738*
X137397Y067638*
X137658Y067603*
X137919Y067638*
X138163Y067738*
X138371Y067899*
X138532Y068108*
X138633Y068351*
X138667Y068612*
X138633Y068873*
X138532Y069116*
X138371Y069325*
X138163Y069485*
X137919Y069586*
X137658Y069621*
G37*
G36*
X135118D02*
X134857Y069586D01*
X134614Y069485*
X134405Y069325*
X134245Y069116*
X134144Y068873*
X134110Y068612*
X134144Y068351*
X134245Y068108*
X134405Y067899*
X134614Y067738*
X134857Y067638*
X135118Y067603*
X135379Y067638*
X135623Y067738*
X135831Y067899*
X135992Y068108*
X136093Y068351*
X136127Y068612*
X136093Y068873*
X135992Y069116*
X135831Y069325*
X135623Y069485*
X135379Y069586*
X135118Y069621*
G37*
G36*
Y072161D02*
X134857Y072126D01*
X134614Y072025*
X134405Y071865*
X134245Y071656*
X134144Y071413*
X134110Y071152*
X134144Y070891*
X134245Y070648*
X134405Y070439*
X134614Y070278*
X134857Y070178*
X135118Y070143*
X135379Y070178*
X135623Y070278*
X135831Y070439*
X135992Y070648*
X136093Y070891*
X136127Y071152*
X136093Y071413*
X135992Y071656*
X135831Y071865*
X135623Y072025*
X135379Y072126*
X135118Y072161*
G37*
G36*
X082008Y074272D02*
X081976Y074268D01*
X081760Y074178*
X081574Y074036*
X081432Y073850*
X081342Y073634*
X081338Y073602*
X082008*
Y074272*
G37*
G36*
X137658Y074701D02*
X137397Y074666D01*
X137154Y074565*
X136945Y074405*
X136785Y074196*
X136684Y073953*
X136650Y073692*
X136684Y073431*
X136785Y073188*
X136945Y072979*
X137154Y072818*
X137397Y072718*
X137658Y072683*
X137919Y072718*
X138163Y072818*
X138371Y072979*
X138532Y073188*
X138633Y073431*
X138667Y073692*
X138633Y073953*
X138532Y074196*
X138371Y074405*
X138163Y074565*
X137919Y074666*
X137658Y074701*
G37*
G36*
X135118D02*
X134857Y074666D01*
X134614Y074565*
X134405Y074405*
X134245Y074196*
X134144Y073953*
X134110Y073692*
X134144Y073431*
X134245Y073188*
X134405Y072979*
X134614Y072818*
X134857Y072718*
X135118Y072683*
X135379Y072718*
X135623Y072818*
X135831Y072979*
X135992Y073188*
X136093Y073431*
X136127Y073692*
X136093Y073953*
X135992Y074196*
X135831Y074405*
X135623Y074565*
X135379Y074666*
X135118Y074701*
G37*
G36*
X055379Y074402D02*
X054708D01*
Y073732*
X054740Y073736*
X054957Y073825*
X055142Y073968*
X055285Y074154*
X055374Y074370*
X055379Y074402*
G37*
G36*
X054308D02*
X053638D01*
X053642Y074370*
X053732Y074154*
X053874Y073968*
X054060Y073825*
X054276Y073736*
X054308Y073732*
Y074402*
G37*
G36*
X082408Y074272D02*
Y073602D01*
X083079*
X083074Y073634*
X082985Y073850*
X082842Y074036*
X082657Y074178*
X082440Y074268*
X082408Y074272*
G37*
G36*
X083079Y073202D02*
X082408D01*
Y072532*
X082440Y072536*
X082657Y072625*
X082842Y072768*
X082985Y072954*
X083074Y073170*
X083079Y073202*
G37*
G36*
X137458Y072138D02*
X137396Y072130D01*
X137152Y072029*
X136942Y071868*
X136781Y071658*
X136680Y071414*
X136672Y071352*
X137458*
Y072138*
G37*
G36*
X138645Y070952D02*
X137858D01*
Y070166*
X137920Y070174*
X138165Y070275*
X138374Y070436*
X138535Y070646*
X138636Y070890*
X138645Y070952*
G37*
G36*
X137458D02*
X136672D01*
X136680Y070890*
X136781Y070646*
X136942Y070436*
X137152Y070275*
X137396Y070174*
X137458Y070166*
Y070952*
G37*
G36*
X082008Y073202D02*
X081338D01*
X081342Y073170*
X081432Y072954*
X081574Y072768*
X081760Y072625*
X081976Y072536*
X082008Y072532*
Y073202*
G37*
G36*
X071558Y076677D02*
X070258D01*
Y075127*
X070449*
Y073277*
X070258*
Y071727*
X071558*
Y073277*
X071367*
Y075127*
X071558*
Y076677*
G37*
G36*
X137858Y072138D02*
Y071352D01*
X138645*
X138636Y071414*
X138535Y071658*
X138374Y071868*
X138165Y072029*
X137920Y072130*
X137858Y072138*
G37*
G36*
X092408Y079672D02*
Y079002D01*
X093079*
X093074Y079034*
X092985Y079250*
X092842Y079436*
X092657Y079578*
X092440Y079668*
X092408Y079672*
G37*
G36*
X111308Y089802D02*
X110638D01*
X110642Y089770*
X110732Y089554*
X110874Y089368*
X111060Y089225*
X111276Y089136*
X111308Y089132*
Y089802*
G37*
G36*
X154483Y091539D02*
Y088992D01*
X157030*
X157012Y089224*
X156911Y089646*
X156745Y090046*
X156518Y090416*
X156237Y090745*
X155907Y091027*
X155537Y091253*
X155137Y091419*
X154715Y091520*
X154483Y091539*
G37*
G36*
X154083D02*
X153851Y091520D01*
X153430Y091419*
X153029Y091253*
X152660Y091027*
X152330Y090745*
X152048Y090416*
X151822Y090046*
X151656Y089646*
X151555Y089224*
X151537Y088992*
X154083*
Y091539*
G37*
G36*
X137858Y089918D02*
Y089132D01*
X138645*
X138636Y089194*
X138535Y089438*
X138374Y089648*
X138165Y089809*
X137920Y089910*
X137858Y089918*
G37*
G36*
X137458D02*
X137396Y089910D01*
X137152Y089809*
X136942Y089648*
X136781Y089438*
X136680Y089194*
X136672Y089132*
X137458*
Y089918*
G37*
G36*
X112379Y089802D02*
X111708D01*
Y089132*
X111740Y089136*
X111957Y089225*
X112142Y089368*
X112285Y089554*
X112374Y089770*
X112379Y089802*
G37*
G36*
X138645Y088732D02*
X137858D01*
Y087946*
X137920Y087954*
X138165Y088055*
X138374Y088216*
X138535Y088426*
X138636Y088670*
X138645Y088732*
G37*
G36*
X118208Y088372D02*
X118176Y088368D01*
X117960Y088278*
X117774Y088136*
X117632Y087950*
X117542Y087734*
X117538Y087702*
X118208*
Y088372*
G37*
G36*
X121408Y088272D02*
Y087602D01*
X122079*
X122074Y087634*
X121985Y087850*
X121842Y088036*
X121657Y088178*
X121440Y088268*
X121408Y088272*
G37*
G36*
X121008D02*
X120976Y088268D01*
X120760Y088178*
X120574Y088036*
X120432Y087850*
X120342Y087634*
X120338Y087602*
X121008*
Y088272*
G37*
G36*
X137458Y088732D02*
X136672D01*
X136680Y088670*
X136781Y088426*
X136942Y088216*
X137152Y088055*
X137396Y087954*
X137458Y087946*
Y088732*
G37*
G36*
X135118Y089941D02*
X134857Y089906D01*
X134614Y089805*
X134405Y089645*
X134245Y089436*
X134144Y089193*
X134110Y088932*
X134144Y088671*
X134245Y088428*
X134405Y088219*
X134614Y088058*
X134857Y087958*
X135118Y087923*
X135379Y087958*
X135623Y088058*
X135831Y088219*
X135992Y088428*
X136093Y088671*
X136127Y088932*
X136093Y089193*
X135992Y089436*
X135831Y089645*
X135623Y089805*
X135379Y089906*
X135118Y089941*
G37*
G36*
X118608Y088372D02*
Y087702D01*
X119279*
X119274Y087734*
X119185Y087950*
X119042Y088136*
X118857Y088278*
X118640Y088368*
X118608Y088372*
G37*
G36*
X134058Y104045D02*
X133827Y104014D01*
X133612Y103925*
X133427Y103783*
X133285Y103598*
X133196Y103383*
X133166Y103152*
X133196Y102921*
X133285Y102706*
X133427Y102521*
X133612Y102379*
X133827Y102290*
X134058Y102259*
X134274Y102288*
X143949Y092612*
Y091565*
X143777Y091433*
X143635Y091248*
X143546Y091033*
X143516Y090802*
X143546Y090571*
X143635Y090356*
X143777Y090171*
X143962Y090029*
X144177Y089940*
X144408Y089909*
X144639Y089940*
X144855Y090029*
X145039Y090171*
X145181Y090356*
X145271Y090571*
X145301Y090802*
X145271Y091033*
X145181Y091248*
X145039Y091433*
X144867Y091565*
Y092802*
X144832Y092977*
X144733Y093126*
X134923Y102936*
X134951Y103152*
X134921Y103383*
X134831Y103598*
X134689Y103783*
X134505Y103925*
X134289Y104014*
X134058Y104045*
G37*
G36*
X102808Y092572D02*
Y091902D01*
X103479*
X103474Y091934*
X103385Y092150*
X103242Y092336*
X103057Y092478*
X102840Y092568*
X102808Y092572*
G37*
G36*
X102408D02*
X102376Y092568D01*
X102160Y092478*
X101974Y092336*
X101832Y092150*
X101742Y091934*
X101738Y091902*
X102408*
Y092572*
G37*
G36*
X103479Y091502D02*
X102808D01*
Y090832*
X102840Y090836*
X103057Y090925*
X103242Y091068*
X103385Y091254*
X103474Y091470*
X103479Y091502*
G37*
G36*
X050808Y094102D02*
X050138D01*
X050142Y094070*
X050232Y093854*
X050374Y093668*
X050560Y093525*
X050776Y093436*
X050808Y093432*
Y094102*
G37*
G36*
X096579Y093302D02*
X095908D01*
Y092632*
X095940Y092636*
X096157Y092725*
X096342Y092868*
X096485Y093054*
X096574Y093270*
X096579Y093302*
G37*
G36*
X095508D02*
X094838D01*
X094842Y093270*
X094932Y093054*
X095074Y092868*
X095260Y092725*
X095476Y092636*
X095508Y092632*
Y093302*
G37*
G36*
X102408Y091502D02*
X101738D01*
X101742Y091470*
X101832Y091254*
X101974Y091068*
X102160Y090925*
X102376Y090836*
X102408Y090832*
Y091502*
G37*
G36*
X087208Y093552D02*
X084160D01*
X084184Y093241*
X084304Y092743*
X084500Y092270*
X084768Y091833*
X085100Y091444*
X085490Y091111*
X085926Y090844*
X086400Y090648*
X086898Y090528*
X087208Y090504*
Y093552*
G37*
G36*
X111708Y090872D02*
Y090202D01*
X112379*
X112374Y090234*
X112285Y090450*
X112142Y090636*
X111957Y090778*
X111740Y090868*
X111708Y090872*
G37*
G36*
X111308D02*
X111276Y090868D01*
X111060Y090778*
X110874Y090636*
X110732Y090450*
X110642Y090234*
X110638Y090202*
X111308*
Y090872*
G37*
G36*
X139657Y093552D02*
X136608D01*
Y090504*
X136919Y090528*
X137417Y090648*
X137890Y090844*
X138327Y091111*
X138716Y091444*
X139049Y091833*
X139317Y092270*
X139513Y092743*
X139632Y093241*
X139657Y093552*
G37*
G36*
X136208D02*
X133160D01*
X133184Y093241*
X133304Y092743*
X133500Y092270*
X133768Y091833*
X134100Y091444*
X134490Y091111*
X134926Y090844*
X135400Y090648*
X135898Y090528*
X136208Y090504*
Y093552*
G37*
G36*
X090657D02*
X087608D01*
Y090504*
X087919Y090528*
X088417Y090648*
X088890Y090844*
X089327Y091111*
X089716Y091444*
X090049Y091833*
X090317Y092270*
X090513Y092743*
X090632Y093241*
X090657Y093552*
G37*
G36*
X126208Y088072D02*
Y087402D01*
X126879*
X126874Y087434*
X126785Y087650*
X126642Y087836*
X126457Y087978*
X126240Y088068*
X126208Y088072*
G37*
G36*
X135118Y084861D02*
X134857Y084826D01*
X134614Y084725*
X134405Y084565*
X134245Y084356*
X134144Y084113*
X134110Y083852*
X134144Y083591*
X134245Y083348*
X134405Y083139*
X134614Y082978*
X134857Y082878*
X135118Y082843*
X135379Y082878*
X135623Y082978*
X135831Y083139*
X135992Y083348*
X136093Y083591*
X136127Y083852*
X136093Y084113*
X135992Y084356*
X135831Y084565*
X135623Y084725*
X135379Y084826*
X135118Y084861*
G37*
G36*
X092679Y082602D02*
X092008D01*
Y081932*
X092040Y081936*
X092257Y082025*
X092442Y082168*
X092585Y082354*
X092674Y082570*
X092679Y082602*
G37*
G36*
X091608D02*
X090938D01*
X090942Y082570*
X091032Y082354*
X091174Y082168*
X091360Y082025*
X091576Y081936*
X091608Y081932*
Y082602*
G37*
G36*
X092008Y083672D02*
Y083002D01*
X092679*
X092674Y083034*
X092585Y083250*
X092442Y083436*
X092257Y083578*
X092040Y083668*
X092008Y083672*
G37*
G36*
X091608D02*
X091576Y083668D01*
X091360Y083578*
X091174Y083436*
X091032Y083250*
X090942Y083034*
X090938Y083002*
X091608*
Y083672*
G37*
G36*
X137658Y084861D02*
X137397Y084826D01*
X137154Y084725*
X136945Y084565*
X136785Y084356*
X136684Y084113*
X136650Y083852*
X136684Y083591*
X136785Y083348*
X136945Y083139*
X137154Y082978*
X137397Y082878*
X137658Y082843*
X137919Y082878*
X138163Y082978*
X138371Y083139*
X138532Y083348*
X138633Y083591*
X138667Y083852*
X138633Y084113*
X138532Y084356*
X138371Y084565*
X138163Y084725*
X137919Y084826*
X137658Y084861*
G37*
G36*
X135318Y082298D02*
Y081512D01*
X136105*
X136096Y081574*
X135995Y081818*
X135834Y082028*
X135625Y082189*
X135380Y082290*
X135318Y082298*
G37*
G36*
X136105Y081112D02*
X135318D01*
Y080326*
X135380Y080334*
X135625Y080435*
X135834Y080596*
X135995Y080806*
X136096Y081050*
X136105Y081112*
G37*
G36*
X134918D02*
X134132D01*
X134140Y081050*
X134241Y080806*
X134402Y080596*
X134612Y080435*
X134856Y080334*
X134918Y080326*
Y081112*
G37*
G36*
X137658Y082321D02*
X137397Y082286D01*
X137154Y082185*
X136945Y082025*
X136785Y081816*
X136684Y081573*
X136650Y081312*
X136684Y081051*
X136785Y080808*
X136945Y080599*
X137154Y080438*
X137397Y080338*
X137658Y080303*
X137919Y080338*
X138163Y080438*
X138371Y080599*
X138532Y080808*
X138633Y081051*
X138667Y081312*
X138633Y081573*
X138532Y081816*
X138371Y082025*
X138163Y082185*
X137919Y082286*
X137658Y082321*
G37*
G36*
X134918Y082298D02*
X134856Y082290D01*
X134612Y082189*
X134402Y082028*
X134241Y081818*
X134140Y081574*
X134132Y081512*
X134918*
Y082298*
G37*
G36*
X029362Y083002D02*
X027808D01*
Y080448*
X029362*
Y083002*
G37*
G36*
X027408D02*
X025854D01*
Y080448*
X027408*
Y083002*
G37*
G36*
Y085956D02*
X025854D01*
Y083402*
X027408*
Y085956*
G37*
G36*
X122079Y087202D02*
X121408D01*
Y086532*
X121440Y086536*
X121657Y086625*
X121842Y086768*
X121985Y086954*
X122074Y087170*
X122079Y087202*
G37*
G36*
X121008D02*
X120338D01*
X120342Y087170*
X120432Y086954*
X120574Y086768*
X120760Y086625*
X120976Y086536*
X121008Y086532*
Y087202*
G37*
G36*
X126879Y087002D02*
X126208D01*
Y086332*
X126240Y086336*
X126457Y086425*
X126642Y086568*
X126785Y086754*
X126874Y086970*
X126879Y087002*
G37*
G36*
X125808Y088072D02*
X125776Y088068D01*
X125560Y087978*
X125374Y087836*
X125232Y087650*
X125142Y087434*
X125138Y087402*
X125808*
Y088072*
G37*
G36*
X119279Y087302D02*
X118608D01*
Y086632*
X118640Y086636*
X118857Y086725*
X119042Y086868*
X119185Y087054*
X119274Y087270*
X119279Y087302*
G37*
G36*
X118208D02*
X117538D01*
X117542Y087270*
X117632Y087054*
X117774Y086868*
X117960Y086725*
X118176Y086636*
X118208Y086632*
Y087302*
G37*
G36*
X125808Y087002D02*
X125138D01*
X125142Y086970*
X125232Y086754*
X125374Y086568*
X125560Y086425*
X125776Y086336*
X125808Y086332*
Y087002*
G37*
G36*
X135118Y087401D02*
X134857Y087366D01*
X134614Y087265*
X134405Y087105*
X134245Y086896*
X134144Y086653*
X134110Y086392*
X134144Y086131*
X134245Y085888*
X134405Y085679*
X134614Y085518*
X134857Y085418*
X135118Y085383*
X135379Y085418*
X135623Y085518*
X135831Y085679*
X135992Y085888*
X136093Y086131*
X136127Y086392*
X136093Y086653*
X135992Y086896*
X135831Y087105*
X135623Y087265*
X135379Y087366*
X135118Y087401*
G37*
G36*
X037908Y111962D02*
X035908D01*
Y109962*
X036152*
Y097402*
X036178Y097206*
X036253Y097024*
X036373Y096867*
X040352Y092889*
Y086302*
Y068677*
X038108*
Y066958*
X035065*
Y071802*
Y071802*
X035052Y071900*
X035039Y071998*
X034963Y072180*
X034843Y072337*
X032443Y074737*
X032287Y074857*
X032104Y074933*
X031908Y074958*
X029358*
Y076952*
X025858*
Y071452*
X029358*
Y073445*
X031595*
X033552Y071489*
Y066958*
X030508*
Y066977*
X027508*
Y065427*
X030508*
Y065445*
X038108*
Y064327*
X044108*
Y064915*
X049971*
Y062002*
X049833*
Y060702*
X051383*
Y062002*
X051246*
Y064915*
X054752*
Y050070*
X054735Y050048*
X054646Y049833*
X054616Y049602*
X054646Y049371*
X054735Y049156*
X054877Y048971*
X055062Y048829*
X055277Y048740*
X055508Y048709*
X055739Y048740*
X055955Y048829*
X056139Y048971*
X056281Y049156*
X056371Y049371*
X056401Y049602*
X056371Y049833*
X056281Y050048*
X056265Y050070*
Y064915*
X059452*
Y062102*
X059183*
Y060306*
X059179*
Y059502*
X060208*
X061237*
Y060306*
X061233*
Y062102*
X060965*
Y064915*
X061471*
Y064602*
X061520Y064358*
X061658Y064151*
X061864Y064013*
X062108Y063965*
X064633*
X064877Y064013*
X065084Y064151*
X065952Y065020*
X066023Y065034*
X066205Y065155*
X066326Y065337*
X066369Y065552*
X066326Y065767*
X066205Y065948*
X066186Y065977*
Y066088*
X066208Y066102*
X066330Y066286*
X066333Y066302*
X065583*
Y066702*
X066333*
X066330Y066718*
X066292Y066775*
X066358Y066902*
Y068002*
X065934*
X065184Y068752*
X064977Y068891*
X064733Y068939*
X062108*
X061864Y068891*
X061658Y068752*
X061520Y068546*
X061471Y068302*
Y066189*
X060610*
X060587Y066207*
X060404Y066283*
X060208Y066308*
X060013Y066283*
X059830Y066207*
X059807Y066189*
X055910*
X055887Y066207*
X055704Y066283*
X055508Y066308*
X055312Y066283*
X055130Y066207*
X055107Y066189*
X044108*
Y068677*
X041865*
Y085445*
X065340*
X065362Y085429*
X065577Y085340*
X065808Y085309*
X066039Y085340*
X066255Y085429*
X066439Y085571*
X066581Y085756*
X066671Y085971*
X066701Y086202*
X066671Y086433*
X066581Y086648*
X066439Y086833*
X066255Y086975*
X066039Y087064*
X065808Y087095*
X065577Y087064*
X065362Y086975*
X065340Y086958*
X041865*
Y093202*
X041852Y093300*
X041839Y093398*
X041763Y093580*
X041643Y093737*
X037665Y097715*
Y109962*
X037908*
Y111962*
G37*
G36*
X029362Y085956D02*
X027808D01*
Y083402*
X029362*
Y085956*
G37*
G36*
X157030Y088592D02*
X154483D01*
Y086045*
X154715Y086063*
X155137Y086165*
X155537Y086330*
X155907Y086557*
X156237Y086838*
X156518Y087168*
X156745Y087538*
X156911Y087938*
X157012Y088360*
X157030Y088592*
G37*
G36*
X154083D02*
X151537D01*
X151555Y088360*
X151656Y087938*
X151822Y087538*
X152048Y087168*
X152330Y086838*
X152660Y086557*
X153029Y086330*
X153430Y086165*
X153851Y086063*
X154083Y086045*
Y088592*
G37*
G36*
X137658Y087401D02*
X137397Y087366D01*
X137154Y087265*
X136945Y087105*
X136785Y086896*
X136684Y086653*
X136650Y086392*
X136684Y086131*
X136785Y085888*
X136945Y085679*
X137154Y085518*
X137397Y085418*
X137658Y085383*
X137919Y085418*
X138163Y085518*
X138371Y085679*
X138532Y085888*
X138633Y086131*
X138667Y086392*
X138633Y086653*
X138532Y086896*
X138371Y087105*
X138163Y087265*
X137919Y087366*
X137658Y087401*
G37*
%LNfilm_top-4*%
%LPC*%
G36*
X098849Y082412D02*
Y071502D01*
X098884Y071326*
X098984Y071177*
X100870Y069291*
X100846Y069233*
X100816Y069002*
X100846Y068771*
X100935Y068556*
X101077Y068371*
X101262Y068229*
X101477Y068140*
X101708Y068109*
X101939Y068140*
X102100Y068206*
X102172Y068098*
X101266Y067193*
X101080Y067007*
X100983Y066861*
X100949Y066689*
Y065663*
X100983Y065491*
X101080Y065346*
X101266Y065160*
X102219Y064207*
Y063529*
X102053Y063496*
X101880Y063380*
X101764Y063207*
X101723Y063002*
X101764Y062797*
X101827Y062703*
X101877Y062583*
X101760Y062408*
X101752Y062366*
X101630Y062329*
X101433Y062526*
X101284Y062626*
X101108Y062661*
X099098*
X098037Y063722*
X098055Y063774*
X098102Y063836*
X098308Y063809*
X098539Y063840*
X098755Y063929*
X098939Y064071*
X099081Y064256*
X099170Y064471*
X099201Y064702*
X099170Y064933*
X099081Y065148*
X098939Y065333*
X098755Y065475*
X098539Y065564*
X098308Y065595*
X098093Y065566*
X095967Y067692*
Y082306*
X096090Y082374*
X096112Y082360*
X096149Y082319*
Y068702*
X096184Y068526*
X096284Y068377*
X097499Y067162*
X097446Y067033*
X097416Y066802*
X097446Y066571*
X097535Y066356*
X097677Y066171*
X097862Y066029*
X098077Y065940*
X098308Y065909*
X098539Y065940*
X098755Y066029*
X098939Y066171*
X099081Y066356*
X099170Y066571*
X099201Y066802*
X099170Y067033*
X099159Y067062*
X099248Y067152*
X099277Y067140*
X099508Y067109*
X099739Y067140*
X099955Y067229*
X100139Y067371*
X100281Y067556*
X100371Y067771*
X100401Y068002*
X100371Y068233*
X100281Y068448*
X100139Y068633*
X099955Y068775*
X099739Y068864*
X099508Y068895*
X099293Y068866*
X098567Y069592*
Y082302*
X098532Y082477*
X098433Y082626*
X092479Y088580*
X092521Y088718*
X092540Y088722*
X098849Y082412*
G37*
G36*
X097649Y082112D02*
Y069402D01*
X097684Y069226*
X097784Y069077*
X098644Y068217*
X098616Y068002*
X098646Y067771*
X098658Y067742*
X098568Y067652*
X098539Y067664*
X098308Y067695*
X098270Y067689*
X097067Y068892*
Y082515*
X097162Y082566*
X097190Y082571*
X097649Y082112*
G37*
G36*
X107080Y069291D02*
X106877Y069264D01*
X106662Y069175*
X106477Y069033*
X106335Y068848*
X106246Y068633*
X106215Y068402*
X106230Y068293*
X106117Y068180*
X106008Y068195*
X105777Y068164*
X105562Y068075*
X105377Y067933*
X105235Y067748*
X105146Y067533*
X105116Y067302*
X105146Y067071*
X105235Y066856*
X105377Y066671*
X105562Y066529*
X105777Y066440*
X106008Y066409*
X106224Y066438*
X106449Y066212*
Y065790*
X106337Y065730*
X106313Y065746*
X106108Y065787*
X105903Y065746*
X105730Y065630*
X105687*
X105513Y065746*
X105308Y065787*
X105103Y065746*
X104930Y065630*
X104887*
X104713Y065746*
X104508Y065787*
X104303Y065746*
X104130Y065630*
X104014Y065457*
X103981Y065292*
X103303*
X102482Y066112*
Y066240*
X105659Y069418*
X107072*
X107080Y069291*
G37*
G36*
X088680Y073681D02*
X088662Y073629D01*
X088614Y073567*
X088408Y073595*
X088177Y073564*
X088119Y073540*
X059823Y101836*
X059876Y101963*
X060398*
X088680Y073681*
G37*
G36*
X108669Y071593D02*
X108817Y071493D01*
X108993Y071458*
X110630*
X110762Y071286*
X110947Y071144*
X111106Y071078*
X111081Y070951*
X109469*
X109417Y070961*
X109217*
X109217Y070962*
X107800*
X107747Y070951*
X105210*
X105038Y070917*
X104893Y070819*
X102612Y068539*
X102504Y068610*
X102571Y068771*
X102601Y069002*
X102571Y069233*
X102481Y069448*
X102339Y069633*
X102155Y069775*
X101939Y069864*
X101708Y069895*
X101581Y069878*
X099767Y071692*
Y075118*
X099894Y075181*
X099962Y075129*
X100177Y075040*
X100408Y075009*
X100639Y075040*
X100855Y075129*
X101039Y075271*
X101181Y075456*
X101308Y075430*
Y075202*
X101332Y075075*
X101235Y074948*
X101146Y074733*
X101116Y074502*
X101146Y074271*
X101235Y074056*
X101377Y073871*
X101562Y073729*
X101777Y073640*
X102008Y073609*
X102239Y073640*
X102455Y073729*
X102639Y073871*
X102781Y074056*
X102871Y074271*
X102901Y074502*
X102871Y074733*
X102781Y074948*
X102684Y075075*
X102747Y075202*
X102908*
Y075543*
X104718*
X108669Y071593*
G37*
G36*
X092144Y075317D02*
X092116Y075102D01*
X092143Y074892*
X092103Y074829*
X092048Y074776*
X091908Y074795*
X091693Y074766*
X090635Y075824*
X090632Y075826*
X090631Y075828*
X062983Y103476*
X063032Y103593*
X063868*
X092144Y075317*
G37*
G36*
X064808Y067326D02*
Y066989D01*
X064694Y066954*
X064681Y066955*
X064542Y067136*
X064357Y067278*
X064140Y067368*
X064108Y067372*
Y066502*
Y065632*
X064140Y065636*
X064357Y065725*
X064542Y065868*
X064685Y066054*
X064744Y066196*
X064887Y066210*
X064959Y066102*
X064981Y066088*
Y065977*
X064961Y065948*
X064840Y065767*
X064826Y065696*
X064369Y065239*
X062746*
Y065552*
Y067665*
X064469*
X064808Y067326*
G37*
G36*
X095049Y075534D02*
Y067502D01*
X095084Y067326*
X095184Y067177*
X097444Y064917*
X097416Y064702*
X097443Y064496*
X097381Y064448*
X097329Y064430*
X094117Y067642*
Y073362*
X094733Y073977*
X094832Y074126*
X094867Y074302*
Y075567*
X094922Y075603*
X095049Y075534*
G37*
G36*
X109103Y048257D02*
X109308Y048217D01*
X109513Y048257*
X109537Y048274*
X109649Y048214*
Y047092*
X108884Y046326*
X108784Y046177*
X108749Y046002*
Y044665*
X108577Y044533*
X108535Y044479*
X108408Y044522*
Y045802*
X108092*
Y046502*
Y048246*
X108219Y048314*
X108303Y048257*
X108508Y048217*
X108713Y048257*
X108887Y048373*
X108930*
X109103Y048257*
G37*
G36*
X128577Y043271D02*
X128685Y043188D01*
X128642Y043061*
X122374*
X122331Y043188*
X122439Y043271*
X122572Y043443*
X128445*
X128577Y043271*
G37*
G36*
X104801Y040367D02*
X104746Y040233D01*
X104716Y040002*
X104746Y039771*
X104835Y039556*
X104977Y039371*
X105149Y039238*
Y032392*
X091944Y019186*
X091844Y019037*
X091809Y018862*
Y017945*
X091682Y017902*
X091642Y017955*
X091433Y018115*
X091387Y018134*
Y027132*
X104694Y040438*
X104801Y040367*
G37*
%LNfilm_top-5*%
%LPD*%
G36*
X063708Y066302D02*
X063038D01*
X063042Y066270*
X063132Y066054*
X063274Y065868*
X063460Y065725*
X063676Y065636*
X063708Y065632*
Y066302*
G37*
G36*
Y067372D02*
X063676Y067368D01*
X063460Y067278*
X063274Y067136*
X063132Y066950*
X063042Y066734*
X063038Y066702*
X063708*
Y067372*
G37*
%LNfilm_top-6*%
%LPC*%
G54D61*
X016608Y038142D02*
Y048002D01*
Y038142D02*
X018208Y036542D01*
X016608Y051002D02*
X022808D01*
G54D63*
X018908Y064502D02*
X018908D01*
X022308Y067902D01*
G54D61*
X018908Y064502D02*
X029008D01*
X022308Y067902D02*
X029008D01*
X022808Y051002D02*
X026608Y054802D01*
Y058702D01*
Y054802D02*
X032008Y049402D01*
X026608Y058702D02*
X029008Y061102D01*
X027608Y074202D02*
X031908D01*
X029008Y062802D02*
X036408D01*
X029008Y066202D02*
X034308D01*
X031908Y074202D02*
X034308Y071802D01*
X032008Y043752D02*
Y049402D01*
Y043752D02*
X036433Y039327D01*
X034308Y066202D02*
Y071802D01*
Y066202D02*
X040808D01*
X036408Y062802D02*
X041108Y058102D01*
X036433Y036027D02*
Y039327D01*
X036908Y097402D02*
Y110962D01*
Y097402D02*
X041108Y093202D01*
G54D63*
X038008Y039402D02*
Y040502D01*
X040908Y043402D01*
X039448Y110962D02*
X047988Y102422D01*
G54D61*
X040808Y066202D02*
X041108Y066502D01*
G54D63*
X041008Y104402D02*
X043808Y101602D01*
X041108Y056502D02*
Y058102D01*
G54D61*
X041108Y066502D02*
Y086302D01*
Y093202D01*
Y086302D02*
X041208Y086202D01*
G54D62*
X041208Y065552D02*
X050608D01*
G54D61*
X041208Y086202D02*
X065808D01*
G54D63*
X041988Y110962D02*
X049548Y103402D01*
X041988Y113502D02*
X043988Y115502D01*
X043808Y101602D02*
X059408D01*
X043988Y115502D02*
X047908D01*
X046508Y013902D02*
Y018102D01*
Y013902D02*
X048108Y012302D01*
X046508Y018102D02*
X049208Y020802D01*
X047908Y115502D02*
X049608Y113802D01*
X047988Y102422D02*
X060588D01*
X048108Y012302D02*
X049628D01*
X049208Y020802D02*
X051208D01*
X049548Y103402D02*
X062408D01*
X049608Y110102D02*
Y113802D01*
Y110102D02*
X055608Y104102D01*
X049628Y012302D02*
X051828Y014502D01*
G54D62*
X050608Y057252D02*
Y059852D01*
Y061352D02*
Y065552D01*
X055508D01*
G54D63*
X051208Y020802D02*
X086908Y056502D01*
X051438Y017432D02*
Y018332D01*
X089708Y056602D01*
X054368Y014502D02*
X056668Y012202D01*
X054608Y016802D02*
Y018883D01*
X090358Y054633D01*
G54D61*
X055508Y049602D02*
Y065552D01*
G54D62*
X055508Y065552D02*
X060208D01*
G54D63*
X055608Y104102D02*
X062308D01*
X056668Y012202D02*
X061408D01*
X059408Y101602D02*
X088358Y072652D01*
G54D61*
X060208Y061102D02*
Y065552D01*
G54D62*
X060208Y065552D02*
X062108D01*
G54D63*
X060588Y102422D02*
X089029Y073981D01*
X061158Y108502D02*
Y111622D01*
Y108502D02*
X082658Y087002D01*
X061158Y111622D02*
X063078Y113542D01*
X061408Y012202D02*
X062908Y013702D01*
G54D62*
X062108Y064602D02*
Y065552D01*
Y064602D02*
X064633D01*
X062108Y065552D02*
Y068302D01*
X064733D01*
G54D63*
X062308Y104102D02*
X062358Y104052D01*
X064058D01*
X062408Y103402D02*
X090306Y075504D01*
X062908Y013702D02*
Y018602D01*
X098808Y054502D01*
X063908Y066502D02*
X065583D01*
X064058Y104052D02*
X093008Y075102D01*
G54D62*
X064633Y064602D02*
X065583Y065552D01*
X064733Y068302D02*
X065583Y067452D01*
G54D63*
X065618Y105292D02*
Y111002D01*
Y105292D02*
X083158Y087752D01*
X065618Y113542D02*
X067178Y115102D01*
X069808D01*
X067308Y104852D02*
Y106602D01*
Y104852D02*
X083658Y088502D01*
X067308Y106602D02*
X070708Y110002D01*
X068233Y067452D02*
X068283Y067502D01*
X070608D01*
X069208Y104202D02*
Y105002D01*
Y104202D02*
X084158Y089252D01*
X069808Y115102D02*
X070708Y114202D01*
X070608Y067452D02*
X072408D01*
X070708Y110002D02*
Y114202D01*
X070908Y017602D02*
X078108Y024802D01*
X070908Y020142D02*
X078468Y027702D01*
X070908Y072502D02*
Y075902D01*
X072408Y067452D02*
Y072502D01*
Y067452D02*
X093658D01*
X075108Y104202D02*
X075208D01*
X075108D02*
X082308Y097002D01*
X078108Y024802D02*
X086008D01*
X078468Y027702D02*
X086208D01*
X082658Y087002D02*
X090908D01*
X083158Y087752D02*
X091408D01*
X083658Y088502D02*
X091908D01*
X083708Y057702D02*
X089708Y063702D01*
X084158Y089252D02*
X092658D01*
X086008Y024802D02*
X104508Y043302D01*
X086208Y027702D02*
X102858Y044352D01*
X089029Y073981D02*
D01*
X089920Y073090D01*
X089708Y056602D02*
Y058202D01*
Y063702D02*
X097408D01*
X089920Y070490D02*
Y073090D01*
Y070490D02*
X090008Y070402D01*
X090306Y075500D02*
Y075504D01*
Y075500D02*
X090310D01*
X091908Y073902D01*
X090358Y054633D02*
Y054652D01*
X091908Y056202D01*
X090908Y087002D02*
X095508Y082402D01*
X090928Y014702D02*
X092268Y016042D01*
X090928Y017242D02*
Y027322D01*
X105708Y042102D01*
X091308Y050952D02*
Y051002D01*
Y051202D01*
Y051002D02*
X093708D01*
X091358Y101302D02*
Y104502D01*
Y101302D02*
X092158Y100502D01*
X091408Y087752D02*
X096608Y082552D01*
X091908Y088502D02*
X098108Y082302D01*
X091908Y056202D02*
Y058702D01*
X093008Y059802D01*
X092158Y092652D02*
Y100502D01*
Y092652D02*
X106008Y078802D01*
X092268Y016042D02*
Y018862D01*
X105608Y032202D01*
X092658Y089252D02*
X099308Y082602D01*
X092858Y104502D02*
X092908Y104552D01*
Y109212D01*
X093008Y059802D02*
X102858D01*
X093658Y067452D02*
Y073552D01*
Y067452D02*
X097408Y063702D01*
X093658Y073552D02*
X094408Y074302D01*
X093708Y051002D02*
Y054102D01*
X093808Y047702D02*
Y047967D01*
X101643Y055802D01*
X094408Y074302D02*
Y076402D01*
X095508Y067502D02*
Y082402D01*
Y067502D02*
X098308Y064702D01*
X096008Y014702D02*
X097908D01*
X096608Y068702D02*
Y082552D01*
Y068702D02*
X098308Y067002D01*
X097408Y063702D02*
X098908Y062202D01*
X097608Y049402D02*
Y050636D01*
X101974Y055002D01*
X097908Y014702D02*
X100708Y017502D01*
X098108Y058302D02*
X098808Y059002D01*
X098108Y069402D02*
Y082302D01*
Y069402D02*
X099508Y068002D01*
X098208Y056602D02*
X099808Y058202D01*
X098308Y066802D02*
Y067002D01*
X098358Y101052D02*
Y104502D01*
Y101052D02*
X098908Y100502D01*
X098808Y059002D02*
X102858D01*
X098908Y062202D02*
X101108D01*
X098908Y088502D02*
Y100502D01*
Y088502D02*
X115908Y071502D01*
X099308D02*
Y082602D01*
Y071502D02*
X101958Y068852D01*
X099608Y048202D02*
Y051102D01*
Y048202D02*
X101308Y046502D01*
X099608Y051102D02*
X101908Y053402D01*
X099808Y058202D02*
X102858D01*
X099808Y060902D02*
X101308D01*
X099858Y104502D02*
X099908Y104552D01*
Y109212D01*
X100408Y075902D02*
X100508Y076002D01*
X104908D01*
X100708Y017502D02*
X104658D01*
X101108Y062202D02*
X101908Y061402D01*
X101308Y060902D02*
D01*
X101533Y060677D01*
G54D64*
X101398Y065663D02*
Y066689D01*
Y065663D02*
X101584Y065477D01*
X101398Y066689D02*
X101584Y066875D01*
G54D63*
X101533Y060677D02*
X102783D01*
G54D64*
X101584Y065477D02*
Y065477D01*
Y065477D02*
X102668Y064393D01*
X101584Y066875D02*
D01*
X105210Y070502D01*
G54D63*
X101643Y055802D02*
X102858D01*
X101708Y068602D02*
Y069002D01*
Y068602D02*
X101908Y068802D01*
X101958Y068852D01*
X101908Y053402D02*
X102858D01*
X101908Y061402D02*
X102858D01*
X101974Y055002D02*
X102858D01*
X102008Y074502D02*
Y075852D01*
X102108Y075952D01*
G54D64*
X102033Y065926D02*
Y066426D01*
Y065926D02*
X103117Y064842D01*
X102033Y066426D02*
X105473Y069867D01*
X102668Y063192D02*
Y064393D01*
Y063192D02*
X102858Y063002D01*
G54D63*
X102783Y060677D02*
X102858Y060602D01*
Y044352D02*
Y051002D01*
G54D64*
X103117Y064842D02*
X104318D01*
X104508Y064652D01*
G54D63*
X104508Y043302D02*
Y049352D01*
X104658Y013002D02*
X112658D01*
X104658Y017502D02*
X112658D01*
X104908Y076002D02*
X108993Y071917D01*
X105008Y058002D02*
X105108D01*
X107308Y055802D01*
X105108Y060002D02*
X108508Y056602D01*
G54D64*
X105210Y070502D02*
X107789D01*
G54D63*
X105458Y101242D02*
Y104402D01*
Y101242D02*
X106158Y100542D01*
G54D64*
X105473Y069867D02*
X108052D01*
G54D63*
X105608Y032202D02*
Y040002D01*
X105708Y042102D02*
X107608D01*
X106008Y067302D02*
X106908Y066402D01*
X106008Y078302D02*
Y078802D01*
Y078302D02*
X108108Y076202D01*
X106108Y053902D02*
D01*
Y049352D02*
Y053902D01*
X106158Y083752D02*
Y100542D01*
Y083752D02*
X111308Y078602D01*
X106308Y046502D02*
X107633D01*
X106908Y104452D02*
Y109252D01*
Y104452D02*
X106958Y104402D01*
G54D61*
X106908Y114332D02*
X111538D01*
G54D63*
X106908Y064652D02*
Y066402D01*
X107108Y068002D02*
Y068402D01*
Y068002D02*
X107708Y067402D01*
X107608Y042102D02*
X107633Y042127D01*
X107633Y046502D02*
X107633Y046502D01*
Y042127D02*
Y046502D01*
Y049277D01*
X107708Y049352D01*
Y064652D02*
Y067402D01*
G54D64*
X107789Y070502D02*
X107800Y070512D01*
X109217D01*
X108052Y069867D02*
X108063Y069877D01*
X108954D01*
G54D63*
X108508Y049352D02*
Y056602D01*
Y064652D02*
X108583Y064727D01*
Y068677D01*
X108708Y068802D01*
G54D64*
X108954Y069877D02*
X108954Y069877D01*
X109154D01*
G54D63*
X108993Y071917D02*
X111393D01*
X109108Y034902D02*
Y042102D01*
Y034902D02*
X112658Y031352D01*
X109108Y042102D02*
X110908Y043902D01*
G54D64*
X109154Y069877D02*
X109164Y069867D01*
X122243D01*
G54D63*
X109208Y043902D02*
Y046002D01*
X110108Y046902D01*
G54D64*
X109217Y070512D02*
X109217Y070512D01*
X109417D01*
G54D63*
X109308Y049352D02*
Y053102D01*
X109608Y053402D01*
X109308Y064652D02*
Y067502D01*
X110308Y068502D01*
G54D64*
X109417Y070512D02*
X109427Y070502D01*
X122506D01*
G54D63*
X109608Y053402D02*
Y053802D01*
X110108Y046902D02*
Y049352D01*
D01*
Y064652D02*
Y066202D01*
X110508Y066602D01*
X110308Y068502D02*
Y068602D01*
X110908Y043902D02*
Y049352D01*
X110983Y049277D01*
X111308Y078602D02*
X117908D01*
G54D61*
X111538Y114332D02*
X113808Y116602D01*
G54D63*
X111608Y042302D02*
X114108D01*
X111708Y064652D02*
Y067502D01*
X112408Y068202D01*
X112508D01*
X112408Y052602D02*
X118158D01*
X112658Y017752D02*
Y031352D01*
Y017752D02*
X112908Y017502D01*
X113308Y064652D02*
Y066902D01*
X114108Y067702D01*
X113808Y079902D02*
X120308D01*
G54D61*
X113808Y116602D02*
X121118D01*
G54D63*
X114108Y042302D02*
Y045602D01*
D01*
Y049352D01*
Y064652D02*
Y066002D01*
X115708Y067602D01*
X114808Y053702D02*
X115033Y053477D01*
X114908Y047002D02*
Y049352D01*
Y047002D02*
X116908Y045002D01*
X115033Y053477D02*
X118083D01*
X115708Y047502D02*
Y049352D01*
Y047502D02*
X118008Y045202D01*
X115908Y071502D02*
X123808D01*
X116508Y049352D02*
X121758D01*
X116508Y064652D02*
X123658D01*
X116908Y031102D02*
Y045002D01*
Y031102D02*
X119908Y028102D01*
X117908Y078602D02*
X123408Y073102D01*
X118008Y045202D02*
X123508D01*
X118083Y053477D02*
X118158Y053402D01*
Y051002D02*
X120108D01*
X118158Y055002D02*
X121208D01*
X118158Y055802D02*
X121408D01*
X118158Y062202D02*
X119508D01*
X118158Y063002D02*
X123208D01*
X118408Y056602D02*
X121908D01*
X119208Y042602D02*
X129708D01*
X119508Y062202D02*
X124308Y057402D01*
X119908Y013002D02*
Y017502D01*
Y019002D02*
Y028102D01*
X120108Y051002D02*
Y051102D01*
X120308Y079902D02*
X124708Y075502D01*
G54D61*
X121118Y116602D02*
X124048Y113672D01*
G54D63*
X121208Y055002D02*
X125308Y050902D01*
X121408Y055802D02*
X124208Y053002D01*
X121808Y043902D02*
X129208D01*
X121908Y056602D02*
X123893Y054617D01*
G54D64*
X122243Y069867D02*
X126108Y066002D01*
X122506Y070502D02*
X125232Y067776D01*
G54D63*
X123208Y063002D02*
X130608Y055602D01*
X123508Y045202D02*
X123608Y045302D01*
X123658Y064652D02*
X126008Y062302D01*
X123808Y071502D02*
X125208Y070102D01*
X123893Y054617D02*
X128323D01*
X124208Y053002D02*
X128908D01*
X124283Y056427D02*
Y057402D01*
Y056427D02*
X125008Y055702D01*
G54D64*
X125232Y067776D02*
D01*
X126788Y066220D01*
G54D63*
X125308Y050902D02*
X128908D01*
G54D64*
X125708Y064902D02*
X126108Y065302D01*
G54D63*
X126008Y062302D02*
X132908D01*
G54D64*
X126108Y065302D02*
Y066002D01*
X126786Y063824D02*
X126788Y063826D01*
Y066220D01*
G54D63*
X128323Y054617D02*
X128908Y055202D01*
X129708Y042602D02*
X132408Y045302D01*
G54D64*
X129831Y019524D02*
X130108Y019247D01*
Y015252D02*
Y019247D01*
G54D63*
X130608Y051502D02*
Y055602D01*
Y051502D02*
X131608Y050502D01*
X130808Y033602D02*
Y039002D01*
Y033602D02*
X134908Y029502D01*
X130808Y039002D02*
X132478Y040672D01*
G54D64*
X130908Y015252D02*
Y016692D01*
Y015252D02*
X131003Y015347D01*
X130908Y016692D02*
X130910Y016694D01*
X130908Y020602D02*
X130910Y020600D01*
Y016694D02*
Y020600D01*
G54D63*
X131608Y050502D02*
X132308D01*
X133908Y052102D01*
X132408Y045302D02*
Y048122D01*
X135118Y050832D01*
X132478Y040672D02*
X135118D01*
X132508Y015252D02*
X135308D01*
X133908Y052102D02*
X147208D01*
X134058Y103152D02*
X144408Y092802D01*
X134908Y029502D02*
X153408D01*
X135118Y040672D02*
Y043212D01*
X137908Y103902D02*
X141708Y100102D01*
X144908D01*
X144408Y090802D02*
Y092802D01*
G54D61*
X145098Y060312D02*
X165308D01*
X145108Y060352D02*
Y078652D01*
X145158Y078702D01*
Y085552D01*
X148258Y088652D01*
X146808Y078702D02*
X154294D01*
X148258Y088652D02*
Y102202D01*
Y111302D01*
G54D63*
X149758Y093302D02*
X154858D01*
X149758Y102202D02*
X149908Y102052D01*
X149758Y102202D02*
X154858D01*
X149758Y111302D02*
X150008Y111052D01*
X149758Y111302D02*
X154858D01*
X149908Y100102D02*
Y102052D01*
X150008Y090902D02*
Y093202D01*
Y108702D02*
Y111052D01*
X153308Y015102D02*
X153408Y015202D01*
G54D61*
X153408Y015202D02*
Y029502D01*
X154294Y078702D02*
X164352Y088760D01*
G54D63*
X154858Y102202D02*
X154908Y102252D01*
X154858Y111302D02*
X154908Y111252D01*
X154858Y093302D02*
X154908Y093252D01*
X162908D01*
X154908Y102252D02*
X162908D01*
X154908Y111252D02*
X162908D01*
G54D61*
X158158Y014752D02*
X158508Y015102D01*
X163308D01*
Y021402D01*
X167908Y026002D01*
X165308Y060312D02*
Y064502D01*
Y060312D02*
X166618D01*
X165308Y064502D02*
X166198Y065392D01*
X166108Y057202D02*
Y059802D01*
Y057202D02*
X166808Y056502D01*
X166108Y059802D02*
X166618Y060312D01*
X166198Y065392D02*
X167908D01*
X166618Y060312D02*
X167908D01*
X166808Y056502D02*
X167908D01*
Y026002D02*
Y056502D01*
G54D69*
X013908Y018502D03*
Y108502D03*
G54D60*
X016608Y048002D03*
Y051002D03*
G54D70*
X018208Y031462D03*
Y036542D03*
G54D53*
X018908Y064502D03*
G54D50*
X026608Y045802D03*
Y054802D03*
X027608Y074202D03*
Y083202D03*
G54D54*
X029008Y061102D03*
Y062802D03*
Y064502D03*
Y066202D03*
Y067902D03*
G54D43*
X036408Y035602D03*
X036508Y039402D03*
G54D65*
X036908Y110962D03*
G54D66*
X036908Y113502D03*
G54D48*
X037208Y046952D03*
G54D49*
X037208Y053852D03*
G54D43*
X037908Y035602D03*
X038008Y039402D03*
G54D66*
X039448Y110962D03*
Y113502D03*
G54D52*
X041108Y056502D03*
Y066502D03*
G54D66*
X041988Y110962D03*
Y113502D03*
X044528Y110962D03*
Y113502D03*
X047068Y110962D03*
Y113502D03*
G54D65*
X049288Y014502D03*
G54D66*
X049288Y017042D03*
G54D55*
X050608Y055752D03*
Y057252D03*
Y059852D03*
Y061352D03*
G54D66*
X051828Y014502D03*
Y017042D03*
X054368Y014502D03*
Y017042D03*
X056908Y014502D03*
Y017042D03*
X059448Y014502D03*
Y017042D03*
G54D45*
X060208Y059302D03*
Y061102D03*
G54D66*
X063078Y111002D03*
Y113542D03*
G54D46*
X065583Y065552D03*
Y066502D03*
G54D47*
X065583Y067452D03*
G54D66*
X065618Y111002D03*
Y113542D03*
X068158Y111002D03*
G54D65*
X068158Y113542D03*
G54D46*
X068233Y065552D03*
Y067452D03*
G54D45*
X070608Y067502D03*
Y069302D03*
G54D65*
X070908Y012522D03*
G54D66*
X070908Y015062D03*
Y017602D03*
Y020142D03*
G54D43*
X070908Y072502D03*
Y075902D03*
X072408Y072502D03*
Y075902D03*
G54D69*
X078908Y018502D03*
Y108502D03*
X087408Y035752D03*
Y093752D03*
G54D44*
X088808Y066102D03*
Y067552D03*
G54D65*
X090928Y014702D03*
G54D66*
X090928Y017242D03*
G54D44*
X091308Y049502D03*
Y050952D03*
G54D43*
X091358Y104502D03*
X092158Y100502D03*
G54D45*
X092608Y065702D03*
Y067502D03*
G54D43*
X092858Y104502D03*
G54D66*
X092908Y109212D03*
Y111752D03*
G54D65*
X092908Y114292D03*
G54D66*
X093468Y014702D03*
Y017242D03*
G54D43*
X093658Y100502D03*
G54D66*
X096008Y014702D03*
Y017242D03*
G54D43*
X098358Y104502D03*
X098908Y100502D03*
X099858Y104502D03*
G54D66*
X099908Y109212D03*
Y111752D03*
G54D65*
X099908Y114292D03*
G54D43*
X100408Y100502D03*
G54D44*
X102108Y075952D03*
Y077402D03*
G54D40*
X102858Y051002D03*
Y051802D03*
Y052602D03*
Y053402D03*
Y054202D03*
Y055002D03*
Y055802D03*
Y056602D03*
Y057402D03*
Y058202D03*
Y059002D03*
Y059802D03*
Y060602D03*
Y061402D03*
Y062202D03*
Y063002D03*
G54D41*
X104508Y049352D03*
Y064652D03*
G54D42*
X104658Y013002D03*
Y017502D03*
G54D41*
X105308Y049352D03*
Y064652D03*
G54D43*
X105458Y104402D03*
G54D41*
X106108Y049352D03*
Y064652D03*
G54D43*
X106158Y100542D03*
G54D51*
X106208Y045002D03*
G54D66*
X106908Y109252D03*
Y111792D03*
G54D65*
X106908Y114332D03*
G54D41*
X106908Y049352D03*
Y064652D03*
G54D43*
X106958Y104402D03*
G54D51*
X107608Y039902D03*
G54D43*
X107608Y042102D03*
G54D51*
X107658Y045002D03*
G54D43*
X107658Y100542D03*
G54D41*
X107708Y049352D03*
Y064652D03*
X108508Y049352D03*
Y064652D03*
G54D51*
X109058Y039902D03*
G54D43*
X109108Y042102D03*
G54D41*
X109308Y049352D03*
Y064652D03*
X110108Y049352D03*
Y064652D03*
X110908Y049352D03*
Y064652D03*
X111708Y049352D03*
Y064652D03*
X112508Y049352D03*
Y064652D03*
G54D42*
X112658Y013002D03*
Y017502D03*
G54D41*
X113308Y049352D03*
Y064652D03*
G54D45*
X114108Y040502D03*
Y042302D03*
G54D41*
X114108Y049352D03*
Y064652D03*
X114908Y049352D03*
Y064652D03*
X115708Y049352D03*
Y064652D03*
X116508Y049352D03*
Y064652D03*
G54D40*
X118158Y051002D03*
Y051802D03*
Y052602D03*
Y053402D03*
Y054202D03*
Y055002D03*
Y055802D03*
Y056602D03*
Y057402D03*
Y058202D03*
Y059002D03*
Y059802D03*
Y060602D03*
Y061402D03*
Y062202D03*
Y063002D03*
G54D66*
X118968Y111132D03*
Y113672D03*
G54D55*
X119908Y011502D03*
Y013002D03*
Y017502D03*
Y019002D03*
G54D66*
X121508Y111132D03*
Y113672D03*
X124048Y111132D03*
G54D65*
X124048Y113672D03*
G54D51*
X124283Y057402D03*
X125733D03*
G54D56*
X126508Y009752D03*
Y015252D03*
G54D71*
X128708Y012652D03*
G54D57*
X129308Y015252D03*
X130108D03*
X130908D03*
X131708D03*
X132508D03*
G54D71*
X133108Y012652D03*
G54D66*
X135118Y040672D03*
Y043212D03*
Y045752D03*
Y048292D03*
Y050832D03*
Y053372D03*
Y055912D03*
Y058452D03*
Y060992D03*
Y063532D03*
Y066072D03*
Y068612D03*
Y071152D03*
Y073692D03*
Y076232D03*
Y078772D03*
Y081312D03*
Y083852D03*
Y086392D03*
Y088932D03*
G54D56*
X135308Y009752D03*
Y015252D03*
G54D55*
X135308Y017652D03*
Y019152D03*
G54D69*
X136408Y035752D03*
Y093752D03*
G54D65*
X137658Y040672D03*
G54D66*
X137658Y043212D03*
Y045752D03*
Y048292D03*
Y050832D03*
Y053372D03*
Y055912D03*
Y058452D03*
Y060992D03*
Y063532D03*
Y066072D03*
Y068612D03*
Y071152D03*
Y073692D03*
Y076232D03*
Y078772D03*
Y081312D03*
Y083852D03*
Y086392D03*
Y088932D03*
G54D69*
X143908Y018502D03*
Y108502D03*
G54D44*
X145108Y058902D03*
Y060352D03*
G54D43*
X145158Y078702D03*
X146658D03*
X148258Y102202D03*
Y111302D03*
X148508Y093202D03*
X149758Y102202D03*
Y111302D03*
X150008Y093202D03*
G54D59*
X153308Y015102D03*
G54D58*
X153408Y029502D03*
G54D67*
X154283Y088792D03*
G54D42*
X154908Y093252D03*
Y097752D03*
Y102252D03*
Y106752D03*
Y111252D03*
Y115752D03*
G54D58*
X162408Y029502D03*
G54D42*
X162908Y093252D03*
Y097752D03*
Y102252D03*
Y106752D03*
Y111252D03*
Y115752D03*
G54D59*
X163308Y015102D03*
G54D67*
X164352Y088760D03*
G54D68*
X167908Y056502D03*
Y057772D03*
Y059042D03*
Y060312D03*
Y061582D03*
Y062852D03*
Y064122D03*
Y065392D03*
G54D72*
X011808Y054702D03*
X018608Y076802D03*
X024408Y095302D03*
X033208Y057902D03*
X034708Y024902D03*
X040908Y043402D03*
X041008Y104402D03*
X051008Y094302D03*
X054508Y074602D03*
X055508Y049602D03*
X057708Y040102D03*
X063908Y066502D03*
X065808Y086202D03*
X067008Y054702D03*
X068308Y046302D03*
X069208Y105002D03*
X071908Y031702D03*
X075208Y104202D03*
X082208Y073402D03*
X082308Y097002D03*
X083708Y057702D03*
X086608Y046802D03*
X086908Y056502D03*
X088408Y072702D03*
X089708Y058202D03*
X090008Y070402D03*
X091808Y082802D03*
X091908Y073902D03*
X092208Y078802D03*
X093008Y075102D03*
X093308Y061902D03*
X093708Y051002D03*
Y054102D03*
X093808Y047702D03*
X094408Y076402D03*
X094908Y043602D03*
X095708Y093502D03*
X096008Y054902D03*
X097608Y049402D03*
X098108Y058302D03*
X098208Y056602D03*
X098308Y064702D03*
Y066802D03*
X098808Y054502D03*
X099508Y068002D03*
X099608Y051102D03*
X099808Y060902D03*
X100408Y075902D03*
X101308Y046502D03*
X101708Y069002D03*
X102008Y074502D03*
X102608Y091702D03*
X104908Y051202D03*
X105008Y058002D03*
X105108Y060002D03*
X105608Y040002D03*
X106008Y067302D03*
X106108Y053902D03*
X106308Y046502D03*
X106508Y027702D03*
X107108Y068402D03*
X107308Y055802D03*
X108108Y076202D03*
X108708Y068802D03*
X109208Y043902D03*
X109608Y053802D03*
X110308Y068602D03*
X110508Y066602D03*
X110808Y057102D03*
X111393Y071917D03*
X111508Y090002D03*
X111608Y042302D03*
X112408Y052602D03*
X112508Y068202D03*
X112808Y047402D03*
X113808Y079902D03*
X114008Y060702D03*
X114108Y067702D03*
X114308Y035802D03*
X114808Y053702D03*
X115008Y075902D03*
X115708Y067602D03*
X118408Y087502D03*
X118508Y067402D03*
X119208Y042602D03*
X120108Y051102D03*
X121008Y047202D03*
X121208Y087402D03*
X121758Y049352D03*
X121808Y043902D03*
X122808Y035302D03*
X123408Y073102D03*
X123608Y045302D03*
X124708Y075502D03*
X125008Y055702D03*
X125208Y070102D03*
X125708Y064902D03*
X126008Y087202D03*
X126786Y063824D03*
X128908Y050902D03*
Y053002D03*
Y055202D03*
X129208Y043902D03*
X129831Y019524D03*
X130908Y020602D03*
X132908Y062302D03*
X134058Y103152D03*
X137908Y103902D03*
X144408Y090802D03*
X144808Y043002D03*
X144908Y100102D03*
X146008Y115802D03*
X147208Y052102D03*
X148208Y069502D03*
X149908Y100102D03*
X150008Y090902D03*
Y108702D03*
X158158Y014752D03*
X158608Y022302D03*
M02*