%FSDAX33Y33*%
%MOMM*%
%SFA1B1*%

%IPPOS*%
%AMD1002*
%
%ADD63C,0.399999*%
%ADD64C,1.000001*%
%ADD67C,0.381000*%
%ADD68C,1.500000*%
%ADD69R,1.500000X1.500000*%
%ADD70C,6.000001*%
%ADD71C,4.000000*%
%ADD72C,0.499999*%
%ADD73C,2.999999*%
%ADD74C,0.900001*%
%ADD75C,1.270000*%
%LNfilm_bot-1*%
%LPD*%
G36*
X253999Y304799D02*
X000000D01*
Y000000*
X253999*
Y304799*
G37*
%LNfilm_bot-2*%
%LPC*%
G36*
X047000Y097412D02*
X206981D01*
Y207392*
X047000Y207392*
X047000Y097412*
G37*
%LNfilm_bot-3*%
%LPD*%
G36*
X103791Y162895D02*
X104022Y162864D01*
X104237Y162775*
X104422Y162633*
X104564Y162448*
X104653Y162233*
X104683Y162002*
X104653Y161771*
X104564Y161556*
X104422Y161371*
X104250Y161238*
Y154402*
X104215Y154226*
X104115Y154077*
X096955Y146917*
X096983Y146702*
X096953Y146471*
X096864Y146256*
X096722Y146071*
X096537Y145929*
X096322Y145840*
X096091Y145809*
X095860Y145840*
X095644Y145929*
X095460Y146071*
X095318Y146256*
X095228Y146471*
X095198Y146702*
X095228Y146933*
X095318Y147148*
X095460Y147333*
X095644Y147475*
X095860Y147564*
X096091Y147595*
X096306Y147566*
X103332Y154592*
Y161238*
X103159Y161371*
X103018Y161556*
X102928Y161771*
X102898Y162002*
X102928Y162233*
X103018Y162448*
X103159Y162633*
X103344Y162775*
X103560Y162864*
X103791Y162895*
G37*
G36*
X080654Y145808D02*
Y144939D01*
X079785*
X079803Y145074*
X079904Y145318*
X080065Y145528*
X080274Y145689*
X080519Y145790*
X080654Y145808*
G37*
G36*
X181811Y146675D02*
X182564D01*
Y145922*
X182459Y145936*
X182242Y146025*
X182057Y146168*
X181914Y146354*
X181825Y146570*
X181811Y146675*
G37*
G36*
X182818D02*
X183571D01*
X183557Y146570*
X183467Y146354*
X183325Y146168*
X183139Y146025*
X182923Y145936*
X182818Y145922*
Y146675*
G37*
G36*
X080908Y145808D02*
X081043Y145790D01*
X081287Y145689*
X081497Y145528*
X081658Y145318*
X081759Y145074*
X081777Y144939*
X080908*
Y145808*
G37*
G36*
Y144685D02*
X081777D01*
X081759Y144550*
X081658Y144306*
X081497Y144096*
X081287Y143935*
X081043Y143834*
X080908Y143816*
Y144685*
G37*
G36*
X078241Y145821D02*
X078502Y145786D01*
X078745Y145685*
X078954Y145525*
X079114Y145316*
X079215Y145073*
X079249Y144812*
X079215Y144551*
X079114Y144308*
X078954Y144099*
X078745Y143938*
X078502Y143838*
X078241Y143803*
X077980Y143838*
X077736Y143938*
X077527Y144099*
X077367Y144308*
X077266Y144551*
X077232Y144812*
X077266Y145073*
X077367Y145316*
X077527Y145525*
X077736Y145685*
X077980Y145786*
X078241Y145821*
G37*
G36*
X047991Y145912D02*
X048186Y145873D01*
X048351Y145762*
X048462Y145597*
X048500Y145402*
X048462Y145207*
X048351Y145041*
X048186Y144931*
X047991Y144892*
X047796Y144931*
X047630Y145041*
X047520Y145207*
X047481Y145402*
X047520Y145597*
X047630Y145762*
X047796Y145873*
X047991Y145912*
G37*
G36*
X079785Y144685D02*
X080654D01*
Y143816*
X080519Y143834*
X080274Y143935*
X080065Y144096*
X079904Y144306*
X079803Y144550*
X079785Y144685*
G37*
G36*
X047991Y147182D02*
X048186Y147143D01*
X048351Y147032*
X048462Y146867*
X048500Y146672*
X048462Y146477*
X048351Y146311*
X048186Y146201*
X047991Y146162*
X047796Y146201*
X047630Y146311*
X047520Y146477*
X047481Y146672*
X047520Y146867*
X047630Y147032*
X047796Y147143*
X047991Y147182*
G37*
G36*
X102311Y148775D02*
X103064D01*
Y148022*
X102959Y148036*
X102742Y148125*
X102557Y148268*
X102414Y148454*
X102325Y148670*
X102311Y148775*
G37*
G36*
X103318D02*
X104071D01*
X104057Y148670*
X103967Y148454*
X103825Y148268*
X103639Y148125*
X103423Y148036*
X103318Y148022*
Y148775*
G37*
G36*
X080781Y150901D02*
X081042Y150866D01*
X081285Y150765*
X081494Y150605*
X081654Y150396*
X081755Y150153*
X081789Y149892*
X081755Y149631*
X081654Y149388*
X081494Y149179*
X081285Y149018*
X081042Y148918*
X080781Y148883*
X080520Y148918*
X080276Y149018*
X080067Y149179*
X079907Y149388*
X079806Y149631*
X079772Y149892*
X079806Y150153*
X079907Y150396*
X080067Y150605*
X080276Y150765*
X080520Y150866*
X080781Y150901*
G37*
G36*
X047991Y149722D02*
X048186Y149683D01*
X048351Y149572*
X048462Y149407*
X048500Y149212*
X048462Y149017*
X048351Y148851*
X048186Y148741*
X047991Y148702*
X047796Y148741*
X047630Y148851*
X047520Y149017*
X047481Y149212*
X047520Y149407*
X047630Y149572*
X047796Y149683*
X047991Y149722*
G37*
G36*
Y148452D02*
X048186Y148413D01*
X048351Y148302*
X048462Y148137*
X048500Y147942*
X048462Y147747*
X048351Y147581*
X048186Y147471*
X047991Y147432*
X047796Y147471*
X047630Y147581*
X047520Y147747*
X047481Y147942*
X047520Y148137*
X047630Y148302*
X047796Y148413*
X047991Y148452*
G37*
G36*
X078241Y148361D02*
X078502Y148326D01*
X078745Y148225*
X078954Y148065*
X079114Y147856*
X079215Y147613*
X079249Y147352*
X079215Y147091*
X079114Y146848*
X078954Y146639*
X078745Y146478*
X078502Y146378*
X078241Y146343*
X077980Y146378*
X077736Y146478*
X077527Y146639*
X077367Y146848*
X077266Y147091*
X077232Y147352*
X077266Y147613*
X077367Y147856*
X077527Y148065*
X077736Y148225*
X077980Y148326*
X078241Y148361*
G37*
G36*
X080781D02*
X081042Y148326D01*
X081285Y148225*
X081494Y148065*
X081654Y147856*
X081755Y147613*
X081789Y147352*
X081755Y147091*
X081654Y146848*
X081494Y146639*
X081285Y146478*
X081042Y146378*
X080781Y146343*
X080520Y146378*
X080276Y146478*
X080067Y146639*
X079907Y146848*
X079806Y147091*
X079772Y147352*
X079806Y147613*
X079907Y147856*
X080067Y148065*
X080276Y148225*
X080520Y148326*
X080781Y148361*
G37*
G36*
X182564Y147682D02*
Y146929D01*
X181811*
X181825Y147034*
X181914Y147250*
X182057Y147436*
X182242Y147578*
X182459Y147668*
X182564Y147682*
G37*
G36*
X182818D02*
X182923Y147668D01*
X183139Y147578*
X183325Y147436*
X183467Y147250*
X183557Y147034*
X183571Y146929*
X182818*
Y147682*
G37*
G36*
X116418Y138182D02*
X116523Y138168D01*
X116739Y138078*
X116925Y137936*
X117067Y137750*
X117157Y137534*
X117171Y137429*
X116418*
Y138182*
G37*
G36*
X115411Y137175D02*
X116164D01*
Y136422*
X116059Y136436*
X115842Y136525*
X115657Y136668*
X115514Y136854*
X115425Y137070*
X115411Y137175*
G37*
G36*
X080781Y140741D02*
X081042Y140706D01*
X081285Y140605*
X081494Y140445*
X081654Y140236*
X081755Y139993*
X081789Y139732*
X081755Y139471*
X081654Y139228*
X081494Y139019*
X081285Y138858*
X081042Y138758*
X080781Y138723*
X080520Y138758*
X080276Y138858*
X080067Y139019*
X079907Y139228*
X079806Y139471*
X079772Y139732*
X079806Y139993*
X079907Y140236*
X080067Y140445*
X080276Y140605*
X080520Y140706*
X080781Y140741*
G37*
G36*
X116164Y138182D02*
Y137429D01*
X115411*
X115425Y137534*
X115514Y137750*
X115657Y137936*
X115842Y138078*
X116059Y138168*
X116164Y138182*
G37*
G36*
X116418Y137175D02*
X117171D01*
X117157Y137070*
X117067Y136854*
X116925Y136668*
X116739Y136525*
X116523Y136436*
X116418Y136422*
Y137175*
G37*
G36*
X080908Y135648D02*
X081043Y135630D01*
X081287Y135529*
X081497Y135368*
X081658Y135158*
X081759Y134914*
X081777Y134779*
X080908*
Y135648*
G37*
G36*
X070964Y132782D02*
Y132029D01*
X070211*
X070225Y132134*
X070314Y132350*
X070457Y132536*
X070642Y132678*
X070859Y132768*
X070964Y132782*
G37*
G36*
X078241Y138201D02*
X078502Y138166D01*
X078745Y138065*
X078954Y137905*
X079114Y137696*
X079215Y137453*
X079249Y137192*
X079215Y136931*
X079114Y136688*
X078954Y136479*
X078745Y136318*
X078502Y136218*
X078241Y136183*
X077980Y136218*
X077736Y136318*
X077527Y136479*
X077367Y136688*
X077266Y136931*
X077232Y137192*
X077266Y137453*
X077367Y137696*
X077527Y137905*
X077736Y138065*
X077980Y138166*
X078241Y138201*
G37*
G36*
X080654Y135648D02*
Y134779D01*
X079785*
X079803Y134914*
X079904Y135158*
X080065Y135368*
X080274Y135529*
X080519Y135630*
X080654Y135648*
G37*
G36*
X078368Y139605D02*
X079237D01*
X079219Y139470*
X079118Y139226*
X078957Y139016*
X078747Y138855*
X078503Y138754*
X078368Y138736*
Y139605*
G37*
G36*
X148011Y143475D02*
X148764D01*
Y142722*
X148659Y142736*
X148442Y142825*
X148257Y142968*
X148114Y143154*
X148025Y143370*
X148011Y143475*
G37*
G36*
X149018D02*
X149771D01*
X149757Y143370*
X149667Y143154*
X149525Y142968*
X149339Y142825*
X149123Y142736*
X149018Y142722*
Y143475*
G37*
G36*
X148764Y144482D02*
Y143729D01*
X148011*
X148025Y143834*
X148114Y144050*
X148257Y144236*
X148442Y144378*
X148659Y144468*
X148764Y144482*
G37*
G36*
X149018D02*
X149123Y144468D01*
X149339Y144378*
X149525Y144236*
X149667Y144050*
X149757Y143834*
X149771Y143729*
X149018*
Y144482*
G37*
G36*
X078241Y143281D02*
X078502Y143246D01*
X078745Y143145*
X078954Y142985*
X079114Y142776*
X079215Y142533*
X079249Y142272*
X079215Y142011*
X079114Y141768*
X078954Y141559*
X078745Y141398*
X078502Y141298*
X078241Y141263*
X077980Y141298*
X077736Y141398*
X077527Y141559*
X077367Y141768*
X077266Y142011*
X077232Y142272*
X077266Y142533*
X077367Y142776*
X077527Y142985*
X077736Y143145*
X077980Y143246*
X078241Y143281*
G37*
G36*
X078368Y140728D02*
X078503Y140710D01*
X078747Y140609*
X078957Y140448*
X079118Y140238*
X079219Y139994*
X079237Y139859*
X078368*
Y140728*
G37*
G36*
X077245Y139605D02*
X078114D01*
Y138736*
X077979Y138754*
X077734Y138855*
X077525Y139016*
X077364Y139226*
X077263Y139470*
X077245Y139605*
G37*
G36*
X080781Y143281D02*
X081042Y143246D01*
X081285Y143145*
X081494Y142985*
X081654Y142776*
X081755Y142533*
X081789Y142272*
X081755Y142011*
X081654Y141768*
X081494Y141559*
X081285Y141398*
X081042Y141298*
X080781Y141263*
X080520Y141298*
X080276Y141398*
X080067Y141559*
X079907Y141768*
X079806Y142011*
X079772Y142272*
X079806Y142533*
X079907Y142776*
X080067Y142985*
X080276Y143145*
X080520Y143246*
X080781Y143281*
G37*
G36*
X078114Y140728D02*
Y139859D01*
X077245*
X077263Y139994*
X077364Y140238*
X077525Y140448*
X077734Y140609*
X077979Y140710*
X078114Y140728*
G37*
G36*
X078241Y150901D02*
X078502Y150866D01*
X078745Y150765*
X078954Y150605*
X079114Y150396*
X079215Y150153*
X079249Y149892*
X079215Y149631*
X079114Y149388*
X078954Y149179*
X078745Y149018*
X078502Y148918*
X078241Y148883*
X077980Y148918*
X077736Y149018*
X077527Y149179*
X077367Y149388*
X077266Y149631*
X077232Y149892*
X077266Y150153*
X077367Y150396*
X077527Y150605*
X077736Y150765*
X077980Y150866*
X078241Y150901*
G37*
G36*
X151864Y156282D02*
Y155529D01*
X151111*
X151125Y155634*
X151214Y155850*
X151357Y156036*
X151542Y156178*
X151759Y156268*
X151864Y156282*
G37*
G36*
X152118D02*
X152223Y156268D01*
X152439Y156178*
X152625Y156036*
X152767Y155850*
X152857Y155634*
X152871Y155529*
X152118*
Y156282*
G37*
G36*
X101364Y156682D02*
Y155929D01*
X100611*
X100625Y156034*
X100714Y156250*
X100857Y156436*
X101042Y156578*
X101259Y156668*
X101364Y156682*
G37*
G36*
X101618D02*
X101723Y156668D01*
X101939Y156578*
X102125Y156436*
X102267Y156250*
X102357Y156034*
X102371Y155929*
X101618*
Y156682*
G37*
G36*
X100611Y155675D02*
X101364D01*
Y154922*
X101259Y154936*
X101042Y155025*
X100857Y155168*
X100714Y155354*
X100625Y155570*
X100611Y155675*
G37*
G36*
X152118Y155275D02*
X152871D01*
X152857Y155170*
X152767Y154954*
X152625Y154768*
X152439Y154625*
X152223Y154536*
X152118Y154522*
Y155275*
G37*
G36*
X078241Y155981D02*
X078502Y155946D01*
X078745Y155845*
X078954Y155685*
X079114Y155476*
X079215Y155233*
X079249Y154972*
X079215Y154711*
X079114Y154468*
X078954Y154259*
X078745Y154098*
X078502Y153998*
X078241Y153963*
X077980Y153998*
X077736Y154098*
X077527Y154259*
X077367Y154468*
X077266Y154711*
X077232Y154972*
X077266Y155233*
X077367Y155476*
X077527Y155685*
X077736Y155845*
X077980Y155946*
X078241Y155981*
G37*
G36*
X101618Y155675D02*
X102371D01*
X102357Y155570*
X102267Y155354*
X102125Y155168*
X101939Y155025*
X101723Y154936*
X101618Y154922*
Y155675*
G37*
G36*
X151111Y155275D02*
X151864D01*
Y154522*
X151759Y154536*
X151542Y154625*
X151357Y154768*
X151214Y154954*
X151125Y155170*
X151111Y155275*
G37*
G36*
X080781Y158521D02*
X081042Y158486D01*
X081285Y158385*
X081494Y158225*
X081654Y158016*
X081755Y157773*
X081789Y157512*
X081755Y157251*
X081654Y157008*
X081494Y156799*
X081285Y156638*
X081042Y156538*
X080781Y156503*
X080520Y156538*
X080276Y156638*
X080067Y156799*
X079907Y157008*
X079806Y157251*
X079772Y157512*
X079806Y157773*
X079907Y158016*
X080067Y158225*
X080276Y158385*
X080520Y158486*
X080781Y158521*
G37*
G36*
X078368Y159925D02*
X079237D01*
X079219Y159790*
X079118Y159546*
X078957Y159336*
X078747Y159175*
X078503Y159074*
X078368Y159056*
Y159925*
G37*
G36*
X080781Y161061D02*
X081042Y161026D01*
X081285Y160925*
X081494Y160765*
X081654Y160556*
X081755Y160313*
X081789Y160052*
X081755Y159791*
X081654Y159548*
X081494Y159339*
X081285Y159178*
X081042Y159078*
X080781Y159043*
X080520Y159078*
X080276Y159178*
X080067Y159339*
X079907Y159548*
X079806Y159791*
X079772Y160052*
X079806Y160313*
X079907Y160556*
X080067Y160765*
X080276Y160925*
X080520Y161026*
X080781Y161061*
G37*
G36*
X078368Y161048D02*
X078503Y161030D01*
X078747Y160929*
X078957Y160768*
X079118Y160558*
X079219Y160314*
X079237Y160179*
X078368*
Y161048*
G37*
G36*
X077245Y159925D02*
X078114D01*
Y159056*
X077979Y159074*
X077734Y159175*
X077525Y159336*
X077364Y159546*
X077263Y159790*
X077245Y159925*
G37*
G36*
X067564Y159282D02*
Y158529D01*
X066811*
X066825Y158634*
X066914Y158850*
X067057Y159036*
X067242Y159178*
X067459Y159268*
X067564Y159282*
G37*
G36*
X067818Y158275D02*
X068571D01*
X068557Y158170*
X068467Y157954*
X068325Y157768*
X068139Y157625*
X067923Y157536*
X067818Y157522*
Y158275*
G37*
G36*
X078241Y158521D02*
X078502Y158486D01*
X078745Y158385*
X078954Y158225*
X079114Y158016*
X079215Y157773*
X079249Y157512*
X079215Y157251*
X079114Y157008*
X078954Y156799*
X078745Y156638*
X078502Y156538*
X078241Y156503*
X077980Y156538*
X077736Y156638*
X077527Y156799*
X077367Y157008*
X077266Y157251*
X077232Y157512*
X077266Y157773*
X077367Y158016*
X077527Y158225*
X077736Y158385*
X077980Y158486*
X078241Y158521*
G37*
G36*
X067818Y159282D02*
X067923Y159268D01*
X068139Y159178*
X068325Y159036*
X068467Y158850*
X068557Y158634*
X068571Y158529*
X067818*
Y159282*
G37*
G36*
X066811Y158275D02*
X067564D01*
Y157522*
X067459Y157536*
X067242Y157625*
X067057Y157768*
X066914Y157954*
X066825Y158170*
X066811Y158275*
G37*
G36*
X047991Y152262D02*
X048186Y152223D01*
X048204Y152211*
X058041*
X058216Y152176*
X058365Y152076*
X068564Y141878*
X068691Y141895*
X068922Y141864*
X069137Y141775*
X069322Y141633*
X069464Y141448*
X069553Y141233*
X069583Y141002*
X069553Y140771*
X069464Y140556*
X069322Y140371*
X069137Y140229*
X068922Y140140*
X068691Y140109*
X068460Y140140*
X068244Y140229*
X068059Y140371*
X067918Y140556*
X067828Y140771*
X067798Y141002*
X067828Y141233*
X067853Y141291*
X057851Y151293*
X048204*
X048186Y151281*
X047991Y151242*
X047796Y151281*
X047630Y151391*
X047520Y151557*
X047481Y151752*
X047520Y151947*
X047630Y152112*
X047796Y152223*
X047991Y152262*
G37*
G36*
X047864Y150970D02*
Y150609D01*
X047502*
X047516Y150679*
X047627Y150845*
X047794Y150957*
X047864Y150970*
G37*
G36*
X080908Y152305D02*
X081777D01*
X081759Y152170*
X081658Y151926*
X081497Y151716*
X081287Y151555*
X081043Y151454*
X080908Y151436*
Y152305*
G37*
G36*
X078241Y153441D02*
X078502Y153406D01*
X078745Y153305*
X078954Y153145*
X079114Y152936*
X079215Y152693*
X079249Y152432*
X079215Y152171*
X079114Y151928*
X078954Y151719*
X078745Y151558*
X078502Y151458*
X078241Y151423*
X077980Y151458*
X077736Y151558*
X077527Y151719*
X077367Y151928*
X077266Y152171*
X077232Y152432*
X077266Y152693*
X077367Y152936*
X077527Y153145*
X077736Y153305*
X077980Y153406*
X078241Y153441*
G37*
G36*
X048118Y150970D02*
X048187Y150957D01*
X048354Y150845*
X048465Y150679*
X048479Y150609*
X048118*
Y150970*
G37*
G36*
X103064Y149782D02*
Y149029D01*
X102311*
X102325Y149134*
X102414Y149350*
X102557Y149536*
X102742Y149678*
X102959Y149768*
X103064Y149782*
G37*
G36*
X103318D02*
X103423Y149768D01*
X103639Y149678*
X103825Y149536*
X103967Y149350*
X104057Y149134*
X104071Y149029*
X103318*
Y149782*
G37*
G36*
X047502Y150355D02*
X047864D01*
Y149993*
X047794Y150007*
X047627Y150119*
X047516Y150285*
X047502Y150355*
G37*
G36*
X048118D02*
X048479D01*
X048465Y150285*
X048354Y150119*
X048187Y150007*
X048118Y149993*
Y150355*
G37*
G36*
X079785Y152305D02*
X080654D01*
Y151436*
X080519Y151454*
X080274Y151555*
X080065Y151716*
X079904Y151926*
X079803Y152170*
X079785Y152305*
G37*
G36*
X109664Y153582D02*
Y152829D01*
X108911*
X108925Y152934*
X109014Y153150*
X109157Y153336*
X109342Y153478*
X109559Y153568*
X109664Y153582*
G37*
G36*
X109918D02*
X110023Y153568D01*
X110239Y153478*
X110425Y153336*
X110567Y153150*
X110657Y152934*
X110671Y152829*
X109918*
Y153582*
G37*
G36*
X080781Y155981D02*
X081042Y155946D01*
X081285Y155845*
X081494Y155685*
X081654Y155476*
X081755Y155233*
X081789Y154972*
X081755Y154711*
X081654Y154468*
X081494Y154259*
X081285Y154098*
X081042Y153998*
X080781Y153963*
X080520Y153998*
X080276Y154098*
X080067Y154259*
X079907Y154468*
X079806Y154711*
X079772Y154972*
X079806Y155233*
X079907Y155476*
X080067Y155685*
X080276Y155845*
X080520Y155946*
X080781Y155981*
G37*
G36*
X047991Y154802D02*
X048186Y154763D01*
X048351Y154652*
X048462Y154487*
X048500Y154292*
X048462Y154097*
X048351Y153931*
X048186Y153821*
X047991Y153782*
X047796Y153821*
X047630Y153931*
X047520Y154097*
X047481Y154292*
X047520Y154487*
X047630Y154652*
X047796Y154763*
X047991Y154802*
G37*
G36*
X080654Y153428D02*
Y152559D01*
X079785*
X079803Y152694*
X079904Y152938*
X080065Y153148*
X080274Y153309*
X080519Y153410*
X080654Y153428*
G37*
G36*
X108911Y152575D02*
X109664D01*
Y151822*
X109559Y151836*
X109342Y151925*
X109157Y152068*
X109014Y152254*
X108925Y152470*
X108911Y152575*
G37*
G36*
X109918D02*
X110671D01*
X110657Y152470*
X110567Y152254*
X110425Y152068*
X110239Y151925*
X110023Y151836*
X109918Y151822*
Y152575*
G37*
G36*
X080908Y153428D02*
X081043Y153410D01*
X081287Y153309*
X081497Y153148*
X081658Y152938*
X081759Y152694*
X081777Y152559*
X080908*
Y153428*
G37*
G36*
X047991Y153532D02*
X048186Y153493D01*
X048204Y153481*
X062071*
X062246Y153446*
X062395Y153346*
X072815Y142926*
X072915Y142777*
X072949Y142602*
Y135592*
X074771Y133771*
X077538*
X077581Y133898*
X077527Y133939*
X077367Y134148*
X077266Y134391*
X077232Y134652*
X077266Y134913*
X077367Y135156*
X077527Y135365*
X077736Y135525*
X077980Y135626*
X078241Y135661*
X078502Y135626*
X078745Y135525*
X078954Y135365*
X079114Y135156*
X079215Y134913*
X079249Y134652*
X079215Y134391*
X079114Y134148*
X078954Y133939*
X078900Y133898*
X078944Y133771*
X080071*
X080114Y133898*
X080065Y133936*
X079904Y134146*
X079803Y134390*
X079785Y134525*
X080781*
X081777*
X081759Y134390*
X081658Y134146*
X081497Y133936*
X081447Y133898*
X081490Y133771*
X085912*
X085960Y133833*
X086144Y133975*
X086360Y134064*
X086591Y134095*
X086822Y134064*
X087037Y133975*
X087222Y133833*
X087364Y133648*
X087453Y133433*
X087483Y133202*
X087453Y132971*
X087364Y132756*
X087222Y132571*
X087037Y132429*
X086822Y132340*
X086591Y132309*
X086360Y132340*
X086144Y132429*
X085960Y132571*
X085818Y132756*
X085777Y132853*
X081633*
X081570Y132726*
X081654Y132616*
X081755Y132373*
X081789Y132112*
X081755Y131851*
X081654Y131608*
X081494Y131399*
X081285Y131238*
X081042Y131138*
X080781Y131103*
X080520Y131138*
X080276Y131238*
X080067Y131399*
X079907Y131608*
X079806Y131851*
X079772Y132112*
X079806Y132373*
X079907Y132616*
X079991Y132726*
X079929Y132853*
X079093*
X079030Y132726*
X079114Y132616*
X079215Y132373*
X079249Y132112*
X079215Y131851*
X079114Y131608*
X078954Y131399*
X078745Y131238*
X078502Y131138*
X078241Y131103*
X077980Y131138*
X077736Y131238*
X077527Y131399*
X077367Y131608*
X077266Y131851*
X077232Y132112*
X077266Y132373*
X077367Y132616*
X077451Y132726*
X077389Y132853*
X074581*
X074405Y132888*
X074256Y132987*
X072166Y135077*
X072067Y135226*
X072032Y135402*
Y142412*
X061881Y152563*
X048204*
X048186Y152551*
X047991Y152512*
X047796Y152551*
X047630Y152661*
X047520Y152827*
X047481Y153022*
X047520Y153217*
X047630Y153382*
X047796Y153493*
X047991Y153532*
G37*
G36*
X158991Y106951D02*
X159252Y106916D01*
X159495Y106815*
X159704Y106655*
X159864Y106446*
X159965Y106203*
X159999Y105942*
X159965Y105681*
X159864Y105438*
X159704Y105229*
X159495Y105068*
X159252Y104968*
X158991Y104933*
X158730Y104968*
X158486Y105068*
X158277Y105229*
X158117Y105438*
X158016Y105681*
X157982Y105942*
X158016Y106203*
X158117Y106446*
X158277Y106655*
X158486Y106815*
X158730Y106916*
X158991Y106951*
G37*
G36*
X161531D02*
X161792Y106916D01*
X162035Y106815*
X162244Y106655*
X162404Y106446*
X162505Y106203*
X162539Y105942*
X162505Y105681*
X162404Y105438*
X162244Y105229*
X162035Y105068*
X161792Y104968*
X161531Y104933*
X161270Y104968*
X161026Y105068*
X160817Y105229*
X160657Y105438*
X160556Y105681*
X160522Y105942*
X160556Y106203*
X160657Y106446*
X160817Y106655*
X161026Y106815*
X161270Y106916*
X161531Y106951*
G37*
G36*
X126071D02*
X126332Y106916D01*
X126575Y106815*
X126784Y106655*
X126944Y106446*
X127045Y106203*
X127079Y105942*
X127045Y105681*
X126944Y105438*
X126784Y105229*
X126575Y105068*
X126332Y104968*
X126071Y104933*
X125810Y104968*
X125566Y105068*
X125357Y105229*
X125197Y105438*
X125096Y105681*
X125062Y105942*
X125096Y106203*
X125197Y106446*
X125357Y106655*
X125566Y106815*
X125810Y106916*
X126071Y106951*
G37*
G36*
X156451D02*
X156712Y106916D01*
X156955Y106815*
X157164Y106655*
X157324Y106446*
X157425Y106203*
X157459Y105942*
X157425Y105681*
X157324Y105438*
X157164Y105229*
X156955Y105068*
X156712Y104968*
X156451Y104933*
X156190Y104968*
X155946Y105068*
X155737Y105229*
X155577Y105438*
X155476Y105681*
X155442Y105942*
X155476Y106203*
X155577Y106446*
X155737Y106655*
X155946Y106815*
X156190Y106916*
X156451Y106951*
G37*
G36*
X164071D02*
X164332Y106916D01*
X164575Y106815*
X164784Y106655*
X164944Y106446*
X165045Y106203*
X165079Y105942*
X165045Y105681*
X164944Y105438*
X164784Y105229*
X164575Y105068*
X164332Y104968*
X164071Y104933*
X163810Y104968*
X163566Y105068*
X163357Y105229*
X163197Y105438*
X163096Y105681*
X163062Y105942*
X163096Y106203*
X163197Y106446*
X163357Y106655*
X163566Y106815*
X163810Y106916*
X164071Y106951*
G37*
G36*
X198737Y107275D02*
X201864D01*
Y104148*
X201480Y104178*
X200982Y104298*
X200509Y104494*
X200072Y104761*
X199683Y105094*
X199350Y105483*
X199082Y105920*
X198886Y106393*
X198767Y106891*
X198737Y107275*
G37*
G36*
X202118D02*
X205245D01*
X205215Y106891*
X205095Y106393*
X204899Y105920*
X204631Y105483*
X204299Y105094*
X203909Y104761*
X203473Y104494*
X202999Y104298*
X202501Y104178*
X202118Y104148*
Y107275*
G37*
G36*
X133737D02*
X136864D01*
Y104148*
X136480Y104178*
X135982Y104298*
X135509Y104494*
X135072Y104761*
X134683Y105094*
X134350Y105483*
X134082Y105920*
X133886Y106393*
X133767Y106891*
X133737Y107275*
G37*
G36*
X137118D02*
X140245D01*
X140215Y106891*
X140095Y106393*
X139899Y105920*
X139631Y105483*
X139299Y105094*
X138909Y104761*
X138473Y104494*
X137999Y104298*
X137501Y104178*
X137118Y104148*
Y107275*
G37*
G36*
X123531Y106951D02*
X123792Y106916D01*
X124035Y106815*
X124244Y106655*
X124404Y106446*
X124505Y106203*
X124539Y105942*
X124505Y105681*
X124404Y105438*
X124244Y105229*
X124035Y105068*
X123792Y104968*
X123531Y104933*
X123270Y104968*
X123026Y105068*
X122817Y105229*
X122657Y105438*
X122556Y105681*
X122522Y105942*
X122556Y106203*
X122657Y106446*
X122817Y106655*
X123026Y106815*
X123270Y106916*
X123531Y106951*
G37*
G36*
X201864Y110656D02*
Y107529D01*
X198737*
X198767Y107912*
X198886Y108411*
X199082Y108884*
X199350Y109320*
X199683Y109710*
X200072Y110043*
X200509Y110310*
X200982Y110506*
X201480Y110626*
X201864Y110656*
G37*
G36*
X202118D02*
X202501Y110626D01*
X202999Y110506*
X203473Y110310*
X203909Y110043*
X204299Y109710*
X204631Y109320*
X204899Y108884*
X205095Y108411*
X205215Y107912*
X205245Y107529*
X202118*
Y110656*
G37*
G36*
X136864D02*
Y107529D01*
X133737*
X133767Y107912*
X133886Y108411*
X134082Y108884*
X134350Y109320*
X134683Y109710*
X135072Y110043*
X135509Y110310*
X135982Y110506*
X136480Y110626*
X136864Y110656*
G37*
G36*
X137118D02*
X137501Y110626D01*
X137999Y110506*
X138473Y110310*
X138909Y110043*
X139299Y109710*
X139631Y109320*
X139899Y108884*
X140095Y108411*
X140215Y107912*
X140245Y107529*
X137118*
Y110656*
G37*
G36*
X166484Y106938D02*
Y106069D01*
X165615*
X165633Y106204*
X165734Y106448*
X165895Y106658*
X166104Y106819*
X166349Y106920*
X166484Y106938*
G37*
G36*
X166738Y105815D02*
X167607D01*
X167589Y105680*
X167488Y105436*
X167327Y105226*
X167117Y105065*
X166873Y104964*
X166738Y104946*
Y105815*
G37*
G36*
X165615D02*
X166484D01*
Y104946*
X166349Y104964*
X166104Y105065*
X165895Y105226*
X165734Y105436*
X165633Y105680*
X165615Y105815*
G37*
G36*
X166738Y106938D02*
X166873Y106920D01*
X167117Y106819*
X167327Y106658*
X167488Y106448*
X167589Y106204*
X167607Y106069*
X166738*
Y106938*
G37*
G36*
X144991Y107511D02*
X145252Y107476D01*
X145495Y107375*
X145704Y107215*
X145864Y107006*
X145965Y106763*
X145999Y106502*
X145965Y106241*
X145864Y105998*
X145704Y105789*
X145495Y105628*
X145252Y105528*
X144991Y105493*
X144730Y105528*
X144486Y105628*
X144277Y105789*
X144117Y105998*
X144016Y106241*
X143982Y106502*
X144016Y106763*
X144117Y107006*
X144277Y107215*
X144486Y107375*
X144730Y107476*
X144991Y107511*
G37*
G36*
X121118Y103275D02*
X121987D01*
X121969Y103140*
X121868Y102896*
X121707Y102686*
X121497Y102525*
X121253Y102424*
X121118Y102406*
Y103275*
G37*
G36*
X123531Y104411D02*
X123792Y104376D01*
X124035Y104275*
X124244Y104115*
X124404Y103906*
X124505Y103663*
X124539Y103402*
X124505Y103141*
X124404Y102898*
X124244Y102689*
X124035Y102528*
X123792Y102428*
X123531Y102393*
X123270Y102428*
X123026Y102528*
X122817Y102689*
X122657Y102898*
X122556Y103141*
X122522Y103402*
X122556Y103663*
X122657Y103906*
X122817Y104115*
X123026Y104275*
X123270Y104376*
X123531Y104411*
G37*
G36*
X159118Y103275D02*
X159987D01*
X159969Y103140*
X159868Y102896*
X159707Y102686*
X159497Y102525*
X159253Y102424*
X159118Y102406*
Y103275*
G37*
G36*
X157995D02*
X158864D01*
Y102406*
X158729Y102424*
X158484Y102525*
X158275Y102686*
X158114Y102896*
X158013Y103140*
X157995Y103275*
G37*
G36*
X126071Y104411D02*
X126332Y104376D01*
X126575Y104275*
X126784Y104115*
X126944Y103906*
X127045Y103663*
X127079Y103402*
X127045Y103141*
X126944Y102898*
X126784Y102689*
X126575Y102528*
X126332Y102428*
X126071Y102393*
X125810Y102428*
X125566Y102528*
X125357Y102689*
X125197Y102898*
X125096Y103141*
X125062Y103402*
X125096Y103663*
X125197Y103906*
X125357Y104115*
X125566Y104275*
X125810Y104376*
X126071Y104411*
G37*
G36*
X082791Y102258D02*
X082973Y102234D01*
X083144Y102163*
X083290Y102051*
X083402Y101905*
X083473Y101735*
X083497Y101552*
X083473Y101369*
X083402Y101199*
X083290Y101053*
X083144Y100940*
X082973Y100870*
X082791Y100846*
X082608Y100870*
X082438Y100940*
X082291Y101053*
X082179Y101199*
X082109Y101369*
X082085Y101552*
X082109Y101735*
X082179Y101905*
X082291Y102051*
X082438Y102163*
X082608Y102234*
X082791Y102258*
G37*
G36*
X087191D02*
X087373Y102234D01*
X087544Y102163*
X087690Y102051*
X087802Y101905*
X087873Y101735*
X087897Y101552*
X087873Y101369*
X087802Y101199*
X087690Y101053*
X087544Y100940*
X087373Y100870*
X087191Y100846*
X087008Y100870*
X086838Y100940*
X086691Y101053*
X086579Y101199*
X086509Y101369*
X086485Y101552*
X086509Y101735*
X086579Y101905*
X086691Y102051*
X086838Y102163*
X087008Y102234*
X087191Y102258*
G37*
G36*
X156451Y104411D02*
X156712Y104376D01*
X156955Y104275*
X157164Y104115*
X157324Y103906*
X157425Y103663*
X157459Y103402*
X157425Y103141*
X157324Y102898*
X157164Y102689*
X156955Y102528*
X156712Y102428*
X156451Y102393*
X156190Y102428*
X155946Y102528*
X155737Y102689*
X155577Y102898*
X155476Y103141*
X155442Y103402*
X155476Y103663*
X155577Y103906*
X155737Y104115*
X155946Y104275*
X156190Y104376*
X156451Y104411*
G37*
G36*
X161531D02*
X161792Y104376D01*
X162035Y104275*
X162244Y104115*
X162404Y103906*
X162505Y103663*
X162539Y103402*
X162505Y103141*
X162404Y102898*
X162244Y102689*
X162035Y102528*
X161792Y102428*
X161531Y102393*
X161270Y102428*
X161026Y102528*
X160817Y102689*
X160657Y102898*
X160556Y103141*
X160522Y103402*
X160556Y103663*
X160657Y103906*
X160817Y104115*
X161026Y104275*
X161270Y104376*
X161531Y104411*
G37*
G36*
X119995Y103275D02*
X120864D01*
Y102406*
X120729Y102424*
X120484Y102525*
X120275Y102686*
X120114Y102896*
X120013Y103140*
X119995Y103275*
G37*
G36*
X158864Y104398D02*
Y103529D01*
X157995*
X158013Y103664*
X158114Y103908*
X158275Y104118*
X158484Y104279*
X158729Y104380*
X158864Y104398*
G37*
G36*
X120864D02*
Y103529D01*
X119995*
X120013Y103664*
X120114Y103908*
X120275Y104118*
X120484Y104279*
X120729Y104380*
X120864Y104398*
G37*
G36*
X144864Y104958D02*
Y104089D01*
X143995*
X144013Y104224*
X144114Y104468*
X144275Y104678*
X144484Y104839*
X144729Y104940*
X144864Y104958*
G37*
G36*
X145118D02*
X145253Y104940D01*
X145497Y104839*
X145707Y104678*
X145868Y104468*
X145969Y104224*
X145987Y104089*
X145118*
Y104958*
G37*
G36*
X121118Y104398D02*
X121253Y104380D01*
X121497Y104279*
X121707Y104118*
X121868Y103908*
X121969Y103664*
X121987Y103529*
X121118*
Y104398*
G37*
G36*
X143995Y103835D02*
X144864D01*
Y102966*
X144729Y102984*
X144484Y103085*
X144275Y103246*
X144114Y103456*
X144013Y103700*
X143995Y103835*
G37*
G36*
X160391Y139395D02*
X160622Y139364D01*
X160837Y139275*
X161022Y139133*
X161164Y138948*
X161253Y138733*
X161283Y138502*
X161253Y138271*
X161164Y138056*
X161022Y137871*
X160837Y137729*
X160622Y137640*
X160595Y137636*
X149547Y126589*
Y102702*
X149521Y102506*
X149446Y102324*
X149422Y102292*
X149478Y102178*
X164317*
X164498Y102359*
X164426Y102467*
X164332Y102428*
X164071Y102393*
X163810Y102428*
X163566Y102528*
X163357Y102689*
X163197Y102898*
X163096Y103141*
X163062Y103402*
X163096Y103663*
X163197Y103906*
X163357Y104115*
X163566Y104275*
X163810Y104376*
X164071Y104411*
X164332Y104376*
X164575Y104275*
X164784Y104115*
X164944Y103906*
X165045Y103663*
X165079Y103402*
X165045Y103141*
X165006Y103046*
X165114Y102975*
X165611Y103472*
Y104402*
X167611*
Y102402*
X166680*
X165166Y100887*
X165166Y100887*
X165009Y100767*
X164826Y100691*
X164631Y100665*
X164631*
X147511*
X147511*
X147511*
X145991*
Y100422*
X143991*
Y102422*
X145991*
Y102178*
X147197*
X148034Y103015*
Y126145*
X142704*
X129326Y112767*
X129169Y112647*
X128986Y112571*
X128791Y112545*
X128791*
X124104*
X121747Y110189*
Y106942*
X121991*
Y104942*
X119991*
Y106942*
X120234*
Y110502*
X120260Y110698*
X120336Y110880*
X120456Y111037*
X120456*
X121847Y112428*
X121798Y112545*
X102804*
X093026Y102767*
X092869Y102647*
X092686Y102571*
X092491Y102545*
X058091*
X057895Y102571*
X057712Y102647*
X057556Y102767*
X057537Y102786*
X057510Y102790*
X057294Y102879*
X057109Y103021*
X056968Y103206*
X056878Y103421*
X056848Y103652*
X056878Y103883*
X056968Y104098*
X057109Y104283*
X057294Y104425*
X057510Y104514*
X057741Y104545*
X057972Y104514*
X058187Y104425*
X058372Y104283*
X058514Y104098*
X058530Y104058*
X071434*
X071449Y104185*
X070982Y104298*
X070509Y104494*
X070072Y104761*
X069683Y105094*
X069350Y105483*
X069082Y105920*
X068886Y106393*
X068767Y106891*
X068737Y107275*
X075245*
X075215Y106891*
X075095Y106393*
X074899Y105920*
X074631Y105483*
X074299Y105094*
X073909Y104761*
X073473Y104494*
X072999Y104298*
X072532Y104185*
X072547Y104058*
X092177*
X101956Y113837*
X102112Y113957*
X102295Y114033*
X102491Y114058*
X128477*
X141856Y127437*
X142012Y127557*
X142195Y127633*
X142391Y127658*
X148477*
X159525Y138706*
X159528Y138733*
X159618Y138948*
X159760Y139133*
X159944Y139275*
X160160Y139364*
X160391Y139395*
G37*
G36*
X159118Y104398D02*
X159253Y104380D01*
X159497Y104279*
X159707Y104118*
X159868Y103908*
X159969Y103664*
X159987Y103529*
X159118*
Y104398*
G37*
G36*
X145118Y103835D02*
X145987D01*
X145969Y103700*
X145868Y103456*
X145707Y103246*
X145497Y103085*
X145253Y102984*
X145118Y102966*
Y103835*
G37*
G36*
X072118Y110656D02*
X072501Y110626D01*
X072999Y110506*
X073473Y110310*
X073909Y110043*
X074299Y109710*
X074631Y109320*
X074899Y108884*
X075095Y108411*
X075215Y107912*
X075245Y107529*
X072118*
Y110656*
G37*
G36*
X128618Y127906D02*
X129001Y127876D01*
X129499Y127756*
X129973Y127560*
X130409Y127293*
X130799Y126960*
X131131Y126570*
X131399Y126134*
X131595Y125661*
X131715Y125162*
X131745Y124779*
X128618*
Y127906*
G37*
G36*
X092818Y124882D02*
X092923Y124868D01*
X093139Y124778*
X093325Y124636*
X093467Y124450*
X093557Y124234*
X093571Y124129*
X092818*
Y124882*
G37*
G36*
X079618Y127906D02*
X080001Y127876D01*
X080499Y127756*
X080973Y127560*
X081409Y127293*
X081799Y126960*
X082131Y126570*
X082399Y126134*
X082595Y125661*
X082715Y125162*
X082745Y124779*
X079618*
Y127906*
G37*
G36*
X128364D02*
Y124779D01*
X125237*
X125267Y125162*
X125386Y125661*
X125582Y126134*
X125850Y126570*
X126183Y126960*
X126572Y127293*
X127009Y127560*
X127482Y127756*
X127980Y127876*
X128364Y127906*
G37*
G36*
X197691Y127200D02*
X198034Y127167D01*
X198364Y127067*
X198668Y126904*
X198934Y126685*
X199153Y126419*
X199315Y126115*
X199415Y125785*
X199449Y125442*
X199415Y125099*
X199315Y124769*
X199153Y124465*
X198934Y124198*
X198668Y123980*
X198364Y123817*
X198034Y123717*
X197691Y123683*
X197348Y123717*
X197018Y123817*
X196714Y123980*
X196447Y124198*
X196229Y124465*
X196066Y124769*
X195966Y125099*
X195932Y125442*
X195966Y125785*
X196066Y126115*
X196229Y126419*
X196447Y126685*
X196714Y126904*
X197018Y127067*
X197348Y127167*
X197691Y127200*
G37*
G36*
X079618Y124525D02*
X082745D01*
X082715Y124141*
X082595Y123643*
X082399Y123170*
X082131Y122733*
X081799Y122344*
X081409Y122011*
X080973Y121744*
X080499Y121548*
X080001Y121428*
X079618Y121398*
Y124525*
G37*
G36*
X125237D02*
X128364D01*
Y121398*
X127980Y121428*
X127482Y121548*
X127009Y121744*
X126572Y122011*
X126183Y122344*
X125850Y122733*
X125582Y123170*
X125386Y123643*
X125267Y124141*
X125237Y124525*
G37*
G36*
X092818Y123875D02*
X093571D01*
X093557Y123770*
X093467Y123554*
X093325Y123368*
X093139Y123225*
X092923Y123136*
X092818Y123122*
Y123875*
G37*
G36*
X076237Y124525D02*
X079364D01*
Y121398*
X078980Y121428*
X078482Y121548*
X078009Y121744*
X077572Y122011*
X077183Y122344*
X076850Y122733*
X076582Y123170*
X076386Y123643*
X076267Y124141*
X076237Y124525*
G37*
G36*
X079364Y127906D02*
Y124779D01*
X076237*
X076267Y125162*
X076386Y125661*
X076582Y126134*
X076850Y126570*
X077183Y126960*
X077572Y127293*
X078009Y127560*
X078482Y127756*
X078980Y127876*
X079364Y127906*
G37*
G36*
X071218Y131775D02*
X071971D01*
X071957Y131670*
X071867Y131454*
X071725Y131268*
X071539Y131125*
X071323Y131036*
X071218Y131022*
Y131775*
G37*
G36*
X120564Y131482D02*
Y130729D01*
X119811*
X119825Y130834*
X119914Y131050*
X120057Y131236*
X120242Y131378*
X120459Y131468*
X120564Y131482*
G37*
G36*
X071218Y132782D02*
X071323Y132768D01*
X071539Y132678*
X071725Y132536*
X071867Y132350*
X071957Y132134*
X071971Y132029*
X071218*
Y132782*
G37*
G36*
X070211Y131775D02*
X070964D01*
Y131022*
X070859Y131036*
X070642Y131125*
X070457Y131268*
X070314Y131454*
X070225Y131670*
X070211Y131775*
G37*
G36*
X120818Y131482D02*
X120923Y131468D01*
X121139Y131378*
X121325Y131236*
X121467Y131050*
X121557Y130834*
X121571Y130729*
X120818*
Y131482*
G37*
G36*
X077241Y130572D02*
X079241D01*
Y128572*
X077241*
Y130572*
G37*
G36*
X080781Y130581D02*
X081042Y130546D01*
X081285Y130445*
X081494Y130285*
X081654Y130076*
X081755Y129833*
X081789Y129572*
X081755Y129311*
X081654Y129068*
X081494Y128859*
X081285Y128698*
X081042Y128598*
X080781Y128563*
X080520Y128598*
X080276Y128698*
X080067Y128859*
X079907Y129068*
X079806Y129311*
X079772Y129572*
X079806Y129833*
X079907Y130076*
X080067Y130285*
X080276Y130445*
X080520Y130546*
X080781Y130581*
G37*
G36*
X119811Y130475D02*
X120564D01*
Y129722*
X120459Y129736*
X120242Y129825*
X120057Y129968*
X119914Y130154*
X119825Y130370*
X119811Y130475*
G37*
G36*
X120818D02*
X121571D01*
X121557Y130370*
X121467Y130154*
X121325Y129968*
X121139Y129825*
X120923Y129736*
X120818Y129722*
Y130475*
G37*
G36*
X181318Y113675D02*
X182071D01*
X182057Y113570*
X181967Y113354*
X181825Y113168*
X181639Y113025*
X181423Y112936*
X181318Y112922*
Y113675*
G37*
G36*
X057164Y112082D02*
Y111329D01*
X056411*
X056425Y111434*
X056514Y111650*
X056657Y111836*
X056842Y111978*
X057059Y112068*
X057164Y112082*
G37*
G36*
X181318Y114682D02*
X181423Y114668D01*
X181639Y114578*
X181825Y114436*
X181967Y114250*
X182057Y114034*
X182071Y113929*
X181318*
Y114682*
G37*
G36*
X180311Y113675D02*
X181064D01*
Y112922*
X180959Y112936*
X180742Y113025*
X180557Y113168*
X180414Y113354*
X180325Y113570*
X180311Y113675*
G37*
G36*
X057418Y112082D02*
X057523Y112068D01*
X057739Y111978*
X057925Y111836*
X058067Y111650*
X058157Y111434*
X058171Y111329*
X057418*
Y112082*
G37*
G36*
X144991Y110051D02*
X145252Y110016D01*
X145495Y109915*
X145704Y109755*
X145864Y109546*
X145965Y109303*
X145999Y109042*
X145965Y108781*
X145864Y108538*
X145704Y108329*
X145495Y108168*
X145252Y108068*
X144991Y108033*
X144730Y108068*
X144486Y108168*
X144277Y108329*
X144117Y108538*
X144016Y108781*
X143982Y109042*
X144016Y109303*
X144117Y109546*
X144277Y109755*
X144486Y109915*
X144730Y110016*
X144991Y110051*
G37*
G36*
X071864Y110656D02*
Y107529D01*
X068737*
X068767Y107912*
X068886Y108411*
X069082Y108884*
X069350Y109320*
X069683Y109710*
X070072Y110043*
X070509Y110310*
X070982Y110506*
X071480Y110626*
X071864Y110656*
G37*
G36*
X056411Y111075D02*
X057164D01*
Y110322*
X057059Y110336*
X056842Y110425*
X056657Y110568*
X056514Y110754*
X056425Y110970*
X056411Y111075*
G37*
G36*
X057418D02*
X058171D01*
X058157Y110970*
X058067Y110754*
X057925Y110568*
X057739Y110425*
X057523Y110336*
X057418Y110322*
Y111075*
G37*
G36*
X181064Y114682D02*
Y113929D01*
X180311*
X180325Y114034*
X180414Y114250*
X180557Y114436*
X180742Y114578*
X180959Y114668*
X181064Y114682*
G37*
G36*
X197818Y122112D02*
X198035Y122091D01*
X198365Y121990*
X198670Y121827*
X198937Y121608*
X199156Y121341*
X199319Y121036*
X199419Y120706*
X199441Y120489*
X197818*
Y122112*
G37*
G36*
X195941Y120235D02*
X197564D01*
Y118612*
X197347Y118633*
X197016Y118734*
X196712Y118896*
X196444Y119116*
X196225Y119383*
X196062Y119687*
X195962Y120018*
X195941Y120235*
G37*
G36*
X128618Y124525D02*
X131745D01*
X131715Y124141*
X131595Y123643*
X131399Y123170*
X131131Y122733*
X130799Y122344*
X130409Y122011*
X129973Y121744*
X129499Y121548*
X129001Y121428*
X128618Y121398*
Y124525*
G37*
G36*
X197564Y122112D02*
Y120489D01*
X195941*
X195962Y120706*
X196062Y121036*
X196225Y121341*
X196444Y121608*
X196712Y121827*
X197016Y121990*
X197347Y122091*
X197564Y122112*
G37*
G36*
X197818Y120235D02*
X199441D01*
X199419Y120018*
X199319Y119687*
X199156Y119383*
X198937Y119116*
X198670Y118896*
X198365Y118734*
X198035Y118633*
X197818Y118612*
Y120235*
G37*
G36*
X108511Y116475D02*
X109264D01*
Y115722*
X109159Y115736*
X108942Y115825*
X108757Y115968*
X108614Y116154*
X108525Y116370*
X108511Y116475*
G37*
G36*
X109518D02*
X110271D01*
X110257Y116370*
X110167Y116154*
X110025Y115968*
X109839Y115825*
X109623Y115736*
X109518Y115722*
Y116475*
G37*
G36*
X109264Y117482D02*
Y116729D01*
X108511*
X108525Y116834*
X108614Y117050*
X108757Y117236*
X108942Y117378*
X109159Y117468*
X109264Y117482*
G37*
G36*
X109518D02*
X109623Y117468D01*
X109839Y117378*
X110025Y117236*
X110167Y117050*
X110257Y116834*
X110271Y116729*
X109518*
Y117482*
G37*
G36*
X078114Y161048D02*
Y160179D01*
X077245*
X077263Y160314*
X077364Y160558*
X077525Y160768*
X077734Y160929*
X077979Y161030*
X078114Y161048*
G37*
G36*
X086621Y200871D02*
X086882Y200836D01*
X087125Y200735*
X087334Y200575*
X087494Y200366*
X087595Y200123*
X087629Y199862*
X087595Y199601*
X087494Y199358*
X087334Y199149*
X087125Y198988*
X086882Y198888*
X086621Y198853*
X086360Y198888*
X086116Y198988*
X085907Y199149*
X085747Y199358*
X085646Y199601*
X085612Y199862*
X085646Y200123*
X085747Y200366*
X085907Y200575*
X086116Y200735*
X086360Y200836*
X086621Y200871*
G37*
G36*
X089161D02*
X089422Y200836D01*
X089665Y200735*
X089874Y200575*
X090034Y200366*
X090135Y200123*
X090169Y199862*
X090135Y199601*
X090034Y199358*
X089874Y199149*
X089665Y198988*
X089422Y198888*
X089161Y198853*
X088900Y198888*
X088656Y198988*
X088447Y199149*
X088287Y199358*
X088186Y199601*
X088152Y199862*
X088186Y200123*
X088287Y200366*
X088447Y200575*
X088656Y200735*
X088900Y200836*
X089161Y200871*
G37*
G36*
X170375Y199735D02*
X171244D01*
Y198866*
X171109Y198884*
X170864Y198985*
X170655Y199146*
X170494Y199356*
X170393Y199600*
X170375Y199735*
G37*
G36*
X177991Y200862D02*
X179991D01*
Y198862*
X177991*
Y200862*
G37*
G36*
X091701Y200871D02*
X091962Y200836D01*
X092205Y200735*
X092414Y200575*
X092574Y200366*
X092675Y200123*
X092709Y199862*
X092675Y199601*
X092574Y199358*
X092414Y199149*
X092205Y198988*
X091962Y198888*
X091701Y198853*
X091440Y198888*
X091196Y198988*
X090987Y199149*
X090827Y199358*
X090726Y199601*
X090692Y199862*
X090726Y200123*
X090827Y200366*
X090987Y200575*
X091196Y200735*
X091440Y200836*
X091701Y200871*
G37*
G36*
X168831D02*
X169092Y200836D01*
X169335Y200735*
X169544Y200575*
X169704Y200366*
X169805Y200123*
X169839Y199862*
X169805Y199601*
X169704Y199358*
X169544Y199149*
X169335Y198988*
X169092Y198888*
X168831Y198853*
X168570Y198888*
X168326Y198988*
X168117Y199149*
X167957Y199358*
X167856Y199601*
X167822Y199862*
X167856Y200123*
X167957Y200366*
X168117Y200575*
X168326Y200735*
X168570Y200836*
X168831Y200871*
G37*
G36*
X173911D02*
X174172Y200836D01*
X174415Y200735*
X174624Y200575*
X174784Y200366*
X174885Y200123*
X174919Y199862*
X174885Y199601*
X174784Y199358*
X174624Y199149*
X174415Y198988*
X174172Y198888*
X173911Y198853*
X173650Y198888*
X173406Y198988*
X173197Y199149*
X173037Y199358*
X172936Y199601*
X172902Y199862*
X172936Y200123*
X173037Y200366*
X173197Y200575*
X173406Y200735*
X173650Y200836*
X173911Y200871*
G37*
G36*
X094241D02*
X094502Y200836D01*
X094745Y200735*
X094954Y200575*
X095114Y200366*
X095215Y200123*
X095249Y199862*
X095215Y199601*
X095114Y199358*
X094954Y199149*
X094745Y198988*
X094502Y198888*
X094241Y198853*
X093980Y198888*
X093736Y198988*
X093527Y199149*
X093367Y199358*
X093266Y199601*
X093232Y199862*
X093266Y200123*
X093367Y200366*
X093527Y200575*
X093736Y200735*
X093980Y200836*
X094241Y200871*
G37*
G36*
X096781D02*
X097042Y200836D01*
X097285Y200735*
X097494Y200575*
X097654Y200366*
X097755Y200123*
X097789Y199862*
X097755Y199601*
X097736Y199555*
X101800Y195491*
X101900Y195342*
X101935Y195167*
Y163387*
X101900Y163211*
X101800Y163062*
X096649Y157912*
Y151365*
X096822Y151233*
X096964Y151048*
X097053Y150833*
X097083Y150602*
X097053Y150371*
X096964Y150156*
X096822Y149971*
X096637Y149829*
X096422Y149740*
X096191Y149709*
X095960Y149740*
X095744Y149829*
X095560Y149971*
X095418Y150156*
X095328Y150371*
X095298Y150602*
X095328Y150833*
X095418Y151048*
X095560Y151233*
X095732Y151365*
Y158102*
X095767Y158277*
X095866Y158426*
X101017Y163577*
Y169523*
X100903Y169579*
X100837Y169529*
X100622Y169440*
X100391Y169409*
X100175Y169438*
X098515Y167777*
X098366Y167678*
X098191Y167643*
X095554*
X095422Y167471*
X095237Y167329*
X095022Y167240*
X094791Y167209*
X094560Y167240*
X094344Y167329*
X094160Y167471*
X094018Y167656*
X093928Y167871*
X093898Y168102*
X093928Y168333*
X094018Y168548*
X094160Y168733*
X094344Y168875*
X094560Y168964*
X094791Y168995*
X095022Y168964*
X095237Y168875*
X095422Y168733*
X095554Y168561*
X098001*
X099526Y170086*
X099498Y170302*
X099528Y170533*
X099618Y170748*
X099759Y170933*
X099944Y171075*
X100160Y171164*
X100391Y171195*
X100622Y171164*
X100837Y171075*
X100903Y171024*
X101017Y171080*
Y194977*
X097087Y198906*
X097042Y198888*
X096781Y198853*
X096520Y198888*
X096276Y198988*
X096067Y199149*
X095907Y199358*
X095806Y199601*
X095772Y199862*
X095806Y200123*
X095907Y200366*
X096067Y200575*
X096276Y200735*
X096520Y200836*
X096781Y200871*
G37*
G36*
X171498Y199735D02*
X172367D01*
X172349Y199600*
X172248Y199356*
X172087Y199146*
X171877Y198985*
X171633Y198884*
X171498Y198866*
Y199735*
G37*
G36*
X121995Y200525D02*
X122864D01*
Y199656*
X122729Y199674*
X122484Y199775*
X122275Y199936*
X122114Y200146*
X122013Y200390*
X121995Y200525*
G37*
G36*
X123118D02*
X123987D01*
X123969Y200390*
X123868Y200146*
X123707Y199936*
X123497Y199775*
X123253Y199674*
X123118Y199656*
Y200525*
G37*
G36*
X107995Y200565D02*
X108864D01*
Y199696*
X108729Y199714*
X108484Y199815*
X108275Y199976*
X108114Y200186*
X108013Y200430*
X107995Y200565*
G37*
G36*
X109118D02*
X109987D01*
X109969Y200430*
X109868Y200186*
X109707Y199976*
X109497Y199815*
X109253Y199714*
X109118Y199696*
Y200565*
G37*
G36*
X114995Y200525D02*
X115864D01*
Y199656*
X115729Y199674*
X115484Y199775*
X115275Y199936*
X115114Y200146*
X115013Y200390*
X114995Y200525*
G37*
G36*
X146745Y199775D02*
X147614D01*
Y198906*
X147479Y198924*
X147234Y199025*
X147025Y199186*
X146864Y199396*
X146763Y199640*
X146745Y199775*
G37*
G36*
X150281Y200911D02*
X150542Y200876D01*
X150785Y200775*
X150994Y200615*
X151154Y200406*
X151255Y200163*
X151289Y199902*
X151255Y199641*
X151154Y199398*
X150994Y199189*
X150785Y199028*
X150542Y198928*
X150281Y198893*
X150020Y198928*
X149776Y199028*
X149567Y199189*
X149407Y199398*
X149306Y199641*
X149272Y199902*
X149306Y200163*
X149407Y200406*
X149567Y200615*
X149776Y200775*
X150020Y200876*
X150281Y200911*
G37*
G36*
X116118Y200525D02*
X116987D01*
X116969Y200390*
X116868Y200146*
X116707Y199936*
X116497Y199775*
X116253Y199674*
X116118Y199656*
Y200525*
G37*
G36*
X147868Y199775D02*
X148737D01*
X148719Y199640*
X148618Y199396*
X148457Y199186*
X148247Y199025*
X148003Y198924*
X147868Y198906*
Y199775*
G37*
G36*
X068737Y197275D02*
X071864D01*
Y194148*
X071480Y194178*
X070982Y194298*
X070509Y194494*
X070072Y194761*
X069683Y195094*
X069350Y195483*
X069082Y195920*
X068886Y196393*
X068767Y196891*
X068737Y197275*
G37*
G36*
X072118D02*
X075245D01*
X075215Y196891*
X075095Y196393*
X074899Y195920*
X074631Y195483*
X074299Y195094*
X073909Y194761*
X073473Y194494*
X072999Y194298*
X072501Y194178*
X072118Y194148*
Y197275*
G37*
G36*
X065891Y198495D02*
X066122Y198464D01*
X066337Y198375*
X066522Y198233*
X066664Y198048*
X066753Y197833*
X066783Y197602*
X066755Y197386*
X070781Y193361*
X075691*
X075866Y193326*
X076015Y193226*
X083715Y185526*
X083815Y185377*
X083849Y185202*
Y143592*
X084461Y142981*
X084565Y142911*
X086180Y141295*
X086276Y141379*
X086218Y141456*
X086128Y141671*
X086098Y141902*
X086126Y142117*
X084166Y144077*
X084067Y144226*
X084032Y144402*
Y186112*
X078206Y191938*
X077991Y191909*
X077760Y191940*
X077544Y192029*
X077359Y192171*
X077218Y192356*
X077128Y192571*
X077098Y192802*
X077128Y193033*
X077218Y193248*
X077359Y193433*
X077544Y193575*
X077760Y193664*
X077991Y193695*
X078222Y193664*
X078437Y193575*
X078622Y193433*
X078764Y193248*
X078853Y193033*
X078883Y192802*
X078855Y192586*
X084815Y186626*
X084915Y186477*
X084949Y186302*
Y144592*
X086775Y142766*
X086991Y142795*
X087222Y142764*
X087437Y142675*
X087622Y142533*
X087764Y142348*
X087853Y142133*
X087883Y141902*
X087853Y141671*
X087764Y141456*
X087622Y141271*
X087437Y141129*
X087222Y141040*
X086991Y141009*
X086760Y141040*
X086544Y141129*
X086468Y141187*
X086384Y141092*
X086806Y140670*
X086991Y140695*
X087222Y140664*
X087437Y140575*
X087622Y140433*
X087764Y140248*
X087853Y140033*
X087883Y139802*
X087853Y139571*
X087764Y139356*
X087622Y139171*
X087437Y139029*
X087222Y138940*
X086991Y138909*
X086760Y138940*
X086544Y139029*
X086359Y139171*
X086218Y139356*
X086128Y139571*
X086098Y139802*
X086128Y140033*
X086133Y140045*
X084784Y141394*
X084664Y141353*
X084653Y141271*
X084564Y141056*
X084422Y140871*
X084249Y140738*
Y140202*
X084215Y140026*
X084115Y139877*
X081736Y137498*
X081755Y137453*
X081789Y137192*
X081755Y136931*
X081654Y136688*
X081494Y136479*
X081285Y136318*
X081042Y136218*
X080781Y136183*
X080520Y136218*
X080276Y136318*
X080067Y136479*
X079907Y136688*
X079806Y136931*
X079772Y137192*
X079806Y137453*
X079907Y137696*
X080067Y137905*
X080276Y138065*
X080520Y138166*
X080781Y138201*
X081042Y138166*
X081087Y138147*
X083332Y140392*
Y140738*
X083160Y140871*
X083018Y141056*
X082928Y141271*
X082898Y141502*
X082928Y141733*
X083018Y141948*
X083160Y142133*
X083344Y142275*
X083560Y142364*
X083612Y142371*
X083652Y142491*
X083066Y143077*
X082967Y143226*
X082932Y143402*
Y185012*
X075501Y192443*
X070591*
X070415Y192478*
X070266Y192577*
X066106Y196738*
X065891Y196709*
X065660Y196740*
X065444Y196829*
X065259Y196971*
X065118Y197156*
X065028Y197371*
X064998Y197602*
X065028Y197833*
X065118Y198048*
X065259Y198233*
X065444Y198375*
X065660Y198464*
X065891Y198495*
G37*
G36*
X089291Y194695D02*
X089522Y194664D01*
X089737Y194575*
X089922Y194433*
X090054Y194261*
X095827*
X095960Y194433*
X096144Y194575*
X096360Y194664*
X096591Y194695*
X096822Y194664*
X097037Y194575*
X097222Y194433*
X097364Y194248*
X097453Y194033*
X097483Y193802*
X097453Y193571*
X097364Y193356*
X097222Y193171*
X097037Y193029*
X096822Y192940*
X096591Y192909*
X096360Y192940*
X096144Y193029*
X095960Y193171*
X095827Y193343*
X090054*
X089922Y193171*
X089737Y193029*
X089522Y192940*
X089291Y192909*
X089060Y192940*
X088844Y193029*
X088659Y193171*
X088518Y193356*
X088428Y193571*
X088398Y193802*
X088428Y194033*
X088518Y194248*
X088659Y194433*
X088844Y194575*
X089060Y194664*
X089291Y194695*
G37*
G36*
X133737Y197275D02*
X136864D01*
Y194148*
X136480Y194178*
X135982Y194298*
X135509Y194494*
X135072Y194761*
X134683Y195094*
X134350Y195483*
X134082Y195920*
X133886Y196393*
X133767Y196891*
X133737Y197275*
G37*
G36*
X202118D02*
X205245D01*
X205215Y196891*
X205095Y196393*
X204899Y195920*
X204631Y195483*
X204299Y195094*
X203909Y194761*
X203473Y194494*
X202999Y194298*
X202501Y194178*
X202118Y194148*
Y197275*
G37*
G36*
X152821Y200911D02*
X153082Y200876D01*
X153325Y200775*
X153534Y200615*
X153694Y200406*
X153795Y200163*
X153829Y199902*
X153795Y199641*
X153694Y199398*
X153534Y199189*
X153325Y199028*
X153082Y198928*
X152821Y198893*
X152560Y198928*
X152514Y198946*
X147570Y194002*
X147583Y193902*
X147553Y193671*
X147464Y193456*
X147322Y193271*
X147137Y193129*
X146922Y193040*
X146691Y193009*
X146460Y193040*
X146244Y193129*
X146060Y193271*
X145918Y193456*
X145828Y193671*
X145798Y193902*
X145828Y194133*
X145918Y194348*
X146060Y194533*
X146244Y194675*
X146460Y194764*
X146691Y194795*
X146922Y194764*
X147001Y194731*
X151865Y199595*
X151846Y199641*
X151812Y199902*
X151846Y200163*
X151947Y200406*
X152107Y200615*
X152316Y200775*
X152560Y200876*
X152821Y200911*
G37*
G36*
X137118Y197275D02*
X140245D01*
X140215Y196891*
X140095Y196393*
X139899Y195920*
X139631Y195483*
X139299Y195094*
X138909Y194761*
X138473Y194494*
X137999Y194298*
X137501Y194178*
X137118Y194148*
Y197275*
G37*
G36*
X198737D02*
X201864D01*
Y194148*
X201480Y194178*
X200982Y194298*
X200509Y194494*
X200072Y194761*
X199683Y195094*
X199350Y195483*
X199082Y195920*
X198886Y196393*
X198767Y196891*
X198737Y197275*
G37*
G36*
X115991Y199121D02*
X116252Y199086D01*
X116495Y198985*
X116704Y198825*
X116864Y198616*
X116965Y198373*
X116999Y198112*
X116965Y197851*
X116864Y197608*
X116704Y197399*
X116495Y197238*
X116252Y197138*
X115991Y197103*
X115730Y197138*
X115486Y197238*
X115277Y197399*
X115117Y197608*
X115016Y197851*
X114982Y198112*
X115016Y198373*
X115117Y198616*
X115277Y198825*
X115486Y198985*
X115730Y199086*
X115991Y199121*
G37*
G36*
X072118Y200656D02*
X072501Y200626D01*
X072999Y200506*
X073473Y200310*
X073909Y200043*
X074299Y199710*
X074631Y199320*
X074899Y198884*
X075095Y198411*
X075215Y197912*
X075245Y197529*
X072118*
Y200656*
G37*
G36*
X136864D02*
Y197529D01*
X133737*
X133767Y197912*
X133886Y198411*
X134082Y198884*
X134350Y199320*
X134683Y199710*
X135072Y200043*
X135509Y200310*
X135982Y200506*
X136480Y200626*
X136864Y200656*
G37*
G36*
X176451Y200871D02*
X176712Y200836D01*
X176955Y200735*
X177164Y200575*
X177324Y200366*
X177425Y200123*
X177459Y199862*
X177425Y199601*
X177324Y199358*
X177164Y199149*
X176955Y198988*
X176712Y198888*
X176451Y198853*
X176190Y198888*
X175946Y198988*
X175737Y199149*
X175577Y199358*
X175476Y199601*
X175442Y199862*
X175476Y200123*
X175577Y200366*
X175737Y200575*
X175946Y200735*
X176190Y200836*
X176451Y200871*
G37*
G36*
X071864Y200656D02*
Y197529D01*
X068737*
X068767Y197912*
X068886Y198411*
X069082Y198884*
X069350Y199320*
X069683Y199710*
X070072Y200043*
X070509Y200310*
X070982Y200506*
X071480Y200626*
X071864Y200656*
G37*
G36*
X137118D02*
X137501Y200626D01*
X137999Y200506*
X138473Y200310*
X138909Y200043*
X139299Y199710*
X139631Y199320*
X139899Y198884*
X140095Y198411*
X140215Y197912*
X140245Y197529*
X137118*
Y200656*
G37*
G36*
X108991Y199161D02*
X109252Y199126D01*
X109495Y199025*
X109704Y198865*
X109864Y198656*
X109965Y198413*
X109999Y198152*
X109965Y197891*
X109864Y197648*
X109704Y197439*
X109495Y197278*
X109252Y197178*
X108991Y197143*
X108730Y197178*
X108486Y197278*
X108277Y197439*
X108117Y197648*
X108016Y197891*
X107982Y198152*
X108016Y198413*
X108117Y198656*
X108277Y198865*
X108486Y199025*
X108730Y199126*
X108991Y199161*
G37*
G36*
X122991Y199121D02*
X123252Y199086D01*
X123495Y198985*
X123704Y198825*
X123864Y198616*
X123965Y198373*
X123999Y198112*
X123965Y197851*
X123864Y197608*
X123704Y197399*
X123495Y197238*
X123252Y197138*
X122991Y197103*
X122730Y197138*
X122486Y197238*
X122277Y197399*
X122117Y197608*
X122016Y197851*
X121982Y198112*
X122016Y198373*
X122117Y198616*
X122277Y198825*
X122486Y198985*
X122730Y199086*
X122991Y199121*
G37*
G36*
X201864Y200656D02*
Y197529D01*
X198737*
X198767Y197912*
X198886Y198411*
X199082Y198884*
X199350Y199320*
X199683Y199710*
X200072Y200043*
X200509Y200310*
X200982Y200506*
X201480Y200626*
X201864Y200656*
G37*
G36*
X202118D02*
X202501Y200626D01*
X202999Y200506*
X203473Y200310*
X203909Y200043*
X204299Y199710*
X204631Y199320*
X204899Y198884*
X205095Y198411*
X205215Y197912*
X205245Y197529*
X202118*
Y200656*
G37*
G36*
X171498Y200858D02*
X171633Y200840D01*
X171877Y200739*
X172087Y200578*
X172248Y200368*
X172349Y200124*
X172367Y199989*
X171498*
Y200858*
G37*
G36*
X096908Y203398D02*
X097043Y203380D01*
X097287Y203279*
X097497Y203118*
X097658Y202908*
X097759Y202664*
X097777Y202529*
X096908*
Y203398*
G37*
G36*
X150281Y203451D02*
X150542Y203416D01*
X150785Y203315*
X150994Y203155*
X151154Y202946*
X151255Y202703*
X151289Y202442*
X151255Y202181*
X151154Y201938*
X150994Y201729*
X150785Y201568*
X150542Y201468*
X150281Y201433*
X150020Y201468*
X149776Y201568*
X149567Y201729*
X149407Y201938*
X149306Y202181*
X149272Y202442*
X149306Y202703*
X149407Y202946*
X149567Y203155*
X149776Y203315*
X150020Y203416*
X150281Y203451*
G37*
G36*
X089288Y203398D02*
X089423Y203380D01*
X089667Y203279*
X089877Y203118*
X090038Y202908*
X090139Y202664*
X090157Y202529*
X089288*
Y203398*
G37*
G36*
X091828D02*
X091963Y203380D01*
X092207Y203279*
X092417Y203118*
X092578Y202908*
X092679Y202664*
X092697Y202529*
X091828*
Y203398*
G37*
G36*
X152821Y203451D02*
X153082Y203416D01*
X153325Y203315*
X153534Y203155*
X153694Y202946*
X153795Y202703*
X153829Y202442*
X153795Y202181*
X153694Y201938*
X153534Y201729*
X153325Y201568*
X153082Y201468*
X152821Y201433*
X152560Y201468*
X152316Y201568*
X152107Y201729*
X151947Y201938*
X151846Y202181*
X151812Y202442*
X151846Y202703*
X151947Y202946*
X152107Y203155*
X152316Y203315*
X152560Y203416*
X152821Y203451*
G37*
G36*
X090705Y202275D02*
X091574D01*
Y201406*
X091439Y201424*
X091194Y201525*
X090985Y201686*
X090824Y201896*
X090723Y202140*
X090705Y202275*
G37*
G36*
X095785D02*
X096654D01*
Y201406*
X096519Y201424*
X096274Y201525*
X096065Y201686*
X095904Y201896*
X095803Y202140*
X095785Y202275*
G37*
G36*
X179118D02*
X179987D01*
X179969Y202140*
X179868Y201896*
X179707Y201686*
X179497Y201525*
X179253Y201424*
X179118Y201406*
Y202275*
G37*
G36*
X088165D02*
X089034D01*
Y201406*
X088899Y201424*
X088654Y201525*
X088445Y201686*
X088284Y201896*
X088183Y202140*
X088165Y202275*
G37*
G36*
X096654Y203398D02*
Y202529D01*
X095785*
X095803Y202664*
X095904Y202908*
X096065Y203118*
X096274Y203279*
X096519Y203380*
X096654Y203398*
G37*
G36*
X107991Y204232D02*
X109991D01*
Y203948*
X114991*
Y204192*
X116991*
Y203948*
X121991*
Y204192*
X123991*
Y203948*
X127001*
X127001*
X127196Y203923*
X127379Y203847*
X127536Y203727*
Y203727*
X129926Y201337*
X130046Y201180*
X130121Y200998*
X130147Y200802*
Y196115*
X150295Y175968*
X150322Y175964*
X150537Y175875*
X150722Y175733*
X150864Y175548*
X150953Y175333*
X150983Y175102*
X150953Y174871*
X150864Y174656*
X150722Y174471*
X150537Y174329*
X150322Y174240*
X150091Y174209*
X149860Y174240*
X149644Y174329*
X149460Y174471*
X149318Y174656*
X149228Y174871*
X149225Y174898*
X128856Y195267*
X128736Y195424*
X128660Y195606*
X128634Y195802*
Y200489*
X126687Y202435*
X123991*
Y202192*
X121991*
Y202435*
X116991*
Y202192*
X114991*
Y202435*
X109991*
Y202232*
X107991*
Y204232*
G37*
G36*
X069011Y204575D02*
X069764D01*
Y203822*
X069659Y203836*
X069442Y203925*
X069257Y204068*
X069114Y204254*
X069025Y204470*
X069011Y204575*
G37*
G36*
X069764Y205582D02*
Y204829D01*
X069011*
X069025Y204934*
X069114Y205150*
X069257Y205336*
X069442Y205478*
X069659Y205568*
X069764Y205582*
G37*
G36*
X070018D02*
X070123Y205568D01*
X070339Y205478*
X070525Y205336*
X070667Y205150*
X070757Y204934*
X070771Y204829*
X070018*
Y205582*
G37*
G36*
Y204575D02*
X070771D01*
X070757Y204470*
X070667Y204254*
X070525Y204068*
X070339Y203925*
X070123Y203836*
X070018Y203822*
Y204575*
G37*
G36*
X089034Y203398D02*
Y202529D01*
X088165*
X088183Y202664*
X088284Y202908*
X088445Y203118*
X088654Y203279*
X088899Y203380*
X089034Y203398*
G37*
G36*
X091574D02*
Y202529D01*
X090705*
X090723Y202664*
X090824Y202908*
X090985Y203118*
X091194Y203279*
X091439Y203380*
X091574Y203398*
G37*
G36*
X178864D02*
Y202529D01*
X177995*
X178013Y202664*
X178114Y202908*
X178275Y203118*
X178484Y203279*
X178729Y203380*
X178864Y203398*
G37*
G36*
X179118D02*
X179253Y203380D01*
X179497Y203279*
X179707Y203118*
X179868Y202908*
X179969Y202664*
X179987Y202529*
X179118*
Y203398*
G37*
G36*
X122864Y201648D02*
Y200779D01*
X121995*
X122013Y200914*
X122114Y201158*
X122275Y201368*
X122484Y201529*
X122729Y201630*
X122864Y201648*
G37*
G36*
X123118D02*
X123253Y201630D01*
X123497Y201529*
X123707Y201368*
X123868Y201158*
X123969Y200914*
X123987Y200779*
X123118*
Y201648*
G37*
G36*
X108864Y201688D02*
Y200819D01*
X107995*
X108013Y200954*
X108114Y201198*
X108275Y201408*
X108484Y201569*
X108729Y201670*
X108864Y201688*
G37*
G36*
X109118D02*
X109253Y201670D01*
X109497Y201569*
X109707Y201408*
X109868Y201198*
X109969Y200954*
X109987Y200819*
X109118*
Y201688*
G37*
G36*
X115864Y201648D02*
Y200779D01*
X114995*
X115013Y200914*
X115114Y201158*
X115275Y201368*
X115484Y201529*
X115729Y201630*
X115864Y201648*
G37*
G36*
X147868Y200898D02*
X148003Y200880D01*
X148247Y200779*
X148457Y200618*
X148618Y200408*
X148719Y200164*
X148737Y200029*
X147868*
Y200898*
G37*
G36*
X171244Y200858D02*
Y199989D01*
X170375*
X170393Y200124*
X170494Y200368*
X170655Y200578*
X170864Y200739*
X171109Y200840*
X171244Y200858*
G37*
G36*
X116118Y201648D02*
X116253Y201630D01*
X116497Y201529*
X116707Y201368*
X116868Y201158*
X116969Y200914*
X116987Y200779*
X116118*
Y201648*
G37*
G36*
X147614Y200898D02*
Y200029D01*
X146745*
X146763Y200164*
X146864Y200408*
X147025Y200618*
X147234Y200779*
X147479Y200880*
X147614Y200898*
G37*
G36*
X178151Y204561D02*
X180191D01*
X180366Y204526*
X180515Y204426*
X181915Y203026*
X182015Y202877*
X182050Y202702*
Y198402*
X182015Y198226*
X181915Y198077*
X180915Y197077*
X180766Y196978*
X180591Y196943*
X179181*
X175755Y193517*
X175783Y193302*
X175753Y193071*
X175664Y192856*
X175522Y192671*
X175337Y192529*
X175122Y192440*
X174891Y192409*
X174660Y192440*
X174444Y192529*
X174260Y192671*
X174118Y192856*
X174028Y193071*
X173998Y193302*
X174028Y193533*
X174118Y193748*
X174260Y193933*
X174444Y194075*
X174660Y194164*
X174891Y194195*
X175106Y194166*
X178666Y197726*
X178815Y197826*
X178991Y197861*
X180401*
X181132Y198592*
Y202512*
X180001Y203643*
X178341*
X177406Y202708*
X177425Y202663*
X177459Y202402*
X177425Y202141*
X177324Y201898*
X177164Y201689*
X176955Y201528*
X176712Y201428*
X176451Y201393*
X176190Y201428*
X175946Y201528*
X175737Y201689*
X175577Y201898*
X175476Y202141*
X175442Y202402*
X175476Y202663*
X175577Y202906*
X175737Y203115*
X175946Y203275*
X176190Y203376*
X176451Y203411*
X176712Y203376*
X176757Y203357*
X177826Y204426*
X177975Y204526*
X178151Y204561*
G37*
G36*
X096908Y202275D02*
X097777D01*
X097759Y202140*
X097658Y201896*
X097497Y201686*
X097287Y201525*
X097043Y201424*
X096908Y201406*
Y202275*
G37*
G36*
X177995D02*
X178864D01*
Y201406*
X178729Y201424*
X178484Y201525*
X178275Y201686*
X178114Y201896*
X178013Y202140*
X177995Y202275*
G37*
G36*
X089288D02*
X090157D01*
X090139Y202140*
X090038Y201896*
X089877Y201686*
X089667Y201525*
X089423Y201424*
X089288Y201406*
Y202275*
G37*
G36*
X091828D02*
X092697D01*
X092679Y202140*
X092578Y201896*
X092417Y201686*
X092207Y201525*
X091963Y201424*
X091828Y201406*
Y202275*
G37*
G36*
X085621Y203402D02*
X087621D01*
Y201402*
X085621*
Y203402*
G37*
G36*
X171371Y203411D02*
X171632Y203376D01*
X171875Y203275*
X172084Y203115*
X172244Y202906*
X172345Y202663*
X172379Y202402*
X172345Y202141*
X172244Y201898*
X172084Y201689*
X171875Y201528*
X171632Y201428*
X171371Y201393*
X171110Y201428*
X170866Y201528*
X170657Y201689*
X170497Y201898*
X170396Y202141*
X170362Y202402*
X170396Y202663*
X170497Y202906*
X170657Y203115*
X170866Y203275*
X171110Y203376*
X171371Y203411*
G37*
G36*
X173911D02*
X174172Y203376D01*
X174415Y203275*
X174624Y203115*
X174784Y202906*
X174885Y202663*
X174919Y202402*
X174885Y202141*
X174784Y201898*
X174624Y201689*
X174415Y201528*
X174172Y201428*
X173911Y201393*
X173650Y201428*
X173406Y201528*
X173197Y201689*
X173037Y201898*
X172936Y202141*
X172902Y202402*
X172936Y202663*
X173037Y202906*
X173197Y203115*
X173406Y203275*
X173650Y203376*
X173911Y203411*
G37*
G36*
X094241D02*
X094502Y203376D01*
X094745Y203275*
X094954Y203115*
X095114Y202906*
X095215Y202663*
X095249Y202402*
X095215Y202141*
X095114Y201898*
X094954Y201689*
X094745Y201528*
X094502Y201428*
X094241Y201393*
X093980Y201428*
X093736Y201528*
X093527Y201689*
X093367Y201898*
X093266Y202141*
X093232Y202402*
X093266Y202663*
X093367Y202906*
X093527Y203115*
X093736Y203275*
X093980Y203376*
X094241Y203411*
G37*
G36*
X168831D02*
X169092Y203376D01*
X169335Y203275*
X169544Y203115*
X169704Y202906*
X169805Y202663*
X169839Y202402*
X169805Y202141*
X169704Y201898*
X169544Y201689*
X169335Y201528*
X169092Y201428*
X168831Y201393*
X168570Y201428*
X168326Y201528*
X168117Y201689*
X167957Y201898*
X167856Y202141*
X167822Y202402*
X167856Y202663*
X167957Y202906*
X168117Y203115*
X168326Y203275*
X168570Y203376*
X168831Y203411*
G37*
G36*
X080654Y171208D02*
Y170339D01*
X079785*
X079803Y170474*
X079904Y170718*
X080065Y170928*
X080274Y171089*
X080519Y171190*
X080654Y171208*
G37*
G36*
X080908Y171208D02*
X081043Y171190D01*
X081287Y171089*
X081497Y170928*
X081658Y170718*
X081759Y170474*
X081777Y170339*
X080908*
Y171208*
G37*
G36*
X123211Y171575D02*
X123964D01*
Y170822*
X123859Y170836*
X123642Y170925*
X123457Y171068*
X123314Y171254*
X123225Y171470*
X123211Y171575*
G37*
G36*
X124218D02*
X124971D01*
X124957Y171470*
X124867Y171254*
X124725Y171068*
X124539Y170925*
X124323Y170836*
X124218Y170822*
Y171575*
G37*
G36*
X133591Y186795D02*
X133822Y186764D01*
X134037Y186675*
X134222Y186533*
X134364Y186348*
X134453Y186133*
X134483Y185902*
X134453Y185671*
X134364Y185456*
X134222Y185271*
X134049Y185138*
Y175202*
X134015Y175026*
X133915Y174877*
X122155Y163117*
X122183Y162902*
X122153Y162671*
X122064Y162456*
X121922Y162271*
X121737Y162129*
X121522Y162040*
X121291Y162009*
X121060Y162040*
X120844Y162129*
X120660Y162271*
X120518Y162456*
X120428Y162671*
X120398Y162902*
X120426Y163117*
X113701Y169843*
X104254*
X104122Y169671*
X103937Y169529*
X103722Y169440*
X103491Y169409*
X103260Y169440*
X103044Y169529*
X102859Y169671*
X102718Y169856*
X102628Y170071*
X102598Y170302*
X102628Y170533*
X102718Y170748*
X102859Y170933*
X103044Y171075*
X103260Y171164*
X103491Y171195*
X103722Y171164*
X103937Y171075*
X104122Y170933*
X104254Y170761*
X113891*
X114066Y170726*
X114215Y170626*
X121075Y163766*
X121291Y163795*
X121506Y163766*
X133132Y175392*
Y185138*
X132960Y185271*
X132818Y185456*
X132728Y185671*
X132698Y185902*
X132728Y186133*
X132818Y186348*
X132960Y186533*
X133144Y186675*
X133360Y186764*
X133591Y186795*
G37*
G36*
X078241Y171221D02*
X078502Y171186D01*
X078745Y171085*
X078954Y170925*
X079114Y170716*
X079215Y170473*
X079249Y170212*
X079215Y169951*
X079114Y169708*
X078954Y169499*
X078745Y169338*
X078502Y169238*
X078241Y169203*
X077980Y169238*
X077736Y169338*
X077527Y169499*
X077367Y169708*
X077266Y169951*
X077232Y170212*
X077266Y170473*
X077367Y170716*
X077527Y170925*
X077736Y171085*
X077980Y171186*
X078241Y171221*
G37*
G36*
Y168681D02*
X078502Y168646D01*
X078745Y168545*
X078954Y168385*
X079114Y168176*
X079215Y167933*
X079249Y167672*
X079215Y167411*
X079114Y167168*
X078954Y166959*
X078745Y166798*
X078502Y166698*
X078241Y166663*
X077980Y166698*
X077736Y166798*
X077527Y166959*
X077367Y167168*
X077266Y167411*
X077232Y167672*
X077266Y167933*
X077367Y168176*
X077527Y168385*
X077736Y168545*
X077980Y168646*
X078241Y168681*
G37*
G36*
X079785Y170085D02*
X080654D01*
Y169216*
X080519Y169234*
X080274Y169335*
X080065Y169496*
X079904Y169706*
X079803Y169950*
X079785Y170085*
G37*
G36*
X080908D02*
X081777D01*
X081759Y169950*
X081658Y169706*
X081497Y169496*
X081287Y169335*
X081043Y169234*
X080908Y169216*
Y170085*
G37*
G36*
X080781Y173761D02*
X081042Y173726D01*
X081285Y173625*
X081494Y173465*
X081654Y173256*
X081755Y173013*
X081789Y172752*
X081755Y172491*
X081654Y172248*
X081494Y172039*
X081285Y171878*
X081042Y171778*
X080781Y171743*
X080520Y171778*
X080276Y171878*
X080067Y172039*
X079907Y172248*
X079806Y172491*
X079772Y172752*
X079806Y173013*
X079907Y173256*
X080067Y173465*
X080276Y173625*
X080520Y173726*
X080781Y173761*
G37*
G36*
X060310Y177533D02*
X062435D01*
X062404Y177218*
X062275Y176793*
X062066Y176402*
X061784Y176058*
X061441Y175777*
X061049Y175567*
X060625Y175438*
X060310Y175408*
Y177533*
G37*
G36*
X051547Y179921D02*
X051988Y179877D01*
X052412Y179749*
X052803Y179540*
X053145Y179259*
X053427Y178916*
X053635Y178525*
X053764Y178101*
X053808Y177660*
X053764Y177219*
X053635Y176795*
X053427Y176404*
X053145Y176061*
X052803Y175780*
X052412Y175571*
X051988Y175442*
X051547Y175399*
X051106Y175442*
X050681Y175571*
X050291Y175780*
X049948Y176061*
X049667Y176404*
X049458Y176795*
X049329Y177219*
X049286Y177660*
X049329Y178101*
X049458Y178525*
X049667Y178916*
X049948Y179259*
X050291Y179540*
X050681Y179749*
X051106Y179877*
X051547Y179921*
G37*
G36*
X092718Y177075D02*
X093471D01*
X093457Y176970*
X093367Y176754*
X093225Y176568*
X093039Y176425*
X092823Y176336*
X092718Y176322*
Y177075*
G37*
G36*
X057930Y177533D02*
X060056D01*
Y175408*
X059741Y175438*
X059316Y175567*
X058924Y175777*
X058581Y176058*
X058299Y176402*
X058090Y176793*
X057961Y177218*
X057930Y177533*
G37*
G36*
X078241Y176301D02*
X078502Y176266D01*
X078745Y176165*
X078954Y176005*
X079114Y175796*
X079215Y175553*
X079249Y175292*
X079215Y175031*
X079114Y174788*
X078954Y174579*
X078745Y174418*
X078502Y174318*
X078241Y174283*
X077980Y174318*
X077736Y174418*
X077527Y174579*
X077367Y174788*
X077266Y175031*
X077232Y175292*
X077266Y175553*
X077367Y175796*
X077527Y176005*
X077736Y176165*
X077980Y176266*
X078241Y176301*
G37*
G36*
X124218Y172582D02*
X124323Y172568D01*
X124539Y172478*
X124725Y172336*
X124867Y172150*
X124957Y171934*
X124971Y171829*
X124218*
Y172582*
G37*
G36*
X078241Y173761D02*
X078502Y173726D01*
X078745Y173625*
X078954Y173465*
X079114Y173256*
X079215Y173013*
X079249Y172752*
X079215Y172491*
X079114Y172248*
X078954Y172039*
X078745Y171878*
X078502Y171778*
X078241Y171743*
X077980Y171778*
X077736Y171878*
X077527Y172039*
X077367Y172248*
X077266Y172491*
X077232Y172752*
X077266Y173013*
X077367Y173256*
X077527Y173465*
X077736Y173625*
X077980Y173726*
X078241Y173761*
G37*
G36*
X080781Y176301D02*
X081042Y176266D01*
X081285Y176165*
X081494Y176005*
X081654Y175796*
X081755Y175553*
X081789Y175292*
X081755Y175031*
X081654Y174788*
X081494Y174579*
X081285Y174418*
X081042Y174318*
X080781Y174283*
X080520Y174318*
X080276Y174418*
X080067Y174579*
X079907Y174788*
X079806Y175031*
X079772Y175292*
X079806Y175553*
X079907Y175796*
X080067Y176005*
X080276Y176165*
X080520Y176266*
X080781Y176301*
G37*
G36*
X123964Y172582D02*
Y171829D01*
X123211*
X123225Y171934*
X123314Y172150*
X123457Y172336*
X123642Y172478*
X123859Y172568*
X123964Y172582*
G37*
G36*
X161518Y164382D02*
X161623Y164368D01*
X161839Y164278*
X162025Y164136*
X162167Y163950*
X162257Y163734*
X162271Y163629*
X161518*
Y164382*
G37*
G36*
X160511Y163375D02*
X161264D01*
Y162622*
X161159Y162636*
X160942Y162725*
X160757Y162868*
X160614Y163054*
X160525Y163270*
X160511Y163375*
G37*
G36*
X078241Y166141D02*
X078502Y166106D01*
X078745Y166005*
X078954Y165845*
X079114Y165636*
X079215Y165393*
X079249Y165132*
X079215Y164871*
X079114Y164628*
X078954Y164419*
X078745Y164258*
X078502Y164158*
X078241Y164123*
X077980Y164158*
X077736Y164258*
X077527Y164419*
X077367Y164628*
X077266Y164871*
X077232Y165132*
X077266Y165393*
X077367Y165636*
X077527Y165845*
X077736Y166005*
X077980Y166106*
X078241Y166141*
G37*
G36*
X161264Y164382D02*
Y163629D01*
X160511*
X160525Y163734*
X160614Y163950*
X160757Y164136*
X160942Y164278*
X161159Y164368*
X161264Y164382*
G37*
G36*
X161518Y163375D02*
X162271D01*
X162257Y163270*
X162167Y163054*
X162025Y162868*
X161839Y162725*
X161623Y162636*
X161518Y162622*
Y163375*
G37*
G36*
X087611Y161395D02*
X087842Y161364D01*
X088058Y161275*
X088242Y161133*
X088310Y161045*
X088437*
X088504Y161133*
X088689Y161275*
X088904Y161364*
X089135Y161395*
X089366Y161364*
X089582Y161275*
X089766Y161133*
X089908Y160948*
X089997Y160733*
X090028Y160502*
X089997Y160271*
X089908Y160056*
X089766Y159871*
X089582Y159729*
X089366Y159640*
X089140Y159610*
Y147188*
X090008Y146319*
X090106Y146174*
X090140Y146002*
Y123904*
X090106Y123732*
X090008Y123586*
X083689Y117267*
Y115339*
X086388Y112640*
X086485Y112494*
X086519Y112322*
Y109194*
X086700Y109055*
X086841Y108871*
X086931Y108655*
X086961Y108424*
X086931Y108193*
X086841Y107978*
X086700Y107793*
X086515Y107651*
X086299Y107562*
X086068Y107532*
X085837Y107562*
X085622Y107651*
X085437Y107793*
X085295Y107978*
X085206Y108193*
X085176Y108424*
X085190Y108534*
X085100Y108624*
X084991Y108609*
X084760Y108640*
X084544Y108729*
X084360Y108871*
X084218Y109056*
X084128Y109271*
X084098Y109502*
X084128Y109733*
X084218Y109948*
X084360Y110133*
X084544Y110275*
X084693Y110336*
Y112167*
X082473Y114386*
X082287Y114572*
X082190Y114718*
X082156Y114890*
Y117716*
X082190Y117888*
X082287Y118033*
X082473Y118219*
Y118219*
X088607Y124353*
Y145553*
X087738Y146421*
X087641Y146567*
X087607Y146739*
Y146739*
Y159610*
X087380Y159640*
X087165Y159729*
X086980Y159871*
X086838Y160056*
X086749Y160271*
X086719Y160502*
X086749Y160733*
X086838Y160948*
X086980Y161133*
X087165Y161275*
X087380Y161364*
X087611Y161395*
G37*
G36*
X092491Y163895D02*
X092722Y163864D01*
X092937Y163775*
X093122Y163633*
X093264Y163448*
X093353Y163233*
X093383Y163002*
X093353Y162771*
X093264Y162556*
X093122Y162371*
X092950Y162238*
Y160976*
X093067Y160927*
X093826Y161686*
X093798Y161902*
X093828Y162133*
X093918Y162348*
X094060Y162533*
X094244Y162675*
X094460Y162764*
X094691Y162795*
X094922Y162764*
X095137Y162675*
X095322Y162533*
X095464Y162348*
X095553Y162133*
X095583Y161902*
X095553Y161671*
X095464Y161456*
X095322Y161271*
X095137Y161129*
X094922Y161040*
X094691Y161009*
X094475Y161038*
X093700Y160262*
Y155815*
X093872Y155683*
X094005Y155510*
X094044Y155510*
X094132Y155545*
Y159292*
X094167Y159467*
X094266Y159616*
X095731Y161081*
X095703Y161297*
X095733Y161528*
X095823Y161743*
X095964Y161928*
X096149Y162070*
X096365Y162159*
X096596Y162190*
X096827Y162159*
X097042Y162070*
X097227Y161928*
X097369Y161743*
X097458Y161528*
X097488Y161297*
X097458Y161066*
X097369Y160851*
X097227Y160666*
X097042Y160524*
X096827Y160435*
X096596Y160404*
X096380Y160433*
X095050Y159102*
Y122252*
X095015Y122076*
X094915Y121927*
X089855Y116867*
X089883Y116652*
X089853Y116421*
X089764Y116206*
X089622Y116021*
X089437Y115879*
X089222Y115790*
X088991Y115759*
X088760Y115790*
X088544Y115879*
X088359Y116021*
X088218Y116206*
X088128Y116421*
X088098Y116652*
X088128Y116883*
X088218Y117098*
X088359Y117283*
X088544Y117425*
X088760Y117514*
X088991Y117545*
X089206Y117516*
X094132Y122442*
Y154559*
X094044Y154594*
X094005Y154594*
X093872Y154421*
X093687Y154279*
X093472Y154190*
X093241Y154159*
X093010Y154190*
X092794Y154279*
X092610Y154421*
X092468Y154606*
X092378Y154821*
X092348Y155052*
X092378Y155283*
X092468Y155498*
X092610Y155683*
X092782Y155815*
Y158778*
X092665Y158827*
X091899Y158062*
Y124640*
X092026Y124597*
X092057Y124636*
X092242Y124778*
X092459Y124868*
X092564Y124882*
Y124002*
Y123122*
X092459Y123136*
X092242Y123225*
X092057Y123368*
X092026Y123407*
X091899Y123364*
Y123152*
X091865Y122976*
X091765Y122827*
X085855Y116917*
X085883Y116702*
X085853Y116471*
X085764Y116256*
X085622Y116071*
X085437Y115929*
X085222Y115840*
X084991Y115809*
X084760Y115840*
X084544Y115929*
X084360Y116071*
X084218Y116256*
X084128Y116471*
X084098Y116702*
X084128Y116933*
X084218Y117148*
X084360Y117333*
X084544Y117475*
X084760Y117564*
X084991Y117595*
X085206Y117566*
X090982Y123342*
Y158252*
X091017Y158427*
X091116Y158576*
X092032Y159492*
Y162238*
X091859Y162371*
X091718Y162556*
X091628Y162771*
X091598Y163002*
X091628Y163233*
X091718Y163448*
X091859Y163633*
X092044Y163775*
X092260Y163864*
X092491Y163895*
G37*
G36*
X078241Y163601D02*
X078502Y163566D01*
X078745Y163465*
X078954Y163305*
X079114Y163096*
X079215Y162853*
X079249Y162592*
X079215Y162331*
X079114Y162088*
X078954Y161879*
X078745Y161718*
X078502Y161618*
X078241Y161583*
X077980Y161618*
X077736Y161718*
X077527Y161879*
X077367Y162088*
X077266Y162331*
X077232Y162592*
X077266Y162853*
X077367Y163096*
X077527Y163305*
X077736Y163465*
X077980Y163566*
X078241Y163601*
G37*
G36*
X080781D02*
X081042Y163566D01*
X081285Y163465*
X081494Y163305*
X081654Y163096*
X081755Y162853*
X081789Y162592*
X081755Y162331*
X081654Y162088*
X081494Y161879*
X081285Y161718*
X081042Y161618*
X080781Y161583*
X080520Y161618*
X080276Y161718*
X080067Y161879*
X079907Y162088*
X079806Y162331*
X079772Y162592*
X079806Y162853*
X079907Y163096*
X080067Y163305*
X080276Y163465*
X080520Y163566*
X080781Y163601*
G37*
G36*
X080908Y165005D02*
X081777D01*
X081759Y164870*
X081658Y164626*
X081497Y164416*
X081287Y164255*
X081043Y164154*
X080908Y164136*
Y165005*
G37*
G36*
X197418Y166582D02*
X197523Y166568D01*
X197739Y166478*
X197925Y166336*
X198067Y166150*
X198157Y165934*
X198171Y165829*
X197418*
Y166582*
G37*
G36*
X080654Y166128D02*
Y165259D01*
X079785*
X079803Y165394*
X079904Y165638*
X080065Y165848*
X080274Y166009*
X080519Y166110*
X080654Y166128*
G37*
G36*
X080781Y168681D02*
X081042Y168646D01*
X081285Y168545*
X081494Y168385*
X081654Y168176*
X081755Y167933*
X081789Y167672*
X081755Y167411*
X081654Y167168*
X081494Y166959*
X081285Y166798*
X081042Y166698*
X080781Y166663*
X080520Y166698*
X080276Y166798*
X080067Y166959*
X079907Y167168*
X079806Y167411*
X079772Y167672*
X079806Y167933*
X079907Y168176*
X080067Y168385*
X080276Y168545*
X080520Y168646*
X080781Y168681*
G37*
G36*
X197164Y166582D02*
Y165829D01*
X196411*
X196425Y165934*
X196514Y166150*
X196657Y166336*
X196842Y166478*
X197059Y166568*
X197164Y166582*
G37*
G36*
X080908Y166128D02*
X081043Y166110D01*
X081287Y166009*
X081497Y165848*
X081658Y165638*
X081759Y165394*
X081777Y165259*
X080908*
Y166128*
G37*
G36*
X106691Y166995D02*
X106922Y166964D01*
X107137Y166875*
X107322Y166733*
X107464Y166548*
X107553Y166333*
X107583Y166102*
X107553Y165871*
X107464Y165656*
X107322Y165471*
X107137Y165329*
X106922Y165240*
X106691Y165209*
X106460Y165240*
X106244Y165329*
X106144Y165406*
X105450Y164712*
Y164174*
X105577Y164149*
X105618Y164248*
X105759Y164433*
X105944Y164575*
X106160Y164664*
X106391Y164695*
X106622Y164664*
X106837Y164575*
X107022Y164433*
X107154Y164261*
X117791*
X117966Y164226*
X118115Y164126*
X129175Y153066*
X129391Y153095*
X129622Y153064*
X129837Y152975*
X130022Y152833*
X130164Y152648*
X130253Y152433*
X130283Y152202*
X130253Y151971*
X130164Y151756*
X130022Y151571*
X129837Y151429*
X129622Y151340*
X129391Y151309*
X129160Y151340*
X128944Y151429*
X128759Y151571*
X128618Y151756*
X128528Y151971*
X128498Y152202*
X128526Y152417*
X117601Y163343*
X107154*
X107022Y163171*
X106837Y163029*
X106622Y162940*
X106391Y162909*
X106160Y162940*
X105944Y163029*
X105759Y163171*
X105618Y163356*
X105577Y163455*
X105450Y163430*
Y163092*
X106615Y161926*
X106714Y161778*
X106749Y161602*
Y143997*
X106864Y143848*
X106953Y143633*
X106984Y143402*
X106953Y143171*
X106864Y142955*
X106722Y142771*
X106537Y142629*
X106438Y142588*
X106463Y142461*
X116501*
X118832Y144792*
Y153402*
X118867Y153577*
X118966Y153726*
X121426Y156186*
X121398Y156402*
X121426Y156617*
X118906Y159138*
X118691Y159109*
X118460Y159140*
X118244Y159229*
X118059Y159371*
X117918Y159556*
X117828Y159771*
X117798Y160002*
X117828Y160233*
X117918Y160448*
X118059Y160633*
X118244Y160775*
X118460Y160864*
X118691Y160895*
X118922Y160864*
X119137Y160775*
X119322Y160633*
X119464Y160448*
X119553Y160233*
X119583Y160002*
X119555Y159786*
X122075Y157266*
X122291Y157295*
X122522Y157264*
X122737Y157175*
X122922Y157033*
X123064Y156848*
X123153Y156633*
X123183Y156402*
X123153Y156171*
X123064Y155956*
X122922Y155771*
X122737Y155629*
X122522Y155540*
X122291Y155509*
X122075Y155538*
X119750Y153212*
Y144602*
X119715Y144426*
X119615Y144277*
X117015Y141677*
X116866Y141578*
X116691Y141543*
X107774*
X107712Y141416*
X107764Y141348*
X107853Y141133*
X107884Y140902*
X107853Y140671*
X107764Y140455*
X107622Y140271*
X107450Y140138*
Y138102*
X107415Y137927*
X107315Y137778*
X104215Y134677*
X104066Y134578*
X103891Y134543*
X103054*
X102922Y134371*
X102737Y134229*
X102522Y134140*
X102291Y134109*
X102060Y134140*
X101844Y134229*
X101659Y134371*
X101518Y134556*
X101428Y134771*
X101398Y135002*
X101428Y135233*
X101518Y135448*
X101659Y135633*
X101844Y135775*
X102060Y135864*
X102291Y135895*
X102522Y135864*
X102737Y135775*
X102922Y135633*
X103054Y135461*
X103701*
X106532Y138292*
Y140138*
X106360Y140271*
X106218Y140455*
X106129Y140671*
X106098Y140902*
X106125Y141108*
X106065Y141155*
X106011Y141174*
X105250Y140412*
Y139202*
X105215Y139026*
X105115Y138877*
X104655Y138417*
X104683Y138202*
X104653Y137971*
X104564Y137756*
X104422Y137571*
X104237Y137429*
X104022Y137340*
X103791Y137309*
X103560Y137340*
X103344Y137429*
X103159Y137571*
X103018Y137756*
X102928Y137971*
X102898Y138202*
X102928Y138433*
X103018Y138648*
X103134Y138800*
X103078Y138916*
X103074Y138920*
X102991Y138909*
X102760Y138940*
X102545Y139029*
X102360Y139171*
X102280Y139274*
X102169Y139278*
X102074Y139173*
X102083Y139102*
X102053Y138871*
X101964Y138656*
X101822Y138471*
X101650Y138338*
Y136602*
X101615Y136426*
X101515Y136277*
X099855Y134617*
X099883Y134402*
X099853Y134171*
X099764Y133956*
X099635Y133788*
X099666Y133661*
X106940*
X107018Y133848*
X107160Y134033*
X107344Y134175*
X107560Y134264*
X107791Y134295*
X108022Y134264*
X108237Y134175*
X108422Y134033*
X108564Y133848*
X108653Y133633*
X108683Y133402*
X108653Y133171*
X108564Y132956*
X108422Y132771*
X108237Y132629*
X108022Y132540*
X107791Y132509*
X107560Y132540*
X107344Y132629*
X107196Y132743*
X097454*
X097322Y132571*
X097137Y132429*
X097105Y132415*
Y132288*
X097137Y132275*
X097322Y132133*
X097454Y131961*
X117301*
X123032Y137692*
Y150738*
X122860Y150871*
X122718Y151056*
X122628Y151271*
X122598Y151502*
X122628Y151733*
X122718Y151948*
X122860Y152133*
X123044Y152275*
X123260Y152364*
X123491Y152395*
X123722Y152364*
X123937Y152275*
X124122Y152133*
X124264Y151948*
X124353Y151733*
X124383Y151502*
X124353Y151271*
X124264Y151056*
X124122Y150871*
X123949Y150738*
Y137502*
X123915Y137326*
X123815Y137177*
X117815Y131177*
X117666Y131078*
X117491Y131043*
X097454*
X097322Y130871*
X097137Y130729*
X096922Y130640*
X096691Y130609*
X096460Y130640*
X096244Y130729*
X096060Y130871*
X095918Y131056*
X095828Y131271*
X095798Y131502*
X095828Y131733*
X095918Y131948*
X096060Y132133*
X096244Y132275*
X096277Y132288*
Y132415*
X096244Y132429*
X096060Y132571*
X095918Y132756*
X095828Y132971*
X095798Y133202*
X095828Y133433*
X095918Y133648*
X096060Y133833*
X096244Y133975*
X096460Y134064*
X096691Y134095*
X096922Y134064*
X097137Y133975*
X097322Y133833*
X097454Y133661*
X098315*
X098346Y133788*
X098218Y133956*
X098128Y134171*
X098098Y134402*
X098128Y134633*
X098218Y134848*
X098360Y135033*
X098544Y135175*
X098760Y135264*
X098991Y135295*
X099206Y135266*
X100732Y136792*
Y138338*
X100559Y138471*
X100418Y138656*
X100328Y138871*
X100298Y139102*
X100328Y139333*
X100418Y139548*
X100470Y139616*
X100407Y139743*
X097019*
X096983Y139702*
X096953Y139471*
X096864Y139256*
X096722Y139071*
X096537Y138929*
X096322Y138840*
X096091Y138809*
X095860Y138840*
X095644Y138929*
X095460Y139071*
X095318Y139256*
X095228Y139471*
X095198Y139702*
X095228Y139933*
X095318Y140148*
X095460Y140333*
X095644Y140475*
X095860Y140564*
X096091Y140595*
X096322Y140564*
X096322Y140564*
X096415Y140626*
X096591Y140661*
X101507*
X101570Y140788*
X101518Y140855*
X101429Y141071*
X101422Y141122*
X101286Y141258*
X096789*
X096722Y141171*
X096537Y141029*
X096322Y140940*
X096091Y140909*
X095860Y140940*
X095644Y141029*
X095460Y141171*
X095318Y141356*
X095228Y141571*
X095198Y141802*
X095228Y142033*
X095318Y142248*
X095460Y142433*
X095644Y142575*
X095860Y142664*
X096091Y142695*
X096322Y142664*
X096537Y142575*
X096722Y142433*
X096864Y142248*
X096894Y142176*
X097440*
X097478Y142303*
X097366Y142377*
X096451Y143293*
X096322Y143240*
X096091Y143209*
X095860Y143240*
X095644Y143329*
X095460Y143471*
X095318Y143656*
X095228Y143871*
X095198Y144102*
X095228Y144333*
X095318Y144548*
X095460Y144733*
X095644Y144875*
X095860Y144964*
X096091Y144995*
X096322Y144964*
X096537Y144875*
X096722Y144733*
X096864Y144548*
X096953Y144333*
X096983Y144102*
X096978Y144063*
X097782Y143259*
X097791Y143261*
X100727*
X100859Y143433*
X101044Y143575*
X101260Y143664*
X101491Y143695*
X101722Y143664*
X101937Y143575*
X102122Y143433*
X102264Y143248*
X102353Y143033*
X102383Y142802*
X102353Y142571*
X102264Y142356*
X102224Y142304*
X102257Y142248*
X102299Y142193*
X102522Y142164*
X102737Y142075*
X102922Y141933*
X103064Y141748*
X103153Y141533*
X103184Y141302*
X103153Y141071*
X103064Y140855*
X103034Y140817*
X103090Y140681*
X103222Y140664*
X103437Y140575*
X103622Y140433*
X103764Y140248*
X103853Y140033*
X103884Y139802*
X103853Y139571*
X103764Y139355*
X103648Y139204*
X103704Y139087*
X103707Y139084*
X103791Y139095*
X104006Y139066*
X104332Y139392*
Y140602*
X104367Y140777*
X104466Y140926*
X105866Y142326*
X105972Y142397*
X105941Y142529*
X105860Y142540*
X105645Y142629*
X105460Y142771*
X105318Y142955*
X105229Y143171*
X105198Y143402*
X105229Y143633*
X105318Y143848*
X105460Y144033*
X105645Y144175*
X105832Y144252*
Y161412*
X104666Y162577*
X104567Y162726*
X104532Y162902*
Y164902*
X104567Y165077*
X104666Y165226*
X105866Y166426*
X105868Y166427*
X105918Y166548*
X106060Y166733*
X106244Y166875*
X106460Y166964*
X106691Y166995*
G37*
G36*
X079785Y165005D02*
X080654D01*
Y164136*
X080519Y164154*
X080274Y164255*
X080065Y164416*
X079904Y164626*
X079803Y164870*
X079785Y165005*
G37*
G36*
X196411Y165575D02*
X197164D01*
Y164822*
X197059Y164836*
X196842Y164925*
X196657Y165068*
X196514Y165254*
X196425Y165470*
X196411Y165575*
G37*
G36*
X197418D02*
X198171D01*
X198157Y165470*
X198067Y165254*
X197925Y165068*
X197739Y164925*
X197523Y164836*
X197418Y164822*
Y165575*
G37*
G36*
X091711Y177075D02*
X092464D01*
Y176322*
X092359Y176336*
X092142Y176425*
X091957Y176568*
X091814Y176754*
X091725Y176970*
X091711Y177075*
G37*
G36*
X120064Y183282D02*
Y182529D01*
X119311*
X119325Y182634*
X119414Y182850*
X119557Y183036*
X119742Y183178*
X119959Y183268*
X120064Y183282*
G37*
G36*
X120318D02*
X120423Y183268D01*
X120639Y183178*
X120825Y183036*
X120967Y182850*
X121057Y182634*
X121071Y182529*
X120318*
Y183282*
G37*
G36*
X128364Y185906D02*
Y182779D01*
X125237*
X125267Y183163*
X125386Y183661*
X125582Y184134*
X125850Y184570*
X126183Y184960*
X126572Y185293*
X127009Y185560*
X127482Y185756*
X127980Y185876*
X128364Y185906*
G37*
G36*
X128618D02*
X129001Y185876D01*
X129499Y185756*
X129973Y185560*
X130409Y185293*
X130799Y184960*
X131131Y184570*
X131399Y184134*
X131595Y183661*
X131715Y183163*
X131745Y182779*
X128618*
Y185906*
G37*
G36*
X119311Y182275D02*
X120064D01*
Y181522*
X119959Y181536*
X119742Y181625*
X119557Y181768*
X119414Y181954*
X119325Y182170*
X119311Y182275*
G37*
G36*
X113418Y181482D02*
X113523Y181468D01*
X113739Y181378*
X113925Y181236*
X114067Y181050*
X114157Y180834*
X114171Y180729*
X113418*
Y181482*
G37*
G36*
X065891Y180695D02*
X066122Y180664D01*
X066337Y180575*
X066522Y180433*
X066664Y180248*
X066700Y180161*
X070727*
X070860Y180333*
X071044Y180475*
X071260Y180564*
X071491Y180595*
X071722Y180564*
X071937Y180475*
X072122Y180333*
X072264Y180148*
X072353Y179933*
X072383Y179702*
X072353Y179471*
X072264Y179256*
X072122Y179071*
X071937Y178929*
X071722Y178840*
X071491Y178809*
X071260Y178840*
X071044Y178929*
X070860Y179071*
X070727Y179243*
X066577*
X066522Y179171*
X066337Y179029*
X066122Y178940*
X065891Y178909*
X065660Y178940*
X065444Y179029*
X065259Y179171*
X065118Y179356*
X065028Y179571*
X064998Y179802*
X065028Y180033*
X065118Y180248*
X065259Y180433*
X065444Y180575*
X065660Y180664*
X065891Y180695*
G37*
G36*
X120318Y182275D02*
X121071D01*
X121057Y182170*
X120967Y181954*
X120825Y181768*
X120639Y181625*
X120423Y181536*
X120318Y181522*
Y182275*
G37*
G36*
X113164Y181482D02*
Y180729D01*
X112411*
X112425Y180834*
X112514Y181050*
X112657Y181236*
X112842Y181378*
X113059Y181468*
X113164Y181482*
G37*
G36*
X079618Y185906D02*
X080001Y185876D01*
X080499Y185756*
X080973Y185560*
X081409Y185293*
X081799Y184960*
X082131Y184570*
X082399Y184134*
X082595Y183661*
X082715Y183163*
X082745Y182779*
X079618*
Y185906*
G37*
G36*
X086541Y191245D02*
X086772Y191214D01*
X086987Y191125*
X087172Y190983*
X087304Y190811*
X095777*
X095909Y190983*
X096094Y191125*
X096310Y191214*
X096541Y191245*
X096772Y191214*
X096987Y191125*
X097172Y190983*
X097314Y190798*
X097403Y190583*
X097433Y190352*
X097403Y190121*
X097314Y189906*
X097172Y189721*
X096987Y189579*
X096772Y189490*
X096541Y189459*
X096310Y189490*
X096094Y189579*
X095909Y189721*
X095777Y189893*
X087304*
X087172Y189721*
X086987Y189579*
X086772Y189490*
X086541Y189459*
X086310Y189490*
X086094Y189579*
X085910Y189721*
X085768Y189906*
X085678Y190121*
X085648Y190352*
X085678Y190583*
X085768Y190798*
X085910Y190983*
X086094Y191125*
X086310Y191214*
X086541Y191245*
G37*
G36*
X065991Y189895D02*
X066222Y189864D01*
X066437Y189775*
X066622Y189633*
X066754Y189461*
X070227*
X070360Y189633*
X070544Y189775*
X070760Y189864*
X070991Y189895*
X071222Y189864*
X071437Y189775*
X071622Y189633*
X071764Y189448*
X071853Y189233*
X071883Y189002*
X071853Y188771*
X071764Y188556*
X071622Y188371*
X071437Y188229*
X071222Y188140*
X070991Y188109*
X070760Y188140*
X070544Y188229*
X070360Y188371*
X070227Y188543*
X066754*
X066622Y188371*
X066437Y188229*
X066222Y188140*
X065991Y188109*
X065760Y188140*
X065544Y188229*
X065359Y188371*
X065218Y188556*
X065128Y188771*
X065098Y189002*
X065128Y189233*
X065218Y189448*
X065359Y189633*
X065544Y189775*
X065760Y189864*
X065991Y189895*
G37*
G36*
X146741Y203442D02*
X148741D01*
Y201442*
X147390*
X145750Y199802*
Y197702*
X145715Y197526*
X145615Y197377*
X141555Y193317*
X141583Y193102*
X141553Y192871*
X141464Y192656*
X141322Y192471*
X141137Y192329*
X140922Y192240*
X140691Y192209*
X140460Y192240*
X140244Y192329*
X140059Y192471*
X139918Y192656*
X139828Y192871*
X139798Y193102*
X139828Y193333*
X139918Y193548*
X140059Y193733*
X140244Y193875*
X140460Y193964*
X140691Y193995*
X140906Y193966*
X144832Y197892*
Y199992*
X144867Y200167*
X144966Y200316*
X146741Y202091*
Y203442*
G37*
G36*
X081841Y192945D02*
X082072Y192914D01*
X082287Y192825*
X082472Y192683*
X082614Y192498*
X082703Y192283*
X082733Y192052*
X082705Y191836*
X086015Y188526*
X086115Y188377*
X086149Y188202*
Y145592*
X086775Y144966*
X086991Y144995*
X087222Y144964*
X087437Y144875*
X087622Y144733*
X087764Y144548*
X087853Y144333*
X087883Y144102*
X087853Y143871*
X087764Y143656*
X087622Y143471*
X087437Y143329*
X087222Y143240*
X086991Y143209*
X086760Y143240*
X086544Y143329*
X086359Y143471*
X086218Y143656*
X086128Y143871*
X086098Y144102*
X086126Y144317*
X085366Y145077*
X085267Y145226*
X085232Y145402*
Y188012*
X082056Y191188*
X081841Y191159*
X081610Y191190*
X081394Y191279*
X081209Y191421*
X081068Y191606*
X080978Y191821*
X080948Y192052*
X080978Y192283*
X081068Y192498*
X081209Y192683*
X081394Y192825*
X081610Y192914*
X081841Y192945*
G37*
G36*
X191364Y185082D02*
Y184329D01*
X190611*
X190625Y184434*
X190714Y184650*
X190857Y184836*
X191042Y184978*
X191259Y185068*
X191364Y185082*
G37*
G36*
X191618Y184075D02*
X192371D01*
X192357Y183970*
X192267Y183754*
X192125Y183568*
X191939Y183425*
X191723Y183336*
X191618Y183322*
Y184075*
G37*
G36*
X079364Y185906D02*
Y182779D01*
X076237*
X076267Y183163*
X076386Y183661*
X076582Y184134*
X076850Y184570*
X077183Y184960*
X077572Y185293*
X078009Y185560*
X078482Y185756*
X078980Y185876*
X079364Y185906*
G37*
G36*
X191618Y185082D02*
X191723Y185068D01*
X191939Y184978*
X192125Y184836*
X192267Y184650*
X192357Y184434*
X192371Y184329*
X191618*
Y185082*
G37*
G36*
X190611Y184075D02*
X191364D01*
Y183322*
X191259Y183336*
X191042Y183425*
X190857Y183568*
X190714Y183754*
X190625Y183970*
X190611Y184075*
G37*
G36*
X060056Y179912D02*
Y177787D01*
X057930*
X057961Y178102*
X058090Y178527*
X058299Y178918*
X058581Y179261*
X058924Y179543*
X059316Y179752*
X059741Y179881*
X060056Y179912*
G37*
G36*
X060310D02*
X060625Y179881D01*
X061049Y179752*
X061441Y179543*
X061784Y179261*
X062066Y178918*
X062275Y178527*
X062404Y178102*
X062435Y177787*
X060310*
Y179912*
G37*
G36*
X078114Y178828D02*
Y177959D01*
X077245*
X077263Y178094*
X077364Y178338*
X077525Y178548*
X077734Y178709*
X077979Y178810*
X078114Y178828*
G37*
G36*
X078368Y178828D02*
X078503Y178810D01*
X078747Y178709*
X078957Y178548*
X079118Y178338*
X079219Y178094*
X079237Y177959*
X078368*
Y178828*
G37*
G36*
X092464Y178082D02*
Y177329D01*
X091711*
X091725Y177434*
X091814Y177650*
X091957Y177836*
X092142Y177978*
X092359Y178068*
X092464Y178082*
G37*
G36*
X078368Y177705D02*
X079237D01*
X079219Y177570*
X079118Y177326*
X078957Y177116*
X078747Y176955*
X078503Y176854*
X078368Y176836*
Y177705*
G37*
G36*
X080781Y178841D02*
X081042Y178806D01*
X081285Y178705*
X081494Y178545*
X081654Y178336*
X081755Y178093*
X081789Y177832*
X081755Y177571*
X081654Y177328*
X081494Y177119*
X081285Y176958*
X081042Y176858*
X080781Y176823*
X080520Y176858*
X080276Y176958*
X080067Y177119*
X079907Y177328*
X079806Y177571*
X079772Y177832*
X079806Y178093*
X079907Y178336*
X080067Y178545*
X080276Y178705*
X080520Y178806*
X080781Y178841*
G37*
G36*
X092718Y178082D02*
X092823Y178068D01*
X093039Y177978*
X093225Y177836*
X093367Y177650*
X093457Y177434*
X093471Y177329*
X092718*
Y178082*
G37*
G36*
X077245Y177705D02*
X078114D01*
Y176836*
X077979Y176854*
X077734Y176955*
X077525Y177116*
X077364Y177326*
X077263Y177570*
X077245Y177705*
G37*
G36*
X104518Y178775D02*
X105271D01*
X105257Y178670*
X105167Y178454*
X105025Y178268*
X104839Y178125*
X104623Y178036*
X104518Y178022*
Y178775*
G37*
G36*
X076237Y182525D02*
X079364D01*
Y179398*
X078980Y179428*
X078482Y179548*
X078009Y179744*
X077572Y180011*
X077183Y180344*
X076850Y180733*
X076582Y181170*
X076386Y181643*
X076267Y182141*
X076237Y182525*
G37*
G36*
X079618D02*
X082745D01*
X082715Y182141*
X082595Y181643*
X082399Y181170*
X082131Y180733*
X081799Y180344*
X081409Y180011*
X080973Y179744*
X080499Y179548*
X080001Y179428*
X079618Y179398*
Y182525*
G37*
G36*
X112411Y180475D02*
X113164D01*
Y179722*
X113059Y179736*
X112842Y179825*
X112657Y179968*
X112514Y180154*
X112425Y180370*
X112411Y180475*
G37*
G36*
X113418D02*
X114171D01*
X114157Y180370*
X114067Y180154*
X113925Y179968*
X113739Y179825*
X113523Y179736*
X113418Y179722*
Y180475*
G37*
G36*
X125237Y182525D02*
X128364D01*
Y179398*
X127980Y179428*
X127482Y179548*
X127009Y179744*
X126572Y180011*
X126183Y180344*
X125850Y180733*
X125582Y181170*
X125386Y181643*
X125267Y182141*
X125237Y182525*
G37*
G36*
X104518Y179782D02*
X104623Y179768D01*
X104839Y179678*
X105025Y179536*
X105167Y179350*
X105257Y179134*
X105271Y179029*
X104518*
Y179782*
G37*
G36*
X103511Y178775D02*
X104264D01*
Y178022*
X104159Y178036*
X103942Y178125*
X103757Y178268*
X103614Y178454*
X103525Y178670*
X103511Y178775*
G37*
G36*
X128618Y182525D02*
X131745D01*
X131715Y182141*
X131595Y181643*
X131399Y181170*
X131131Y180733*
X130799Y180344*
X130409Y180011*
X129973Y179744*
X129499Y179548*
X129001Y179428*
X128618Y179398*
Y182525*
G37*
G36*
X104264Y179782D02*
Y179029D01*
X103511*
X103525Y179134*
X103614Y179350*
X103757Y179536*
X103942Y179678*
X104159Y179768*
X104264Y179782*
G37*
%LNfilm_bot-4*%
%LPC*%
G54D63*
X181591Y198402D02*
Y202702D01*
Y198402D02*
X180591Y197402D01*
X181591Y202702D02*
X180191Y204102D01*
X180591Y197402D02*
X178991D01*
X180191Y204102D02*
X178151D01*
X178991Y197402D02*
X174891Y193302D01*
X178151Y204102D02*
X176451Y202402D01*
G54D64*
X166611Y103402D02*
X164631Y101422D01*
X147511D01*
X160391Y138502D02*
X148791Y126902D01*
G54D63*
X152821Y199902D02*
X146821Y193902D01*
G54D64*
X150091Y175102D02*
X129391Y195802D01*
X148791Y102702D02*
Y126902D01*
Y102702D02*
X147511Y101422D01*
X148791Y126902D02*
X142391D01*
G54D63*
X147741Y202442D02*
X145291Y199992D01*
G54D64*
X147511Y101422D02*
X144991D01*
G54D63*
X146821Y193902D02*
X146691D01*
X145291Y197702D02*
Y199992D01*
Y197702D02*
X140691Y193102D01*
G54D64*
X142391Y126902D02*
X128791Y113302D01*
G54D63*
X133591Y175202D02*
Y185902D01*
Y175202D02*
X121291Y162902D01*
X129391Y152202D02*
X117791Y163802D01*
G54D64*
X129391Y195802D02*
Y200802D01*
X127001Y203192D01*
X128791Y113302D02*
X123791D01*
X127001Y203192D02*
X122991D01*
X123791Y113302D02*
X120991Y110502D01*
X123791Y113302D02*
X102491D01*
G54D63*
X123491Y137502D02*
Y151502D01*
Y137502D02*
X117491Y131502D01*
G54D64*
X122991Y203192D02*
X115991D01*
G54D63*
X122291Y156402D02*
X119291Y153402D01*
X122291Y156402D02*
X118691Y160002D01*
X121291Y162902D02*
X113891Y170302D01*
G54D64*
X120991Y105942D02*
Y110502D01*
G54D63*
X119291Y144602D02*
Y153402D01*
Y144602D02*
X116691Y142002D01*
X117791Y163802D02*
X106391D01*
X117491Y131502D02*
X096691D01*
X116691Y142002D02*
X106191D01*
G54D64*
X115991Y203192D02*
D01*
X109031D01*
G54D63*
X113891Y170302D02*
X103491D01*
G54D64*
X109031Y203192D02*
X108991Y203232D01*
G54D63*
X107791Y133402D02*
X107591Y133202D01*
X096691D01*
X106991Y138102D02*
Y140902D01*
Y138102D02*
X103891Y135002D01*
X106691Y166102D02*
X106191D01*
X106291Y143402D02*
Y161602D01*
Y143402D02*
X106091D01*
X106291Y161602D02*
X104991Y162902D01*
X106191Y142002D02*
X104791Y140602D01*
X106191Y166102D02*
X104991Y164902D01*
Y162902D02*
Y164902D01*
X104791Y139202D02*
Y140602D01*
Y139202D02*
X103791Y138202D01*
X103891Y135002D02*
X102291D01*
X103791Y154402D02*
Y162002D01*
Y154402D02*
X096091Y146702D01*
X102991Y139802D02*
X102072D01*
G54D64*
X102491Y113302D02*
X092491Y103302D01*
G54D63*
X102291Y140902D02*
Y141302D01*
Y140902D02*
X101476Y141717D01*
X102072Y139802D02*
X101671Y140202D01*
X096591D01*
X101491Y142802D02*
X097791D01*
X101476Y141717D02*
X096176D01*
X101476Y163387D02*
Y195167D01*
Y163387D02*
X096191Y158102D01*
X101476Y195167D02*
X096781Y199862D01*
X101191Y136602D02*
Y139102D01*
Y136602D02*
X098991Y134402D01*
X100391Y170302D02*
X098191Y168102D01*
X094791D01*
X097791Y142802D02*
X097691Y142702D01*
X096191Y144202D01*
X096596Y161297D02*
X094591Y159292D01*
X096591Y193802D02*
X089291D01*
X096591Y140202D02*
X096091Y139702D01*
X096541Y190352D02*
X086541D01*
X096191Y150602D02*
Y158102D01*
X096176Y141717D02*
X096091Y141802D01*
X094691Y161902D02*
X093241Y160452D01*
X094591Y122252D02*
Y159292D01*
Y122252D02*
X088991Y116652D01*
X093241Y155052D02*
Y160452D01*
G54D64*
X092491Y103302D02*
X058091D01*
G54D63*
X092491Y159302D02*
Y163002D01*
Y159302D02*
X091441Y158252D01*
Y123152D02*
Y158252D01*
Y123152D02*
X084991Y116702D01*
G54D67*
X089691Y123904D02*
Y146002D01*
Y123904D02*
X083240Y117453D01*
X089691Y146002D02*
X088691Y147002D01*
X089135Y160502D02*
X088691Y160057D01*
X089056Y124167D02*
Y145739D01*
Y124167D02*
X082791Y117902D01*
X089056Y145739D02*
X088056Y146739D01*
X088691Y147002D02*
Y160057D01*
X088056Y146739D02*
Y160057D01*
X087611Y160502D01*
G54D63*
X086991Y139802D02*
Y139836D01*
X084240Y142587D01*
X086991Y141902D02*
X084491Y144402D01*
X086991Y144102D02*
X085691Y145402D01*
X086591Y133202D02*
X086481Y133312D01*
X074581D01*
G54D67*
X086070Y108426D02*
Y112322D01*
Y108426D02*
X086068Y108424D01*
X086070Y112322D02*
X083240Y115153D01*
G54D63*
X085691Y145402D02*
Y188202D01*
X081841Y192052D01*
G54D67*
X085142Y109653D02*
Y112353D01*
Y109653D02*
X084991Y109502D01*
X085142Y112353D02*
X082791Y114704D01*
G54D63*
X084491Y144402D02*
Y186302D01*
X077991Y192802D01*
X084240Y142587D02*
X084206D01*
X083391Y143402D01*
X083791Y140202D02*
Y141502D01*
Y140202D02*
X080781Y137192D01*
X083391Y143402D02*
Y185202D01*
X075691Y192902D01*
G54D67*
X083240Y115153D02*
Y117453D01*
X082791Y114704D02*
D01*
X082605Y114890D01*
X082791Y117902D02*
D01*
X082605Y117716D01*
Y114890D02*
Y117716D01*
G54D63*
X075691Y192902D02*
X070591D01*
X074581Y133312D02*
X072491Y135402D01*
Y142602D01*
X062071Y153022D01*
X071491Y179702D02*
X065991D01*
X070991Y189002D02*
X065991D01*
X070591Y192902D02*
X065891Y197602D01*
X068741Y141052D02*
X058041Y151752D01*
X065991Y179702D02*
X065891Y179802D01*
X062071Y153022D02*
X047991D01*
G54D64*
X058091Y103302D02*
X057741Y103652D01*
G54D63*
X058041Y151752D02*
X047991D01*
G54D70*
X201991Y107402D03*
Y197402D03*
G54D73*
X197691Y120362D03*
Y125442D03*
G54D69*
X178991Y199862D03*
G54D68*
X178991Y202402D03*
X176451Y199862D03*
Y202402D03*
X173911Y199862D03*
Y202402D03*
X171371Y199862D03*
Y202402D03*
X168831Y199862D03*
Y202402D03*
G54D69*
X166611Y103402D03*
G54D68*
X166611Y105942D03*
X164071Y103402D03*
Y105942D03*
X161531Y103402D03*
Y105942D03*
X158991Y103402D03*
Y105942D03*
X156451Y103402D03*
Y105942D03*
X152821Y199902D03*
Y202442D03*
X150281Y199902D03*
Y202442D03*
X147741Y199902D03*
G54D69*
X147741Y202442D03*
X144991Y101422D03*
G54D68*
X144991Y103962D03*
Y106502D03*
Y109042D03*
G54D70*
X136991Y107402D03*
Y197402D03*
X128491Y124652D03*
Y182652D03*
G54D68*
X126071Y103402D03*
Y105942D03*
X123531Y103402D03*
Y105942D03*
X122991Y198112D03*
Y200652D03*
G54D69*
X122991Y203192D03*
G54D68*
X120991Y103402D03*
G54D69*
X120991Y105942D03*
G54D68*
X115991Y198112D03*
Y200652D03*
G54D69*
X115991Y203192D03*
G54D68*
X108991Y198152D03*
Y200692D03*
G54D69*
X108991Y203232D03*
G54D68*
X096781Y199862D03*
Y202402D03*
X094241Y199862D03*
Y202402D03*
X091701Y199862D03*
Y202402D03*
X089161Y199862D03*
Y202402D03*
G54D74*
X087191Y101552D03*
G54D68*
X086621Y199862D03*
G54D69*
X086621Y202402D03*
G54D74*
X082791Y101552D03*
G54D68*
X080781Y129572D03*
Y132112D03*
Y134652D03*
Y137192D03*
Y139732D03*
Y142272D03*
Y144812D03*
Y147352D03*
Y149892D03*
Y152432D03*
Y154972D03*
Y157512D03*
Y160052D03*
Y162592D03*
Y165132D03*
Y167672D03*
Y170212D03*
Y172752D03*
Y175292D03*
Y177832D03*
G54D70*
X079491Y124652D03*
Y182652D03*
G54D69*
X078241Y129572D03*
G54D68*
X078241Y132112D03*
Y134652D03*
Y137192D03*
Y139732D03*
Y142272D03*
Y144812D03*
Y147352D03*
Y149892D03*
Y152432D03*
Y154972D03*
Y157512D03*
Y160052D03*
Y162592D03*
Y165132D03*
Y167672D03*
Y170212D03*
Y172752D03*
Y175292D03*
Y177832D03*
G54D70*
X071991Y107402D03*
Y197402D03*
G54D71*
X060183Y177660D03*
X051547D03*
G54D72*
X047991Y145402D03*
Y146672D03*
Y147942D03*
Y149212D03*
Y150482D03*
Y151752D03*
Y153022D03*
Y154292D03*
G54D75*
X197291Y165702D03*
X191491Y184202D03*
X182691Y146802D03*
X181191Y113802D03*
X174891Y193302D03*
X161391Y163502D03*
X160391Y138502D03*
X151991Y155402D03*
X150091Y175102D03*
X148891Y143602D03*
X146691Y193902D03*
X140691Y193102D03*
X133591Y185902D03*
X129391Y152202D03*
X124091Y171702D03*
X123491Y151502D03*
X122291Y156402D03*
X121291Y162902D03*
X120691Y130602D03*
X120191Y182402D03*
X118691Y160002D03*
X116291Y137302D03*
X113291Y180602D03*
X109791Y152702D03*
X109391Y116602D03*
X107791Y133402D03*
X106991Y140902D03*
X106691Y166102D03*
X106391Y163802D03*
X106091Y143402D03*
X104391Y178902D03*
X103791Y138202D03*
Y162002D03*
X103491Y170302D03*
X103191Y148902D03*
X102991Y139802D03*
X102291Y141302D03*
X102291Y135002D03*
X101491Y142802D03*
Y155802D03*
X101191Y139102D03*
X100391Y170302D03*
X098991Y134402D03*
X096691Y131502D03*
Y133202D03*
X096596Y161297D03*
X096591Y193802D03*
X096541Y190352D03*
X096191Y150602D03*
X096091Y139702D03*
Y141802D03*
Y144102D03*
Y146702D03*
X094791Y168102D03*
X094691Y161902D03*
X093241Y155052D03*
X092691Y124002D03*
X092591Y177202D03*
X092491Y163002D03*
X089291Y193802D03*
X089135Y160502D03*
X088991Y116652D03*
X087611Y160502D03*
X086991Y139802D03*
Y141902D03*
Y144102D03*
X086591Y133202D03*
X086541Y190352D03*
X086068Y108424D03*
X084991Y109502D03*
Y116702D03*
X083791Y141502D03*
X081841Y192052D03*
X077991Y192802D03*
X071491Y179702D03*
X071091Y131902D03*
X070991Y189002D03*
X069891Y204702D03*
X068691Y141002D03*
X067691Y158402D03*
X065991Y189002D03*
X065891Y179802D03*
Y197602D03*
X057741Y103652D03*
X057291Y111202D03*
M02*