%FSDAX33Y33*%
%MOMM*%
%SFA1B1*%

%IPPOS*%
%ADD33C,1.703200*%
%ADD34R,1.703200X1.703200*%
%ADD35C,6.203201*%
%ADD36C,4.203200*%
%ADD37C,0.703199*%
%ADD38C,3.203199*%
%ADD39C,1.103201*%
%ADD40C,1.473200*%
%LNfilm_botsolder-1*%
%LPD*%
G54D35*
X202626Y106818D03*
Y196818D03*
G54D38*
X198326Y119778D03*
Y124858D03*
G54D34*
X179626Y199278D03*
G54D33*
X179626Y201818D03*
X177086Y199278D03*
Y201818D03*
X174546Y199278D03*
Y201818D03*
X172006Y199278D03*
Y201818D03*
X169466Y199278D03*
Y201818D03*
G54D34*
X167246Y102818D03*
G54D33*
X167246Y105358D03*
X164706Y102818D03*
Y105358D03*
X162166Y102818D03*
Y105358D03*
X159626Y102818D03*
Y105358D03*
X157086Y102818D03*
Y105358D03*
X153456Y199318D03*
Y201858D03*
X150916Y199318D03*
Y201858D03*
X148376Y199318D03*
G54D34*
X148376Y201858D03*
X145626Y100838D03*
G54D33*
X145626Y103378D03*
Y105918D03*
Y108458D03*
G54D35*
X137626Y106818D03*
Y196818D03*
X129126Y124068D03*
Y182068D03*
G54D33*
X126706Y102818D03*
Y105358D03*
X124166Y102818D03*
Y105358D03*
X123626Y197528D03*
Y200068D03*
G54D34*
X123626Y202608D03*
G54D33*
X121626Y102818D03*
G54D34*
X121626Y105358D03*
G54D33*
X116626Y197528D03*
Y200068D03*
G54D34*
X116626Y202608D03*
G54D33*
X109626Y197568D03*
Y200108D03*
G54D34*
X109626Y202648D03*
G54D33*
X097416Y199278D03*
Y201818D03*
X094876Y199278D03*
Y201818D03*
X092336Y199278D03*
Y201818D03*
X089796Y199278D03*
Y201818D03*
G54D39*
X087826Y100968D03*
G54D33*
X087256Y199278D03*
G54D34*
X087256Y201818D03*
G54D39*
X083426Y100968D03*
G54D33*
X081416Y128988D03*
Y131528D03*
Y134068D03*
Y136608D03*
Y139148D03*
Y141688D03*
Y144228D03*
Y146768D03*
Y149308D03*
Y151848D03*
Y154388D03*
Y156928D03*
Y159468D03*
Y162008D03*
Y164548D03*
Y167088D03*
Y169628D03*
Y172168D03*
Y174708D03*
Y177248D03*
G54D35*
X080126Y124068D03*
Y182068D03*
G54D34*
X078876Y128988D03*
G54D33*
X078876Y131528D03*
Y134068D03*
Y136608D03*
Y139148D03*
Y141688D03*
Y144228D03*
Y146768D03*
Y149308D03*
Y151848D03*
Y154388D03*
Y156928D03*
Y159468D03*
Y162008D03*
Y164548D03*
Y167088D03*
Y169628D03*
Y172168D03*
Y174708D03*
Y177248D03*
G54D35*
X072626Y106818D03*
Y196818D03*
G54D36*
X060818Y177076D03*
X052182D03*
G54D37*
X048626Y144818D03*
Y146088D03*
Y147358D03*
Y148628D03*
Y149898D03*
Y151168D03*
Y152438D03*
Y153708D03*
G54D40*
X197926Y165118D03*
X192126Y183618D03*
X183326Y146218D03*
X181826Y113218D03*
X175526Y192718D03*
X162026Y162918D03*
X161026Y137918D03*
X152626Y154818D03*
X150726Y174518D03*
X149526Y143018D03*
X147326Y193318D03*
X141326Y192518D03*
X134226Y185318D03*
X130026Y151618D03*
X124726Y171118D03*
X124126Y150918D03*
X122926Y155818D03*
X121926Y162318D03*
X121326Y130018D03*
X120826Y181818D03*
X119326Y159418D03*
X116926Y136718D03*
X113926Y180018D03*
X110426Y152118D03*
X110026Y116018D03*
X108426Y132818D03*
X107626Y140318D03*
X107326Y165518D03*
X107026Y163218D03*
X106726Y142818D03*
X105026Y178318D03*
X104426Y137618D03*
Y161418D03*
X104126Y169718D03*
X103826Y148318D03*
X103626Y139218D03*
X102926Y140718D03*
X102926Y134418D03*
X102126Y142218D03*
Y155218D03*
X101826Y138518D03*
X101026Y169718D03*
X099626Y133818D03*
X097326Y130918D03*
Y132618D03*
X097231Y160713D03*
X097226Y193218D03*
X097176Y189768D03*
X096826Y150018D03*
X096726Y139118D03*
Y141218D03*
Y143518D03*
Y146118D03*
X095426Y167518D03*
X095326Y161318D03*
X093876Y154468D03*
X093326Y123418D03*
X093226Y176618D03*
X093126Y162418D03*
X089926Y193218D03*
X089770Y159918D03*
X089626Y116068D03*
X088246Y159918D03*
X087626Y139218D03*
Y141318D03*
Y143518D03*
X087226Y132618D03*
X087176Y189768D03*
X086703Y107840D03*
X085626Y108918D03*
Y116118D03*
X084426Y140918D03*
X082476Y191468D03*
X078626Y192218D03*
X072126Y179118D03*
X071726Y131318D03*
X071626Y188418D03*
X070526Y204118D03*
X069326Y140418D03*
X068326Y157818D03*
X066626Y188418D03*
X066526Y179218D03*
Y197018D03*
X058376Y103068D03*
X057926Y110618D03*
M02*