%FSDAX33Y33*%
%MOMM*%
%SFA1B1*%

%IPPOS*%
%AMD20*
4,1,8,1.209040,1.363980,-1.209040,1.363980,-1.752600,0.820420,-1.752600,-0.820420,-1.209040,-1.363980,1.209040,-1.363980,1.752600,-0.820420,1.752600,0.820420,1.209040,1.363980,0.0*
1,1,1.086602,1.209040,0.820420*
1,1,1.086602,-1.209040,0.820420*
1,1,1.086602,-1.209040,-0.820420*
1,1,1.086602,1.209040,-0.820420*
%
%ADD11O,1.953199X0.753199*%
%ADD12O,0.753199X1.953199*%
%ADD13R,3.203199X1.727200*%
%ADD14R,1.003201X1.253200*%
%ADD15R,1.303200X1.203201*%
%ADD16R,1.753199X1.703200*%
%ADD17O,1.253200X0.803199*%
%ADD18R,1.253200X0.803199*%
%ADD19R,3.503201X2.727201*%
G04~CAMADD=20~8~0.0~0.0~1379.2~1073.7~213.9~0.0~15~0.0~0.0~0.0~0.0~0~0.0~0.0~0.0~0.0~0~0.0~0.0~0.0~0.0~1379.2~1073.7*
%ADD20D20*%
%ADD21R,3.203199X5.203200*%
%ADD22R,1.203201X1.303200*%
%ADD23R,5.703199X4.053200*%
%ADD24R,9.303200X11.103201*%
%ADD25R,2.703200X1.253200*%
%ADD26R,1.253200X1.003201*%
%ADD27R,2.203201X2.703200*%
%ADD28R,0.703199X2.703200*%
%ADD29R,5.203200X3.203199*%
%ADD30R,4.053200X5.703199*%
%ADD31R,2.053199X1.653200*%
%ADD32R,1.703200X1.703200*%
%ADD33C,1.703200*%
%ADD34C,5.203200*%
%ADD35C,0.903201*%
%ADD36C,6.203201*%
%ADD37C,3.203199*%
%ADD38C,1.103201*%
%ADD39C,1.473200*%
%LNfilm_topsolder-1*%
%LPD*%
G54D36*
X013222Y019493D03*
Y109492D03*
G54D31*
X015922Y048992D03*
Y051992D03*
G54D37*
X017522Y032452D03*
Y037532D03*
G54D24*
X018222Y065492D03*
G54D21*
X025922Y046792D03*
Y055792D03*
X026922Y075192D03*
Y084192D03*
G54D25*
X028322Y062092D03*
Y063792D03*
Y065492D03*
Y067192D03*
Y068892D03*
G54D14*
X035722Y036592D03*
X035822Y040392D03*
G54D32*
X036222Y111952D03*
G54D33*
X036222Y114492D03*
G54D19*
X036522Y047942D03*
G54D20*
X036522Y054842D03*
G54D14*
X037222Y036592D03*
X037322Y040392D03*
G54D33*
X038762Y111952D03*
Y114492D03*
G54D23*
X040422Y057492D03*
Y067492D03*
G54D33*
X041302Y111952D03*
Y114492D03*
X043842Y111952D03*
Y114492D03*
X046382Y111952D03*
Y114492D03*
G54D32*
X048602Y015492D03*
G54D33*
X048602Y018032D03*
G54D26*
X049922Y056742D03*
Y058242D03*
Y060842D03*
Y062342D03*
G54D33*
X051142Y015492D03*
Y018032D03*
X053682Y015492D03*
Y018032D03*
X056222Y015492D03*
Y018032D03*
X058762Y015492D03*
Y018032D03*
G54D16*
X059522Y060292D03*
Y062092D03*
G54D33*
X062392Y111992D03*
Y114532D03*
G54D17*
X064897Y066542D03*
Y067492D03*
G54D18*
X064897Y068442D03*
G54D33*
X064932Y111992D03*
Y114532D03*
X067472Y111992D03*
G54D32*
X067472Y114532D03*
G54D17*
X067547Y066542D03*
Y068442D03*
G54D16*
X069922Y068492D03*
Y070293D03*
G54D32*
X070222Y013512D03*
G54D33*
X070222Y016052D03*
Y018592D03*
Y021132D03*
G54D14*
X070222Y073492D03*
Y076892D03*
X071722Y073492D03*
Y076892D03*
G54D36*
X078222Y019493D03*
Y109492D03*
X086722Y036742D03*
Y094742D03*
G54D15*
X088122Y067092D03*
Y068542D03*
G54D32*
X090242Y015692D03*
G54D33*
X090242Y018232D03*
G54D15*
X090622Y050492D03*
Y051942D03*
G54D14*
X090672Y105492D03*
X091472Y101492D03*
G54D16*
X091922Y066692D03*
Y068492D03*
G54D14*
X092172Y105492D03*
G54D33*
X092222Y110202D03*
Y112742D03*
G54D32*
X092222Y115282D03*
G54D33*
X092782Y015692D03*
Y018232D03*
G54D14*
X092972Y101492D03*
G54D33*
X095322Y015692D03*
Y018232D03*
G54D14*
X097672Y105492D03*
X098222Y101492D03*
X099172Y105492D03*
G54D33*
X099222Y110202D03*
Y112742D03*
G54D32*
X099222Y115282D03*
G54D14*
X099722Y101492D03*
G54D15*
X101422Y076943D03*
Y078392D03*
G54D11*
X102172Y051992D03*
Y052792D03*
Y053592D03*
Y054392D03*
Y055192D03*
Y055992D03*
Y056792D03*
Y057593D03*
Y058392D03*
Y059192D03*
Y059992D03*
Y060792D03*
Y061592D03*
Y062392D03*
Y063192D03*
Y063992D03*
G54D12*
X103822Y050342D03*
Y065642D03*
G54D13*
X103972Y013992D03*
Y018492D03*
G54D12*
X104622Y050342D03*
Y065642D03*
G54D14*
X104772Y105392D03*
G54D12*
X105422Y050342D03*
Y065642D03*
G54D14*
X105472Y101532D03*
G54D22*
X105522Y045992D03*
G54D33*
X106222Y110242D03*
Y112782D03*
G54D32*
X106222Y115322D03*
G54D12*
X106222Y050342D03*
Y065642D03*
G54D14*
X106272Y105392D03*
G54D22*
X106922Y040892D03*
G54D14*
X106922Y043092D03*
G54D22*
X106972Y045992D03*
G54D14*
X106972Y101532D03*
G54D12*
X107023Y050342D03*
Y065642D03*
X107822Y050342D03*
Y065642D03*
G54D22*
X108372Y040892D03*
G54D14*
X108422Y043092D03*
G54D12*
X108622Y050342D03*
Y065642D03*
X109422Y050342D03*
Y065642D03*
X110222Y050342D03*
Y065642D03*
X111022Y050342D03*
Y065642D03*
X111822Y050342D03*
Y065642D03*
G54D13*
X111972Y013992D03*
Y018492D03*
G54D12*
X112622Y050342D03*
Y065642D03*
G54D16*
X113422Y041492D03*
Y043292D03*
G54D12*
X113422Y050342D03*
Y065642D03*
X114222Y050342D03*
Y065642D03*
X115022Y050342D03*
Y065642D03*
X115822Y050342D03*
Y065642D03*
G54D11*
X117472Y051992D03*
Y052792D03*
Y053592D03*
Y054392D03*
Y055192D03*
Y055992D03*
Y056792D03*
Y057593D03*
Y058392D03*
Y059192D03*
Y059992D03*
Y060792D03*
Y061592D03*
Y062392D03*
Y063192D03*
Y063992D03*
G54D33*
X118282Y112122D03*
Y114662D03*
G54D26*
X119222Y012492D03*
Y013992D03*
Y018492D03*
Y019993D03*
G54D33*
X120822Y112122D03*
Y114662D03*
X123362Y112122D03*
G54D32*
X123362Y114662D03*
G54D22*
X123598Y058392D03*
X125047D03*
G54D27*
X125822Y010742D03*
Y016242D03*
G54D38*
X128022Y013643D03*
G54D28*
X128622Y016242D03*
X129422D03*
X130222D03*
X131022D03*
X131822D03*
G54D38*
X132423Y013643D03*
G54D33*
X134432Y041662D03*
Y044202D03*
Y046742D03*
Y049282D03*
Y051822D03*
Y054362D03*
Y056902D03*
Y059442D03*
Y061982D03*
Y064522D03*
Y067062D03*
Y069602D03*
Y072142D03*
Y074682D03*
Y077222D03*
Y079762D03*
Y082302D03*
Y084842D03*
Y087382D03*
Y089922D03*
G54D27*
X134622Y010742D03*
Y016242D03*
G54D26*
X134622Y018642D03*
Y020142D03*
G54D36*
X135722Y036742D03*
Y094742D03*
G54D32*
X136972Y041662D03*
G54D33*
X136972Y044202D03*
Y046742D03*
Y049282D03*
Y051822D03*
Y054362D03*
Y056902D03*
Y059442D03*
Y061982D03*
Y064522D03*
Y067062D03*
Y069602D03*
Y072142D03*
Y074682D03*
Y077222D03*
Y079762D03*
Y082302D03*
Y084842D03*
Y087382D03*
Y089922D03*
G54D36*
X143222Y019493D03*
Y109492D03*
G54D15*
X144422Y059892D03*
Y061342D03*
G54D14*
X144472Y079692D03*
X145972D03*
X147572Y103192D03*
Y112292D03*
X147822Y094192D03*
X149072Y103192D03*
Y112292D03*
X149322Y094192D03*
G54D30*
X152622Y016092D03*
G54D29*
X152722Y030492D03*
G54D34*
X153597Y089782D03*
G54D13*
X154222Y094242D03*
Y098742D03*
Y103242D03*
Y107742D03*
Y112242D03*
Y116742D03*
G54D29*
X161722Y030492D03*
G54D13*
X162222Y094242D03*
Y098742D03*
Y103242D03*
Y107742D03*
Y112242D03*
Y116742D03*
G54D30*
X162622Y016092D03*
G54D34*
X163666Y089751D03*
G54D35*
X167222Y057493D03*
Y058763D03*
Y060033D03*
Y061303D03*
Y062573D03*
Y063843D03*
Y065113D03*
Y066383D03*
G54D39*
X011122Y055692D03*
X017922Y077792D03*
X023722Y096293D03*
X032522Y058892D03*
X034022Y025892D03*
X040222Y044392D03*
X040322Y105392D03*
X050322Y095292D03*
X053822Y075592D03*
X054822Y050592D03*
X057022Y041092D03*
X063222Y067492D03*
X065122Y087192D03*
X066322Y055692D03*
X067622Y047292D03*
X068522Y105992D03*
X071222Y032693D03*
X074522Y105192D03*
X081522Y074392D03*
X081622Y097992D03*
X083022Y058692D03*
X085922Y047792D03*
X086222Y057492D03*
X087722Y073692D03*
X089022Y059192D03*
X089322Y071392D03*
X091122Y083792D03*
X091222Y074892D03*
X091522Y079792D03*
X092322Y076092D03*
X092622Y062892D03*
X093022Y051992D03*
Y055092D03*
X093122Y048692D03*
X093722Y077392D03*
X094222Y044592D03*
X095023Y094492D03*
X095322Y055892D03*
X096922Y050392D03*
X097422Y059292D03*
X097522Y057592D03*
X097622Y065692D03*
Y067792D03*
X098122Y055492D03*
X098822Y068992D03*
X098922Y052092D03*
X099122Y061892D03*
X099722Y076892D03*
X100622Y047492D03*
X101022Y069992D03*
X101322Y075492D03*
X101922Y092692D03*
X104222Y052192D03*
X104322Y058992D03*
X104422Y060992D03*
X104922Y040992D03*
X105322Y068292D03*
X105422Y054892D03*
X105622Y047492D03*
X105822Y028692D03*
X106422Y069392D03*
X106622Y056792D03*
X107423Y077192D03*
X108022Y069792D03*
X108522Y044892D03*
X108922Y054792D03*
X109622Y069592D03*
X109822Y067592D03*
X110122Y058093D03*
X110707Y072908D03*
X110822Y090992D03*
X110922Y043292D03*
X111722Y053592D03*
X111822Y069192D03*
X112122Y048392D03*
X113122Y080892D03*
X113322Y061692D03*
X113422Y068692D03*
X113622Y036792D03*
X114122Y054692D03*
X114322Y076892D03*
X115022Y068592D03*
X117722Y088492D03*
X117822Y068392D03*
X118522Y043592D03*
X119422Y052092D03*
X120323Y048192D03*
X120522Y088392D03*
X121072Y050342D03*
X121122Y044892D03*
X122122Y036292D03*
X122722Y074092D03*
X122922Y046292D03*
X124022Y076492D03*
X124322Y056692D03*
X124522Y071092D03*
X125022Y065892D03*
X125322Y088192D03*
X126100Y064815D03*
X128222Y051892D03*
Y053992D03*
Y056192D03*
X128522Y044892D03*
X129145Y020515D03*
X130222Y021592D03*
X132222Y063292D03*
X133372Y104142D03*
X137222Y104892D03*
X143722Y091792D03*
X144122Y043992D03*
X144222Y101092D03*
X145323Y116792D03*
X146522Y053092D03*
X147522Y070493D03*
X149222Y101092D03*
X149322Y091892D03*
Y109692D03*
X157472Y015742D03*
X157922Y023292D03*
M02*