%FSDAX33Y33*%
%MOMM*%
%SFA1B1*%

%IPPOS*%
%AMD12*
4,1,8,0.337820,0.601980,-0.337820,0.601980,-0.551180,0.388620,-0.551180,-0.388620,-0.337820,-0.601980,0.337820,-0.601980,0.551180,-0.388620,0.551180,0.388620,0.337820,0.601980,0.0*
1,1,0.428198,0.337820,0.388620*
1,1,0.428198,-0.337820,0.388620*
1,1,0.428198,-0.337820,-0.388620*
1,1,0.428198,0.337820,-0.388620*
%
%ADD11R,1.103201X1.203201*%
G04~CAMADD=12~8~0.0~0.0~434.3~473.7~84.3~0.0~15~0.0~0.0~0.0~0.0~0~0.0~0.0~0.0~0.0~0~0.0~0.0~0.0~0.0~434.3~473.7*
%ADD12D12*%
%ADD13R,1.403200X1.603200*%
%ADD14C,1.727200*%
%ADD15R,1.727200X1.727200*%
%ADD16C,1.473200*%
%ADD17C,6.299200*%
%LNfilm_topsolder-1*%
%LPD*%
G54D12*
X016361Y037183D03*
G54D11*
X016361Y041782D03*
G54D12*
X016382Y044041D03*
G54D11*
X016382Y048640D03*
G54D12*
X016382Y050899D03*
G54D11*
X016382Y055498D03*
G54D12*
X016382Y057757D03*
G54D11*
X016382Y062356D03*
G54D12*
X016382Y064615D03*
G54D11*
X016382Y069214D03*
G54D12*
X016382Y071473D03*
G54D11*
X016382Y076072D03*
G54D12*
X016382Y078331D03*
G54D11*
X016382Y082930D03*
G54D12*
X016382Y085189D03*
G54D11*
X016382Y089788D03*
X018160Y037183D03*
Y041782D03*
X018182Y044041D03*
Y048640D03*
Y050899D03*
Y055498D03*
Y057757D03*
Y062356D03*
Y064615D03*
Y069214D03*
Y071473D03*
Y076072D03*
Y078331D03*
Y082930D03*
Y085189D03*
Y089788D03*
G54D13*
X020055Y066928D03*
X021854D03*
X023393Y076100D03*
X023727Y037185D03*
Y041782D03*
Y044043D03*
Y048640D03*
Y050901D03*
Y055498D03*
Y057759D03*
Y062356D03*
Y064617D03*
Y069214D03*
Y071500D03*
Y078333D03*
Y082930D03*
Y085191D03*
Y089788D03*
G54D14*
X024157Y060197D03*
G54D13*
X025193Y076100D03*
X025526Y037185D03*
Y041782D03*
Y044043D03*
Y048640D03*
Y050901D03*
Y055498D03*
Y057759D03*
Y062356D03*
Y064617D03*
Y069214D03*
Y071500D03*
Y078333D03*
Y082930D03*
Y085191D03*
Y089788D03*
G54D14*
X032892Y061721D03*
Y064261D03*
Y066801D03*
X035432Y061721D03*
Y064261D03*
G54D15*
X035432Y066801D03*
G54D16*
X016382Y060324D03*
Y087502D03*
G54D17*
X017652Y017525D03*
Y109473D03*
G54D16*
X017694Y067803D03*
X021462Y041782D03*
Y048640D03*
Y055498D03*
Y069214D03*
Y076072D03*
Y082930D03*
Y089788D03*
X021867Y072574D03*
X024002Y053339D03*
Y073659D03*
X025526Y066916D03*
M02*