%FSDAX33Y33*%
%MOMM*%
%SFA1B1*%

%IPPOS*%
%AMD18*
4,1,8,0.337820,0.500380,-0.337820,0.500380,-0.449580,0.388620,-0.449580,-0.388620,-0.337820,-0.500380,0.337820,-0.500380,0.449580,-0.388620,0.449580,0.388620,0.337820,0.500380,0.0*
1,1,0.224998,0.337820,0.388620*
1,1,0.224998,-0.337820,0.388620*
1,1,0.224998,-0.337820,-0.388620*
1,1,0.224998,0.337820,-0.388620*
%
%AMD1002*
%
G04~CAMADD=18~8~0.0~0.0~354.3~393.7~44.3~0.0~15~0.0~0.0~0.0~0.0~0~0.0~0.0~0.0~0.0~0~0.0~0.0~0.0~0.0~354.3~393.7*
%ADD18D18*%
%ADD19R,0.900001X1.000001*%
%ADD20R,1.200000X1.400000*%
%ADD21C,0.254000*%
%ADD22C,0.508000*%
%ADD23R,0.330200X0.457200*%
%ADD24C,1.500000*%
%ADD25R,1.500000X1.500000*%
%ADD26C,1.270000*%
%ADD27C,6.096000*%
%LNfilm_top-1*%
%LPD*%
G36*
X050799Y126999D02*
X000000D01*
Y000000*
X050799*
Y126999*
G37*
%LNfilm_top-2*%
%LPC*%
G36*
X041274Y006349D02*
X009524D01*
Y120649*
X041274*
Y006349*
G37*
%LNfilm_top-3*%
%LPD*%
G36*
X018287Y057630D02*
X017703D01*
Y057369*
X017732Y057226*
X017813Y057105*
X017934Y057024*
X018077Y056995*
X018287*
Y057630*
G37*
G36*
X019118Y056252D02*
X018541D01*
Y055625*
X019118*
Y056252*
G37*
G36*
X019126Y057630D02*
X018541D01*
Y056995*
X018752*
X018895Y057024*
X019016Y057105*
X019097Y057226*
X019126Y057369*
Y057630*
G37*
G36*
X018752Y058518D02*
X018541D01*
Y057884*
X019126*
Y058144*
X019097Y058287*
X019016Y058408*
X018895Y058489*
X018752Y058518*
G37*
G36*
X018287D02*
X018077D01*
X017934Y058489*
X017813Y058408*
X017732Y058287*
X017703Y058144*
Y057884*
X018287*
Y058518*
G37*
G36*
Y056252D02*
X017710D01*
Y055625*
X018287*
Y056252*
G37*
G36*
X025907Y053212D02*
X025155D01*
X025168Y053107*
X025258Y052891*
X025400Y052705*
X025586Y052563*
X025802Y052473*
X025907Y052460*
Y053212*
G37*
G36*
X018752Y051660D02*
X018541D01*
Y051026*
X019126*
Y051286*
X019097Y051429*
X019016Y051550*
X018895Y051631*
X018752Y051660*
G37*
G36*
X025907Y054219D02*
X025802Y054206D01*
X025586Y054116*
X025400Y053974*
X025258Y053788*
X025168Y053572*
X025155Y053466*
X025907*
Y054219*
G37*
G36*
X019118Y055371D02*
X018541D01*
Y054745*
X019118*
Y055371*
G37*
G36*
X018287D02*
X017710D01*
Y054745*
X018287*
Y055371*
G37*
G36*
X019118Y062229D02*
X018541D01*
Y061603*
X019118*
Y062229*
G37*
G36*
X018287D02*
X017710D01*
Y061603*
X018287*
Y062229*
G37*
G36*
Y063110D02*
X017710D01*
Y062483*
X018287*
Y063110*
G37*
G36*
X034924Y065274D02*
X034662Y065240D01*
X034418Y065138*
X034208Y064978*
X034047Y064768*
X033946Y064524*
X033912Y064261*
X033946Y063999*
X034047Y063755*
X034208Y063545*
X034418Y063384*
X034662Y063283*
X034924Y063249*
X035187Y063283*
X035431Y063384*
X035641Y063545*
X035801Y063755*
X035903Y063999*
X035937Y064261*
X035903Y064524*
X035801Y064768*
X035641Y064978*
X035431Y065138*
X035187Y065240*
X034924Y065274*
G37*
G36*
X019118Y063110D02*
X018541D01*
Y062483*
X019118*
Y063110*
G37*
G36*
X037464Y062734D02*
X037202Y062700D01*
X036958Y062598*
X036748Y062438*
X036587Y062228*
X036486Y061984*
X036452Y061721*
X036486Y061459*
X036587Y061215*
X036748Y061005*
X036958Y060844*
X037202Y060743*
X037464Y060709*
X037727Y060743*
X037971Y060844*
X038181Y061005*
X038341Y061215*
X038443Y061459*
X038477Y061721*
X038443Y061984*
X038341Y062228*
X038181Y062438*
X037971Y062598*
X037727Y062700*
X037464Y062734*
G37*
G36*
X019294Y060197D02*
X018541D01*
Y059445*
X018647Y059458*
X018863Y059548*
X019049Y059690*
X019191Y059876*
X019281Y060092*
X019294Y060197*
G37*
G36*
X018287D02*
X017535D01*
X017548Y060092*
X017638Y059876*
X017780Y059690*
X017966Y059548*
X018182Y059458*
X018287Y059445*
Y060197*
G37*
G36*
Y061204D02*
X018182Y061191D01*
X017966Y061101*
X017780Y060959*
X017638Y060773*
X017548Y060557*
X017535Y060451*
X018287*
Y061204*
G37*
G36*
X034924Y062734D02*
X034662Y062700D01*
X034418Y062598*
X034208Y062438*
X034047Y062228*
X033946Y061984*
X033912Y061721*
X033946Y061459*
X034047Y061215*
X034208Y061005*
X034418Y060844*
X034662Y060743*
X034924Y060709*
X035187Y060743*
X035431Y060844*
X035641Y061005*
X035801Y061215*
X035903Y061459*
X035937Y061721*
X035903Y061984*
X035801Y062228*
X035641Y062438*
X035431Y062598*
X035187Y062700*
X034924Y062734*
G37*
G36*
X018541Y061204D02*
Y060451D01*
X019294*
X019281Y060557*
X019191Y060773*
X019049Y060959*
X018863Y061101*
X018647Y061191*
X018541Y061204*
G37*
G36*
X018287Y051660D02*
X018077D01*
X017934Y051631*
X017813Y051550*
X017732Y051429*
X017703Y051286*
Y051026*
X018287*
Y051660*
G37*
G36*
X018730Y037944D02*
X018520D01*
Y037310*
X019104*
Y037570*
X019075Y037713*
X018994Y037834*
X018873Y037915*
X018730Y037944*
G37*
G36*
X018266D02*
X018055D01*
X017912Y037915*
X017791Y037834*
X017710Y037713*
X017681Y037570*
Y037310*
X018266*
Y037944*
G37*
G36*
Y041655D02*
X017688D01*
Y041029*
X018266*
Y041655*
G37*
G36*
Y042536D02*
X017688D01*
Y041909*
X018266*
Y042536*
G37*
G36*
X019096Y041655D02*
X018520D01*
Y041029*
X019096*
Y041655*
G37*
G36*
X019104Y037056D02*
X018520D01*
Y036421*
X018730*
X018873Y036450*
X018994Y036531*
X019075Y036652*
X019104Y036795*
Y037056*
G37*
G36*
X022987Y017398D02*
X019811D01*
Y014223*
X020203Y014254*
X020708Y014375*
X021188Y014574*
X021631Y014846*
X022027Y015183*
X022364Y015579*
X022636Y016022*
X022835Y016502*
X022956Y017007*
X022987Y017398*
G37*
G36*
X019557D02*
X016382D01*
X016413Y017007*
X016534Y016502*
X016733Y016022*
X017005Y015579*
X017342Y015183*
X017738Y014846*
X018181Y014574*
X018661Y014375*
X019166Y014254*
X019557Y014223*
Y017398*
G37*
G36*
Y020828D02*
X019166Y020797D01*
X018661Y020676*
X018181Y020477*
X017738Y020205*
X017342Y019868*
X017005Y019472*
X016733Y019029*
X016534Y018549*
X016413Y018044*
X016382Y017652*
X019557*
Y020828*
G37*
G36*
X018266Y037056D02*
X017681D01*
Y036795*
X017710Y036652*
X017791Y036531*
X017912Y036450*
X018055Y036421*
X018266*
Y037056*
G37*
G36*
X019811Y020828D02*
Y017652D01*
X022987*
X022956Y018044*
X022835Y018549*
X022636Y019029*
X022364Y019472*
X022027Y019868*
X021631Y020205*
X021188Y020477*
X020708Y020676*
X020203Y020797*
X019811Y020828*
G37*
G36*
X018287Y049394D02*
X017710D01*
Y048767*
X018287*
Y049394*
G37*
G36*
X019118Y048513D02*
X018541D01*
Y047887*
X019118*
Y048513*
G37*
G36*
Y049394D02*
X018541D01*
Y048767*
X019118*
Y049394*
G37*
G36*
X019126Y050772D02*
X018541D01*
Y050137*
X018752*
X018895Y050166*
X019016Y050247*
X019097Y050368*
X019126Y050511*
Y050772*
G37*
G36*
X018287D02*
X017703D01*
Y050511*
X017732Y050368*
X017813Y050247*
X017934Y050166*
X018077Y050137*
X018287*
Y050772*
G37*
G36*
Y048513D02*
X017710D01*
Y047887*
X018287*
Y048513*
G37*
G36*
Y043914D02*
X017703D01*
Y043653*
X017732Y043510*
X017813Y043389*
X017934Y043308*
X018077Y043279*
X018287*
Y043914*
G37*
G36*
X019096Y042536D02*
X018520D01*
Y041909*
X019096*
Y042536*
G37*
G36*
X019126Y043914D02*
X018541D01*
Y043279*
X018752*
X018895Y043308*
X019016Y043389*
X019097Y043510*
X019126Y043653*
Y043914*
G37*
G36*
X018752Y044802D02*
X018541D01*
Y044168*
X019126*
Y044428*
X019097Y044571*
X019016Y044692*
X018895Y044773*
X018752Y044802*
G37*
G36*
X018287D02*
X018077D01*
X017934Y044773*
X017813Y044692*
X017732Y044571*
X017703Y044428*
Y044168*
X018287*
Y044802*
G37*
G36*
X037464Y065274D02*
X037202Y065240D01*
X036958Y065138*
X036748Y064978*
X036587Y064768*
X036486Y064524*
X036452Y064261*
X036486Y063999*
X036587Y063755*
X036748Y063545*
X036958Y063384*
X037202Y063283*
X037464Y063249*
X037727Y063283*
X037971Y063384*
X038181Y063545*
X038341Y063755*
X038443Y063999*
X038477Y064261*
X038443Y064524*
X038341Y064768*
X038181Y064978*
X037971Y065138*
X037727Y065240*
X037464Y065274*
G37*
G36*
X018287Y085950D02*
X018077D01*
X017934Y085921*
X017813Y085840*
X017732Y085719*
X017703Y085576*
Y085316*
X018287*
Y085950*
G37*
G36*
X019126Y085062D02*
X018541D01*
Y084427*
X018752*
X018895Y084456*
X019016Y084537*
X019097Y084658*
X019126Y084801*
Y085062*
G37*
G36*
X018752Y085950D02*
X018541D01*
Y085316*
X019126*
Y085576*
X019097Y085719*
X019016Y085840*
X018895Y085921*
X018752Y085950*
G37*
G36*
X019294Y087375D02*
X018541D01*
Y086623*
X018647Y086636*
X018863Y086726*
X019049Y086868*
X019191Y087054*
X019281Y087270*
X019294Y087375*
G37*
G36*
X018287D02*
X017535D01*
X017548Y087270*
X017638Y087054*
X017780Y086868*
X017966Y086726*
X018182Y086636*
X018287Y086623*
Y087375*
G37*
G36*
Y085062D02*
X017703D01*
Y084801*
X017732Y084658*
X017813Y084537*
X017934Y084456*
X018077Y084427*
X018287*
Y085062*
G37*
G36*
Y082803D02*
X017710D01*
Y082177*
X018287*
Y082803*
G37*
G36*
X018752Y079092D02*
X018541D01*
Y078458*
X019126*
Y078718*
X019097Y078861*
X019016Y078982*
X018895Y079063*
X018752Y079092*
G37*
G36*
X019118Y082803D02*
X018541D01*
Y082177*
X019118*
Y082803*
G37*
G36*
Y083684D02*
X018541D01*
Y083057*
X019118*
Y083684*
G37*
G36*
X018287D02*
X017710D01*
Y083057*
X018287*
Y083684*
G37*
G36*
X019557Y109346D02*
X016382D01*
X016413Y108955*
X016534Y108450*
X016733Y107970*
X017005Y107527*
X017342Y107131*
X017738Y106794*
X018181Y106522*
X018661Y106323*
X019166Y106202*
X019557Y106171*
Y109346*
G37*
G36*
X026705Y090742D02*
X026633D01*
X026612*
X024905*
Y090177*
X024296*
X024271Y090237*
X024129Y090423*
X023943Y090565*
X023727Y090655*
X023494Y090685*
X023262Y090655*
X023046Y090565*
X022860Y090423*
X022718Y090237*
X022693Y090177*
X020918*
Y090542*
X019510*
Y089035*
X020918*
Y089400*
X022693*
X022718Y089340*
X022860Y089154*
X023046Y089012*
X023262Y088922*
X023494Y088892*
X023727Y088922*
X023943Y089012*
X024129Y089154*
X024271Y089340*
X024296Y089400*
X024905*
Y088835*
X026612*
Y088834*
X026613*
X026705*
Y088835*
X027041*
Y086145*
X026705*
X026612*
X024905*
Y085577*
X020918*
Y085943*
X019510*
Y084435*
X020918*
Y084800*
X024905*
Y084237*
X026612*
Y084237*
X026613*
X026705*
Y084237*
X027041*
Y083884*
X026705*
X026612*
X024905*
Y083319*
X024296*
X024271Y083379*
X024129Y083565*
X023943Y083707*
X023727Y083797*
X023494Y083827*
X023262Y083797*
X023046Y083707*
X022860Y083565*
X022718Y083379*
X022693Y083319*
X020918*
Y083684*
X019510*
Y082177*
X020918*
Y082542*
X022693*
X022718Y082482*
X022860Y082296*
X023046Y082154*
X023262Y082064*
X023494Y082034*
X023727Y082064*
X023943Y082154*
X024129Y082296*
X024271Y082482*
X024296Y082542*
X024905*
Y081977*
X026612*
Y081976*
X026613*
X026705*
Y081977*
X027041*
Y079287*
X026705*
X026612*
X024905*
Y078719*
X020918*
Y079085*
X019510*
Y077577*
X020918*
Y077942*
X024905*
Y077379*
X026612*
Y077379*
X026613*
X026705*
Y077379*
X027041*
Y077053*
X026371*
X026279*
X024571*
Y076461*
X024296*
X024271Y076521*
X024129Y076707*
X023943Y076849*
X023727Y076939*
X023494Y076969*
X023262Y076939*
X023046Y076849*
X022860Y076707*
X022718Y076521*
X022693Y076461*
X020918*
Y076826*
X019510*
Y075319*
X020918*
Y075684*
X022693*
X022718Y075624*
X022860Y075438*
X023046Y075296*
X023262Y075206*
X023494Y075176*
X023727Y075206*
X023943Y075296*
X024129Y075438*
X024271Y075624*
X024296Y075684*
X024571*
Y075146*
X026279*
Y075145*
X026371*
Y075146*
X027041*
Y073800*
X026914Y073791*
X026901Y073892*
X026811Y074108*
X026669Y074294*
X026483Y074436*
X026267Y074526*
X026161Y074539*
Y073659*
Y072780*
X026267Y072793*
X026483Y072883*
X026669Y073025*
X026811Y073211*
X026901Y073427*
X026914Y073528*
X027041Y073519*
Y072454*
X026705*
X026612*
X024906*
X024905*
X024872Y072459*
X024794Y072560*
X024796Y072574*
X024766Y072807*
X024676Y073023*
X024534Y073209*
X024348Y073351*
X024132Y073441*
X023899Y073471*
X023667Y073441*
X023451Y073351*
X023265Y073209*
X023123Y073023*
X023098Y072963*
X019828*
X019679Y072933*
X019553Y072849*
X019109Y072405*
X019025Y072279*
X019019Y072250*
X018901Y072201*
X018895Y072205*
X018752Y072234*
X018541*
Y071473*
Y070711*
X018752*
X018895Y070740*
X018995Y070686*
Y069968*
X018541*
Y069214*
Y068461*
X018995*
Y068311*
X018950Y068251*
X018860Y068035*
X018830Y067803*
X018860Y067571*
X018950Y067355*
X019092Y067169*
X019278Y067027*
X019494Y066937*
X019726Y066906*
X019958Y066937*
X020175Y067027*
X020360Y067169*
X020503Y067355*
X020592Y067571*
X020623Y067803*
X020592Y068035*
X020503Y068251*
X020430Y068347*
X020486Y068461*
X020918*
Y068826*
X022693*
X022718Y068766*
X022860Y068580*
X023046Y068438*
X023262Y068348*
X023494Y068318*
X023727Y068348*
X023943Y068438*
X024129Y068580*
X024271Y068766*
X024296Y068826*
X024905*
Y068261*
X026612*
Y068260*
X026613*
X026705*
Y068261*
X027041*
Y067639*
X026924Y067550*
X026845Y067446*
X024740*
Y067882*
X023032*
X022940*
X022214*
Y066928*
Y065975*
X022940*
X022941Y065974*
X023032*
Y065975*
X024740*
Y066411*
X026826*
X026924Y066282*
X027041Y066193*
Y065571*
X026705*
X026612*
X024905*
Y065003*
X020918*
Y065369*
X019510*
Y063861*
X020918*
Y064226*
X024905*
Y063663*
X026612*
Y063663*
X026613*
X026705*
Y063663*
X027041*
Y063310*
X026705*
X026612*
X024905*
Y062745*
X020918*
Y063110*
X019510*
Y061603*
X020918*
Y061968*
X024905*
Y061403*
X025370*
Y061176*
X025371Y061172*
X025370Y061168*
X025386Y061098*
X025400Y061027*
X025402Y061024*
X025403Y061020*
X025505Y060788*
X025396Y060646*
X025306Y060430*
X025276Y060197*
X025306Y059965*
X025396Y059749*
X025538Y059563*
X025724Y059421*
X025940Y059331*
X026172Y059301*
X026405Y059331*
X026621Y059421*
X026807Y059563*
X026920Y059712*
X027041Y059671*
Y058713*
X026705*
X026612*
X024905*
Y058145*
X020918*
Y058511*
X019510*
Y057003*
X020918*
Y057368*
X024905*
Y056805*
X026612*
Y056805*
X026613*
X026705*
Y056805*
X027041*
Y056452*
X026705*
X026612*
X024905*
Y055887*
X024296*
X024271Y055947*
X024129Y056133*
X023943Y056275*
X023727Y056365*
X023494Y056395*
X023262Y056365*
X023046Y056275*
X022860Y056133*
X022718Y055947*
X022693Y055887*
X020918*
Y056252*
X019510*
Y054745*
X020918*
Y055110*
X022693*
X022718Y055050*
X022860Y054864*
X023046Y054722*
X023262Y054632*
X023494Y054602*
X023727Y054632*
X023943Y054722*
X024129Y054864*
X024271Y055050*
X024296Y055110*
X024905*
Y054545*
X026612*
Y054544*
X026613*
X026705*
Y054545*
X027041*
Y053480*
X026914Y053471*
X026901Y053572*
X026811Y053788*
X026669Y053974*
X026483Y054116*
X026267Y054206*
X026161Y054219*
Y053339*
Y052460*
X026267Y052473*
X026483Y052563*
X026669Y052705*
X026811Y052891*
X026901Y053107*
X026914Y053208*
X027041Y053199*
Y053085*
X027075Y052913*
X027041Y052740*
Y051855*
X026705*
X026612*
X024905*
Y051287*
X020918*
Y051653*
X019510*
Y050145*
X020918*
Y050510*
X024905*
Y049947*
X026612*
Y049947*
X026613*
X026705*
Y049947*
X027041*
Y049594*
X026705*
X026612*
X024905*
Y049029*
X024296*
X024271Y049089*
X024129Y049275*
X023943Y049417*
X023727Y049507*
X023494Y049537*
X023262Y049507*
X023046Y049417*
X022860Y049275*
X022718Y049089*
X022693Y049029*
X020918*
Y049394*
X019510*
Y047887*
X020918*
Y048252*
X022693*
X022718Y048192*
X022860Y048006*
X023046Y047864*
X023262Y047774*
X023494Y047744*
X023727Y047774*
X023943Y047864*
X024129Y048006*
X024271Y048192*
X024296Y048252*
X024905*
Y047687*
X026612*
Y047686*
X026613*
X026705*
Y047687*
X027041*
Y044997*
X026705*
X026612*
X024905*
Y044429*
X020918*
Y044795*
X019510*
Y043287*
X020918*
Y043652*
X024905*
Y043089*
X026612*
Y043089*
X026613*
X026705*
Y043089*
X027041*
Y042736*
X026705*
X026612*
X024905*
Y042171*
X024296*
X024271Y042231*
X024129Y042417*
X023943Y042559*
X023727Y042649*
X023494Y042679*
X023262Y042649*
X023046Y042559*
X022860Y042417*
X022718Y042231*
X022693Y042171*
X020896*
Y042536*
X019488*
Y041029*
X020896*
Y041394*
X022693*
X022718Y041334*
X022860Y041148*
X023046Y041006*
X023262Y040916*
X023494Y040886*
X023727Y040916*
X023943Y041006*
X024129Y041148*
X024271Y041334*
X024296Y041394*
X024905*
Y040829*
X026612*
Y040828*
X026613*
X026705*
Y040829*
X027041*
Y038139*
X026705*
X026612*
X024905*
Y037571*
X020896*
Y037937*
X019488*
Y036429*
X020896*
Y036794*
X024905*
Y036231*
X026612*
Y036231*
X026613*
X026705*
Y036231*
X028412*
Y038139*
X028076*
Y040829*
X028412*
Y042736*
X028076*
Y043089*
X028412*
Y044997*
X028076*
Y047687*
X028412*
Y049594*
X028076*
Y049947*
X028412*
Y051855*
X028076*
Y052740*
X028042Y052913*
X028076Y053085*
Y054545*
X028412*
Y056452*
X028076*
Y056805*
X028412*
Y058713*
X028076*
Y061403*
X028412*
Y063310*
X028076*
Y063663*
X028412*
Y065571*
X028076*
Y066193*
X028193Y066282*
X028282Y066398*
X031000*
X031198Y066437*
X031366Y066550*
X032955Y068138*
X035650*
X036460Y067327*
Y065797*
X038468*
Y067805*
X037447*
X036231Y069022*
X036062Y069134*
X035864Y069174*
X032740*
X032542Y069134*
X032374Y069022*
X030786Y067434*
X028282*
X028193Y067550*
X028076Y067639*
Y068261*
X028412*
Y070168*
X028076*
Y070547*
X028412*
Y072454*
X028076*
Y075146*
X028079*
Y077053*
X028076*
Y077379*
X028412*
Y079287*
X028076*
Y081977*
X028412*
Y083884*
X028076*
Y084237*
X028412*
Y086145*
X028076*
Y088835*
X028412*
Y090742*
X026705*
G37*
G36*
X022987Y109346D02*
X019811D01*
Y106171*
X020203Y106202*
X020708Y106323*
X021188Y106522*
X021631Y106794*
X022027Y107131*
X022364Y107527*
X022636Y107970*
X022835Y108450*
X022956Y108955*
X022987Y109346*
G37*
G36*
X019811Y112776D02*
Y109600D01*
X022987*
X022956Y109992*
X022835Y110497*
X022636Y110977*
X022364Y111420*
X022027Y111816*
X021631Y112153*
X021188Y112425*
X020708Y112624*
X020203Y112745*
X019811Y112776*
G37*
G36*
X019557D02*
X019166Y112745D01*
X018661Y112624*
X018181Y112425*
X017738Y112153*
X017342Y111816*
X017005Y111420*
X016733Y110977*
X016534Y110497*
X016413Y109992*
X016382Y109600*
X019557*
Y112776*
G37*
G36*
X019118Y090542D02*
X018541D01*
Y089915*
X019118*
Y090542*
G37*
G36*
X018541Y088382D02*
Y087629D01*
X019294*
X019281Y087735*
X019191Y087951*
X019049Y088137*
X018863Y088279*
X018647Y088369*
X018541Y088382*
G37*
G36*
X018287D02*
X018182Y088369D01*
X017966Y088279*
X017780Y088137*
X017638Y087951*
X017548Y087735*
X017535Y087629*
X018287*
Y088382*
G37*
G36*
Y089661D02*
X017710D01*
Y089035*
X018287*
Y089661*
G37*
G36*
Y090542D02*
X017710D01*
Y089915*
X018287*
Y090542*
G37*
G36*
X019118Y089661D02*
X018541D01*
Y089035*
X019118*
Y089661*
G37*
G36*
X018287Y079092D02*
X018077D01*
X017934Y079063*
X017813Y078982*
X017732Y078861*
X017703Y078718*
Y078458*
X018287*
Y079092*
G37*
G36*
X034797Y067797D02*
X034662Y067780D01*
X034418Y067678*
X034208Y067518*
X034047Y067308*
X033946Y067064*
X033929Y066928*
X034797*
Y067797*
G37*
G36*
X021960Y066801D02*
X021233D01*
Y065975*
X021960*
Y066801*
G37*
G36*
X035051Y067797D02*
Y066928D01*
X035920*
X035903Y067064*
X035801Y067308*
X035641Y067518*
X035431Y067678*
X035187Y067780*
X035051Y067797*
G37*
G36*
X018287Y069087D02*
X017710D01*
Y068461*
X018287*
Y069087*
G37*
G36*
X021960Y067882D02*
X021233D01*
Y067055*
X021960*
Y067882*
G37*
G36*
X035920Y066674D02*
X035051D01*
Y065806*
X035187Y065823*
X035431Y065924*
X035641Y066085*
X035801Y066295*
X035903Y066539*
X035920Y066674*
G37*
G36*
X019126Y064488D02*
X018541D01*
Y063853*
X018752*
X018895Y063882*
X019016Y063963*
X019097Y064084*
X019126Y064227*
Y064488*
G37*
G36*
X018287D02*
X017703D01*
Y064227*
X017732Y064084*
X017813Y063963*
X017934Y063882*
X018077Y063853*
X018287*
Y064488*
G37*
G36*
Y065376D02*
X018077D01*
X017934Y065347*
X017813Y065266*
X017732Y065145*
X017703Y065002*
Y064742*
X018287*
Y065376*
G37*
G36*
X034797Y066674D02*
X033929D01*
X033946Y066539*
X034047Y066295*
X034208Y066085*
X034418Y065924*
X034662Y065823*
X034797Y065806*
Y066674*
G37*
G36*
X018752Y065376D02*
X018541D01*
Y064742*
X019126*
Y065002*
X019097Y065145*
X019016Y065266*
X018895Y065347*
X018752Y065376*
G37*
G36*
X018287Y076826D02*
X017710D01*
Y076199*
X018287*
Y076826*
G37*
G36*
X019118Y075945D02*
X018541D01*
Y075319*
X019118*
Y075945*
G37*
G36*
Y076826D02*
X018541D01*
Y076199*
X019118*
Y076826*
G37*
G36*
X019126Y078204D02*
X018541D01*
Y077569*
X018752*
X018895Y077598*
X019016Y077679*
X019097Y077800*
X019126Y077943*
Y078204*
G37*
G36*
X018287D02*
X017703D01*
Y077943*
X017732Y077800*
X017813Y077679*
X017934Y077598*
X018077Y077569*
X018287*
Y078204*
G37*
G36*
Y075945D02*
X017710D01*
Y075319*
X018287*
Y075945*
G37*
G36*
Y071346D02*
X017703D01*
Y071085*
X017732Y070942*
X017813Y070821*
X017934Y070740*
X018077Y070711*
X018287*
Y071346*
G37*
G36*
Y069968D02*
X017710D01*
Y069341*
X018287*
Y069968*
G37*
G36*
Y072234D02*
X018077D01*
X017934Y072205*
X017813Y072124*
X017732Y072003*
X017703Y071860*
Y071600*
X018287*
Y072234*
G37*
G36*
X025907Y074539D02*
X025802Y074526D01*
X025586Y074436*
X025400Y074294*
X025258Y074108*
X025168Y073892*
X025155Y073786*
X025907*
Y074539*
G37*
G36*
Y073532D02*
X025155D01*
X025168Y073427*
X025258Y073211*
X025400Y073025*
X025586Y072883*
X025802Y072793*
X025907Y072780*
Y073532*
G37*
%LNfilm_top-4*%
%LPC*%
G54D21*
X018393Y037183D02*
Y041782D01*
X018414Y041804D01*
Y044041D01*
Y048640D01*
Y050899D01*
Y053339D01*
Y055498D01*
Y053339D02*
X026034D01*
X018414Y055498D02*
Y057757D01*
Y060324D01*
Y062356D01*
Y064615D01*
Y066674D01*
X018668Y066928D01*
X018414Y067182D02*
Y069214D01*
Y067182D02*
D01*
Y069214D02*
Y071473D01*
Y073773D01*
Y076072D01*
Y073773D02*
X018528Y073659D01*
X018414Y076072D02*
Y078331D01*
Y082930D01*
Y085189D01*
Y087502D01*
Y089788D01*
Y067182D02*
X018668Y066928D01*
X018528Y073659D02*
X026034D01*
X018668Y066928D02*
X018810Y066787D01*
X021945D01*
X019383Y068308D02*
Y072130D01*
Y068308D02*
X019726Y067966D01*
X019383Y072130D02*
X019828Y072574D01*
X019726Y067803D02*
Y067966D01*
X019828Y072574D02*
X023899D01*
X020192Y037183D02*
X025756D01*
X020192Y041782D02*
X023494D01*
X020214Y044041D02*
X025756D01*
X020214Y048640D02*
X023494D01*
X020214Y050899D02*
X025756D01*
X020214Y055498D02*
X023494D01*
X020214Y057757D02*
X025756D01*
X020214Y062356D02*
X025759D01*
X020214Y064615D02*
X025756D01*
X020214Y069214D02*
X023494D01*
X020214Y071473D02*
X025731D01*
X020214Y076072D02*
X023494D01*
X020214Y078331D02*
X025756D01*
X020214Y082930D02*
X023494D01*
X020214Y085189D02*
X025756D01*
X020214Y089788D02*
X023494D01*
X021945Y066787D02*
X022087Y066928D01*
X023494Y041782D02*
X025759D01*
X023494Y048640D02*
X025759D01*
X023494Y055498D02*
X025759D01*
X023494Y069214D02*
X025759D01*
X023494Y076072D02*
X025759D01*
X023494Y082930D02*
X025759D01*
X023494Y089788D02*
X025759D01*
G54D22*
X023886Y066928D02*
X027546D01*
G54D21*
X025731Y071473D02*
X025759Y071500D01*
X025756Y037183D02*
X025759Y037185D01*
X025756Y044041D02*
X025759Y044043D01*
X025756Y050899D02*
X025759Y050901D01*
X025756Y057757D02*
X025759Y057759D01*
X025756Y064615D02*
X025759Y064617D01*
X025756Y078331D02*
X025759Y078333D01*
X025756Y085189D02*
X025759Y085191D01*
Y061176D02*
Y062356D01*
Y061176D02*
X026186Y060203D01*
G54D22*
X027546Y066928D02*
X027558Y066916D01*
Y037185D02*
Y041782D01*
Y044043D01*
Y048640D01*
Y050901D01*
Y052740D01*
G54D21*
X027558Y052740D02*
Y053085D01*
G54D22*
X027558Y053085D02*
Y055498D01*
Y057759D01*
Y062356D01*
Y064617D01*
Y066916D01*
Y069214D01*
Y066916D02*
X031000D01*
X027558Y069214D02*
Y071500D01*
Y076072D01*
Y078333D01*
Y082930D01*
Y085191D01*
Y089788D01*
X031000Y066916D02*
X032740Y068656D01*
X035864D01*
X037515Y067005D01*
G54D21*
X037515Y067005D02*
X037668Y067157D01*
G54D18*
X018393Y037183D03*
G54D19*
X018393Y041782D03*
G54D18*
X018414Y044041D03*
G54D19*
X018414Y048640D03*
G54D18*
X018414Y050899D03*
G54D19*
X018414Y055498D03*
G54D18*
X018414Y057757D03*
G54D19*
X018414Y062356D03*
G54D18*
X018414Y064615D03*
G54D19*
X018414Y069214D03*
G54D18*
X018414Y071473D03*
G54D19*
X018414Y076072D03*
G54D18*
X018414Y078331D03*
G54D19*
X018414Y082930D03*
G54D18*
X018414Y085189D03*
G54D19*
X018414Y089788D03*
G54D23*
X018453Y066928D03*
G54D19*
X020192Y037183D03*
Y041782D03*
X020214Y044041D03*
Y048640D03*
Y050899D03*
Y055498D03*
Y057757D03*
Y062356D03*
Y064615D03*
Y069214D03*
Y071473D03*
Y076072D03*
Y078331D03*
Y082930D03*
Y085189D03*
Y089788D03*
G54D20*
X022087Y066928D03*
X023886D03*
X025425Y076100D03*
X025759Y037185D03*
Y041782D03*
Y044043D03*
Y048640D03*
Y050901D03*
Y055498D03*
Y057759D03*
Y062356D03*
Y064617D03*
Y069214D03*
Y071500D03*
Y078333D03*
Y082930D03*
Y085191D03*
Y089788D03*
X027225Y076100D03*
X027558Y037185D03*
Y041782D03*
Y044043D03*
Y048640D03*
Y050901D03*
Y055498D03*
Y057759D03*
Y062356D03*
Y064617D03*
Y069214D03*
Y071500D03*
Y078333D03*
Y082930D03*
Y085191D03*
Y089788D03*
G54D24*
X034924Y061721D03*
Y064261D03*
Y066801D03*
X037464Y061721D03*
Y064261D03*
G54D25*
X037464Y066801D03*
G36*
X024905Y070547D02*
X026612D01*
Y070546*
X026613*
X026705*
Y070547*
X027041*
Y070168*
X026705*
X026612*
X024905*
Y069603*
X024296*
X024271Y069663*
X024129Y069849*
X023943Y069991*
X023727Y070081*
X023494Y070111*
X023262Y070081*
X023046Y069991*
X022860Y069849*
X022718Y069663*
X022693Y069603*
X020918*
Y069968*
X019772*
Y070719*
X020918*
Y071084*
X024905*
Y070547*
G37*
G54D26*
X018414Y060324D03*
Y087502D03*
G54D27*
X019684Y017525D03*
Y109473D03*
G54D26*
X019726Y067803D03*
X023494Y041782D03*
Y048640D03*
Y055498D03*
Y069214D03*
Y076072D03*
Y082930D03*
Y089788D03*
X023899Y072574D03*
X026034Y053339D03*
Y073659D03*
X026172Y060197D03*
X027558Y066916D03*
M02*