%FSDAX33Y33*%
%MOMM*%
%SFA1B1*%

%IPPOS*%
%AMD18*
4,1,8,0.337820,0.500380,-0.337820,0.500380,-0.449580,0.388620,-0.449580,-0.388620,-0.337820,-0.500380,0.337820,-0.500380,0.449580,-0.388620,0.449580,0.388620,0.337820,0.500380,0.0*
1,1,0.224998,0.337820,0.388620*
1,1,0.224998,-0.337820,0.388620*
1,1,0.224998,-0.337820,-0.388620*
1,1,0.224998,0.337820,-0.388620*
%
%AMD1002*
%
G04~CAMADD=18~8~0.0~0.0~354.3~393.7~44.3~0.0~15~0.0~0.0~0.0~0.0~0~0.0~0.0~0.0~0.0~0~0.0~0.0~0.0~0.0~354.3~393.7*
%ADD18D18*%
%ADD19R,0.900001X1.000001*%
%ADD20R,1.200000X1.400000*%
%ADD21C,0.254000*%
%ADD22C,0.508000*%
%ADD23R,0.330200X0.457200*%
%ADD24C,1.524000*%
%ADD25R,1.524000X1.524000*%
%ADD26C,1.270000*%
%ADD27C,6.096000*%
%LNfilm_top-1*%
%LPD*%
G36*
X253999Y304799D02*
X000000D01*
Y000000*
X253999*
Y304799*
G37*
%LNfilm_top-2*%
%LPC*%
G36*
X142874Y095249D02*
X111124D01*
Y209549*
X142874*
Y095249*
G37*
%LNfilm_top-3*%
%LPD*%
G36*
X120726Y146530D02*
X120141D01*
Y145895*
X120352*
X120495Y145924*
X120616Y146005*
X120697Y146126*
X120726Y146269*
Y146530*
G37*
G36*
X119887D02*
X119303D01*
Y146269*
X119332Y146126*
X119413Y146005*
X119534Y145924*
X119677Y145895*
X119887*
Y146530*
G37*
G36*
Y147418D02*
X119677D01*
X119534Y147389*
X119413Y147308*
X119332Y147187*
X119303Y147044*
Y146784*
X119887*
Y147418*
G37*
G36*
Y149097D02*
X119135D01*
X119148Y148992*
X119238Y148776*
X119380Y148590*
X119566Y148448*
X119782Y148358*
X119887Y148345*
Y149097*
G37*
G36*
X120352Y147418D02*
X120141D01*
Y146784*
X120726*
Y147044*
X120697Y147187*
X120616Y147308*
X120495Y147389*
X120352Y147418*
G37*
G36*
X120718Y145152D02*
X120141D01*
Y144525*
X120718*
Y145152*
G37*
G36*
X127507Y143119D02*
X127402Y143106D01*
X127186Y143016*
X127000Y142874*
X126858Y142688*
X126768Y142472*
X126755Y142366*
X127507*
Y143119*
G37*
G36*
Y142112D02*
X126755D01*
X126768Y142007*
X126858Y141791*
X127000Y141605*
X127186Y141463*
X127402Y141373*
X127507Y141360*
Y142112*
G37*
G36*
X119887Y144271D02*
X119310D01*
Y143645*
X119887*
Y144271*
G37*
G36*
Y145152D02*
X119310D01*
Y144525*
X119887*
Y145152*
G37*
G36*
X120718Y144271D02*
X120141D01*
Y143645*
X120718*
Y144271*
G37*
G36*
X120894Y149097D02*
X120141D01*
Y148345*
X120247Y148358*
X120463Y148448*
X120649Y148590*
X120791Y148776*
X120881Y148992*
X120894Y149097*
G37*
G36*
X120718Y152010D02*
X120141D01*
Y151383*
X120718*
Y152010*
G37*
G36*
X119887D02*
X119310D01*
Y151383*
X119887*
Y152010*
G37*
G36*
X136524Y154186D02*
X136259Y154151D01*
X136012Y154049*
X135800Y153886*
X135637Y153674*
X135535Y153427*
X135500Y153161*
X135535Y152896*
X135637Y152649*
X135800Y152437*
X136012Y152274*
X136259Y152172*
X136524Y152137*
X136790Y152172*
X137037Y152274*
X137249Y152437*
X137412Y152649*
X137514Y152896*
X137549Y153161*
X137514Y153427*
X137412Y153674*
X137249Y153886*
X137037Y154049*
X136790Y154151*
X136524Y154186*
G37*
G36*
X119887Y153388D02*
X119303D01*
Y153127*
X119332Y152984*
X119413Y152863*
X119534Y152782*
X119677Y152753*
X119887*
Y153388*
G37*
G36*
X139064Y154186D02*
X138799Y154151D01*
X138552Y154049*
X138340Y153886*
X138177Y153674*
X138075Y153427*
X138040Y153161*
X138075Y152896*
X138177Y152649*
X138340Y152437*
X138552Y152274*
X138799Y152172*
X139064Y152137*
X139330Y152172*
X139577Y152274*
X139789Y152437*
X139952Y152649*
X140054Y152896*
X140089Y153161*
X140054Y153427*
X139952Y153674*
X139789Y153886*
X139577Y154049*
X139330Y154151*
X139064Y154186*
G37*
G36*
X120718Y151129D02*
X120141D01*
Y150503*
X120718*
Y151129*
G37*
G36*
X120141Y150104D02*
Y149351D01*
X120894*
X120881Y149457*
X120791Y149673*
X120649Y149859*
X120463Y150001*
X120247Y150091*
X120141Y150104*
G37*
G36*
X119887D02*
X119782Y150091D01*
X119566Y150001*
X119380Y149859*
X119238Y149673*
X119148Y149457*
X119135Y149351*
X119887*
Y150104*
G37*
G36*
X136524Y151646D02*
X136259Y151611D01*
X136012Y151509*
X135800Y151346*
X135637Y151134*
X135535Y150887*
X135500Y150621*
X135535Y150356*
X135637Y150109*
X135800Y149897*
X136012Y149734*
X136259Y149632*
X136524Y149597*
X136790Y149632*
X137037Y149734*
X137249Y149897*
X137412Y150109*
X137514Y150356*
X137549Y150621*
X137514Y150887*
X137412Y151134*
X137249Y151346*
X137037Y151509*
X136790Y151611*
X136524Y151646*
G37*
G36*
X119887Y151129D02*
X119310D01*
Y150503*
X119887*
Y151129*
G37*
G36*
X139064Y151646D02*
X138799Y151611D01*
X138552Y151509*
X138340Y151346*
X138177Y151134*
X138075Y150887*
X138040Y150621*
X138075Y150356*
X138177Y150109*
X138340Y149897*
X138552Y149734*
X138799Y149632*
X139064Y149597*
X139330Y149632*
X139577Y149734*
X139789Y149897*
X139952Y150109*
X140054Y150356*
X140089Y150621*
X140054Y150887*
X139952Y151134*
X139789Y151346*
X139577Y151509*
X139330Y151611*
X139064Y151646*
G37*
G36*
X120352Y140560D02*
X120141D01*
Y139926*
X120726*
Y140186*
X120697Y140329*
X120616Y140450*
X120495Y140531*
X120352Y140560*
G37*
G36*
X120330Y126844D02*
X120120D01*
Y126210*
X120704*
Y126470*
X120675Y126613*
X120594Y126734*
X120473Y126815*
X120330Y126844*
G37*
G36*
X119866D02*
X119655D01*
X119512Y126815*
X119391Y126734*
X119310Y126613*
X119281Y126470*
Y126210*
X119866*
Y126844*
G37*
G36*
Y130555D02*
X119288D01*
Y129929*
X119866*
Y130555*
G37*
G36*
Y131436D02*
X119288D01*
Y130809*
X119866*
Y131436*
G37*
G36*
X120696Y130555D02*
X120120D01*
Y129929*
X120696*
Y130555*
G37*
G36*
X120704Y125956D02*
X120120D01*
Y125321*
X120330*
X120473Y125350*
X120594Y125431*
X120675Y125552*
X120704Y125695*
Y125956*
G37*
G36*
X124587Y106298D02*
X121411D01*
Y103123*
X121803Y103154*
X122308Y103275*
X122788Y103474*
X123231Y103746*
X123627Y104083*
X123964Y104479*
X124236Y104922*
X124435Y105402*
X124556Y105907*
X124587Y106298*
G37*
G36*
X121157D02*
X117982D01*
X118013Y105907*
X118134Y105402*
X118333Y104922*
X118605Y104479*
X118942Y104083*
X119338Y103746*
X119781Y103474*
X120261Y103275*
X120766Y103154*
X121157Y103123*
Y106298*
G37*
G36*
Y109728D02*
X120766Y109697D01*
X120261Y109576*
X119781Y109377*
X119338Y109105*
X118942Y108768*
X118605Y108372*
X118333Y107929*
X118134Y107449*
X118013Y106944*
X117982Y106552*
X121157*
Y109728*
G37*
G36*
X119866Y125956D02*
X119281D01*
Y125695*
X119310Y125552*
X119391Y125431*
X119512Y125350*
X119655Y125321*
X119866*
Y125956*
G37*
G36*
X121411Y109728D02*
Y106552D01*
X124587*
X124556Y106944*
X124435Y107449*
X124236Y107929*
X123964Y108372*
X123627Y108768*
X123231Y109105*
X122788Y109377*
X122308Y109576*
X121803Y109697*
X121411Y109728*
G37*
G36*
X120696Y131436D02*
X120120D01*
Y130809*
X120696*
Y131436*
G37*
G36*
X120718Y138294D02*
X120141D01*
Y137667*
X120718*
Y138294*
G37*
G36*
X119887D02*
X119310D01*
Y137667*
X119887*
Y138294*
G37*
G36*
Y139672D02*
X119303D01*
Y139411*
X119332Y139268*
X119413Y139147*
X119534Y139066*
X119677Y139037*
X119887*
Y139672*
G37*
G36*
Y140560D02*
X119677D01*
X119534Y140531*
X119413Y140450*
X119332Y140329*
X119303Y140186*
Y139926*
X119887*
Y140560*
G37*
G36*
X120726Y139672D02*
X120141D01*
Y139037*
X120352*
X120495Y139066*
X120616Y139147*
X120697Y139268*
X120726Y139411*
Y139672*
G37*
G36*
X120718Y137413D02*
X120141D01*
Y136787*
X120718*
Y137413*
G37*
G36*
X120726Y132814D02*
X120141D01*
Y132179*
X120352*
X120495Y132208*
X120616Y132289*
X120697Y132410*
X120726Y132553*
Y132814*
G37*
G36*
X119887D02*
X119303D01*
Y132553*
X119332Y132410*
X119413Y132289*
X119534Y132208*
X119677Y132179*
X119887*
Y132814*
G37*
G36*
Y133702D02*
X119677D01*
X119534Y133673*
X119413Y133592*
X119332Y133471*
X119303Y133328*
Y133068*
X119887*
Y133702*
G37*
G36*
Y137413D02*
X119310D01*
Y136787*
X119887*
Y137413*
G37*
G36*
X120352Y133702D02*
X120141D01*
Y133068*
X120726*
Y133328*
X120697Y133471*
X120616Y133592*
X120495Y133673*
X120352Y133702*
G37*
G36*
X120726Y153388D02*
X120141D01*
Y152753*
X120352*
X120495Y152782*
X120616Y152863*
X120697Y152984*
X120726Y153127*
Y153388*
G37*
G36*
Y173962D02*
X120141D01*
Y173327*
X120352*
X120495Y173356*
X120616Y173437*
X120697Y173558*
X120726Y173701*
Y173962*
G37*
G36*
X119887D02*
X119303D01*
Y173701*
X119332Y173558*
X119413Y173437*
X119534Y173356*
X119677Y173327*
X119887*
Y173962*
G37*
G36*
Y174850D02*
X119677D01*
X119534Y174821*
X119413Y174740*
X119332Y174619*
X119303Y174476*
Y174216*
X119887*
Y174850*
G37*
G36*
Y176275D02*
X119135D01*
X119148Y176170*
X119238Y175954*
X119380Y175768*
X119566Y175626*
X119782Y175536*
X119887Y175523*
Y176275*
G37*
G36*
X120352Y174850D02*
X120141D01*
Y174216*
X120726*
Y174476*
X120697Y174619*
X120616Y174740*
X120495Y174821*
X120352Y174850*
G37*
G36*
X120718Y172584D02*
X120141D01*
Y171957*
X120718*
Y172584*
G37*
G36*
X120352Y167992D02*
X120141D01*
Y167358*
X120726*
Y167618*
X120697Y167761*
X120616Y167882*
X120495Y167963*
X120352Y167992*
G37*
G36*
X119887D02*
X119677D01*
X119534Y167963*
X119413Y167882*
X119332Y167761*
X119303Y167618*
Y167358*
X119887*
Y167992*
G37*
G36*
Y171703D02*
X119310D01*
Y171077*
X119887*
Y171703*
G37*
G36*
Y172584D02*
X119310D01*
Y171957*
X119887*
Y172584*
G37*
G36*
X120718Y171703D02*
X120141D01*
Y171077*
X120718*
Y171703*
G37*
G36*
X120894Y176275D02*
X120141D01*
Y175523*
X120247Y175536*
X120463Y175626*
X120649Y175768*
X120791Y175954*
X120881Y176170*
X120894Y176275*
G37*
G36*
X121157Y198246D02*
X117982D01*
X118013Y197855*
X118134Y197350*
X118333Y196870*
X118605Y196427*
X118942Y196031*
X119338Y195694*
X119781Y195422*
X120261Y195223*
X120766Y195102*
X121157Y195071*
Y198246*
G37*
G36*
X128305Y179642D02*
X128213D01*
X128177*
X126505*
Y179077*
X125896*
X125871Y179137*
X125729Y179323*
X125543Y179465*
X125327Y179555*
X125094Y179585*
X124862Y179555*
X124646Y179465*
X124460Y179323*
X124318Y179137*
X124293Y179077*
X122518*
Y179442*
X121110*
Y177935*
X122518*
Y178300*
X124293*
X124318Y178240*
X124460Y178054*
X124646Y177912*
X124862Y177822*
X125094Y177792*
X125327Y177822*
X125543Y177912*
X125729Y178054*
X125871Y178240*
X125896Y178300*
X126505*
Y177735*
X128177*
X128213Y177734*
X128305*
X128340Y177735*
X128641*
Y175045*
X128340*
X128305*
X128213*
X128177*
X126505*
Y174477*
X122518*
Y174843*
X121110*
Y173335*
X122518*
Y173700*
X126505*
Y173137*
X128177*
X128213Y173137*
X128305*
X128340Y173137*
X128641*
Y172784*
X128340*
X128305*
X128213*
X128177*
X126505*
Y172219*
X125896*
X125871Y172279*
X125729Y172465*
X125543Y172607*
X125327Y172697*
X125094Y172727*
X124862Y172697*
X124646Y172607*
X124460Y172465*
X124318Y172279*
X124293Y172219*
X122518*
Y172584*
X121110*
Y171077*
X122518*
Y171442*
X124293*
X124318Y171382*
X124460Y171196*
X124646Y171054*
X124862Y170964*
X125094Y170934*
X125327Y170964*
X125543Y171054*
X125729Y171196*
X125871Y171382*
X125896Y171442*
X126505*
Y170877*
X128177*
X128213Y170876*
X128305*
X128340Y170877*
X128641*
Y168187*
X128340*
X128305*
X128213*
X128177*
X126505*
Y167619*
X122518*
Y167985*
X121110*
Y166477*
X122518*
Y166842*
X126505*
Y166279*
X128177*
X128213Y166279*
X128305*
X128340Y166279*
X128641*
Y165926*
X128340*
X128305*
X128213*
X128177*
X126505*
Y165361*
X125896*
X125871Y165421*
X125729Y165607*
X125543Y165749*
X125327Y165839*
X125094Y165869*
X124862Y165839*
X124646Y165749*
X124460Y165607*
X124318Y165421*
X124293Y165361*
X122518*
Y165726*
X121110*
Y164219*
X122518*
Y164584*
X124293*
X124318Y164524*
X124460Y164338*
X124646Y164196*
X124862Y164106*
X125094Y164076*
X125327Y164106*
X125543Y164196*
X125729Y164338*
X125871Y164524*
X125896Y164584*
X126505*
Y164019*
X128177*
X128213Y164018*
X128305*
X128340Y164019*
X128641*
Y162702*
X128514Y162693*
X128501Y162792*
X128411Y163008*
X128269Y163194*
X128083Y163336*
X127867Y163426*
X127761Y163439*
Y162559*
Y161680*
X127867Y161693*
X128083Y161783*
X128269Y161925*
X128411Y162111*
X128501Y162327*
X128514Y162426*
X128641Y162417*
Y161354*
X128340*
X128305*
X128213*
X128177*
X126505*
Y160761*
X122518*
Y161127*
X121110*
Y159619*
X122518*
Y159984*
X126505*
Y159447*
X128177*
X128213Y159446*
X128305*
X128340Y159447*
X128641*
Y159068*
X128340*
X128305*
X128213*
X128177*
X126505*
Y158503*
X125896*
X125871Y158563*
X125729Y158749*
X125543Y158891*
X125327Y158981*
X125094Y159011*
X124862Y158981*
X124646Y158891*
X124460Y158749*
X124318Y158563*
X124293Y158503*
X122518*
Y158868*
X121110*
Y157361*
X122518*
Y157726*
X124293*
X124318Y157666*
X124460Y157480*
X124646Y157338*
X124862Y157248*
X125094Y157218*
X125327Y157248*
X125543Y157338*
X125729Y157480*
X125871Y157666*
X125896Y157726*
X126505*
Y157161*
X128177*
X128213Y157160*
X128305*
X128340Y157161*
X128641*
Y156539*
X128524Y156450*
X128445Y156346*
X126340*
Y156782*
X124668*
X124632*
X124541*
X124505*
X123813*
Y155828*
Y154875*
X124505*
X124541*
X124632*
X124668*
X126340*
Y155311*
X128426*
X128524Y155182*
X128641Y155093*
Y154471*
X128340*
X128305*
X128213*
X128177*
X126505*
Y153903*
X122518*
Y154269*
X121110*
Y152761*
X122518*
Y153126*
X126505*
Y152563*
X128177*
X128213Y152563*
X128305*
X128340Y152563*
X128641*
Y152210*
X128305*
X128212*
X126505*
Y151645*
X122518*
Y152010*
X121110*
Y150503*
X122518*
Y150868*
X126505*
Y150303*
X126970*
Y150076*
X126971Y150072*
X126970Y150068*
X126986Y149998*
X127000Y149927*
X127002Y149924*
X127003Y149920*
X127052Y149807*
X126901Y149610*
X126799Y149363*
X126764Y149097*
X126799Y148832*
X126901Y148585*
X127064Y148373*
X127276Y148210*
X127523Y148108*
X127789Y148073*
X128054Y148108*
X128301Y148210*
X128513Y148373*
X128520Y148382*
X128641Y148341*
Y147613*
X128340*
X128305*
X128213*
X128177*
X126505*
Y147045*
X122518*
Y147411*
X121110*
Y145903*
X122518*
Y146268*
X126505*
Y145705*
X128177*
X128213Y145705*
X128305*
X128340Y145705*
X128641*
Y145352*
X128340*
X128305*
X128213*
X128177*
X126505*
Y144787*
X125896*
X125871Y144847*
X125729Y145033*
X125543Y145175*
X125327Y145265*
X125094Y145295*
X124862Y145265*
X124646Y145175*
X124460Y145033*
X124318Y144847*
X124293Y144787*
X122518*
Y145152*
X121110*
Y143645*
X122518*
Y144010*
X124293*
X124318Y143950*
X124460Y143764*
X124646Y143622*
X124862Y143532*
X125094Y143502*
X125327Y143532*
X125543Y143622*
X125729Y143764*
X125871Y143950*
X125896Y144010*
X126505*
Y143445*
X128177*
X128213Y143444*
X128305*
X128340Y143445*
X128641*
Y142382*
X128514Y142373*
X128501Y142472*
X128411Y142688*
X128269Y142874*
X128083Y143016*
X127867Y143106*
X127761Y143119*
Y142239*
Y141360*
X127867Y141373*
X128083Y141463*
X128269Y141605*
X128411Y141791*
X128501Y142007*
X128514Y142106*
X128641Y142097*
Y141985*
X128675Y141813*
X128641Y141640*
Y140755*
X128340*
X128305*
X128213*
X128177*
X126505*
Y140187*
X122518*
Y140553*
X121110*
Y139045*
X122518*
Y139410*
X126505*
Y138847*
X128177*
X128213Y138847*
X128305*
X128340Y138847*
X128641*
Y138494*
X128340*
X128305*
X128213*
X128177*
X126505*
Y137929*
X125896*
X125871Y137989*
X125729Y138175*
X125543Y138317*
X125327Y138407*
X125094Y138437*
X124862Y138407*
X124646Y138317*
X124460Y138175*
X124318Y137989*
X124293Y137929*
X122518*
Y138294*
X121110*
Y136787*
X122518*
Y137152*
X124293*
X124318Y137092*
X124460Y136906*
X124646Y136764*
X124862Y136674*
X125094Y136644*
X125327Y136674*
X125543Y136764*
X125729Y136906*
X125871Y137092*
X125896Y137152*
X126505*
Y136587*
X128177*
X128213Y136586*
X128305*
X128340Y136587*
X128641*
Y133897*
X128340*
X128305*
X128213*
X128177*
X126505*
Y133329*
X122518*
Y133695*
X121110*
Y132187*
X122518*
Y132552*
X126505*
Y131989*
X128177*
X128213Y131989*
X128305*
X128340Y131989*
X128641*
Y131636*
X128340*
X128305*
X128213*
X128177*
X126505*
Y131071*
X125896*
X125871Y131131*
X125729Y131317*
X125543Y131459*
X125327Y131549*
X125094Y131579*
X124862Y131549*
X124646Y131459*
X124460Y131317*
X124318Y131131*
X124293Y131071*
X122496*
Y131436*
X121088*
Y129929*
X122496*
Y130294*
X124293*
X124318Y130234*
X124460Y130048*
X124646Y129906*
X124862Y129816*
X125094Y129786*
X125327Y129816*
X125543Y129906*
X125729Y130048*
X125871Y130234*
X125896Y130294*
X126505*
Y129729*
X128177*
X128213Y129728*
X128305*
X128340Y129729*
X128641*
Y127039*
X128340*
X128305*
X128213*
X128177*
X126505*
Y126471*
X122496*
Y126837*
X121088*
Y125329*
X122496*
Y125694*
X126505*
Y125131*
X128177*
X128213Y125131*
X128305*
X128340Y125131*
X130012*
Y127039*
X129676*
Y129729*
X130012*
Y131636*
X129676*
Y131989*
X130012*
Y133897*
X129676*
Y136587*
X130012*
Y138494*
X129676*
Y138847*
X130012*
Y140755*
X129676*
Y141640*
X129642Y141813*
X129676Y141985*
Y143445*
X130012*
Y145352*
X129676*
Y145705*
X130012*
Y147613*
X129676*
Y150303*
X130012*
Y152210*
X129676*
Y152563*
X130012*
Y154471*
X129676*
Y155093*
X129793Y155182*
X129882Y155298*
X132600*
X132798Y155337*
X132966Y155450*
X134555Y157038*
X137250*
X138048Y156239*
Y154685*
X140080*
Y156717*
X139035*
X137831Y157922*
X137662Y158034*
X137464Y158074*
X134340*
X134142Y158034*
X133974Y157922*
X132386Y156334*
X129882*
X129793Y156450*
X129676Y156539*
Y157161*
X130012*
Y159068*
X129676*
Y159447*
X130012*
Y161354*
X129676*
Y164019*
X130012*
Y165926*
X129676*
Y166279*
X130012*
Y168187*
X129676*
Y170877*
X130012*
Y172784*
X129676*
Y173137*
X130012*
Y175045*
X129676*
Y177735*
X130012*
Y179642*
X128340*
X128305*
G37*
G36*
X124587Y198246D02*
X121411D01*
Y195071*
X121803Y195102*
X122308Y195223*
X122788Y195422*
X123231Y195694*
X123627Y196031*
X123964Y196427*
X124236Y196870*
X124435Y197350*
X124556Y197855*
X124587Y198246*
G37*
G36*
X121411Y201676D02*
Y198500D01*
X124587*
X124556Y198892*
X124435Y199397*
X124236Y199877*
X123964Y200320*
X123627Y200716*
X123231Y201053*
X122788Y201325*
X122308Y201524*
X121803Y201645*
X121411Y201676*
G37*
G36*
X121157D02*
X120766Y201645D01*
X120261Y201524*
X119781Y201325*
X119338Y201053*
X118942Y200716*
X118605Y200320*
X118333Y199877*
X118134Y199397*
X118013Y198892*
X117982Y198500*
X121157*
Y201676*
G37*
G36*
X120718Y179442D02*
X120141D01*
Y178815*
X120718*
Y179442*
G37*
G36*
X120141Y177282D02*
Y176529D01*
X120894*
X120881Y176635*
X120791Y176851*
X120649Y177037*
X120463Y177179*
X120247Y177269*
X120141Y177282*
G37*
G36*
X119887D02*
X119782Y177269D01*
X119566Y177179*
X119380Y177037*
X119238Y176851*
X119148Y176635*
X119135Y176529*
X119887*
Y177282*
G37*
G36*
Y178561D02*
X119310D01*
Y177935*
X119887*
Y178561*
G37*
G36*
Y179442D02*
X119310D01*
Y178815*
X119887*
Y179442*
G37*
G36*
X120718Y178561D02*
X120141D01*
Y177935*
X120718*
Y178561*
G37*
G36*
X120726Y167104D02*
X120141D01*
Y166469*
X120352*
X120495Y166498*
X120616Y166579*
X120697Y166700*
X120726Y166843*
Y167104*
G37*
G36*
X123559Y156782D02*
X122833D01*
Y155955*
X123559*
Y156782*
G37*
G36*
X136651Y156710D02*
Y155828D01*
X137533*
X137514Y155967*
X137412Y156214*
X137249Y156426*
X137037Y156589*
X136790Y156691*
X136651Y156710*
G37*
G36*
X119887Y157987D02*
X119310D01*
Y157361*
X119887*
Y157987*
G37*
G36*
Y158868D02*
X119310D01*
Y158241*
X119887*
Y158868*
G37*
G36*
X120718Y157987D02*
X120141D01*
Y157361*
X120718*
Y157987*
G37*
G36*
X136397Y156710D02*
X136259Y156691D01*
X136012Y156589*
X135800Y156426*
X135637Y156214*
X135535Y155967*
X135516Y155828*
X136397*
Y156710*
G37*
G36*
X120352Y154276D02*
X120141D01*
Y153642*
X120726*
Y153902*
X120697Y154045*
X120616Y154166*
X120495Y154247*
X120352Y154276*
G37*
G36*
X119887D02*
X119677D01*
X119534Y154247*
X119413Y154166*
X119332Y154045*
X119303Y153902*
Y153642*
X119887*
Y154276*
G37*
G36*
X136397Y155574D02*
X135516D01*
X135535Y155436*
X135637Y155189*
X135800Y154977*
X136012Y154814*
X136259Y154712*
X136397Y154693*
Y155574*
G37*
G36*
X123559Y155701D02*
X122833D01*
Y154875*
X123559*
Y155701*
G37*
G36*
X137533Y155574D02*
X136651D01*
Y154693*
X136790Y154712*
X137037Y154814*
X137249Y154977*
X137412Y155189*
X137514Y155436*
X137533Y155574*
G37*
G36*
X120718Y158868D02*
X120141D01*
Y158241*
X120718*
Y158868*
G37*
G36*
Y164845D02*
X120141D01*
Y164219*
X120718*
Y164845*
G37*
G36*
X119887D02*
X119310D01*
Y164219*
X119887*
Y164845*
G37*
G36*
Y165726D02*
X119310D01*
Y165099*
X119887*
Y165726*
G37*
G36*
Y167104D02*
X119303D01*
Y166843*
X119332Y166700*
X119413Y166579*
X119534Y166498*
X119677Y166469*
X119887*
Y167104*
G37*
G36*
X120718Y165726D02*
X120141D01*
Y165099*
X120718*
Y165726*
G37*
G36*
X127507Y163439D02*
X127402Y163426D01*
X127186Y163336*
X127000Y163194*
X126858Y163008*
X126768Y162792*
X126755Y162686*
X127507*
Y163439*
G37*
G36*
X120726Y160246D02*
X120141D01*
Y159611*
X120352*
X120495Y159640*
X120616Y159721*
X120697Y159842*
X120726Y159985*
Y160246*
G37*
G36*
X119887D02*
X119303D01*
Y159985*
X119332Y159842*
X119413Y159721*
X119534Y159640*
X119677Y159611*
X119887*
Y160246*
G37*
G36*
Y161134D02*
X119677D01*
X119534Y161105*
X119413Y161024*
X119332Y160903*
X119303Y160760*
Y160500*
X119887*
Y161134*
G37*
G36*
X127507Y162432D02*
X126755D01*
X126768Y162327*
X126858Y162111*
X127000Y161925*
X127186Y161783*
X127402Y161693*
X127507Y161680*
Y162432*
G37*
G36*
X120352Y161134D02*
X120141D01*
Y160500*
X120726*
Y160760*
X120697Y160903*
X120616Y161024*
X120495Y161105*
X120352Y161134*
G37*
%LNfilm_top-4*%
%LPC*%
G54D21*
X119993Y126083D02*
Y130682D01*
X120014Y130704D01*
Y132941D01*
Y137540D01*
Y139799D01*
Y142239D01*
Y144398D01*
Y142239D02*
X127634D01*
X120014Y144398D02*
Y146657D01*
Y149224D01*
Y151256D01*
Y153515D01*
Y155574D01*
X120268Y155828D01*
X120014Y156082D02*
Y158114D01*
Y156082D02*
D01*
Y158114D02*
Y160373D01*
Y162673D01*
Y164972D01*
Y162673D02*
X120128Y162559D01*
X120014Y164972D02*
Y167231D01*
Y171830D01*
Y174089D01*
Y176402D01*
Y178688D01*
Y156082D02*
X120268Y155828D01*
X120128Y162559D02*
X127634D01*
X120268Y155828D02*
X123687D01*
X121792Y126083D02*
X127356D01*
X121792Y130682D02*
X125094D01*
X121814Y132941D02*
X127356D01*
X121814Y137540D02*
X125094D01*
X121814Y139799D02*
X127356D01*
X121814Y144398D02*
X125094D01*
X121814Y146657D02*
X127356D01*
X121814Y151256D02*
X127359D01*
X121814Y153515D02*
X127356D01*
X121814Y158114D02*
X125094D01*
X121814Y160373D02*
X127331D01*
X121814Y164972D02*
X125094D01*
X121814Y167231D02*
X127356D01*
X121814Y171830D02*
X125094D01*
X121814Y174089D02*
X127356D01*
X121814Y178688D02*
X125094D01*
Y130682D02*
X127359D01*
X125094Y137540D02*
X127359D01*
X125094Y144398D02*
X127359D01*
X125094Y158114D02*
X127359D01*
X125094Y164972D02*
X127359D01*
X125094Y171830D02*
X127359D01*
X125094Y178688D02*
X127359D01*
G54D22*
X125486Y155828D02*
X129146D01*
G54D21*
X127331Y160373D02*
X127359Y160400D01*
X127356Y126083D02*
X127359Y126085D01*
X127356Y132941D02*
X127359Y132943D01*
X127356Y139799D02*
X127359Y139801D01*
X127356Y146657D02*
X127359Y146659D01*
X127356Y153515D02*
X127359Y153517D01*
X127356Y167231D02*
X127359Y167233D01*
X127356Y174089D02*
X127359Y174091D01*
Y150076D02*
Y151256D01*
Y150076D02*
X127789Y149097D01*
G54D22*
X129146Y155828D02*
X129158Y155816D01*
Y126085D02*
Y130682D01*
Y132943D01*
Y137540D01*
Y139801D01*
Y141640D01*
G54D21*
X129158Y141640D02*
Y141985D01*
G54D22*
X129158Y141985D02*
Y144398D01*
Y146659D01*
Y151256D01*
Y153517D01*
Y155816D01*
Y158114D01*
Y155816D02*
X132600D01*
X129158Y158114D02*
Y160400D01*
Y164972D01*
Y167233D01*
Y171830D01*
Y174091D01*
Y178688D01*
X132600Y155816D02*
X134340Y157556D01*
X137464D01*
X139115Y155905D01*
G54D21*
X139115Y155905D02*
X139268Y156057D01*
G54D18*
X119993Y126083D03*
G54D19*
X119993Y130682D03*
G54D18*
X120014Y132941D03*
G54D19*
X120014Y137540D03*
G54D18*
X120014Y139799D03*
G54D19*
X120014Y144398D03*
G54D18*
X120014Y146657D03*
G54D19*
X120014Y151256D03*
G54D18*
X120014Y153515D03*
G54D19*
X120014Y158114D03*
G54D18*
X120014Y160373D03*
G54D19*
X120014Y164972D03*
G54D18*
X120014Y167231D03*
G54D19*
X120014Y171830D03*
G54D18*
X120014Y174089D03*
G54D19*
X120014Y178688D03*
G54D23*
X120053Y155828D03*
G54D19*
X121792Y126083D03*
Y130682D03*
X121814Y132941D03*
Y137540D03*
Y139799D03*
Y144398D03*
Y146657D03*
Y151256D03*
Y153515D03*
Y158114D03*
Y160373D03*
Y164972D03*
Y167231D03*
Y171830D03*
Y174089D03*
Y178688D03*
G54D20*
X123687Y155828D03*
X125486D03*
X127359Y126085D03*
Y130682D03*
Y132943D03*
Y137540D03*
Y139801D03*
Y144398D03*
Y146659D03*
Y151256D03*
Y153517D03*
Y158114D03*
Y160400D03*
Y164972D03*
Y167233D03*
Y171830D03*
Y174091D03*
Y178688D03*
G54D24*
X127789Y149097D03*
G54D20*
X129158Y126085D03*
Y130682D03*
Y132943D03*
Y137540D03*
Y139801D03*
Y144398D03*
Y146659D03*
Y151256D03*
Y153517D03*
Y158114D03*
Y160400D03*
Y164972D03*
Y167233D03*
Y171830D03*
Y174091D03*
Y178688D03*
G54D24*
X136524Y150621D03*
Y153161D03*
Y155701D03*
X139064Y150621D03*
Y153161D03*
G54D25*
X139064Y155701D03*
G54D26*
X120014Y149224D03*
Y176402D03*
G54D27*
X121284Y106425D03*
Y198373D03*
G54D26*
X125094Y130682D03*
Y137540D03*
Y144398D03*
Y158114D03*
Y164972D03*
Y171830D03*
Y178688D03*
X127634Y142239D03*
Y162559D03*
X129158Y155816D03*
M02*