%FSDAX33Y33*%
%MOMM*%
%SFA1B1*%

%IPPOS*%
%AMD1002*
%
%ADD21C,0.254000*%
%ADD22C,0.508000*%
%ADD24C,1.500000*%
%ADD25R,1.500000X1.500000*%
%ADD26C,1.270000*%
%ADD27C,6.096000*%
%ADD30O,0.599999X2.200001*%
%LNfilm_bottom-1*%
%LPD*%
G36*
X050799Y126999D02*
X000000D01*
Y000000*
X050799*
Y126999*
G37*
%LNfilm_bottom-2*%
%LPC*%
G36*
X009524Y006349D02*
X041274D01*
Y120649*
X009524*
Y006349*
G37*
%LNfilm_bottom-3*%
%LPD*%
G36*
X030733Y059416D02*
X030950Y059373D01*
X031133Y059251*
X031255Y059068*
X031298Y058851*
Y057251*
X031255Y057035*
X031133Y056852*
X030950Y056730*
X030733Y056687*
X030517Y056730*
X030334Y056852*
X030212Y057035*
X030169Y057251*
Y058851*
X030212Y059068*
X030334Y059251*
X030517Y059373*
X030733Y059416*
G37*
G36*
X024637Y054219D02*
Y053466D01*
X023885*
X023898Y053572*
X023988Y053788*
X024130Y053974*
X024316Y054116*
X024532Y054206*
X024637Y054219*
G37*
G36*
X024891D02*
X024997Y054206D01*
X025213Y054116*
X025399Y053974*
X025541Y053788*
X025631Y053572*
X025644Y053466*
X024891*
Y054219*
G37*
G36*
X032130Y057924D02*
X032568D01*
Y057251*
X032525Y057035*
X032403Y056852*
X032220Y056730*
X032130Y056712*
Y057924*
G37*
G36*
X031505Y060197D02*
X033264D01*
X033251Y060092*
X033161Y059876*
X033019Y059690*
X032833Y059548*
X032617Y059458*
X032384Y059428*
X032355Y059432*
X032310Y059313*
X032403Y059251*
X032525Y059068*
X032568Y058851*
Y058178*
X031439*
Y058851*
X031482Y059068*
X031604Y059251*
X031787Y059373*
X031958Y059407*
X031971Y059534*
X031936Y059548*
X031750Y059690*
X031608Y059876*
X031518Y060092*
X031505Y060197*
G37*
G36*
X029590Y057924D02*
X030028D01*
Y057251*
X029985Y057035*
X029863Y056852*
X029680Y056730*
X029590Y056712*
Y057924*
G37*
G36*
X031439D02*
X031876D01*
Y056712*
X031787Y056730*
X031604Y056852*
X031482Y057035*
X031439Y057251*
Y057924*
G37*
G36*
X031241Y020828D02*
X031633Y020797D01*
X032138Y020676*
X032618Y020477*
X033061Y020205*
X033457Y019868*
X033794Y019472*
X034066Y019029*
X034265Y018549*
X034386Y018044*
X034417Y017652*
X031241*
Y020828*
G37*
G36*
X027812Y017398D02*
X030987D01*
Y014223*
X030596Y014254*
X030091Y014375*
X029611Y014574*
X029168Y014846*
X028772Y015183*
X028435Y015579*
X028163Y016022*
X027964Y016502*
X027843Y017007*
X027812Y017398*
G37*
G36*
X031241D02*
X034417D01*
X034386Y017007*
X034265Y016502*
X034066Y016022*
X033794Y015579*
X033457Y015183*
X033061Y014846*
X032618Y014574*
X032138Y014375*
X031633Y014254*
X031241Y014223*
Y017398*
G37*
G36*
X030987Y020828D02*
Y017652D01*
X027812*
X027843Y018044*
X027964Y018549*
X028163Y019029*
X028435Y019472*
X028772Y019868*
X029168Y020205*
X029611Y020477*
X030091Y020676*
X030596Y020797*
X030987Y020828*
G37*
G36*
X023885Y053212D02*
X024637D01*
Y052460*
X024532Y052473*
X024316Y052563*
X024130Y052705*
X023988Y052891*
X023898Y053107*
X023885Y053212*
G37*
G36*
X024891D02*
X025644D01*
X025631Y053107*
X025541Y052891*
X025399Y052705*
X025213Y052563*
X024997Y052473*
X024891Y052460*
Y053212*
G37*
G36*
X032003Y064216D02*
X032220Y064173D01*
X032403Y064051*
X032525Y063868*
X032568Y063651*
Y062836*
X034574Y060830*
X034658Y060704*
X034688Y060555*
Y056350*
Y056349*
X034658Y056201*
X034574Y056075*
X032013Y053514*
Y043350*
Y043349*
X031983Y043201*
X031899Y043075*
X028674Y039850*
Y039850*
X028548Y039766*
X028399Y039736*
X026699*
X026551Y039766*
X026425Y039850*
X013060Y053215*
X012976Y053341*
X012971Y053365*
X012946Y053489*
Y060796*
X012828Y060844*
X012618Y061005*
X012457Y061215*
X012356Y061459*
X012322Y061721*
X012356Y061984*
X012457Y062228*
X012618Y062438*
X012828Y062598*
X013072Y062700*
X013334Y062734*
X013597Y062700*
X013841Y062598*
X014051Y062438*
X014211Y062228*
X014313Y061984*
X014347Y061721*
X014313Y061459*
X014211Y061215*
X014051Y061005*
X013841Y060844*
X013723Y060796*
Y053650*
X026860Y040513*
X028239*
X031236Y043510*
Y053674*
X031266Y053823*
X031350Y053949*
X033911Y056510*
Y060395*
X032574Y061732*
X032448Y061719*
X032403Y061652*
X032220Y061530*
X032003Y061487*
X031787Y061530*
X031604Y061652*
X031482Y061835*
X031439Y062051*
Y063651*
X031482Y063868*
X031604Y064051*
X031787Y064173*
X032003Y064216*
G37*
G36*
X029590Y059391D02*
X029680Y059373D01*
X029863Y059251*
X029985Y059068*
X030028Y058851*
Y058178*
X029590*
Y059391*
G37*
G36*
X032257Y088382D02*
Y087629D01*
X031505*
X031518Y087735*
X031608Y087951*
X031750Y088137*
X031936Y088279*
X032152Y088369*
X032257Y088382*
G37*
G36*
X032511D02*
X032617Y088369D01*
X032833Y088279*
X033019Y088137*
X033161Y087951*
X033251Y087735*
X033264Y087629*
X032511*
Y088382*
G37*
G36*
X031505Y087375D02*
X032257D01*
Y086623*
X032152Y086636*
X031936Y086726*
X031750Y086868*
X031608Y087054*
X031518Y087270*
X031505Y087375*
G37*
G36*
X031241Y109346D02*
X034417D01*
X034386Y108955*
X034265Y108450*
X034066Y107970*
X033794Y107527*
X033457Y107131*
X033061Y106794*
X032618Y106522*
X032138Y106323*
X031633Y106202*
X031241Y106171*
Y109346*
G37*
G36*
X030987Y112776D02*
Y109600D01*
X027812*
X027843Y109992*
X027964Y110497*
X028163Y110977*
X028435Y111420*
X028772Y111816*
X029168Y112153*
X029611Y112425*
X030091Y112624*
X030596Y112745*
X030987Y112776*
G37*
G36*
X031241D02*
X031633Y112745D01*
X032138Y112624*
X032618Y112425*
X033061Y112153*
X033457Y111816*
X033794Y111420*
X034066Y110977*
X034265Y110497*
X034386Y109992*
X034417Y109600*
X031241*
Y112776*
G37*
G36*
X027812Y109346D02*
X030987D01*
Y106171*
X030596Y106202*
X030091Y106323*
X029611Y106522*
X029168Y106794*
X028772Y107131*
X028435Y107527*
X028163Y107970*
X027964Y108450*
X027843Y108955*
X027812Y109346*
G37*
G36*
X032257Y061204D02*
Y060451D01*
X031505*
X031518Y060557*
X031608Y060773*
X031750Y060959*
X031936Y061101*
X032152Y061191*
X032257Y061204*
G37*
G36*
X032511D02*
X032617Y061191D01*
X032833Y061101*
X033019Y060959*
X033161Y060773*
X033251Y060557*
X033264Y060451*
X032511*
Y061204*
G37*
G36*
X029336Y059391D02*
Y058178D01*
X028899*
Y058851*
X028942Y059068*
X029064Y059251*
X029247Y059373*
X029336Y059391*
G37*
G36*
X025599Y091913D02*
X028574D01*
X028723Y091883*
X028849Y091799*
X030331Y090317*
X030416Y090191*
X030445Y090042*
Y068586*
X030559Y068530*
X030624Y068580*
X030841Y068669*
X031073Y068700*
X031305Y068669*
X031521Y068580*
X031707Y068437*
X031849Y068251*
X031939Y068035*
X031969Y067803*
X031939Y067571*
X031849Y067355*
X031707Y067169*
X031521Y067027*
X031463Y067002*
Y065749*
X031433Y065601*
X031349Y065475*
X031122Y065248*
Y064058*
X031133Y064051*
X031255Y063868*
X031298Y063651*
Y062051*
X031255Y061835*
X031133Y061652*
X030950Y061530*
X030733Y061487*
X030517Y061530*
X030334Y061652*
X030212Y061835*
X030169Y062051*
Y063651*
X030212Y063868*
X030334Y064051*
X030345Y064058*
Y065408*
X030375Y065557*
X030459Y065683*
X030686Y065910*
Y067001*
X030624Y067027*
X030559Y067077*
X030445Y067020*
Y066932*
X030416Y066783*
X030331Y066657*
X029852Y066178*
Y064058*
X029863Y064051*
X029985Y063868*
X030028Y063651*
Y062051*
X029985Y061835*
X029863Y061652*
X029680Y061530*
X029463Y061487*
X029247Y061530*
X029064Y061652*
X028942Y061835*
X028899Y062051*
Y063651*
X028942Y063868*
X029064Y064051*
X029075Y064058*
Y066338*
X029105Y066487*
X029189Y066613*
X029668Y067093*
Y067714*
X029551Y067763*
X028582Y066794*
Y064058*
X028593Y064051*
X028715Y063868*
X028758Y063651*
Y062051*
X028715Y061835*
X028593Y061652*
X028410Y061530*
X028193Y061487*
X027977Y061530*
X027794Y061652*
X027672Y061835*
X027629Y062051*
Y063651*
X027672Y063868*
X027794Y064051*
X027805Y064058*
Y066715*
X027688Y066763*
X027312Y066388*
Y064058*
X027323Y064051*
X027445Y063868*
X027488Y063651*
Y062051*
X027445Y061835*
X027323Y061652*
X027140Y061530*
X026923Y061487*
X026707Y061530*
X026524Y061652*
X026402Y061835*
X026359Y062051*
Y063651*
X026402Y063868*
X026524Y064051*
X026535Y064058*
Y066270*
X026418Y066318*
X026042Y065943*
Y064058*
X026053Y064051*
X026175Y063868*
X026218Y063651*
Y062051*
X026175Y061835*
X026053Y061652*
X025870Y061530*
X025698Y061496*
X025661Y061374*
X026055Y060980*
X026139Y060854*
X026169Y060705*
Y059077*
X026175Y059068*
X026218Y058851*
Y057251*
X026175Y057035*
X026053Y056852*
X025870Y056730*
X025653Y056687*
X025437Y056730*
X025254Y056852*
X025132Y057035*
X025089Y057251*
Y058851*
X025132Y059068*
X025254Y059251*
X025392Y059343*
Y059537*
X025272Y059578*
X025261Y059563*
X025075Y059421*
X024859Y059331*
X024890Y059090*
X024905Y059068*
X024948Y058851*
Y057251*
X024905Y057035*
X024809Y056892*
X025814Y055887*
X026503*
X026528Y055947*
X026670Y056133*
X026856Y056275*
X027072Y056365*
X027154Y056375*
X027195Y056496*
X026990Y056700*
X026923Y056687*
X026707Y056730*
X026524Y056852*
X026402Y057035*
X026359Y057251*
Y058851*
X026402Y059068*
X026524Y059251*
X026707Y059373*
X026923Y059416*
X027140Y059373*
X027323Y059251*
X027445Y059068*
X027488Y058851*
Y057383*
X027594Y057312*
X027629Y057326*
Y058851*
X027672Y059068*
X027794Y059251*
X027977Y059373*
X028193Y059416*
X028410Y059373*
X028593Y059251*
X028715Y059068*
X028758Y058851*
Y057251*
X028718Y057048*
X028910Y056856*
X029008Y056936*
X028942Y057035*
X028899Y057251*
Y057924*
X029336*
Y056712*
X029247Y056730*
X029148Y056796*
X029068Y056698*
X029103Y056662*
X029187Y056536*
X029217Y056387*
Y043306*
X029217*
X029217*
X029187Y043158*
X029103Y043032*
X028146Y042074*
X028171Y042015*
X028201Y041782*
X028171Y041550*
X028081Y041334*
X027939Y041148*
X027753Y041006*
X027537Y040916*
X027304Y040886*
X027072Y040916*
X026856Y041006*
X026670Y041148*
X026528Y041334*
X026438Y041550*
X026408Y041782*
X026438Y042015*
X026528Y042231*
X026670Y042417*
X026856Y042559*
X027072Y042649*
X027304Y042679*
X027537Y042649*
X027596Y042624*
X028440Y043467*
Y049061*
X028323Y049109*
X028146Y048932*
X028171Y048873*
X028201Y048640*
X028171Y048408*
X028081Y048192*
X027939Y048006*
X027753Y047864*
X027537Y047774*
X027304Y047744*
X027072Y047774*
X026856Y047864*
X026670Y048006*
X026528Y048192*
X026438Y048408*
X026408Y048640*
X026438Y048873*
X026528Y049089*
X026670Y049275*
X026856Y049417*
X027072Y049507*
X027304Y049537*
X027537Y049507*
X027596Y049482*
X027932Y049817*
Y054716*
X027818Y054772*
X027753Y054722*
X027537Y054632*
X027304Y054602*
X027072Y054632*
X026856Y054722*
X026670Y054864*
X026528Y055050*
X026503Y055110*
X025653*
X025505Y055140*
X025379Y055224*
X024109Y056494*
X024025Y056620*
X023995Y056768*
X023995*
X023995Y056768*
Y056845*
X023984Y056852*
X023862Y057035*
X023819Y057251*
Y058851*
X023862Y059068*
X023984Y059251*
X024116Y059339*
X024120Y059466*
X023992Y059563*
X023922Y059568*
X023550Y059196*
X023635Y059068*
X023678Y058851*
Y057251*
X023635Y057035*
X023513Y056852*
X023330Y056730*
X023113Y056687*
X022897Y056730*
X022714Y056852*
X022592Y057035*
X022549Y057251*
Y058851*
X022592Y059068*
X022714Y059251*
X022725Y059258*
Y059308*
X022755Y059457*
X022839Y059583*
X023728Y060472*
X023797Y060519*
X023850Y060646*
X023992Y060832*
X024013Y060848*
X023973Y060968*
X016542*
X016381Y060844*
X016137Y060743*
X015874Y060709*
X015612Y060743*
X015368Y060844*
X015158Y061005*
X014997Y061215*
X014896Y061459*
X014862Y061721*
X014896Y061984*
X014997Y062228*
X015158Y062438*
X015368Y062598*
X015612Y062700*
X015874Y062734*
X016137Y062700*
X016381Y062598*
X016591Y062438*
X016751Y062228*
X016853Y061984*
X016884Y061745*
X022510*
X022590Y061843*
X022549Y062051*
Y063651*
X022592Y063868*
X022596Y063873*
Y066296*
X022464Y066467*
X022374Y066684*
X022344Y066916*
X022374Y067148*
X022464Y067364*
X022606Y067550*
X022792Y067692*
X023008Y067782*
X023240Y067812*
X023473Y067782*
X023689Y067692*
X023875Y067550*
X024017Y067364*
X024107Y067148*
X024137Y066916*
X024117Y066761*
X024231Y066705*
X026208Y068682*
X026253Y068712*
X026463Y068923*
X026438Y068982*
X026408Y069214*
X026438Y069447*
X026528Y069663*
X026670Y069849*
X026856Y069991*
X027072Y070081*
X027304Y070111*
X027537Y070081*
X027753Y069991*
X027775Y069974*
X027888Y070031*
Y072313*
X027764Y072338*
X027676Y072126*
X027534Y071940*
X027348Y071798*
X027132Y071708*
X026899Y071678*
X026667Y071708*
X026501Y071777*
X018711Y063987*
X018585Y063903*
X018436Y063873*
X016800*
X016751Y063755*
X016591Y063545*
X016381Y063384*
X016137Y063283*
X015874Y063249*
X015612Y063283*
X015368Y063384*
X015158Y063545*
X014997Y063755*
X014896Y063999*
X014862Y064261*
X014896Y064524*
X014997Y064768*
X015158Y064978*
X015225Y065028*
X015184Y065149*
X014771*
X014264Y064641*
X014313Y064524*
X014347Y064261*
X014313Y063999*
X014211Y063755*
X014051Y063545*
X013841Y063384*
X013597Y063283*
X013334Y063249*
X013072Y063283*
X012828Y063384*
X012618Y063545*
X012457Y063755*
X012356Y063999*
X012322Y064261*
X012356Y064524*
X012457Y064768*
X012618Y064978*
X012828Y065138*
X013072Y065240*
X013334Y065274*
X013597Y065240*
X013714Y065191*
X014204Y065680*
X014155Y065797*
X012330*
Y067805*
X014338*
Y065949*
X014450Y065889*
X014461Y065896*
X014610Y065925*
X015169*
X015210Y066046*
X015158Y066085*
X014997Y066295*
X014896Y066539*
X014879Y066674*
X016870*
X016853Y066539*
X016751Y066295*
X016591Y066085*
X016539Y066046*
X016580Y065925*
X017401*
X022911Y071435*
Y089224*
X022941Y089373*
X023025Y089499*
X025325Y091799*
X025451Y091883*
X025599Y091913*
G37*
G36*
X032511Y087375D02*
X033264D01*
X033251Y087270*
X033161Y087054*
X033019Y086868*
X032833Y086726*
X032617Y086636*
X032511Y086623*
Y087375*
G37*
G36*
X015747Y067797D02*
Y066928D01*
X014879*
X014896Y067064*
X014997Y067308*
X015158Y067518*
X015368Y067678*
X015612Y067780*
X015747Y067797*
G37*
G36*
X016001D02*
X016137Y067780D01*
X016381Y067678*
X016591Y067518*
X016751Y067308*
X016853Y067064*
X016870Y066928*
X016001*
Y067797*
G37*
%LNfilm_bottom-4*%
%LPC*%
G36*
X023688Y089064D02*
Y071274D01*
X023658Y071126*
X023574Y071000*
X017837Y065262*
X017711Y065178*
X017562Y065149*
X016565*
X016524Y065028*
X016591Y064978*
X016751Y064768*
X016800Y064650*
X018276*
X026026Y072400*
X026003Y072574*
X026033Y072807*
X026123Y073023*
X026265Y073209*
X026451Y073351*
X026667Y073441*
X026899Y073471*
X027132Y073441*
X027348Y073351*
X027534Y073209*
X027676Y073023*
X027764Y072811*
X027888Y072835*
Y074939*
X027596Y075231*
X027537Y075206*
X027304Y075176*
X027072Y075206*
X026856Y075296*
X026670Y075438*
X026528Y075624*
X026438Y075840*
X026408Y076072*
X026438Y076305*
X026528Y076521*
X026670Y076707*
X026856Y076849*
X027072Y076939*
X027304Y076969*
X027537Y076939*
X027753Y076849*
X027939Y076707*
X028081Y076521*
X028171Y076305*
X028201Y076072*
X028171Y075840*
X028146Y075781*
X028323Y075604*
X028440Y075652*
Y081246*
X027596Y082089*
X027537Y082064*
X027304Y082034*
X027072Y082064*
X026856Y082154*
X026670Y082296*
X026528Y082482*
X026438Y082698*
X026408Y082930*
X026438Y083163*
X026528Y083379*
X026670Y083565*
X026856Y083707*
X027072Y083797*
X027304Y083827*
X027537Y083797*
X027753Y083707*
X027939Y083565*
X028081Y083379*
X028171Y083163*
X028201Y082930*
X028171Y082698*
X028146Y082639*
X028831Y081954*
X028948Y082002*
Y087596*
X027596Y088947*
X027537Y088922*
X027304Y088892*
X027072Y088922*
X026856Y089012*
X026670Y089154*
X026528Y089340*
X026438Y089556*
X026408Y089788*
X026438Y090021*
X026528Y090237*
X026670Y090423*
X026856Y090565*
X027072Y090655*
X027304Y090685*
X027537Y090655*
X027753Y090565*
X027939Y090423*
X028081Y090237*
X028171Y090021*
X028201Y089788*
X028171Y089556*
X028146Y089497*
X029551Y088091*
X029668Y088140*
Y089881*
X028414Y091136*
X025760*
X023688Y089064*
G37*
G36*
X026757Y068118D02*
X026712Y068088D01*
X024772Y066148*
Y064058*
X024783Y064051*
X024905Y063868*
X024948Y063651*
Y062051*
X024907Y061843*
X024987Y061745*
X024996*
X025114Y061824*
X025130Y061843*
X025089Y062051*
Y063651*
X025132Y063868*
X025254Y064051*
X025265Y064058*
Y066103*
X025295Y066252*
X025379Y066378*
X026811Y067811*
X026858Y067880*
X027195Y068217*
X027154Y068338*
X027072Y068348*
X027013Y068373*
X026757Y068118*
G37*
%LNfilm_bottom-5*%
%LPD*%
G36*
X023885Y073532D02*
X024637D01*
Y072780*
X024532Y072793*
X024316Y072883*
X024130Y073025*
X023988Y073211*
X023898Y073427*
X023885Y073532*
G37*
G36*
X024891D02*
X025644D01*
X025631Y073427*
X025541Y073211*
X025399Y073025*
X025213Y072883*
X024997Y072793*
X024891Y072780*
Y073532*
G37*
G36*
X024637Y074539D02*
Y073786D01*
X023885*
X023898Y073892*
X023988Y074108*
X024130Y074294*
X024316Y074436*
X024532Y074526*
X024637Y074539*
G37*
G36*
X024891D02*
X024997Y074526D01*
X025213Y074436*
X025399Y074294*
X025541Y074108*
X025631Y073892*
X025644Y073786*
X024891*
Y074539*
G37*
%LNfilm_bottom-6*%
%LPC*%
G54D21*
X034299Y056349D02*
Y060555D01*
Y056349D02*
X031624Y053674D01*
X034299Y060555D02*
X032003Y062851D01*
X032384Y060324D02*
X031876Y060832D01*
X031624Y043349D02*
Y053674D01*
Y043349D02*
X028399Y040124D01*
X031074Y065749D02*
Y067805D01*
Y065749D02*
X030733Y065408D01*
X031074Y067805D02*
X031073Y067803D01*
X030733Y062851D02*
Y065408D01*
X030057Y066932D02*
Y090042D01*
Y066932D02*
X029463Y066338D01*
X030057Y090042D02*
X028574Y091524D01*
X029463Y062851D02*
Y066338D01*
X029336Y068098D02*
Y087756D01*
Y068098D02*
X028193Y066955D01*
X029336Y087756D02*
X027304Y089788D01*
X028828Y043306D02*
Y056387D01*
Y043306D02*
X027304Y041782D01*
X028828Y056387D02*
X028193Y057022D01*
X028828Y068453D02*
Y081406D01*
Y068453D02*
X026923Y066548D01*
X028828Y081406D02*
X027304Y082930D01*
X028574Y091524D02*
X025599D01*
X028399Y040124D02*
X026699D01*
X028320Y049656D02*
Y055919D01*
Y049656D02*
X027304Y048640D01*
X028320Y055919D02*
X026923Y057316D01*
X028320Y068794D02*
Y069635D01*
Y068794D02*
X027132Y067606D01*
X028320Y069635D02*
X028277Y069679D01*
Y075100D01*
X027304Y076072D01*
X028193Y057022D02*
Y058051D01*
Y062851D02*
Y066955D01*
X027304Y055498D02*
X025653D01*
X027304Y069214D02*
X026482Y068392D01*
X027132Y067582D02*
Y067606D01*
Y067582D02*
X025653Y066103D01*
X026923Y057316D02*
Y058051D01*
Y062851D02*
Y066548D01*
X026899Y072574D02*
X026749D01*
X018436Y064261D01*
X026699Y040124D02*
X013334Y053489D01*
X026482Y068392D02*
Y068407D01*
X024383Y066308D01*
X025780Y058165D02*
Y060705D01*
X025130Y061356D01*
X025653Y055498D02*
X024383Y056768D01*
X025653Y062851D02*
Y066103D01*
X025599Y091524D02*
X023299Y089224D01*
X025130Y061356D02*
X016240D01*
X024626Y060197D02*
X024002D01*
X024383Y056768D02*
Y058051D01*
Y062851D02*
Y066308D01*
X024002Y060197D02*
X023113Y059308D01*
X023299Y071274D02*
Y089224D01*
Y071274D02*
X017562Y065537D01*
X023240Y066916D02*
X023113Y066789D01*
Y058051D02*
Y059308D01*
G54D22*
X023113Y062851D02*
Y066789D01*
G54D21*
X018436Y064261D02*
X015874D01*
X017562Y065537D02*
X014610D01*
X016240Y061356D02*
X015874Y061721D01*
X014610Y065537D02*
X013334Y064261D01*
Y053489D02*
Y061721D01*
G54D30*
X032003Y058051D03*
Y062851D03*
X030733Y058051D03*
Y062851D03*
X029463Y058051D03*
Y062851D03*
X028193Y058051D03*
Y062851D03*
X026923Y058051D03*
Y062851D03*
X025653Y058051D03*
Y062851D03*
X024383Y058051D03*
Y062851D03*
X023113Y058051D03*
Y062851D03*
G54D24*
X015874Y061721D03*
Y064261D03*
Y066801D03*
X013334Y061721D03*
Y064261D03*
G54D25*
X013334Y066801D03*
G54D26*
X032384Y060324D03*
Y087502D03*
G54D27*
X031114Y017525D03*
Y109473D03*
G54D26*
X031073Y067803D03*
X027304Y041782D03*
Y048640D03*
Y055498D03*
Y069214D03*
Y076072D03*
Y082930D03*
Y089788D03*
X026899Y072574D03*
X024764Y053339D03*
Y073659D03*
X024626Y060197D03*
X023240Y066916D03*
M02*