%FSDAX33Y33*%
%MOMM*%
%SFA1B1*%

%IPPOS*%
%AMD1002*
%
%ADD21C,0.254000*%
%ADD22C,0.508000*%
%ADD24C,1.524000*%
%ADD25R,1.524000X1.524000*%
%ADD26C,1.270000*%
%ADD27C,6.096000*%
%ADD28O,0.599999X2.200001*%
%LNfilm_bottom-1*%
%LPD*%
G36*
X050799Y126999D02*
X000000D01*
Y000000*
X050799*
Y126999*
G37*
%LNfilm_bottom-2*%
%LPC*%
G54D21*
X036204Y056349D02*
Y060555D01*
Y056349D02*
X033529Y053674D01*
X036204Y060555D02*
X033908Y062851D01*
X034289Y060324D02*
X033781Y060832D01*
X033529Y043349D02*
Y053674D01*
Y043349D02*
X030304Y040124D01*
X032979Y065749D02*
Y067805D01*
Y065749D02*
X032638Y065408D01*
X032979Y067805D02*
X032978Y067803D01*
X032638Y062851D02*
Y065408D01*
X031962Y066932D02*
Y090042D01*
Y066932D02*
X031368Y066338D01*
X031962Y090042D02*
X030479Y091524D01*
X031368Y062851D02*
Y066338D01*
X031241Y068098D02*
Y087756D01*
Y068098D02*
X030098Y066955D01*
X031241Y087756D02*
X029209Y089788D01*
X030733Y043306D02*
Y056387D01*
Y043306D02*
X029209Y041782D01*
X030733Y056387D02*
X030098Y057022D01*
X030733Y068453D02*
Y081406D01*
Y068453D02*
X028828Y066548D01*
X030733Y081406D02*
X029209Y082930D01*
X030479Y091524D02*
X027504D01*
X030304Y040124D02*
X028604D01*
X030225Y049656D02*
Y055919D01*
Y049656D02*
X029209Y048640D01*
X030225Y055919D02*
X028828Y057316D01*
X030225Y068794D02*
Y069635D01*
Y068794D02*
X029037Y067606D01*
X030225Y069635D02*
X030182Y069679D01*
Y075100D01*
X029209Y076072D01*
X030098Y057022D02*
Y058051D01*
Y062851D02*
Y066955D01*
X029209Y055498D02*
X027558D01*
X029209Y069214D02*
X028387Y068392D01*
X029037Y067582D02*
Y067606D01*
Y067582D02*
X027558Y066103D01*
X028828Y057316D02*
Y058051D01*
Y062851D02*
Y066548D01*
X028804Y072574D02*
X028654D01*
X020341Y064261D01*
X028604Y040124D02*
X015239Y053489D01*
X028387Y068392D02*
Y068407D01*
X026288Y066308D01*
X027685Y058165D02*
Y060705D01*
X027035Y061356D01*
X027558Y055498D02*
X026288Y056768D01*
X027558Y062851D02*
Y066103D01*
X027504Y091524D02*
X025204Y089224D01*
X027035Y061356D02*
X018145D01*
X026515Y060197D02*
X025907D01*
X026288Y056768D02*
Y058051D01*
Y062851D02*
Y066308D01*
X025907Y060197D02*
X025018Y059308D01*
X025204Y071274D02*
Y089224D01*
Y071274D02*
X019467Y065537D01*
X025145Y066916D02*
X025018Y066789D01*
Y058051D02*
Y059308D01*
G54D22*
X025018Y062851D02*
Y066789D01*
G54D21*
X020341Y064261D02*
X017779D01*
X019467Y065537D02*
X016515D01*
X018145Y061356D02*
X017779Y061721D01*
X016515Y065537D02*
X015239Y064261D01*
Y053489D02*
Y061721D01*
G54D28*
X033908Y058051D03*
Y062851D03*
X032638Y058051D03*
Y062851D03*
X031368Y058051D03*
Y062851D03*
X030098Y058051D03*
Y062851D03*
X028828Y058051D03*
Y062851D03*
X027558Y058051D03*
Y062851D03*
G54D24*
X026515Y060197D03*
G54D28*
X026288Y058051D03*
Y062851D03*
X025018Y058051D03*
Y062851D03*
G54D24*
X017779Y061721D03*
Y064261D03*
Y066801D03*
X015239Y061721D03*
Y064261D03*
G54D25*
X015239Y066801D03*
G54D26*
X034289Y060324D03*
Y087502D03*
G54D27*
X033019Y017525D03*
Y109473D03*
G54D26*
X032978Y067803D03*
X029209Y041782D03*
Y048640D03*
Y055498D03*
Y069214D03*
Y076072D03*
Y082930D03*
Y089788D03*
X028804Y072574D03*
X026669Y053339D03*
Y073659D03*
X025145Y066916D03*
M02*