%FSDAX33Y33*%
%MOMM*%
%SFA1B1*%

%IPPOS*%
%AMD1002*
%
%ADD21C,0.254000*%
%ADD22C,0.508000*%
%ADD24C,1.524000*%
%ADD25R,1.524000X1.524000*%
%ADD26C,1.270000*%
%ADD27C,6.096000*%
%ADD30O,0.349999X1.599999*%
%ADD31R,0.349999X1.599999*%
%ADD32R,0.472539X0.406400*%
%ADD33R,1.016000X0.330200*%
%LNfilm_bot-1*%
%LPD*%
G36*
X253999Y304799D02*
X000000D01*
Y000000*
X253999*
Y304799*
G37*
%LNfilm_bot-2*%
%LPC*%
G36*
X111124Y095249D02*
X142874D01*
Y209549*
X111124*
Y095249*
G37*
%LNfilm_bot-3*%
%LPD*%
G36*
X132203Y149699D02*
X132514D01*
Y149201*
X132481Y149034*
X132386Y148892*
X132244Y148797*
X132203Y148789*
Y149699*
G37*
G36*
X133105Y149097D02*
X133857D01*
Y148345*
X133752Y148358*
X133536Y148448*
X133350Y148590*
X133208Y148776*
X133118Y148992*
X133105Y149097*
G37*
G36*
X134111D02*
X134864D01*
X134851Y148992*
X134761Y148776*
X134619Y148590*
X134433Y148448*
X134217Y148358*
X134111Y148345*
Y149097*
G37*
G36*
Y150104D02*
X134217Y150091D01*
X134433Y150001*
X134619Y149859*
X134761Y149673*
X134851Y149457*
X134864Y149351*
X134111*
Y150104*
G37*
G36*
X131426Y150889D02*
X131594Y150856D01*
X131736Y150761*
X131767*
X131909Y150856*
X131949Y150864*
Y149826*
Y148789*
X131909Y148797*
X131767Y148892*
X131736*
X131594Y148797*
X131426Y148764*
X131259Y148797*
X131117Y148892*
X131086*
X130944Y148797*
X130903Y148789*
Y149826*
Y150864*
X130944Y150856*
X131086Y150761*
X131117*
X131259Y150856*
X131426Y150889*
G37*
G36*
X132203Y150864D02*
X132244Y150856D01*
X132386Y150761*
X132481Y150619*
X132514Y150451*
Y149953*
X132203*
Y150864*
G37*
G36*
X133857Y150104D02*
Y149351D01*
X133105*
X133118Y149457*
X133208Y149673*
X133350Y149859*
X133536Y150001*
X133752Y150091*
X133857Y150104*
G37*
G36*
X126237Y143119D02*
Y142366D01*
X125485*
X125498Y142472*
X125588Y142688*
X125730Y142874*
X125916Y143016*
X126132Y143106*
X126237Y143119*
G37*
G36*
X132841Y109728D02*
X133233Y109697D01*
X133738Y109576*
X134218Y109377*
X134661Y109105*
X135057Y108768*
X135394Y108372*
X135666Y107929*
X135865Y107449*
X135986Y106944*
X136017Y106552*
X132841*
Y109728*
G37*
G36*
X129412Y106298D02*
X132587D01*
Y103123*
X132196Y103154*
X131691Y103275*
X131211Y103474*
X130768Y103746*
X130372Y104083*
X130035Y104479*
X129763Y104922*
X129564Y105402*
X129443Y105907*
X129412Y106298*
G37*
G36*
X132841D02*
X136017D01*
X135986Y105907*
X135865Y105402*
X135666Y104922*
X135394Y104479*
X135057Y104083*
X134661Y103746*
X134218Y103474*
X133738Y103275*
X133233Y103154*
X132841Y103123*
Y106298*
G37*
G36*
X132587Y109728D02*
Y106552D01*
X129412*
X129443Y106944*
X129564Y107449*
X129763Y107929*
X130035Y108372*
X130372Y108768*
X130768Y109105*
X131211Y109377*
X131691Y109576*
X132196Y109697*
X132587Y109728*
G37*
G36*
X126491Y143119D02*
X126597Y143106D01*
X126813Y143016*
X126999Y142874*
X127141Y142688*
X127231Y142472*
X127244Y142366*
X126491*
Y143119*
G37*
G36*
X125485Y142112D02*
X126237D01*
Y141360*
X126132Y141373*
X125916Y141463*
X125730Y141605*
X125588Y141791*
X125498Y142007*
X125485Y142112*
G37*
G36*
X126491D02*
X127244D01*
X127231Y142007*
X127141Y141791*
X126999Y141605*
X126813Y141463*
X126597Y141373*
X126491Y141360*
Y142112*
G37*
G36*
X128904Y179585D02*
X129137Y179555D01*
X129353Y179465*
X129539Y179323*
X129681Y179137*
X129771Y178921*
X129801Y178688*
X129771Y178456*
X129746Y178397*
X131211Y176931*
X131295Y176805*
X131325Y176656*
Y156998*
X131295Y156849*
X131211Y156723*
X131067Y156579*
X131088Y156442*
X131177Y156401*
X131259Y156456*
X131426Y156489*
X131594Y156456*
X131736Y156361*
X131767*
X131909Y156456*
X132076Y156489*
X132244Y156456*
X132386Y156361*
X132481Y156219*
X132514Y156051*
Y154801*
X132481Y154634*
X132386Y154492*
X132371Y154482*
Y154168*
X132341Y154019*
X132257Y153893*
X131225Y152861*
X131099Y152777*
X130950Y152747*
X128129*
X128081Y152630*
X129101Y151609*
X129185Y151483*
X129215Y151335*
Y150934*
X129342Y150862*
X129476Y150889*
X129644Y150856*
X129786Y150761*
X129817*
X129959Y150856*
X130126Y150889*
X130294Y150856*
X130352Y150817*
X130451Y150768*
X130551Y150817*
X130609Y150856*
X130649Y150864*
Y149826*
Y148789*
X130609Y148797*
X130551Y148836*
X130547Y148838*
X130421Y148770*
Y145587*
X130703Y145304*
X130787Y145178*
X130817Y145030*
Y132206*
X130787Y132058*
X130703Y131932*
X129746Y130974*
X129771Y130915*
X129801Y130682*
X129771Y130450*
X129681Y130234*
X129539Y130048*
X129353Y129906*
X129137Y129816*
X128904Y129786*
X128672Y129816*
X128456Y129906*
X128270Y130048*
X128128Y130234*
X128038Y130450*
X128008Y130682*
X128038Y130915*
X128128Y131131*
X128270Y131317*
X128456Y131459*
X128672Y131549*
X128904Y131579*
X129137Y131549*
X129196Y131524*
X130040Y132367*
Y137961*
X129923Y138009*
X129746Y137832*
X129771Y137773*
X129801Y137540*
X129771Y137308*
X129681Y137092*
X129539Y136906*
X129353Y136764*
X129137Y136674*
X128904Y136644*
X128672Y136674*
X128456Y136764*
X128270Y136906*
X128128Y137092*
X128038Y137308*
X128008Y137540*
X128038Y137773*
X128128Y137989*
X128270Y138175*
X128456Y138317*
X128672Y138407*
X128904Y138437*
X129137Y138407*
X129196Y138382*
X129532Y138717*
Y143616*
X129418Y143672*
X129353Y143622*
X129137Y143532*
X128904Y143502*
X128672Y143532*
X128456Y143622*
X128270Y143764*
X128128Y143950*
X128038Y144166*
X128008Y144398*
X128038Y144631*
X128063Y144690*
X127808Y144946*
X127724Y145072*
X127694Y145221*
Y148645*
X127634Y148762*
X127171*
X127098Y148585*
X126935Y148373*
X126723Y148210*
X126476Y148108*
X126210Y148073*
X125945Y148108*
X125698Y148210*
X125486Y148373*
X125323Y148585*
X125221Y148832*
X125186Y149097*
X125221Y149363*
X125323Y149610*
X125486Y149822*
X125698Y149985*
X125945Y150087*
X126210Y150122*
X126476Y150087*
X126723Y149985*
X126935Y149822*
X126970Y149820*
X127097Y149947*
Y150880*
X127955*
X128082Y150870*
X128176Y150889*
X128311Y150862*
X128438Y150934*
Y151174*
X127373Y152239*
X120995*
X119992Y151236*
X119866Y151152*
X119717Y151122*
X118524*
X118413Y151011*
X118464Y150887*
X118499Y150621*
X118464Y150356*
X118362Y150109*
X118199Y149897*
X117987Y149734*
X117740Y149632*
X117474Y149597*
X117209Y149632*
X116962Y149734*
X116750Y149897*
X116587Y150109*
X116485Y150356*
X116450Y150621*
X116485Y150887*
X116587Y151134*
X116750Y151346*
X116954Y151503*
X116955Y151516*
X116890Y151630*
X116492*
X115873Y151011*
X115924Y150887*
X115959Y150621*
X115924Y150356*
X115822Y150109*
X115659Y149897*
X115447Y149734*
X115200Y149632*
X114934Y149597*
X114669Y149632*
X114422Y149734*
X114210Y149897*
X114047Y150109*
X113945Y150356*
X113910Y150621*
X113945Y150887*
X114047Y151134*
X114210Y151346*
X114422Y151509*
X114669Y151611*
X114934Y151646*
X115200Y151611*
X115324Y151560*
X116057Y152293*
X116183Y152377*
X116331Y152407*
X116613*
X116675Y152534*
X116587Y152649*
X116485Y152896*
X116450Y153161*
X116485Y153427*
X116587Y153674*
X116675Y153789*
X116613Y153916*
X116238*
X115873Y153551*
X115924Y153427*
X115959Y153161*
X115924Y152896*
X115822Y152649*
X115659Y152437*
X115447Y152274*
X115200Y152172*
X114934Y152137*
X114669Y152172*
X114422Y152274*
X114210Y152437*
X114047Y152649*
X113945Y152896*
X113910Y153161*
X113945Y153427*
X114047Y153674*
X114210Y153886*
X114422Y154049*
X114669Y154151*
X114934Y154186*
X115200Y154151*
X115324Y154100*
X115782Y154558*
X115764Y154639*
X115733Y154685*
X113918*
Y156717*
X115950*
Y154797*
X116077Y154693*
X116890*
X116955Y154806*
X116954Y154820*
X116750Y154977*
X116587Y155189*
X116485Y155436*
X116466Y155574*
X117474*
X118483*
X118464Y155436*
X118362Y155189*
X118199Y154977*
X117995Y154820*
X117994Y154806*
X118059Y154693*
X126981*
X127083Y154795*
X127089Y154815*
Y154951*
X127066Y154966*
X126735Y155298*
X125564*
X125475Y155182*
X125289Y155039*
X125073Y154950*
X124840Y154919*
X124608Y154950*
X124392Y155039*
X124206Y155182*
X124064Y155367*
X123974Y155584*
X123944Y155816*
X123974Y156048*
X124064Y156264*
X124206Y156450*
X124392Y156592*
X124608Y156682*
X124840Y156712*
X125073Y156682*
X125289Y156592*
X125475Y156450*
X125564Y156334*
X126949*
X126949*
X127147Y156294*
X127165Y156283*
X127217Y156361*
X127359Y156456*
X127526Y156489*
X127567Y156481*
X127694Y156585*
Y157292*
X127724Y157441*
X127808Y157567*
X128063Y157823*
X128038Y157882*
X128008Y158114*
X128038Y158347*
X128128Y158563*
X128270Y158749*
X128456Y158891*
X128672Y158981*
X128904Y159011*
X129137Y158981*
X129353Y158891*
X129375Y158874*
X129488Y158931*
Y163839*
X129196Y164131*
X129137Y164106*
X128904Y164076*
X128672Y164106*
X128456Y164196*
X128270Y164338*
X128128Y164524*
X128038Y164740*
X128008Y164972*
X128038Y165205*
X128128Y165421*
X128270Y165607*
X128456Y165749*
X128672Y165839*
X128904Y165869*
X129137Y165839*
X129353Y165749*
X129539Y165607*
X129681Y165421*
X129771Y165205*
X129801Y164972*
X129771Y164740*
X129746Y164681*
X129923Y164504*
X130040Y164552*
Y170146*
X129196Y170989*
X129137Y170964*
X128904Y170934*
X128672Y170964*
X128456Y171054*
X128270Y171196*
X128128Y171382*
X128038Y171598*
X128008Y171830*
X128038Y172063*
X128128Y172279*
X128270Y172465*
X128456Y172607*
X128672Y172697*
X128904Y172727*
X129137Y172697*
X129353Y172607*
X129539Y172465*
X129681Y172279*
X129771Y172063*
X129801Y171830*
X129771Y171598*
X129746Y171539*
X130431Y170854*
X130548Y170902*
Y176496*
X129196Y177847*
X129137Y177822*
X128904Y177792*
X128672Y177822*
X128456Y177912*
X128270Y178054*
X128128Y178240*
X128038Y178456*
X128008Y178688*
X128038Y178921*
X128128Y179137*
X128270Y179323*
X128456Y179465*
X128672Y179555*
X128904Y179585*
G37*
G36*
X133857Y177282D02*
Y176529D01*
X133105*
X133118Y176635*
X133208Y176851*
X133350Y177037*
X133536Y177179*
X133752Y177269*
X133857Y177282*
G37*
G36*
X134111D02*
X134217Y177269D01*
X134433Y177179*
X134619Y177037*
X134761Y176851*
X134851Y176635*
X134864Y176529*
X134111*
Y177282*
G37*
G36*
X132841Y198246D02*
X136017D01*
X135986Y197855*
X135865Y197350*
X135666Y196870*
X135394Y196427*
X135057Y196031*
X134661Y195694*
X134218Y195422*
X133738Y195223*
X133233Y195102*
X132841Y195071*
Y198246*
G37*
G36*
X132587Y201676D02*
Y198500D01*
X129412*
X129443Y198892*
X129564Y199397*
X129763Y199877*
X130035Y200320*
X130372Y200716*
X130768Y201053*
X131211Y201325*
X131691Y201524*
X132196Y201645*
X132587Y201676*
G37*
G36*
X132841D02*
X133233Y201645D01*
X133738Y201524*
X134218Y201325*
X134661Y201053*
X135057Y200716*
X135394Y200320*
X135666Y199877*
X135865Y199397*
X135986Y198892*
X136017Y198500*
X132841*
Y201676*
G37*
G36*
X129412Y198246D02*
X132587D01*
Y195071*
X132196Y195102*
X131691Y195223*
X131211Y195422*
X130768Y195694*
X130372Y196031*
X130035Y196427*
X129763Y196870*
X129564Y197350*
X129443Y197855*
X129412Y198246*
G37*
G36*
X133105Y176275D02*
X133857D01*
Y175523*
X133752Y175536*
X133536Y175626*
X133350Y175768*
X133208Y175954*
X133118Y176170*
X133105Y176275*
G37*
G36*
X126491Y162432D02*
X127244D01*
X127231Y162327*
X127141Y162111*
X126999Y161925*
X126813Y161783*
X126597Y161693*
X126491Y161680*
Y162432*
G37*
G36*
X117347Y156710D02*
Y155828D01*
X116466*
X116485Y155967*
X116587Y156214*
X116750Y156426*
X116962Y156589*
X117209Y156691*
X117347Y156710*
G37*
G36*
X117601D02*
X117740Y156691D01*
X117987Y156589*
X118199Y156426*
X118362Y156214*
X118464Y155967*
X118483Y155828*
X117601*
Y156710*
G37*
G36*
X125485Y162432D02*
X126237D01*
Y161680*
X126132Y161693*
X125916Y161783*
X125730Y161925*
X125588Y162111*
X125498Y162327*
X125485Y162432*
G37*
G36*
X134111Y176275D02*
X134864D01*
X134851Y176170*
X134761Y175954*
X134619Y175768*
X134433Y175626*
X134217Y175536*
X134111Y175523*
Y176275*
G37*
G36*
X126237Y163439D02*
Y162686D01*
X125485*
X125498Y162792*
X125588Y163008*
X125730Y163194*
X125916Y163336*
X126132Y163426*
X126237Y163439*
G37*
G36*
X126491D02*
X126597Y163426D01*
X126813Y163336*
X126999Y163194*
X127141Y163008*
X127231Y162792*
X127244Y162686*
X126491*
Y163439*
G37*
%LNfilm_bot-4*%
%LPC*%
G54D21*
X133984Y149224D02*
X133476Y149732D01*
X131982D01*
Y150973D01*
X131698Y151256D01*
X131982Y154168D02*
Y155332D01*
Y154168D02*
X130950Y153135D01*
X131698Y151256D02*
X130936D01*
X131474Y154378D02*
Y155191D01*
Y154378D02*
X130740Y153643D01*
X131474Y155191D02*
X131332Y155332D01*
X130950Y153135D02*
X126781D01*
X130936Y151256D02*
X130682Y151002D01*
X130936Y156998D02*
Y176656D01*
Y156998D02*
X130126Y156188D01*
X130936Y176656D02*
X128904Y178688D01*
X130740Y153643D02*
X126992D01*
X130682Y149732D02*
Y151002D01*
Y154304D02*
Y155332D01*
Y154304D02*
X130529Y154151D01*
X127202D01*
X130428Y132206D02*
Y145030D01*
Y132206D02*
X128904Y130682D01*
X130428Y145030D02*
X130032Y145426D01*
X130428Y157483D02*
Y170306D01*
Y157483D02*
X129382Y156437D01*
X130428Y170306D02*
X128904Y171830D01*
X130126Y155427D02*
Y156188D01*
Y155427D02*
X130032Y155332D01*
Y145426D02*
Y149732D01*
X129920Y138556D02*
Y144819D01*
Y138556D02*
X128904Y137540D01*
X129920Y144819D02*
X128904Y145835D01*
X129920Y157694D02*
Y158535D01*
Y157694D02*
X128732Y156506D01*
X129920Y158535D02*
X129877Y158579D01*
Y164000D01*
X128904Y164972D01*
X129382Y149732D02*
X129382Y149732D01*
X129382Y155332D02*
Y156437D01*
X129382Y148971D02*
Y149732D01*
Y148971D02*
X128904Y148493D01*
Y144398D02*
X128082Y145221D01*
X128904Y145835D02*
Y148493D01*
Y158114D02*
X128082Y157292D01*
X128826Y149732D02*
Y151335D01*
Y149732D02*
X128732D01*
X128826Y151335D02*
X127534Y152627D01*
X128732Y155332D02*
Y156506D01*
X128082Y145221D02*
Y149732D01*
Y155332D02*
Y157292D01*
X127534Y152627D02*
X120834D01*
X127526Y149826D02*
X126797Y149097D01*
G54D22*
X127432Y155332D02*
X126949Y155816D01*
G54D21*
X127202Y154151D02*
X127049Y154304D01*
X116077D01*
X126992Y153643D02*
X126839Y153796D01*
G54D22*
X126949Y155816D02*
X124840D01*
G54D21*
X126839Y153796D02*
X120566D01*
X126797Y149097D02*
X126210D01*
X126781Y153135D02*
X126628Y153288D01*
X120776D01*
X126503Y148907D02*
X126210Y149097D01*
X120834Y152627D02*
X119717Y151510D01*
X120776Y153288D02*
X119506Y152018D01*
X120566Y153796D02*
X119931Y153161D01*
X117474D01*
X119717Y151510D02*
X118363D01*
X119506Y152018D02*
X116331D01*
X118363Y151510D02*
X117474Y150621D01*
X116331Y152018D02*
X114934Y150621D01*
X116077Y154304D02*
X114934Y153161D01*
G54D30*
X132076Y149826D03*
Y155426D03*
X131426Y149826D03*
Y155426D03*
X130776Y149826D03*
Y155426D03*
X130126Y149826D03*
Y155426D03*
X129476Y149826D03*
Y155426D03*
X128826Y149826D03*
Y155426D03*
X128176Y149826D03*
Y155426D03*
G54D31*
X127526Y149826D03*
G54D30*
X127526Y155426D03*
G54D32*
X127398Y149301D03*
G54D33*
X127126Y149186D03*
G54D24*
X126210Y149097D03*
X117474Y150621D03*
Y153161D03*
Y155701D03*
X114934Y150621D03*
Y153161D03*
G54D25*
X114934Y155701D03*
G54D26*
X133984Y149224D03*
Y176402D03*
G54D27*
X132714Y106425D03*
Y198373D03*
G54D26*
X128904Y130682D03*
Y137540D03*
Y144398D03*
Y158114D03*
Y164972D03*
Y171830D03*
Y178688D03*
X126364Y142239D03*
Y162559D03*
X124840Y155816D03*
M02*