%FSDAX33Y33*%
%MOMM*%
%SFA1B1*%

%IPPOS*%
%ADD9502C,0.254000*%
%LNgbr_rout-1*%
%LPD*%
G54D9502*
X013807Y087808D02*
X087808D01*
Y013807D01*
X013807D01*
Y087808D01*
X019312Y029250D02*
X019000Y029283D01*
X018702Y029379D01*
X018430Y029536D01*
X018197Y029746D01*
X018013Y030000D01*
X017886Y030286D01*
X017820Y030593D01*
Y030907D01*
X017886Y031213D01*
X018013Y031500D01*
X018197Y031753D01*
X018430Y031963D01*
X018702Y032120D01*
X019000Y032217D01*
X019312Y032250D01*
X024488D01*
X024727Y033036D01*
X025064Y033785D01*
X025493Y034485D01*
X026007Y035127D01*
X026597Y035698D01*
X027255Y036190D01*
X027969Y036595D01*
X028729Y036907D01*
X029523Y037121D01*
X030336Y037232D01*
X031158Y037241D01*
X031974Y037145D01*
X032771Y036948D01*
X033537Y036651D01*
X034260Y036260D01*
X034927Y035781D01*
X035529Y035222D01*
X036055Y034591D01*
X036498Y033899D01*
X036850Y033157D01*
X037105Y032376D01*
X037260Y031570D01*
X037312Y030750D01*
X037260Y029930D01*
X037105Y029123D01*
X036850Y028342D01*
X036498Y027600D01*
X036055Y026908D01*
X035529Y026277D01*
X034927Y025718D01*
X034260Y025239D01*
X033537Y024849D01*
X032771Y024552D01*
X031974Y024354D01*
X031158Y024259D01*
X030336Y024267D01*
X029523Y024379D01*
X028729Y024593D01*
X027969Y024904D01*
X027255Y025310D01*
X026597Y025802D01*
X026007Y026373D01*
X025493Y027014D01*
X025064Y027715D01*
X024727Y028464D01*
X024488Y029250D01*
X019312D01*
X030809Y015809D02*
X030220D01*
X029045Y015902D01*
X027880Y016086D01*
X026734Y016361D01*
X025613Y016725D01*
X024524Y017176D01*
X023474Y017712D01*
X022469Y018327D01*
X021515Y019020D01*
X020619Y019786D01*
X019786Y020619D01*
X019020Y021515D01*
X018327Y022469D01*
X017712Y023474D01*
X017176Y024524D01*
X016725Y025613D01*
X016361Y026734D01*
X016086Y027880D01*
X015902Y029045D01*
X015809Y030220D01*
Y030809D01*
Y031398D01*
X015902Y032574D01*
X016086Y033738D01*
X016361Y034884D01*
X016725Y036005D01*
X017176Y037094D01*
X017712Y038144D01*
X018327Y039149D01*
X019020Y040103D01*
X019786Y040999D01*
X020619Y041832D01*
X021515Y042598D01*
X022469Y043291D01*
X023474Y043907D01*
X024524Y044442D01*
X025613Y044893D01*
X026734Y045257D01*
X027880Y045532D01*
X029045Y045717D01*
X030220Y045809D01*
X030809D01*
X031398D01*
X032574Y045717D01*
X033738Y045532D01*
X034884Y045257D01*
X036005Y044893D01*
X037094Y044442D01*
X038144Y043907D01*
X039149Y043291D01*
X040103Y042598D01*
X040999Y041832D01*
X041832Y040999D01*
X042598Y040103D01*
X043291Y039149D01*
X043907Y038144D01*
X044442Y037094D01*
X044893Y036005D01*
X045257Y034884D01*
X045532Y033738D01*
X045717Y032574D01*
X045809Y031398D01*
Y030809D01*
Y030220D01*
X045717Y029045D01*
X045532Y027880D01*
X045257Y026734D01*
X044893Y025613D01*
X044442Y024524D01*
X043907Y023474D01*
X043291Y022469D01*
X042598Y021515D01*
X041832Y020619D01*
X040999Y019786D01*
X040103Y019020D01*
X039149Y018327D01*
X038144Y017712D01*
X037094Y017176D01*
X036005Y016725D01*
X034884Y016361D01*
X033738Y016086D01*
X032574Y015902D01*
X031398Y015809D01*
X030809D01*
X059312Y029250D02*
X059000Y029283D01*
X058702Y029379D01*
X058430Y029536D01*
X058197Y029746D01*
X058013Y030000D01*
X057885Y030286D01*
X057820Y030593D01*
Y030907D01*
X057885Y031213D01*
X058013Y031500D01*
X058197Y031753D01*
X058430Y031963D01*
X058702Y032120D01*
X059000Y032217D01*
X059312Y032250D01*
X064488D01*
X064727Y033036D01*
X065064Y033785D01*
X065493Y034485D01*
X066006Y035127D01*
X066597Y035698D01*
X067255Y036190D01*
X067969Y036595D01*
X068729Y036907D01*
X069522Y037121D01*
X070336Y037232D01*
X071158Y037241D01*
X071974Y037145D01*
X072771Y036948D01*
X073537Y036651D01*
X074260Y036260D01*
X074927Y035781D01*
X075529Y035222D01*
X076055Y034591D01*
X076498Y033899D01*
X076850Y033157D01*
X077105Y032376D01*
X077260Y031570D01*
X077312Y030750D01*
X077260Y029930D01*
X077105Y029123D01*
X076850Y028342D01*
X076498Y027600D01*
X076055Y026908D01*
X075529Y026277D01*
X074927Y025718D01*
X074260Y025239D01*
X073537Y024849D01*
X072771Y024552D01*
X071974Y024354D01*
X071158Y024259D01*
X070336Y024267D01*
X069522Y024379D01*
X068729Y024593D01*
X067969Y024904D01*
X067255Y025310D01*
X066597Y025802D01*
X066007Y026373D01*
X065493Y027014D01*
X065064Y027715D01*
X064727Y028464D01*
X064488Y029250D01*
X059312D01*
X070809Y015809D02*
X070220D01*
X069045Y015902D01*
X067880Y016086D01*
X066734Y016361D01*
X065613Y016725D01*
X064524Y017176D01*
X063474Y017712D01*
X062469Y018327D01*
X061515Y019020D01*
X060619Y019786D01*
X059786Y020619D01*
X059020Y021515D01*
X058327Y022469D01*
X057711Y023474D01*
X057176Y024524D01*
X056725Y025613D01*
X056361Y026734D01*
X056086Y027880D01*
X055901Y029045D01*
X055809Y030220D01*
Y030809D01*
Y031398D01*
X055901Y032574D01*
X056086Y033738D01*
X056361Y034884D01*
X056725Y036005D01*
X057176Y037094D01*
X057711Y038144D01*
X058327Y039149D01*
X059020Y040103D01*
X059786Y040999D01*
X060619Y041832D01*
X061515Y042598D01*
X062469Y043291D01*
X063474Y043907D01*
X064524Y044442D01*
X065613Y044893D01*
X066734Y045257D01*
X067880Y045532D01*
X069045Y045717D01*
X070220Y045809D01*
X070809D01*
X071398D01*
X072573Y045717D01*
X073738Y045532D01*
X074884Y045257D01*
X076005Y044893D01*
X077094Y044442D01*
X078144Y043907D01*
X079149Y043291D01*
X080103Y042598D01*
X080999Y041832D01*
X081832Y040999D01*
X082598Y040103D01*
X083291Y039149D01*
X083907Y038144D01*
X084442Y037094D01*
X084893Y036005D01*
X085257Y034884D01*
X085532Y033738D01*
X085717Y032574D01*
X085809Y031398D01*
Y030809D01*
Y030220D01*
X085717Y029045D01*
X085532Y027880D01*
X085257Y026734D01*
X084893Y025613D01*
X084442Y024524D01*
X083907Y023474D01*
X083291Y022469D01*
X082598Y021515D01*
X081832Y020619D01*
X080999Y019786D01*
X080103Y019020D01*
X079149Y018327D01*
X078144Y017712D01*
X077094Y017176D01*
X076005Y016725D01*
X074884Y016361D01*
X073738Y016086D01*
X072573Y015902D01*
X071398Y015809D01*
X070809D01*
X019312Y069250D02*
X019000Y069282D01*
X018702Y069379D01*
X018430Y069536D01*
X018197Y069746D01*
X018013Y070000D01*
X017886Y070286D01*
X017820Y070593D01*
Y070906D01*
X017886Y071213D01*
X018013Y071500D01*
X018197Y071753D01*
X018430Y071963D01*
X018702Y072120D01*
X019000Y072217D01*
X019312Y072250D01*
X024488D01*
X024727Y073035D01*
X025064Y073785D01*
X025493Y074485D01*
X026007Y075126D01*
X026597Y075698D01*
X027255Y076190D01*
X027969Y076595D01*
X028729Y076907D01*
X029523Y077120D01*
X030336Y077232D01*
X031158Y077240D01*
X031974Y077145D01*
X032771Y076947D01*
X033537Y076651D01*
X034260Y076260D01*
X034927Y075781D01*
X035529Y075222D01*
X036055Y074591D01*
X036498Y073899D01*
X036850Y073157D01*
X037105Y072376D01*
X037260Y071570D01*
X037312Y070750D01*
X037260Y069930D01*
X037105Y069123D01*
X036850Y068342D01*
X036498Y067600D01*
X036055Y066908D01*
X035529Y066277D01*
X034927Y065718D01*
X034260Y065239D01*
X033537Y064848D01*
X032771Y064552D01*
X031974Y064354D01*
X031158Y064259D01*
X030336Y064267D01*
X029523Y064379D01*
X028729Y064592D01*
X027969Y064904D01*
X027255Y065310D01*
X026597Y065802D01*
X026007Y066373D01*
X025493Y067014D01*
X025064Y067715D01*
X024727Y068464D01*
X024488Y069250D01*
X019312D01*
X030809Y055809D02*
X030220D01*
X029045Y055901D01*
X027880Y056086D01*
X026734Y056361D01*
X025613Y056725D01*
X024524Y057176D01*
X023474Y057711D01*
X022469Y058327D01*
X021515Y059020D01*
X020619Y059786D01*
X019786Y060619D01*
X019020Y061515D01*
X018327Y062469D01*
X017712Y063474D01*
X017176Y064524D01*
X016725Y065613D01*
X016361Y066734D01*
X016086Y067880D01*
X015902Y069045D01*
X015809Y070220D01*
Y070809D01*
Y071398D01*
X015902Y072573D01*
X016086Y073738D01*
X016361Y074884D01*
X016725Y076005D01*
X017176Y077094D01*
X017712Y078144D01*
X018327Y079149D01*
X019020Y080103D01*
X019786Y080999D01*
X020619Y081832D01*
X021515Y082598D01*
X022469Y083291D01*
X023474Y083907D01*
X024524Y084442D01*
X025613Y084893D01*
X026734Y085257D01*
X027880Y085532D01*
X029045Y085717D01*
X030220Y085809D01*
X030809D01*
X031398D01*
X032574Y085717D01*
X033738Y085532D01*
X034884Y085257D01*
X036005Y084893D01*
X037094Y084442D01*
X038144Y083907D01*
X039149Y083291D01*
X040103Y082598D01*
X040999Y081832D01*
X041832Y080999D01*
X042598Y080103D01*
X043291Y079149D01*
X043907Y078144D01*
X044442Y077094D01*
X044893Y076005D01*
X045257Y074884D01*
X045532Y073738D01*
X045717Y072573D01*
X045809Y071398D01*
Y070809D01*
Y070220D01*
X045717Y069045D01*
X045532Y067880D01*
X045257Y066734D01*
X044893Y065613D01*
X044442Y064524D01*
X043907Y063474D01*
X043291Y062469D01*
X042598Y061515D01*
X041832Y060619D01*
X040999Y059786D01*
X040103Y059020D01*
X039149Y058327D01*
X038144Y057711D01*
X037094Y057176D01*
X036005Y056725D01*
X034884Y056361D01*
X033738Y056086D01*
X032574Y055901D01*
X031398Y055809D01*
X030809D01*
X059312Y069250D02*
X059000Y069282D01*
X058702Y069379D01*
X058430Y069536D01*
X058197Y069746D01*
X058013Y070000D01*
X057885Y070286D01*
X057820Y070593D01*
Y070906D01*
X057885Y071213D01*
X058013Y071500D01*
X058197Y071753D01*
X058430Y071963D01*
X058702Y072120D01*
X059000Y072217D01*
X059312Y072250D01*
X064488D01*
X064727Y073035D01*
X065064Y073785D01*
X065493Y074485D01*
X066006Y075126D01*
X066597Y075698D01*
X067255Y076190D01*
X067969Y076595D01*
X068729Y076907D01*
X069522Y077120D01*
X070336Y077232D01*
X071158Y077240D01*
X071974Y077145D01*
X072771Y076947D01*
X073537Y076651D01*
X074260Y076260D01*
X074927Y075781D01*
X075529Y075222D01*
X076055Y074591D01*
X076498Y073899D01*
X076850Y073157D01*
X077105Y072376D01*
X077260Y071570D01*
X077312Y070750D01*
X077260Y069930D01*
X077105Y069123D01*
X076850Y068342D01*
X076498Y067600D01*
X076055Y066908D01*
X075529Y066277D01*
X074927Y065718D01*
X074260Y065239D01*
X073537Y064848D01*
X072771Y064552D01*
X071974Y064354D01*
X071158Y064259D01*
X070336Y064267D01*
X069522Y064379D01*
X068729Y064592D01*
X067969Y064904D01*
X067255Y065310D01*
X066597Y065802D01*
X066007Y066373D01*
X065493Y067014D01*
X065064Y067715D01*
X064727Y068464D01*
X064488Y069250D01*
X059312D01*
X070809Y055809D02*
X070220D01*
X069045Y055901D01*
X067880Y056086D01*
X066734Y056361D01*
X065613Y056725D01*
X064524Y057176D01*
X063474Y057711D01*
X062469Y058327D01*
X061515Y059020D01*
X060619Y059786D01*
X059786Y060619D01*
X059020Y061515D01*
X058327Y062469D01*
X057711Y063474D01*
X057176Y064524D01*
X056725Y065613D01*
X056361Y066734D01*
X056086Y067880D01*
X055901Y069045D01*
X055809Y070220D01*
Y070809D01*
Y071398D01*
X055901Y072573D01*
X056086Y073738D01*
X056361Y074884D01*
X056725Y076005D01*
X057176Y077094D01*
X057711Y078144D01*
X058327Y079149D01*
X059020Y080103D01*
X059786Y080999D01*
X060619Y081832D01*
X061515Y082598D01*
X062469Y083291D01*
X063474Y083907D01*
X064524Y084442D01*
X065613Y084893D01*
X066734Y085257D01*
X067880Y085532D01*
X069045Y085717D01*
X070220Y085809D01*
X070809D01*
X071398D01*
X072573Y085717D01*
X073738Y085532D01*
X074884Y085257D01*
X076005Y084893D01*
X077094Y084442D01*
X078144Y083907D01*
X079149Y083291D01*
X080103Y082598D01*
X080999Y081832D01*
X081832Y080999D01*
X082598Y080103D01*
X083291Y079149D01*
X083907Y078144D01*
X084442Y077094D01*
X084893Y076005D01*
X085257Y074884D01*
X085532Y073738D01*
X085717Y072573D01*
X085809Y071398D01*
Y070809D01*
Y070220D01*
X085717Y069045D01*
X085532Y067880D01*
X085257Y066734D01*
X084893Y065613D01*
X084442Y064524D01*
X083907Y063474D01*
X083291Y062469D01*
X082598Y061515D01*
X081832Y060619D01*
X080999Y059786D01*
X080103Y059020D01*
X079149Y058327D01*
X078144Y057711D01*
X077094Y057176D01*
X076005Y056725D01*
X074884Y056361D01*
X073738Y056086D01*
X072573Y055901D01*
X071398Y055809D01*
X070809D01*
M02*