%FSDAX33Y33*%
%MOMM*%
%SFA1B1*%

%IPPOS*%
%AMD1002*
%
%ADD21O,1.300000X0.700001*%
%ADD22R,1.300000X0.700001*%
%ADD23R,0.800001X1.050000*%
%ADD24R,1.100000X1.000001*%
%ADD25R,1.050000X0.800001*%
%ADD26O,0.700001X1.300000*%
%ADD27R,0.700001X1.300000*%
%ADD28C,0.508000*%
%ADD29C,0.750001*%
%ADD30C,0.254000*%
%ADD31C,1.500000*%
%ADD32R,1.500000X1.500000*%
%ADD33C,1.200000*%
%LNtop-1*%
%LPD*%
G36*
X152400Y076200D02*
X000000D01*
Y000000*
X152400*
Y076200*
G37*
%LNtop-2*%
%LPC*%
G36*
X077423Y027297D02*
X077420Y027367D01*
X077412Y027435*
X077399Y027502*
X077380Y027567*
X077355Y027629*
X077325Y027691*
X077290Y027750*
X077249Y027807*
X077203Y027863*
X077152Y027917*
X078202*
X078150Y027863*
X078104Y027807*
X078064Y027750*
X078028Y027691*
X077999Y027629*
X077974Y027567*
X077955Y027502*
X077942Y027435*
X077934Y027367*
X077931Y027297*
X077423*
G37*
G36*
X078185Y027107D02*
X077677Y026599D01*
X077169Y027107*
X077217Y027109*
X077260Y027117*
X077298Y027130*
X077331Y027148*
X077359Y027170*
X077382Y027198*
X077400Y027231*
X077413Y027269*
X077420Y027313*
X077423Y027361*
X077931*
X077933Y027313*
X077941Y027269*
X077954Y027231*
X077972Y027198*
X077994Y027170*
X078022Y027148*
X078055Y027130*
X078093Y027117*
X078137Y027109*
X078185Y027107*
G37*
G36*
X074140Y027815D02*
X074188Y027867D01*
X074230Y027921*
X074268Y027977*
X074300Y028036*
X074327Y028098*
X074349Y028162*
X074366Y028229*
X074378Y028299*
X074385Y028371*
X074387Y028445*
X075129Y027703*
X075055Y027701*
X074983Y027694*
X074913Y027682*
X074846Y027665*
X074782Y027643*
X074720Y027616*
X074661Y027584*
X074605Y027546*
X074551Y027504*
X074499Y027456*
X074140Y027815*
G37*
G36*
X076134Y029090D02*
X076086Y029039D01*
X076044Y028985*
X076006Y028928*
X075974Y028869*
X075947Y028808*
X075925Y028743*
X075907Y028676*
X075896Y028607*
X075889Y028535*
X075887Y028460*
X075144Y029203*
X075219Y029205*
X075291Y029212*
X075360Y029223*
X075427Y029241*
X075492Y029263*
X075553Y029290*
X075613Y029322*
X075669Y029360*
X075723Y029402*
X075774Y029450*
X076134Y029090*
G37*
G36*
X074255Y051959D02*
X074207Y051949D01*
X074039Y051837*
X073063Y050862*
X072612*
X072513Y050842*
X072429Y050786*
X072373Y050702*
X072353Y050603*
Y049803*
X072373Y049704*
X072429Y049620*
X072474Y049589*
X072496Y049453*
X072474Y049316*
X072429Y049286*
X072373Y049202*
X072353Y049103*
Y048844*
X071051*
X070962Y048862*
X069912*
X069823Y048844*
X068754*
X068618Y048949*
X068410Y049035*
X068187Y049064*
X067964Y049035*
X067756Y048949*
X067578Y048812*
X067441Y048634*
X067355Y048426*
X067326Y048203*
X067355Y047980*
X067441Y047772*
X067578Y047594*
X067756Y047457*
X067964Y047371*
X068187Y047342*
X068410Y047371*
X068618Y047457*
X068754Y047562*
X069725*
X069735Y047536*
X069767Y047312*
X069729Y047286*
X069673Y047202*
X069653Y047103*
Y046303*
X069673Y046204*
X069729Y046120*
X069813Y046064*
X069912Y046044*
X070962*
X071061Y046064*
X071145Y046120*
X071189Y046185*
X073287*
X073485Y046224*
X073653Y046337*
X074671Y047355*
X074921Y047251*
Y046953*
X074968Y046717*
X075101Y046517*
X075287Y046394*
Y047253*
X075537*
Y047503*
X076153*
Y047553*
X076135Y047643*
X076314Y047893*
X076728*
Y046603*
X076748Y046504*
X076804Y046420*
X076888Y046364*
X076987Y046344*
X077687*
X077786Y046364*
X077870Y046420*
X077926Y046504*
X077946Y046603*
Y047903*
X077926Y048002*
X077896Y048047*
X077913Y048191*
X078175Y048282*
X081319Y045138*
Y043853*
X081358Y043655*
X081471Y043487*
X083185Y041772*
Y040776*
X082938Y040725*
X082923Y040771*
X082571Y041513*
X082545Y041553*
X082525Y041597*
X082082Y042289*
X082052Y042326*
X082026Y042366*
X081500Y042997*
X081464Y043029*
X081434Y043066*
X080832Y043625*
X080793Y043653*
X080758Y043686*
X080090Y044165*
X080048Y044187*
X080009Y044215*
X079287Y044606*
X079242Y044623*
X079200Y044646*
X078434Y044943*
X078387Y044954*
X078343Y044972*
X077545Y045169*
X077498Y045175*
X077451Y045186*
X076635Y045282*
X076588Y045281*
X076540Y045287*
X075719Y045279*
X075671Y045272*
X075623Y045272*
X074809Y045160*
X074763Y045147*
X074716Y045141*
X073922Y044927*
X073878Y044909*
X073832Y044897*
X073072Y044585*
X073030Y044561*
X072986Y044543*
X072271Y044138*
X072233Y044109*
X072191Y044085*
X071534Y043593*
X071499Y043560*
X071461Y043531*
X070870Y042960*
X070841Y042923*
X070806Y042889*
X070292Y042248*
X070268Y042207*
X070237Y042170*
X069809Y041469*
X069789Y041426*
X069764Y041385*
X069427Y040636*
X069413Y040590*
X069394Y040546*
X069317Y040296*
X064702*
X064663Y040291*
X064623Y040292*
X064311Y040259*
X064234Y040241*
X064156Y040226*
X063858Y040129*
X063787Y040095*
X063714Y040065*
X063442Y039908*
X063379Y039860*
X063314Y039815*
X063081Y039605*
X063030Y039545*
X062975Y039488*
X062791Y039234*
X062753Y039165*
X062712Y039097*
X062584Y038811*
X062562Y038735*
X062535Y038660*
X062470Y038354*
X062464Y038275*
X062454Y038196*
Y037883*
X062464Y037804*
X062470Y037726*
X062535Y037419*
X062562Y037344*
X062584Y037268*
X062712Y036982*
X062753Y036914*
X062791Y036845*
X062975Y036591*
X063030Y036534*
X063081Y036474*
X063314Y036264*
X063379Y036219*
X063442Y036171*
X063714Y036014*
X063787Y035984*
X063858Y035950*
X064156Y035853*
X064234Y035838*
X064311Y035820*
X064623Y035787*
X064663Y035788*
X064702Y035783*
X069317*
X069394Y035533*
X069413Y035489*
X069427Y035444*
X069764Y034694*
X069789Y034654*
X069809Y034610*
X070237Y033909*
X070268Y033872*
X070292Y033831*
X070806Y033190*
X070841Y033157*
X070870Y033119*
X071461Y032548*
X071499Y032519*
X071534Y032486*
X072191Y031994*
X072233Y031970*
X072271Y031941*
X072986Y031536*
X073030Y031518*
X073072Y031494*
X073832Y031182*
X073878Y031170*
X073922Y031152*
X074716Y030938*
X074763Y030932*
X074809Y030919*
X075623Y030808*
X075671Y030807*
X075719Y030801*
X076392Y030794*
X076494Y030543*
X075536Y029584*
X075517Y029570*
X075479Y029544*
X075439Y029522*
X075397Y029504*
X075353Y029489*
X075306Y029477*
X075257Y029468*
X075204Y029463*
X075162Y029462*
X075137Y029466*
X074875Y029431*
X074631Y029330*
X074421Y029169*
X074260Y028959*
X074159Y028715*
X074124Y028453*
X074127Y028428*
X074126Y028386*
X074121Y028333*
X074113Y028283*
X074101Y028237*
X074086Y028193*
X074067Y028151*
X074046Y028111*
X074020Y028072*
X074006Y028054*
X073586Y027634*
X073555Y027641*
X073455Y027921*
X073474Y027947*
X073575Y028191*
X073577Y028203*
X072597*
X071617*
X071619Y028191*
X071720Y027947*
X071881Y027737*
X071902Y027721*
X071817Y027471*
X071484*
X070530Y028425*
X070584Y028681*
X070592Y028693*
X070670Y028745*
X070726Y028829*
X070746Y028928*
Y029928*
X070726Y030027*
X070670Y030111*
Y030195*
X070726Y030279*
X070746Y030378*
Y030628*
X069128*
Y030378*
X069148Y030279*
X069204Y030195*
Y030111*
X069148Y030027*
X069128Y029928*
Y028948*
X069082Y028909*
X068893Y028830*
X068161Y029561*
X068156Y029577*
X068170Y029845*
X068226Y029929*
X068246Y030028*
Y031028*
X068226Y031127*
X068170Y031211*
Y031295*
X068226Y031379*
X068246Y031478*
Y031728*
X066628*
Y031478*
X066648Y031379*
X066704Y031295*
Y031211*
X066648Y031127*
X066628Y031028*
Y030028*
X066648Y029929*
X066704Y029845*
X066788Y029789*
X066887Y029769*
X066919*
Y029553*
X066958Y029355*
X067071Y029187*
X070433Y025825*
X070601Y025712*
X070799Y025673*
X073953*
X074151Y025712*
X074319Y025825*
X074829Y026335*
X081837*
X082035Y026374*
X082203Y026487*
X086303Y030587*
X086415Y030755*
X086455Y030953*
Y031601*
X086520Y031645*
X086576Y031729*
X086596Y031828*
Y031835*
X086937*
X087135Y031874*
X087303Y031987*
X087803Y032487*
X087915Y032655*
X087955Y032853*
Y034454*
X088178Y034605*
X088205Y034604*
X088328Y034444*
X088506Y034307*
X088687Y034232*
Y035053*
Y035874*
X088506Y035799*
X088328Y035662*
X088205Y035502*
X088178Y035501*
X087955Y035651*
Y038138*
X088551Y038735*
X088925*
X089001Y038684*
X089237Y038637*
X089837*
X090073Y038684*
X090184Y038758*
X090433Y038662*
X090442Y038653*
Y038053*
X090437Y038047*
X090192Y037942*
X090073Y038022*
X089837Y038069*
X089787*
Y037453*
Y036837*
X089837*
X090073Y036884*
X090144Y036932*
X090384Y036791*
X090355Y036423*
X090180Y035318*
X089918Y034230*
X089572Y033165*
X089144Y032131*
X088636Y031134*
X088051Y030179*
X087393Y029274*
X086666Y028423*
X085875Y027631*
X085024Y026905*
X084118Y026247*
X083164Y025662*
X082167Y025154*
X081133Y024725*
X080068Y024380*
X078980Y024118*
X077874Y023943*
X076759Y023855*
X075639*
X074523Y023943*
X073418Y024118*
X072330Y024380*
X071265Y024725*
X070231Y025154*
X069234Y025662*
X068279Y026247*
X067374Y026905*
X066523Y027631*
X065731Y028423*
X065005Y029274*
X064347Y030180*
X063762Y031134*
X063254Y032131*
X062825Y033165*
X062480Y034230*
X062218Y035318*
X062043Y036423*
X061955Y037539*
Y038659*
X062043Y039774*
X062218Y040880*
X062480Y041968*
X062825Y043033*
X063254Y044067*
X063762Y045064*
X064347Y046018*
X065005Y046924*
X065731Y047775*
X066523Y048566*
X067374Y049293*
X068280Y049951*
X069234Y050536*
X070231Y051044*
X071265Y051472*
X072330Y051818*
X073418Y052080*
X074211Y052205*
X074255Y051959*
G37*
G36*
X076786Y052248D02*
X076833Y052086D01*
X076768Y051989*
X076721Y051753*
Y051703*
X077337*
X077953*
Y051753*
X077906Y051989*
X077900Y051997*
X078047Y052227*
X078980Y052080*
X080068Y051818*
X081133Y051472*
X082167Y051044*
X083164Y050536*
X084118Y049951*
X085024Y049293*
X085875Y048566*
X086666Y047775*
X087393Y046924*
X088051Y046018*
X088636Y045064*
X089144Y044067*
X089572Y043033*
X089918Y041968*
X090180Y040880*
X090326Y039953*
X090097Y039806*
X090073Y039822*
X089837Y039869*
X089237*
X089001Y039822*
X088925Y039771*
X088337*
X088139Y039731*
X087971Y039619*
X087071Y038719*
X086958Y038551*
X086919Y038353*
Y037108*
X086669Y037083*
X086665Y037101*
X086553Y037269*
X086553Y037269*
X086246Y037576*
Y037803*
X086226Y037902*
X086170Y037986*
X086086Y038042*
X085987Y038062*
X084687*
X084588Y038042*
X084504Y037986*
X084471Y037937*
X084329Y037942*
X084221Y037978*
Y038978*
X084468Y039017*
X084601Y038817*
X084801Y038684*
X085037Y038637*
X085087*
Y039253*
Y039869*
X085037*
X084801Y039822*
X084601Y039688*
X084468Y039489*
X084221Y039528*
Y041987*
X084181Y042185*
X084069Y042353*
X082355Y044067*
Y045353*
X082315Y045551*
X082203Y045719*
X082203*
X077803Y050119*
X077635Y050231*
X077437Y050271*
X076151*
X076055Y050367*
Y050841*
X076106Y050917*
X076153Y051153*
Y051753*
X076106Y051989*
X076036Y052092*
X076157Y052342*
X076716*
X076786Y052248*
G37*
%LNtop-3*%
%LPD*%
G36*
X070487Y031637D02*
X070187D01*
Y031128*
X070746*
Y031378*
X070726Y031477*
X070670Y031561*
X070586Y031617*
X070487Y031637*
G37*
G36*
X067187Y032737D02*
X066887D01*
X066788Y032717*
X066704Y032661*
X066648Y032577*
X066628Y032478*
Y032228*
X067187*
Y032737*
G37*
G36*
X067987D02*
X067687D01*
Y032228*
X068246*
Y032478*
X068226Y032577*
X068170Y032661*
X068086Y032717*
X067987Y032737*
G37*
G36*
X072347Y029433D02*
X072335Y029431D01*
X072091Y029330*
X071881Y029169*
X071720Y028959*
X071619Y028715*
X071617Y028703*
X072347*
Y029433*
G37*
G36*
X072847D02*
Y028703D01*
X073577*
X073575Y028715*
X073474Y028959*
X073313Y029169*
X073103Y029330*
X072859Y029431*
X072847Y029433*
G37*
G36*
X069687Y031637D02*
X069387D01*
X069288Y031617*
X069204Y031561*
X069148Y031477*
X069128Y031378*
Y031128*
X069687*
Y031637*
G37*
G36*
X089287Y038069D02*
X089237D01*
X089001Y038022*
X088801Y037888*
X088678Y037703*
X089287*
Y038069*
G37*
G36*
X069477Y044061D02*
X064129D01*
Y042045*
X069477*
Y044061*
G37*
G36*
X076153Y047003D02*
X075787D01*
Y046393*
X075972Y046517*
X076106Y046717*
X076153Y046953*
Y047003*
G37*
G36*
X089758Y034803D02*
X089187D01*
Y034232*
X089368Y034307*
X089546Y034444*
X089683Y034622*
X089758Y034803*
G37*
G36*
X089187Y035874D02*
Y035303D01*
X089758*
X089683Y035484*
X089546Y035662*
X089368Y035799*
X089187Y035874*
G37*
G36*
X089287Y037203D02*
X088678D01*
X088801Y037017*
X089001Y036884*
X089237Y036837*
X089287*
Y037203*
G37*
G36*
X087387Y040703D02*
X086816D01*
X086891Y040522*
X087028Y040344*
X087206Y040207*
X087387Y040132*
Y040703*
G37*
G36*
X088458D02*
X087887D01*
Y040132*
X088068Y040207*
X088246Y040344*
X088383Y040522*
X088458Y040703*
G37*
G36*
X086196Y039003D02*
X085587D01*
Y038637*
X085637*
X085873Y038684*
X086072Y038817*
X086196Y039003*
G37*
G36*
X085637Y039869D02*
X085587D01*
Y039503*
X086196*
X086072Y039688*
X085873Y039822*
X085637Y039869*
G37*
G36*
X087387Y041774D02*
X087206Y041699D01*
X087028Y041562*
X086891Y041384*
X086816Y041203*
X087387*
Y041774*
G37*
G36*
X077087Y051203D02*
X076721D01*
Y051153*
X076768Y050917*
X076901Y050717*
X077087Y050594*
Y051203*
G37*
G36*
X077953D02*
X077587D01*
Y050594*
X077772Y050717*
X077906Y050917*
X077953Y051153*
Y051203*
G37*
G36*
X087887Y041774D02*
Y041203D01*
X088458*
X088383Y041384*
X088246Y041562*
X088068Y041699*
X087887Y041774*
G37*
G36*
X082640Y049727D02*
X081120Y048402D01*
X086167Y042613*
X087687Y043937*
X082640Y049727*
G37*
%LNtop-4*%
%LPC*%
G54D30*
X064637Y042553D02*
Y043553D01*
X065137D01*
X064970Y042886D02*
X065303Y042553D01*
X065137Y042886D02*
X064637D01*
X065137Y043553D02*
X065303Y043386D01*
Y043053D02*
X065137Y042886D01*
X065303Y043386D02*
Y043053D01*
X065637Y042553D02*
X066303D01*
X065637Y043053D02*
X065970D01*
X065637Y043553D02*
Y042553D01*
X066303Y043553D02*
X065637D01*
X066636Y042886D02*
X066969Y042553D01*
X066636Y043553D02*
Y042886D01*
X066969Y042553D02*
X067303Y042886D01*
Y043553D01*
G54D28*
X067437Y029553D02*
Y030528D01*
Y029553D02*
X070799Y026191D01*
G54D29*
X068187Y048203D02*
X070437D01*
G54D30*
X068636Y042553D02*
X068969D01*
X068802D02*
Y043553D01*
X068636Y043386D01*
X068969Y042553D02*
X068802D01*
G54D28*
X069937Y028285D02*
Y029428D01*
Y028285D02*
X071269Y026953D01*
X070437Y046703D02*
X073287D01*
G54D29*
X070437Y048203D02*
X072637D01*
G54D28*
X070799Y026191D02*
X073953D01*
X071269Y026953D02*
X073637D01*
G54D29*
X072637Y048203D02*
X073137Y048703D01*
G54D28*
X073137Y050203D02*
X074405Y051471D01*
X073287Y046703D02*
X074995Y048411D01*
X073637Y026953D02*
X075137Y028453D01*
X073953Y026191D02*
X074615Y026853D01*
X074405Y051471D02*
X075537D01*
X074615Y026853D02*
X077677D01*
X074995Y048411D02*
X077079D01*
X075137Y028453D02*
X077288Y030604D01*
X075537Y050153D02*
Y051453D01*
Y050153D02*
X075937Y049753D01*
X075537Y051453D02*
Y051471D01*
X075937Y049753D02*
X077437D01*
X077079Y048411D02*
X077337Y048153D01*
X077288Y030604D02*
X080488D01*
X077337Y047253D02*
Y048153D01*
X077437Y049753D02*
X081837Y045353D01*
X077677Y026853D02*
Y028453D01*
Y026853D02*
X081837D01*
G54D29*
X080217Y028453D02*
X081117Y029353D01*
G54D28*
X080488Y030604D02*
X083241Y033357D01*
G54D29*
X081117Y029353D02*
X082537D01*
G54D28*
X081837Y026853D02*
X085937Y030953D01*
X081837Y043853D02*
Y045353D01*
Y043853D02*
X083703Y041987D01*
G54D30*
X081837Y048353D02*
X082275Y047851D01*
X082214Y048681D02*
X082433Y048430D01*
X082494Y047599D02*
X083247Y048256D01*
G54D29*
X082537Y029353D02*
X084437Y031253D01*
G54D30*
X082590Y049010D02*
X081837Y048353D01*
X082932Y047097D02*
X083685Y047754D01*
X083028Y048507D02*
X082590Y049010D01*
G54D28*
X083241Y033357D02*
Y035276D01*
X083703Y035738D01*
G54D30*
X083247Y048256D02*
X082932Y047097D01*
X083260Y046720D02*
X083479Y046469D01*
X083276Y046955D02*
X083260Y046720D01*
X083479Y046469D02*
X083714Y046453D01*
G54D28*
X083703Y035738D02*
Y041987D01*
G54D30*
X083779Y047393D02*
X083276Y046955D01*
X083917Y045967D02*
X084136Y045716D01*
X083933Y046202D02*
X083917Y045967D01*
X084014Y047377D02*
X083779Y047393D01*
X084136Y045716D02*
X084371Y045699D01*
X084217Y046891D02*
X084233Y047126D01*
X084014Y047377D01*
X084371Y045699D02*
X084874Y046137D01*
X084436Y046640D02*
X083933Y046202D01*
G54D29*
X084437Y031253D02*
Y032353D01*
X084687Y032603D01*
G54D30*
X084465Y045339D02*
X084793Y044962D01*
X084671Y046624D02*
X084436Y046640D01*
G54D29*
X084687Y032603D02*
Y034853D01*
G54D30*
X084793Y044962D02*
X085028Y044946D01*
X084874Y046137D02*
X084890Y046372D01*
X084671Y046624D01*
X085028Y044946D02*
X085530Y045384D01*
X085122Y044585D02*
X085559Y044083D01*
X085218Y045996D02*
X084465Y045339D01*
G54D28*
X085337Y037453D02*
X085637D01*
G54D30*
X085498Y044914D02*
X085717Y044663D01*
X085530Y045384D02*
X085547Y045619D01*
X085218Y045996D01*
G54D28*
X085637Y037453D02*
X086187Y036903D01*
G54D30*
X085778Y043832D02*
X086532Y044489D01*
X085875Y045242D02*
X085122Y044585D01*
G54D28*
X085937Y030953D02*
Y032353D01*
X086937D01*
X086187Y034853D02*
Y036903D01*
G54D30*
X086249Y043800D02*
X086216Y043329D01*
X086313Y044740D02*
X085875Y045242D01*
X086358Y043674D02*
X086030Y044051D01*
X086532Y044489D02*
X086860Y044112D01*
X086593Y043658D02*
X086358Y043674D01*
X086844Y043877D02*
X086593Y043658D01*
X086860Y044112D02*
X086844Y043877D01*
G54D28*
X086937Y032353D02*
X087437Y032853D01*
Y038353D01*
X088337Y039253D01*
X089537D01*
G54D24*
X067437Y030528D03*
Y031978D03*
X069937Y029428D03*
Y030878D03*
G54D25*
X070437Y046703D03*
Y048203D03*
G54D31*
X072597Y028453D03*
G54D25*
X073137Y048703D03*
Y050203D03*
G54D31*
X075137Y028453D03*
G54D26*
X075537Y047253D03*
Y051453D03*
G54D27*
X077337Y047253D03*
G54D26*
X077337Y051453D03*
G54D31*
X077677Y028453D03*
G54D32*
X080217Y028453D03*
G54D23*
X084437Y032353D03*
X084687Y034853D03*
G54D22*
X085337Y037453D03*
G54D21*
X085337Y039253D03*
G54D23*
X085937Y032353D03*
X086187Y034853D03*
G54D21*
X089537Y037453D03*
Y039253D03*
G54D33*
X068187Y048203D03*
X087637Y040953D03*
X088937Y035053D03*
M02*