G04 Layer_Physical_Order=2*
G04 Layer_Color=16711680*
%FSLAX25Y25*%
%MOIN*%
G70*
G01*
G75*
%ADD17C,0.02953*%
%ADD20C,0.05905*%
%ADD21R,0.05905X0.05905*%
%ADD22C,0.05000*%
%ADD23C,0.04724*%
G36*
X155301Y123629D02*
X150949Y122940D01*
X146664Y121911D01*
X142473Y120549D01*
X138402Y118863D01*
X134476Y116862D01*
X130719Y114560D01*
X127154Y111970D01*
X123803Y109108D01*
X120687Y105992D01*
X117825Y102641D01*
X115235Y99076D01*
X112933Y95319D01*
X110933Y91393D01*
X109246Y87322D01*
X107885Y83131D01*
X106856Y78846D01*
X106167Y74494D01*
X105821Y70101D01*
Y67898D01*
Y65694D01*
X106167Y61301D01*
X106856Y56949D01*
X107885Y52664D01*
X109246Y48474D01*
X110933Y44402D01*
X112933Y40476D01*
X115235Y36719D01*
X117825Y33154D01*
X120687Y29803D01*
X123803Y26687D01*
X127154Y23825D01*
X130719Y21235D01*
X134476Y18933D01*
X138402Y16932D01*
X142473Y15246D01*
X146664Y13884D01*
X150949Y12856D01*
X155301Y12166D01*
X159694Y11821D01*
X164101D01*
X168494Y12166D01*
X172846Y12856D01*
X177131Y13884D01*
X181322Y15246D01*
X185393Y16932D01*
X189319Y18933D01*
X193076Y21235D01*
X196641Y23825D01*
X199992Y26687D01*
X203108Y29803D01*
X205970Y33154D01*
X208560Y36719D01*
X210862Y40476D01*
X212863Y44402D01*
X214549Y48473D01*
X215911Y52664D01*
X216940Y56949D01*
X217629Y61301D01*
X217975Y65694D01*
Y67898D01*
Y70101D01*
X217629Y74494D01*
X216940Y78846D01*
X215911Y83131D01*
X214549Y87322D01*
X212863Y91393D01*
X210862Y95319D01*
X208560Y99076D01*
X205970Y102641D01*
X203108Y105992D01*
X199992Y109108D01*
X196641Y111970D01*
X193076Y114560D01*
X189319Y116862D01*
X185393Y118863D01*
X181322Y120549D01*
X177131Y121911D01*
X172846Y122940D01*
X168494Y123629D01*
X164101Y123975D01*
X159694D01*
X155301Y123629D01*
D02*
G37*
%LPC*%
G36*
X176579Y33842D02*
X177111Y33772D01*
X178072Y33374D01*
X178898Y32740D01*
X179532Y31915D01*
X179930Y30953D01*
X180000Y30421D01*
X176579D01*
Y33842D01*
D02*
G37*
G36*
Y29421D02*
X180000D01*
X179930Y28889D01*
X179532Y27928D01*
X178898Y27102D01*
X178072Y26469D01*
X177111Y26070D01*
X176579Y26000D01*
Y29421D01*
D02*
G37*
G36*
X112248Y55405D02*
X115212D01*
X115158Y54992D01*
X114805Y54140D01*
X114244Y53409D01*
X113513Y52848D01*
X112662Y52496D01*
X112248Y52441D01*
Y55405D01*
D02*
G37*
G36*
X175579Y33842D02*
Y30421D01*
X172158D01*
X172228Y30953D01*
X172626Y31915D01*
X173260Y32740D01*
X174085Y33374D01*
X175047Y33772D01*
X175579Y33842D01*
D02*
G37*
G36*
X156079Y33908D02*
X157111Y33772D01*
X158072Y33374D01*
X158898Y32740D01*
X159531Y31915D01*
X159930Y30953D01*
X160066Y29921D01*
X159930Y28889D01*
X159531Y27928D01*
X158898Y27102D01*
X158072Y26469D01*
X157111Y26070D01*
X156079Y25934D01*
X155047Y26070D01*
X154085Y26469D01*
X153260Y27102D01*
X152626Y27928D01*
X152228Y28889D01*
X152092Y29921D01*
X152228Y30953D01*
X152626Y31915D01*
X153260Y32740D01*
X154085Y33374D01*
X155047Y33772D01*
X156079Y33908D01*
D02*
G37*
G36*
X166079D02*
X167111Y33772D01*
X168072Y33374D01*
X168898Y32740D01*
X169532Y31915D01*
X169930Y30953D01*
X170066Y29921D01*
X169930Y28889D01*
X169532Y27928D01*
X168898Y27102D01*
X168072Y26469D01*
X167111Y26070D01*
X166079Y25934D01*
X165047Y26070D01*
X164085Y26469D01*
X163260Y27102D01*
X162626Y27928D01*
X162228Y28889D01*
X162092Y29921D01*
X162228Y30953D01*
X162626Y31915D01*
X163260Y32740D01*
X164085Y33374D01*
X165047Y33772D01*
X166079Y33908D01*
D02*
G37*
G36*
X172158Y29421D02*
X175579D01*
Y26000D01*
X175047Y26070D01*
X174085Y26469D01*
X173260Y27102D01*
X172626Y27928D01*
X172228Y28889D01*
X172158Y29421D01*
D02*
G37*
G36*
X193441Y111068D02*
X194319Y110953D01*
X195137Y110614D01*
X195839Y110075D01*
X196378Y109373D01*
X196717Y108555D01*
X196832Y107677D01*
X196717Y106799D01*
X196378Y105982D01*
X195839Y105279D01*
X195137Y104740D01*
X194319Y104402D01*
X193441Y104286D01*
X192563Y104402D01*
X191745Y104740D01*
X191242Y105127D01*
X190840Y105152D01*
X140156D01*
X126871Y91868D01*
Y52699D01*
X144424Y35147D01*
X144977Y34633D01*
X145444Y34259D01*
X145860Y33969D01*
X145991Y33894D01*
X149031D01*
X149422Y33816D01*
X149752Y33595D01*
X149973Y33264D01*
X150051Y32874D01*
Y26969D01*
X149973Y26578D01*
X149752Y26248D01*
X149422Y26026D01*
X149031Y25949D01*
X143126D01*
X142736Y26026D01*
X142405Y26248D01*
X142184Y26578D01*
X142106Y26969D01*
Y30009D01*
X142031Y30140D01*
X141749Y30545D01*
X140998Y31431D01*
X122561Y49868D01*
X122014Y50687D01*
X121822Y51653D01*
Y92913D01*
X122014Y93880D01*
X122561Y94699D01*
X137325Y109462D01*
X138144Y110010D01*
X139110Y110202D01*
X191037D01*
X191166Y110212D01*
X191233Y110221D01*
X191745Y110614D01*
X192563Y110953D01*
X193441Y111068D01*
D02*
G37*
G36*
X160567Y96430D02*
X163801Y96398D01*
X163988Y96371D01*
X164176Y96370D01*
X167380Y95930D01*
X167562Y95880D01*
X167749Y95855D01*
X170872Y95015D01*
X171046Y94942D01*
X171229Y94894D01*
X174221Y93666D01*
X174384Y93572D01*
X174559Y93501D01*
X177373Y91906D01*
X177523Y91792D01*
X177688Y91700D01*
X180277Y89762D01*
X180412Y89631D01*
X180564Y89518D01*
X182888Y87270D01*
X183005Y87122D01*
X183142Y86991D01*
X185164Y84467D01*
X185262Y84306D01*
X185380Y84159D01*
X187068Y81401D01*
X187145Y81228D01*
X187244Y81068D01*
X188570Y78118D01*
X188624Y77937D01*
X188702Y77766D01*
X189003Y76781D01*
X207173D01*
X207328Y76761D01*
X207485Y76765D01*
X208713Y76636D01*
X209015Y76563D01*
X209321Y76507D01*
X210496Y76125D01*
X210777Y75991D01*
X211065Y75872D01*
X212134Y75254D01*
X212381Y75065D01*
X212637Y74888D01*
X213555Y74063D01*
X213757Y73826D01*
X213971Y73600D01*
X214697Y72601D01*
X214846Y72327D01*
X215008Y72062D01*
X215511Y70934D01*
X215599Y70635D01*
X215703Y70342D01*
X215960Y69134D01*
X215984Y68824D01*
X216025Y68515D01*
Y67280D01*
X215984Y66971D01*
X215960Y66661D01*
X215703Y65453D01*
X215599Y65160D01*
X215511Y64861D01*
X215008Y63734D01*
X214846Y63468D01*
X214697Y63194D01*
X213971Y62195D01*
X213757Y61970D01*
X213555Y61733D01*
X212637Y60907D01*
X212381Y60730D01*
X212134Y60541D01*
X211064Y59923D01*
X210777Y59804D01*
X210496Y59670D01*
X209321Y59289D01*
X209015Y59232D01*
X208712Y59159D01*
X207485Y59030D01*
X207328Y59034D01*
X207173Y59014D01*
X189003D01*
X188702Y58030D01*
X188624Y57858D01*
X188570Y57677D01*
X187244Y54728D01*
X187145Y54567D01*
X187068Y54395D01*
X185380Y51636D01*
X185262Y51489D01*
X185164Y51328D01*
X183142Y48804D01*
X183005Y48673D01*
X182888Y48526D01*
X180564Y46277D01*
X180412Y46165D01*
X180277Y46033D01*
X177688Y44095D01*
X177523Y44003D01*
X177373Y43889D01*
X174559Y42294D01*
X174384Y42223D01*
X174221Y42129D01*
X171229Y40901D01*
X171046Y40853D01*
X170872Y40781D01*
X167749Y39940D01*
X167562Y39915D01*
X167380Y39865D01*
X164176Y39425D01*
X163988Y39424D01*
X163801Y39398D01*
X160567Y39365D01*
X160380Y39388D01*
X160191Y39385D01*
X156979Y39761D01*
X156796Y39807D01*
X156608Y39828D01*
X153469Y40606D01*
X153293Y40675D01*
X153110Y40720D01*
X150094Y41887D01*
X149928Y41978D01*
X149752Y42045D01*
X146908Y43584D01*
X146755Y43694D01*
X146589Y43783D01*
X143961Y45669D01*
X143823Y45798D01*
X143669Y45907D01*
X141300Y48108D01*
X141180Y48254D01*
X141041Y48382D01*
X138969Y50864D01*
X138868Y51024D01*
X138746Y51168D01*
X137003Y53892D01*
X136923Y54063D01*
X136821Y54222D01*
X135436Y57144D01*
X135378Y57324D01*
X135296Y57494D01*
X134291Y60568D01*
X134256Y60753D01*
X134197Y60932D01*
X133587Y64108D01*
X133576Y64297D01*
X133539Y64482D01*
X133335Y67709D01*
X133348Y67898D01*
X133335Y68086D01*
X133539Y71314D01*
X133576Y71499D01*
X133587Y71687D01*
X134197Y74863D01*
X134256Y75042D01*
X134291Y75227D01*
X135296Y78301D01*
X135378Y78471D01*
X135436Y78651D01*
X136821Y81573D01*
X136923Y81732D01*
X137003Y81903D01*
X138746Y84627D01*
X138868Y84772D01*
X138969Y84931D01*
X141041Y87414D01*
X141180Y87542D01*
X141300Y87687D01*
X143669Y89888D01*
X143823Y89998D01*
X143961Y90127D01*
X146589Y92012D01*
X146755Y92101D01*
X146908Y92212D01*
X149752Y93750D01*
X149928Y93818D01*
X150094Y93908D01*
X153110Y95076D01*
X153294Y95120D01*
X153469Y95189D01*
X156608Y95967D01*
X156796Y95988D01*
X156979Y96034D01*
X160191Y96410D01*
X160380Y96407D01*
X160567Y96430D01*
D02*
G37*
G36*
X113402Y78634D02*
X116366D01*
Y75669D01*
X115953Y75724D01*
X115101Y76077D01*
X114370Y76638D01*
X113809Y77369D01*
X113456Y78220D01*
X113402Y78634D01*
D02*
G37*
G36*
X116366Y82598D02*
Y79634D01*
X113402D01*
X113456Y80048D01*
X113809Y80899D01*
X114370Y81630D01*
X115101Y82191D01*
X115953Y82544D01*
X116366Y82598D01*
D02*
G37*
G36*
X117366D02*
X117780Y82544D01*
X118631Y82191D01*
X119362Y81630D01*
X119923Y80899D01*
X120276Y80048D01*
X120331Y79634D01*
X117366D01*
Y82598D01*
D02*
G37*
G36*
Y78634D02*
X120331D01*
X120276Y78220D01*
X119923Y77369D01*
X119362Y76638D01*
X118631Y76077D01*
X117780Y75724D01*
X117366Y75669D01*
Y78634D01*
D02*
G37*
G36*
X108284Y55405D02*
X111248D01*
Y52441D01*
X110834Y52496D01*
X109983Y52848D01*
X109252Y53409D01*
X108691Y54140D01*
X108338Y54992D01*
X108284Y55405D01*
D02*
G37*
G36*
X112248Y59370D02*
X112662Y59315D01*
X113513Y58963D01*
X114244Y58402D01*
X114805Y57671D01*
X115158Y56819D01*
X115212Y56406D01*
X112248D01*
Y59370D01*
D02*
G37*
G36*
X111248D02*
Y56406D01*
X108284D01*
X108338Y56819D01*
X108691Y57671D01*
X109252Y58402D01*
X109983Y58963D01*
X110834Y59315D01*
X111248Y59370D01*
D02*
G37*
%LPD*%
G36*
X191707Y109297D02*
X191635Y109267D01*
X191539Y109240D01*
X191419Y109217D01*
X191274Y109198D01*
X190910Y109169D01*
X190180Y109153D01*
Y106201D01*
X190447Y106199D01*
X191419Y106137D01*
X191539Y106114D01*
X191635Y106087D01*
X191707Y106057D01*
X191754Y106024D01*
Y109331D01*
X191707Y109297D01*
D02*
G37*
G36*
X141051Y32861D02*
X141637Y32254D01*
X142558Y31167D01*
X142893Y30687D01*
X143145Y30248D01*
X143313Y29851D01*
X143398Y29497D01*
X143399Y29184D01*
X143317Y28914D01*
X143151Y28685D01*
X147315Y32849D01*
X147086Y32683D01*
X146816Y32601D01*
X146503Y32602D01*
X146149Y32687D01*
X145752Y32855D01*
X145313Y33107D01*
X144833Y33442D01*
X144310Y33861D01*
X143139Y34949D01*
X141051Y32861D01*
D02*
G37*
D17*
X124346Y51653D02*
Y92913D01*
X146079Y29921D02*
X124346Y51653D01*
X139110Y107677D02*
X124346Y92913D01*
X193441Y107677D02*
X139110D01*
D20*
X176079Y29921D02*
D03*
X166079D02*
D03*
X156079D02*
D03*
D21*
X146079D02*
D03*
D22*
X116866Y79134D02*
D03*
X111748Y55905D02*
D03*
D23*
X193441Y107677D02*
D03*
M02*
