G04 Layer_Physical_Order=1*
G04 Layer_Color=255*
%FSLAX25Y25*%
%MOIN*%
G70*
G01*
G75*
%ADD10R,0.03150X0.04134*%
%ADD11O,0.05118X0.02756*%
%ADD12R,0.05118X0.02756*%
%ADD13R,0.04134X0.03150*%
%ADD14R,0.04331X0.03937*%
%ADD15O,0.02756X0.05118*%
%ADD16R,0.02756X0.05118*%
%ADD17C,0.02953*%
%ADD18C,0.02000*%
%ADD19C,0.01000*%
%ADD20C,0.05905*%
%ADD21R,0.05905X0.05905*%
%ADD22C,0.05000*%
%ADD23C,0.04724*%
G36*
X42088Y109297D02*
X42160Y109267D01*
X42256Y109240D01*
X42377Y109217D01*
X42522Y109198D01*
X42886Y109169D01*
X43616Y109153D01*
Y106201D01*
X43348Y106199D01*
X42377Y106137D01*
X42256Y106114D01*
X42160Y106087D01*
X42088Y106057D01*
X42041Y106024D01*
Y109331D01*
X42088Y109297D01*
D02*
G37*
G36*
X71641Y32431D02*
X71454Y32229D01*
X71286Y32017D01*
X71139Y31794D01*
X71012Y31561D01*
X70905Y31318D01*
X70818Y31065D01*
X70750Y30801D01*
X70703Y30528D01*
X70676Y30244D01*
X70669Y29951D01*
X67746Y32874D01*
X68040Y32881D01*
X68323Y32908D01*
X68597Y32955D01*
X68860Y33022D01*
X69113Y33109D01*
X69356Y33217D01*
X69589Y33344D01*
X69812Y33491D01*
X70024Y33658D01*
X70227Y33846D01*
X71641Y32431D01*
D02*
G37*
G36*
X74208Y123604D02*
X74394Y122964D01*
X74138Y122581D01*
X73953Y121653D01*
Y120973D01*
X76378D01*
X78803D01*
Y121653D01*
X78618Y122581D01*
X78595Y122616D01*
X79174Y123521D01*
X82846Y122940D01*
X87131Y121911D01*
X91322Y120549D01*
X95393Y118863D01*
X99319Y116862D01*
X103076Y114560D01*
X106641Y111970D01*
X109992Y109108D01*
X113108Y105992D01*
X115970Y102641D01*
X118560Y99076D01*
X120862Y95319D01*
X122863Y91393D01*
X124549Y87322D01*
X125911Y83131D01*
X126939Y78846D01*
X127517Y75197D01*
X126613Y74618D01*
X126518Y74681D01*
X125591Y74866D01*
X123228D01*
X122301Y74681D01*
X122000Y74480D01*
X119685D01*
X118905Y74325D01*
X118243Y73883D01*
X114700Y70340D01*
X114258Y69678D01*
X114102Y68898D01*
Y63997D01*
X113118Y63900D01*
X113104Y63969D01*
X112662Y64631D01*
X112662Y64631D01*
X111453Y65841D01*
Y66732D01*
X111375Y67123D01*
X111154Y67453D01*
X110823Y67674D01*
X110433Y67752D01*
X105315D01*
X104925Y67674D01*
X104594Y67453D01*
X104464Y67259D01*
X103907Y67279D01*
X103480Y67423D01*
Y71359D01*
X104453Y71513D01*
X104979Y70727D01*
X105765Y70201D01*
X106693Y70016D01*
X107374D01*
Y72441D01*
Y74866D01*
X106693D01*
X105765Y74681D01*
X104979Y74155D01*
X104453Y73369D01*
X103480Y73523D01*
Y83205D01*
X103325Y83985D01*
X102883Y84647D01*
X96134Y91396D01*
Y96457D01*
X96134Y96457D01*
X95978Y97237D01*
X95536Y97899D01*
X95536Y97899D01*
X78214Y115222D01*
X77552Y115664D01*
X76772Y115819D01*
X71711D01*
X71330Y116199D01*
Y118063D01*
X71531Y118363D01*
X71716Y119291D01*
Y121653D01*
X71531Y122581D01*
X71258Y122990D01*
X71735Y123975D01*
X73935D01*
X74208Y123604D01*
D02*
G37*
G36*
X79581Y27600D02*
X79399Y27380D01*
X79239Y27154D01*
X79101Y26920D01*
X78983Y26679D01*
X78887Y26432D01*
X78813Y26177D01*
X78759Y25916D01*
X78727Y25647D01*
X78722Y25516D01*
X78727Y25432D01*
X78756Y25262D01*
X78807Y25112D01*
X78877Y24982D01*
X78966Y24872D01*
X79076Y24782D01*
X79207Y24712D01*
X79356Y24662D01*
X79527Y24632D01*
X79716Y24622D01*
X77716Y22622D01*
X75717Y24622D01*
X75906Y24632D01*
X76077Y24662D01*
X76227Y24712D01*
X76357Y24782D01*
X76467Y24872D01*
X76556Y24982D01*
X76626Y25112D01*
X76676Y25262D01*
X76706Y25432D01*
X76711Y25516D01*
X76706Y25647D01*
X76674Y25916D01*
X76621Y26177D01*
X76546Y26432D01*
X76450Y26679D01*
X76332Y26920D01*
X76194Y27154D01*
X76034Y27380D01*
X75852Y27600D01*
X75650Y27813D01*
X79783D01*
X79581Y27600D01*
D02*
G37*
G36*
X67687Y26969D02*
X67393Y26962D01*
X67110Y26935D01*
X66836Y26888D01*
X66573Y26820D01*
X66320Y26733D01*
X66077Y26626D01*
X65844Y26499D01*
X65621Y26351D01*
X65409Y26184D01*
X65206Y25997D01*
X63792Y27411D01*
X63980Y27613D01*
X64147Y27826D01*
X64294Y28049D01*
X64421Y28282D01*
X64529Y28525D01*
X64616Y28778D01*
X64683Y29041D01*
X64730Y29314D01*
X64757Y29598D01*
X64764Y29892D01*
X67687Y26969D01*
D02*
G37*
G36*
X64243Y122465D02*
X64054Y122427D01*
X63393Y121985D01*
X59553Y118146D01*
X57776D01*
X57385Y118068D01*
X57055Y117847D01*
X56834Y117516D01*
X56756Y117126D01*
Y113976D01*
X56834Y113586D01*
X57055Y113255D01*
X57234Y113136D01*
X57317Y112598D01*
X57234Y112061D01*
X57055Y111941D01*
X56834Y111611D01*
X56756Y111221D01*
Y110202D01*
X51629D01*
X51279Y110272D01*
X47146D01*
X46796Y110202D01*
X42759D01*
X42629Y110212D01*
X42562Y110221D01*
X42050Y110614D01*
X41232Y110953D01*
X40354Y111068D01*
X39477Y110953D01*
X38659Y110614D01*
X37956Y110075D01*
X37418Y109373D01*
X37079Y108555D01*
X36963Y107677D01*
X37079Y106799D01*
X37418Y105982D01*
X37956Y105279D01*
X38659Y104740D01*
X39477Y104402D01*
X40354Y104286D01*
X41232Y104402D01*
X42050Y104740D01*
X42553Y105127D01*
X42955Y105152D01*
X46411D01*
X46451Y105053D01*
X46575Y104168D01*
X46425Y104067D01*
X46204Y103737D01*
X46126Y103347D01*
Y100197D01*
X46204Y99807D01*
X46425Y99476D01*
X46755Y99255D01*
X47146Y99177D01*
X51279D01*
X51670Y99255D01*
X52000Y99476D01*
X52172Y99733D01*
X60433D01*
X61213Y99888D01*
X61875Y100330D01*
X65883Y104337D01*
X66867Y103930D01*
Y102756D01*
X67051Y101828D01*
X67577Y101041D01*
X68363Y100516D01*
X68791Y100431D01*
Y103937D01*
X69291D01*
Y104437D01*
X71716D01*
Y105118D01*
X71645Y105473D01*
X72350Y106457D01*
X73980D01*
Y101378D01*
X74058Y100988D01*
X74279Y100657D01*
X74610Y100436D01*
X75000Y100358D01*
X77756D01*
X78146Y100436D01*
X78477Y100657D01*
X78698Y100988D01*
X78776Y101378D01*
Y106496D01*
X78698Y106886D01*
X78579Y107064D01*
X78645Y107630D01*
X79678Y107989D01*
X92055Y95612D01*
Y90551D01*
X92211Y89771D01*
X92653Y89109D01*
X99402Y82360D01*
Y79151D01*
X99252Y79005D01*
X98081Y79238D01*
X96974Y81573D01*
X96872Y81732D01*
X96792Y81903D01*
X95049Y84627D01*
X94928Y84772D01*
X94827Y84931D01*
X92754Y87414D01*
X92615Y87542D01*
X92495Y87687D01*
X90126Y89888D01*
X89972Y89998D01*
X89835Y90127D01*
X87207Y92012D01*
X87040Y92101D01*
X86888Y92212D01*
X84043Y93750D01*
X83867Y93818D01*
X83701Y93908D01*
X80685Y95076D01*
X80502Y95120D01*
X80326Y95189D01*
X77187Y95967D01*
X76999Y95988D01*
X76817Y96034D01*
X73604Y96410D01*
X73416Y96407D01*
X73229Y96430D01*
X69994Y96398D01*
X69808Y96371D01*
X69619Y96370D01*
X66415Y95930D01*
X66233Y95880D01*
X66046Y95855D01*
X62923Y95015D01*
X62749Y94942D01*
X62567Y94894D01*
X59575Y93666D01*
X59411Y93572D01*
X59236Y93501D01*
X56423Y91906D01*
X56272Y91792D01*
X56108Y91700D01*
X53518Y89762D01*
X53383Y89631D01*
X53232Y89518D01*
X50907Y87270D01*
X50790Y87122D01*
X50654Y86991D01*
X48631Y84467D01*
X48534Y84306D01*
X48415Y84159D01*
X46727Y81401D01*
X46651Y81228D01*
X46552Y81068D01*
X45225Y78118D01*
X45171Y77937D01*
X45093Y77766D01*
X44793Y76781D01*
X26622D01*
X26467Y76761D01*
X26311Y76765D01*
X25083Y76636D01*
X24780Y76563D01*
X24474Y76507D01*
X23300Y76125D01*
X23019Y75991D01*
X22731Y75872D01*
X21662Y75254D01*
X21415Y75065D01*
X21158Y74888D01*
X20241Y74063D01*
X20038Y73826D01*
X19824Y73600D01*
X19098Y72601D01*
X18950Y72327D01*
X18787Y72062D01*
X18285Y70934D01*
X18196Y70635D01*
X18092Y70342D01*
X17836Y69134D01*
X17811Y68824D01*
X17771Y68515D01*
Y67280D01*
X17811Y66971D01*
X17836Y66661D01*
X18092Y65453D01*
X18196Y65160D01*
X18285Y64861D01*
X18787Y63734D01*
X18950Y63468D01*
X19098Y63194D01*
X19824Y62195D01*
X20038Y61970D01*
X20241Y61733D01*
X21158Y60907D01*
X21415Y60730D01*
X21662Y60541D01*
X22731Y59923D01*
X23019Y59804D01*
X23300Y59670D01*
X24474Y59289D01*
X24780Y59232D01*
X25083Y59159D01*
X26311Y59030D01*
X26467Y59034D01*
X26622Y59014D01*
X44793D01*
X45093Y58030D01*
X45171Y57858D01*
X45225Y57677D01*
X46552Y54728D01*
X46651Y54567D01*
X46727Y54395D01*
X48415Y51636D01*
X48534Y51489D01*
X48632Y51328D01*
X50654Y48804D01*
X50790Y48673D01*
X50907Y48526D01*
X53232Y46277D01*
X53383Y46165D01*
X53518Y46033D01*
X56108Y44095D01*
X56272Y44003D01*
X56423Y43889D01*
X59236Y42294D01*
X59411Y42223D01*
X59575Y42129D01*
X62567Y40901D01*
X62749Y40853D01*
X62923Y40781D01*
X66046Y39940D01*
X66233Y39915D01*
X66415Y39865D01*
X69619Y39425D01*
X69808Y39424D01*
X69995Y39398D01*
X72888Y39369D01*
X73300Y38518D01*
X73310Y38399D01*
X69287Y34375D01*
X69214Y34318D01*
X69063Y34218D01*
X68905Y34132D01*
X68741Y34059D01*
X68568Y34000D01*
X68384Y33953D01*
X68188Y33919D01*
X67979Y33899D01*
X67813Y33895D01*
X67716Y33908D01*
X66685Y33772D01*
X65723Y33374D01*
X64897Y32740D01*
X64264Y31915D01*
X63866Y30953D01*
X63730Y29921D01*
X63742Y29824D01*
X63739Y29659D01*
X63718Y29450D01*
X63685Y29254D01*
X63638Y29070D01*
X63578Y28897D01*
X63506Y28733D01*
X63420Y28575D01*
X63320Y28424D01*
X63262Y28351D01*
X61609Y26698D01*
X61488Y26726D01*
X61093Y27829D01*
X61169Y27928D01*
X61568Y28889D01*
X61638Y29421D01*
X57717D01*
X53795D01*
X53865Y28889D01*
X54264Y27928D01*
X54897Y27102D01*
X54979Y27039D01*
X54645Y26055D01*
X53335D01*
X49579Y29811D01*
X49793Y30819D01*
X49825Y30866D01*
X50130Y31070D01*
X50351Y31401D01*
X50429Y31791D01*
Y35728D01*
X50351Y36119D01*
X50130Y36449D01*
Y36779D01*
X50351Y37110D01*
X50429Y37500D01*
Y38969D01*
X44059D01*
Y37500D01*
X44137Y37110D01*
X44358Y36779D01*
Y36449D01*
X44137Y36119D01*
X44059Y35728D01*
Y31870D01*
X43878Y31716D01*
X43132Y31405D01*
X40253Y34284D01*
X40232Y34347D01*
X40288Y35401D01*
X40509Y35732D01*
X40587Y36122D01*
Y40059D01*
X40509Y40449D01*
X40288Y40780D01*
Y41110D01*
X40509Y41440D01*
X40587Y41831D01*
Y43299D01*
X34217D01*
Y41831D01*
X34294Y41440D01*
X34515Y41110D01*
Y40780D01*
X34294Y40449D01*
X34217Y40059D01*
Y36122D01*
X34294Y35732D01*
X34515Y35401D01*
X34846Y35180D01*
X35236Y35102D01*
X35362D01*
Y34252D01*
X35518Y33472D01*
X35960Y32810D01*
X49196Y19574D01*
X49857Y19132D01*
X50638Y18977D01*
X63054D01*
X63834Y19132D01*
X64496Y19574D01*
X66505Y21583D01*
X94095D01*
X94875Y21738D01*
X95536Y22180D01*
X111678Y38322D01*
X112120Y38983D01*
X112275Y39764D01*
Y42316D01*
X112532Y42488D01*
X112753Y42818D01*
X112831Y43209D01*
Y43236D01*
X114173D01*
X114954Y43392D01*
X115615Y43834D01*
X117584Y45802D01*
X118026Y46464D01*
X118181Y47244D01*
Y53647D01*
X119165Y53912D01*
X119551Y53409D01*
X120282Y52848D01*
X121134Y52496D01*
X121547Y52441D01*
Y55905D01*
Y59370D01*
X121134Y59315D01*
X120282Y58963D01*
X119551Y58402D01*
X119165Y57899D01*
X118181Y58164D01*
Y68053D01*
X120530Y70402D01*
X122000D01*
X122301Y70201D01*
X123228Y70016D01*
X125591D01*
X126518Y70201D01*
X126956Y70494D01*
X127939Y70114D01*
X127974Y70080D01*
Y67715D01*
X127953Y67694D01*
X126990Y67279D01*
X126518Y67594D01*
X125591Y67779D01*
X124909D01*
Y65354D01*
Y62930D01*
X125591D01*
X126518Y63114D01*
X126799Y63302D01*
X127743Y62749D01*
X127629Y61301D01*
X126939Y56949D01*
X125911Y52664D01*
X124549Y48474D01*
X122863Y44402D01*
X120862Y40476D01*
X118560Y36719D01*
X115970Y33154D01*
X113108Y29803D01*
X109992Y26687D01*
X106641Y23825D01*
X103076Y21235D01*
X99319Y18933D01*
X95393Y16932D01*
X91322Y15246D01*
X87131Y13884D01*
X82846Y12856D01*
X78494Y12166D01*
X74101Y11821D01*
X69694D01*
X65301Y12166D01*
X60949Y12856D01*
X56664Y13884D01*
X52473Y15246D01*
X48402Y16932D01*
X44476Y18933D01*
X40719Y21235D01*
X37154Y23825D01*
X33803Y26687D01*
X30687Y29803D01*
X27825Y33154D01*
X25235Y36719D01*
X22933Y40476D01*
X20932Y44402D01*
X19246Y48473D01*
X17884Y52664D01*
X16856Y56949D01*
X16166Y61301D01*
X15821Y65694D01*
Y70101D01*
X16166Y74494D01*
X16856Y78846D01*
X17884Y83131D01*
X19246Y87322D01*
X20932Y91393D01*
X22933Y95319D01*
X25235Y99076D01*
X27825Y102641D01*
X30687Y105992D01*
X33803Y109108D01*
X37154Y111970D01*
X40719Y114560D01*
X44476Y116862D01*
X48402Y118863D01*
X52473Y120549D01*
X56664Y121911D01*
X60949Y122940D01*
X64070Y123434D01*
X64243Y122465D01*
D02*
G37*
%LPC*%
G36*
X97254Y113676D02*
X91273Y108461D01*
X111143Y85668D01*
X117125Y90883D01*
X97254Y113676D01*
D02*
G37*
G36*
X117429Y82598D02*
Y79634D01*
X120394D01*
X120339Y80048D01*
X119986Y80899D01*
X119425Y81630D01*
X118694Y82191D01*
X117843Y82544D01*
X117429Y82598D01*
D02*
G37*
G36*
X78803Y119973D02*
X76878D01*
Y116966D01*
X77306Y117051D01*
X78092Y117577D01*
X78618Y118363D01*
X78803Y119291D01*
Y119973D01*
D02*
G37*
G36*
X75878D02*
X73953D01*
Y119291D01*
X74138Y118363D01*
X74664Y117577D01*
X75450Y117051D01*
X75878Y116966D01*
Y119973D01*
D02*
G37*
G36*
X109055Y74866D02*
X108374D01*
Y72941D01*
X111380D01*
X111295Y73369D01*
X110769Y74155D01*
X109983Y74681D01*
X109055Y74866D01*
D02*
G37*
G36*
X111380Y71941D02*
X108374D01*
Y70016D01*
X109055D01*
X109983Y70201D01*
X110769Y70727D01*
X111295Y71513D01*
X111380Y71941D01*
D02*
G37*
G36*
X116429Y82598D02*
X116016Y82544D01*
X115164Y82191D01*
X114433Y81630D01*
X113872Y80899D01*
X113519Y80048D01*
X113465Y79634D01*
X116429D01*
Y82598D01*
D02*
G37*
G36*
X120394Y78634D02*
X117429D01*
Y75669D01*
X117843Y75724D01*
X118694Y76077D01*
X119425Y76638D01*
X119986Y77369D01*
X120339Y78220D01*
X120394Y78634D01*
D02*
G37*
G36*
X116429D02*
X113465D01*
X113519Y78220D01*
X113872Y77369D01*
X114433Y76638D01*
X115164Y76077D01*
X116016Y75724D01*
X116429Y75669D01*
Y78634D01*
D02*
G37*
G36*
X39567Y46787D02*
X37902D01*
Y44299D01*
X40587D01*
Y45768D01*
X40509Y46158D01*
X40288Y46489D01*
X39957Y46710D01*
X39567Y46787D01*
D02*
G37*
G36*
X125512Y55405D02*
X122547D01*
Y52441D01*
X122961Y52496D01*
X123812Y52848D01*
X124543Y53409D01*
X125104Y54140D01*
X125457Y54992D01*
X125512Y55405D01*
D02*
G37*
G36*
X123909Y64854D02*
X120903D01*
X120988Y64426D01*
X121514Y63640D01*
X122301Y63114D01*
X123228Y62930D01*
X123909D01*
Y64854D01*
D02*
G37*
G36*
X122547Y59370D02*
Y56406D01*
X125512D01*
X125457Y56819D01*
X125104Y57671D01*
X124543Y58402D01*
X123812Y58963D01*
X122961Y59315D01*
X122547Y59370D01*
D02*
G37*
G36*
X58217Y33842D02*
Y30421D01*
X61638D01*
X61568Y30953D01*
X61169Y31915D01*
X60536Y32740D01*
X59710Y33374D01*
X58748Y33772D01*
X58217Y33842D01*
D02*
G37*
G36*
X57217Y33842D02*
X56685Y33772D01*
X55723Y33374D01*
X54897Y32740D01*
X54264Y31915D01*
X53865Y30953D01*
X53795Y30421D01*
X57217D01*
Y33842D01*
D02*
G37*
G36*
X46744Y42457D02*
X45079D01*
X44689Y42379D01*
X44358Y42158D01*
X44137Y41827D01*
X44059Y41437D01*
Y39968D01*
X46744D01*
Y42457D01*
D02*
G37*
G36*
X36902Y46787D02*
X35236D01*
X34846Y46710D01*
X34515Y46489D01*
X34294Y46158D01*
X34217Y45768D01*
Y44299D01*
X36902D01*
Y46787D01*
D02*
G37*
G36*
X49409Y42457D02*
X47744D01*
Y39968D01*
X50429D01*
Y41437D01*
X50351Y41827D01*
X50130Y42158D01*
X49800Y42379D01*
X49409Y42457D01*
D02*
G37*
G36*
X45433Y91369D02*
X24378D01*
Y83433D01*
X45433D01*
Y91369D01*
D02*
G37*
G36*
X71716Y103437D02*
X69791D01*
Y100431D01*
X70219Y100516D01*
X71006Y101041D01*
X71531Y101828D01*
X71716Y102756D01*
Y103437D01*
D02*
G37*
G36*
X123909Y67779D02*
X123228D01*
X122301Y67594D01*
X121514Y67069D01*
X120988Y66282D01*
X120903Y65854D01*
X123909D01*
Y67779D01*
D02*
G37*
%LPD*%
D10*
X104331Y45276D02*
D03*
X110236D02*
D03*
X105315Y55118D02*
D03*
X111221D02*
D03*
D11*
X124409Y65354D02*
D03*
Y72441D02*
D03*
X107874D02*
D03*
D12*
Y65354D02*
D03*
D13*
X59842Y109646D02*
D03*
Y115551D02*
D03*
X49213Y107677D02*
D03*
Y101772D02*
D03*
D14*
X47244Y39469D02*
D03*
Y33760D02*
D03*
X37402Y43799D02*
D03*
Y38091D02*
D03*
D15*
X76378Y120472D02*
D03*
X69291D02*
D03*
Y103937D02*
D03*
D16*
X76378D02*
D03*
D17*
X105315Y46260D02*
Y55118D01*
X104331Y45276D02*
X105315Y46260D01*
X104331Y40945D02*
Y45276D01*
X96850Y33465D02*
X104331Y40945D01*
X91260Y33465D02*
X96850D01*
X87717Y29921D02*
X91260Y33465D01*
X40354Y107677D02*
X49213D01*
X57874D02*
X59842Y109646D01*
X49213Y107677D02*
X57874D01*
D18*
X64834Y120543D02*
X69291D01*
Y120472D02*
Y120543D01*
Y115354D02*
Y120472D01*
X59842Y115551D02*
X64834Y120543D01*
X76378Y103937D02*
Y107480D01*
X75362Y108496D02*
X76378Y107480D01*
X67158Y108496D02*
X75362D01*
X60433Y101772D02*
X67158Y108496D01*
X111221Y55118D02*
Y63189D01*
X109055Y65354D02*
X111221Y63189D01*
X107874Y65354D02*
X109055D01*
X37402Y34252D02*
X50638Y21016D01*
X37402Y34252D02*
Y38091D01*
X50638Y21016D02*
X63054D01*
X65660Y23622D02*
X77716D01*
X63054Y21016D02*
X65660Y23622D01*
X94095D02*
X110236Y39764D01*
X77716Y23622D02*
X94095D01*
X77716D02*
Y29921D01*
X110236Y39764D02*
Y45276D01*
X101441Y58602D02*
Y83205D01*
X99621Y56783D02*
X101441Y58602D01*
X99621Y49227D02*
Y56783D01*
X52490Y24016D02*
X61811D01*
X47244Y29262D02*
X52490Y24016D01*
X47244Y29262D02*
Y33760D01*
X94095Y90551D02*
X101441Y83205D01*
X94095Y90551D02*
Y96457D01*
X76772Y113779D02*
X94095Y96457D01*
X88784Y38390D02*
X99621Y49227D01*
X76186Y38390D02*
X88784D01*
X70866Y113779D02*
X76772D01*
X69291Y115354D02*
X70866Y113779D01*
X119685Y72441D02*
X124409D01*
X116142Y68898D02*
X119685Y72441D01*
X67716Y29921D02*
X76186Y38390D01*
X49213Y101772D02*
X60433D01*
X110236Y45276D02*
X114173D01*
X61811Y24016D02*
X67716Y29921D01*
X116142Y47244D02*
Y68898D01*
X114173Y45276D02*
X116142Y47244D01*
D19*
X26378Y85433D02*
Y89369D01*
X28346D01*
X29002Y88713D01*
Y87401D01*
X28346Y86745D01*
X26378D01*
X27690D02*
X29002Y85433D01*
X32937Y89369D02*
X30314D01*
Y85433D01*
X32937D01*
X30314Y87401D02*
X31626D01*
X34249Y89369D02*
Y86745D01*
X35561Y85433D01*
X36873Y86745D01*
Y89369D01*
X42121Y85433D02*
X43433D01*
X42777D01*
Y89369D01*
X42121Y88713D01*
X98785Y108876D02*
X97061Y110854D01*
X94095Y108268D01*
X95819Y106290D01*
X95578Y109561D02*
X96440Y108572D01*
X96681Y105301D02*
X99647Y107887D01*
X98405Y103323D01*
X101372Y105910D01*
X103463Y102512D02*
X103527Y103437D01*
X102665Y104426D01*
X101739Y104490D01*
X99762Y102766D01*
X99698Y101840D01*
X100560Y100851D01*
X101486Y100788D01*
X106113Y100471D02*
X105251Y101460D01*
X104326Y101523D01*
X102348Y99799D01*
X102285Y98873D01*
X103147Y97884D01*
X104072Y97821D01*
X106050Y99545D01*
X106113Y100471D01*
X107406Y98987D02*
X104440Y96401D01*
X105733Y94918D01*
X106658Y94854D01*
X108636Y96579D01*
X108700Y97504D01*
X107406Y98987D01*
X111717Y94043D02*
X109993Y96021D01*
X107026Y93435D01*
X108750Y91457D01*
X108509Y94728D02*
X109371Y93739D01*
X109612Y90468D02*
X112579Y93054D01*
X113872Y91571D01*
X113809Y90645D01*
X112820Y89783D01*
X111894Y89847D01*
X110601Y91330D01*
X111463Y90341D02*
X111337Y88490D01*
D20*
X57717Y29921D02*
D03*
X67716D02*
D03*
X77716D02*
D03*
D21*
X87717D02*
D03*
D22*
X116929Y79134D02*
D03*
X122047Y55905D02*
D03*
D23*
X40354Y107677D02*
D03*
M02*
